G04 EAGLE Gerber RS-274X export*
G75*
%MOMM*%
%FSLAX34Y34*%
%LPD*%
%INTop Copper*%
%IPPOS*%
%AMOC8*
5,1,8,0,0,1.08239X$1,22.5*%
G01*
%ADD10R,1.100000X2.000000*%
%ADD11C,1.930400*%
%ADD12R,1.100000X1.000000*%
%ADD13C,1.879600*%
%ADD14R,1.000000X1.100000*%
%ADD15C,0.609600*%
%ADD16C,0.800100*%

G36*
X115515Y43596D02*
X115515Y43596D01*
X115592Y43595D01*
X115688Y43616D01*
X115785Y43627D01*
X115857Y43653D01*
X115932Y43669D01*
X116021Y43711D01*
X116114Y43745D01*
X116178Y43786D01*
X116247Y43819D01*
X116324Y43880D01*
X116406Y43934D01*
X116459Y43989D01*
X116519Y44036D01*
X116580Y44113D01*
X116649Y44184D01*
X116688Y44250D01*
X116735Y44310D01*
X116803Y44443D01*
X116827Y44483D01*
X116833Y44501D01*
X116847Y44527D01*
X117094Y45125D01*
X120381Y48412D01*
X124676Y50191D01*
X129324Y50191D01*
X133619Y48412D01*
X136906Y45125D01*
X137153Y44527D01*
X137191Y44461D01*
X137219Y44390D01*
X137275Y44309D01*
X137323Y44223D01*
X137374Y44166D01*
X137418Y44104D01*
X137491Y44038D01*
X137557Y43965D01*
X137620Y43921D01*
X137677Y43870D01*
X137763Y43822D01*
X137844Y43767D01*
X137915Y43739D01*
X137982Y43702D01*
X138076Y43675D01*
X138168Y43639D01*
X138243Y43628D01*
X138317Y43607D01*
X138466Y43595D01*
X138513Y43588D01*
X138532Y43589D01*
X138561Y43587D01*
X369439Y43587D01*
X369515Y43596D01*
X369592Y43595D01*
X369688Y43616D01*
X369785Y43627D01*
X369857Y43653D01*
X369932Y43669D01*
X370021Y43711D01*
X370114Y43745D01*
X370178Y43786D01*
X370247Y43819D01*
X370324Y43880D01*
X370406Y43934D01*
X370459Y43989D01*
X370519Y44036D01*
X370580Y44113D01*
X370649Y44184D01*
X370688Y44250D01*
X370735Y44310D01*
X370803Y44443D01*
X370827Y44483D01*
X370833Y44501D01*
X370847Y44527D01*
X371094Y45125D01*
X374381Y48412D01*
X378676Y50191D01*
X383324Y50191D01*
X387619Y48412D01*
X390906Y45125D01*
X391153Y44527D01*
X391191Y44461D01*
X391219Y44390D01*
X391275Y44309D01*
X391323Y44223D01*
X391374Y44166D01*
X391418Y44104D01*
X391491Y44038D01*
X391557Y43965D01*
X391620Y43921D01*
X391677Y43870D01*
X391763Y43822D01*
X391844Y43767D01*
X391915Y43739D01*
X391982Y43702D01*
X392076Y43675D01*
X392168Y43639D01*
X392243Y43628D01*
X392317Y43607D01*
X392466Y43595D01*
X392513Y43588D01*
X392532Y43589D01*
X392561Y43587D01*
X623439Y43587D01*
X623515Y43596D01*
X623592Y43595D01*
X623688Y43616D01*
X623785Y43627D01*
X623857Y43653D01*
X623932Y43669D01*
X624021Y43711D01*
X624114Y43745D01*
X624178Y43786D01*
X624247Y43819D01*
X624324Y43880D01*
X624406Y43934D01*
X624459Y43989D01*
X624519Y44036D01*
X624580Y44113D01*
X624649Y44184D01*
X624688Y44250D01*
X624735Y44310D01*
X624803Y44443D01*
X624827Y44483D01*
X624833Y44501D01*
X624847Y44527D01*
X625094Y45125D01*
X628381Y48412D01*
X632676Y50191D01*
X637324Y50191D01*
X641619Y48412D01*
X644906Y45125D01*
X645153Y44527D01*
X645191Y44461D01*
X645219Y44390D01*
X645275Y44309D01*
X645323Y44223D01*
X645374Y44166D01*
X645418Y44104D01*
X645491Y44038D01*
X645557Y43965D01*
X645620Y43921D01*
X645677Y43870D01*
X645763Y43822D01*
X645844Y43767D01*
X645915Y43739D01*
X645982Y43702D01*
X646076Y43675D01*
X646168Y43639D01*
X646243Y43628D01*
X646317Y43607D01*
X646466Y43595D01*
X646513Y43588D01*
X646532Y43589D01*
X646561Y43587D01*
X723900Y43587D01*
X723942Y43592D01*
X724019Y43592D01*
X726960Y43823D01*
X727016Y43834D01*
X727073Y43836D01*
X727283Y43887D01*
X727302Y43890D01*
X727306Y43892D01*
X727311Y43893D01*
X732904Y45710D01*
X733010Y45759D01*
X733120Y45799D01*
X733183Y45838D01*
X733221Y45855D01*
X733256Y45882D01*
X733329Y45927D01*
X738086Y49383D01*
X738172Y49462D01*
X738264Y49535D01*
X738312Y49591D01*
X738343Y49619D01*
X738368Y49656D01*
X738423Y49720D01*
X741880Y54478D01*
X741937Y54580D01*
X742002Y54677D01*
X742031Y54745D01*
X742051Y54781D01*
X742063Y54824D01*
X742096Y54902D01*
X743913Y60495D01*
X743925Y60551D01*
X743944Y60605D01*
X743979Y60819D01*
X743982Y60837D01*
X743982Y60841D01*
X743983Y60847D01*
X744215Y63787D01*
X744213Y63829D01*
X744219Y63906D01*
X744219Y64914D01*
X744211Y64990D01*
X744212Y65067D01*
X744191Y65163D01*
X744179Y65260D01*
X744154Y65332D01*
X744137Y65407D01*
X744095Y65496D01*
X744062Y65588D01*
X744020Y65653D01*
X743988Y65722D01*
X743926Y65799D01*
X743873Y65881D01*
X743818Y65934D01*
X743770Y65994D01*
X743693Y66055D01*
X743622Y66123D01*
X743557Y66163D01*
X743497Y66210D01*
X743364Y66278D01*
X743323Y66302D01*
X743305Y66308D01*
X743279Y66321D01*
X742825Y66510D01*
X739610Y69725D01*
X737869Y73926D01*
X737869Y78474D01*
X739610Y82675D01*
X742825Y85890D01*
X746693Y87493D01*
X746781Y87542D01*
X746873Y87582D01*
X746933Y87626D01*
X746998Y87662D01*
X747072Y87729D01*
X747153Y87789D01*
X747201Y87846D01*
X747256Y87896D01*
X747313Y87979D01*
X747378Y88055D01*
X747412Y88122D01*
X747454Y88183D01*
X747491Y88276D01*
X747537Y88366D01*
X747555Y88438D01*
X747582Y88507D01*
X747596Y88606D01*
X747621Y88704D01*
X747622Y88778D01*
X747633Y88852D01*
X747624Y88952D01*
X747626Y89052D01*
X747610Y89125D01*
X747604Y89199D01*
X747573Y89295D01*
X747551Y89393D01*
X747520Y89460D01*
X747497Y89531D01*
X747445Y89617D01*
X747402Y89708D01*
X747355Y89766D01*
X747317Y89829D01*
X747247Y89901D01*
X747184Y89980D01*
X747126Y90026D01*
X747074Y90079D01*
X746990Y90134D01*
X746911Y90196D01*
X746821Y90242D01*
X746781Y90268D01*
X746747Y90280D01*
X746693Y90307D01*
X742825Y91910D01*
X739610Y95125D01*
X739421Y95579D01*
X739384Y95646D01*
X739356Y95717D01*
X739300Y95798D01*
X739252Y95884D01*
X739201Y95940D01*
X739157Y96003D01*
X739084Y96069D01*
X739018Y96142D01*
X738955Y96185D01*
X738898Y96236D01*
X738812Y96284D01*
X738731Y96340D01*
X738660Y96368D01*
X738593Y96405D01*
X738499Y96432D01*
X738407Y96468D01*
X738332Y96479D01*
X738258Y96500D01*
X738109Y96512D01*
X738062Y96519D01*
X738043Y96517D01*
X738014Y96519D01*
X710088Y96519D01*
X702336Y98597D01*
X695385Y102609D01*
X692548Y105447D01*
X691730Y106265D01*
X682755Y115240D01*
X682027Y115968D01*
X681998Y115991D01*
X681954Y116036D01*
X680106Y117657D01*
X680083Y117673D01*
X680064Y117692D01*
X679863Y117831D01*
X675614Y120284D01*
X675543Y120315D01*
X675477Y120355D01*
X675337Y120404D01*
X675294Y120423D01*
X675274Y120426D01*
X675246Y120437D01*
X670507Y121707D01*
X670480Y121711D01*
X670454Y121720D01*
X670212Y121755D01*
X667759Y121916D01*
X667722Y121914D01*
X667659Y121919D01*
X652425Y121919D01*
X652299Y121905D01*
X652173Y121898D01*
X652127Y121885D01*
X652079Y121879D01*
X651960Y121837D01*
X651838Y121802D01*
X651796Y121778D01*
X651751Y121762D01*
X651644Y121693D01*
X651534Y121632D01*
X651488Y121592D01*
X651458Y121573D01*
X651424Y121538D01*
X651348Y121473D01*
X649842Y119967D01*
X637158Y119967D01*
X636077Y121048D01*
X636057Y121065D01*
X636040Y121084D01*
X635920Y121173D01*
X635804Y121265D01*
X635780Y121276D01*
X635759Y121292D01*
X635623Y121350D01*
X635489Y121414D01*
X635463Y121419D01*
X635439Y121430D01*
X635293Y121456D01*
X635148Y121487D01*
X635122Y121487D01*
X635096Y121491D01*
X634948Y121484D01*
X634800Y121481D01*
X634774Y121475D01*
X634748Y121473D01*
X634606Y121432D01*
X634462Y121396D01*
X634439Y121384D01*
X634413Y121377D01*
X634284Y121304D01*
X634152Y121236D01*
X634132Y121220D01*
X634109Y121207D01*
X633923Y121048D01*
X632808Y119933D01*
X632758Y119927D01*
X632733Y119919D01*
X632707Y119915D01*
X632569Y119860D01*
X632430Y119810D01*
X632408Y119796D01*
X632383Y119786D01*
X632262Y119701D01*
X632137Y119621D01*
X632119Y119602D01*
X632097Y119587D01*
X631998Y119477D01*
X631895Y119370D01*
X631881Y119348D01*
X631864Y119328D01*
X631792Y119198D01*
X631716Y119071D01*
X631708Y119046D01*
X631695Y119023D01*
X631655Y118880D01*
X631610Y118739D01*
X631608Y118713D01*
X631600Y118688D01*
X631581Y118444D01*
X631581Y107515D01*
X631585Y107478D01*
X631584Y107415D01*
X631745Y104962D01*
X631750Y104935D01*
X631749Y104908D01*
X631793Y104667D01*
X632694Y101307D01*
X632694Y101306D01*
X632694Y101305D01*
X632759Y101141D01*
X632822Y100983D01*
X632823Y100982D01*
X632823Y100981D01*
X632927Y100831D01*
X633020Y100697D01*
X633021Y100696D01*
X633022Y100695D01*
X633152Y100577D01*
X633279Y100463D01*
X633280Y100462D01*
X633281Y100461D01*
X633437Y100375D01*
X633583Y100294D01*
X633585Y100293D01*
X633586Y100293D01*
X633752Y100246D01*
X633919Y100198D01*
X633920Y100198D01*
X633921Y100198D01*
X634165Y100178D01*
X637324Y100178D01*
X641619Y98399D01*
X644906Y95113D01*
X646685Y90818D01*
X646685Y86169D01*
X644906Y81875D01*
X641619Y78588D01*
X637324Y76809D01*
X632676Y76809D01*
X628381Y78588D01*
X625094Y81875D01*
X623315Y86169D01*
X623315Y90818D01*
X624293Y93178D01*
X624307Y93228D01*
X624329Y93275D01*
X624355Y93395D01*
X624389Y93513D01*
X624391Y93565D01*
X624402Y93615D01*
X624400Y93739D01*
X624406Y93861D01*
X624396Y93912D01*
X624395Y93964D01*
X624365Y94083D01*
X624343Y94204D01*
X624322Y94252D01*
X624310Y94302D01*
X624205Y94523D01*
X623496Y95749D01*
X621419Y103502D01*
X621419Y118444D01*
X621416Y118470D01*
X621418Y118496D01*
X621396Y118643D01*
X621379Y118790D01*
X621371Y118815D01*
X621367Y118841D01*
X621312Y118979D01*
X621262Y119118D01*
X621248Y119140D01*
X621238Y119165D01*
X621153Y119286D01*
X621073Y119411D01*
X621054Y119429D01*
X621039Y119451D01*
X620929Y119550D01*
X620822Y119653D01*
X620800Y119667D01*
X620780Y119684D01*
X620650Y119756D01*
X620523Y119832D01*
X620498Y119840D01*
X620475Y119853D01*
X620332Y119893D01*
X620191Y119938D01*
X620186Y119939D01*
X618652Y121473D01*
X618553Y121552D01*
X618459Y121636D01*
X618417Y121660D01*
X618379Y121690D01*
X618265Y121744D01*
X618154Y121805D01*
X618108Y121818D01*
X618064Y121839D01*
X617941Y121865D01*
X617819Y121900D01*
X617758Y121905D01*
X617723Y121912D01*
X617675Y121911D01*
X617575Y121919D01*
X588371Y121919D01*
X588335Y121915D01*
X588271Y121916D01*
X585818Y121755D01*
X585791Y121750D01*
X585764Y121751D01*
X585523Y121707D01*
X580784Y120437D01*
X580712Y120408D01*
X580637Y120389D01*
X580504Y120326D01*
X580460Y120308D01*
X580444Y120297D01*
X580416Y120284D01*
X576167Y117831D01*
X576145Y117815D01*
X576121Y117803D01*
X575924Y117657D01*
X574076Y116036D01*
X574051Y116009D01*
X574003Y115968D01*
X573091Y115055D01*
X573090Y115055D01*
X545250Y87214D01*
X545249Y87214D01*
X544432Y86397D01*
X541595Y83559D01*
X534644Y79547D01*
X526892Y77469D01*
X487838Y77469D01*
X480086Y79547D01*
X473135Y83559D01*
X470298Y86396D01*
X470298Y86397D01*
X469460Y87235D01*
X441478Y115217D01*
X440727Y115968D01*
X440698Y115991D01*
X440654Y116036D01*
X438806Y117657D01*
X438783Y117673D01*
X438764Y117692D01*
X438563Y117831D01*
X434314Y120284D01*
X434243Y120315D01*
X434177Y120355D01*
X434037Y120404D01*
X433994Y120423D01*
X433974Y120426D01*
X433946Y120437D01*
X429207Y121707D01*
X429180Y121711D01*
X429154Y121720D01*
X428912Y121755D01*
X426459Y121916D01*
X426422Y121914D01*
X426359Y121919D01*
X398425Y121919D01*
X398299Y121905D01*
X398173Y121898D01*
X398127Y121885D01*
X398079Y121879D01*
X397960Y121837D01*
X397838Y121802D01*
X397796Y121778D01*
X397751Y121762D01*
X397644Y121693D01*
X397534Y121632D01*
X397488Y121592D01*
X397458Y121573D01*
X397424Y121538D01*
X397348Y121473D01*
X395842Y119967D01*
X383158Y119967D01*
X382077Y121048D01*
X382057Y121065D01*
X382040Y121084D01*
X381920Y121173D01*
X381804Y121265D01*
X381780Y121276D01*
X381759Y121292D01*
X381623Y121350D01*
X381489Y121414D01*
X381463Y121419D01*
X381439Y121430D01*
X381293Y121456D01*
X381148Y121487D01*
X381122Y121487D01*
X381096Y121491D01*
X380948Y121484D01*
X380800Y121481D01*
X380774Y121475D01*
X380748Y121473D01*
X380606Y121432D01*
X380462Y121396D01*
X380439Y121384D01*
X380413Y121377D01*
X380284Y121304D01*
X380152Y121236D01*
X380132Y121220D01*
X380109Y121207D01*
X379923Y121048D01*
X378808Y119933D01*
X378758Y119927D01*
X378733Y119919D01*
X378707Y119915D01*
X378569Y119860D01*
X378430Y119810D01*
X378408Y119796D01*
X378383Y119786D01*
X378262Y119701D01*
X378137Y119621D01*
X378119Y119602D01*
X378097Y119587D01*
X377998Y119477D01*
X377895Y119370D01*
X377881Y119348D01*
X377864Y119328D01*
X377792Y119198D01*
X377716Y119071D01*
X377708Y119046D01*
X377695Y119023D01*
X377655Y118880D01*
X377610Y118739D01*
X377608Y118713D01*
X377600Y118688D01*
X377581Y118444D01*
X377581Y107515D01*
X377585Y107478D01*
X377584Y107415D01*
X377745Y104962D01*
X377750Y104935D01*
X377749Y104908D01*
X377793Y104667D01*
X378694Y101307D01*
X378694Y101306D01*
X378694Y101305D01*
X378759Y101141D01*
X378822Y100983D01*
X378823Y100982D01*
X378823Y100981D01*
X378927Y100831D01*
X379020Y100697D01*
X379021Y100696D01*
X379022Y100695D01*
X379152Y100577D01*
X379279Y100463D01*
X379280Y100462D01*
X379281Y100461D01*
X379437Y100375D01*
X379583Y100294D01*
X379585Y100293D01*
X379586Y100293D01*
X379752Y100246D01*
X379919Y100198D01*
X379920Y100198D01*
X379921Y100198D01*
X380165Y100178D01*
X383324Y100178D01*
X387619Y98399D01*
X390906Y95113D01*
X392685Y90818D01*
X392685Y86169D01*
X390906Y81875D01*
X387619Y78588D01*
X383324Y76809D01*
X378676Y76809D01*
X374381Y78588D01*
X371094Y81875D01*
X369315Y86169D01*
X369315Y90818D01*
X370293Y93178D01*
X370307Y93228D01*
X370329Y93275D01*
X370355Y93395D01*
X370389Y93513D01*
X370391Y93565D01*
X370402Y93615D01*
X370400Y93739D01*
X370406Y93861D01*
X370396Y93912D01*
X370395Y93964D01*
X370365Y94083D01*
X370343Y94204D01*
X370322Y94252D01*
X370310Y94302D01*
X370205Y94523D01*
X369496Y95749D01*
X367419Y103502D01*
X367419Y118444D01*
X367416Y118470D01*
X367418Y118496D01*
X367396Y118643D01*
X367379Y118790D01*
X367371Y118815D01*
X367367Y118841D01*
X367312Y118979D01*
X367262Y119118D01*
X367248Y119140D01*
X367238Y119165D01*
X367153Y119286D01*
X367073Y119411D01*
X367054Y119429D01*
X367039Y119451D01*
X366929Y119550D01*
X366822Y119653D01*
X366800Y119667D01*
X366780Y119684D01*
X366650Y119756D01*
X366523Y119832D01*
X366498Y119840D01*
X366475Y119853D01*
X366332Y119893D01*
X366191Y119938D01*
X366186Y119939D01*
X364652Y121473D01*
X364553Y121552D01*
X364459Y121636D01*
X364417Y121660D01*
X364379Y121690D01*
X364265Y121744D01*
X364154Y121805D01*
X364108Y121818D01*
X364064Y121839D01*
X363941Y121865D01*
X363819Y121900D01*
X363758Y121905D01*
X363723Y121912D01*
X363675Y121911D01*
X363575Y121919D01*
X344531Y121919D01*
X344495Y121915D01*
X344431Y121916D01*
X341978Y121755D01*
X341951Y121750D01*
X341924Y121751D01*
X341683Y121707D01*
X336944Y120437D01*
X336872Y120408D01*
X336797Y120389D01*
X336664Y120326D01*
X336620Y120308D01*
X336604Y120297D01*
X336576Y120284D01*
X332327Y117831D01*
X332305Y117815D01*
X332281Y117803D01*
X332084Y117657D01*
X330236Y116036D01*
X330211Y116009D01*
X330163Y115968D01*
X329234Y115039D01*
X301521Y87326D01*
X300592Y86397D01*
X297755Y83559D01*
X290804Y79547D01*
X283052Y77469D01*
X221138Y77469D01*
X213386Y79547D01*
X206435Y83559D01*
X203598Y86396D01*
X203598Y86397D01*
X202760Y87235D01*
X174777Y115217D01*
X174027Y115968D01*
X173998Y115991D01*
X173954Y116036D01*
X172106Y117657D01*
X172083Y117673D01*
X172064Y117692D01*
X171863Y117831D01*
X167614Y120284D01*
X167543Y120315D01*
X167477Y120355D01*
X167337Y120404D01*
X167294Y120423D01*
X167274Y120426D01*
X167246Y120437D01*
X162507Y121707D01*
X162480Y121711D01*
X162454Y121720D01*
X162212Y121755D01*
X159759Y121916D01*
X159722Y121914D01*
X159659Y121919D01*
X144425Y121919D01*
X144299Y121905D01*
X144173Y121898D01*
X144127Y121885D01*
X144079Y121879D01*
X143960Y121837D01*
X143838Y121802D01*
X143796Y121778D01*
X143751Y121762D01*
X143644Y121693D01*
X143534Y121632D01*
X143488Y121592D01*
X143458Y121573D01*
X143424Y121538D01*
X143348Y121473D01*
X141842Y119967D01*
X129158Y119967D01*
X128077Y121048D01*
X128057Y121065D01*
X128040Y121084D01*
X127920Y121173D01*
X127804Y121265D01*
X127780Y121276D01*
X127759Y121292D01*
X127623Y121350D01*
X127489Y121414D01*
X127463Y121419D01*
X127439Y121430D01*
X127293Y121456D01*
X127148Y121487D01*
X127122Y121487D01*
X127096Y121491D01*
X126948Y121484D01*
X126800Y121481D01*
X126774Y121475D01*
X126748Y121473D01*
X126606Y121432D01*
X126462Y121396D01*
X126439Y121384D01*
X126413Y121377D01*
X126284Y121304D01*
X126152Y121236D01*
X126132Y121220D01*
X126109Y121207D01*
X125923Y121048D01*
X124808Y119933D01*
X124758Y119927D01*
X124733Y119919D01*
X124707Y119915D01*
X124569Y119860D01*
X124430Y119810D01*
X124408Y119796D01*
X124383Y119786D01*
X124262Y119701D01*
X124137Y119621D01*
X124119Y119602D01*
X124097Y119587D01*
X123998Y119477D01*
X123895Y119370D01*
X123881Y119348D01*
X123864Y119328D01*
X123792Y119198D01*
X123716Y119071D01*
X123708Y119046D01*
X123695Y119023D01*
X123655Y118880D01*
X123610Y118739D01*
X123608Y118713D01*
X123600Y118688D01*
X123581Y118444D01*
X123581Y107515D01*
X123585Y107478D01*
X123584Y107415D01*
X123745Y104962D01*
X123750Y104935D01*
X123749Y104908D01*
X123793Y104667D01*
X124694Y101307D01*
X124694Y101306D01*
X124694Y101305D01*
X124759Y101141D01*
X124822Y100983D01*
X124823Y100982D01*
X124823Y100981D01*
X124927Y100831D01*
X125020Y100697D01*
X125021Y100696D01*
X125022Y100695D01*
X125152Y100577D01*
X125279Y100463D01*
X125280Y100462D01*
X125281Y100461D01*
X125437Y100375D01*
X125583Y100294D01*
X125585Y100293D01*
X125586Y100293D01*
X125752Y100246D01*
X125919Y100198D01*
X125920Y100198D01*
X125921Y100198D01*
X126165Y100178D01*
X129324Y100178D01*
X133619Y98399D01*
X136906Y95113D01*
X138685Y90818D01*
X138685Y86169D01*
X136906Y81875D01*
X133619Y78588D01*
X129324Y76809D01*
X124676Y76809D01*
X120381Y78588D01*
X117094Y81875D01*
X115315Y86169D01*
X115315Y90818D01*
X116293Y93178D01*
X116307Y93228D01*
X116329Y93275D01*
X116355Y93395D01*
X116389Y93513D01*
X116391Y93565D01*
X116402Y93615D01*
X116400Y93739D01*
X116406Y93861D01*
X116396Y93912D01*
X116395Y93964D01*
X116365Y94083D01*
X116343Y94204D01*
X116322Y94252D01*
X116310Y94302D01*
X116205Y94523D01*
X115496Y95749D01*
X113419Y103502D01*
X113419Y118444D01*
X113416Y118470D01*
X113418Y118496D01*
X113396Y118643D01*
X113379Y118790D01*
X113371Y118815D01*
X113367Y118841D01*
X113312Y118979D01*
X113262Y119118D01*
X113248Y119140D01*
X113238Y119165D01*
X113153Y119286D01*
X113073Y119411D01*
X113054Y119429D01*
X113039Y119451D01*
X112929Y119550D01*
X112822Y119653D01*
X112800Y119667D01*
X112780Y119684D01*
X112650Y119756D01*
X112523Y119832D01*
X112498Y119840D01*
X112475Y119853D01*
X112332Y119893D01*
X112191Y119938D01*
X112186Y119939D01*
X111067Y121058D01*
X110949Y121152D01*
X110833Y121250D01*
X110812Y121260D01*
X110794Y121275D01*
X110658Y121339D01*
X110523Y121408D01*
X110500Y121414D01*
X110479Y121424D01*
X110332Y121456D01*
X110185Y121492D01*
X110161Y121492D01*
X110138Y121497D01*
X109987Y121495D01*
X109836Y121497D01*
X109808Y121492D01*
X109790Y121491D01*
X109744Y121480D01*
X109596Y121453D01*
X105804Y120437D01*
X105732Y120408D01*
X105657Y120389D01*
X105524Y120326D01*
X105480Y120308D01*
X105464Y120297D01*
X105436Y120284D01*
X101187Y117831D01*
X101165Y117815D01*
X101141Y117803D01*
X100944Y117657D01*
X99096Y116036D01*
X99071Y116009D01*
X99023Y115968D01*
X98141Y115086D01*
X98141Y115085D01*
X89295Y106240D01*
X89295Y106239D01*
X88502Y105447D01*
X85665Y102609D01*
X78714Y98597D01*
X70962Y96519D01*
X23986Y96519D01*
X23910Y96511D01*
X23833Y96512D01*
X23737Y96491D01*
X23640Y96479D01*
X23568Y96454D01*
X23493Y96437D01*
X23404Y96395D01*
X23312Y96362D01*
X23247Y96320D01*
X23178Y96288D01*
X23101Y96226D01*
X23019Y96173D01*
X22966Y96118D01*
X22906Y96070D01*
X22845Y95993D01*
X22777Y95922D01*
X22737Y95857D01*
X22690Y95797D01*
X22622Y95664D01*
X22598Y95623D01*
X22592Y95605D01*
X22579Y95579D01*
X22390Y95125D01*
X19175Y91910D01*
X15307Y90307D01*
X15219Y90258D01*
X15127Y90218D01*
X15067Y90174D01*
X15002Y90138D01*
X14928Y90071D01*
X14847Y90011D01*
X14799Y89954D01*
X14744Y89904D01*
X14687Y89821D01*
X14622Y89745D01*
X14588Y89678D01*
X14546Y89617D01*
X14509Y89524D01*
X14463Y89434D01*
X14445Y89362D01*
X14418Y89293D01*
X14404Y89194D01*
X14379Y89096D01*
X14378Y89022D01*
X14367Y88948D01*
X14376Y88848D01*
X14374Y88748D01*
X14390Y88675D01*
X14396Y88601D01*
X14427Y88505D01*
X14449Y88407D01*
X14480Y88340D01*
X14503Y88269D01*
X14555Y88183D01*
X14598Y88092D01*
X14645Y88034D01*
X14683Y87971D01*
X14753Y87899D01*
X14816Y87820D01*
X14874Y87774D01*
X14926Y87721D01*
X15010Y87666D01*
X15089Y87604D01*
X15179Y87558D01*
X15219Y87532D01*
X15253Y87520D01*
X15307Y87493D01*
X19175Y85890D01*
X22390Y82675D01*
X24131Y78474D01*
X24131Y73926D01*
X22390Y69725D01*
X19175Y66510D01*
X18721Y66321D01*
X18654Y66284D01*
X18583Y66256D01*
X18502Y66200D01*
X18416Y66152D01*
X18360Y66101D01*
X18297Y66057D01*
X18231Y65984D01*
X18158Y65918D01*
X18115Y65855D01*
X18064Y65798D01*
X18016Y65712D01*
X17960Y65631D01*
X17932Y65560D01*
X17895Y65493D01*
X17868Y65399D01*
X17832Y65307D01*
X17821Y65232D01*
X17800Y65158D01*
X17788Y65009D01*
X17781Y64962D01*
X17783Y64943D01*
X17781Y64914D01*
X17781Y63906D01*
X17786Y63864D01*
X17785Y63787D01*
X18017Y60847D01*
X18028Y60790D01*
X18030Y60733D01*
X18080Y60523D01*
X18084Y60505D01*
X18085Y60501D01*
X18087Y60495D01*
X19904Y54902D01*
X19952Y54796D01*
X19993Y54687D01*
X20032Y54623D01*
X20049Y54586D01*
X20076Y54550D01*
X20120Y54478D01*
X23577Y49720D01*
X23656Y49634D01*
X23728Y49542D01*
X23785Y49494D01*
X23813Y49464D01*
X23849Y49438D01*
X23914Y49383D01*
X28671Y45927D01*
X28773Y45869D01*
X28870Y45804D01*
X28939Y45776D01*
X28975Y45755D01*
X29018Y45743D01*
X29096Y45710D01*
X34689Y43893D01*
X34745Y43882D01*
X34799Y43862D01*
X35012Y43828D01*
X35031Y43824D01*
X35035Y43824D01*
X35040Y43823D01*
X37980Y43592D01*
X38023Y43593D01*
X38100Y43587D01*
X115439Y43587D01*
X115515Y43596D01*
G37*
G36*
X757962Y2544D02*
X757962Y2544D01*
X757988Y2542D01*
X758135Y2564D01*
X758282Y2581D01*
X758307Y2589D01*
X758333Y2593D01*
X758471Y2648D01*
X758610Y2698D01*
X758632Y2712D01*
X758657Y2722D01*
X758778Y2807D01*
X758903Y2887D01*
X758921Y2906D01*
X758943Y2921D01*
X759042Y3031D01*
X759145Y3138D01*
X759159Y3160D01*
X759176Y3180D01*
X759248Y3310D01*
X759324Y3437D01*
X759332Y3462D01*
X759345Y3485D01*
X759385Y3628D01*
X759430Y3769D01*
X759432Y3795D01*
X759440Y3820D01*
X759459Y4064D01*
X759459Y66516D01*
X759448Y66616D01*
X759446Y66717D01*
X759428Y66789D01*
X759419Y66863D01*
X759386Y66957D01*
X759361Y67054D01*
X759327Y67121D01*
X759302Y67191D01*
X759247Y67275D01*
X759201Y67364D01*
X759153Y67421D01*
X759113Y67483D01*
X759041Y67553D01*
X758976Y67630D01*
X758916Y67674D01*
X758862Y67726D01*
X758776Y67777D01*
X758695Y67837D01*
X758627Y67866D01*
X758563Y67904D01*
X758467Y67935D01*
X758375Y67975D01*
X758302Y67988D01*
X758231Y68011D01*
X758131Y68019D01*
X758032Y68037D01*
X757958Y68033D01*
X757884Y68039D01*
X757784Y68024D01*
X757684Y68019D01*
X757613Y67998D01*
X757539Y67987D01*
X757446Y67950D01*
X757349Y67922D01*
X757284Y67886D01*
X757215Y67858D01*
X757133Y67801D01*
X757045Y67752D01*
X756969Y67687D01*
X756929Y67659D01*
X756905Y67633D01*
X756859Y67593D01*
X755775Y66509D01*
X755321Y66321D01*
X755254Y66284D01*
X755183Y66256D01*
X755102Y66200D01*
X755016Y66152D01*
X754960Y66101D01*
X754897Y66057D01*
X754831Y65984D01*
X754758Y65918D01*
X754715Y65855D01*
X754664Y65798D01*
X754616Y65712D01*
X754560Y65631D01*
X754532Y65560D01*
X754495Y65493D01*
X754468Y65399D01*
X754432Y65307D01*
X754421Y65232D01*
X754400Y65158D01*
X754388Y65009D01*
X754381Y64962D01*
X754383Y64943D01*
X754381Y64914D01*
X754381Y59079D01*
X751397Y49896D01*
X745722Y42085D01*
X737910Y36409D01*
X728728Y33426D01*
X646561Y33426D01*
X646485Y33417D01*
X646408Y33418D01*
X646312Y33397D01*
X646215Y33386D01*
X646143Y33360D01*
X646068Y33344D01*
X645979Y33301D01*
X645886Y33268D01*
X645822Y33227D01*
X645753Y33194D01*
X645676Y33133D01*
X645594Y33079D01*
X645541Y33024D01*
X645481Y32977D01*
X645420Y32899D01*
X645351Y32829D01*
X645312Y32763D01*
X645265Y32703D01*
X645197Y32570D01*
X645173Y32530D01*
X645167Y32511D01*
X645153Y32485D01*
X644906Y31887D01*
X641619Y28601D01*
X637324Y26822D01*
X632676Y26822D01*
X628381Y28601D01*
X625094Y31887D01*
X624847Y32485D01*
X624809Y32552D01*
X624781Y32623D01*
X624725Y32704D01*
X624677Y32790D01*
X624626Y32847D01*
X624582Y32909D01*
X624509Y32975D01*
X624443Y33048D01*
X624380Y33092D01*
X624323Y33143D01*
X624237Y33190D01*
X624156Y33246D01*
X624085Y33274D01*
X624018Y33311D01*
X623924Y33338D01*
X623832Y33374D01*
X623757Y33385D01*
X623683Y33406D01*
X623534Y33418D01*
X623487Y33425D01*
X623468Y33423D01*
X623439Y33426D01*
X392561Y33426D01*
X392485Y33417D01*
X392408Y33418D01*
X392312Y33397D01*
X392215Y33386D01*
X392143Y33360D01*
X392068Y33344D01*
X391979Y33301D01*
X391886Y33268D01*
X391822Y33227D01*
X391753Y33194D01*
X391676Y33133D01*
X391594Y33079D01*
X391541Y33024D01*
X391481Y32977D01*
X391420Y32899D01*
X391351Y32829D01*
X391312Y32763D01*
X391265Y32703D01*
X391197Y32570D01*
X391173Y32530D01*
X391167Y32511D01*
X391153Y32485D01*
X390906Y31887D01*
X387619Y28601D01*
X383324Y26822D01*
X378676Y26822D01*
X374381Y28601D01*
X371094Y31887D01*
X370847Y32485D01*
X370809Y32552D01*
X370781Y32623D01*
X370725Y32704D01*
X370677Y32790D01*
X370626Y32847D01*
X370582Y32909D01*
X370509Y32975D01*
X370443Y33048D01*
X370380Y33092D01*
X370323Y33143D01*
X370237Y33190D01*
X370156Y33246D01*
X370085Y33274D01*
X370018Y33311D01*
X369924Y33338D01*
X369832Y33374D01*
X369757Y33385D01*
X369683Y33406D01*
X369534Y33418D01*
X369487Y33425D01*
X369468Y33423D01*
X369439Y33426D01*
X138561Y33426D01*
X138485Y33417D01*
X138408Y33418D01*
X138312Y33397D01*
X138215Y33386D01*
X138143Y33360D01*
X138068Y33344D01*
X137979Y33301D01*
X137886Y33268D01*
X137822Y33227D01*
X137753Y33194D01*
X137676Y33133D01*
X137594Y33079D01*
X137541Y33024D01*
X137481Y32977D01*
X137420Y32899D01*
X137351Y32829D01*
X137312Y32763D01*
X137265Y32703D01*
X137197Y32570D01*
X137173Y32530D01*
X137167Y32511D01*
X137153Y32485D01*
X136906Y31887D01*
X133619Y28601D01*
X129324Y26822D01*
X124676Y26822D01*
X120381Y28601D01*
X117094Y31887D01*
X116847Y32485D01*
X116809Y32552D01*
X116781Y32623D01*
X116725Y32704D01*
X116677Y32790D01*
X116626Y32847D01*
X116582Y32909D01*
X116509Y32975D01*
X116443Y33048D01*
X116380Y33092D01*
X116323Y33143D01*
X116237Y33190D01*
X116156Y33246D01*
X116085Y33274D01*
X116018Y33311D01*
X115924Y33338D01*
X115832Y33374D01*
X115757Y33385D01*
X115683Y33406D01*
X115534Y33418D01*
X115487Y33425D01*
X115468Y33423D01*
X115439Y33426D01*
X33272Y33426D01*
X24090Y36409D01*
X16278Y42085D01*
X10603Y49896D01*
X7619Y59079D01*
X7619Y64914D01*
X7611Y64990D01*
X7612Y65067D01*
X7591Y65163D01*
X7579Y65260D01*
X7554Y65332D01*
X7537Y65407D01*
X7495Y65496D01*
X7462Y65588D01*
X7420Y65653D01*
X7388Y65722D01*
X7326Y65799D01*
X7273Y65881D01*
X7218Y65934D01*
X7170Y65994D01*
X7093Y66055D01*
X7022Y66123D01*
X6957Y66163D01*
X6897Y66210D01*
X6764Y66278D01*
X6723Y66302D01*
X6705Y66308D01*
X6679Y66321D01*
X6225Y66509D01*
X5141Y67593D01*
X5062Y67656D01*
X4990Y67726D01*
X4926Y67764D01*
X4868Y67810D01*
X4777Y67853D01*
X4691Y67904D01*
X4620Y67927D01*
X4553Y67959D01*
X4455Y67980D01*
X4359Y68011D01*
X4285Y68017D01*
X4212Y68032D01*
X4112Y68031D01*
X4012Y68039D01*
X3938Y68028D01*
X3864Y68026D01*
X3767Y68002D01*
X3667Y67987D01*
X3598Y67959D01*
X3526Y67941D01*
X3437Y67895D01*
X3343Y67858D01*
X3282Y67816D01*
X3216Y67782D01*
X3140Y67717D01*
X3057Y67659D01*
X3007Y67604D01*
X2951Y67556D01*
X2891Y67475D01*
X2824Y67401D01*
X2788Y67335D01*
X2743Y67276D01*
X2704Y67184D01*
X2655Y67096D01*
X2635Y67024D01*
X2605Y66956D01*
X2588Y66857D01*
X2560Y66760D01*
X2552Y66660D01*
X2544Y66613D01*
X2546Y66577D01*
X2541Y66516D01*
X2541Y4064D01*
X2544Y4038D01*
X2542Y4012D01*
X2564Y3865D01*
X2581Y3718D01*
X2589Y3693D01*
X2593Y3667D01*
X2648Y3529D01*
X2698Y3390D01*
X2712Y3368D01*
X2722Y3343D01*
X2807Y3222D01*
X2887Y3097D01*
X2906Y3079D01*
X2921Y3057D01*
X3031Y2958D01*
X3138Y2855D01*
X3160Y2841D01*
X3180Y2824D01*
X3310Y2752D01*
X3437Y2676D01*
X3462Y2668D01*
X3485Y2655D01*
X3628Y2615D01*
X3769Y2570D01*
X3795Y2568D01*
X3820Y2560D01*
X4064Y2541D01*
X757936Y2541D01*
X757962Y2544D01*
G37*
G36*
X69898Y157486D02*
X69898Y157486D01*
X69999Y157488D01*
X71702Y157656D01*
X71801Y157677D01*
X71903Y157689D01*
X71996Y157719D01*
X72042Y157729D01*
X72076Y157745D01*
X72135Y157764D01*
X75281Y159067D01*
X75370Y159117D01*
X75463Y159158D01*
X75544Y159214D01*
X75586Y159237D01*
X75613Y159261D01*
X75664Y159297D01*
X76987Y160382D01*
X77020Y160417D01*
X77097Y160483D01*
X78026Y161412D01*
X82368Y165753D01*
X83268Y166653D01*
X86105Y169491D01*
X93056Y173504D01*
X100808Y175581D01*
X100944Y175581D01*
X100970Y175584D01*
X100996Y175582D01*
X101143Y175604D01*
X101290Y175621D01*
X101315Y175629D01*
X101341Y175633D01*
X101479Y175688D01*
X101618Y175738D01*
X101640Y175752D01*
X101665Y175762D01*
X101786Y175847D01*
X101911Y175927D01*
X101929Y175946D01*
X101951Y175961D01*
X102050Y176071D01*
X102153Y176178D01*
X102167Y176200D01*
X102184Y176220D01*
X102256Y176350D01*
X102332Y176477D01*
X102340Y176502D01*
X102353Y176525D01*
X102393Y176668D01*
X102438Y176809D01*
X102440Y176835D01*
X102448Y176860D01*
X102467Y177104D01*
X102467Y181342D01*
X103658Y182533D01*
X116342Y182533D01*
X117423Y181452D01*
X117443Y181435D01*
X117460Y181416D01*
X117580Y181327D01*
X117696Y181235D01*
X117720Y181224D01*
X117741Y181208D01*
X117877Y181150D01*
X118011Y181086D01*
X118037Y181081D01*
X118061Y181070D01*
X118207Y181044D01*
X118352Y181013D01*
X118378Y181013D01*
X118404Y181009D01*
X118552Y181016D01*
X118700Y181019D01*
X118726Y181025D01*
X118752Y181027D01*
X118894Y181068D01*
X119038Y181104D01*
X119061Y181116D01*
X119087Y181123D01*
X119216Y181196D01*
X119348Y181264D01*
X119368Y181280D01*
X119391Y181293D01*
X119577Y181452D01*
X120658Y182533D01*
X125300Y182533D01*
X125350Y182538D01*
X125401Y182536D01*
X125523Y182558D01*
X125646Y182573D01*
X125694Y182590D01*
X125743Y182599D01*
X125858Y182648D01*
X125975Y182690D01*
X126017Y182717D01*
X126063Y182737D01*
X126163Y182812D01*
X126267Y182879D01*
X126302Y182915D01*
X126343Y182945D01*
X126423Y183040D01*
X126510Y183130D01*
X126535Y183173D01*
X126568Y183211D01*
X126625Y183322D01*
X126688Y183429D01*
X126704Y183477D01*
X126727Y183522D01*
X126757Y183642D01*
X126795Y183761D01*
X126799Y183811D01*
X126811Y183860D01*
X126813Y183984D01*
X126823Y184108D01*
X126815Y184158D01*
X126816Y184208D01*
X126789Y184330D01*
X126771Y184453D01*
X126752Y184500D01*
X126742Y184549D01*
X126688Y184661D01*
X126642Y184777D01*
X126613Y184818D01*
X126592Y184864D01*
X126514Y184961D01*
X126443Y185063D01*
X126406Y185097D01*
X126374Y185136D01*
X126277Y185213D01*
X126184Y185296D01*
X126140Y185321D01*
X126101Y185352D01*
X125883Y185463D01*
X124122Y186193D01*
X122693Y187622D01*
X121919Y189489D01*
X121919Y196944D01*
X121916Y196970D01*
X121918Y196996D01*
X121896Y197143D01*
X121879Y197290D01*
X121871Y197315D01*
X121867Y197341D01*
X121812Y197478D01*
X121762Y197618D01*
X121748Y197640D01*
X121738Y197665D01*
X121653Y197786D01*
X121573Y197911D01*
X121554Y197929D01*
X121539Y197951D01*
X121429Y198050D01*
X121322Y198153D01*
X121300Y198167D01*
X121280Y198184D01*
X121150Y198256D01*
X121023Y198332D01*
X120998Y198340D01*
X120975Y198353D01*
X120832Y198393D01*
X120691Y198438D01*
X120687Y198439D01*
X119908Y199218D01*
X119868Y199249D01*
X119833Y199287D01*
X119731Y199357D01*
X119635Y199434D01*
X119588Y199456D01*
X119546Y199485D01*
X119431Y199530D01*
X119319Y199583D01*
X119270Y199594D01*
X119222Y199613D01*
X119099Y199631D01*
X118979Y199657D01*
X118928Y199656D01*
X118877Y199663D01*
X118754Y199653D01*
X118630Y199651D01*
X118581Y199638D01*
X118530Y199634D01*
X118412Y199596D01*
X118292Y199566D01*
X118247Y199542D01*
X118198Y199527D01*
X118092Y199463D01*
X117983Y199406D01*
X117944Y199373D01*
X117900Y199347D01*
X117811Y199260D01*
X117717Y199180D01*
X117687Y199139D01*
X117650Y199104D01*
X117547Y198954D01*
X117060Y198467D01*
X116481Y198132D01*
X115835Y197959D01*
X112749Y197959D01*
X112749Y209274D01*
X112746Y209300D01*
X112748Y209326D01*
X112726Y209473D01*
X112709Y209620D01*
X112701Y209645D01*
X112697Y209671D01*
X112642Y209808D01*
X112592Y209948D01*
X112578Y209970D01*
X112568Y209995D01*
X112483Y210116D01*
X112403Y210241D01*
X112384Y210259D01*
X112369Y210281D01*
X112259Y210380D01*
X112152Y210483D01*
X112130Y210497D01*
X112122Y210503D01*
X112193Y210549D01*
X112211Y210568D01*
X112233Y210583D01*
X112332Y210693D01*
X112435Y210800D01*
X112449Y210823D01*
X112466Y210842D01*
X112538Y210972D01*
X112614Y211099D01*
X112622Y211124D01*
X112635Y211147D01*
X112675Y211290D01*
X112720Y211431D01*
X112722Y211457D01*
X112730Y211482D01*
X112749Y211726D01*
X112749Y223041D01*
X115835Y223041D01*
X116481Y222868D01*
X117060Y222533D01*
X117547Y222046D01*
X117565Y222011D01*
X117645Y221917D01*
X117719Y221818D01*
X117758Y221785D01*
X117791Y221746D01*
X117890Y221672D01*
X117985Y221592D01*
X118030Y221569D01*
X118071Y221539D01*
X118185Y221490D01*
X118295Y221433D01*
X118344Y221421D01*
X118391Y221401D01*
X118513Y221379D01*
X118633Y221349D01*
X118684Y221348D01*
X118734Y221339D01*
X118858Y221346D01*
X118981Y221344D01*
X119031Y221354D01*
X119082Y221357D01*
X119201Y221391D01*
X119322Y221418D01*
X119368Y221440D01*
X119417Y221454D01*
X119525Y221514D01*
X119637Y221567D01*
X119677Y221599D01*
X119721Y221624D01*
X119908Y221782D01*
X120692Y222567D01*
X120742Y222573D01*
X120767Y222581D01*
X120793Y222585D01*
X120931Y222640D01*
X121070Y222690D01*
X121092Y222704D01*
X121117Y222714D01*
X121238Y222799D01*
X121363Y222879D01*
X121381Y222898D01*
X121403Y222913D01*
X121502Y223023D01*
X121605Y223130D01*
X121619Y223152D01*
X121636Y223172D01*
X121708Y223302D01*
X121784Y223429D01*
X121792Y223454D01*
X121805Y223477D01*
X121845Y223620D01*
X121890Y223761D01*
X121892Y223787D01*
X121900Y223812D01*
X121919Y224056D01*
X121919Y228346D01*
X121916Y228372D01*
X121918Y228398D01*
X121896Y228545D01*
X121879Y228692D01*
X121871Y228717D01*
X121867Y228743D01*
X121812Y228881D01*
X121762Y229020D01*
X121748Y229042D01*
X121738Y229067D01*
X121653Y229188D01*
X121573Y229313D01*
X121554Y229331D01*
X121539Y229353D01*
X121429Y229452D01*
X121322Y229555D01*
X121300Y229569D01*
X121280Y229586D01*
X121150Y229658D01*
X121023Y229734D01*
X120998Y229742D01*
X120975Y229755D01*
X120832Y229795D01*
X120691Y229840D01*
X120665Y229842D01*
X120640Y229850D01*
X120396Y229869D01*
X68436Y229869D01*
X68360Y229861D01*
X68283Y229862D01*
X68187Y229841D01*
X68090Y229829D01*
X68018Y229804D01*
X67943Y229787D01*
X67854Y229745D01*
X67762Y229712D01*
X67697Y229670D01*
X67628Y229638D01*
X67551Y229576D01*
X67469Y229523D01*
X67416Y229468D01*
X67356Y229420D01*
X67295Y229343D01*
X67227Y229272D01*
X67187Y229207D01*
X67140Y229147D01*
X67072Y229014D01*
X67048Y228973D01*
X67042Y228955D01*
X67029Y228929D01*
X66840Y228475D01*
X63625Y225260D01*
X59424Y223519D01*
X54876Y223519D01*
X50675Y225260D01*
X47460Y228475D01*
X45857Y232343D01*
X45809Y232431D01*
X45769Y232523D01*
X45724Y232583D01*
X45688Y232648D01*
X45620Y232722D01*
X45561Y232803D01*
X45504Y232851D01*
X45454Y232906D01*
X45371Y232963D01*
X45295Y233028D01*
X45228Y233062D01*
X45167Y233104D01*
X45074Y233141D01*
X44984Y233187D01*
X44912Y233205D01*
X44843Y233232D01*
X44744Y233246D01*
X44646Y233271D01*
X44572Y233272D01*
X44498Y233283D01*
X44398Y233274D01*
X44298Y233276D01*
X44225Y233260D01*
X44151Y233254D01*
X44055Y233223D01*
X43957Y233201D01*
X43890Y233170D01*
X43819Y233147D01*
X43733Y233095D01*
X43642Y233052D01*
X43584Y233005D01*
X43521Y232967D01*
X43448Y232897D01*
X43370Y232834D01*
X43324Y232776D01*
X43271Y232724D01*
X43216Y232640D01*
X43154Y232561D01*
X43108Y232471D01*
X43082Y232431D01*
X43070Y232397D01*
X43043Y232343D01*
X41440Y228475D01*
X38225Y225260D01*
X34024Y223519D01*
X29476Y223519D01*
X25275Y225260D01*
X22060Y228475D01*
X20319Y232676D01*
X20319Y237224D01*
X22060Y241425D01*
X25275Y244640D01*
X29476Y246381D01*
X34024Y246381D01*
X38225Y244640D01*
X41440Y241425D01*
X43043Y237557D01*
X43092Y237469D01*
X43132Y237377D01*
X43176Y237317D01*
X43212Y237252D01*
X43280Y237178D01*
X43339Y237097D01*
X43396Y237049D01*
X43446Y236994D01*
X43529Y236937D01*
X43605Y236872D01*
X43672Y236838D01*
X43733Y236796D01*
X43826Y236759D01*
X43916Y236713D01*
X43988Y236695D01*
X44057Y236668D01*
X44156Y236654D01*
X44254Y236629D01*
X44328Y236628D01*
X44402Y236617D01*
X44502Y236626D01*
X44602Y236624D01*
X44675Y236640D01*
X44749Y236646D01*
X44845Y236677D01*
X44943Y236699D01*
X45010Y236730D01*
X45081Y236753D01*
X45167Y236805D01*
X45258Y236848D01*
X45316Y236895D01*
X45379Y236933D01*
X45451Y237003D01*
X45530Y237066D01*
X45576Y237124D01*
X45629Y237176D01*
X45684Y237260D01*
X45746Y237339D01*
X45792Y237429D01*
X45818Y237469D01*
X45830Y237503D01*
X45857Y237557D01*
X47460Y241425D01*
X50675Y244640D01*
X54876Y246381D01*
X59424Y246381D01*
X63625Y244640D01*
X66840Y241425D01*
X67029Y240971D01*
X67066Y240904D01*
X67094Y240833D01*
X67150Y240752D01*
X67198Y240666D01*
X67249Y240610D01*
X67293Y240547D01*
X67366Y240481D01*
X67432Y240408D01*
X67495Y240365D01*
X67552Y240314D01*
X67638Y240266D01*
X67719Y240210D01*
X67790Y240182D01*
X67857Y240145D01*
X67951Y240118D01*
X68043Y240082D01*
X68118Y240071D01*
X68192Y240050D01*
X68341Y240038D01*
X68388Y240031D01*
X68407Y240033D01*
X68436Y240031D01*
X179034Y240031D01*
X179036Y240031D01*
X179038Y240031D01*
X179209Y240051D01*
X179294Y240061D01*
X636011Y240061D01*
X637878Y239287D01*
X639307Y237858D01*
X640081Y235991D01*
X640081Y224056D01*
X640084Y224030D01*
X640082Y224004D01*
X640104Y223857D01*
X640121Y223710D01*
X640129Y223685D01*
X640133Y223659D01*
X640188Y223521D01*
X640238Y223382D01*
X640252Y223360D01*
X640262Y223335D01*
X640347Y223214D01*
X640427Y223089D01*
X640446Y223071D01*
X640461Y223049D01*
X640571Y222950D01*
X640678Y222847D01*
X640700Y222833D01*
X640720Y222816D01*
X640850Y222744D01*
X640977Y222668D01*
X641002Y222660D01*
X641025Y222647D01*
X641168Y222607D01*
X641309Y222562D01*
X641314Y222561D01*
X642423Y221452D01*
X642443Y221436D01*
X642460Y221416D01*
X642580Y221327D01*
X642696Y221235D01*
X642720Y221224D01*
X642741Y221208D01*
X642877Y221150D01*
X643011Y221086D01*
X643037Y221081D01*
X643061Y221070D01*
X643207Y221044D01*
X643352Y221013D01*
X643378Y221013D01*
X643404Y221009D01*
X643552Y221016D01*
X643700Y221019D01*
X643726Y221025D01*
X643752Y221027D01*
X643894Y221068D01*
X644038Y221104D01*
X644061Y221116D01*
X644087Y221123D01*
X644216Y221196D01*
X644348Y221264D01*
X644368Y221281D01*
X644391Y221293D01*
X644577Y221452D01*
X645658Y222533D01*
X658342Y222533D01*
X659533Y221342D01*
X659533Y199658D01*
X658342Y198467D01*
X653700Y198467D01*
X653650Y198462D01*
X653599Y198464D01*
X653477Y198442D01*
X653354Y198427D01*
X653306Y198410D01*
X653257Y198401D01*
X653142Y198352D01*
X653025Y198310D01*
X652983Y198283D01*
X652937Y198263D01*
X652837Y198188D01*
X652733Y198121D01*
X652698Y198085D01*
X652657Y198055D01*
X652577Y197960D01*
X652490Y197870D01*
X652465Y197827D01*
X652432Y197789D01*
X652375Y197678D01*
X652312Y197571D01*
X652296Y197523D01*
X652273Y197478D01*
X652243Y197358D01*
X652205Y197239D01*
X652201Y197189D01*
X652189Y197140D01*
X652187Y197016D01*
X652177Y196892D01*
X652185Y196842D01*
X652184Y196792D01*
X652211Y196670D01*
X652229Y196547D01*
X652248Y196500D01*
X652258Y196451D01*
X652312Y196339D01*
X652358Y196223D01*
X652387Y196182D01*
X652408Y196136D01*
X652486Y196039D01*
X652557Y195937D01*
X652594Y195903D01*
X652626Y195864D01*
X652723Y195787D01*
X652816Y195704D01*
X652860Y195679D01*
X652899Y195648D01*
X653117Y195537D01*
X654878Y194807D01*
X656307Y193378D01*
X657081Y191511D01*
X657081Y184056D01*
X657084Y184030D01*
X657082Y184004D01*
X657104Y183857D01*
X657121Y183710D01*
X657129Y183685D01*
X657133Y183659D01*
X657188Y183521D01*
X657238Y183382D01*
X657252Y183360D01*
X657262Y183335D01*
X657347Y183214D01*
X657427Y183089D01*
X657446Y183071D01*
X657461Y183049D01*
X657571Y182950D01*
X657678Y182847D01*
X657700Y182833D01*
X657720Y182816D01*
X657850Y182744D01*
X657977Y182668D01*
X658002Y182660D01*
X658025Y182647D01*
X658168Y182607D01*
X658309Y182562D01*
X658314Y182561D01*
X659533Y181342D01*
X659533Y177104D01*
X659536Y177078D01*
X659534Y177052D01*
X659556Y176905D01*
X659573Y176758D01*
X659581Y176733D01*
X659585Y176707D01*
X659640Y176569D01*
X659690Y176430D01*
X659704Y176408D01*
X659714Y176383D01*
X659799Y176262D01*
X659879Y176137D01*
X659898Y176119D01*
X659913Y176097D01*
X660023Y175998D01*
X660130Y175895D01*
X660152Y175881D01*
X660172Y175864D01*
X660302Y175792D01*
X660429Y175716D01*
X660454Y175708D01*
X660477Y175695D01*
X660620Y175655D01*
X660761Y175610D01*
X660787Y175608D01*
X660812Y175600D01*
X661056Y175581D01*
X714520Y175581D01*
X714522Y175581D01*
X714524Y175581D01*
X714700Y175601D01*
X714866Y175621D01*
X714868Y175621D01*
X714870Y175622D01*
X715103Y175697D01*
X716350Y176213D01*
X718750Y176213D01*
X720968Y175295D01*
X722665Y173598D01*
X723583Y171380D01*
X723583Y168980D01*
X722665Y166762D01*
X720968Y165065D01*
X718750Y164147D01*
X716350Y164147D01*
X714092Y165082D01*
X714032Y165136D01*
X713989Y165160D01*
X713952Y165190D01*
X713837Y165244D01*
X713727Y165305D01*
X713680Y165318D01*
X713636Y165339D01*
X713513Y165365D01*
X713391Y165400D01*
X713331Y165405D01*
X713296Y165412D01*
X713248Y165411D01*
X713147Y165419D01*
X661056Y165419D01*
X661030Y165416D01*
X661004Y165418D01*
X660857Y165396D01*
X660710Y165379D01*
X660685Y165371D01*
X660659Y165367D01*
X660521Y165312D01*
X660382Y165262D01*
X660360Y165248D01*
X660335Y165238D01*
X660214Y165153D01*
X660089Y165073D01*
X660071Y165054D01*
X660049Y165039D01*
X659950Y164929D01*
X659847Y164822D01*
X659833Y164800D01*
X659816Y164780D01*
X659744Y164650D01*
X659668Y164523D01*
X659660Y164498D01*
X659647Y164475D01*
X659607Y164332D01*
X659562Y164191D01*
X659560Y164165D01*
X659552Y164140D01*
X659533Y163896D01*
X659533Y159227D01*
X659533Y159226D01*
X659517Y159153D01*
X659519Y159052D01*
X659511Y158952D01*
X659521Y158879D01*
X659523Y158805D01*
X659547Y158707D01*
X659562Y158607D01*
X659590Y158538D01*
X659608Y158467D01*
X659654Y158377D01*
X659691Y158283D01*
X659733Y158223D01*
X659767Y158157D01*
X659832Y158080D01*
X659890Y157997D01*
X659945Y157948D01*
X659993Y157891D01*
X660074Y157831D01*
X660149Y157764D01*
X660213Y157728D01*
X660273Y157684D01*
X660365Y157644D01*
X660454Y157595D01*
X660525Y157575D01*
X660593Y157546D01*
X660692Y157528D01*
X660789Y157500D01*
X660889Y157492D01*
X660936Y157484D01*
X660971Y157486D01*
X661033Y157481D01*
X738014Y157481D01*
X738090Y157489D01*
X738167Y157488D01*
X738263Y157509D01*
X738360Y157521D01*
X738432Y157546D01*
X738507Y157563D01*
X738596Y157605D01*
X738688Y157638D01*
X738753Y157680D01*
X738822Y157712D01*
X738899Y157774D01*
X738981Y157827D01*
X739034Y157882D01*
X739094Y157930D01*
X739155Y158007D01*
X739223Y158078D01*
X739263Y158143D01*
X739310Y158203D01*
X739378Y158336D01*
X739402Y158377D01*
X739408Y158395D01*
X739421Y158421D01*
X739610Y158875D01*
X742825Y162090D01*
X746127Y163458D01*
X746267Y163536D01*
X746408Y163611D01*
X746419Y163621D01*
X746432Y163628D01*
X746550Y163735D01*
X746671Y163840D01*
X746679Y163852D01*
X746690Y163862D01*
X746781Y163993D01*
X746874Y164123D01*
X746880Y164136D01*
X746888Y164148D01*
X746947Y164297D01*
X747008Y164445D01*
X747011Y164459D01*
X747016Y164473D01*
X747039Y164631D01*
X747066Y164789D01*
X747065Y164803D01*
X747067Y164817D01*
X747053Y164977D01*
X747043Y165136D01*
X747039Y165150D01*
X747038Y165165D01*
X746989Y165317D01*
X746942Y165470D01*
X746935Y165483D01*
X746931Y165496D01*
X746848Y165633D01*
X746768Y165772D01*
X746759Y165783D01*
X746751Y165795D01*
X746640Y165910D01*
X746530Y166027D01*
X746518Y166035D01*
X746508Y166045D01*
X746374Y166131D01*
X746241Y166220D01*
X746225Y166227D01*
X746215Y166233D01*
X746179Y166246D01*
X746015Y166314D01*
X744717Y166736D01*
X743043Y167589D01*
X741522Y168694D01*
X740194Y170022D01*
X739089Y171543D01*
X738236Y173217D01*
X737655Y175004D01*
X737615Y175261D01*
X748284Y175261D01*
X748310Y175264D01*
X748336Y175262D01*
X748483Y175284D01*
X748630Y175301D01*
X748655Y175309D01*
X748681Y175313D01*
X748818Y175368D01*
X748958Y175418D01*
X748980Y175432D01*
X749005Y175442D01*
X749126Y175527D01*
X749251Y175607D01*
X749269Y175626D01*
X749291Y175641D01*
X749390Y175751D01*
X749493Y175858D01*
X749507Y175880D01*
X749524Y175900D01*
X749596Y176030D01*
X749672Y176157D01*
X749680Y176182D01*
X749693Y176205D01*
X749733Y176348D01*
X749778Y176489D01*
X749780Y176515D01*
X749787Y176540D01*
X749807Y176784D01*
X749807Y177293D01*
X750316Y177293D01*
X750342Y177296D01*
X750368Y177294D01*
X750515Y177316D01*
X750662Y177333D01*
X750687Y177342D01*
X750713Y177346D01*
X750851Y177400D01*
X750990Y177450D01*
X751012Y177465D01*
X751037Y177474D01*
X751158Y177559D01*
X751283Y177639D01*
X751301Y177658D01*
X751323Y177673D01*
X751422Y177783D01*
X751525Y177890D01*
X751539Y177913D01*
X751556Y177932D01*
X751628Y178062D01*
X751704Y178189D01*
X751712Y178214D01*
X751725Y178237D01*
X751765Y178380D01*
X751810Y178521D01*
X751812Y178547D01*
X751820Y178572D01*
X751839Y178816D01*
X751839Y189485D01*
X752096Y189445D01*
X753883Y188864D01*
X755557Y188011D01*
X757041Y186933D01*
X757176Y186857D01*
X757309Y186777D01*
X757327Y186771D01*
X757344Y186762D01*
X757493Y186718D01*
X757641Y186671D01*
X757660Y186670D01*
X757679Y186664D01*
X757834Y186656D01*
X757988Y186643D01*
X758007Y186646D01*
X758027Y186645D01*
X758180Y186672D01*
X758333Y186695D01*
X758351Y186702D01*
X758370Y186705D01*
X758513Y186766D01*
X758657Y186824D01*
X758673Y186835D01*
X758690Y186842D01*
X758816Y186934D01*
X758943Y187022D01*
X758956Y187037D01*
X758971Y187048D01*
X759073Y187166D01*
X759176Y187281D01*
X759186Y187298D01*
X759198Y187313D01*
X759270Y187450D01*
X759345Y187586D01*
X759350Y187605D01*
X759359Y187622D01*
X759397Y187772D01*
X759440Y187922D01*
X759442Y187945D01*
X759445Y187960D01*
X759446Y188003D01*
X759459Y188165D01*
X759459Y249936D01*
X759456Y249962D01*
X759458Y249988D01*
X759436Y250135D01*
X759419Y250282D01*
X759411Y250307D01*
X759407Y250333D01*
X759352Y250471D01*
X759302Y250610D01*
X759288Y250632D01*
X759278Y250657D01*
X759193Y250778D01*
X759113Y250903D01*
X759094Y250921D01*
X759079Y250943D01*
X758969Y251042D01*
X758862Y251145D01*
X758840Y251159D01*
X758820Y251176D01*
X758690Y251248D01*
X758563Y251324D01*
X758538Y251332D01*
X758515Y251345D01*
X758372Y251385D01*
X758231Y251430D01*
X758205Y251432D01*
X758180Y251440D01*
X757936Y251459D01*
X4064Y251459D01*
X4038Y251456D01*
X4012Y251458D01*
X3865Y251436D01*
X3718Y251419D01*
X3693Y251411D01*
X3667Y251407D01*
X3529Y251352D01*
X3390Y251302D01*
X3368Y251288D01*
X3343Y251278D01*
X3222Y251193D01*
X3097Y251113D01*
X3079Y251094D01*
X3057Y251079D01*
X2958Y250969D01*
X2855Y250862D01*
X2841Y250840D01*
X2824Y250820D01*
X2752Y250690D01*
X2676Y250563D01*
X2668Y250538D01*
X2655Y250515D01*
X2615Y250372D01*
X2570Y250231D01*
X2568Y250205D01*
X2560Y250180D01*
X2541Y249936D01*
X2541Y188165D01*
X2559Y188011D01*
X2572Y187857D01*
X2578Y187838D01*
X2581Y187819D01*
X2633Y187673D01*
X2682Y187526D01*
X2692Y187509D01*
X2698Y187491D01*
X2782Y187361D01*
X2863Y187228D01*
X2877Y187215D01*
X2887Y187198D01*
X2999Y187090D01*
X3107Y186980D01*
X3124Y186970D01*
X3138Y186956D01*
X3271Y186877D01*
X3402Y186794D01*
X3420Y186787D01*
X3437Y186777D01*
X3585Y186730D01*
X3731Y186679D01*
X3750Y186677D01*
X3769Y186671D01*
X3923Y186659D01*
X4078Y186642D01*
X4097Y186645D01*
X4116Y186643D01*
X4269Y186666D01*
X4424Y186685D01*
X4442Y186692D01*
X4461Y186695D01*
X4605Y186752D01*
X4751Y186806D01*
X4770Y186818D01*
X4785Y186824D01*
X4820Y186848D01*
X4959Y186933D01*
X6443Y188011D01*
X8117Y188864D01*
X9904Y189445D01*
X10161Y189485D01*
X10161Y178816D01*
X10164Y178790D01*
X10162Y178764D01*
X10184Y178617D01*
X10201Y178470D01*
X10209Y178445D01*
X10213Y178419D01*
X10268Y178282D01*
X10318Y178142D01*
X10332Y178120D01*
X10342Y178095D01*
X10427Y177974D01*
X10507Y177849D01*
X10526Y177831D01*
X10541Y177809D01*
X10651Y177710D01*
X10758Y177607D01*
X10780Y177593D01*
X10800Y177576D01*
X10930Y177504D01*
X11057Y177428D01*
X11082Y177420D01*
X11105Y177407D01*
X11248Y177367D01*
X11389Y177322D01*
X11415Y177320D01*
X11440Y177313D01*
X11684Y177293D01*
X12193Y177293D01*
X12193Y176784D01*
X12196Y176758D01*
X12194Y176732D01*
X12216Y176585D01*
X12233Y176438D01*
X12242Y176413D01*
X12246Y176387D01*
X12300Y176249D01*
X12350Y176110D01*
X12365Y176088D01*
X12374Y176063D01*
X12459Y175942D01*
X12539Y175817D01*
X12558Y175799D01*
X12573Y175777D01*
X12683Y175678D01*
X12790Y175575D01*
X12813Y175561D01*
X12832Y175544D01*
X12962Y175472D01*
X13089Y175396D01*
X13114Y175388D01*
X13137Y175375D01*
X13280Y175335D01*
X13421Y175290D01*
X13447Y175287D01*
X13472Y175280D01*
X13716Y175261D01*
X24385Y175261D01*
X24345Y175004D01*
X23764Y173217D01*
X22911Y171543D01*
X21806Y170022D01*
X20478Y168694D01*
X18957Y167589D01*
X17283Y166736D01*
X15985Y166314D01*
X15841Y166248D01*
X15693Y166184D01*
X15681Y166175D01*
X15668Y166169D01*
X15542Y166072D01*
X15413Y165976D01*
X15404Y165965D01*
X15392Y165956D01*
X15291Y165832D01*
X15188Y165710D01*
X15182Y165697D01*
X15172Y165686D01*
X15102Y165541D01*
X15029Y165400D01*
X15026Y165386D01*
X15019Y165373D01*
X14983Y165215D01*
X14945Y165062D01*
X14945Y165047D01*
X14942Y165033D01*
X14943Y164873D01*
X14940Y164713D01*
X14943Y164699D01*
X14943Y164685D01*
X14980Y164529D01*
X15015Y164373D01*
X15021Y164360D01*
X15024Y164345D01*
X15096Y164201D01*
X15164Y164058D01*
X15173Y164047D01*
X15180Y164034D01*
X15283Y163910D01*
X15382Y163786D01*
X15393Y163777D01*
X15402Y163765D01*
X15529Y163669D01*
X15655Y163570D01*
X15671Y163562D01*
X15680Y163555D01*
X15715Y163539D01*
X15873Y163458D01*
X19175Y162090D01*
X22390Y158875D01*
X22579Y158421D01*
X22616Y158354D01*
X22644Y158283D01*
X22700Y158202D01*
X22748Y158116D01*
X22799Y158060D01*
X22843Y157997D01*
X22916Y157931D01*
X22982Y157858D01*
X23045Y157815D01*
X23102Y157764D01*
X23188Y157716D01*
X23269Y157660D01*
X23340Y157632D01*
X23407Y157595D01*
X23501Y157568D01*
X23593Y157532D01*
X23668Y157521D01*
X23742Y157500D01*
X23891Y157488D01*
X23938Y157481D01*
X23957Y157483D01*
X23986Y157481D01*
X69850Y157481D01*
X69898Y157486D01*
G37*
G36*
X441906Y151135D02*
X441906Y151135D01*
X441969Y151134D01*
X443937Y151263D01*
X443964Y151268D01*
X443991Y151267D01*
X444232Y151312D01*
X448033Y152330D01*
X448105Y152359D01*
X448180Y152378D01*
X448313Y152441D01*
X448358Y152458D01*
X448374Y152470D01*
X448401Y152482D01*
X451809Y154450D01*
X451831Y154467D01*
X451856Y154478D01*
X452052Y154624D01*
X453535Y155924D01*
X453559Y155952D01*
X453607Y155993D01*
X454536Y156921D01*
X454536Y156922D01*
X463355Y165740D01*
X464268Y166653D01*
X467105Y169491D01*
X474056Y173503D01*
X481808Y175581D01*
X608944Y175581D01*
X608970Y175584D01*
X608996Y175582D01*
X609143Y175604D01*
X609290Y175621D01*
X609315Y175629D01*
X609341Y175633D01*
X609479Y175688D01*
X609618Y175738D01*
X609640Y175752D01*
X609665Y175762D01*
X609786Y175847D01*
X609911Y175927D01*
X609929Y175946D01*
X609951Y175961D01*
X610050Y176071D01*
X610153Y176178D01*
X610167Y176200D01*
X610184Y176220D01*
X610256Y176350D01*
X610332Y176477D01*
X610340Y176502D01*
X610353Y176525D01*
X610393Y176668D01*
X610438Y176809D01*
X610440Y176835D01*
X610448Y176860D01*
X610467Y177104D01*
X610467Y181342D01*
X611658Y182533D01*
X624342Y182533D01*
X625423Y181452D01*
X625443Y181435D01*
X625460Y181416D01*
X625580Y181327D01*
X625696Y181235D01*
X625720Y181224D01*
X625741Y181208D01*
X625877Y181150D01*
X626011Y181086D01*
X626037Y181081D01*
X626061Y181070D01*
X626207Y181044D01*
X626352Y181013D01*
X626378Y181013D01*
X626404Y181009D01*
X626552Y181016D01*
X626700Y181019D01*
X626726Y181025D01*
X626752Y181027D01*
X626894Y181068D01*
X627038Y181104D01*
X627061Y181116D01*
X627087Y181123D01*
X627216Y181196D01*
X627348Y181264D01*
X627368Y181280D01*
X627391Y181293D01*
X627577Y181452D01*
X628658Y182533D01*
X633300Y182533D01*
X633350Y182538D01*
X633401Y182536D01*
X633523Y182558D01*
X633646Y182573D01*
X633694Y182590D01*
X633743Y182599D01*
X633858Y182648D01*
X633975Y182690D01*
X634017Y182717D01*
X634063Y182737D01*
X634163Y182812D01*
X634267Y182879D01*
X634302Y182915D01*
X634343Y182945D01*
X634423Y183040D01*
X634510Y183130D01*
X634535Y183173D01*
X634568Y183211D01*
X634625Y183322D01*
X634688Y183429D01*
X634704Y183477D01*
X634727Y183522D01*
X634757Y183642D01*
X634795Y183761D01*
X634799Y183811D01*
X634811Y183860D01*
X634813Y183984D01*
X634823Y184108D01*
X634815Y184158D01*
X634816Y184208D01*
X634789Y184330D01*
X634771Y184453D01*
X634752Y184500D01*
X634742Y184549D01*
X634688Y184661D01*
X634642Y184777D01*
X634613Y184818D01*
X634592Y184864D01*
X634514Y184961D01*
X634443Y185063D01*
X634406Y185097D01*
X634374Y185136D01*
X634277Y185213D01*
X634184Y185296D01*
X634140Y185321D01*
X634101Y185352D01*
X633883Y185463D01*
X632122Y186193D01*
X630693Y187622D01*
X629919Y189489D01*
X629919Y196944D01*
X629916Y196970D01*
X629918Y196996D01*
X629896Y197143D01*
X629879Y197290D01*
X629871Y197315D01*
X629867Y197341D01*
X629812Y197478D01*
X629762Y197618D01*
X629748Y197640D01*
X629738Y197665D01*
X629653Y197786D01*
X629573Y197911D01*
X629554Y197929D01*
X629539Y197951D01*
X629429Y198050D01*
X629322Y198153D01*
X629300Y198167D01*
X629280Y198184D01*
X629150Y198256D01*
X629023Y198332D01*
X628998Y198340D01*
X628975Y198353D01*
X628832Y198393D01*
X628691Y198438D01*
X628687Y198439D01*
X627908Y199218D01*
X627868Y199249D01*
X627833Y199287D01*
X627731Y199357D01*
X627635Y199434D01*
X627588Y199456D01*
X627546Y199485D01*
X627431Y199530D01*
X627319Y199583D01*
X627270Y199594D01*
X627222Y199613D01*
X627099Y199631D01*
X626979Y199657D01*
X626928Y199656D01*
X626877Y199663D01*
X626754Y199653D01*
X626630Y199651D01*
X626581Y199638D01*
X626530Y199634D01*
X626412Y199596D01*
X626292Y199566D01*
X626247Y199542D01*
X626198Y199527D01*
X626092Y199463D01*
X625983Y199406D01*
X625944Y199373D01*
X625900Y199347D01*
X625811Y199260D01*
X625717Y199180D01*
X625687Y199139D01*
X625650Y199104D01*
X625547Y198954D01*
X625060Y198467D01*
X624481Y198132D01*
X623835Y197959D01*
X620749Y197959D01*
X620749Y209274D01*
X620746Y209300D01*
X620748Y209326D01*
X620726Y209473D01*
X620709Y209620D01*
X620701Y209645D01*
X620697Y209671D01*
X620642Y209808D01*
X620592Y209948D01*
X620578Y209970D01*
X620568Y209995D01*
X620483Y210116D01*
X620403Y210241D01*
X620384Y210259D01*
X620369Y210281D01*
X620259Y210380D01*
X620152Y210483D01*
X620130Y210497D01*
X620122Y210503D01*
X620193Y210549D01*
X620211Y210568D01*
X620233Y210583D01*
X620332Y210693D01*
X620435Y210800D01*
X620449Y210823D01*
X620466Y210842D01*
X620538Y210972D01*
X620614Y211099D01*
X620622Y211124D01*
X620635Y211147D01*
X620675Y211290D01*
X620720Y211431D01*
X620722Y211457D01*
X620730Y211482D01*
X620749Y211726D01*
X620749Y223041D01*
X623835Y223041D01*
X624481Y222868D01*
X625060Y222533D01*
X625547Y222046D01*
X625565Y222011D01*
X625645Y221917D01*
X625719Y221818D01*
X625758Y221785D01*
X625791Y221746D01*
X625890Y221672D01*
X625985Y221592D01*
X626030Y221569D01*
X626071Y221539D01*
X626185Y221490D01*
X626295Y221433D01*
X626344Y221421D01*
X626391Y221401D01*
X626513Y221379D01*
X626633Y221349D01*
X626684Y221348D01*
X626734Y221339D01*
X626858Y221346D01*
X626981Y221344D01*
X627031Y221354D01*
X627082Y221357D01*
X627201Y221391D01*
X627322Y221418D01*
X627368Y221440D01*
X627417Y221454D01*
X627525Y221514D01*
X627637Y221567D01*
X627677Y221599D01*
X627721Y221624D01*
X627908Y221782D01*
X628692Y222567D01*
X628742Y222573D01*
X628767Y222581D01*
X628793Y222585D01*
X628931Y222640D01*
X629070Y222690D01*
X629092Y222704D01*
X629117Y222714D01*
X629238Y222799D01*
X629363Y222879D01*
X629381Y222898D01*
X629403Y222913D01*
X629502Y223023D01*
X629605Y223130D01*
X629619Y223152D01*
X629636Y223172D01*
X629708Y223302D01*
X629784Y223429D01*
X629792Y223454D01*
X629805Y223477D01*
X629845Y223620D01*
X629890Y223761D01*
X629892Y223787D01*
X629900Y223812D01*
X629919Y224056D01*
X629919Y228376D01*
X629916Y228402D01*
X629918Y228428D01*
X629896Y228575D01*
X629879Y228722D01*
X629871Y228747D01*
X629867Y228773D01*
X629812Y228911D01*
X629762Y229050D01*
X629748Y229072D01*
X629738Y229097D01*
X629653Y229218D01*
X629573Y229343D01*
X629554Y229361D01*
X629539Y229383D01*
X629429Y229482D01*
X629322Y229585D01*
X629300Y229599D01*
X629280Y229616D01*
X629150Y229688D01*
X629023Y229764D01*
X628998Y229772D01*
X628975Y229785D01*
X628832Y229825D01*
X628691Y229870D01*
X628665Y229872D01*
X628640Y229880D01*
X628396Y229899D01*
X597836Y229899D01*
X597810Y229896D01*
X597784Y229898D01*
X597637Y229876D01*
X597490Y229859D01*
X597465Y229851D01*
X597439Y229847D01*
X597301Y229792D01*
X597162Y229742D01*
X597140Y229728D01*
X597115Y229718D01*
X596994Y229633D01*
X596869Y229553D01*
X596851Y229534D01*
X596829Y229519D01*
X596730Y229409D01*
X596627Y229302D01*
X596613Y229280D01*
X596596Y229260D01*
X596524Y229130D01*
X596448Y229003D01*
X596440Y228978D01*
X596427Y228955D01*
X596387Y228812D01*
X596342Y228671D01*
X596340Y228645D01*
X596332Y228620D01*
X596313Y228376D01*
X596313Y216788D01*
X595562Y216038D01*
X595531Y215998D01*
X595493Y215963D01*
X595423Y215861D01*
X595346Y215765D01*
X595324Y215718D01*
X595295Y215676D01*
X595250Y215561D01*
X595197Y215449D01*
X595186Y215400D01*
X595167Y215352D01*
X595149Y215229D01*
X595123Y215109D01*
X595124Y215058D01*
X595117Y215007D01*
X595127Y214884D01*
X595129Y214760D01*
X595142Y214711D01*
X595146Y214660D01*
X595184Y214542D01*
X595214Y214422D01*
X595238Y214377D01*
X595253Y214328D01*
X595317Y214222D01*
X595374Y214113D01*
X595407Y214074D01*
X595433Y214030D01*
X595520Y213941D01*
X595600Y213847D01*
X595641Y213817D01*
X595676Y213780D01*
X595826Y213677D01*
X596313Y213190D01*
X596648Y212611D01*
X596821Y211965D01*
X596821Y208629D01*
X590256Y208629D01*
X590230Y208626D01*
X590204Y208628D01*
X590057Y208606D01*
X589910Y208589D01*
X589885Y208581D01*
X589859Y208577D01*
X589722Y208522D01*
X589582Y208472D01*
X589560Y208458D01*
X589535Y208448D01*
X589414Y208363D01*
X589289Y208283D01*
X589277Y208270D01*
X589230Y208315D01*
X589207Y208329D01*
X589188Y208346D01*
X589058Y208418D01*
X588931Y208494D01*
X588906Y208502D01*
X588883Y208515D01*
X588740Y208555D01*
X588599Y208600D01*
X588573Y208602D01*
X588548Y208610D01*
X588304Y208629D01*
X581739Y208629D01*
X581739Y211965D01*
X581912Y212611D01*
X582247Y213190D01*
X582734Y213677D01*
X582769Y213695D01*
X582863Y213775D01*
X582962Y213849D01*
X582995Y213888D01*
X583034Y213921D01*
X583108Y214020D01*
X583188Y214115D01*
X583211Y214160D01*
X583241Y214201D01*
X583290Y214315D01*
X583347Y214425D01*
X583359Y214474D01*
X583379Y214521D01*
X583401Y214643D01*
X583431Y214763D01*
X583432Y214814D01*
X583441Y214864D01*
X583434Y214988D01*
X583436Y215111D01*
X583426Y215161D01*
X583423Y215212D01*
X583389Y215331D01*
X583362Y215452D01*
X583340Y215498D01*
X583326Y215547D01*
X583266Y215655D01*
X583213Y215767D01*
X583181Y215807D01*
X583156Y215851D01*
X582998Y216038D01*
X582247Y216788D01*
X582247Y228376D01*
X582244Y228402D01*
X582246Y228428D01*
X582224Y228575D01*
X582207Y228722D01*
X582199Y228747D01*
X582195Y228773D01*
X582140Y228911D01*
X582090Y229050D01*
X582076Y229072D01*
X582066Y229097D01*
X581981Y229218D01*
X581901Y229343D01*
X581882Y229361D01*
X581867Y229383D01*
X581757Y229482D01*
X581650Y229585D01*
X581628Y229599D01*
X581608Y229616D01*
X581478Y229688D01*
X581351Y229764D01*
X581326Y229772D01*
X581303Y229785D01*
X581160Y229825D01*
X581019Y229870D01*
X580993Y229872D01*
X580968Y229880D01*
X580724Y229899D01*
X387604Y229899D01*
X387578Y229896D01*
X387552Y229898D01*
X387405Y229876D01*
X387258Y229859D01*
X387233Y229851D01*
X387207Y229847D01*
X387069Y229792D01*
X386930Y229742D01*
X386908Y229728D01*
X386883Y229718D01*
X386762Y229633D01*
X386637Y229553D01*
X386619Y229534D01*
X386597Y229519D01*
X386498Y229409D01*
X386395Y229302D01*
X386381Y229280D01*
X386364Y229260D01*
X386292Y229130D01*
X386216Y229003D01*
X386208Y228978D01*
X386195Y228955D01*
X386155Y228812D01*
X386110Y228671D01*
X386108Y228645D01*
X386100Y228620D01*
X386081Y228376D01*
X386081Y224056D01*
X386084Y224030D01*
X386082Y224004D01*
X386104Y223857D01*
X386121Y223710D01*
X386129Y223685D01*
X386133Y223659D01*
X386188Y223521D01*
X386238Y223382D01*
X386252Y223360D01*
X386262Y223335D01*
X386347Y223214D01*
X386427Y223089D01*
X386446Y223071D01*
X386461Y223049D01*
X386571Y222950D01*
X386678Y222847D01*
X386700Y222833D01*
X386720Y222816D01*
X386850Y222744D01*
X386977Y222668D01*
X387002Y222660D01*
X387025Y222647D01*
X387168Y222607D01*
X387309Y222562D01*
X387314Y222561D01*
X388423Y221452D01*
X388443Y221436D01*
X388460Y221416D01*
X388580Y221327D01*
X388696Y221235D01*
X388720Y221224D01*
X388741Y221208D01*
X388877Y221150D01*
X389011Y221086D01*
X389037Y221081D01*
X389061Y221070D01*
X389207Y221044D01*
X389352Y221013D01*
X389378Y221013D01*
X389404Y221009D01*
X389552Y221016D01*
X389700Y221019D01*
X389726Y221025D01*
X389752Y221027D01*
X389894Y221068D01*
X390038Y221104D01*
X390061Y221116D01*
X390087Y221123D01*
X390216Y221196D01*
X390348Y221264D01*
X390368Y221281D01*
X390391Y221293D01*
X390577Y221452D01*
X391658Y222533D01*
X404342Y222533D01*
X405533Y221342D01*
X405533Y199658D01*
X404342Y198467D01*
X399700Y198467D01*
X399650Y198462D01*
X399599Y198464D01*
X399477Y198442D01*
X399354Y198427D01*
X399306Y198410D01*
X399257Y198401D01*
X399142Y198352D01*
X399025Y198310D01*
X398983Y198283D01*
X398937Y198263D01*
X398837Y198188D01*
X398733Y198121D01*
X398698Y198085D01*
X398657Y198055D01*
X398577Y197960D01*
X398490Y197870D01*
X398465Y197827D01*
X398432Y197789D01*
X398375Y197678D01*
X398312Y197571D01*
X398296Y197523D01*
X398273Y197478D01*
X398243Y197358D01*
X398205Y197239D01*
X398201Y197189D01*
X398189Y197140D01*
X398187Y197016D01*
X398177Y196892D01*
X398185Y196842D01*
X398184Y196792D01*
X398211Y196670D01*
X398229Y196547D01*
X398248Y196500D01*
X398258Y196451D01*
X398312Y196339D01*
X398358Y196223D01*
X398387Y196182D01*
X398408Y196136D01*
X398486Y196039D01*
X398557Y195937D01*
X398594Y195903D01*
X398626Y195864D01*
X398723Y195787D01*
X398816Y195704D01*
X398860Y195679D01*
X398899Y195648D01*
X399117Y195537D01*
X400878Y194807D01*
X402307Y193378D01*
X403081Y191511D01*
X403081Y184056D01*
X403084Y184030D01*
X403082Y184004D01*
X403104Y183857D01*
X403121Y183710D01*
X403129Y183685D01*
X403133Y183659D01*
X403188Y183521D01*
X403238Y183382D01*
X403252Y183360D01*
X403262Y183335D01*
X403347Y183214D01*
X403427Y183089D01*
X403446Y183071D01*
X403461Y183049D01*
X403571Y182950D01*
X403678Y182847D01*
X403700Y182833D01*
X403720Y182816D01*
X403850Y182744D01*
X403977Y182668D01*
X404002Y182660D01*
X404025Y182647D01*
X404168Y182607D01*
X404309Y182562D01*
X404314Y182561D01*
X405533Y181342D01*
X405533Y159658D01*
X404342Y158467D01*
X391658Y158467D01*
X390577Y159548D01*
X390557Y159564D01*
X390540Y159584D01*
X390420Y159673D01*
X390304Y159765D01*
X390280Y159776D01*
X390259Y159792D01*
X390123Y159850D01*
X389989Y159914D01*
X389963Y159919D01*
X389939Y159930D01*
X389793Y159956D01*
X389648Y159987D01*
X389622Y159987D01*
X389596Y159991D01*
X389448Y159984D01*
X389300Y159981D01*
X389274Y159975D01*
X389248Y159973D01*
X389106Y159932D01*
X388962Y159896D01*
X388939Y159884D01*
X388913Y159877D01*
X388784Y159804D01*
X388652Y159736D01*
X388632Y159719D01*
X388609Y159707D01*
X388423Y159548D01*
X387308Y158433D01*
X387258Y158427D01*
X387233Y158419D01*
X387207Y158415D01*
X387069Y158360D01*
X386930Y158310D01*
X386908Y158296D01*
X386883Y158286D01*
X386762Y158201D01*
X386637Y158121D01*
X386619Y158102D01*
X386597Y158087D01*
X386498Y157977D01*
X386395Y157870D01*
X386381Y157848D01*
X386364Y157828D01*
X386292Y157698D01*
X386216Y157571D01*
X386208Y157546D01*
X386195Y157523D01*
X386155Y157380D01*
X386110Y157239D01*
X386108Y157213D01*
X386100Y157188D01*
X386081Y156944D01*
X386081Y152654D01*
X386084Y152628D01*
X386082Y152602D01*
X386104Y152455D01*
X386121Y152308D01*
X386129Y152283D01*
X386133Y152257D01*
X386188Y152119D01*
X386238Y151980D01*
X386252Y151958D01*
X386262Y151933D01*
X386347Y151812D01*
X386427Y151687D01*
X386446Y151669D01*
X386461Y151647D01*
X386571Y151548D01*
X386678Y151445D01*
X386700Y151431D01*
X386720Y151414D01*
X386850Y151342D01*
X386977Y151266D01*
X387002Y151258D01*
X387025Y151245D01*
X387168Y151205D01*
X387309Y151160D01*
X387335Y151158D01*
X387360Y151150D01*
X387604Y151131D01*
X441870Y151131D01*
X441906Y151135D01*
G37*
G36*
X168856Y151135D02*
X168856Y151135D01*
X168919Y151134D01*
X170887Y151263D01*
X170914Y151268D01*
X170941Y151267D01*
X171182Y151312D01*
X174983Y152330D01*
X175055Y152359D01*
X175130Y152378D01*
X175263Y152441D01*
X175308Y152458D01*
X175324Y152470D01*
X175351Y152482D01*
X178759Y154450D01*
X178781Y154467D01*
X178806Y154478D01*
X179002Y154624D01*
X180485Y155924D01*
X180509Y155952D01*
X180557Y155993D01*
X181486Y156921D01*
X190304Y165739D01*
X191218Y166653D01*
X194055Y169491D01*
X201006Y173504D01*
X208758Y175581D01*
X354944Y175581D01*
X354970Y175584D01*
X354996Y175582D01*
X355143Y175604D01*
X355290Y175621D01*
X355315Y175629D01*
X355341Y175633D01*
X355479Y175688D01*
X355618Y175738D01*
X355640Y175752D01*
X355665Y175762D01*
X355786Y175847D01*
X355911Y175927D01*
X355929Y175946D01*
X355951Y175961D01*
X356050Y176071D01*
X356153Y176178D01*
X356167Y176200D01*
X356184Y176220D01*
X356256Y176350D01*
X356332Y176477D01*
X356340Y176502D01*
X356353Y176525D01*
X356393Y176668D01*
X356438Y176809D01*
X356440Y176835D01*
X356448Y176860D01*
X356467Y177104D01*
X356467Y181342D01*
X357658Y182533D01*
X370342Y182533D01*
X371423Y181452D01*
X371443Y181435D01*
X371460Y181416D01*
X371580Y181327D01*
X371696Y181235D01*
X371720Y181224D01*
X371741Y181208D01*
X371877Y181150D01*
X372011Y181086D01*
X372037Y181081D01*
X372061Y181070D01*
X372207Y181044D01*
X372352Y181013D01*
X372378Y181013D01*
X372404Y181009D01*
X372552Y181016D01*
X372700Y181019D01*
X372726Y181025D01*
X372752Y181027D01*
X372894Y181068D01*
X373038Y181104D01*
X373061Y181116D01*
X373087Y181123D01*
X373216Y181196D01*
X373348Y181264D01*
X373368Y181280D01*
X373391Y181293D01*
X373577Y181452D01*
X374658Y182533D01*
X379300Y182533D01*
X379350Y182538D01*
X379401Y182536D01*
X379523Y182558D01*
X379646Y182573D01*
X379694Y182590D01*
X379743Y182599D01*
X379858Y182648D01*
X379975Y182690D01*
X380017Y182717D01*
X380063Y182737D01*
X380163Y182812D01*
X380267Y182879D01*
X380302Y182915D01*
X380343Y182945D01*
X380423Y183040D01*
X380510Y183130D01*
X380535Y183173D01*
X380568Y183211D01*
X380625Y183322D01*
X380688Y183429D01*
X380704Y183477D01*
X380727Y183522D01*
X380757Y183642D01*
X380795Y183761D01*
X380799Y183811D01*
X380811Y183860D01*
X380813Y183984D01*
X380823Y184108D01*
X380815Y184158D01*
X380816Y184208D01*
X380789Y184330D01*
X380771Y184453D01*
X380752Y184500D01*
X380742Y184549D01*
X380688Y184661D01*
X380642Y184777D01*
X380613Y184818D01*
X380592Y184864D01*
X380514Y184961D01*
X380443Y185063D01*
X380406Y185097D01*
X380374Y185136D01*
X380277Y185213D01*
X380184Y185296D01*
X380140Y185321D01*
X380101Y185352D01*
X379883Y185463D01*
X378122Y186193D01*
X376693Y187622D01*
X375919Y189489D01*
X375919Y196944D01*
X375916Y196970D01*
X375918Y196996D01*
X375896Y197143D01*
X375879Y197290D01*
X375871Y197315D01*
X375867Y197341D01*
X375812Y197478D01*
X375762Y197618D01*
X375748Y197640D01*
X375738Y197665D01*
X375653Y197786D01*
X375573Y197911D01*
X375554Y197929D01*
X375539Y197951D01*
X375429Y198050D01*
X375322Y198153D01*
X375300Y198167D01*
X375280Y198184D01*
X375150Y198256D01*
X375023Y198332D01*
X374998Y198340D01*
X374975Y198353D01*
X374832Y198393D01*
X374691Y198438D01*
X374687Y198439D01*
X373908Y199218D01*
X373868Y199249D01*
X373833Y199287D01*
X373731Y199357D01*
X373635Y199434D01*
X373588Y199456D01*
X373546Y199485D01*
X373431Y199530D01*
X373319Y199583D01*
X373270Y199594D01*
X373222Y199613D01*
X373099Y199631D01*
X372979Y199657D01*
X372928Y199656D01*
X372877Y199663D01*
X372754Y199653D01*
X372630Y199651D01*
X372581Y199638D01*
X372530Y199634D01*
X372412Y199596D01*
X372292Y199566D01*
X372247Y199542D01*
X372198Y199527D01*
X372092Y199463D01*
X371983Y199406D01*
X371944Y199373D01*
X371900Y199347D01*
X371811Y199260D01*
X371717Y199180D01*
X371687Y199139D01*
X371650Y199104D01*
X371547Y198954D01*
X371060Y198467D01*
X370481Y198132D01*
X369835Y197959D01*
X366749Y197959D01*
X366749Y209274D01*
X366746Y209300D01*
X366748Y209326D01*
X366726Y209473D01*
X366709Y209620D01*
X366701Y209645D01*
X366697Y209671D01*
X366642Y209808D01*
X366592Y209948D01*
X366578Y209970D01*
X366568Y209995D01*
X366483Y210116D01*
X366403Y210241D01*
X366384Y210259D01*
X366369Y210281D01*
X366259Y210380D01*
X366152Y210483D01*
X366130Y210497D01*
X366122Y210503D01*
X366193Y210549D01*
X366211Y210568D01*
X366233Y210583D01*
X366332Y210693D01*
X366435Y210800D01*
X366449Y210823D01*
X366466Y210842D01*
X366538Y210972D01*
X366614Y211099D01*
X366622Y211124D01*
X366635Y211147D01*
X366675Y211290D01*
X366720Y211431D01*
X366722Y211457D01*
X366730Y211482D01*
X366749Y211726D01*
X366749Y223041D01*
X369835Y223041D01*
X370481Y222868D01*
X371060Y222533D01*
X371547Y222046D01*
X371565Y222011D01*
X371645Y221917D01*
X371719Y221818D01*
X371758Y221785D01*
X371791Y221746D01*
X371890Y221672D01*
X371985Y221592D01*
X372030Y221569D01*
X372071Y221539D01*
X372185Y221490D01*
X372295Y221433D01*
X372344Y221421D01*
X372391Y221401D01*
X372513Y221379D01*
X372633Y221349D01*
X372684Y221348D01*
X372734Y221339D01*
X372858Y221346D01*
X372981Y221344D01*
X373031Y221354D01*
X373082Y221357D01*
X373201Y221391D01*
X373322Y221418D01*
X373368Y221440D01*
X373417Y221454D01*
X373525Y221514D01*
X373637Y221567D01*
X373677Y221599D01*
X373721Y221624D01*
X373908Y221782D01*
X374692Y222567D01*
X374742Y222573D01*
X374767Y222581D01*
X374793Y222585D01*
X374931Y222640D01*
X375070Y222690D01*
X375092Y222704D01*
X375117Y222714D01*
X375238Y222799D01*
X375363Y222879D01*
X375381Y222898D01*
X375403Y222913D01*
X375502Y223023D01*
X375605Y223130D01*
X375619Y223152D01*
X375636Y223172D01*
X375708Y223302D01*
X375784Y223429D01*
X375792Y223454D01*
X375805Y223477D01*
X375845Y223620D01*
X375890Y223761D01*
X375892Y223787D01*
X375900Y223812D01*
X375919Y224056D01*
X375919Y228376D01*
X375916Y228402D01*
X375918Y228428D01*
X375896Y228575D01*
X375879Y228722D01*
X375871Y228747D01*
X375867Y228773D01*
X375812Y228911D01*
X375762Y229050D01*
X375748Y229072D01*
X375738Y229097D01*
X375653Y229218D01*
X375573Y229343D01*
X375554Y229361D01*
X375539Y229383D01*
X375429Y229482D01*
X375322Y229585D01*
X375300Y229599D01*
X375280Y229616D01*
X375150Y229688D01*
X375023Y229764D01*
X374998Y229772D01*
X374975Y229785D01*
X374832Y229825D01*
X374691Y229870D01*
X374665Y229872D01*
X374640Y229880D01*
X374396Y229899D01*
X340026Y229899D01*
X340000Y229896D01*
X339974Y229898D01*
X339827Y229876D01*
X339680Y229859D01*
X339655Y229851D01*
X339629Y229847D01*
X339491Y229792D01*
X339352Y229742D01*
X339330Y229728D01*
X339305Y229718D01*
X339184Y229633D01*
X339059Y229553D01*
X339041Y229534D01*
X339019Y229519D01*
X338920Y229409D01*
X338817Y229302D01*
X338803Y229280D01*
X338786Y229260D01*
X338714Y229130D01*
X338638Y229003D01*
X338630Y228978D01*
X338617Y228955D01*
X338577Y228812D01*
X338532Y228671D01*
X338530Y228645D01*
X338522Y228620D01*
X338503Y228376D01*
X338503Y216788D01*
X337752Y216038D01*
X337721Y215998D01*
X337683Y215963D01*
X337613Y215861D01*
X337536Y215765D01*
X337514Y215718D01*
X337485Y215676D01*
X337440Y215561D01*
X337387Y215449D01*
X337376Y215400D01*
X337357Y215352D01*
X337339Y215229D01*
X337313Y215109D01*
X337314Y215058D01*
X337307Y215007D01*
X337317Y214884D01*
X337319Y214760D01*
X337332Y214711D01*
X337336Y214660D01*
X337374Y214542D01*
X337404Y214422D01*
X337428Y214377D01*
X337443Y214328D01*
X337507Y214222D01*
X337564Y214113D01*
X337597Y214074D01*
X337623Y214030D01*
X337710Y213941D01*
X337790Y213847D01*
X337831Y213817D01*
X337866Y213780D01*
X338016Y213677D01*
X338503Y213190D01*
X338838Y212611D01*
X339011Y211965D01*
X339011Y208629D01*
X332446Y208629D01*
X332420Y208626D01*
X332394Y208628D01*
X332247Y208606D01*
X332100Y208589D01*
X332075Y208581D01*
X332049Y208577D01*
X331912Y208522D01*
X331772Y208472D01*
X331750Y208458D01*
X331725Y208448D01*
X331604Y208363D01*
X331479Y208283D01*
X331467Y208270D01*
X331420Y208315D01*
X331397Y208329D01*
X331378Y208346D01*
X331248Y208418D01*
X331121Y208494D01*
X331096Y208502D01*
X331073Y208515D01*
X330930Y208555D01*
X330789Y208600D01*
X330763Y208602D01*
X330738Y208610D01*
X330494Y208629D01*
X323929Y208629D01*
X323929Y211965D01*
X324102Y212611D01*
X324437Y213190D01*
X324924Y213677D01*
X324959Y213695D01*
X325053Y213775D01*
X325152Y213849D01*
X325185Y213888D01*
X325224Y213921D01*
X325298Y214020D01*
X325378Y214115D01*
X325401Y214160D01*
X325431Y214201D01*
X325480Y214315D01*
X325537Y214425D01*
X325549Y214474D01*
X325569Y214521D01*
X325591Y214643D01*
X325621Y214763D01*
X325622Y214814D01*
X325631Y214864D01*
X325624Y214988D01*
X325626Y215111D01*
X325616Y215161D01*
X325613Y215212D01*
X325579Y215331D01*
X325552Y215452D01*
X325530Y215498D01*
X325516Y215547D01*
X325456Y215655D01*
X325403Y215767D01*
X325371Y215807D01*
X325346Y215851D01*
X325188Y216038D01*
X324437Y216788D01*
X324437Y228376D01*
X324434Y228402D01*
X324436Y228428D01*
X324414Y228575D01*
X324397Y228722D01*
X324389Y228747D01*
X324385Y228773D01*
X324330Y228911D01*
X324280Y229050D01*
X324266Y229072D01*
X324256Y229097D01*
X324171Y229218D01*
X324091Y229343D01*
X324072Y229361D01*
X324057Y229383D01*
X323947Y229482D01*
X323840Y229585D01*
X323818Y229599D01*
X323798Y229616D01*
X323668Y229688D01*
X323541Y229764D01*
X323516Y229772D01*
X323493Y229785D01*
X323350Y229825D01*
X323209Y229870D01*
X323183Y229872D01*
X323158Y229880D01*
X322914Y229899D01*
X190166Y229899D01*
X190140Y229896D01*
X190114Y229898D01*
X189967Y229876D01*
X189820Y229859D01*
X189795Y229851D01*
X189769Y229847D01*
X189631Y229792D01*
X189492Y229742D01*
X189470Y229728D01*
X189445Y229718D01*
X189324Y229633D01*
X189199Y229553D01*
X189181Y229534D01*
X189159Y229519D01*
X189060Y229409D01*
X188957Y229302D01*
X188943Y229280D01*
X188926Y229260D01*
X188854Y229130D01*
X188778Y229003D01*
X188770Y228978D01*
X188757Y228955D01*
X188717Y228812D01*
X188672Y228671D01*
X188670Y228645D01*
X188662Y228620D01*
X188643Y228376D01*
X188643Y216788D01*
X187892Y216038D01*
X187861Y215998D01*
X187823Y215963D01*
X187753Y215861D01*
X187676Y215765D01*
X187654Y215718D01*
X187625Y215676D01*
X187580Y215561D01*
X187527Y215449D01*
X187516Y215400D01*
X187497Y215352D01*
X187479Y215229D01*
X187453Y215109D01*
X187454Y215058D01*
X187447Y215007D01*
X187457Y214884D01*
X187459Y214760D01*
X187472Y214711D01*
X187476Y214660D01*
X187514Y214542D01*
X187544Y214422D01*
X187568Y214377D01*
X187583Y214328D01*
X187647Y214222D01*
X187704Y214113D01*
X187737Y214074D01*
X187763Y214030D01*
X187850Y213941D01*
X187930Y213847D01*
X187971Y213817D01*
X188006Y213780D01*
X188156Y213677D01*
X188643Y213190D01*
X188978Y212611D01*
X189151Y211965D01*
X189151Y208629D01*
X182586Y208629D01*
X182560Y208626D01*
X182534Y208628D01*
X182387Y208606D01*
X182240Y208589D01*
X182215Y208581D01*
X182189Y208577D01*
X182052Y208522D01*
X181912Y208472D01*
X181890Y208458D01*
X181865Y208448D01*
X181744Y208363D01*
X181619Y208283D01*
X181607Y208270D01*
X181560Y208315D01*
X181537Y208329D01*
X181518Y208346D01*
X181388Y208418D01*
X181261Y208494D01*
X181236Y208502D01*
X181213Y208515D01*
X181070Y208555D01*
X180929Y208600D01*
X180903Y208602D01*
X180878Y208610D01*
X180634Y208629D01*
X174069Y208629D01*
X174069Y211965D01*
X174242Y212611D01*
X174577Y213190D01*
X175064Y213677D01*
X175099Y213695D01*
X175193Y213775D01*
X175292Y213849D01*
X175325Y213888D01*
X175364Y213921D01*
X175438Y214020D01*
X175518Y214115D01*
X175541Y214160D01*
X175571Y214201D01*
X175620Y214315D01*
X175677Y214425D01*
X175689Y214474D01*
X175709Y214521D01*
X175731Y214643D01*
X175761Y214763D01*
X175762Y214814D01*
X175771Y214864D01*
X175764Y214988D01*
X175766Y215111D01*
X175756Y215161D01*
X175753Y215212D01*
X175719Y215331D01*
X175692Y215452D01*
X175670Y215498D01*
X175656Y215547D01*
X175596Y215655D01*
X175543Y215767D01*
X175511Y215807D01*
X175486Y215851D01*
X175328Y216038D01*
X174577Y216788D01*
X174577Y228346D01*
X174574Y228372D01*
X174576Y228398D01*
X174554Y228545D01*
X174537Y228692D01*
X174529Y228717D01*
X174525Y228743D01*
X174470Y228881D01*
X174420Y229020D01*
X174406Y229042D01*
X174396Y229067D01*
X174311Y229188D01*
X174231Y229313D01*
X174212Y229331D01*
X174197Y229353D01*
X174087Y229452D01*
X173980Y229555D01*
X173958Y229569D01*
X173938Y229586D01*
X173808Y229658D01*
X173681Y229734D01*
X173656Y229742D01*
X173633Y229755D01*
X173490Y229795D01*
X173349Y229840D01*
X173323Y229842D01*
X173298Y229850D01*
X173054Y229869D01*
X133604Y229869D01*
X133578Y229866D01*
X133552Y229868D01*
X133405Y229846D01*
X133258Y229829D01*
X133233Y229821D01*
X133207Y229817D01*
X133069Y229762D01*
X132930Y229712D01*
X132908Y229698D01*
X132883Y229688D01*
X132762Y229603D01*
X132637Y229523D01*
X132619Y229504D01*
X132597Y229489D01*
X132498Y229379D01*
X132395Y229272D01*
X132381Y229250D01*
X132364Y229230D01*
X132292Y229100D01*
X132216Y228973D01*
X132208Y228948D01*
X132195Y228925D01*
X132155Y228782D01*
X132110Y228641D01*
X132108Y228615D01*
X132100Y228590D01*
X132081Y228346D01*
X132081Y224056D01*
X132084Y224030D01*
X132082Y224004D01*
X132104Y223857D01*
X132121Y223710D01*
X132129Y223685D01*
X132133Y223659D01*
X132188Y223521D01*
X132238Y223382D01*
X132252Y223360D01*
X132262Y223335D01*
X132347Y223214D01*
X132427Y223089D01*
X132446Y223071D01*
X132461Y223049D01*
X132571Y222950D01*
X132678Y222847D01*
X132700Y222833D01*
X132720Y222816D01*
X132850Y222744D01*
X132977Y222668D01*
X133002Y222660D01*
X133025Y222647D01*
X133168Y222607D01*
X133309Y222562D01*
X133314Y222561D01*
X134423Y221452D01*
X134443Y221436D01*
X134460Y221416D01*
X134580Y221327D01*
X134696Y221235D01*
X134720Y221224D01*
X134741Y221208D01*
X134877Y221150D01*
X135011Y221086D01*
X135037Y221081D01*
X135061Y221070D01*
X135207Y221044D01*
X135352Y221013D01*
X135378Y221013D01*
X135404Y221009D01*
X135552Y221016D01*
X135700Y221019D01*
X135726Y221025D01*
X135752Y221027D01*
X135894Y221068D01*
X136038Y221104D01*
X136061Y221116D01*
X136087Y221123D01*
X136216Y221196D01*
X136348Y221264D01*
X136368Y221281D01*
X136391Y221293D01*
X136577Y221452D01*
X137658Y222533D01*
X150342Y222533D01*
X151533Y221342D01*
X151533Y199658D01*
X150342Y198467D01*
X145700Y198467D01*
X145650Y198462D01*
X145599Y198464D01*
X145477Y198442D01*
X145354Y198427D01*
X145306Y198410D01*
X145257Y198401D01*
X145142Y198352D01*
X145025Y198310D01*
X144983Y198283D01*
X144937Y198263D01*
X144837Y198188D01*
X144733Y198121D01*
X144698Y198085D01*
X144657Y198055D01*
X144577Y197960D01*
X144490Y197870D01*
X144465Y197827D01*
X144432Y197789D01*
X144375Y197678D01*
X144312Y197571D01*
X144296Y197523D01*
X144273Y197478D01*
X144243Y197358D01*
X144205Y197239D01*
X144201Y197189D01*
X144189Y197140D01*
X144187Y197016D01*
X144177Y196892D01*
X144185Y196842D01*
X144184Y196792D01*
X144211Y196670D01*
X144229Y196547D01*
X144248Y196500D01*
X144258Y196451D01*
X144312Y196339D01*
X144358Y196223D01*
X144387Y196182D01*
X144408Y196136D01*
X144486Y196039D01*
X144557Y195937D01*
X144594Y195903D01*
X144626Y195864D01*
X144723Y195787D01*
X144816Y195704D01*
X144860Y195679D01*
X144899Y195648D01*
X145117Y195537D01*
X146878Y194807D01*
X148307Y193378D01*
X149081Y191511D01*
X149081Y184056D01*
X149084Y184030D01*
X149082Y184004D01*
X149104Y183857D01*
X149121Y183710D01*
X149129Y183685D01*
X149133Y183659D01*
X149188Y183521D01*
X149238Y183382D01*
X149252Y183360D01*
X149262Y183335D01*
X149347Y183214D01*
X149427Y183089D01*
X149446Y183071D01*
X149461Y183049D01*
X149571Y182950D01*
X149678Y182847D01*
X149700Y182833D01*
X149720Y182816D01*
X149850Y182744D01*
X149977Y182668D01*
X150002Y182660D01*
X150025Y182647D01*
X150168Y182607D01*
X150309Y182562D01*
X150314Y182561D01*
X151533Y181342D01*
X151533Y159658D01*
X150342Y158467D01*
X137658Y158467D01*
X136577Y159548D01*
X136557Y159564D01*
X136540Y159584D01*
X136420Y159673D01*
X136304Y159765D01*
X136280Y159776D01*
X136259Y159792D01*
X136123Y159850D01*
X135989Y159914D01*
X135963Y159919D01*
X135939Y159930D01*
X135793Y159956D01*
X135648Y159987D01*
X135622Y159987D01*
X135596Y159991D01*
X135448Y159984D01*
X135300Y159981D01*
X135274Y159975D01*
X135248Y159973D01*
X135106Y159932D01*
X134962Y159896D01*
X134939Y159884D01*
X134913Y159877D01*
X134784Y159804D01*
X134652Y159736D01*
X134632Y159719D01*
X134609Y159707D01*
X134423Y159548D01*
X133308Y158433D01*
X133258Y158427D01*
X133233Y158419D01*
X133207Y158415D01*
X133069Y158360D01*
X132930Y158310D01*
X132908Y158296D01*
X132883Y158286D01*
X132762Y158201D01*
X132637Y158121D01*
X132619Y158102D01*
X132597Y158087D01*
X132498Y157977D01*
X132395Y157870D01*
X132381Y157848D01*
X132364Y157828D01*
X132292Y157698D01*
X132216Y157571D01*
X132208Y157546D01*
X132195Y157523D01*
X132155Y157380D01*
X132110Y157239D01*
X132108Y157213D01*
X132100Y157188D01*
X132081Y156944D01*
X132081Y152654D01*
X132084Y152628D01*
X132082Y152602D01*
X132104Y152455D01*
X132121Y152308D01*
X132129Y152283D01*
X132133Y152257D01*
X132188Y152119D01*
X132238Y151980D01*
X132252Y151958D01*
X132262Y151933D01*
X132347Y151812D01*
X132427Y151687D01*
X132446Y151669D01*
X132461Y151647D01*
X132571Y151548D01*
X132678Y151445D01*
X132700Y151431D01*
X132720Y151414D01*
X132850Y151342D01*
X132977Y151266D01*
X133002Y151258D01*
X133025Y151245D01*
X133168Y151205D01*
X133309Y151160D01*
X133335Y151158D01*
X133360Y151150D01*
X133604Y151131D01*
X168820Y151131D01*
X168856Y151135D01*
G37*
G36*
X526794Y88192D02*
X526794Y88192D01*
X526943Y88190D01*
X526973Y88195D01*
X526993Y88196D01*
X527039Y88207D01*
X527184Y88234D01*
X530466Y89113D01*
X530538Y89142D01*
X530613Y89161D01*
X530746Y89224D01*
X530790Y89242D01*
X530806Y89253D01*
X530834Y89266D01*
X535083Y91719D01*
X535105Y91735D01*
X535129Y91747D01*
X535326Y91893D01*
X537174Y93514D01*
X537199Y93541D01*
X537247Y93582D01*
X538064Y94399D01*
X538064Y94400D01*
X565905Y122240D01*
X565905Y122241D01*
X566818Y123153D01*
X569655Y125991D01*
X576606Y130003D01*
X584358Y132081D01*
X617575Y132081D01*
X617701Y132095D01*
X617827Y132102D01*
X617873Y132115D01*
X617921Y132121D01*
X618040Y132163D01*
X618162Y132198D01*
X618204Y132222D01*
X618249Y132238D01*
X618356Y132307D01*
X618466Y132368D01*
X618512Y132408D01*
X618542Y132427D01*
X618576Y132462D01*
X618652Y132527D01*
X620158Y134033D01*
X632842Y134033D01*
X633923Y132952D01*
X633943Y132936D01*
X633960Y132916D01*
X634080Y132827D01*
X634196Y132735D01*
X634220Y132724D01*
X634241Y132708D01*
X634377Y132650D01*
X634511Y132586D01*
X634537Y132581D01*
X634561Y132570D01*
X634707Y132544D01*
X634852Y132513D01*
X634878Y132513D01*
X634904Y132509D01*
X635052Y132516D01*
X635200Y132519D01*
X635226Y132525D01*
X635252Y132527D01*
X635394Y132568D01*
X635538Y132604D01*
X635561Y132616D01*
X635587Y132623D01*
X635716Y132696D01*
X635848Y132764D01*
X635868Y132781D01*
X635891Y132793D01*
X636077Y132952D01*
X637158Y134033D01*
X649842Y134033D01*
X651348Y132527D01*
X651447Y132448D01*
X651541Y132364D01*
X651583Y132340D01*
X651621Y132310D01*
X651735Y132256D01*
X651846Y132195D01*
X651892Y132182D01*
X651936Y132161D01*
X652059Y132135D01*
X652181Y132100D01*
X652242Y132095D01*
X652277Y132088D01*
X652325Y132089D01*
X652425Y132081D01*
X671672Y132081D01*
X679424Y130003D01*
X686375Y125991D01*
X689212Y123153D01*
X689940Y122425D01*
X698915Y113450D01*
X699733Y112632D01*
X699762Y112609D01*
X699806Y112564D01*
X701654Y110943D01*
X701677Y110927D01*
X701696Y110908D01*
X701897Y110769D01*
X706146Y108316D01*
X706217Y108285D01*
X706283Y108245D01*
X706423Y108196D01*
X706466Y108177D01*
X706486Y108174D01*
X706514Y108163D01*
X711253Y106893D01*
X711280Y106889D01*
X711306Y106880D01*
X711548Y106845D01*
X714001Y106684D01*
X714038Y106686D01*
X714101Y106681D01*
X738014Y106681D01*
X738090Y106689D01*
X738167Y106688D01*
X738263Y106709D01*
X738360Y106721D01*
X738432Y106746D01*
X738507Y106763D01*
X738596Y106805D01*
X738688Y106838D01*
X738753Y106880D01*
X738822Y106912D01*
X738899Y106974D01*
X738981Y107027D01*
X739034Y107082D01*
X739094Y107130D01*
X739155Y107207D01*
X739223Y107278D01*
X739263Y107343D01*
X739310Y107403D01*
X739378Y107536D01*
X739402Y107577D01*
X739408Y107595D01*
X739421Y107621D01*
X739610Y108075D01*
X742825Y111290D01*
X746693Y112893D01*
X746781Y112942D01*
X746873Y112982D01*
X746933Y113026D01*
X746998Y113062D01*
X747072Y113129D01*
X747153Y113189D01*
X747201Y113246D01*
X747256Y113296D01*
X747313Y113379D01*
X747378Y113455D01*
X747412Y113522D01*
X747454Y113583D01*
X747491Y113676D01*
X747537Y113766D01*
X747555Y113838D01*
X747582Y113907D01*
X747596Y114006D01*
X747621Y114104D01*
X747622Y114178D01*
X747633Y114252D01*
X747624Y114352D01*
X747626Y114452D01*
X747610Y114525D01*
X747604Y114599D01*
X747573Y114695D01*
X747551Y114793D01*
X747520Y114860D01*
X747497Y114931D01*
X747445Y115017D01*
X747402Y115108D01*
X747355Y115166D01*
X747317Y115229D01*
X747247Y115301D01*
X747184Y115380D01*
X747126Y115426D01*
X747074Y115479D01*
X746990Y115534D01*
X746911Y115596D01*
X746821Y115642D01*
X746781Y115668D01*
X746747Y115680D01*
X746693Y115707D01*
X742825Y117310D01*
X739610Y120525D01*
X737869Y124726D01*
X737869Y129274D01*
X739610Y133475D01*
X742825Y136690D01*
X746693Y138293D01*
X746781Y138342D01*
X746873Y138382D01*
X746933Y138426D01*
X746998Y138462D01*
X747072Y138529D01*
X747153Y138589D01*
X747201Y138646D01*
X747256Y138696D01*
X747313Y138779D01*
X747378Y138855D01*
X747412Y138922D01*
X747454Y138983D01*
X747491Y139076D01*
X747537Y139166D01*
X747555Y139238D01*
X747582Y139307D01*
X747596Y139406D01*
X747621Y139504D01*
X747622Y139578D01*
X747633Y139652D01*
X747624Y139752D01*
X747626Y139852D01*
X747610Y139925D01*
X747604Y139999D01*
X747573Y140095D01*
X747551Y140193D01*
X747520Y140260D01*
X747497Y140331D01*
X747445Y140417D01*
X747402Y140508D01*
X747355Y140566D01*
X747317Y140629D01*
X747247Y140701D01*
X747184Y140780D01*
X747126Y140826D01*
X747074Y140879D01*
X746990Y140934D01*
X746911Y140996D01*
X746821Y141042D01*
X746781Y141068D01*
X746747Y141080D01*
X746693Y141107D01*
X742825Y142710D01*
X739610Y145925D01*
X739421Y146379D01*
X739388Y146439D01*
X739385Y146447D01*
X739382Y146451D01*
X739356Y146517D01*
X739300Y146598D01*
X739252Y146684D01*
X739201Y146740D01*
X739157Y146803D01*
X739084Y146869D01*
X739018Y146942D01*
X738955Y146985D01*
X738898Y147036D01*
X738812Y147084D01*
X738731Y147140D01*
X738660Y147168D01*
X738593Y147205D01*
X738499Y147232D01*
X738407Y147268D01*
X738332Y147279D01*
X738258Y147300D01*
X738109Y147312D01*
X738062Y147319D01*
X738043Y147317D01*
X738014Y147319D01*
X633989Y147319D01*
X632122Y148093D01*
X630693Y149522D01*
X629919Y151389D01*
X629919Y156944D01*
X629916Y156970D01*
X629918Y156996D01*
X629896Y157143D01*
X629879Y157290D01*
X629871Y157315D01*
X629867Y157341D01*
X629812Y157479D01*
X629762Y157618D01*
X629748Y157640D01*
X629738Y157665D01*
X629653Y157786D01*
X629573Y157911D01*
X629554Y157929D01*
X629539Y157951D01*
X629429Y158050D01*
X629322Y158153D01*
X629300Y158167D01*
X629280Y158184D01*
X629150Y158256D01*
X629023Y158332D01*
X628998Y158340D01*
X628975Y158353D01*
X628832Y158393D01*
X628691Y158438D01*
X628686Y158439D01*
X627577Y159548D01*
X627557Y159564D01*
X627540Y159584D01*
X627420Y159673D01*
X627304Y159765D01*
X627280Y159776D01*
X627259Y159792D01*
X627123Y159850D01*
X626989Y159914D01*
X626963Y159919D01*
X626939Y159930D01*
X626793Y159956D01*
X626648Y159987D01*
X626622Y159987D01*
X626596Y159991D01*
X626448Y159984D01*
X626300Y159981D01*
X626274Y159975D01*
X626248Y159973D01*
X626106Y159932D01*
X625962Y159896D01*
X625939Y159884D01*
X625913Y159877D01*
X625784Y159804D01*
X625652Y159736D01*
X625632Y159719D01*
X625609Y159707D01*
X625423Y159548D01*
X624342Y158467D01*
X611658Y158467D01*
X610467Y159658D01*
X610467Y163896D01*
X610464Y163922D01*
X610466Y163948D01*
X610444Y164095D01*
X610427Y164242D01*
X610419Y164267D01*
X610415Y164293D01*
X610360Y164431D01*
X610310Y164570D01*
X610296Y164592D01*
X610286Y164617D01*
X610201Y164738D01*
X610121Y164863D01*
X610102Y164881D01*
X610087Y164903D01*
X609977Y165002D01*
X609870Y165105D01*
X609848Y165119D01*
X609828Y165136D01*
X609698Y165208D01*
X609571Y165284D01*
X609546Y165292D01*
X609523Y165305D01*
X609380Y165345D01*
X609239Y165390D01*
X609213Y165392D01*
X609188Y165400D01*
X608944Y165419D01*
X527480Y165419D01*
X527356Y165405D01*
X527231Y165399D01*
X527183Y165385D01*
X527134Y165379D01*
X527016Y165337D01*
X526896Y165303D01*
X526853Y165279D01*
X526806Y165262D01*
X526701Y165194D01*
X526592Y165133D01*
X526555Y165100D01*
X526513Y165073D01*
X526426Y164983D01*
X526334Y164899D01*
X526306Y164858D01*
X526271Y164822D01*
X526207Y164715D01*
X526136Y164612D01*
X526118Y164566D01*
X526092Y164523D01*
X526054Y164404D01*
X526008Y164288D01*
X526001Y164239D01*
X525986Y164191D01*
X525976Y164067D01*
X525958Y163943D01*
X525962Y163893D01*
X525958Y163844D01*
X525976Y163720D01*
X525987Y163596D01*
X526002Y163548D01*
X526010Y163499D01*
X526056Y163383D01*
X526094Y163264D01*
X526120Y163221D01*
X526138Y163175D01*
X526210Y163073D01*
X526274Y162966D01*
X526309Y162930D01*
X526337Y162889D01*
X526430Y162805D01*
X526517Y162716D01*
X526569Y162680D01*
X526596Y162656D01*
X526638Y162633D01*
X526719Y162577D01*
X533328Y158761D01*
X541565Y149884D01*
X546819Y138974D01*
X548624Y127000D01*
X546819Y115026D01*
X541565Y104116D01*
X533328Y95239D01*
X526028Y91025D01*
X525907Y90935D01*
X525785Y90850D01*
X525768Y90832D01*
X525748Y90817D01*
X525651Y90702D01*
X525551Y90592D01*
X525539Y90570D01*
X525523Y90551D01*
X525454Y90418D01*
X525382Y90287D01*
X525375Y90263D01*
X525364Y90241D01*
X525328Y90096D01*
X525287Y89952D01*
X525285Y89927D01*
X525279Y89903D01*
X525277Y89753D01*
X525270Y89604D01*
X525274Y89579D01*
X525274Y89554D01*
X525306Y89408D01*
X525333Y89261D01*
X525343Y89238D01*
X525348Y89214D01*
X525412Y89078D01*
X525472Y88941D01*
X525487Y88921D01*
X525497Y88899D01*
X525591Y88782D01*
X525680Y88662D01*
X525699Y88646D01*
X525715Y88626D01*
X525832Y88534D01*
X525946Y88437D01*
X525969Y88426D01*
X525988Y88410D01*
X526123Y88347D01*
X526257Y88278D01*
X526281Y88272D01*
X526303Y88262D01*
X526450Y88231D01*
X526595Y88195D01*
X526620Y88194D01*
X526644Y88189D01*
X526794Y88192D01*
G37*
G36*
X236373Y87638D02*
X236373Y87638D01*
X236438Y87636D01*
X236546Y87658D01*
X236655Y87671D01*
X236716Y87692D01*
X236780Y87705D01*
X236880Y87751D01*
X236984Y87788D01*
X237038Y87823D01*
X237097Y87850D01*
X237184Y87917D01*
X237276Y87977D01*
X237321Y88024D01*
X237372Y88063D01*
X237442Y88148D01*
X237519Y88228D01*
X237552Y88283D01*
X237592Y88333D01*
X237641Y88432D01*
X237697Y88527D01*
X237717Y88588D01*
X237745Y88646D01*
X237770Y88754D01*
X237804Y88859D01*
X237809Y88923D01*
X237823Y88986D01*
X237823Y89096D01*
X237832Y89206D01*
X237822Y89270D01*
X237822Y89335D01*
X237796Y89442D01*
X237780Y89551D01*
X237756Y89611D01*
X237741Y89674D01*
X237692Y89772D01*
X237651Y89875D01*
X237614Y89928D01*
X237585Y89986D01*
X237515Y90071D01*
X237452Y90161D01*
X237404Y90204D01*
X237363Y90254D01*
X237275Y90321D01*
X237193Y90394D01*
X237137Y90426D01*
X237085Y90465D01*
X236919Y90546D01*
X236888Y90563D01*
X236879Y90566D01*
X236866Y90572D01*
X233688Y91819D01*
X224221Y99369D01*
X217399Y109374D01*
X213830Y120945D01*
X213830Y133055D01*
X217399Y144626D01*
X224221Y154631D01*
X233688Y162181D01*
X234445Y162478D01*
X234502Y162508D01*
X234563Y162530D01*
X234656Y162590D01*
X234753Y162642D01*
X234801Y162684D01*
X234856Y162719D01*
X234932Y162798D01*
X235015Y162871D01*
X235053Y162923D01*
X235098Y162970D01*
X235155Y163064D01*
X235219Y163154D01*
X235244Y163213D01*
X235277Y163269D01*
X235310Y163374D01*
X235353Y163476D01*
X235363Y163539D01*
X235383Y163601D01*
X235392Y163711D01*
X235410Y163819D01*
X235406Y163884D01*
X235411Y163948D01*
X235395Y164057D01*
X235388Y164167D01*
X235369Y164229D01*
X235359Y164293D01*
X235319Y164395D01*
X235287Y164501D01*
X235254Y164557D01*
X235231Y164617D01*
X235168Y164707D01*
X235113Y164803D01*
X235068Y164850D01*
X235032Y164903D01*
X234950Y164977D01*
X234875Y165057D01*
X234821Y165093D01*
X234773Y165136D01*
X234676Y165190D01*
X234585Y165251D01*
X234524Y165274D01*
X234468Y165305D01*
X234362Y165335D01*
X234259Y165374D01*
X234195Y165382D01*
X234132Y165400D01*
X233948Y165414D01*
X233913Y165419D01*
X233903Y165418D01*
X233889Y165419D01*
X212771Y165419D01*
X212735Y165415D01*
X212671Y165416D01*
X210218Y165255D01*
X210191Y165250D01*
X210164Y165251D01*
X209923Y165207D01*
X205184Y163937D01*
X205112Y163908D01*
X205037Y163889D01*
X204904Y163826D01*
X204860Y163808D01*
X204844Y163797D01*
X204816Y163784D01*
X200567Y161331D01*
X200545Y161315D01*
X200521Y161303D01*
X200324Y161157D01*
X198476Y159536D01*
X198475Y159535D01*
X198473Y159534D01*
X198449Y159507D01*
X198403Y159468D01*
X197489Y158554D01*
X188671Y149736D01*
X187743Y148807D01*
X185251Y146316D01*
X179149Y142793D01*
X172343Y140969D01*
X125989Y140969D01*
X124122Y141743D01*
X122693Y143172D01*
X121919Y145039D01*
X121919Y156944D01*
X121916Y156970D01*
X121918Y156996D01*
X121896Y157143D01*
X121879Y157290D01*
X121871Y157315D01*
X121867Y157341D01*
X121812Y157479D01*
X121762Y157618D01*
X121748Y157640D01*
X121738Y157665D01*
X121653Y157786D01*
X121573Y157911D01*
X121554Y157929D01*
X121539Y157951D01*
X121429Y158050D01*
X121322Y158153D01*
X121300Y158167D01*
X121280Y158184D01*
X121150Y158256D01*
X121023Y158332D01*
X120998Y158340D01*
X120975Y158353D01*
X120832Y158393D01*
X120691Y158438D01*
X120686Y158439D01*
X119577Y159548D01*
X119557Y159564D01*
X119540Y159584D01*
X119420Y159673D01*
X119304Y159765D01*
X119280Y159776D01*
X119259Y159792D01*
X119123Y159850D01*
X118989Y159914D01*
X118963Y159919D01*
X118939Y159930D01*
X118793Y159956D01*
X118648Y159987D01*
X118622Y159987D01*
X118596Y159991D01*
X118448Y159984D01*
X118300Y159981D01*
X118274Y159975D01*
X118248Y159973D01*
X118106Y159932D01*
X117962Y159896D01*
X117939Y159884D01*
X117913Y159877D01*
X117784Y159804D01*
X117652Y159736D01*
X117632Y159719D01*
X117609Y159707D01*
X117423Y159548D01*
X116342Y158467D01*
X103658Y158467D01*
X102467Y159658D01*
X102467Y163354D01*
X102461Y163404D01*
X102464Y163455D01*
X102442Y163577D01*
X102427Y163700D01*
X102410Y163748D01*
X102401Y163798D01*
X102352Y163912D01*
X102310Y164028D01*
X102282Y164071D01*
X102262Y164118D01*
X102188Y164217D01*
X102121Y164321D01*
X102084Y164356D01*
X102054Y164397D01*
X101959Y164477D01*
X101870Y164563D01*
X101826Y164589D01*
X101787Y164622D01*
X101677Y164678D01*
X101571Y164742D01*
X101523Y164757D01*
X101477Y164781D01*
X101357Y164810D01*
X101239Y164848D01*
X101188Y164852D01*
X101139Y164865D01*
X101015Y164866D01*
X100892Y164876D01*
X100841Y164869D01*
X100790Y164869D01*
X100550Y164825D01*
X100547Y164824D01*
X97234Y163937D01*
X97162Y163908D01*
X97087Y163889D01*
X96954Y163826D01*
X96910Y163808D01*
X96894Y163797D01*
X96866Y163784D01*
X92617Y161331D01*
X92595Y161315D01*
X92571Y161303D01*
X92374Y161157D01*
X90526Y159536D01*
X90525Y159535D01*
X90523Y159534D01*
X90499Y159507D01*
X90453Y159468D01*
X89553Y158568D01*
X85212Y154226D01*
X84283Y153297D01*
X81412Y150427D01*
X73910Y147319D01*
X23986Y147319D01*
X23910Y147311D01*
X23833Y147312D01*
X23737Y147291D01*
X23640Y147279D01*
X23568Y147254D01*
X23493Y147237D01*
X23404Y147195D01*
X23312Y147162D01*
X23247Y147120D01*
X23178Y147088D01*
X23101Y147026D01*
X23019Y146973D01*
X22966Y146918D01*
X22906Y146870D01*
X22845Y146793D01*
X22777Y146722D01*
X22737Y146657D01*
X22690Y146597D01*
X22622Y146464D01*
X22598Y146423D01*
X22592Y146405D01*
X22579Y146379D01*
X22390Y145925D01*
X19175Y142710D01*
X15307Y141107D01*
X15219Y141058D01*
X15127Y141018D01*
X15067Y140974D01*
X15002Y140938D01*
X14928Y140871D01*
X14847Y140811D01*
X14799Y140754D01*
X14744Y140704D01*
X14687Y140621D01*
X14622Y140545D01*
X14588Y140478D01*
X14546Y140417D01*
X14509Y140324D01*
X14463Y140234D01*
X14445Y140162D01*
X14418Y140093D01*
X14404Y139994D01*
X14379Y139896D01*
X14378Y139822D01*
X14367Y139748D01*
X14376Y139648D01*
X14374Y139548D01*
X14390Y139475D01*
X14396Y139401D01*
X14427Y139305D01*
X14449Y139207D01*
X14480Y139140D01*
X14503Y139069D01*
X14555Y138983D01*
X14598Y138892D01*
X14645Y138834D01*
X14683Y138771D01*
X14753Y138699D01*
X14816Y138620D01*
X14874Y138574D01*
X14926Y138521D01*
X15010Y138466D01*
X15089Y138404D01*
X15179Y138358D01*
X15219Y138332D01*
X15253Y138320D01*
X15307Y138293D01*
X19175Y136690D01*
X22390Y133475D01*
X22579Y133021D01*
X22616Y132954D01*
X22644Y132883D01*
X22700Y132802D01*
X22748Y132716D01*
X22799Y132660D01*
X22843Y132597D01*
X22916Y132531D01*
X22982Y132458D01*
X23045Y132415D01*
X23102Y132364D01*
X23188Y132316D01*
X23269Y132260D01*
X23340Y132232D01*
X23407Y132195D01*
X23501Y132168D01*
X23593Y132132D01*
X23668Y132121D01*
X23742Y132100D01*
X23891Y132088D01*
X23938Y132081D01*
X23957Y132083D01*
X23986Y132081D01*
X52077Y132081D01*
X52079Y132081D01*
X52081Y132081D01*
X52258Y132102D01*
X52424Y132121D01*
X52425Y132121D01*
X52428Y132122D01*
X52660Y132197D01*
X54680Y133033D01*
X57080Y133033D01*
X59298Y132115D01*
X60995Y130418D01*
X61913Y128200D01*
X61913Y125800D01*
X60995Y123582D01*
X59298Y121885D01*
X57080Y120967D01*
X54680Y120967D01*
X52660Y121803D01*
X52658Y121804D01*
X52657Y121805D01*
X52495Y121851D01*
X52325Y121899D01*
X52323Y121899D01*
X52321Y121900D01*
X52077Y121919D01*
X23986Y121919D01*
X23910Y121911D01*
X23833Y121912D01*
X23737Y121891D01*
X23640Y121879D01*
X23568Y121854D01*
X23493Y121837D01*
X23404Y121795D01*
X23312Y121762D01*
X23247Y121720D01*
X23178Y121688D01*
X23101Y121626D01*
X23019Y121573D01*
X22966Y121518D01*
X22906Y121470D01*
X22845Y121393D01*
X22777Y121322D01*
X22737Y121257D01*
X22690Y121197D01*
X22622Y121064D01*
X22598Y121023D01*
X22592Y121005D01*
X22579Y120979D01*
X22390Y120525D01*
X19175Y117310D01*
X15307Y115707D01*
X15219Y115658D01*
X15127Y115618D01*
X15067Y115574D01*
X15002Y115538D01*
X14928Y115471D01*
X14847Y115411D01*
X14799Y115354D01*
X14744Y115304D01*
X14687Y115221D01*
X14622Y115145D01*
X14588Y115078D01*
X14546Y115017D01*
X14509Y114924D01*
X14463Y114834D01*
X14445Y114762D01*
X14418Y114693D01*
X14404Y114594D01*
X14379Y114496D01*
X14378Y114422D01*
X14367Y114348D01*
X14376Y114248D01*
X14374Y114148D01*
X14390Y114075D01*
X14396Y114001D01*
X14427Y113905D01*
X14449Y113807D01*
X14480Y113740D01*
X14503Y113669D01*
X14555Y113583D01*
X14598Y113492D01*
X14645Y113434D01*
X14683Y113371D01*
X14753Y113299D01*
X14816Y113220D01*
X14874Y113174D01*
X14926Y113121D01*
X15010Y113066D01*
X15089Y113004D01*
X15179Y112958D01*
X15219Y112932D01*
X15253Y112920D01*
X15307Y112893D01*
X19175Y111290D01*
X22390Y108075D01*
X22579Y107621D01*
X22616Y107554D01*
X22644Y107483D01*
X22700Y107402D01*
X22748Y107316D01*
X22799Y107260D01*
X22843Y107197D01*
X22916Y107131D01*
X22982Y107058D01*
X23045Y107015D01*
X23102Y106964D01*
X23188Y106916D01*
X23269Y106860D01*
X23340Y106832D01*
X23407Y106795D01*
X23501Y106768D01*
X23593Y106732D01*
X23668Y106721D01*
X23742Y106700D01*
X23891Y106688D01*
X23938Y106681D01*
X23957Y106683D01*
X23986Y106681D01*
X66949Y106681D01*
X66985Y106685D01*
X67049Y106684D01*
X69502Y106845D01*
X69529Y106850D01*
X69556Y106849D01*
X69797Y106893D01*
X74536Y108163D01*
X74608Y108192D01*
X74683Y108211D01*
X74816Y108274D01*
X74860Y108292D01*
X74876Y108303D01*
X74904Y108316D01*
X79153Y110769D01*
X79175Y110785D01*
X79199Y110797D01*
X79396Y110943D01*
X81244Y112564D01*
X81269Y112591D01*
X81317Y112632D01*
X82110Y113425D01*
X90955Y122271D01*
X90956Y122271D01*
X91838Y123153D01*
X94675Y125991D01*
X101626Y130003D01*
X109378Y132081D01*
X109575Y132081D01*
X109701Y132095D01*
X109827Y132102D01*
X109873Y132115D01*
X109921Y132121D01*
X110040Y132163D01*
X110162Y132198D01*
X110204Y132222D01*
X110249Y132238D01*
X110356Y132307D01*
X110466Y132368D01*
X110512Y132408D01*
X110542Y132427D01*
X110576Y132462D01*
X110652Y132527D01*
X112158Y134033D01*
X124842Y134033D01*
X125923Y132952D01*
X125943Y132936D01*
X125960Y132916D01*
X126080Y132827D01*
X126196Y132735D01*
X126220Y132724D01*
X126241Y132708D01*
X126377Y132650D01*
X126511Y132586D01*
X126537Y132581D01*
X126561Y132570D01*
X126707Y132544D01*
X126852Y132513D01*
X126878Y132513D01*
X126904Y132509D01*
X127052Y132516D01*
X127200Y132519D01*
X127226Y132525D01*
X127252Y132527D01*
X127394Y132568D01*
X127538Y132604D01*
X127561Y132616D01*
X127587Y132623D01*
X127716Y132696D01*
X127848Y132764D01*
X127868Y132781D01*
X127891Y132793D01*
X128077Y132952D01*
X129158Y134033D01*
X141842Y134033D01*
X143348Y132527D01*
X143447Y132448D01*
X143541Y132364D01*
X143583Y132340D01*
X143621Y132310D01*
X143735Y132256D01*
X143846Y132195D01*
X143892Y132182D01*
X143936Y132161D01*
X144059Y132135D01*
X144181Y132100D01*
X144242Y132095D01*
X144277Y132088D01*
X144325Y132089D01*
X144425Y132081D01*
X163672Y132081D01*
X171424Y130003D01*
X178375Y125991D01*
X181212Y123153D01*
X181963Y122402D01*
X209945Y94420D01*
X210783Y93582D01*
X210812Y93559D01*
X210856Y93514D01*
X212704Y91893D01*
X212727Y91877D01*
X212746Y91858D01*
X212947Y91719D01*
X217196Y89266D01*
X217267Y89235D01*
X217333Y89195D01*
X217473Y89146D01*
X217516Y89127D01*
X217536Y89124D01*
X217564Y89113D01*
X222303Y87843D01*
X222330Y87839D01*
X222356Y87830D01*
X222598Y87795D01*
X225051Y87634D01*
X225088Y87636D01*
X225151Y87631D01*
X236309Y87631D01*
X236373Y87638D01*
G37*
G36*
X279075Y87635D02*
X279075Y87635D01*
X279139Y87634D01*
X281592Y87795D01*
X281619Y87800D01*
X281646Y87799D01*
X281887Y87843D01*
X286626Y89113D01*
X286698Y89142D01*
X286773Y89161D01*
X286906Y89224D01*
X286950Y89242D01*
X286966Y89253D01*
X286994Y89266D01*
X291243Y91719D01*
X291265Y91735D01*
X291289Y91747D01*
X291486Y91893D01*
X293334Y93514D01*
X293359Y93541D01*
X293407Y93582D01*
X294336Y94511D01*
X322049Y122224D01*
X322978Y123153D01*
X325815Y125991D01*
X332766Y130003D01*
X340518Y132081D01*
X363575Y132081D01*
X363701Y132095D01*
X363827Y132102D01*
X363873Y132115D01*
X363921Y132121D01*
X364040Y132163D01*
X364162Y132198D01*
X364204Y132222D01*
X364249Y132238D01*
X364356Y132307D01*
X364466Y132368D01*
X364512Y132408D01*
X364542Y132427D01*
X364576Y132462D01*
X364652Y132527D01*
X366158Y134033D01*
X378842Y134033D01*
X379923Y132952D01*
X379943Y132936D01*
X379960Y132916D01*
X380080Y132827D01*
X380196Y132735D01*
X380220Y132724D01*
X380241Y132708D01*
X380377Y132650D01*
X380511Y132586D01*
X380537Y132581D01*
X380561Y132570D01*
X380707Y132544D01*
X380852Y132513D01*
X380878Y132513D01*
X380904Y132509D01*
X381052Y132516D01*
X381200Y132519D01*
X381226Y132525D01*
X381252Y132527D01*
X381394Y132568D01*
X381538Y132604D01*
X381561Y132616D01*
X381587Y132623D01*
X381716Y132696D01*
X381848Y132764D01*
X381868Y132781D01*
X381891Y132793D01*
X382077Y132952D01*
X383158Y134033D01*
X395842Y134033D01*
X397348Y132527D01*
X397447Y132448D01*
X397541Y132364D01*
X397583Y132340D01*
X397621Y132310D01*
X397735Y132256D01*
X397846Y132195D01*
X397892Y132182D01*
X397936Y132161D01*
X398059Y132135D01*
X398181Y132100D01*
X398242Y132095D01*
X398277Y132088D01*
X398325Y132089D01*
X398425Y132081D01*
X430372Y132081D01*
X438124Y130003D01*
X445075Y125991D01*
X447912Y123153D01*
X476645Y94420D01*
X477483Y93582D01*
X477512Y93559D01*
X477556Y93514D01*
X479404Y91893D01*
X479427Y91877D01*
X479446Y91858D01*
X479647Y91719D01*
X483896Y89266D01*
X483967Y89235D01*
X484033Y89195D01*
X484173Y89146D01*
X484216Y89127D01*
X484236Y89124D01*
X484264Y89113D01*
X489003Y87843D01*
X489030Y87839D01*
X489056Y87830D01*
X489298Y87795D01*
X489900Y87755D01*
X490014Y87761D01*
X490129Y87757D01*
X490188Y87769D01*
X490249Y87772D01*
X490358Y87804D01*
X490470Y87826D01*
X490525Y87852D01*
X490584Y87868D01*
X490684Y87924D01*
X490787Y87971D01*
X490835Y88008D01*
X490888Y88038D01*
X490973Y88114D01*
X491063Y88184D01*
X491101Y88231D01*
X491146Y88272D01*
X491211Y88366D01*
X491283Y88455D01*
X491310Y88509D01*
X491344Y88559D01*
X491386Y88665D01*
X491436Y88768D01*
X491450Y88827D01*
X491472Y88883D01*
X491489Y88996D01*
X491514Y89107D01*
X491514Y89168D01*
X491523Y89228D01*
X491513Y89342D01*
X491513Y89456D01*
X491499Y89515D01*
X491494Y89575D01*
X491458Y89684D01*
X491432Y89795D01*
X491405Y89849D01*
X491386Y89907D01*
X491327Y90005D01*
X491276Y90107D01*
X491238Y90153D01*
X491207Y90205D01*
X491127Y90287D01*
X491054Y90375D01*
X491006Y90412D01*
X490964Y90455D01*
X490867Y90517D01*
X490776Y90586D01*
X490706Y90620D01*
X490670Y90643D01*
X490629Y90658D01*
X490557Y90693D01*
X487688Y91819D01*
X478221Y99369D01*
X471399Y109374D01*
X467830Y120945D01*
X467830Y133055D01*
X471399Y144626D01*
X478221Y154631D01*
X487688Y162181D01*
X488445Y162478D01*
X488502Y162508D01*
X488563Y162530D01*
X488656Y162590D01*
X488753Y162642D01*
X488802Y162684D01*
X488856Y162719D01*
X488932Y162798D01*
X489015Y162871D01*
X489053Y162923D01*
X489098Y162970D01*
X489155Y163064D01*
X489219Y163154D01*
X489244Y163214D01*
X489277Y163269D01*
X489310Y163374D01*
X489353Y163476D01*
X489363Y163539D01*
X489383Y163601D01*
X489392Y163711D01*
X489410Y163819D01*
X489406Y163884D01*
X489411Y163948D01*
X489395Y164057D01*
X489388Y164167D01*
X489369Y164229D01*
X489359Y164293D01*
X489319Y164395D01*
X489287Y164501D01*
X489254Y164557D01*
X489231Y164617D01*
X489168Y164707D01*
X489113Y164803D01*
X489069Y164850D01*
X489032Y164903D01*
X488950Y164977D01*
X488875Y165057D01*
X488821Y165093D01*
X488773Y165136D01*
X488676Y165190D01*
X488585Y165251D01*
X488524Y165274D01*
X488468Y165305D01*
X488362Y165335D01*
X488259Y165374D01*
X488195Y165382D01*
X488132Y165400D01*
X487948Y165414D01*
X487913Y165419D01*
X487903Y165418D01*
X487889Y165419D01*
X485821Y165419D01*
X485785Y165415D01*
X485721Y165416D01*
X483268Y165255D01*
X483241Y165250D01*
X483214Y165251D01*
X482973Y165207D01*
X478234Y163937D01*
X478162Y163908D01*
X478087Y163889D01*
X477954Y163826D01*
X477910Y163808D01*
X477894Y163797D01*
X477866Y163784D01*
X473617Y161331D01*
X473595Y161315D01*
X473571Y161303D01*
X473374Y161157D01*
X471526Y159536D01*
X471501Y159509D01*
X471453Y159468D01*
X470540Y158555D01*
X461722Y149736D01*
X461721Y149736D01*
X460793Y148807D01*
X460792Y148807D01*
X458301Y146316D01*
X452199Y142793D01*
X445393Y140969D01*
X379989Y140969D01*
X378122Y141743D01*
X376693Y143172D01*
X375919Y145039D01*
X375919Y156944D01*
X375916Y156970D01*
X375918Y156996D01*
X375896Y157143D01*
X375879Y157290D01*
X375871Y157315D01*
X375867Y157341D01*
X375812Y157479D01*
X375762Y157618D01*
X375748Y157640D01*
X375738Y157665D01*
X375653Y157786D01*
X375573Y157911D01*
X375554Y157929D01*
X375539Y157951D01*
X375429Y158050D01*
X375322Y158153D01*
X375300Y158167D01*
X375280Y158184D01*
X375150Y158256D01*
X375023Y158332D01*
X374998Y158340D01*
X374975Y158353D01*
X374832Y158393D01*
X374691Y158438D01*
X374686Y158439D01*
X373577Y159548D01*
X373557Y159564D01*
X373540Y159584D01*
X373420Y159673D01*
X373304Y159765D01*
X373280Y159776D01*
X373259Y159792D01*
X373123Y159850D01*
X372989Y159914D01*
X372963Y159919D01*
X372939Y159930D01*
X372793Y159956D01*
X372648Y159987D01*
X372622Y159987D01*
X372596Y159991D01*
X372448Y159984D01*
X372300Y159981D01*
X372274Y159975D01*
X372248Y159973D01*
X372106Y159932D01*
X371962Y159896D01*
X371939Y159884D01*
X371913Y159877D01*
X371784Y159804D01*
X371652Y159736D01*
X371632Y159719D01*
X371609Y159707D01*
X371423Y159548D01*
X370342Y158467D01*
X357658Y158467D01*
X356467Y159658D01*
X356467Y163896D01*
X356464Y163922D01*
X356466Y163948D01*
X356444Y164095D01*
X356427Y164242D01*
X356419Y164267D01*
X356415Y164293D01*
X356360Y164431D01*
X356310Y164570D01*
X356296Y164592D01*
X356286Y164617D01*
X356201Y164738D01*
X356121Y164863D01*
X356102Y164881D01*
X356087Y164903D01*
X355977Y165002D01*
X355870Y165105D01*
X355848Y165119D01*
X355828Y165136D01*
X355698Y165208D01*
X355571Y165284D01*
X355546Y165292D01*
X355523Y165305D01*
X355380Y165345D01*
X355239Y165390D01*
X355213Y165392D01*
X355188Y165400D01*
X354944Y165419D01*
X273480Y165419D01*
X273356Y165405D01*
X273231Y165399D01*
X273183Y165385D01*
X273134Y165379D01*
X273016Y165337D01*
X272896Y165303D01*
X272853Y165279D01*
X272806Y165262D01*
X272701Y165194D01*
X272592Y165133D01*
X272555Y165100D01*
X272513Y165073D01*
X272426Y164983D01*
X272334Y164899D01*
X272306Y164858D01*
X272271Y164822D01*
X272207Y164715D01*
X272136Y164612D01*
X272118Y164566D01*
X272092Y164523D01*
X272054Y164404D01*
X272008Y164288D01*
X272001Y164239D01*
X271986Y164191D01*
X271976Y164067D01*
X271958Y163943D01*
X271962Y163893D01*
X271958Y163844D01*
X271976Y163720D01*
X271987Y163596D01*
X272002Y163548D01*
X272010Y163499D01*
X272056Y163383D01*
X272094Y163264D01*
X272120Y163221D01*
X272138Y163175D01*
X272210Y163073D01*
X272274Y162966D01*
X272309Y162930D01*
X272337Y162889D01*
X272430Y162805D01*
X272517Y162716D01*
X272569Y162680D01*
X272596Y162656D01*
X272638Y162633D01*
X272719Y162577D01*
X279328Y158761D01*
X287565Y149884D01*
X292819Y138974D01*
X294624Y127000D01*
X292819Y115026D01*
X287565Y104116D01*
X279328Y95239D01*
X271073Y90473D01*
X270973Y90399D01*
X270868Y90331D01*
X270833Y90295D01*
X270793Y90266D01*
X270713Y90170D01*
X270626Y90080D01*
X270600Y90038D01*
X270568Y90000D01*
X270511Y89888D01*
X270447Y89781D01*
X270432Y89734D01*
X270409Y89690D01*
X270379Y89568D01*
X270340Y89449D01*
X270337Y89400D01*
X270324Y89351D01*
X270323Y89226D01*
X270313Y89102D01*
X270320Y89053D01*
X270319Y89003D01*
X270346Y88881D01*
X270364Y88757D01*
X270383Y88711D01*
X270393Y88662D01*
X270447Y88550D01*
X270493Y88433D01*
X270521Y88392D01*
X270543Y88348D01*
X270620Y88250D01*
X270692Y88147D01*
X270729Y88114D01*
X270760Y88075D01*
X270858Y87997D01*
X270951Y87914D01*
X270994Y87890D01*
X271033Y87859D01*
X271146Y87806D01*
X271256Y87745D01*
X271303Y87732D01*
X271348Y87710D01*
X271471Y87684D01*
X271591Y87650D01*
X271654Y87645D01*
X271689Y87638D01*
X271737Y87639D01*
X271835Y87631D01*
X279039Y87631D01*
X279075Y87635D01*
G37*
%LPC*%
G36*
X15239Y180339D02*
X15239Y180339D01*
X15239Y189485D01*
X15496Y189445D01*
X17283Y188864D01*
X18957Y188011D01*
X20478Y186906D01*
X21806Y185578D01*
X22911Y184057D01*
X23764Y182383D01*
X24345Y180596D01*
X24385Y180339D01*
X15239Y180339D01*
G37*
%LPD*%
%LPC*%
G36*
X737615Y180339D02*
X737615Y180339D01*
X737655Y180596D01*
X738236Y182383D01*
X739089Y184057D01*
X740194Y185578D01*
X741522Y186906D01*
X743043Y188011D01*
X744717Y188864D01*
X746504Y189445D01*
X746761Y189485D01*
X746761Y180339D01*
X737615Y180339D01*
G37*
%LPD*%
%LPC*%
G36*
X101959Y213249D02*
X101959Y213249D01*
X101959Y220835D01*
X102132Y221481D01*
X102467Y222060D01*
X102940Y222533D01*
X103519Y222868D01*
X104165Y223041D01*
X107251Y223041D01*
X107251Y213249D01*
X101959Y213249D01*
G37*
%LPD*%
%LPC*%
G36*
X609959Y213249D02*
X609959Y213249D01*
X609959Y220835D01*
X610132Y221481D01*
X610467Y222060D01*
X610940Y222533D01*
X611519Y222868D01*
X612165Y223041D01*
X615251Y223041D01*
X615251Y213249D01*
X609959Y213249D01*
G37*
%LPD*%
%LPC*%
G36*
X355959Y213249D02*
X355959Y213249D01*
X355959Y220835D01*
X356132Y221481D01*
X356467Y222060D01*
X356940Y222533D01*
X357519Y222868D01*
X358165Y223041D01*
X361251Y223041D01*
X361251Y213249D01*
X355959Y213249D01*
G37*
%LPD*%
%LPC*%
G36*
X104165Y197959D02*
X104165Y197959D01*
X103519Y198132D01*
X102940Y198467D01*
X102467Y198940D01*
X102132Y199519D01*
X101959Y200165D01*
X101959Y207751D01*
X107251Y207751D01*
X107251Y197959D01*
X104165Y197959D01*
G37*
%LPD*%
%LPC*%
G36*
X358165Y197959D02*
X358165Y197959D01*
X357519Y198132D01*
X356940Y198467D01*
X356467Y198940D01*
X356132Y199519D01*
X355959Y200165D01*
X355959Y207751D01*
X361251Y207751D01*
X361251Y197959D01*
X358165Y197959D01*
G37*
%LPD*%
%LPC*%
G36*
X612165Y197959D02*
X612165Y197959D01*
X611519Y198132D01*
X610940Y198467D01*
X610467Y198940D01*
X610132Y199519D01*
X609959Y200165D01*
X609959Y207751D01*
X615251Y207751D01*
X615251Y197959D01*
X612165Y197959D01*
G37*
%LPD*%
%LPC*%
G36*
X184109Y198089D02*
X184109Y198089D01*
X184109Y203631D01*
X189151Y203631D01*
X189151Y200295D01*
X188978Y199649D01*
X188643Y199070D01*
X188170Y198597D01*
X187591Y198262D01*
X186945Y198089D01*
X184109Y198089D01*
G37*
%LPD*%
%LPC*%
G36*
X333969Y198089D02*
X333969Y198089D01*
X333969Y203631D01*
X339011Y203631D01*
X339011Y200295D01*
X338838Y199649D01*
X338503Y199070D01*
X338030Y198597D01*
X337451Y198262D01*
X336805Y198089D01*
X333969Y198089D01*
G37*
%LPD*%
%LPC*%
G36*
X591779Y198089D02*
X591779Y198089D01*
X591779Y203631D01*
X596821Y203631D01*
X596821Y200295D01*
X596648Y199649D01*
X596313Y199070D01*
X595840Y198597D01*
X595261Y198262D01*
X594615Y198089D01*
X591779Y198089D01*
G37*
%LPD*%
%LPC*%
G36*
X176275Y198089D02*
X176275Y198089D01*
X175629Y198262D01*
X175050Y198597D01*
X174577Y199070D01*
X174242Y199649D01*
X174069Y200295D01*
X174069Y203631D01*
X179111Y203631D01*
X179111Y198089D01*
X176275Y198089D01*
G37*
%LPD*%
%LPC*%
G36*
X326135Y198089D02*
X326135Y198089D01*
X325489Y198262D01*
X324910Y198597D01*
X324437Y199070D01*
X324102Y199649D01*
X323929Y200295D01*
X323929Y203631D01*
X328971Y203631D01*
X328971Y198089D01*
X326135Y198089D01*
G37*
%LPD*%
%LPC*%
G36*
X583945Y198089D02*
X583945Y198089D01*
X583299Y198262D01*
X582720Y198597D01*
X582247Y199070D01*
X581912Y199649D01*
X581739Y200295D01*
X581739Y203631D01*
X586781Y203631D01*
X586781Y198089D01*
X583945Y198089D01*
G37*
%LPD*%
D10*
X652000Y210500D03*
X635000Y210500D03*
X618000Y210500D03*
X618000Y170500D03*
X635000Y170500D03*
X652000Y170500D03*
X398000Y210500D03*
X381000Y210500D03*
X364000Y210500D03*
X364000Y170500D03*
X381000Y170500D03*
X398000Y170500D03*
X144000Y210500D03*
X127000Y210500D03*
X110000Y210500D03*
X110000Y170500D03*
X127000Y170500D03*
X144000Y170500D03*
D11*
X635000Y88494D03*
X635000Y38506D03*
X381000Y88494D03*
X381000Y38506D03*
X127000Y88494D03*
X127000Y38506D03*
D12*
X643500Y127000D03*
X626500Y127000D03*
X389500Y127000D03*
X372500Y127000D03*
X135500Y127000D03*
X118500Y127000D03*
D13*
X749300Y177800D03*
X749300Y152400D03*
X749300Y127000D03*
X749300Y101600D03*
X749300Y76200D03*
X12700Y76200D03*
X12700Y101600D03*
X12700Y127000D03*
X12700Y152400D03*
X12700Y177800D03*
X31750Y234950D03*
X57150Y234950D03*
D14*
X181610Y223130D03*
X181610Y206130D03*
X331470Y223130D03*
X331470Y206130D03*
X589280Y223130D03*
X589280Y206130D03*
D15*
X618000Y170500D02*
X485821Y170500D01*
X485198Y170492D01*
X484575Y170469D01*
X483952Y170431D01*
X483331Y170378D01*
X482712Y170309D01*
X482094Y170225D01*
X481479Y170126D01*
X480866Y170012D01*
X480256Y169883D01*
X479649Y169739D01*
X479046Y169580D01*
X478448Y169406D01*
X477853Y169218D01*
X477264Y169015D01*
X476680Y168798D01*
X476101Y168567D01*
X475528Y168321D01*
X474961Y168061D01*
X474401Y167788D01*
X473848Y167501D01*
X473301Y167200D01*
X472763Y166886D01*
X472232Y166559D01*
X471710Y166219D01*
X471195Y165867D01*
X470690Y165501D01*
X470194Y165124D01*
X469707Y164734D01*
X469230Y164333D01*
X468763Y163920D01*
X468307Y163496D01*
X467860Y163061D01*
X467861Y163061D02*
X457200Y152400D01*
X456831Y152039D01*
X456453Y151688D01*
X456067Y151345D01*
X455673Y151012D01*
X455272Y150688D01*
X454862Y150374D01*
X454446Y150070D01*
X454022Y149776D01*
X453591Y149492D01*
X453154Y149218D01*
X452710Y148955D01*
X452260Y148702D01*
X451804Y148460D01*
X451343Y148229D01*
X450876Y148009D01*
X450404Y147800D01*
X449928Y147603D01*
X449446Y147417D01*
X448961Y147242D01*
X448471Y147079D01*
X447978Y146928D01*
X447481Y146789D01*
X446981Y146661D01*
X446478Y146545D01*
X445973Y146442D01*
X445465Y146350D01*
X444955Y146271D01*
X444444Y146203D01*
X443931Y146148D01*
X443417Y146105D01*
X442902Y146075D01*
X442386Y146056D01*
X441870Y146050D01*
X381000Y146050D01*
X381000Y170500D01*
X55880Y127000D02*
X12700Y127000D01*
X127000Y190500D02*
X127000Y210500D01*
X144000Y190500D02*
X144000Y170500D01*
X144000Y190500D02*
X127000Y190500D01*
X127000Y234950D02*
X57150Y234950D01*
X127000Y234950D02*
X127000Y210500D01*
X381000Y210500D02*
X381000Y190500D01*
X398000Y190500D02*
X398000Y170500D01*
X398000Y190500D02*
X381000Y190500D01*
X180420Y234950D02*
X180420Y234980D01*
X180420Y234950D02*
X181610Y234950D01*
X180420Y234950D02*
X127000Y234950D01*
X381000Y234980D02*
X381000Y210500D01*
X331470Y234980D02*
X180420Y234980D01*
X331470Y234980D02*
X381000Y234980D01*
X181610Y234950D02*
X181610Y223130D01*
X381000Y234980D02*
X589280Y234980D01*
X635000Y234980D01*
X635000Y210500D01*
X635000Y190500D01*
X652000Y190500D02*
X652000Y170500D01*
X652000Y190500D02*
X635000Y190500D01*
X652000Y170500D02*
X717550Y170500D01*
D16*
X717550Y170180D03*
D15*
X717550Y170500D01*
X331470Y223130D02*
X331470Y234980D01*
X589280Y234980D02*
X589280Y223130D01*
D16*
X55880Y127000D03*
X628650Y19050D03*
X520700Y54610D03*
X571500Y146050D03*
X273050Y215900D03*
X81280Y184150D03*
X501650Y209550D03*
X195580Y134620D03*
X312420Y146050D03*
D15*
X635000Y152400D02*
X749300Y152400D01*
X635000Y152400D02*
X635000Y170500D01*
X69850Y152400D02*
X12700Y152400D01*
X69850Y152400D02*
X70215Y152404D01*
X70579Y152417D01*
X70944Y152439D01*
X71307Y152469D01*
X71670Y152508D01*
X72032Y152556D01*
X72392Y152612D01*
X72751Y152677D01*
X73109Y152750D01*
X73464Y152832D01*
X73818Y152922D01*
X74169Y153021D01*
X74518Y153128D01*
X74864Y153243D01*
X75207Y153367D01*
X75548Y153498D01*
X75885Y153638D01*
X76218Y153785D01*
X76548Y153941D01*
X76875Y154104D01*
X77197Y154275D01*
X77515Y154454D01*
X77829Y154640D01*
X78138Y154834D01*
X78443Y155034D01*
X78742Y155243D01*
X79037Y155458D01*
X79326Y155680D01*
X79610Y155909D01*
X79889Y156144D01*
X80162Y156387D01*
X80429Y156635D01*
X80690Y156890D01*
X86860Y163061D02*
X87307Y163496D01*
X87763Y163920D01*
X88230Y164333D01*
X88707Y164734D01*
X89194Y165124D01*
X89690Y165501D01*
X90195Y165867D01*
X90710Y166219D01*
X91232Y166559D01*
X91763Y166886D01*
X92301Y167200D01*
X92848Y167501D01*
X93401Y167788D01*
X93961Y168061D01*
X94528Y168321D01*
X95101Y168567D01*
X95680Y168798D01*
X96264Y169015D01*
X96853Y169218D01*
X97448Y169406D01*
X98046Y169580D01*
X98649Y169739D01*
X99256Y169883D01*
X99866Y170012D01*
X100479Y170126D01*
X101094Y170225D01*
X101712Y170309D01*
X102331Y170378D01*
X102952Y170431D01*
X103575Y170469D01*
X104198Y170492D01*
X104821Y170500D01*
X110000Y170500D01*
X86861Y163061D02*
X80690Y156890D01*
X389500Y127000D02*
X426359Y127000D01*
X426982Y126992D01*
X427605Y126969D01*
X428228Y126931D01*
X428849Y126878D01*
X429468Y126809D01*
X430086Y126725D01*
X430701Y126626D01*
X431314Y126512D01*
X431924Y126383D01*
X432531Y126239D01*
X433134Y126080D01*
X433732Y125906D01*
X434327Y125718D01*
X434916Y125515D01*
X435500Y125298D01*
X436079Y125067D01*
X436652Y124821D01*
X437219Y124561D01*
X437779Y124288D01*
X438332Y124001D01*
X438879Y123700D01*
X439417Y123386D01*
X439948Y123059D01*
X440470Y122719D01*
X440985Y122367D01*
X441490Y122001D01*
X441986Y121624D01*
X442473Y121234D01*
X442950Y120833D01*
X443417Y120420D01*
X443873Y119996D01*
X444320Y119561D01*
X473890Y89989D02*
X474337Y89554D01*
X474793Y89130D01*
X475260Y88717D01*
X475737Y88316D01*
X476224Y87926D01*
X476720Y87549D01*
X477225Y87183D01*
X477740Y86831D01*
X478262Y86491D01*
X478793Y86164D01*
X479331Y85850D01*
X479878Y85549D01*
X480431Y85262D01*
X480991Y84989D01*
X481558Y84729D01*
X482131Y84483D01*
X482710Y84252D01*
X483294Y84035D01*
X483883Y83832D01*
X484478Y83644D01*
X485076Y83470D01*
X485679Y83311D01*
X486286Y83167D01*
X486896Y83038D01*
X487509Y82924D01*
X488124Y82825D01*
X488742Y82741D01*
X489361Y82672D01*
X489982Y82619D01*
X490605Y82581D01*
X491228Y82558D01*
X491851Y82550D01*
X473891Y89990D02*
X444320Y119561D01*
X491851Y82550D02*
X522879Y82550D01*
X523483Y82557D01*
X524088Y82579D01*
X524691Y82615D01*
X525293Y82665D01*
X525894Y82730D01*
X526494Y82809D01*
X527091Y82902D01*
X527686Y83009D01*
X528278Y83130D01*
X528867Y83266D01*
X529453Y83415D01*
X530035Y83579D01*
X530613Y83756D01*
X531187Y83947D01*
X531755Y84151D01*
X532319Y84369D01*
X532878Y84601D01*
X533431Y84845D01*
X533977Y85103D01*
X534518Y85374D01*
X535052Y85657D01*
X535579Y85953D01*
X536099Y86261D01*
X536611Y86582D01*
X537116Y86915D01*
X537612Y87260D01*
X538101Y87616D01*
X538580Y87984D01*
X539051Y88364D01*
X539512Y88754D01*
X539965Y89155D01*
X540407Y89567D01*
X540840Y89989D01*
X570410Y119561D02*
X570857Y119996D01*
X571313Y120420D01*
X571780Y120833D01*
X572257Y121234D01*
X572744Y121624D01*
X573240Y122001D01*
X573745Y122367D01*
X574260Y122719D01*
X574782Y123059D01*
X575313Y123386D01*
X575851Y123700D01*
X576398Y124001D01*
X576951Y124288D01*
X577511Y124561D01*
X578078Y124821D01*
X578651Y125067D01*
X579230Y125298D01*
X579814Y125515D01*
X580403Y125718D01*
X580998Y125906D01*
X581596Y126080D01*
X582199Y126239D01*
X582806Y126383D01*
X583416Y126512D01*
X584029Y126626D01*
X584644Y126725D01*
X585262Y126809D01*
X585881Y126878D01*
X586502Y126931D01*
X587125Y126969D01*
X587748Y126992D01*
X588371Y127000D01*
X570411Y119561D02*
X540840Y89990D01*
X588371Y127000D02*
X626500Y127000D01*
X633940Y89554D02*
X635000Y88494D01*
X633939Y89554D02*
X633504Y90001D01*
X633080Y90457D01*
X632667Y90924D01*
X632266Y91401D01*
X631876Y91888D01*
X631499Y92384D01*
X631133Y92889D01*
X630781Y93404D01*
X630441Y93926D01*
X630114Y94457D01*
X629800Y94995D01*
X629499Y95542D01*
X629212Y96095D01*
X628939Y96655D01*
X628679Y97222D01*
X628433Y97795D01*
X628202Y98374D01*
X627985Y98958D01*
X627782Y99547D01*
X627594Y100142D01*
X627420Y100740D01*
X627261Y101343D01*
X627117Y101950D01*
X626988Y102560D01*
X626874Y103173D01*
X626775Y103788D01*
X626691Y104406D01*
X626622Y105025D01*
X626569Y105646D01*
X626531Y106269D01*
X626508Y106892D01*
X626500Y107515D01*
X626500Y127000D01*
X159659Y127000D02*
X135500Y127000D01*
X159659Y127000D02*
X160282Y126992D01*
X160905Y126969D01*
X161528Y126931D01*
X162149Y126878D01*
X162768Y126809D01*
X163386Y126725D01*
X164001Y126626D01*
X164614Y126512D01*
X165224Y126383D01*
X165831Y126239D01*
X166434Y126080D01*
X167032Y125906D01*
X167627Y125718D01*
X168216Y125515D01*
X168800Y125298D01*
X169379Y125067D01*
X169952Y124821D01*
X170519Y124561D01*
X171079Y124288D01*
X171632Y124001D01*
X172179Y123700D01*
X172717Y123386D01*
X173248Y123059D01*
X173770Y122719D01*
X174285Y122367D01*
X174790Y122001D01*
X175286Y121624D01*
X175773Y121234D01*
X176250Y120833D01*
X176717Y120420D01*
X177173Y119996D01*
X177620Y119561D01*
X207190Y89989D02*
X207637Y89554D01*
X208093Y89130D01*
X208560Y88717D01*
X209037Y88316D01*
X209524Y87926D01*
X210020Y87549D01*
X210525Y87183D01*
X211040Y86831D01*
X211562Y86491D01*
X212093Y86164D01*
X212631Y85850D01*
X213178Y85549D01*
X213731Y85262D01*
X214291Y84989D01*
X214858Y84729D01*
X215431Y84483D01*
X216010Y84252D01*
X216594Y84035D01*
X217183Y83832D01*
X217778Y83644D01*
X218376Y83470D01*
X218979Y83311D01*
X219586Y83167D01*
X220196Y83038D01*
X220809Y82924D01*
X221424Y82825D01*
X222042Y82741D01*
X222661Y82672D01*
X223282Y82619D01*
X223905Y82581D01*
X224528Y82558D01*
X225151Y82550D01*
X207191Y89990D02*
X177620Y119561D01*
X225151Y82550D02*
X279039Y82550D01*
X279643Y82557D01*
X280248Y82579D01*
X280851Y82615D01*
X281453Y82665D01*
X282054Y82730D01*
X282654Y82809D01*
X283251Y82902D01*
X283846Y83009D01*
X284438Y83130D01*
X285027Y83266D01*
X285613Y83415D01*
X286195Y83579D01*
X286773Y83756D01*
X287347Y83947D01*
X287915Y84151D01*
X288479Y84369D01*
X289038Y84601D01*
X289591Y84845D01*
X290137Y85103D01*
X290678Y85374D01*
X291212Y85657D01*
X291739Y85953D01*
X292259Y86261D01*
X292771Y86582D01*
X293276Y86915D01*
X293772Y87260D01*
X294261Y87616D01*
X294740Y87984D01*
X295211Y88364D01*
X295672Y88754D01*
X296125Y89155D01*
X296567Y89567D01*
X297000Y89989D01*
X326570Y119561D02*
X327017Y119996D01*
X327473Y120420D01*
X327940Y120833D01*
X328417Y121234D01*
X328904Y121624D01*
X329400Y122001D01*
X329905Y122367D01*
X330420Y122719D01*
X330942Y123059D01*
X331473Y123386D01*
X332011Y123700D01*
X332558Y124001D01*
X333111Y124288D01*
X333671Y124561D01*
X334238Y124821D01*
X334811Y125067D01*
X335390Y125298D01*
X335974Y125515D01*
X336563Y125718D01*
X337158Y125906D01*
X337756Y126080D01*
X338359Y126239D01*
X338966Y126383D01*
X339576Y126512D01*
X340189Y126626D01*
X340804Y126725D01*
X341422Y126809D01*
X342041Y126878D01*
X342662Y126931D01*
X343285Y126969D01*
X343908Y126992D01*
X344531Y127000D01*
X372500Y127000D01*
X326571Y119561D02*
X297000Y89990D01*
X379940Y89554D02*
X381000Y88494D01*
X379939Y89554D02*
X379504Y90001D01*
X379080Y90457D01*
X378667Y90924D01*
X378266Y91401D01*
X377876Y91888D01*
X377499Y92384D01*
X377133Y92889D01*
X376781Y93404D01*
X376441Y93926D01*
X376114Y94457D01*
X375800Y94995D01*
X375499Y95542D01*
X375212Y96095D01*
X374939Y96655D01*
X374679Y97222D01*
X374433Y97795D01*
X374202Y98374D01*
X373985Y98958D01*
X373782Y99547D01*
X373594Y100142D01*
X373420Y100740D01*
X373261Y101343D01*
X373117Y101950D01*
X372988Y102560D01*
X372874Y103173D01*
X372775Y103788D01*
X372691Y104406D01*
X372622Y105025D01*
X372569Y105646D01*
X372531Y106269D01*
X372508Y106892D01*
X372500Y107515D01*
X372500Y127000D01*
X84910Y109039D02*
X84477Y108617D01*
X84035Y108205D01*
X83582Y107804D01*
X83121Y107414D01*
X82650Y107034D01*
X82171Y106666D01*
X81682Y106310D01*
X81186Y105965D01*
X80681Y105632D01*
X80169Y105311D01*
X79649Y105003D01*
X79122Y104707D01*
X78588Y104424D01*
X78047Y104153D01*
X77501Y103895D01*
X76948Y103651D01*
X76389Y103419D01*
X75825Y103201D01*
X75257Y102997D01*
X74683Y102806D01*
X74105Y102629D01*
X73523Y102465D01*
X72937Y102316D01*
X72348Y102180D01*
X71756Y102059D01*
X71161Y101952D01*
X70564Y101859D01*
X69964Y101780D01*
X69363Y101715D01*
X68761Y101665D01*
X68158Y101629D01*
X67553Y101607D01*
X66949Y101600D01*
X95430Y119561D02*
X95877Y119996D01*
X96333Y120420D01*
X96800Y120833D01*
X97277Y121234D01*
X97764Y121624D01*
X98260Y122001D01*
X98765Y122367D01*
X99280Y122719D01*
X99802Y123059D01*
X100333Y123386D01*
X100871Y123700D01*
X101418Y124001D01*
X101971Y124288D01*
X102531Y124561D01*
X103098Y124821D01*
X103671Y125067D01*
X104250Y125298D01*
X104834Y125515D01*
X105423Y125718D01*
X106018Y125906D01*
X106616Y126080D01*
X107219Y126239D01*
X107826Y126383D01*
X108436Y126512D01*
X109049Y126626D01*
X109664Y126725D01*
X110282Y126809D01*
X110901Y126878D01*
X111522Y126931D01*
X112145Y126969D01*
X112768Y126992D01*
X113391Y127000D01*
X118500Y127000D01*
X66949Y101600D02*
X12700Y101600D01*
X84910Y109040D02*
X95431Y119561D01*
X125940Y89554D02*
X127000Y88494D01*
X125939Y89554D02*
X125504Y90001D01*
X125080Y90457D01*
X124667Y90924D01*
X124266Y91401D01*
X123876Y91888D01*
X123499Y92384D01*
X123133Y92889D01*
X122781Y93404D01*
X122441Y93926D01*
X122114Y94457D01*
X121800Y94995D01*
X121499Y95542D01*
X121212Y96095D01*
X120939Y96655D01*
X120679Y97222D01*
X120433Y97795D01*
X120202Y98374D01*
X119985Y98958D01*
X119782Y99547D01*
X119594Y100142D01*
X119420Y100740D01*
X119261Y101343D01*
X119117Y101950D01*
X118988Y102560D01*
X118874Y103173D01*
X118775Y103788D01*
X118691Y104406D01*
X118622Y105025D01*
X118569Y105646D01*
X118531Y106269D01*
X118508Y106892D01*
X118500Y107515D01*
X118500Y127000D01*
X749300Y76200D02*
X749300Y63906D01*
X749293Y63292D01*
X749270Y62679D01*
X749233Y62066D01*
X749181Y61455D01*
X749115Y60844D01*
X749033Y60236D01*
X748937Y59630D01*
X748827Y59026D01*
X748702Y58425D01*
X748562Y57827D01*
X748408Y57233D01*
X748239Y56643D01*
X748057Y56057D01*
X747860Y55476D01*
X747649Y54899D01*
X747425Y54328D01*
X747187Y53762D01*
X746935Y53202D01*
X746669Y52649D01*
X746391Y52102D01*
X746099Y51562D01*
X745794Y51029D01*
X745476Y50504D01*
X745146Y49986D01*
X744804Y49477D01*
X744449Y48976D01*
X744082Y48484D01*
X743704Y48001D01*
X743314Y47527D01*
X742912Y47063D01*
X742500Y46608D01*
X742076Y46164D01*
X741642Y45730D01*
X741198Y45306D01*
X740743Y44894D01*
X740279Y44492D01*
X739805Y44102D01*
X739322Y43724D01*
X738830Y43357D01*
X738329Y43002D01*
X737820Y42660D01*
X737302Y42330D01*
X736777Y42012D01*
X736244Y41707D01*
X735704Y41415D01*
X735157Y41137D01*
X734604Y40871D01*
X734044Y40619D01*
X733478Y40381D01*
X732907Y40157D01*
X732330Y39946D01*
X731749Y39749D01*
X731163Y39567D01*
X730573Y39398D01*
X729979Y39244D01*
X729381Y39104D01*
X728780Y38979D01*
X728176Y38869D01*
X727570Y38773D01*
X726962Y38691D01*
X726351Y38625D01*
X725740Y38573D01*
X725127Y38536D01*
X724514Y38513D01*
X723900Y38506D01*
X635000Y38506D01*
X381000Y38506D01*
X127000Y38506D01*
X38100Y38506D01*
X37486Y38513D01*
X36873Y38536D01*
X36260Y38573D01*
X35649Y38625D01*
X35038Y38691D01*
X34430Y38773D01*
X33824Y38869D01*
X33220Y38979D01*
X32619Y39104D01*
X32021Y39244D01*
X31427Y39398D01*
X30837Y39567D01*
X30251Y39749D01*
X29670Y39946D01*
X29093Y40157D01*
X28522Y40381D01*
X27956Y40619D01*
X27396Y40871D01*
X26843Y41137D01*
X26296Y41415D01*
X25756Y41707D01*
X25223Y42012D01*
X24698Y42330D01*
X24180Y42660D01*
X23671Y43002D01*
X23170Y43357D01*
X22678Y43724D01*
X22195Y44102D01*
X21721Y44492D01*
X21257Y44894D01*
X20802Y45306D01*
X20358Y45730D01*
X19924Y46164D01*
X19500Y46608D01*
X19088Y47063D01*
X18686Y47527D01*
X18296Y48001D01*
X17918Y48484D01*
X17551Y48976D01*
X17196Y49477D01*
X16854Y49986D01*
X16524Y50504D01*
X16206Y51029D01*
X15901Y51562D01*
X15609Y52102D01*
X15331Y52649D01*
X15065Y53202D01*
X14813Y53762D01*
X14575Y54328D01*
X14351Y54899D01*
X14140Y55476D01*
X13943Y56057D01*
X13761Y56643D01*
X13592Y57233D01*
X13438Y57827D01*
X13298Y58425D01*
X13173Y59026D01*
X13063Y59630D01*
X12967Y60236D01*
X12885Y60844D01*
X12819Y61455D01*
X12767Y62066D01*
X12730Y62679D01*
X12707Y63292D01*
X12700Y63906D01*
X12700Y76200D01*
X643500Y127000D02*
X667659Y127000D01*
X668282Y126992D01*
X668905Y126969D01*
X669528Y126931D01*
X670149Y126878D01*
X670768Y126809D01*
X671386Y126725D01*
X672001Y126626D01*
X672614Y126512D01*
X673224Y126383D01*
X673831Y126239D01*
X674434Y126080D01*
X675032Y125906D01*
X675627Y125718D01*
X676216Y125515D01*
X676800Y125298D01*
X677379Y125067D01*
X677952Y124821D01*
X678519Y124561D01*
X679079Y124288D01*
X679632Y124001D01*
X680179Y123700D01*
X680717Y123386D01*
X681248Y123059D01*
X681770Y122719D01*
X682285Y122367D01*
X682790Y122001D01*
X683286Y121624D01*
X683773Y121234D01*
X684250Y120833D01*
X684717Y120420D01*
X685173Y119996D01*
X685620Y119561D01*
X696140Y109039D02*
X696587Y108604D01*
X697043Y108180D01*
X697510Y107767D01*
X697987Y107366D01*
X698474Y106976D01*
X698970Y106599D01*
X699475Y106233D01*
X699990Y105881D01*
X700512Y105541D01*
X701043Y105214D01*
X701581Y104900D01*
X702128Y104599D01*
X702681Y104312D01*
X703241Y104039D01*
X703808Y103779D01*
X704381Y103533D01*
X704960Y103302D01*
X705544Y103085D01*
X706133Y102882D01*
X706728Y102694D01*
X707326Y102520D01*
X707929Y102361D01*
X708536Y102217D01*
X709146Y102088D01*
X709759Y101974D01*
X710374Y101875D01*
X710992Y101791D01*
X711611Y101722D01*
X712232Y101669D01*
X712855Y101631D01*
X713478Y101608D01*
X714101Y101600D01*
X749300Y101600D01*
X696141Y109040D02*
X685620Y119561D01*
X364000Y170500D02*
X212771Y170500D01*
X212148Y170492D01*
X211525Y170469D01*
X210902Y170431D01*
X210281Y170378D01*
X209662Y170309D01*
X209044Y170225D01*
X208429Y170126D01*
X207816Y170012D01*
X207206Y169883D01*
X206599Y169739D01*
X205996Y169580D01*
X205398Y169406D01*
X204803Y169218D01*
X204214Y169015D01*
X203630Y168798D01*
X203051Y168567D01*
X202478Y168321D01*
X201911Y168061D01*
X201351Y167788D01*
X200798Y167501D01*
X200251Y167200D01*
X199713Y166886D01*
X199182Y166559D01*
X198660Y166219D01*
X198145Y165867D01*
X197640Y165501D01*
X197144Y165124D01*
X196657Y164734D01*
X196180Y164333D01*
X195713Y163920D01*
X195257Y163496D01*
X194810Y163061D01*
X194811Y163061D02*
X184150Y152400D01*
X183781Y152039D01*
X183403Y151688D01*
X183017Y151345D01*
X182623Y151012D01*
X182222Y150688D01*
X181812Y150374D01*
X181396Y150070D01*
X180972Y149776D01*
X180541Y149492D01*
X180104Y149218D01*
X179660Y148955D01*
X179210Y148702D01*
X178754Y148460D01*
X178293Y148229D01*
X177826Y148009D01*
X177354Y147800D01*
X176878Y147603D01*
X176396Y147417D01*
X175911Y147242D01*
X175421Y147079D01*
X174928Y146928D01*
X174431Y146789D01*
X173931Y146661D01*
X173428Y146545D01*
X172923Y146442D01*
X172415Y146350D01*
X171905Y146271D01*
X171394Y146203D01*
X170881Y146148D01*
X170367Y146105D01*
X169852Y146075D01*
X169336Y146056D01*
X168820Y146050D01*
X127000Y146050D01*
X127000Y170500D01*
M02*
