G04 EAGLE Gerber RS-274X export*
G75*
%MOMM*%
%FSLAX34Y34*%
%LPD*%
%IN*%
%IPPOS*%
%AMOC8*
5,1,8,0,0,1.08239X$1,22.5*%
G01*
%ADD10C,0.254000*%


D10*
X0Y0D02*
X762000Y0D01*
X762000Y254000D01*
X0Y254000D01*
X0Y0D01*
X492000Y127524D02*
X492069Y128569D01*
X492205Y129608D01*
X492410Y130635D01*
X492681Y131647D01*
X493017Y132639D01*
X493418Y133607D01*
X493882Y134546D01*
X494406Y135454D01*
X494988Y136325D01*
X495625Y137156D01*
X496316Y137943D01*
X497057Y138684D01*
X497844Y139375D01*
X498675Y140013D01*
X499546Y140595D01*
X500454Y141118D01*
X501393Y141582D01*
X502361Y141983D01*
X503353Y142319D01*
X504365Y142590D01*
X505392Y142795D01*
X506431Y142932D01*
X507476Y143000D01*
X508524Y143000D01*
X509569Y142932D01*
X510608Y142795D01*
X511635Y142590D01*
X512647Y142319D01*
X513639Y141983D01*
X514607Y141582D01*
X515546Y141118D01*
X516454Y140595D01*
X517325Y140013D01*
X518156Y139375D01*
X518943Y138684D01*
X519684Y137943D01*
X520375Y137156D01*
X521013Y136325D01*
X521595Y135454D01*
X522118Y134546D01*
X522582Y133607D01*
X522983Y132639D01*
X523319Y131647D01*
X523590Y130635D01*
X523795Y129608D01*
X523932Y128569D01*
X524000Y127524D01*
X524000Y126476D01*
X523932Y125431D01*
X523795Y124392D01*
X523590Y123365D01*
X523319Y122353D01*
X522983Y121361D01*
X522582Y120393D01*
X522118Y119454D01*
X521595Y118546D01*
X521013Y117675D01*
X520375Y116844D01*
X519684Y116057D01*
X518943Y115316D01*
X518156Y114625D01*
X517325Y113988D01*
X516454Y113406D01*
X515546Y112882D01*
X514607Y112418D01*
X513639Y112017D01*
X512647Y111681D01*
X511635Y111410D01*
X510608Y111205D01*
X509569Y111069D01*
X508524Y111000D01*
X507476Y111000D01*
X506431Y111069D01*
X505392Y111205D01*
X504365Y111410D01*
X503353Y111681D01*
X502361Y112017D01*
X501393Y112418D01*
X500454Y112882D01*
X499546Y113406D01*
X498675Y113988D01*
X497844Y114625D01*
X497057Y115316D01*
X496316Y116057D01*
X495625Y116844D01*
X494988Y117675D01*
X494406Y118546D01*
X493882Y119454D01*
X493418Y120393D01*
X493017Y121361D01*
X492681Y122353D01*
X492410Y123365D01*
X492205Y124392D01*
X492069Y125431D01*
X492000Y126476D01*
X492000Y127524D01*
X238000Y127524D02*
X238069Y128569D01*
X238205Y129608D01*
X238410Y130635D01*
X238681Y131647D01*
X239017Y132639D01*
X239418Y133607D01*
X239882Y134546D01*
X240406Y135454D01*
X240988Y136325D01*
X241625Y137156D01*
X242316Y137943D01*
X243057Y138684D01*
X243844Y139375D01*
X244675Y140013D01*
X245546Y140595D01*
X246454Y141118D01*
X247393Y141582D01*
X248361Y141983D01*
X249353Y142319D01*
X250365Y142590D01*
X251392Y142795D01*
X252431Y142932D01*
X253476Y143000D01*
X254524Y143000D01*
X255569Y142932D01*
X256608Y142795D01*
X257635Y142590D01*
X258647Y142319D01*
X259639Y141983D01*
X260607Y141582D01*
X261546Y141118D01*
X262454Y140595D01*
X263325Y140013D01*
X264156Y139375D01*
X264943Y138684D01*
X265684Y137943D01*
X266375Y137156D01*
X267013Y136325D01*
X267595Y135454D01*
X268118Y134546D01*
X268582Y133607D01*
X268983Y132639D01*
X269319Y131647D01*
X269590Y130635D01*
X269795Y129608D01*
X269932Y128569D01*
X270000Y127524D01*
X270000Y126476D01*
X269932Y125431D01*
X269795Y124392D01*
X269590Y123365D01*
X269319Y122353D01*
X268983Y121361D01*
X268582Y120393D01*
X268118Y119454D01*
X267595Y118546D01*
X267013Y117675D01*
X266375Y116844D01*
X265684Y116057D01*
X264943Y115316D01*
X264156Y114625D01*
X263325Y113988D01*
X262454Y113406D01*
X261546Y112882D01*
X260607Y112418D01*
X259639Y112017D01*
X258647Y111681D01*
X257635Y111410D01*
X256608Y111205D01*
X255569Y111069D01*
X254524Y111000D01*
X253476Y111000D01*
X252431Y111069D01*
X251392Y111205D01*
X250365Y111410D01*
X249353Y111681D01*
X248361Y112017D01*
X247393Y112418D01*
X246454Y112882D01*
X245546Y113406D01*
X244675Y113988D01*
X243844Y114625D01*
X243057Y115316D01*
X242316Y116057D01*
X241625Y116844D01*
X240988Y117675D01*
X240406Y118546D01*
X239882Y119454D01*
X239418Y120393D01*
X239017Y121361D01*
X238681Y122353D01*
X238410Y123365D01*
X238205Y124392D01*
X238069Y125431D01*
X238000Y126476D01*
X238000Y127524D01*
M02*
