G04 EAGLE Gerber RS-274X export*
G75*
%MOMM*%
%FSLAX34Y34*%
%LPD*%
%INSoldermask Top*%
%IPPOS*%
%AMOC8*
5,1,8,0,0,1.08239X$1,22.5*%
G01*
%ADD10R,1.303200X2.203200*%
%ADD11C,2.133600*%
%ADD12R,1.303200X1.203200*%
%ADD13C,2.082800*%
%ADD14C,3.403200*%
%ADD15R,1.203200X1.303200*%


D10*
X652000Y210500D03*
X635000Y210500D03*
X618000Y210500D03*
X618000Y170500D03*
X635000Y170500D03*
X652000Y170500D03*
X398000Y210500D03*
X381000Y210500D03*
X364000Y210500D03*
X364000Y170500D03*
X381000Y170500D03*
X398000Y170500D03*
X144000Y210500D03*
X127000Y210500D03*
X110000Y210500D03*
X110000Y170500D03*
X127000Y170500D03*
X144000Y170500D03*
D11*
X635000Y88494D03*
X635000Y38506D03*
X381000Y88494D03*
X381000Y38506D03*
X127000Y88494D03*
X127000Y38506D03*
D12*
X643500Y127000D03*
X626500Y127000D03*
X389500Y127000D03*
X372500Y127000D03*
X135500Y127000D03*
X118500Y127000D03*
D13*
X749300Y177800D03*
X749300Y152400D03*
X749300Y127000D03*
X749300Y101600D03*
X749300Y76200D03*
X12700Y76200D03*
X12700Y101600D03*
X12700Y127000D03*
X12700Y152400D03*
X12700Y177800D03*
D14*
X508000Y127000D03*
X254000Y127000D03*
D13*
X31750Y234950D03*
X57150Y234950D03*
D15*
X181610Y223130D03*
X181610Y206130D03*
X331470Y223130D03*
X331470Y206130D03*
X589280Y223130D03*
X589280Y206130D03*
M02*
