G04 EAGLE Gerber RS-274X export*
G75*
%MOMM*%
%FSLAX34Y34*%
%LPD*%
%INTop Silkscreen*%
%IPPOS*%
%AMOC8*
5,1,8,0,0,1.08239X$1,22.5*%
G01*
%ADD10C,0.152400*%
%ADD11C,0.101600*%
%ADD12C,0.609600*%
%ADD13C,0.076200*%
%ADD14C,0.254000*%
%ADD15C,0.050800*%
%ADD16C,0.127000*%
%ADD17C,0.203200*%


D10*
X-53971Y8382D02*
X-45836Y8382D01*
X-43125Y11094D01*
X-45836Y13805D01*
X-51260Y13805D01*
X-53971Y16517D01*
X-51260Y19229D01*
X-43125Y19229D01*
X-37600Y19229D02*
X-37600Y11094D01*
X-34888Y8382D01*
X-32176Y11094D01*
X-29465Y8382D01*
X-26753Y11094D01*
X-26753Y19229D01*
X-21228Y19229D02*
X-18516Y19229D01*
X-18516Y8382D01*
X-15805Y8382D02*
X-21228Y8382D01*
X-18516Y24652D02*
X-18516Y27364D01*
X-7602Y21940D02*
X-7602Y11094D01*
X-4890Y8382D01*
X-4890Y19229D02*
X-10314Y19229D01*
X3312Y19229D02*
X11447Y19229D01*
X3312Y19229D02*
X601Y16517D01*
X601Y11094D01*
X3312Y8382D01*
X11447Y8382D01*
X16972Y8382D02*
X16972Y24652D01*
X19684Y19229D02*
X16972Y16517D01*
X19684Y19229D02*
X25107Y19229D01*
X27819Y16517D01*
X27819Y8382D01*
X36055Y8382D02*
X41479Y8382D01*
X44190Y11094D01*
X44190Y16517D01*
X41479Y19229D01*
X36055Y19229D01*
X33344Y16517D01*
X33344Y11094D01*
X36055Y8382D01*
X52427Y11094D02*
X52427Y21940D01*
X52427Y11094D02*
X55139Y8382D01*
X55139Y19229D02*
X49715Y19229D01*
X60630Y19229D02*
X60630Y8382D01*
X60630Y13805D02*
X66053Y19229D01*
X68765Y19229D01*
X76984Y8382D02*
X82408Y8382D01*
X85119Y11094D01*
X85119Y16517D01*
X82408Y19229D01*
X76984Y19229D01*
X74273Y16517D01*
X74273Y11094D01*
X76984Y8382D01*
X90644Y8382D02*
X90644Y19229D01*
X98779Y19229D01*
X101491Y16517D01*
X101491Y8382D01*
X107016Y16517D02*
X117862Y16517D01*
X123387Y21940D02*
X126099Y24652D01*
X131522Y24652D01*
X134234Y21940D01*
X134234Y19229D01*
X131522Y16517D01*
X128811Y16517D01*
X131522Y16517D02*
X134234Y13805D01*
X134234Y11094D01*
X131522Y8382D01*
X126099Y8382D01*
X123387Y11094D01*
X139759Y8382D02*
X139759Y24652D01*
X139759Y8382D02*
X147894Y8382D01*
X150606Y11094D01*
X150606Y16517D01*
X147894Y19229D01*
X139759Y19229D01*
X156131Y19229D02*
X156131Y11094D01*
X158842Y8382D01*
X166977Y8382D01*
X166977Y19229D01*
X175214Y21940D02*
X175214Y11094D01*
X177925Y8382D01*
X177925Y19229D02*
X172502Y19229D01*
X186128Y21940D02*
X186128Y11094D01*
X188840Y8382D01*
X188840Y19229D02*
X183416Y19229D01*
X197042Y8382D02*
X202466Y8382D01*
X205177Y11094D01*
X205177Y16517D01*
X202466Y19229D01*
X197042Y19229D01*
X194331Y16517D01*
X194331Y11094D01*
X197042Y8382D01*
X210702Y8382D02*
X210702Y19229D01*
X218837Y19229D01*
X221549Y16517D01*
X221549Y8382D01*
X227074Y8382D02*
X235209Y8382D01*
X237921Y11094D01*
X235209Y13805D01*
X229786Y13805D01*
X227074Y16517D01*
X229786Y19229D01*
X237921Y19229D01*
X243446Y16517D02*
X254292Y16517D01*
X259817Y21940D02*
X262529Y24652D01*
X267952Y24652D01*
X270664Y21940D01*
X270664Y19229D01*
X267952Y16517D01*
X265240Y16517D01*
X267952Y16517D02*
X270664Y13805D01*
X270664Y11094D01*
X267952Y8382D01*
X262529Y8382D01*
X259817Y11094D01*
X276189Y24652D02*
X278900Y24652D01*
X278900Y8382D01*
X276189Y8382D02*
X281612Y8382D01*
X287103Y19229D02*
X289815Y19229D01*
X289815Y8382D01*
X292526Y8382D02*
X287103Y8382D01*
X289815Y24652D02*
X289815Y27364D01*
X303441Y2959D02*
X306152Y2959D01*
X308864Y5670D01*
X308864Y19229D01*
X300729Y19229D01*
X298017Y16517D01*
X298017Y11094D01*
X300729Y8382D01*
X308864Y8382D01*
X314389Y8382D02*
X314389Y24652D01*
X317101Y19229D02*
X314389Y16517D01*
X317101Y19229D02*
X322524Y19229D01*
X325236Y16517D01*
X325236Y8382D01*
X333472Y11094D02*
X333472Y21940D01*
X333472Y11094D02*
X336184Y8382D01*
X336184Y19229D02*
X330761Y19229D01*
X341675Y8382D02*
X349810Y8382D01*
X352522Y11094D01*
X349810Y13805D01*
X344387Y13805D01*
X341675Y16517D01*
X344387Y19229D01*
X352522Y19229D01*
X358046Y16517D02*
X368893Y16517D01*
X374418Y19229D02*
X379841Y8382D01*
X385265Y19229D01*
X390790Y19229D02*
X396213Y24652D01*
X396213Y8382D01*
X390790Y8382D02*
X401636Y8382D01*
D11*
X726923Y209052D02*
X728872Y207103D01*
X726923Y209052D02*
X723025Y209052D01*
X721076Y207103D01*
X721076Y199307D01*
X723025Y197358D01*
X726923Y197358D01*
X728872Y199307D01*
X728872Y203205D01*
X724974Y203205D01*
X732770Y197358D02*
X732770Y209052D01*
X740566Y197358D01*
X740566Y209052D01*
X744464Y209052D02*
X744464Y197358D01*
X750311Y197358D01*
X752260Y199307D01*
X752260Y207103D01*
X750311Y209052D01*
X744464Y209052D01*
X699574Y158252D02*
X699574Y146558D01*
X705421Y146558D01*
X707370Y148507D01*
X707370Y156303D01*
X705421Y158252D01*
X699574Y158252D01*
X711268Y146558D02*
X715166Y146558D01*
X713217Y146558D02*
X713217Y158252D01*
X711268Y158252D02*
X715166Y158252D01*
X719064Y158252D02*
X719064Y146558D01*
X726860Y146558D02*
X719064Y158252D01*
X726860Y158252D02*
X726860Y146558D01*
X680084Y132852D02*
X672288Y132852D01*
X672288Y127005D01*
X676186Y128954D01*
X678135Y128954D01*
X680084Y127005D01*
X680084Y123107D01*
X678135Y121158D01*
X674237Y121158D01*
X672288Y123107D01*
X695676Y125056D02*
X695676Y132852D01*
X695676Y125056D02*
X699574Y121158D01*
X703472Y125056D01*
X703472Y132852D01*
X707370Y132852D02*
X707370Y121158D01*
X713217Y121158D01*
X715166Y123107D01*
X715166Y130903D01*
X713217Y132852D01*
X707370Y132852D01*
X724911Y132852D02*
X726860Y130903D01*
X724911Y132852D02*
X721013Y132852D01*
X719064Y130903D01*
X719064Y123107D01*
X721013Y121158D01*
X724911Y121158D01*
X726860Y123107D01*
X660594Y107452D02*
X660594Y95758D01*
X668390Y95758D01*
X672288Y95758D02*
X672288Y103554D01*
X676186Y107452D01*
X680084Y103554D01*
X680084Y95758D01*
X680084Y101605D02*
X672288Y101605D01*
X683982Y107452D02*
X683982Y95758D01*
X689829Y95758D01*
X691778Y97707D01*
X691778Y105503D01*
X689829Y107452D01*
X683982Y107452D01*
X695676Y107452D02*
X695676Y95758D01*
X701523Y95758D01*
X703472Y97707D01*
X703472Y105503D01*
X701523Y107452D01*
X695676Y107452D01*
X707370Y107452D02*
X715166Y107452D01*
X707370Y107452D02*
X707370Y95758D01*
X715166Y95758D01*
X711268Y101605D02*
X707370Y101605D01*
X719064Y95758D02*
X719064Y107452D01*
X724911Y107452D01*
X726860Y105503D01*
X726860Y101605D01*
X724911Y99656D01*
X719064Y99656D01*
X722962Y99656D02*
X726860Y95758D01*
X666944Y78154D02*
X666944Y70358D01*
X666944Y78154D02*
X670842Y82052D01*
X674740Y78154D01*
X674740Y70358D01*
X674740Y76205D02*
X666944Y76205D01*
X678638Y70358D02*
X678638Y82052D01*
X686434Y70358D01*
X686434Y82052D01*
X690332Y78154D02*
X690332Y70358D01*
X690332Y78154D02*
X694230Y82052D01*
X698128Y78154D01*
X698128Y70358D01*
X698128Y76205D02*
X690332Y76205D01*
X702026Y82052D02*
X702026Y70358D01*
X709822Y70358D01*
X715669Y82052D02*
X719567Y82052D01*
X715669Y82052D02*
X713720Y80103D01*
X713720Y72307D01*
X715669Y70358D01*
X719567Y70358D01*
X721516Y72307D01*
X721516Y80103D01*
X719567Y82052D01*
X731261Y82052D02*
X733210Y80103D01*
X731261Y82052D02*
X727363Y82052D01*
X725414Y80103D01*
X725414Y72307D01*
X727363Y70358D01*
X731261Y70358D01*
X733210Y72307D01*
X733210Y76205D01*
X729312Y76205D01*
X36722Y181703D02*
X34773Y183652D01*
X30875Y183652D01*
X28926Y181703D01*
X28926Y173907D01*
X30875Y171958D01*
X34773Y171958D01*
X36722Y173907D01*
X36722Y177805D01*
X32824Y177805D01*
X40620Y171958D02*
X40620Y183652D01*
X48416Y171958D01*
X48416Y183652D01*
X52314Y183652D02*
X52314Y171958D01*
X58161Y171958D01*
X60110Y173907D01*
X60110Y181703D01*
X58161Y183652D01*
X52314Y183652D01*
X36282Y158252D02*
X36282Y146558D01*
X42129Y146558D01*
X44078Y148507D01*
X44078Y156303D01*
X42129Y158252D01*
X36282Y158252D01*
X49925Y158252D02*
X53823Y158252D01*
X49925Y158252D02*
X47976Y156303D01*
X47976Y148507D01*
X49925Y146558D01*
X53823Y146558D01*
X55772Y148507D01*
X55772Y156303D01*
X53823Y158252D01*
X59670Y158252D02*
X59670Y148507D01*
X61619Y146558D01*
X65517Y146558D01*
X67466Y148507D01*
X67466Y158252D01*
X75262Y158252D02*
X75262Y146558D01*
X71364Y158252D02*
X79160Y158252D01*
X32384Y132852D02*
X24588Y132852D01*
X24588Y127005D01*
X28486Y128954D01*
X30435Y128954D01*
X32384Y127005D01*
X32384Y123107D01*
X30435Y121158D01*
X26537Y121158D01*
X24588Y123107D01*
X47976Y125056D02*
X47976Y132852D01*
X47976Y125056D02*
X51874Y121158D01*
X55772Y125056D01*
X55772Y132852D01*
X59670Y132852D02*
X59670Y121158D01*
X65517Y121158D01*
X67466Y123107D01*
X67466Y130903D01*
X65517Y132852D01*
X59670Y132852D01*
X77211Y132852D02*
X79160Y130903D01*
X77211Y132852D02*
X73313Y132852D01*
X71364Y130903D01*
X71364Y123107D01*
X73313Y121158D01*
X77211Y121158D01*
X79160Y123107D01*
X31944Y107452D02*
X31944Y95758D01*
X39740Y95758D01*
X43638Y95758D02*
X43638Y103554D01*
X47536Y107452D01*
X51434Y103554D01*
X51434Y95758D01*
X51434Y101605D02*
X43638Y101605D01*
X55332Y107452D02*
X55332Y95758D01*
X61179Y95758D01*
X63128Y97707D01*
X63128Y105503D01*
X61179Y107452D01*
X55332Y107452D01*
X67026Y107452D02*
X67026Y95758D01*
X72873Y95758D01*
X74822Y97707D01*
X74822Y105503D01*
X72873Y107452D01*
X67026Y107452D01*
X78720Y107452D02*
X86516Y107452D01*
X78720Y107452D02*
X78720Y95758D01*
X86516Y95758D01*
X82618Y101605D02*
X78720Y101605D01*
X90414Y95758D02*
X90414Y107452D01*
X96261Y107452D01*
X98210Y105503D01*
X98210Y101605D01*
X96261Y99656D01*
X90414Y99656D01*
X94312Y99656D02*
X98210Y95758D01*
X31944Y78154D02*
X31944Y70358D01*
X31944Y78154D02*
X35842Y82052D01*
X39740Y78154D01*
X39740Y70358D01*
X39740Y76205D02*
X31944Y76205D01*
X43638Y70358D02*
X43638Y82052D01*
X51434Y70358D01*
X51434Y82052D01*
X55332Y78154D02*
X55332Y70358D01*
X55332Y78154D02*
X59230Y82052D01*
X63128Y78154D01*
X63128Y70358D01*
X63128Y76205D02*
X55332Y76205D01*
X67026Y82052D02*
X67026Y70358D01*
X74822Y70358D01*
X80669Y82052D02*
X84567Y82052D01*
X80669Y82052D02*
X78720Y80103D01*
X78720Y72307D01*
X80669Y70358D01*
X84567Y70358D01*
X86516Y72307D01*
X86516Y80103D01*
X84567Y82052D01*
X96261Y82052D02*
X98210Y80103D01*
X96261Y82052D02*
X92363Y82052D01*
X90414Y80103D01*
X90414Y72307D01*
X92363Y70358D01*
X96261Y70358D01*
X98210Y72307D01*
X98210Y76205D01*
X94312Y76205D01*
D10*
X336094Y224282D02*
X336094Y235129D01*
X341517Y240552D01*
X346940Y235129D01*
X346940Y224282D01*
X346940Y232417D02*
X336094Y232417D01*
X352465Y224282D02*
X352465Y240552D01*
X360600Y240552D01*
X363312Y237840D01*
X363312Y232417D01*
X360600Y229705D01*
X352465Y229705D01*
X357889Y229705D02*
X363312Y224282D01*
X368837Y224282D02*
X368837Y240552D01*
X368837Y224282D02*
X376972Y224282D01*
X379683Y226994D01*
X379683Y237840D01*
X376972Y240552D01*
X368837Y240552D01*
X385208Y240552D02*
X385208Y226994D01*
X387920Y224282D01*
X393343Y224282D01*
X396055Y226994D01*
X396055Y240552D01*
X401580Y224282D02*
X407003Y224282D01*
X404292Y224282D02*
X404292Y240552D01*
X407003Y240552D02*
X401580Y240552D01*
X412494Y240552D02*
X412494Y224282D01*
X423341Y224282D02*
X412494Y240552D01*
X423341Y240552D02*
X423341Y224282D01*
X431578Y240552D02*
X437001Y240552D01*
X431578Y240552D02*
X428866Y237840D01*
X428866Y226994D01*
X431578Y224282D01*
X437001Y224282D01*
X439713Y226994D01*
X439713Y237840D01*
X437001Y240552D01*
X467032Y240552D02*
X467032Y224282D01*
X461609Y240552D02*
X472456Y240552D01*
X477981Y240552D02*
X477981Y224282D01*
X477981Y232417D02*
X488827Y232417D01*
X488827Y240552D02*
X488827Y224282D01*
X494352Y224282D02*
X494352Y235129D01*
X499775Y240552D01*
X505199Y235129D01*
X505199Y224282D01*
X505199Y232417D02*
X494352Y232417D01*
X516147Y224282D02*
X516147Y240552D01*
X510724Y240552D02*
X521570Y240552D01*
X543467Y240552D02*
X543467Y224282D01*
X548890Y229705D01*
X554313Y224282D01*
X554313Y240552D01*
X559838Y235129D02*
X559838Y224282D01*
X559838Y235129D02*
X565262Y240552D01*
X570685Y235129D01*
X570685Y224282D01*
X570685Y232417D02*
X559838Y232417D01*
X576210Y237840D02*
X576210Y240552D01*
X576210Y237840D02*
X581633Y232417D01*
X587057Y237840D01*
X587057Y240552D01*
X581633Y232417D02*
X581633Y224282D01*
D12*
X679450Y247650D02*
X692150Y234950D01*
X679450Y222250D01*
X692150Y234950D02*
X609600Y234950D01*
D11*
X99556Y232918D02*
X99556Y244612D01*
X95658Y244612D02*
X103454Y244612D01*
X109301Y244612D02*
X113199Y244612D01*
X109301Y244612D02*
X107352Y242663D01*
X107352Y234867D01*
X109301Y232918D01*
X113199Y232918D01*
X115148Y234867D01*
X115148Y242663D01*
X113199Y244612D01*
X119046Y244612D02*
X119046Y232918D01*
X119046Y244612D02*
X124893Y244612D01*
X126842Y242663D01*
X126842Y238765D01*
X124893Y236816D01*
X119046Y236816D01*
X142434Y234867D02*
X144383Y232918D01*
X146332Y232918D01*
X148281Y234867D01*
X148281Y244612D01*
X146332Y244612D02*
X150230Y244612D01*
X154128Y244612D02*
X154128Y234867D01*
X156077Y232918D01*
X159975Y232918D01*
X161924Y234867D01*
X161924Y244612D01*
X165822Y244612D02*
X165822Y232918D01*
X169720Y240714D02*
X165822Y244612D01*
X169720Y240714D02*
X173618Y244612D01*
X173618Y232918D01*
X177516Y232918D02*
X177516Y244612D01*
X183363Y244612D01*
X185312Y242663D01*
X185312Y238765D01*
X183363Y236816D01*
X177516Y236816D01*
X189210Y244612D02*
X197006Y244612D01*
X189210Y244612D02*
X189210Y232918D01*
X197006Y232918D01*
X193108Y238765D02*
X189210Y238765D01*
X200904Y232918D02*
X200904Y244612D01*
X206751Y244612D01*
X208700Y242663D01*
X208700Y238765D01*
X206751Y236816D01*
X200904Y236816D01*
X204802Y236816D02*
X208700Y232918D01*
X288748Y193724D02*
X292646Y197622D01*
X292646Y185928D01*
X288748Y185928D02*
X296544Y185928D01*
X300442Y187877D02*
X300442Y195673D01*
X302391Y197622D01*
X306289Y197622D01*
X308238Y195673D01*
X308238Y187877D01*
X306289Y185928D01*
X302391Y185928D01*
X300442Y187877D01*
X308238Y195673D01*
X323830Y193724D02*
X323830Y187877D01*
X325779Y185928D01*
X331626Y185928D01*
X331626Y193724D01*
X335524Y197622D02*
X335524Y185928D01*
X335524Y197622D02*
X343320Y197622D01*
X339422Y191775D02*
X335524Y191775D01*
X609731Y148004D02*
X613629Y151902D01*
X613629Y140208D01*
X609731Y140208D02*
X617527Y140208D01*
X621425Y142157D02*
X621425Y149953D01*
X623374Y151902D01*
X627272Y151902D01*
X629221Y149953D01*
X629221Y142157D01*
X627272Y140208D01*
X623374Y140208D01*
X621425Y142157D01*
X629221Y149953D01*
X644813Y151902D02*
X644813Y140208D01*
X644813Y144106D02*
X650660Y140208D01*
X644813Y144106D02*
X650660Y148004D01*
D13*
X367705Y113927D02*
X364569Y110792D01*
X367705Y113927D02*
X367705Y104521D01*
X370840Y104521D02*
X364569Y104521D01*
X373925Y106089D02*
X373925Y112359D01*
X375492Y113927D01*
X378628Y113927D01*
X380195Y112359D01*
X380195Y106089D01*
X378628Y104521D01*
X375492Y104521D01*
X373925Y106089D01*
X380195Y112359D01*
X392635Y113927D02*
X392635Y104521D01*
X392635Y107656D02*
X397338Y104521D01*
X392635Y107656D02*
X397338Y110792D01*
X120055Y113927D02*
X116919Y110792D01*
X120055Y113927D02*
X120055Y104521D01*
X123190Y104521D02*
X116919Y104521D01*
X126275Y106089D02*
X126275Y112359D01*
X127842Y113927D01*
X130978Y113927D01*
X132545Y112359D01*
X132545Y106089D01*
X130978Y104521D01*
X127842Y104521D01*
X126275Y106089D01*
X132545Y112359D01*
X144985Y113927D02*
X144985Y104521D01*
X144985Y107656D02*
X149688Y104521D01*
X144985Y107656D02*
X149688Y110792D01*
D11*
X153726Y75702D02*
X153726Y64008D01*
X157624Y64008D02*
X157624Y75702D01*
X157624Y71804D02*
X151777Y71804D01*
X157624Y71804D02*
X159573Y71804D01*
X159573Y67906D02*
X151777Y67906D01*
X169318Y64008D02*
X169318Y75702D01*
X163471Y69855D01*
X171267Y69855D01*
X188808Y71804D02*
X194655Y71804D01*
X188808Y71804D02*
X186859Y69855D01*
X186859Y65957D01*
X188808Y64008D01*
X194655Y64008D01*
X198553Y75702D02*
X200502Y75702D01*
X200502Y64008D01*
X198553Y64008D02*
X202451Y64008D01*
X208298Y64008D02*
X212196Y64008D01*
X208298Y64008D02*
X206349Y65957D01*
X206349Y69855D01*
X208298Y71804D01*
X212196Y71804D01*
X214145Y69855D01*
X214145Y67906D01*
X206349Y67906D01*
X219992Y71804D02*
X223890Y71804D01*
X225839Y69855D01*
X225839Y64008D01*
X219992Y64008D01*
X218043Y65957D01*
X219992Y67906D01*
X225839Y67906D01*
X229737Y64008D02*
X229737Y71804D01*
X229737Y67906D02*
X233635Y71804D01*
X235584Y71804D01*
X241431Y71804D02*
X245329Y71804D01*
X247278Y69855D01*
X247278Y64008D01*
X241431Y64008D01*
X239482Y65957D01*
X241431Y67906D01*
X247278Y67906D01*
X251176Y64008D02*
X251176Y71804D01*
X257023Y71804D01*
X258972Y69855D01*
X258972Y64008D01*
X264819Y71804D02*
X270666Y71804D01*
X264819Y71804D02*
X262870Y69855D01*
X262870Y65957D01*
X264819Y64008D01*
X270666Y64008D01*
X276513Y64008D02*
X280411Y64008D01*
X276513Y64008D02*
X274564Y65957D01*
X274564Y69855D01*
X276513Y71804D01*
X280411Y71804D01*
X282360Y69855D01*
X282360Y67906D01*
X274564Y67906D01*
X426776Y64008D02*
X426776Y75702D01*
X430674Y75702D02*
X430674Y64008D01*
X430674Y71804D02*
X424827Y71804D01*
X430674Y71804D02*
X432623Y71804D01*
X432623Y67906D02*
X424827Y67906D01*
X442368Y64008D02*
X442368Y75702D01*
X436521Y69855D01*
X444317Y69855D01*
X461858Y71804D02*
X467705Y71804D01*
X461858Y71804D02*
X459909Y69855D01*
X459909Y65957D01*
X461858Y64008D01*
X467705Y64008D01*
X471603Y75702D02*
X473552Y75702D01*
X473552Y64008D01*
X471603Y64008D02*
X475501Y64008D01*
X481348Y64008D02*
X485246Y64008D01*
X481348Y64008D02*
X479399Y65957D01*
X479399Y69855D01*
X481348Y71804D01*
X485246Y71804D01*
X487195Y69855D01*
X487195Y67906D01*
X479399Y67906D01*
X493042Y71804D02*
X496940Y71804D01*
X498889Y69855D01*
X498889Y64008D01*
X493042Y64008D01*
X491093Y65957D01*
X493042Y67906D01*
X498889Y67906D01*
X502787Y64008D02*
X502787Y71804D01*
X502787Y67906D02*
X506685Y71804D01*
X508634Y71804D01*
X514481Y71804D02*
X518379Y71804D01*
X520328Y69855D01*
X520328Y64008D01*
X514481Y64008D01*
X512532Y65957D01*
X514481Y67906D01*
X520328Y67906D01*
X524226Y64008D02*
X524226Y71804D01*
X530073Y71804D01*
X532022Y69855D01*
X532022Y64008D01*
X537869Y71804D02*
X543716Y71804D01*
X537869Y71804D02*
X535920Y69855D01*
X535920Y65957D01*
X537869Y64008D01*
X543716Y64008D01*
X549563Y64008D02*
X553461Y64008D01*
X549563Y64008D02*
X547614Y65957D01*
X547614Y69855D01*
X549563Y71804D01*
X553461Y71804D01*
X555410Y69855D01*
X555410Y67906D01*
X547614Y67906D01*
X545288Y194994D02*
X549186Y198892D01*
X549186Y187198D01*
X545288Y187198D02*
X553084Y187198D01*
X556982Y189147D02*
X556982Y196943D01*
X558931Y198892D01*
X562829Y198892D01*
X564778Y196943D01*
X564778Y189147D01*
X562829Y187198D01*
X558931Y187198D01*
X556982Y189147D01*
X564778Y196943D01*
X580370Y194994D02*
X580370Y189147D01*
X582319Y187198D01*
X588166Y187198D01*
X588166Y194994D01*
X592064Y198892D02*
X592064Y187198D01*
X592064Y198892D02*
X599860Y198892D01*
X595962Y193045D02*
X592064Y193045D01*
D13*
X604650Y164727D02*
X604650Y155321D01*
X607785Y158456D01*
X610921Y155321D01*
X610921Y164727D01*
X618708Y164727D02*
X620276Y163159D01*
X618708Y164727D02*
X615573Y164727D01*
X614005Y163159D01*
X614005Y161592D01*
X615573Y160024D01*
X618708Y160024D01*
X620276Y158456D01*
X620276Y156889D01*
X618708Y155321D01*
X615573Y155321D01*
X614005Y156889D01*
X623360Y155321D02*
X629631Y155321D01*
X623360Y155321D02*
X629631Y161592D01*
X629631Y163159D01*
X628063Y164727D01*
X624928Y164727D01*
X623360Y163159D01*
X632715Y163159D02*
X634283Y164727D01*
X637418Y164727D01*
X638986Y163159D01*
X638986Y161592D01*
X637418Y160024D01*
X638986Y158456D01*
X638986Y156889D01*
X637418Y155321D01*
X634283Y155321D01*
X632715Y156889D01*
X632715Y158456D01*
X634283Y160024D01*
X632715Y161592D01*
X632715Y163159D01*
X634283Y160024D02*
X637418Y160024D01*
X642071Y161592D02*
X645206Y164727D01*
X645206Y155321D01*
X642071Y155321D02*
X648341Y155321D01*
X651426Y161592D02*
X654561Y164727D01*
X654561Y155321D01*
X651426Y155321D02*
X657696Y155321D01*
X350650Y158377D02*
X350650Y148971D01*
X353785Y152106D01*
X356921Y148971D01*
X356921Y158377D01*
X364708Y158377D02*
X366276Y156809D01*
X364708Y158377D02*
X361573Y158377D01*
X360005Y156809D01*
X360005Y155242D01*
X361573Y153674D01*
X364708Y153674D01*
X366276Y152106D01*
X366276Y150539D01*
X364708Y148971D01*
X361573Y148971D01*
X360005Y150539D01*
X369360Y148971D02*
X375631Y148971D01*
X369360Y148971D02*
X375631Y155242D01*
X375631Y156809D01*
X374063Y158377D01*
X370928Y158377D01*
X369360Y156809D01*
X378715Y156809D02*
X380283Y158377D01*
X383418Y158377D01*
X384986Y156809D01*
X384986Y155242D01*
X383418Y153674D01*
X384986Y152106D01*
X384986Y150539D01*
X383418Y148971D01*
X380283Y148971D01*
X378715Y150539D01*
X378715Y152106D01*
X380283Y153674D01*
X378715Y155242D01*
X378715Y156809D01*
X380283Y153674D02*
X383418Y153674D01*
X388071Y155242D02*
X391206Y158377D01*
X391206Y148971D01*
X388071Y148971D02*
X394341Y148971D01*
X397426Y155242D02*
X400561Y158377D01*
X400561Y148971D01*
X397426Y148971D02*
X403696Y148971D01*
X96650Y148971D02*
X96650Y158377D01*
X99785Y152106D02*
X96650Y148971D01*
X99785Y152106D02*
X102921Y148971D01*
X102921Y158377D01*
X110708Y158377D02*
X112276Y156809D01*
X110708Y158377D02*
X107573Y158377D01*
X106005Y156809D01*
X106005Y155242D01*
X107573Y153674D01*
X110708Y153674D01*
X112276Y152106D01*
X112276Y150539D01*
X110708Y148971D01*
X107573Y148971D01*
X106005Y150539D01*
X115360Y148971D02*
X121631Y148971D01*
X115360Y148971D02*
X121631Y155242D01*
X121631Y156809D01*
X120063Y158377D01*
X116928Y158377D01*
X115360Y156809D01*
X124715Y156809D02*
X126283Y158377D01*
X129418Y158377D01*
X130986Y156809D01*
X130986Y155242D01*
X129418Y153674D01*
X130986Y152106D01*
X130986Y150539D01*
X129418Y148971D01*
X126283Y148971D01*
X124715Y150539D01*
X124715Y152106D01*
X126283Y153674D01*
X124715Y155242D01*
X124715Y156809D01*
X126283Y153674D02*
X129418Y153674D01*
X134071Y155242D02*
X137206Y158377D01*
X137206Y148971D01*
X134071Y148971D02*
X140341Y148971D01*
X143426Y155242D02*
X146561Y158377D01*
X146561Y148971D01*
X143426Y148971D02*
X149696Y148971D01*
D14*
X95250Y234950D02*
X76200Y234950D01*
X82550Y241300D01*
X76200Y234950D02*
X82550Y228600D01*
D15*
X12446Y203454D02*
X6853Y203454D01*
X12446Y203454D02*
X12446Y207183D01*
X12446Y209067D02*
X8718Y209067D01*
X6853Y210931D01*
X8718Y212796D01*
X12446Y212796D01*
X9650Y212796D02*
X9650Y209067D01*
X12446Y214680D02*
X6853Y214680D01*
X12446Y214680D02*
X12446Y217477D01*
X11514Y218409D01*
X7785Y218409D01*
X6853Y217477D01*
X6853Y214680D01*
X6853Y220293D02*
X12446Y220293D01*
X12446Y223090D01*
X11514Y224022D01*
X7785Y224022D01*
X6853Y223090D01*
X6853Y220293D01*
X6853Y225906D02*
X6853Y229635D01*
X6853Y225906D02*
X12446Y225906D01*
X12446Y229635D01*
X9650Y227771D02*
X9650Y225906D01*
X12446Y231519D02*
X6853Y231519D01*
X6853Y234316D01*
X7785Y235248D01*
X9650Y235248D01*
X10582Y234316D01*
X10582Y231519D01*
X10582Y233384D02*
X12446Y235248D01*
X63749Y198167D02*
X63749Y194438D01*
X66546Y194438D01*
X65614Y196303D01*
X65614Y197235D01*
X66546Y198167D01*
X68410Y198167D01*
X69342Y197235D01*
X69342Y195371D01*
X68410Y194438D01*
X67478Y205665D02*
X63749Y205665D01*
X67478Y205665D02*
X69342Y207529D01*
X67478Y209393D01*
X63749Y209393D01*
X63749Y211278D02*
X69342Y211278D01*
X69342Y214074D01*
X68410Y215006D01*
X64681Y215006D01*
X63749Y214074D01*
X63749Y211278D01*
X63749Y219687D02*
X64681Y220619D01*
X63749Y219687D02*
X63749Y217823D01*
X64681Y216891D01*
X68410Y216891D01*
X69342Y217823D01*
X69342Y219687D01*
X68410Y220619D01*
D13*
X329274Y69477D02*
X335545Y69477D01*
X329274Y69477D02*
X329274Y60071D01*
X335545Y60071D01*
X332409Y64774D02*
X329274Y64774D01*
X343332Y69477D02*
X344900Y67909D01*
X343332Y69477D02*
X340197Y69477D01*
X338629Y67909D01*
X338629Y61639D01*
X340197Y60071D01*
X343332Y60071D01*
X344900Y61639D01*
X344900Y64774D01*
X341764Y64774D01*
X352687Y60071D02*
X352687Y69477D01*
X347984Y64774D01*
X354255Y64774D01*
X357339Y67909D02*
X358907Y69477D01*
X362042Y69477D01*
X363610Y67909D01*
X363610Y66342D01*
X362042Y64774D01*
X360475Y64774D01*
X362042Y64774D02*
X363610Y63206D01*
X363610Y61639D01*
X362042Y60071D01*
X358907Y60071D01*
X357339Y61639D01*
X366695Y69477D02*
X372965Y69477D01*
X372965Y67909D01*
X366695Y61639D01*
X366695Y60071D01*
X376050Y67909D02*
X377617Y69477D01*
X380753Y69477D01*
X382321Y67909D01*
X382321Y66342D01*
X380753Y64774D01*
X382321Y63206D01*
X382321Y61639D01*
X380753Y60071D01*
X377617Y60071D01*
X376050Y61639D01*
X376050Y63206D01*
X377617Y64774D01*
X376050Y66342D01*
X376050Y67909D01*
X377617Y64774D02*
X380753Y64774D01*
X390108Y69477D02*
X391676Y67909D01*
X390108Y69477D02*
X386973Y69477D01*
X385405Y67909D01*
X385405Y61639D01*
X386973Y60071D01*
X390108Y60071D01*
X391676Y61639D01*
X397896Y60071D02*
X397896Y69477D01*
X401031Y69477D02*
X394760Y69477D01*
X404115Y64774D02*
X410386Y64774D01*
X413471Y60071D02*
X413471Y69477D01*
X419741Y60071D01*
X419741Y69477D01*
X422826Y69477D02*
X422826Y60071D01*
X427529Y60071D01*
X429096Y61639D01*
X429096Y67909D01*
X427529Y69477D01*
X422826Y69477D01*
X145710Y196475D02*
X143253Y194018D01*
X145710Y196475D02*
X145710Y189103D01*
X143253Y189103D02*
X148168Y189103D01*
X150737Y189103D02*
X155652Y189103D01*
X150737Y189103D02*
X155652Y194018D01*
X155652Y195247D01*
X154423Y196475D01*
X151966Y196475D01*
X150737Y195247D01*
X158221Y196475D02*
X163136Y196475D01*
X163136Y195247D01*
X158221Y190332D01*
X158221Y189103D01*
X168163Y195247D02*
X170620Y196475D01*
X168163Y195247D02*
X165705Y192789D01*
X165705Y190332D01*
X166934Y189103D01*
X169391Y189103D01*
X170620Y190332D01*
X170620Y191560D01*
X169391Y192789D01*
X165705Y192789D01*
X173189Y192789D02*
X178104Y192789D01*
X180674Y194018D02*
X183131Y196475D01*
X183131Y189103D01*
X180674Y189103D02*
X185588Y189103D01*
X188158Y195247D02*
X189386Y196475D01*
X191844Y196475D01*
X193073Y195247D01*
X193073Y194018D01*
X191844Y192789D01*
X193073Y191560D01*
X193073Y190332D01*
X191844Y189103D01*
X189386Y189103D01*
X188158Y190332D01*
X188158Y191560D01*
X189386Y192789D01*
X188158Y194018D01*
X188158Y195247D01*
X189386Y192789D02*
X191844Y192789D01*
X195642Y196475D02*
X200557Y196475D01*
X200557Y195247D01*
X195642Y190332D01*
X195642Y189103D01*
X203126Y194018D02*
X205583Y196475D01*
X205583Y189103D01*
X203126Y189103D02*
X208041Y189103D01*
X210610Y192789D02*
X215525Y192789D01*
X218094Y194018D02*
X220552Y196475D01*
X220552Y189103D01*
X223009Y189103D02*
X218094Y189103D01*
X225579Y192789D02*
X230493Y192789D01*
X233063Y189103D02*
X233063Y196475D01*
X237978Y189103D01*
X237978Y196475D01*
X240547Y196475D02*
X240547Y189103D01*
X244233Y189103D01*
X245462Y190332D01*
X245462Y195247D01*
X244233Y196475D01*
X240547Y196475D01*
X304543Y139408D02*
X307000Y141865D01*
X307000Y134493D01*
X304543Y134493D02*
X309458Y134493D01*
X312027Y134493D02*
X316942Y134493D01*
X312027Y134493D02*
X316942Y139408D01*
X316942Y140637D01*
X315713Y141865D01*
X313256Y141865D01*
X312027Y140637D01*
X319511Y141865D02*
X324426Y141865D01*
X324426Y140637D01*
X319511Y135722D01*
X319511Y134493D01*
X329453Y140637D02*
X331910Y141865D01*
X329453Y140637D02*
X326995Y138179D01*
X326995Y135722D01*
X328224Y134493D01*
X330681Y134493D01*
X331910Y135722D01*
X331910Y136950D01*
X330681Y138179D01*
X326995Y138179D01*
X334479Y138179D02*
X339394Y138179D01*
X341964Y139408D02*
X344421Y141865D01*
X344421Y134493D01*
X341964Y134493D02*
X346878Y134493D01*
X349448Y140637D02*
X350676Y141865D01*
X353134Y141865D01*
X354363Y140637D01*
X354363Y139408D01*
X353134Y138179D01*
X354363Y136950D01*
X354363Y135722D01*
X353134Y134493D01*
X350676Y134493D01*
X349448Y135722D01*
X349448Y136950D01*
X350676Y138179D01*
X349448Y139408D01*
X349448Y140637D01*
X350676Y138179D02*
X353134Y138179D01*
X356932Y141865D02*
X361847Y141865D01*
X361847Y140637D01*
X356932Y135722D01*
X356932Y134493D01*
X364416Y139408D02*
X366873Y141865D01*
X366873Y134493D01*
X364416Y134493D02*
X369331Y134493D01*
X371900Y138179D02*
X376815Y138179D01*
X379384Y139408D02*
X381842Y141865D01*
X381842Y134493D01*
X384299Y134493D02*
X379384Y134493D01*
X386869Y138179D02*
X391783Y138179D01*
X394353Y134493D02*
X394353Y141865D01*
X399268Y134493D01*
X399268Y141865D01*
X401837Y141865D02*
X401837Y134493D01*
X405523Y134493D01*
X406752Y135722D01*
X406752Y140637D01*
X405523Y141865D01*
X401837Y141865D01*
X79005Y61857D02*
X72734Y61857D01*
X72734Y52451D01*
X79005Y52451D01*
X75869Y57154D02*
X72734Y57154D01*
X86792Y61857D02*
X88360Y60289D01*
X86792Y61857D02*
X83657Y61857D01*
X82089Y60289D01*
X82089Y54019D01*
X83657Y52451D01*
X86792Y52451D01*
X88360Y54019D01*
X88360Y57154D01*
X85224Y57154D01*
X96147Y52451D02*
X96147Y61857D01*
X91444Y57154D01*
X97715Y57154D01*
X100799Y60289D02*
X102367Y61857D01*
X105502Y61857D01*
X107070Y60289D01*
X107070Y58722D01*
X105502Y57154D01*
X103935Y57154D01*
X105502Y57154D02*
X107070Y55586D01*
X107070Y54019D01*
X105502Y52451D01*
X102367Y52451D01*
X100799Y54019D01*
X110155Y61857D02*
X116425Y61857D01*
X116425Y60289D01*
X110155Y54019D01*
X110155Y52451D01*
X119510Y60289D02*
X121077Y61857D01*
X124213Y61857D01*
X125781Y60289D01*
X125781Y58722D01*
X124213Y57154D01*
X125781Y55586D01*
X125781Y54019D01*
X124213Y52451D01*
X121077Y52451D01*
X119510Y54019D01*
X119510Y55586D01*
X121077Y57154D01*
X119510Y58722D01*
X119510Y60289D01*
X121077Y57154D02*
X124213Y57154D01*
X133568Y61857D02*
X135136Y60289D01*
X133568Y61857D02*
X130433Y61857D01*
X128865Y60289D01*
X128865Y54019D01*
X130433Y52451D01*
X133568Y52451D01*
X135136Y54019D01*
X141356Y52451D02*
X141356Y61857D01*
X144491Y61857D02*
X138220Y61857D01*
X147575Y57154D02*
X153846Y57154D01*
X156931Y52451D02*
X156931Y61857D01*
X163201Y52451D01*
X163201Y61857D01*
X166286Y61857D02*
X166286Y52451D01*
X170989Y52451D01*
X172556Y54019D01*
X172556Y60289D01*
X170989Y61857D01*
X166286Y61857D01*
X578194Y64397D02*
X584465Y64397D01*
X578194Y64397D02*
X578194Y54991D01*
X584465Y54991D01*
X581329Y59694D02*
X578194Y59694D01*
X592252Y64397D02*
X593820Y62829D01*
X592252Y64397D02*
X589117Y64397D01*
X587549Y62829D01*
X587549Y56559D01*
X589117Y54991D01*
X592252Y54991D01*
X593820Y56559D01*
X593820Y59694D01*
X590684Y59694D01*
X601607Y54991D02*
X601607Y64397D01*
X596904Y59694D01*
X603175Y59694D01*
X606259Y62829D02*
X607827Y64397D01*
X610962Y64397D01*
X612530Y62829D01*
X612530Y61262D01*
X610962Y59694D01*
X609395Y59694D01*
X610962Y59694D02*
X612530Y58126D01*
X612530Y56559D01*
X610962Y54991D01*
X607827Y54991D01*
X606259Y56559D01*
X615615Y64397D02*
X621885Y64397D01*
X621885Y62829D01*
X615615Y56559D01*
X615615Y54991D01*
X624970Y62829D02*
X626537Y64397D01*
X629673Y64397D01*
X631241Y62829D01*
X631241Y61262D01*
X629673Y59694D01*
X631241Y58126D01*
X631241Y56559D01*
X629673Y54991D01*
X626537Y54991D01*
X624970Y56559D01*
X624970Y58126D01*
X626537Y59694D01*
X624970Y61262D01*
X624970Y62829D01*
X626537Y59694D02*
X629673Y59694D01*
X639028Y64397D02*
X640596Y62829D01*
X639028Y64397D02*
X635893Y64397D01*
X634325Y62829D01*
X634325Y56559D01*
X635893Y54991D01*
X639028Y54991D01*
X640596Y56559D01*
X646816Y54991D02*
X646816Y64397D01*
X649951Y64397D02*
X643680Y64397D01*
X653035Y59694D02*
X659306Y59694D01*
X662391Y54991D02*
X662391Y64397D01*
X668661Y54991D01*
X668661Y64397D01*
X671746Y64397D02*
X671746Y54991D01*
X676449Y54991D01*
X678016Y56559D01*
X678016Y62829D01*
X676449Y64397D01*
X671746Y64397D01*
D11*
X180886Y221752D02*
X176988Y217854D01*
X180886Y221752D02*
X180886Y210058D01*
X176988Y210058D02*
X184784Y210058D01*
X188682Y212007D02*
X188682Y219803D01*
X190631Y221752D01*
X194529Y221752D01*
X196478Y219803D01*
X196478Y212007D01*
X194529Y210058D01*
X190631Y210058D01*
X188682Y212007D01*
X196478Y219803D01*
X212070Y217854D02*
X212070Y212007D01*
X214019Y210058D01*
X219866Y210058D01*
X219866Y217854D01*
X223764Y221752D02*
X223764Y210058D01*
X223764Y221752D02*
X231560Y221752D01*
X227662Y215905D02*
X223764Y215905D01*
D16*
X660000Y215500D02*
X660000Y165500D01*
X620000Y165500D01*
X610000Y165500D01*
X610000Y175500D01*
X610000Y215500D01*
X660000Y215500D01*
X610000Y175500D02*
X620000Y165500D01*
X606706Y161160D02*
X606708Y161235D01*
X606714Y161309D01*
X606724Y161383D01*
X606737Y161456D01*
X606755Y161529D01*
X606776Y161600D01*
X606801Y161671D01*
X606830Y161740D01*
X606863Y161807D01*
X606899Y161872D01*
X606938Y161936D01*
X606980Y161997D01*
X607026Y162056D01*
X607075Y162113D01*
X607127Y162166D01*
X607181Y162217D01*
X607238Y162266D01*
X607298Y162310D01*
X607360Y162352D01*
X607424Y162391D01*
X607490Y162426D01*
X607557Y162457D01*
X607627Y162485D01*
X607697Y162509D01*
X607769Y162530D01*
X607842Y162546D01*
X607915Y162559D01*
X607990Y162568D01*
X608064Y162573D01*
X608139Y162574D01*
X608213Y162571D01*
X608288Y162564D01*
X608361Y162553D01*
X608435Y162539D01*
X608507Y162520D01*
X608578Y162498D01*
X608648Y162472D01*
X608717Y162442D01*
X608783Y162409D01*
X608848Y162372D01*
X608911Y162332D01*
X608972Y162288D01*
X609030Y162242D01*
X609086Y162192D01*
X609139Y162140D01*
X609190Y162085D01*
X609237Y162027D01*
X609281Y161967D01*
X609322Y161904D01*
X609360Y161840D01*
X609394Y161774D01*
X609425Y161705D01*
X609452Y161636D01*
X609475Y161565D01*
X609494Y161493D01*
X609510Y161420D01*
X609522Y161346D01*
X609530Y161272D01*
X609534Y161197D01*
X609534Y161123D01*
X609530Y161048D01*
X609522Y160974D01*
X609510Y160900D01*
X609494Y160827D01*
X609475Y160755D01*
X609452Y160684D01*
X609425Y160615D01*
X609394Y160546D01*
X609360Y160480D01*
X609322Y160416D01*
X609281Y160353D01*
X609237Y160293D01*
X609190Y160235D01*
X609139Y160180D01*
X609086Y160128D01*
X609030Y160078D01*
X608972Y160032D01*
X608911Y159988D01*
X608848Y159948D01*
X608783Y159911D01*
X608717Y159878D01*
X608648Y159848D01*
X608578Y159822D01*
X608507Y159800D01*
X608435Y159781D01*
X608361Y159767D01*
X608288Y159756D01*
X608213Y159749D01*
X608139Y159746D01*
X608064Y159747D01*
X607990Y159752D01*
X607915Y159761D01*
X607842Y159774D01*
X607769Y159790D01*
X607697Y159811D01*
X607627Y159835D01*
X607557Y159863D01*
X607490Y159894D01*
X607424Y159929D01*
X607360Y159968D01*
X607298Y160010D01*
X607238Y160054D01*
X607181Y160103D01*
X607127Y160154D01*
X607075Y160207D01*
X607026Y160264D01*
X606980Y160323D01*
X606938Y160384D01*
X606899Y160448D01*
X606863Y160513D01*
X606830Y160580D01*
X606801Y160649D01*
X606776Y160720D01*
X606755Y160791D01*
X606737Y160864D01*
X606724Y160937D01*
X606714Y161011D01*
X606708Y161085D01*
X606706Y161160D01*
X614000Y190500D02*
X614006Y191015D01*
X614025Y191530D01*
X614057Y192045D01*
X614101Y192558D01*
X614158Y193071D01*
X614227Y193581D01*
X614309Y194090D01*
X614404Y194597D01*
X614510Y195101D01*
X614629Y195603D01*
X614761Y196101D01*
X614904Y196596D01*
X615060Y197087D01*
X615228Y197575D01*
X615407Y198058D01*
X615599Y198536D01*
X615802Y199010D01*
X616016Y199479D01*
X616242Y199942D01*
X616480Y200399D01*
X616728Y200851D01*
X616988Y201296D01*
X617258Y201735D01*
X617539Y202167D01*
X617831Y202592D01*
X618133Y203010D01*
X618445Y203420D01*
X618767Y203822D01*
X619099Y204217D01*
X619440Y204603D01*
X619791Y204980D01*
X620151Y205349D01*
X620520Y205709D01*
X620897Y206060D01*
X621283Y206401D01*
X621678Y206733D01*
X622080Y207055D01*
X622490Y207367D01*
X622908Y207669D01*
X623333Y207961D01*
X623765Y208242D01*
X624204Y208512D01*
X624649Y208772D01*
X625101Y209020D01*
X625558Y209258D01*
X626021Y209484D01*
X626490Y209698D01*
X626964Y209901D01*
X627442Y210093D01*
X627925Y210272D01*
X628413Y210440D01*
X628904Y210596D01*
X629399Y210739D01*
X629897Y210871D01*
X630399Y210990D01*
X630903Y211096D01*
X631410Y211191D01*
X631919Y211273D01*
X632429Y211342D01*
X632942Y211399D01*
X633455Y211443D01*
X633970Y211475D01*
X634485Y211494D01*
X635000Y211500D01*
X635515Y211494D01*
X636030Y211475D01*
X636545Y211443D01*
X637058Y211399D01*
X637571Y211342D01*
X638081Y211273D01*
X638590Y211191D01*
X639097Y211096D01*
X639601Y210990D01*
X640103Y210871D01*
X640601Y210739D01*
X641096Y210596D01*
X641587Y210440D01*
X642075Y210272D01*
X642558Y210093D01*
X643036Y209901D01*
X643510Y209698D01*
X643979Y209484D01*
X644442Y209258D01*
X644899Y209020D01*
X645351Y208772D01*
X645796Y208512D01*
X646235Y208242D01*
X646667Y207961D01*
X647092Y207669D01*
X647510Y207367D01*
X647920Y207055D01*
X648322Y206733D01*
X648717Y206401D01*
X649103Y206060D01*
X649480Y205709D01*
X649849Y205349D01*
X650209Y204980D01*
X650560Y204603D01*
X650901Y204217D01*
X651233Y203822D01*
X651555Y203420D01*
X651867Y203010D01*
X652169Y202592D01*
X652461Y202167D01*
X652742Y201735D01*
X653012Y201296D01*
X653272Y200851D01*
X653520Y200399D01*
X653758Y199942D01*
X653984Y199479D01*
X654198Y199010D01*
X654401Y198536D01*
X654593Y198058D01*
X654772Y197575D01*
X654940Y197087D01*
X655096Y196596D01*
X655239Y196101D01*
X655371Y195603D01*
X655490Y195101D01*
X655596Y194597D01*
X655691Y194090D01*
X655773Y193581D01*
X655842Y193071D01*
X655899Y192558D01*
X655943Y192045D01*
X655975Y191530D01*
X655994Y191015D01*
X656000Y190500D01*
X655994Y189985D01*
X655975Y189470D01*
X655943Y188955D01*
X655899Y188442D01*
X655842Y187929D01*
X655773Y187419D01*
X655691Y186910D01*
X655596Y186403D01*
X655490Y185899D01*
X655371Y185397D01*
X655239Y184899D01*
X655096Y184404D01*
X654940Y183913D01*
X654772Y183425D01*
X654593Y182942D01*
X654401Y182464D01*
X654198Y181990D01*
X653984Y181521D01*
X653758Y181058D01*
X653520Y180601D01*
X653272Y180149D01*
X653012Y179704D01*
X652742Y179265D01*
X652461Y178833D01*
X652169Y178408D01*
X651867Y177990D01*
X651555Y177580D01*
X651233Y177178D01*
X650901Y176783D01*
X650560Y176397D01*
X650209Y176020D01*
X649849Y175651D01*
X649480Y175291D01*
X649103Y174940D01*
X648717Y174599D01*
X648322Y174267D01*
X647920Y173945D01*
X647510Y173633D01*
X647092Y173331D01*
X646667Y173039D01*
X646235Y172758D01*
X645796Y172488D01*
X645351Y172228D01*
X644899Y171980D01*
X644442Y171742D01*
X643979Y171516D01*
X643510Y171302D01*
X643036Y171099D01*
X642558Y170907D01*
X642075Y170728D01*
X641587Y170560D01*
X641096Y170404D01*
X640601Y170261D01*
X640103Y170129D01*
X639601Y170010D01*
X639097Y169904D01*
X638590Y169809D01*
X638081Y169727D01*
X637571Y169658D01*
X637058Y169601D01*
X636545Y169557D01*
X636030Y169525D01*
X635515Y169506D01*
X635000Y169500D01*
X634485Y169506D01*
X633970Y169525D01*
X633455Y169557D01*
X632942Y169601D01*
X632429Y169658D01*
X631919Y169727D01*
X631410Y169809D01*
X630903Y169904D01*
X630399Y170010D01*
X629897Y170129D01*
X629399Y170261D01*
X628904Y170404D01*
X628413Y170560D01*
X627925Y170728D01*
X627442Y170907D01*
X626964Y171099D01*
X626490Y171302D01*
X626021Y171516D01*
X625558Y171742D01*
X625101Y171980D01*
X624649Y172228D01*
X624204Y172488D01*
X623765Y172758D01*
X623333Y173039D01*
X622908Y173331D01*
X622490Y173633D01*
X622080Y173945D01*
X621678Y174267D01*
X621283Y174599D01*
X620897Y174940D01*
X620520Y175291D01*
X620151Y175651D01*
X619791Y176020D01*
X619440Y176397D01*
X619099Y176783D01*
X618767Y177178D01*
X618445Y177580D01*
X618133Y177990D01*
X617831Y178408D01*
X617539Y178833D01*
X617258Y179265D01*
X616988Y179704D01*
X616728Y180149D01*
X616480Y180601D01*
X616242Y181058D01*
X616016Y181521D01*
X615802Y181990D01*
X615599Y182464D01*
X615407Y182942D01*
X615228Y183425D01*
X615060Y183913D01*
X614904Y184404D01*
X614761Y184899D01*
X614629Y185397D01*
X614510Y185899D01*
X614404Y186403D01*
X614309Y186910D01*
X614227Y187419D01*
X614158Y187929D01*
X614101Y188442D01*
X614057Y188955D01*
X614025Y189470D01*
X614006Y189985D01*
X614000Y190500D01*
X406000Y215500D02*
X406000Y165500D01*
X366000Y165500D01*
X356000Y165500D01*
X356000Y175500D01*
X356000Y215500D01*
X406000Y215500D01*
X356000Y175500D02*
X366000Y165500D01*
X352706Y161160D02*
X352708Y161235D01*
X352714Y161309D01*
X352724Y161383D01*
X352737Y161456D01*
X352755Y161529D01*
X352776Y161600D01*
X352801Y161671D01*
X352830Y161740D01*
X352863Y161807D01*
X352899Y161872D01*
X352938Y161936D01*
X352980Y161997D01*
X353026Y162056D01*
X353075Y162113D01*
X353127Y162166D01*
X353181Y162217D01*
X353238Y162266D01*
X353298Y162310D01*
X353360Y162352D01*
X353424Y162391D01*
X353490Y162426D01*
X353557Y162457D01*
X353627Y162485D01*
X353697Y162509D01*
X353769Y162530D01*
X353842Y162546D01*
X353915Y162559D01*
X353990Y162568D01*
X354064Y162573D01*
X354139Y162574D01*
X354213Y162571D01*
X354288Y162564D01*
X354361Y162553D01*
X354435Y162539D01*
X354507Y162520D01*
X354578Y162498D01*
X354648Y162472D01*
X354717Y162442D01*
X354783Y162409D01*
X354848Y162372D01*
X354911Y162332D01*
X354972Y162288D01*
X355030Y162242D01*
X355086Y162192D01*
X355139Y162140D01*
X355190Y162085D01*
X355237Y162027D01*
X355281Y161967D01*
X355322Y161904D01*
X355360Y161840D01*
X355394Y161774D01*
X355425Y161705D01*
X355452Y161636D01*
X355475Y161565D01*
X355494Y161493D01*
X355510Y161420D01*
X355522Y161346D01*
X355530Y161272D01*
X355534Y161197D01*
X355534Y161123D01*
X355530Y161048D01*
X355522Y160974D01*
X355510Y160900D01*
X355494Y160827D01*
X355475Y160755D01*
X355452Y160684D01*
X355425Y160615D01*
X355394Y160546D01*
X355360Y160480D01*
X355322Y160416D01*
X355281Y160353D01*
X355237Y160293D01*
X355190Y160235D01*
X355139Y160180D01*
X355086Y160128D01*
X355030Y160078D01*
X354972Y160032D01*
X354911Y159988D01*
X354848Y159948D01*
X354783Y159911D01*
X354717Y159878D01*
X354648Y159848D01*
X354578Y159822D01*
X354507Y159800D01*
X354435Y159781D01*
X354361Y159767D01*
X354288Y159756D01*
X354213Y159749D01*
X354139Y159746D01*
X354064Y159747D01*
X353990Y159752D01*
X353915Y159761D01*
X353842Y159774D01*
X353769Y159790D01*
X353697Y159811D01*
X353627Y159835D01*
X353557Y159863D01*
X353490Y159894D01*
X353424Y159929D01*
X353360Y159968D01*
X353298Y160010D01*
X353238Y160054D01*
X353181Y160103D01*
X353127Y160154D01*
X353075Y160207D01*
X353026Y160264D01*
X352980Y160323D01*
X352938Y160384D01*
X352899Y160448D01*
X352863Y160513D01*
X352830Y160580D01*
X352801Y160649D01*
X352776Y160720D01*
X352755Y160791D01*
X352737Y160864D01*
X352724Y160937D01*
X352714Y161011D01*
X352708Y161085D01*
X352706Y161160D01*
X360000Y190500D02*
X360006Y191015D01*
X360025Y191530D01*
X360057Y192045D01*
X360101Y192558D01*
X360158Y193071D01*
X360227Y193581D01*
X360309Y194090D01*
X360404Y194597D01*
X360510Y195101D01*
X360629Y195603D01*
X360761Y196101D01*
X360904Y196596D01*
X361060Y197087D01*
X361228Y197575D01*
X361407Y198058D01*
X361599Y198536D01*
X361802Y199010D01*
X362016Y199479D01*
X362242Y199942D01*
X362480Y200399D01*
X362728Y200851D01*
X362988Y201296D01*
X363258Y201735D01*
X363539Y202167D01*
X363831Y202592D01*
X364133Y203010D01*
X364445Y203420D01*
X364767Y203822D01*
X365099Y204217D01*
X365440Y204603D01*
X365791Y204980D01*
X366151Y205349D01*
X366520Y205709D01*
X366897Y206060D01*
X367283Y206401D01*
X367678Y206733D01*
X368080Y207055D01*
X368490Y207367D01*
X368908Y207669D01*
X369333Y207961D01*
X369765Y208242D01*
X370204Y208512D01*
X370649Y208772D01*
X371101Y209020D01*
X371558Y209258D01*
X372021Y209484D01*
X372490Y209698D01*
X372964Y209901D01*
X373442Y210093D01*
X373925Y210272D01*
X374413Y210440D01*
X374904Y210596D01*
X375399Y210739D01*
X375897Y210871D01*
X376399Y210990D01*
X376903Y211096D01*
X377410Y211191D01*
X377919Y211273D01*
X378429Y211342D01*
X378942Y211399D01*
X379455Y211443D01*
X379970Y211475D01*
X380485Y211494D01*
X381000Y211500D01*
X381515Y211494D01*
X382030Y211475D01*
X382545Y211443D01*
X383058Y211399D01*
X383571Y211342D01*
X384081Y211273D01*
X384590Y211191D01*
X385097Y211096D01*
X385601Y210990D01*
X386103Y210871D01*
X386601Y210739D01*
X387096Y210596D01*
X387587Y210440D01*
X388075Y210272D01*
X388558Y210093D01*
X389036Y209901D01*
X389510Y209698D01*
X389979Y209484D01*
X390442Y209258D01*
X390899Y209020D01*
X391351Y208772D01*
X391796Y208512D01*
X392235Y208242D01*
X392667Y207961D01*
X393092Y207669D01*
X393510Y207367D01*
X393920Y207055D01*
X394322Y206733D01*
X394717Y206401D01*
X395103Y206060D01*
X395480Y205709D01*
X395849Y205349D01*
X396209Y204980D01*
X396560Y204603D01*
X396901Y204217D01*
X397233Y203822D01*
X397555Y203420D01*
X397867Y203010D01*
X398169Y202592D01*
X398461Y202167D01*
X398742Y201735D01*
X399012Y201296D01*
X399272Y200851D01*
X399520Y200399D01*
X399758Y199942D01*
X399984Y199479D01*
X400198Y199010D01*
X400401Y198536D01*
X400593Y198058D01*
X400772Y197575D01*
X400940Y197087D01*
X401096Y196596D01*
X401239Y196101D01*
X401371Y195603D01*
X401490Y195101D01*
X401596Y194597D01*
X401691Y194090D01*
X401773Y193581D01*
X401842Y193071D01*
X401899Y192558D01*
X401943Y192045D01*
X401975Y191530D01*
X401994Y191015D01*
X402000Y190500D01*
X401994Y189985D01*
X401975Y189470D01*
X401943Y188955D01*
X401899Y188442D01*
X401842Y187929D01*
X401773Y187419D01*
X401691Y186910D01*
X401596Y186403D01*
X401490Y185899D01*
X401371Y185397D01*
X401239Y184899D01*
X401096Y184404D01*
X400940Y183913D01*
X400772Y183425D01*
X400593Y182942D01*
X400401Y182464D01*
X400198Y181990D01*
X399984Y181521D01*
X399758Y181058D01*
X399520Y180601D01*
X399272Y180149D01*
X399012Y179704D01*
X398742Y179265D01*
X398461Y178833D01*
X398169Y178408D01*
X397867Y177990D01*
X397555Y177580D01*
X397233Y177178D01*
X396901Y176783D01*
X396560Y176397D01*
X396209Y176020D01*
X395849Y175651D01*
X395480Y175291D01*
X395103Y174940D01*
X394717Y174599D01*
X394322Y174267D01*
X393920Y173945D01*
X393510Y173633D01*
X393092Y173331D01*
X392667Y173039D01*
X392235Y172758D01*
X391796Y172488D01*
X391351Y172228D01*
X390899Y171980D01*
X390442Y171742D01*
X389979Y171516D01*
X389510Y171302D01*
X389036Y171099D01*
X388558Y170907D01*
X388075Y170728D01*
X387587Y170560D01*
X387096Y170404D01*
X386601Y170261D01*
X386103Y170129D01*
X385601Y170010D01*
X385097Y169904D01*
X384590Y169809D01*
X384081Y169727D01*
X383571Y169658D01*
X383058Y169601D01*
X382545Y169557D01*
X382030Y169525D01*
X381515Y169506D01*
X381000Y169500D01*
X380485Y169506D01*
X379970Y169525D01*
X379455Y169557D01*
X378942Y169601D01*
X378429Y169658D01*
X377919Y169727D01*
X377410Y169809D01*
X376903Y169904D01*
X376399Y170010D01*
X375897Y170129D01*
X375399Y170261D01*
X374904Y170404D01*
X374413Y170560D01*
X373925Y170728D01*
X373442Y170907D01*
X372964Y171099D01*
X372490Y171302D01*
X372021Y171516D01*
X371558Y171742D01*
X371101Y171980D01*
X370649Y172228D01*
X370204Y172488D01*
X369765Y172758D01*
X369333Y173039D01*
X368908Y173331D01*
X368490Y173633D01*
X368080Y173945D01*
X367678Y174267D01*
X367283Y174599D01*
X366897Y174940D01*
X366520Y175291D01*
X366151Y175651D01*
X365791Y176020D01*
X365440Y176397D01*
X365099Y176783D01*
X364767Y177178D01*
X364445Y177580D01*
X364133Y177990D01*
X363831Y178408D01*
X363539Y178833D01*
X363258Y179265D01*
X362988Y179704D01*
X362728Y180149D01*
X362480Y180601D01*
X362242Y181058D01*
X362016Y181521D01*
X361802Y181990D01*
X361599Y182464D01*
X361407Y182942D01*
X361228Y183425D01*
X361060Y183913D01*
X360904Y184404D01*
X360761Y184899D01*
X360629Y185397D01*
X360510Y185899D01*
X360404Y186403D01*
X360309Y186910D01*
X360227Y187419D01*
X360158Y187929D01*
X360101Y188442D01*
X360057Y188955D01*
X360025Y189470D01*
X360006Y189985D01*
X360000Y190500D01*
X152000Y215500D02*
X152000Y165500D01*
X112000Y165500D01*
X102000Y165500D01*
X102000Y175500D01*
X102000Y215500D01*
X152000Y215500D01*
X102000Y175500D02*
X112000Y165500D01*
X98706Y161160D02*
X98708Y161235D01*
X98714Y161309D01*
X98724Y161383D01*
X98737Y161456D01*
X98755Y161529D01*
X98776Y161600D01*
X98801Y161671D01*
X98830Y161740D01*
X98863Y161807D01*
X98899Y161872D01*
X98938Y161936D01*
X98980Y161997D01*
X99026Y162056D01*
X99075Y162113D01*
X99127Y162166D01*
X99181Y162217D01*
X99238Y162266D01*
X99298Y162310D01*
X99360Y162352D01*
X99424Y162391D01*
X99490Y162426D01*
X99557Y162457D01*
X99627Y162485D01*
X99697Y162509D01*
X99769Y162530D01*
X99842Y162546D01*
X99915Y162559D01*
X99990Y162568D01*
X100064Y162573D01*
X100139Y162574D01*
X100213Y162571D01*
X100288Y162564D01*
X100361Y162553D01*
X100435Y162539D01*
X100507Y162520D01*
X100578Y162498D01*
X100648Y162472D01*
X100717Y162442D01*
X100783Y162409D01*
X100848Y162372D01*
X100911Y162332D01*
X100972Y162288D01*
X101030Y162242D01*
X101086Y162192D01*
X101139Y162140D01*
X101190Y162085D01*
X101237Y162027D01*
X101281Y161967D01*
X101322Y161904D01*
X101360Y161840D01*
X101394Y161774D01*
X101425Y161705D01*
X101452Y161636D01*
X101475Y161565D01*
X101494Y161493D01*
X101510Y161420D01*
X101522Y161346D01*
X101530Y161272D01*
X101534Y161197D01*
X101534Y161123D01*
X101530Y161048D01*
X101522Y160974D01*
X101510Y160900D01*
X101494Y160827D01*
X101475Y160755D01*
X101452Y160684D01*
X101425Y160615D01*
X101394Y160546D01*
X101360Y160480D01*
X101322Y160416D01*
X101281Y160353D01*
X101237Y160293D01*
X101190Y160235D01*
X101139Y160180D01*
X101086Y160128D01*
X101030Y160078D01*
X100972Y160032D01*
X100911Y159988D01*
X100848Y159948D01*
X100783Y159911D01*
X100717Y159878D01*
X100648Y159848D01*
X100578Y159822D01*
X100507Y159800D01*
X100435Y159781D01*
X100361Y159767D01*
X100288Y159756D01*
X100213Y159749D01*
X100139Y159746D01*
X100064Y159747D01*
X99990Y159752D01*
X99915Y159761D01*
X99842Y159774D01*
X99769Y159790D01*
X99697Y159811D01*
X99627Y159835D01*
X99557Y159863D01*
X99490Y159894D01*
X99424Y159929D01*
X99360Y159968D01*
X99298Y160010D01*
X99238Y160054D01*
X99181Y160103D01*
X99127Y160154D01*
X99075Y160207D01*
X99026Y160264D01*
X98980Y160323D01*
X98938Y160384D01*
X98899Y160448D01*
X98863Y160513D01*
X98830Y160580D01*
X98801Y160649D01*
X98776Y160720D01*
X98755Y160791D01*
X98737Y160864D01*
X98724Y160937D01*
X98714Y161011D01*
X98708Y161085D01*
X98706Y161160D01*
X106000Y190500D02*
X106006Y191015D01*
X106025Y191530D01*
X106057Y192045D01*
X106101Y192558D01*
X106158Y193071D01*
X106227Y193581D01*
X106309Y194090D01*
X106404Y194597D01*
X106510Y195101D01*
X106629Y195603D01*
X106761Y196101D01*
X106904Y196596D01*
X107060Y197087D01*
X107228Y197575D01*
X107407Y198058D01*
X107599Y198536D01*
X107802Y199010D01*
X108016Y199479D01*
X108242Y199942D01*
X108480Y200399D01*
X108728Y200851D01*
X108988Y201296D01*
X109258Y201735D01*
X109539Y202167D01*
X109831Y202592D01*
X110133Y203010D01*
X110445Y203420D01*
X110767Y203822D01*
X111099Y204217D01*
X111440Y204603D01*
X111791Y204980D01*
X112151Y205349D01*
X112520Y205709D01*
X112897Y206060D01*
X113283Y206401D01*
X113678Y206733D01*
X114080Y207055D01*
X114490Y207367D01*
X114908Y207669D01*
X115333Y207961D01*
X115765Y208242D01*
X116204Y208512D01*
X116649Y208772D01*
X117101Y209020D01*
X117558Y209258D01*
X118021Y209484D01*
X118490Y209698D01*
X118964Y209901D01*
X119442Y210093D01*
X119925Y210272D01*
X120413Y210440D01*
X120904Y210596D01*
X121399Y210739D01*
X121897Y210871D01*
X122399Y210990D01*
X122903Y211096D01*
X123410Y211191D01*
X123919Y211273D01*
X124429Y211342D01*
X124942Y211399D01*
X125455Y211443D01*
X125970Y211475D01*
X126485Y211494D01*
X127000Y211500D01*
X127515Y211494D01*
X128030Y211475D01*
X128545Y211443D01*
X129058Y211399D01*
X129571Y211342D01*
X130081Y211273D01*
X130590Y211191D01*
X131097Y211096D01*
X131601Y210990D01*
X132103Y210871D01*
X132601Y210739D01*
X133096Y210596D01*
X133587Y210440D01*
X134075Y210272D01*
X134558Y210093D01*
X135036Y209901D01*
X135510Y209698D01*
X135979Y209484D01*
X136442Y209258D01*
X136899Y209020D01*
X137351Y208772D01*
X137796Y208512D01*
X138235Y208242D01*
X138667Y207961D01*
X139092Y207669D01*
X139510Y207367D01*
X139920Y207055D01*
X140322Y206733D01*
X140717Y206401D01*
X141103Y206060D01*
X141480Y205709D01*
X141849Y205349D01*
X142209Y204980D01*
X142560Y204603D01*
X142901Y204217D01*
X143233Y203822D01*
X143555Y203420D01*
X143867Y203010D01*
X144169Y202592D01*
X144461Y202167D01*
X144742Y201735D01*
X145012Y201296D01*
X145272Y200851D01*
X145520Y200399D01*
X145758Y199942D01*
X145984Y199479D01*
X146198Y199010D01*
X146401Y198536D01*
X146593Y198058D01*
X146772Y197575D01*
X146940Y197087D01*
X147096Y196596D01*
X147239Y196101D01*
X147371Y195603D01*
X147490Y195101D01*
X147596Y194597D01*
X147691Y194090D01*
X147773Y193581D01*
X147842Y193071D01*
X147899Y192558D01*
X147943Y192045D01*
X147975Y191530D01*
X147994Y191015D01*
X148000Y190500D01*
X147994Y189985D01*
X147975Y189470D01*
X147943Y188955D01*
X147899Y188442D01*
X147842Y187929D01*
X147773Y187419D01*
X147691Y186910D01*
X147596Y186403D01*
X147490Y185899D01*
X147371Y185397D01*
X147239Y184899D01*
X147096Y184404D01*
X146940Y183913D01*
X146772Y183425D01*
X146593Y182942D01*
X146401Y182464D01*
X146198Y181990D01*
X145984Y181521D01*
X145758Y181058D01*
X145520Y180601D01*
X145272Y180149D01*
X145012Y179704D01*
X144742Y179265D01*
X144461Y178833D01*
X144169Y178408D01*
X143867Y177990D01*
X143555Y177580D01*
X143233Y177178D01*
X142901Y176783D01*
X142560Y176397D01*
X142209Y176020D01*
X141849Y175651D01*
X141480Y175291D01*
X141103Y174940D01*
X140717Y174599D01*
X140322Y174267D01*
X139920Y173945D01*
X139510Y173633D01*
X139092Y173331D01*
X138667Y173039D01*
X138235Y172758D01*
X137796Y172488D01*
X137351Y172228D01*
X136899Y171980D01*
X136442Y171742D01*
X135979Y171516D01*
X135510Y171302D01*
X135036Y171099D01*
X134558Y170907D01*
X134075Y170728D01*
X133587Y170560D01*
X133096Y170404D01*
X132601Y170261D01*
X132103Y170129D01*
X131601Y170010D01*
X131097Y169904D01*
X130590Y169809D01*
X130081Y169727D01*
X129571Y169658D01*
X129058Y169601D01*
X128545Y169557D01*
X128030Y169525D01*
X127515Y169506D01*
X127000Y169500D01*
X126485Y169506D01*
X125970Y169525D01*
X125455Y169557D01*
X124942Y169601D01*
X124429Y169658D01*
X123919Y169727D01*
X123410Y169809D01*
X122903Y169904D01*
X122399Y170010D01*
X121897Y170129D01*
X121399Y170261D01*
X120904Y170404D01*
X120413Y170560D01*
X119925Y170728D01*
X119442Y170907D01*
X118964Y171099D01*
X118490Y171302D01*
X118021Y171516D01*
X117558Y171742D01*
X117101Y171980D01*
X116649Y172228D01*
X116204Y172488D01*
X115765Y172758D01*
X115333Y173039D01*
X114908Y173331D01*
X114490Y173633D01*
X114080Y173945D01*
X113678Y174267D01*
X113283Y174599D01*
X112897Y174940D01*
X112520Y175291D01*
X112151Y175651D01*
X111791Y176020D01*
X111440Y176397D01*
X111099Y176783D01*
X110767Y177178D01*
X110445Y177580D01*
X110133Y177990D01*
X109831Y178408D01*
X109539Y178833D01*
X109258Y179265D01*
X108988Y179704D01*
X108728Y180149D01*
X108480Y180601D01*
X108242Y181058D01*
X108016Y181521D01*
X107802Y181990D01*
X107599Y182464D01*
X107407Y182942D01*
X107228Y183425D01*
X107060Y183913D01*
X106904Y184404D01*
X106761Y184899D01*
X106629Y185397D01*
X106510Y185899D01*
X106404Y186403D01*
X106309Y186910D01*
X106227Y187419D01*
X106158Y187929D01*
X106101Y188442D01*
X106057Y188955D01*
X106025Y189470D01*
X106006Y189985D01*
X106000Y190500D01*
X603250Y63500D02*
X603260Y64279D01*
X603288Y65058D01*
X603336Y65836D01*
X603403Y66612D01*
X603489Y67387D01*
X603594Y68159D01*
X603717Y68928D01*
X603860Y69694D01*
X604021Y70456D01*
X604202Y71215D01*
X604400Y71968D01*
X604617Y72717D01*
X604852Y73459D01*
X605106Y74196D01*
X605377Y74927D01*
X605667Y75650D01*
X605974Y76366D01*
X606298Y77075D01*
X606640Y77775D01*
X606999Y78467D01*
X607375Y79150D01*
X607767Y79823D01*
X608176Y80486D01*
X608601Y81139D01*
X609042Y81782D01*
X609498Y82413D01*
X609970Y83034D01*
X610457Y83642D01*
X610959Y84238D01*
X611475Y84822D01*
X612005Y85393D01*
X612549Y85951D01*
X613107Y86495D01*
X613678Y87025D01*
X614262Y87541D01*
X614858Y88043D01*
X615466Y88530D01*
X616087Y89002D01*
X616718Y89458D01*
X617361Y89899D01*
X618014Y90324D01*
X618677Y90733D01*
X619350Y91125D01*
X620033Y91501D01*
X620725Y91860D01*
X621425Y92202D01*
X622134Y92526D01*
X622850Y92833D01*
X623573Y93123D01*
X624304Y93394D01*
X625041Y93648D01*
X625783Y93883D01*
X626532Y94100D01*
X627285Y94298D01*
X628044Y94479D01*
X628806Y94640D01*
X629572Y94783D01*
X630341Y94906D01*
X631113Y95011D01*
X631888Y95097D01*
X632664Y95164D01*
X633442Y95212D01*
X634221Y95240D01*
X635000Y95250D01*
X635779Y95240D01*
X636558Y95212D01*
X637336Y95164D01*
X638112Y95097D01*
X638887Y95011D01*
X639659Y94906D01*
X640428Y94783D01*
X641194Y94640D01*
X641956Y94479D01*
X642715Y94298D01*
X643468Y94100D01*
X644217Y93883D01*
X644959Y93648D01*
X645696Y93394D01*
X646427Y93123D01*
X647150Y92833D01*
X647866Y92526D01*
X648575Y92202D01*
X649275Y91860D01*
X649967Y91501D01*
X650650Y91125D01*
X651323Y90733D01*
X651986Y90324D01*
X652639Y89899D01*
X653282Y89458D01*
X653913Y89002D01*
X654534Y88530D01*
X655142Y88043D01*
X655738Y87541D01*
X656322Y87025D01*
X656893Y86495D01*
X657451Y85951D01*
X657995Y85393D01*
X658525Y84822D01*
X659041Y84238D01*
X659543Y83642D01*
X660030Y83034D01*
X660502Y82413D01*
X660958Y81782D01*
X661399Y81139D01*
X661824Y80486D01*
X662233Y79823D01*
X662625Y79150D01*
X663001Y78467D01*
X663360Y77775D01*
X663702Y77075D01*
X664026Y76366D01*
X664333Y75650D01*
X664623Y74927D01*
X664894Y74196D01*
X665148Y73459D01*
X665383Y72717D01*
X665600Y71968D01*
X665798Y71215D01*
X665979Y70456D01*
X666140Y69694D01*
X666283Y68928D01*
X666406Y68159D01*
X666511Y67387D01*
X666597Y66612D01*
X666664Y65836D01*
X666712Y65058D01*
X666740Y64279D01*
X666750Y63500D01*
X666740Y62721D01*
X666712Y61942D01*
X666664Y61164D01*
X666597Y60388D01*
X666511Y59613D01*
X666406Y58841D01*
X666283Y58072D01*
X666140Y57306D01*
X665979Y56544D01*
X665798Y55785D01*
X665600Y55032D01*
X665383Y54283D01*
X665148Y53541D01*
X664894Y52804D01*
X664623Y52073D01*
X664333Y51350D01*
X664026Y50634D01*
X663702Y49925D01*
X663360Y49225D01*
X663001Y48533D01*
X662625Y47850D01*
X662233Y47177D01*
X661824Y46514D01*
X661399Y45861D01*
X660958Y45218D01*
X660502Y44587D01*
X660030Y43966D01*
X659543Y43358D01*
X659041Y42762D01*
X658525Y42178D01*
X657995Y41607D01*
X657451Y41049D01*
X656893Y40505D01*
X656322Y39975D01*
X655738Y39459D01*
X655142Y38957D01*
X654534Y38470D01*
X653913Y37998D01*
X653282Y37542D01*
X652639Y37101D01*
X651986Y36676D01*
X651323Y36267D01*
X650650Y35875D01*
X649967Y35499D01*
X649275Y35140D01*
X648575Y34798D01*
X647866Y34474D01*
X647150Y34167D01*
X646427Y33877D01*
X645696Y33606D01*
X644959Y33352D01*
X644217Y33117D01*
X643468Y32900D01*
X642715Y32702D01*
X641956Y32521D01*
X641194Y32360D01*
X640428Y32217D01*
X639659Y32094D01*
X638887Y31989D01*
X638112Y31903D01*
X637336Y31836D01*
X636558Y31788D01*
X635779Y31760D01*
X635000Y31750D01*
X634221Y31760D01*
X633442Y31788D01*
X632664Y31836D01*
X631888Y31903D01*
X631113Y31989D01*
X630341Y32094D01*
X629572Y32217D01*
X628806Y32360D01*
X628044Y32521D01*
X627285Y32702D01*
X626532Y32900D01*
X625783Y33117D01*
X625041Y33352D01*
X624304Y33606D01*
X623573Y33877D01*
X622850Y34167D01*
X622134Y34474D01*
X621425Y34798D01*
X620725Y35140D01*
X620033Y35499D01*
X619350Y35875D01*
X618677Y36267D01*
X618014Y36676D01*
X617361Y37101D01*
X616718Y37542D01*
X616087Y37998D01*
X615466Y38470D01*
X614858Y38957D01*
X614262Y39459D01*
X613678Y39975D01*
X613107Y40505D01*
X612549Y41049D01*
X612005Y41607D01*
X611475Y42178D01*
X610959Y42762D01*
X610457Y43358D01*
X609970Y43966D01*
X609498Y44587D01*
X609042Y45218D01*
X608601Y45861D01*
X608176Y46514D01*
X607767Y47177D01*
X607375Y47850D01*
X606999Y48533D01*
X606640Y49225D01*
X606298Y49925D01*
X605974Y50634D01*
X605667Y51350D01*
X605377Y52073D01*
X605106Y52804D01*
X604852Y53541D01*
X604617Y54283D01*
X604400Y55032D01*
X604202Y55785D01*
X604021Y56544D01*
X603860Y57306D01*
X603717Y58072D01*
X603594Y58841D01*
X603489Y59613D01*
X603403Y60388D01*
X603336Y61164D01*
X603288Y61942D01*
X603260Y62721D01*
X603250Y63500D01*
X349250Y63500D02*
X349260Y64279D01*
X349288Y65058D01*
X349336Y65836D01*
X349403Y66612D01*
X349489Y67387D01*
X349594Y68159D01*
X349717Y68928D01*
X349860Y69694D01*
X350021Y70456D01*
X350202Y71215D01*
X350400Y71968D01*
X350617Y72717D01*
X350852Y73459D01*
X351106Y74196D01*
X351377Y74927D01*
X351667Y75650D01*
X351974Y76366D01*
X352298Y77075D01*
X352640Y77775D01*
X352999Y78467D01*
X353375Y79150D01*
X353767Y79823D01*
X354176Y80486D01*
X354601Y81139D01*
X355042Y81782D01*
X355498Y82413D01*
X355970Y83034D01*
X356457Y83642D01*
X356959Y84238D01*
X357475Y84822D01*
X358005Y85393D01*
X358549Y85951D01*
X359107Y86495D01*
X359678Y87025D01*
X360262Y87541D01*
X360858Y88043D01*
X361466Y88530D01*
X362087Y89002D01*
X362718Y89458D01*
X363361Y89899D01*
X364014Y90324D01*
X364677Y90733D01*
X365350Y91125D01*
X366033Y91501D01*
X366725Y91860D01*
X367425Y92202D01*
X368134Y92526D01*
X368850Y92833D01*
X369573Y93123D01*
X370304Y93394D01*
X371041Y93648D01*
X371783Y93883D01*
X372532Y94100D01*
X373285Y94298D01*
X374044Y94479D01*
X374806Y94640D01*
X375572Y94783D01*
X376341Y94906D01*
X377113Y95011D01*
X377888Y95097D01*
X378664Y95164D01*
X379442Y95212D01*
X380221Y95240D01*
X381000Y95250D01*
X381779Y95240D01*
X382558Y95212D01*
X383336Y95164D01*
X384112Y95097D01*
X384887Y95011D01*
X385659Y94906D01*
X386428Y94783D01*
X387194Y94640D01*
X387956Y94479D01*
X388715Y94298D01*
X389468Y94100D01*
X390217Y93883D01*
X390959Y93648D01*
X391696Y93394D01*
X392427Y93123D01*
X393150Y92833D01*
X393866Y92526D01*
X394575Y92202D01*
X395275Y91860D01*
X395967Y91501D01*
X396650Y91125D01*
X397323Y90733D01*
X397986Y90324D01*
X398639Y89899D01*
X399282Y89458D01*
X399913Y89002D01*
X400534Y88530D01*
X401142Y88043D01*
X401738Y87541D01*
X402322Y87025D01*
X402893Y86495D01*
X403451Y85951D01*
X403995Y85393D01*
X404525Y84822D01*
X405041Y84238D01*
X405543Y83642D01*
X406030Y83034D01*
X406502Y82413D01*
X406958Y81782D01*
X407399Y81139D01*
X407824Y80486D01*
X408233Y79823D01*
X408625Y79150D01*
X409001Y78467D01*
X409360Y77775D01*
X409702Y77075D01*
X410026Y76366D01*
X410333Y75650D01*
X410623Y74927D01*
X410894Y74196D01*
X411148Y73459D01*
X411383Y72717D01*
X411600Y71968D01*
X411798Y71215D01*
X411979Y70456D01*
X412140Y69694D01*
X412283Y68928D01*
X412406Y68159D01*
X412511Y67387D01*
X412597Y66612D01*
X412664Y65836D01*
X412712Y65058D01*
X412740Y64279D01*
X412750Y63500D01*
X412740Y62721D01*
X412712Y61942D01*
X412664Y61164D01*
X412597Y60388D01*
X412511Y59613D01*
X412406Y58841D01*
X412283Y58072D01*
X412140Y57306D01*
X411979Y56544D01*
X411798Y55785D01*
X411600Y55032D01*
X411383Y54283D01*
X411148Y53541D01*
X410894Y52804D01*
X410623Y52073D01*
X410333Y51350D01*
X410026Y50634D01*
X409702Y49925D01*
X409360Y49225D01*
X409001Y48533D01*
X408625Y47850D01*
X408233Y47177D01*
X407824Y46514D01*
X407399Y45861D01*
X406958Y45218D01*
X406502Y44587D01*
X406030Y43966D01*
X405543Y43358D01*
X405041Y42762D01*
X404525Y42178D01*
X403995Y41607D01*
X403451Y41049D01*
X402893Y40505D01*
X402322Y39975D01*
X401738Y39459D01*
X401142Y38957D01*
X400534Y38470D01*
X399913Y37998D01*
X399282Y37542D01*
X398639Y37101D01*
X397986Y36676D01*
X397323Y36267D01*
X396650Y35875D01*
X395967Y35499D01*
X395275Y35140D01*
X394575Y34798D01*
X393866Y34474D01*
X393150Y34167D01*
X392427Y33877D01*
X391696Y33606D01*
X390959Y33352D01*
X390217Y33117D01*
X389468Y32900D01*
X388715Y32702D01*
X387956Y32521D01*
X387194Y32360D01*
X386428Y32217D01*
X385659Y32094D01*
X384887Y31989D01*
X384112Y31903D01*
X383336Y31836D01*
X382558Y31788D01*
X381779Y31760D01*
X381000Y31750D01*
X380221Y31760D01*
X379442Y31788D01*
X378664Y31836D01*
X377888Y31903D01*
X377113Y31989D01*
X376341Y32094D01*
X375572Y32217D01*
X374806Y32360D01*
X374044Y32521D01*
X373285Y32702D01*
X372532Y32900D01*
X371783Y33117D01*
X371041Y33352D01*
X370304Y33606D01*
X369573Y33877D01*
X368850Y34167D01*
X368134Y34474D01*
X367425Y34798D01*
X366725Y35140D01*
X366033Y35499D01*
X365350Y35875D01*
X364677Y36267D01*
X364014Y36676D01*
X363361Y37101D01*
X362718Y37542D01*
X362087Y37998D01*
X361466Y38470D01*
X360858Y38957D01*
X360262Y39459D01*
X359678Y39975D01*
X359107Y40505D01*
X358549Y41049D01*
X358005Y41607D01*
X357475Y42178D01*
X356959Y42762D01*
X356457Y43358D01*
X355970Y43966D01*
X355498Y44587D01*
X355042Y45218D01*
X354601Y45861D01*
X354176Y46514D01*
X353767Y47177D01*
X353375Y47850D01*
X352999Y48533D01*
X352640Y49225D01*
X352298Y49925D01*
X351974Y50634D01*
X351667Y51350D01*
X351377Y52073D01*
X351106Y52804D01*
X350852Y53541D01*
X350617Y54283D01*
X350400Y55032D01*
X350202Y55785D01*
X350021Y56544D01*
X349860Y57306D01*
X349717Y58072D01*
X349594Y58841D01*
X349489Y59613D01*
X349403Y60388D01*
X349336Y61164D01*
X349288Y61942D01*
X349260Y62721D01*
X349250Y63500D01*
X95250Y63500D02*
X95260Y64279D01*
X95288Y65058D01*
X95336Y65836D01*
X95403Y66612D01*
X95489Y67387D01*
X95594Y68159D01*
X95717Y68928D01*
X95860Y69694D01*
X96021Y70456D01*
X96202Y71215D01*
X96400Y71968D01*
X96617Y72717D01*
X96852Y73459D01*
X97106Y74196D01*
X97377Y74927D01*
X97667Y75650D01*
X97974Y76366D01*
X98298Y77075D01*
X98640Y77775D01*
X98999Y78467D01*
X99375Y79150D01*
X99767Y79823D01*
X100176Y80486D01*
X100601Y81139D01*
X101042Y81782D01*
X101498Y82413D01*
X101970Y83034D01*
X102457Y83642D01*
X102959Y84238D01*
X103475Y84822D01*
X104005Y85393D01*
X104549Y85951D01*
X105107Y86495D01*
X105678Y87025D01*
X106262Y87541D01*
X106858Y88043D01*
X107466Y88530D01*
X108087Y89002D01*
X108718Y89458D01*
X109361Y89899D01*
X110014Y90324D01*
X110677Y90733D01*
X111350Y91125D01*
X112033Y91501D01*
X112725Y91860D01*
X113425Y92202D01*
X114134Y92526D01*
X114850Y92833D01*
X115573Y93123D01*
X116304Y93394D01*
X117041Y93648D01*
X117783Y93883D01*
X118532Y94100D01*
X119285Y94298D01*
X120044Y94479D01*
X120806Y94640D01*
X121572Y94783D01*
X122341Y94906D01*
X123113Y95011D01*
X123888Y95097D01*
X124664Y95164D01*
X125442Y95212D01*
X126221Y95240D01*
X127000Y95250D01*
X127779Y95240D01*
X128558Y95212D01*
X129336Y95164D01*
X130112Y95097D01*
X130887Y95011D01*
X131659Y94906D01*
X132428Y94783D01*
X133194Y94640D01*
X133956Y94479D01*
X134715Y94298D01*
X135468Y94100D01*
X136217Y93883D01*
X136959Y93648D01*
X137696Y93394D01*
X138427Y93123D01*
X139150Y92833D01*
X139866Y92526D01*
X140575Y92202D01*
X141275Y91860D01*
X141967Y91501D01*
X142650Y91125D01*
X143323Y90733D01*
X143986Y90324D01*
X144639Y89899D01*
X145282Y89458D01*
X145913Y89002D01*
X146534Y88530D01*
X147142Y88043D01*
X147738Y87541D01*
X148322Y87025D01*
X148893Y86495D01*
X149451Y85951D01*
X149995Y85393D01*
X150525Y84822D01*
X151041Y84238D01*
X151543Y83642D01*
X152030Y83034D01*
X152502Y82413D01*
X152958Y81782D01*
X153399Y81139D01*
X153824Y80486D01*
X154233Y79823D01*
X154625Y79150D01*
X155001Y78467D01*
X155360Y77775D01*
X155702Y77075D01*
X156026Y76366D01*
X156333Y75650D01*
X156623Y74927D01*
X156894Y74196D01*
X157148Y73459D01*
X157383Y72717D01*
X157600Y71968D01*
X157798Y71215D01*
X157979Y70456D01*
X158140Y69694D01*
X158283Y68928D01*
X158406Y68159D01*
X158511Y67387D01*
X158597Y66612D01*
X158664Y65836D01*
X158712Y65058D01*
X158740Y64279D01*
X158750Y63500D01*
X158740Y62721D01*
X158712Y61942D01*
X158664Y61164D01*
X158597Y60388D01*
X158511Y59613D01*
X158406Y58841D01*
X158283Y58072D01*
X158140Y57306D01*
X157979Y56544D01*
X157798Y55785D01*
X157600Y55032D01*
X157383Y54283D01*
X157148Y53541D01*
X156894Y52804D01*
X156623Y52073D01*
X156333Y51350D01*
X156026Y50634D01*
X155702Y49925D01*
X155360Y49225D01*
X155001Y48533D01*
X154625Y47850D01*
X154233Y47177D01*
X153824Y46514D01*
X153399Y45861D01*
X152958Y45218D01*
X152502Y44587D01*
X152030Y43966D01*
X151543Y43358D01*
X151041Y42762D01*
X150525Y42178D01*
X149995Y41607D01*
X149451Y41049D01*
X148893Y40505D01*
X148322Y39975D01*
X147738Y39459D01*
X147142Y38957D01*
X146534Y38470D01*
X145913Y37998D01*
X145282Y37542D01*
X144639Y37101D01*
X143986Y36676D01*
X143323Y36267D01*
X142650Y35875D01*
X141967Y35499D01*
X141275Y35140D01*
X140575Y34798D01*
X139866Y34474D01*
X139150Y34167D01*
X138427Y33877D01*
X137696Y33606D01*
X136959Y33352D01*
X136217Y33117D01*
X135468Y32900D01*
X134715Y32702D01*
X133956Y32521D01*
X133194Y32360D01*
X132428Y32217D01*
X131659Y32094D01*
X130887Y31989D01*
X130112Y31903D01*
X129336Y31836D01*
X128558Y31788D01*
X127779Y31760D01*
X127000Y31750D01*
X126221Y31760D01*
X125442Y31788D01*
X124664Y31836D01*
X123888Y31903D01*
X123113Y31989D01*
X122341Y32094D01*
X121572Y32217D01*
X120806Y32360D01*
X120044Y32521D01*
X119285Y32702D01*
X118532Y32900D01*
X117783Y33117D01*
X117041Y33352D01*
X116304Y33606D01*
X115573Y33877D01*
X114850Y34167D01*
X114134Y34474D01*
X113425Y34798D01*
X112725Y35140D01*
X112033Y35499D01*
X111350Y35875D01*
X110677Y36267D01*
X110014Y36676D01*
X109361Y37101D01*
X108718Y37542D01*
X108087Y37998D01*
X107466Y38470D01*
X106858Y38957D01*
X106262Y39459D01*
X105678Y39975D01*
X105107Y40505D01*
X104549Y41049D01*
X104005Y41607D01*
X103475Y42178D01*
X102959Y42762D01*
X102457Y43358D01*
X101970Y43966D01*
X101498Y44587D01*
X101042Y45218D01*
X100601Y45861D01*
X100176Y46514D01*
X99767Y47177D01*
X99375Y47850D01*
X98999Y48533D01*
X98640Y49225D01*
X98298Y49925D01*
X97974Y50634D01*
X97667Y51350D01*
X97377Y52073D01*
X97106Y52804D01*
X96852Y53541D01*
X96617Y54283D01*
X96400Y55032D01*
X96202Y55785D01*
X96021Y56544D01*
X95860Y57306D01*
X95717Y58072D01*
X95594Y58841D01*
X95489Y59613D01*
X95403Y60388D01*
X95336Y61164D01*
X95288Y61942D01*
X95260Y62721D01*
X95250Y63500D01*
D17*
X762000Y95250D02*
X762000Y107950D01*
X762000Y95250D02*
X755650Y88900D01*
X742950Y88900D02*
X736600Y95250D01*
X755650Y88900D02*
X762000Y82550D01*
X762000Y69850D01*
X755650Y63500D01*
X742950Y63500D02*
X736600Y69850D01*
X736600Y82550D01*
X742950Y88900D01*
X762000Y133350D02*
X755650Y139700D01*
X762000Y133350D02*
X762000Y120650D01*
X755650Y114300D01*
X742950Y114300D02*
X736600Y120650D01*
X736600Y133350D01*
X742950Y139700D01*
X755650Y114300D02*
X762000Y107950D01*
X742950Y114300D02*
X736600Y107950D01*
X736600Y95250D01*
X762000Y171450D02*
X762000Y184150D01*
X762000Y171450D02*
X755650Y165100D01*
X742950Y165100D02*
X736600Y171450D01*
X755650Y165100D02*
X762000Y158750D01*
X762000Y146050D01*
X755650Y139700D01*
X742950Y139700D02*
X736600Y146050D01*
X736600Y158750D01*
X742950Y165100D01*
X742950Y190500D02*
X755650Y190500D01*
X762000Y184150D01*
X742950Y190500D02*
X736600Y184150D01*
X736600Y171450D01*
X742950Y63500D02*
X755650Y63500D01*
X0Y146050D02*
X0Y158750D01*
X6350Y165100D01*
X19050Y165100D02*
X25400Y158750D01*
X6350Y165100D02*
X0Y171450D01*
X0Y184150D01*
X6350Y190500D01*
X19050Y190500D02*
X25400Y184150D01*
X25400Y171450D01*
X19050Y165100D01*
X0Y120650D02*
X6350Y114300D01*
X0Y120650D02*
X0Y133350D01*
X6350Y139700D01*
X19050Y139700D02*
X25400Y133350D01*
X25400Y120650D01*
X19050Y114300D01*
X6350Y139700D02*
X0Y146050D01*
X19050Y139700D02*
X25400Y146050D01*
X25400Y158750D01*
X0Y82550D02*
X0Y69850D01*
X0Y82550D02*
X6350Y88900D01*
X19050Y88900D02*
X25400Y82550D01*
X6350Y88900D02*
X0Y95250D01*
X0Y107950D01*
X6350Y114300D01*
X19050Y114300D02*
X25400Y107950D01*
X25400Y95250D01*
X19050Y88900D01*
X19050Y63500D02*
X6350Y63500D01*
X0Y69850D01*
X19050Y63500D02*
X25400Y69850D01*
X25400Y82550D01*
X19050Y190500D02*
X6350Y190500D01*
D10*
X473710Y127000D02*
X473720Y127842D01*
X473751Y128683D01*
X473803Y129523D01*
X473875Y130361D01*
X473968Y131197D01*
X474081Y132031D01*
X474215Y132862D01*
X474369Y133690D01*
X474543Y134513D01*
X474738Y135332D01*
X474952Y136146D01*
X475187Y136954D01*
X475441Y137756D01*
X475714Y138552D01*
X476008Y139341D01*
X476320Y140122D01*
X476652Y140896D01*
X477002Y141661D01*
X477371Y142417D01*
X477759Y143164D01*
X478165Y143901D01*
X478588Y144629D01*
X479030Y145345D01*
X479489Y146051D01*
X479965Y146744D01*
X480458Y147427D01*
X480968Y148096D01*
X481493Y148753D01*
X482035Y149397D01*
X482593Y150028D01*
X483166Y150644D01*
X483753Y151247D01*
X484356Y151834D01*
X484972Y152407D01*
X485603Y152965D01*
X486247Y153507D01*
X486904Y154032D01*
X487573Y154542D01*
X488256Y155035D01*
X488949Y155511D01*
X489655Y155970D01*
X490371Y156412D01*
X491099Y156835D01*
X491836Y157241D01*
X492583Y157629D01*
X493339Y157998D01*
X494104Y158348D01*
X494878Y158680D01*
X495659Y158992D01*
X496448Y159286D01*
X497244Y159559D01*
X498046Y159813D01*
X498854Y160048D01*
X499668Y160262D01*
X500487Y160457D01*
X501310Y160631D01*
X502138Y160785D01*
X502969Y160919D01*
X503803Y161032D01*
X504639Y161125D01*
X505477Y161197D01*
X506317Y161249D01*
X507158Y161280D01*
X508000Y161290D01*
X508842Y161280D01*
X509683Y161249D01*
X510523Y161197D01*
X511361Y161125D01*
X512197Y161032D01*
X513031Y160919D01*
X513862Y160785D01*
X514690Y160631D01*
X515513Y160457D01*
X516332Y160262D01*
X517146Y160048D01*
X517954Y159813D01*
X518756Y159559D01*
X519552Y159286D01*
X520341Y158992D01*
X521122Y158680D01*
X521896Y158348D01*
X522661Y157998D01*
X523417Y157629D01*
X524164Y157241D01*
X524901Y156835D01*
X525629Y156412D01*
X526345Y155970D01*
X527051Y155511D01*
X527744Y155035D01*
X528427Y154542D01*
X529096Y154032D01*
X529753Y153507D01*
X530397Y152965D01*
X531028Y152407D01*
X531644Y151834D01*
X532247Y151247D01*
X532834Y150644D01*
X533407Y150028D01*
X533965Y149397D01*
X534507Y148753D01*
X535032Y148096D01*
X535542Y147427D01*
X536035Y146744D01*
X536511Y146051D01*
X536970Y145345D01*
X537412Y144629D01*
X537835Y143901D01*
X538241Y143164D01*
X538629Y142417D01*
X538998Y141661D01*
X539348Y140896D01*
X539680Y140122D01*
X539992Y139341D01*
X540286Y138552D01*
X540559Y137756D01*
X540813Y136954D01*
X541048Y136146D01*
X541262Y135332D01*
X541457Y134513D01*
X541631Y133690D01*
X541785Y132862D01*
X541919Y132031D01*
X542032Y131197D01*
X542125Y130361D01*
X542197Y129523D01*
X542249Y128683D01*
X542280Y127842D01*
X542290Y127000D01*
X542280Y126158D01*
X542249Y125317D01*
X542197Y124477D01*
X542125Y123639D01*
X542032Y122803D01*
X541919Y121969D01*
X541785Y121138D01*
X541631Y120310D01*
X541457Y119487D01*
X541262Y118668D01*
X541048Y117854D01*
X540813Y117046D01*
X540559Y116244D01*
X540286Y115448D01*
X539992Y114659D01*
X539680Y113878D01*
X539348Y113104D01*
X538998Y112339D01*
X538629Y111583D01*
X538241Y110836D01*
X537835Y110099D01*
X537412Y109371D01*
X536970Y108655D01*
X536511Y107949D01*
X536035Y107256D01*
X535542Y106573D01*
X535032Y105904D01*
X534507Y105247D01*
X533965Y104603D01*
X533407Y103972D01*
X532834Y103356D01*
X532247Y102753D01*
X531644Y102166D01*
X531028Y101593D01*
X530397Y101035D01*
X529753Y100493D01*
X529096Y99968D01*
X528427Y99458D01*
X527744Y98965D01*
X527051Y98489D01*
X526345Y98030D01*
X525629Y97588D01*
X524901Y97165D01*
X524164Y96759D01*
X523417Y96371D01*
X522661Y96002D01*
X521896Y95652D01*
X521122Y95320D01*
X520341Y95008D01*
X519552Y94714D01*
X518756Y94441D01*
X517954Y94187D01*
X517146Y93952D01*
X516332Y93738D01*
X515513Y93543D01*
X514690Y93369D01*
X513862Y93215D01*
X513031Y93081D01*
X512197Y92968D01*
X511361Y92875D01*
X510523Y92803D01*
X509683Y92751D01*
X508842Y92720D01*
X508000Y92710D01*
X507158Y92720D01*
X506317Y92751D01*
X505477Y92803D01*
X504639Y92875D01*
X503803Y92968D01*
X502969Y93081D01*
X502138Y93215D01*
X501310Y93369D01*
X500487Y93543D01*
X499668Y93738D01*
X498854Y93952D01*
X498046Y94187D01*
X497244Y94441D01*
X496448Y94714D01*
X495659Y95008D01*
X494878Y95320D01*
X494104Y95652D01*
X493339Y96002D01*
X492583Y96371D01*
X491836Y96759D01*
X491099Y97165D01*
X490371Y97588D01*
X489655Y98030D01*
X488949Y98489D01*
X488256Y98965D01*
X487573Y99458D01*
X486904Y99968D01*
X486247Y100493D01*
X485603Y101035D01*
X484972Y101593D01*
X484356Y102166D01*
X483753Y102753D01*
X483166Y103356D01*
X482593Y103972D01*
X482035Y104603D01*
X481493Y105247D01*
X480968Y105904D01*
X480458Y106573D01*
X479965Y107256D01*
X479489Y107949D01*
X479030Y108655D01*
X478588Y109371D01*
X478165Y110099D01*
X477759Y110836D01*
X477371Y111583D01*
X477002Y112339D01*
X476652Y113104D01*
X476320Y113878D01*
X476008Y114659D01*
X475714Y115448D01*
X475441Y116244D01*
X475187Y117046D01*
X474952Y117854D01*
X474738Y118668D01*
X474543Y119487D01*
X474369Y120310D01*
X474215Y121138D01*
X474081Y121969D01*
X473968Y122803D01*
X473875Y123639D01*
X473803Y124477D01*
X473751Y125317D01*
X473720Y126158D01*
X473710Y127000D01*
D17*
X491000Y127000D02*
X491005Y127417D01*
X491020Y127834D01*
X491046Y128251D01*
X491082Y128666D01*
X491128Y129081D01*
X491184Y129494D01*
X491250Y129906D01*
X491327Y130317D01*
X491413Y130725D01*
X491509Y131131D01*
X491616Y131534D01*
X491732Y131935D01*
X491858Y132333D01*
X491994Y132727D01*
X492139Y133118D01*
X492294Y133506D01*
X492458Y133889D01*
X492632Y134268D01*
X492815Y134643D01*
X493007Y135014D01*
X493209Y135379D01*
X493419Y135740D01*
X493637Y136095D01*
X493865Y136445D01*
X494101Y136789D01*
X494345Y137127D01*
X494598Y137459D01*
X494859Y137785D01*
X495127Y138104D01*
X495404Y138417D01*
X495688Y138722D01*
X495979Y139021D01*
X496278Y139312D01*
X496583Y139596D01*
X496896Y139873D01*
X497215Y140141D01*
X497541Y140402D01*
X497873Y140655D01*
X498211Y140899D01*
X498555Y141135D01*
X498905Y141363D01*
X499260Y141581D01*
X499621Y141791D01*
X499986Y141993D01*
X500357Y142185D01*
X500732Y142368D01*
X501111Y142542D01*
X501494Y142706D01*
X501882Y142861D01*
X502273Y143006D01*
X502667Y143142D01*
X503065Y143268D01*
X503466Y143384D01*
X503869Y143491D01*
X504275Y143587D01*
X504683Y143673D01*
X505094Y143750D01*
X505506Y143816D01*
X505919Y143872D01*
X506334Y143918D01*
X506749Y143954D01*
X507166Y143980D01*
X507583Y143995D01*
X508000Y144000D01*
X508417Y143995D01*
X508834Y143980D01*
X509251Y143954D01*
X509666Y143918D01*
X510081Y143872D01*
X510494Y143816D01*
X510906Y143750D01*
X511317Y143673D01*
X511725Y143587D01*
X512131Y143491D01*
X512534Y143384D01*
X512935Y143268D01*
X513333Y143142D01*
X513727Y143006D01*
X514118Y142861D01*
X514506Y142706D01*
X514889Y142542D01*
X515268Y142368D01*
X515643Y142185D01*
X516014Y141993D01*
X516379Y141791D01*
X516740Y141581D01*
X517095Y141363D01*
X517445Y141135D01*
X517789Y140899D01*
X518127Y140655D01*
X518459Y140402D01*
X518785Y140141D01*
X519104Y139873D01*
X519417Y139596D01*
X519722Y139312D01*
X520021Y139021D01*
X520312Y138722D01*
X520596Y138417D01*
X520873Y138104D01*
X521141Y137785D01*
X521402Y137459D01*
X521655Y137127D01*
X521899Y136789D01*
X522135Y136445D01*
X522363Y136095D01*
X522581Y135740D01*
X522791Y135379D01*
X522993Y135014D01*
X523185Y134643D01*
X523368Y134268D01*
X523542Y133889D01*
X523706Y133506D01*
X523861Y133118D01*
X524006Y132727D01*
X524142Y132333D01*
X524268Y131935D01*
X524384Y131534D01*
X524491Y131131D01*
X524587Y130725D01*
X524673Y130317D01*
X524750Y129906D01*
X524816Y129494D01*
X524872Y129081D01*
X524918Y128666D01*
X524954Y128251D01*
X524980Y127834D01*
X524995Y127417D01*
X525000Y127000D01*
X524995Y126583D01*
X524980Y126166D01*
X524954Y125749D01*
X524918Y125334D01*
X524872Y124919D01*
X524816Y124506D01*
X524750Y124094D01*
X524673Y123683D01*
X524587Y123275D01*
X524491Y122869D01*
X524384Y122466D01*
X524268Y122065D01*
X524142Y121667D01*
X524006Y121273D01*
X523861Y120882D01*
X523706Y120494D01*
X523542Y120111D01*
X523368Y119732D01*
X523185Y119357D01*
X522993Y118986D01*
X522791Y118621D01*
X522581Y118260D01*
X522363Y117905D01*
X522135Y117555D01*
X521899Y117211D01*
X521655Y116873D01*
X521402Y116541D01*
X521141Y116215D01*
X520873Y115896D01*
X520596Y115583D01*
X520312Y115278D01*
X520021Y114979D01*
X519722Y114688D01*
X519417Y114404D01*
X519104Y114127D01*
X518785Y113859D01*
X518459Y113598D01*
X518127Y113345D01*
X517789Y113101D01*
X517445Y112865D01*
X517095Y112637D01*
X516740Y112419D01*
X516379Y112209D01*
X516014Y112007D01*
X515643Y111815D01*
X515268Y111632D01*
X514889Y111458D01*
X514506Y111294D01*
X514118Y111139D01*
X513727Y110994D01*
X513333Y110858D01*
X512935Y110732D01*
X512534Y110616D01*
X512131Y110509D01*
X511725Y110413D01*
X511317Y110327D01*
X510906Y110250D01*
X510494Y110184D01*
X510081Y110128D01*
X509666Y110082D01*
X509251Y110046D01*
X508834Y110020D01*
X508417Y110005D01*
X508000Y110000D01*
X507583Y110005D01*
X507166Y110020D01*
X506749Y110046D01*
X506334Y110082D01*
X505919Y110128D01*
X505506Y110184D01*
X505094Y110250D01*
X504683Y110327D01*
X504275Y110413D01*
X503869Y110509D01*
X503466Y110616D01*
X503065Y110732D01*
X502667Y110858D01*
X502273Y110994D01*
X501882Y111139D01*
X501494Y111294D01*
X501111Y111458D01*
X500732Y111632D01*
X500357Y111815D01*
X499986Y112007D01*
X499621Y112209D01*
X499260Y112419D01*
X498905Y112637D01*
X498555Y112865D01*
X498211Y113101D01*
X497873Y113345D01*
X497541Y113598D01*
X497215Y113859D01*
X496896Y114127D01*
X496583Y114404D01*
X496278Y114688D01*
X495979Y114979D01*
X495688Y115278D01*
X495404Y115583D01*
X495127Y115896D01*
X494859Y116215D01*
X494598Y116541D01*
X494345Y116873D01*
X494101Y117211D01*
X493865Y117555D01*
X493637Y117905D01*
X493419Y118260D01*
X493209Y118621D01*
X493007Y118986D01*
X492815Y119357D01*
X492632Y119732D01*
X492458Y120111D01*
X492294Y120494D01*
X492139Y120882D01*
X491994Y121273D01*
X491858Y121667D01*
X491732Y122065D01*
X491616Y122466D01*
X491509Y122869D01*
X491413Y123275D01*
X491327Y123683D01*
X491250Y124094D01*
X491184Y124506D01*
X491128Y124919D01*
X491082Y125334D01*
X491046Y125749D01*
X491020Y126166D01*
X491005Y126583D01*
X491000Y127000D01*
D10*
X219710Y127000D02*
X219720Y127842D01*
X219751Y128683D01*
X219803Y129523D01*
X219875Y130361D01*
X219968Y131197D01*
X220081Y132031D01*
X220215Y132862D01*
X220369Y133690D01*
X220543Y134513D01*
X220738Y135332D01*
X220952Y136146D01*
X221187Y136954D01*
X221441Y137756D01*
X221714Y138552D01*
X222008Y139341D01*
X222320Y140122D01*
X222652Y140896D01*
X223002Y141661D01*
X223371Y142417D01*
X223759Y143164D01*
X224165Y143901D01*
X224588Y144629D01*
X225030Y145345D01*
X225489Y146051D01*
X225965Y146744D01*
X226458Y147427D01*
X226968Y148096D01*
X227493Y148753D01*
X228035Y149397D01*
X228593Y150028D01*
X229166Y150644D01*
X229753Y151247D01*
X230356Y151834D01*
X230972Y152407D01*
X231603Y152965D01*
X232247Y153507D01*
X232904Y154032D01*
X233573Y154542D01*
X234256Y155035D01*
X234949Y155511D01*
X235655Y155970D01*
X236371Y156412D01*
X237099Y156835D01*
X237836Y157241D01*
X238583Y157629D01*
X239339Y157998D01*
X240104Y158348D01*
X240878Y158680D01*
X241659Y158992D01*
X242448Y159286D01*
X243244Y159559D01*
X244046Y159813D01*
X244854Y160048D01*
X245668Y160262D01*
X246487Y160457D01*
X247310Y160631D01*
X248138Y160785D01*
X248969Y160919D01*
X249803Y161032D01*
X250639Y161125D01*
X251477Y161197D01*
X252317Y161249D01*
X253158Y161280D01*
X254000Y161290D01*
X254842Y161280D01*
X255683Y161249D01*
X256523Y161197D01*
X257361Y161125D01*
X258197Y161032D01*
X259031Y160919D01*
X259862Y160785D01*
X260690Y160631D01*
X261513Y160457D01*
X262332Y160262D01*
X263146Y160048D01*
X263954Y159813D01*
X264756Y159559D01*
X265552Y159286D01*
X266341Y158992D01*
X267122Y158680D01*
X267896Y158348D01*
X268661Y157998D01*
X269417Y157629D01*
X270164Y157241D01*
X270901Y156835D01*
X271629Y156412D01*
X272345Y155970D01*
X273051Y155511D01*
X273744Y155035D01*
X274427Y154542D01*
X275096Y154032D01*
X275753Y153507D01*
X276397Y152965D01*
X277028Y152407D01*
X277644Y151834D01*
X278247Y151247D01*
X278834Y150644D01*
X279407Y150028D01*
X279965Y149397D01*
X280507Y148753D01*
X281032Y148096D01*
X281542Y147427D01*
X282035Y146744D01*
X282511Y146051D01*
X282970Y145345D01*
X283412Y144629D01*
X283835Y143901D01*
X284241Y143164D01*
X284629Y142417D01*
X284998Y141661D01*
X285348Y140896D01*
X285680Y140122D01*
X285992Y139341D01*
X286286Y138552D01*
X286559Y137756D01*
X286813Y136954D01*
X287048Y136146D01*
X287262Y135332D01*
X287457Y134513D01*
X287631Y133690D01*
X287785Y132862D01*
X287919Y132031D01*
X288032Y131197D01*
X288125Y130361D01*
X288197Y129523D01*
X288249Y128683D01*
X288280Y127842D01*
X288290Y127000D01*
X288280Y126158D01*
X288249Y125317D01*
X288197Y124477D01*
X288125Y123639D01*
X288032Y122803D01*
X287919Y121969D01*
X287785Y121138D01*
X287631Y120310D01*
X287457Y119487D01*
X287262Y118668D01*
X287048Y117854D01*
X286813Y117046D01*
X286559Y116244D01*
X286286Y115448D01*
X285992Y114659D01*
X285680Y113878D01*
X285348Y113104D01*
X284998Y112339D01*
X284629Y111583D01*
X284241Y110836D01*
X283835Y110099D01*
X283412Y109371D01*
X282970Y108655D01*
X282511Y107949D01*
X282035Y107256D01*
X281542Y106573D01*
X281032Y105904D01*
X280507Y105247D01*
X279965Y104603D01*
X279407Y103972D01*
X278834Y103356D01*
X278247Y102753D01*
X277644Y102166D01*
X277028Y101593D01*
X276397Y101035D01*
X275753Y100493D01*
X275096Y99968D01*
X274427Y99458D01*
X273744Y98965D01*
X273051Y98489D01*
X272345Y98030D01*
X271629Y97588D01*
X270901Y97165D01*
X270164Y96759D01*
X269417Y96371D01*
X268661Y96002D01*
X267896Y95652D01*
X267122Y95320D01*
X266341Y95008D01*
X265552Y94714D01*
X264756Y94441D01*
X263954Y94187D01*
X263146Y93952D01*
X262332Y93738D01*
X261513Y93543D01*
X260690Y93369D01*
X259862Y93215D01*
X259031Y93081D01*
X258197Y92968D01*
X257361Y92875D01*
X256523Y92803D01*
X255683Y92751D01*
X254842Y92720D01*
X254000Y92710D01*
X253158Y92720D01*
X252317Y92751D01*
X251477Y92803D01*
X250639Y92875D01*
X249803Y92968D01*
X248969Y93081D01*
X248138Y93215D01*
X247310Y93369D01*
X246487Y93543D01*
X245668Y93738D01*
X244854Y93952D01*
X244046Y94187D01*
X243244Y94441D01*
X242448Y94714D01*
X241659Y95008D01*
X240878Y95320D01*
X240104Y95652D01*
X239339Y96002D01*
X238583Y96371D01*
X237836Y96759D01*
X237099Y97165D01*
X236371Y97588D01*
X235655Y98030D01*
X234949Y98489D01*
X234256Y98965D01*
X233573Y99458D01*
X232904Y99968D01*
X232247Y100493D01*
X231603Y101035D01*
X230972Y101593D01*
X230356Y102166D01*
X229753Y102753D01*
X229166Y103356D01*
X228593Y103972D01*
X228035Y104603D01*
X227493Y105247D01*
X226968Y105904D01*
X226458Y106573D01*
X225965Y107256D01*
X225489Y107949D01*
X225030Y108655D01*
X224588Y109371D01*
X224165Y110099D01*
X223759Y110836D01*
X223371Y111583D01*
X223002Y112339D01*
X222652Y113104D01*
X222320Y113878D01*
X222008Y114659D01*
X221714Y115448D01*
X221441Y116244D01*
X221187Y117046D01*
X220952Y117854D01*
X220738Y118668D01*
X220543Y119487D01*
X220369Y120310D01*
X220215Y121138D01*
X220081Y121969D01*
X219968Y122803D01*
X219875Y123639D01*
X219803Y124477D01*
X219751Y125317D01*
X219720Y126158D01*
X219710Y127000D01*
D17*
X237000Y127000D02*
X237005Y127417D01*
X237020Y127834D01*
X237046Y128251D01*
X237082Y128666D01*
X237128Y129081D01*
X237184Y129494D01*
X237250Y129906D01*
X237327Y130317D01*
X237413Y130725D01*
X237509Y131131D01*
X237616Y131534D01*
X237732Y131935D01*
X237858Y132333D01*
X237994Y132727D01*
X238139Y133118D01*
X238294Y133506D01*
X238458Y133889D01*
X238632Y134268D01*
X238815Y134643D01*
X239007Y135014D01*
X239209Y135379D01*
X239419Y135740D01*
X239637Y136095D01*
X239865Y136445D01*
X240101Y136789D01*
X240345Y137127D01*
X240598Y137459D01*
X240859Y137785D01*
X241127Y138104D01*
X241404Y138417D01*
X241688Y138722D01*
X241979Y139021D01*
X242278Y139312D01*
X242583Y139596D01*
X242896Y139873D01*
X243215Y140141D01*
X243541Y140402D01*
X243873Y140655D01*
X244211Y140899D01*
X244555Y141135D01*
X244905Y141363D01*
X245260Y141581D01*
X245621Y141791D01*
X245986Y141993D01*
X246357Y142185D01*
X246732Y142368D01*
X247111Y142542D01*
X247494Y142706D01*
X247882Y142861D01*
X248273Y143006D01*
X248667Y143142D01*
X249065Y143268D01*
X249466Y143384D01*
X249869Y143491D01*
X250275Y143587D01*
X250683Y143673D01*
X251094Y143750D01*
X251506Y143816D01*
X251919Y143872D01*
X252334Y143918D01*
X252749Y143954D01*
X253166Y143980D01*
X253583Y143995D01*
X254000Y144000D01*
X254417Y143995D01*
X254834Y143980D01*
X255251Y143954D01*
X255666Y143918D01*
X256081Y143872D01*
X256494Y143816D01*
X256906Y143750D01*
X257317Y143673D01*
X257725Y143587D01*
X258131Y143491D01*
X258534Y143384D01*
X258935Y143268D01*
X259333Y143142D01*
X259727Y143006D01*
X260118Y142861D01*
X260506Y142706D01*
X260889Y142542D01*
X261268Y142368D01*
X261643Y142185D01*
X262014Y141993D01*
X262379Y141791D01*
X262740Y141581D01*
X263095Y141363D01*
X263445Y141135D01*
X263789Y140899D01*
X264127Y140655D01*
X264459Y140402D01*
X264785Y140141D01*
X265104Y139873D01*
X265417Y139596D01*
X265722Y139312D01*
X266021Y139021D01*
X266312Y138722D01*
X266596Y138417D01*
X266873Y138104D01*
X267141Y137785D01*
X267402Y137459D01*
X267655Y137127D01*
X267899Y136789D01*
X268135Y136445D01*
X268363Y136095D01*
X268581Y135740D01*
X268791Y135379D01*
X268993Y135014D01*
X269185Y134643D01*
X269368Y134268D01*
X269542Y133889D01*
X269706Y133506D01*
X269861Y133118D01*
X270006Y132727D01*
X270142Y132333D01*
X270268Y131935D01*
X270384Y131534D01*
X270491Y131131D01*
X270587Y130725D01*
X270673Y130317D01*
X270750Y129906D01*
X270816Y129494D01*
X270872Y129081D01*
X270918Y128666D01*
X270954Y128251D01*
X270980Y127834D01*
X270995Y127417D01*
X271000Y127000D01*
X270995Y126583D01*
X270980Y126166D01*
X270954Y125749D01*
X270918Y125334D01*
X270872Y124919D01*
X270816Y124506D01*
X270750Y124094D01*
X270673Y123683D01*
X270587Y123275D01*
X270491Y122869D01*
X270384Y122466D01*
X270268Y122065D01*
X270142Y121667D01*
X270006Y121273D01*
X269861Y120882D01*
X269706Y120494D01*
X269542Y120111D01*
X269368Y119732D01*
X269185Y119357D01*
X268993Y118986D01*
X268791Y118621D01*
X268581Y118260D01*
X268363Y117905D01*
X268135Y117555D01*
X267899Y117211D01*
X267655Y116873D01*
X267402Y116541D01*
X267141Y116215D01*
X266873Y115896D01*
X266596Y115583D01*
X266312Y115278D01*
X266021Y114979D01*
X265722Y114688D01*
X265417Y114404D01*
X265104Y114127D01*
X264785Y113859D01*
X264459Y113598D01*
X264127Y113345D01*
X263789Y113101D01*
X263445Y112865D01*
X263095Y112637D01*
X262740Y112419D01*
X262379Y112209D01*
X262014Y112007D01*
X261643Y111815D01*
X261268Y111632D01*
X260889Y111458D01*
X260506Y111294D01*
X260118Y111139D01*
X259727Y110994D01*
X259333Y110858D01*
X258935Y110732D01*
X258534Y110616D01*
X258131Y110509D01*
X257725Y110413D01*
X257317Y110327D01*
X256906Y110250D01*
X256494Y110184D01*
X256081Y110128D01*
X255666Y110082D01*
X255251Y110046D01*
X254834Y110020D01*
X254417Y110005D01*
X254000Y110000D01*
X253583Y110005D01*
X253166Y110020D01*
X252749Y110046D01*
X252334Y110082D01*
X251919Y110128D01*
X251506Y110184D01*
X251094Y110250D01*
X250683Y110327D01*
X250275Y110413D01*
X249869Y110509D01*
X249466Y110616D01*
X249065Y110732D01*
X248667Y110858D01*
X248273Y110994D01*
X247882Y111139D01*
X247494Y111294D01*
X247111Y111458D01*
X246732Y111632D01*
X246357Y111815D01*
X245986Y112007D01*
X245621Y112209D01*
X245260Y112419D01*
X244905Y112637D01*
X244555Y112865D01*
X244211Y113101D01*
X243873Y113345D01*
X243541Y113598D01*
X243215Y113859D01*
X242896Y114127D01*
X242583Y114404D01*
X242278Y114688D01*
X241979Y114979D01*
X241688Y115278D01*
X241404Y115583D01*
X241127Y115896D01*
X240859Y116215D01*
X240598Y116541D01*
X240345Y116873D01*
X240101Y117211D01*
X239865Y117555D01*
X239637Y117905D01*
X239419Y118260D01*
X239209Y118621D01*
X239007Y118986D01*
X238815Y119357D01*
X238632Y119732D01*
X238458Y120111D01*
X238294Y120494D01*
X238139Y120882D01*
X237994Y121273D01*
X237858Y121667D01*
X237732Y122065D01*
X237616Y122466D01*
X237509Y122869D01*
X237413Y123275D01*
X237327Y123683D01*
X237250Y124094D01*
X237184Y124506D01*
X237128Y124919D01*
X237082Y125334D01*
X237046Y125749D01*
X237020Y126166D01*
X237005Y126583D01*
X237000Y127000D01*
X38100Y247650D02*
X25400Y247650D01*
X38100Y247650D02*
X44450Y241300D01*
X44450Y228600D02*
X38100Y222250D01*
X44450Y241300D02*
X50800Y247650D01*
X63500Y247650D01*
X69850Y241300D01*
X69850Y228600D02*
X63500Y222250D01*
X50800Y222250D01*
X44450Y228600D01*
X19050Y228600D02*
X19050Y241300D01*
X25400Y247650D01*
X19050Y228600D02*
X25400Y222250D01*
X38100Y222250D01*
X69850Y228600D02*
X69850Y241300D01*
M02*
