M48
;GenerationSoftware,Autodesk,EAGLE,9.6.2*%
;CreationDate,2023-12-25T15:01:06Z*%
FMAT,2
ICI,OFF
METRIC,TZ,000.000
T4C0.394
T3C1.016
T2C1.100
T1C3.200
%
G90
M71
T1
X50800Y12700
X25400Y12700
T2
X63500Y8849
X63500Y3851
X38100Y8849
X38100Y3851
X12700Y8849
X12700Y3851
T3
X74930Y17780
X74930Y15240
X74930Y12700
X74930Y10160
X74930Y7620
X1270Y7620
X1270Y10160
X1270Y12700
X1270Y15240
X1270Y17780
X3175Y23495
X5715Y23495
T4
X71755Y17018
X5588Y12700
X62865Y1905
X52070Y5461
X57150Y14605
X27305Y21590
X8128Y18415
X50165Y20955
X19558Y13462
X31242Y14605
M30