<svg width="750" height="750" viewbox = "0 0 750 750"  xmlns="http://www.w3.org/2000/svg">
<!--<json>{
  "glyph": "0321,0223,0322,0332,0332,0336,0334,0336,0330,0336,0336,0331,0337,0337,0337,0337,0342,0335,0330,0335,0333,0330,0330,0330,0330,0330,0336,0331,0336,0336,0331,0337,0337,0337,0342,0334,0332,0332,0332,0336,0333,0336,0333,0337,0337,0336,0336,0336,0333,0337,0336,0336,0332,0337,0337,0337,0337,0335,0335,0225,0227,0300,0327,0224,0320,0234,",
  "x0": 375,
  "y0": 375,
  "unit": 107.1794405000001,
  "width": 750,
  "height": 750,
  "style": {
    "color0": "black",
    "fill0": "black",
    "line0": 1,
    "color1": "black",
    "fill1": "black",
    "line1": 12,
    "color2": "red",
    "fill2": "red",
    "line2": 12,
    "color3": "orange",
    "fill3": "#ff000040",
    "line3": 6,
    "color4": "yellow",
    "fill4": "yellow",
    "line4": 6,
    "color5": "green",
    "fill5": "green",
    "line5": 6,
    "color6": "blue",
    "fill6": "blue",
    "line6": 6,
    "color7": "black",
    "fill7": "white",
    "line7": 6
  },
  "shapes": [
    "0220:0336,0336,0336,0347,0337,0337,0337,",
    "0221:0220,0334,0336,0342,0335,0337,0201,0336,0201,0337,0220,0331,0331,0335,0335,0336,0331,0337,0201,0336,0201,0337,0220,0336,0342,0335,0342,0335,0335,0342,0332,0332,0332,0337,0201,0220,0336,0342,0334,0342,0335,0335,0342,0335,0335,0330,0332,0330,0332,0330,0342,0335,0342,0335,0335,0342,0335,0331,0331,0331,0337,",
    "0222:0221,0333,0333,0333,0333,0335,0335,0221,0335,0335,0332,0332,0332,0332,",
    "0223:0332,0332,0222,0333,0336,0333,0335,0337,0342,0334,0336,0332,0336,0330,0330,0333,0350,0334,0343,0335,0330,0335,0335,0337,0337,0201,0336,0201,0336,0334,0334,0331,0335,0343,0334,0330,0330,0330,0330,0335,0335,0330,0330,0330,0334,0334,0334,0334,0337,0337,0337,0201,0336,0201,0335,0335,0335,0335,0336,0331,0334,0334,0330,0335,0336,0333,0334,0334,0343,0335,0330,0335,0337,0335,0337,0201,0201,0201,0336,0201,0334,0334,0336,0331,0335,0343,0335,0335,0335,0330,0330,0334,0334,0330,0330,0330,0334,0334,0330,0335,0335,0335,0343,0334,0334,0334,0334,0334,0331,0335,0335,0337,0201,0336,0201,0337,0336,0201,0335,0335,0331,0334,0343,0334,0330,0334,0334,0337,0337,0201,0201,0201,0201,0336,0201,0335,0335,0331,0331,0331,0336,0330,0334,0334,0330,0330,0335,0335,0331,0334,0334,0335,0333,0334,0334,0343,0335,0330,0335,0335,0337,0201,0336,0201,0201,0335,0333,0334,0334,0343,0335,0330,0335,0335,0337,0336,0201,0336,0337,0201,0334,0334,0304,0331,0331,0331,0331,0331,0331,0331,0331,0331,0331,0331,0331,0331,0331,0331,0331,0331,0331,0331,0330,0330,0330,0330,0330,0330,0333,0331,0333,0333,0333,0335,0335,0333,0332,0332,0335,0350,0334,0343,0335,0335,0335,0331,0335,0335,0337,0201,0201,0201,0335,0335,0331,0336,0330,0334,0343,0334,0334,0334,0331,0331,0331,0331,0334,0334,0331,0331,0331,0337,0337,0201,0201,0201,0336,0201,0335,0335,0331,0335,0335,0335,0335,0336,0335,0335,0331,0334,0343,0334,0330,0334,0337,0337,0334,0201,0201,0201,0336,0201,0336,0335,0335,0331,0334,0343,0334,0334,0334,0330,0330,0335,0335,0330,0330,0330,0334,0334,0331,0335,0343,0335,0330,0335,0335,0201,0337,0201,0336,0304,0201,0335,0330,0334,0350,0334,0343,0335,0330,0335,0335,0337,0201,0201,0201,0201,0201,0201,0201,0201,0201,0335,0335,0330,0330,0334,0334,0330,0335,0335,0336,0330,0330,0334,0335,0331,0334,0343,0335,0334,0334,0330,0334,0334,0201,0337,0201,0336,0201,0335,0335,0331,0334,0343,0334,0330,0337,0334,0334,0342,0334,0334,0330,0330,0330,0330,0330,0336,0330,0337,0304,0333,0337,0333,0333,0336,0336,0330,0337,0337,",
    "0224:0336,0336,0347,0330,0330,0330,0347,0330,0330,0330,0347,0330,0330,0330,0347,0330,0330,0330,0347,0331,0331,0331,0331,0331,0331,0331,0331,0331,0331,0331,0331,0331,0331,0331,0347,0331,0331,0331,0347,0331,0331,0331,0347,0331,0331,0331,0347,0330,0330,0330,0330,0330,0330,0330,0330,0330,0330,0330,0330,0337,0337,",
    "0225:0332,0332,0336,0330,0336,0331,0336,0331,0337,0337,0201,0201,0336,0201,0333,0333,0333,0333,0333,0333,0333,0333,0333,0333,0333,0333,0333,0333,0333,0333,0335,0335,0201,0201,0201,0201,0201,0335,0335,0336,0331,0337,0337,0332,0337,0332,0336,0332,0337,",
    "0226:0332,0336,0336,0336,0332,0334,0337,0337,0201,0336,0342,0335,0333,0333,0333,0333,0333,0333,0333,0333,0333,0333,0333,0335,0337,0201,0336,0201,0335,0335,0335,0332,0332,0332,0332,0332,0332,0332,0337,0336,0332,0337,0336,0336,0333,0337,0337,0337,",
    "0227:0330,0332,0332,0336,0330,0336,0336,0332,0334,0337,0201,0336,0201,0337,0333,0350,0334,0343,0335,0330,0335,0335,0337,0201,0201,0335,0335,0336,0330,0334,0334,0334,0343,0335,0330,0335,0335,0337,0337,0201,0201,0201,0201,0201,0334,0334,0336,0336,0331,0335,0343,0335,0330,0335,0335,0337,0201,0201,0335,0335,0336,0330,0334,0334,0334,0343,0335,0330,0335,0335,0201,0336,0201,0335,0335,0335,0335,0331,0337,0334,0334,0337,0304,0332,0332,0332,0332,0331,0331,0331,0337,",
    "0230:0330,0330,0332,0332,0332,0333,0336,0331,0336,0330,0336,0331,0337,0201,0336,0201,0334,0337,0331,0350,0335,0343,0335,0330,0335,0335,0337,0201,0201,0201,0201,0201,0201,0201,0334,0334,0336,0331,0335,0343,0335,0330,0335,0335,0201,0336,0201,0335,0335,0335,0335,0337,0336,0331,0337,0304,0332,0332,0332,0332,0332,0332,0332,0332,0331,0331,0331,0331,0331,0331,0337,0337,\\0207,",
    "0231:0330,0336,0330,0335,0331,0331,0331,0331,0336,0336,0330,0337,0337,0201,0201,0201,0201,0201,0201,0201,0336,0201,0335,0335,0335,0332,0332,0332,0332,0332,0332,0332,0332,0331,0331,0331,0331,0331,0331,0336,0333,0337,0337,0337,",
    "0232:0332,0336,0336,0330,0336,0331,0337,0201,0336,0201,0333,0333,0334,0350,0335,0337,0343,0335,0330,0335,0335,0337,0201,0201,0201,0334,0334,0336,0331,0335,0343,0335,0330,0335,0335,0201,0336,0201,0335,0335,0335,0335,0331,0337,0337,0304,0332,0332,0337,",
    "0233:0336,0333,0336,0333,0336,0333,0334,0337,0337,0201,0201,0201,0336,0201,0335,0337,0333,0333,0336,0332,0336,0337,0333,0336,0332,0337,0337,0337,",
    "0234:0320,0331,0331,0331,0336,0336,0336,0331,0332,0337,061,0365,0330,0330,0330,062,0365,0330,0330,0330,063,0365,0330,0330,0330,064,0365,0330,0330,0330,065,0365,0330,0330,0330,066,0365,0330,0330,0330,067,0365,0330,0330,0330,070,0365,0330,0330,0330,071,0365,0331,0331,0331,0331,0331,0331,0331,0331,0331,0331,0331,0331,0336,0333,0330,0337,0337,0337,",
    "0236:0336,0201,0336,0336,0330,0341,0331,0337,0337,0331,0337,",
    "0237:0336,0366,0330,0333,0333,0336,0331,0337,0367,0335,0335,0366,0331,0333,0333,0367,0335,0335,0337,",
    "01220:0333,0200,0336,0330,0332,0220,0331,0333,0337,",
    "01221:0333,0200,0336,0330,0332,0336,0221,0331,0333,0331,0333,0337,0337,",
    "01222:0333,0200,0336,0330,0332,0336,0332,0336,0222,0337,0337,0331,0333,0336,0333,0337,0337,",
    "01223:0333,0200,0336,0330,0332,0336,0336,0223,0337,0337,0331,0333,0337,",
    "01224:0333,0200,0336,0330,0332,0336,0224,0337,0331,0333,0337,",
    "01225:0333,0200,0336,0330,0332,0336,0336,0225,0337,0337,0331,0333,0337,",
    "01226:0333,0200,0336,0330,0332,0336,0226,0331,0333,0337,0336,0333,0331,0337,0337,",
    "01227:0333,0200,0336,0330,0332,0336,0336,0227,0337,0337,0331,0333,0337,",
    "01230:0333,0200,0336,0330,0332,0336,0336,0230,0337,0337,0331,0333,0337,",
    "01231:0333,0200,0336,0330,0332,0336,0336,0231,0337,0337,0331,0333,0337,",
    "01232:0333,0200,0336,0330,0332,0336,0232,0331,0331,0333,0333,0337,0337,",
    "01233:0333,0200,0336,0330,0332,0336,0233,0331,0333,0331,0333,0336,0337,0337,0337,",
    "01234:0333,0200,0336,0330,0332,0336,0336,0337,0234,0337,0331,0333,0337,",
    "01235:0333,0200,0336,0330,0332,0336,0332,0330,0337,0235,0331,0336,0333,0331,0337,0337,",
    "01236:0333,0200,0336,0330,0332,0236,0331,0333,0337,",
    "01237:0333,0200,0336,0330,0332,0336,0331,0332,0332,0337,0337,0237,0331,0333,",
    "0240:0220,0336,0331,0333,0336,0321,0335,0342,0335,0335,0342,0335,0330,0330,0332,0332,0337,0337,",
    "01240:0333,0200,0336,0330,0332,0210,0240,0211,0333,0331,0337,",
    "0241:0220,0336,0321,0343,0332,0350,0335,0336,0342,0334,0334,0342,0335,0304,0337,0333,0337,",
    "01241:0333,0200,0336,0332,0330,0210,0241,0211,0333,0331,0337,",
    "0242:0220,0321,0336,0343,0333,0336,0350,0335,0342,0334,0334,0342,0335,0337,0304,0332,0337,",
    "01242:0333,0200,0336,0330,0332,0210,0242,0211,0333,0331,0337,",
    "0243:0220,0336,0331,0332,0336,0321,0343,0332,0350,0334,0336,0342,0335,0335,0342,0337,0334,0334,0335,0304,0332,0330,0330,0337,0337,0333,",
    "01243:0333,0200,0336,0330,0332,0210,0243,0211,0333,0331,0337,",
    "0244:0220,0336,0331,0333,0336,0321,0343,0333,0350,0336,0335,0342,0334,0334,0342,0335,0337,0304,0333,0330,0330,0337,0337,0332,",
    "01244:0333,0200,0336,0330,0332,0210,0244,0211,0333,0331,0337,",
    "0245:0210,0332,0332,0362,0335,0203,0203,0203,0203,0334,0203,0363,0332,0332,0331,0211,",
    "01245:0333,0200,0336,0330,0332,0336,0245,0337,0333,0331,0337,",
    "0246:0210,0332,0332,0335,0306,0336,0330,0335,0335,0335,0321,0362,0203,0335,0335,0203,0364,0331,0350,0335,0337,0366,0333,0333,0333,0333,0334,0334,0334,0334,0367,0335,0336,0342,0334,0334,0342,0330,0330,0330,0330,0335,0335,0335,0304,0337,0211,",
    "01246:0333,0200,0336,0330,0332,0336,0246,",
    "0247:0330,0332,0336,0332,0336,0221,0333,0333,0333,0222,0333,0333,0333,0223,0333,0333,0333,0225,0333,0331,0331,0331,0332,0332,0332,0332,0332,0332,0332,0332,0332,0332,0332,0332,0333,0333,0226,0331,0331,0331,0333,0333,0333,0333,0333,0333,0333,0333,0333,0333,0333,0333,0333,0330,0333,0330,0330,0333,0330,0331,0332,0332,0332,0332,0332,0332,0332,0332,0332,0332,0332,0332,0227,0333,0333,0333,0230,0333,0331,0331,0331,0331,0332,0332,0332,0330,0332,0332,0332,0332,0332,0332,0333,0333,0231,0333,0333,0333,0232,0331,0333,0330,0333,0333,0233,0333,0333,0333,0234,0330,0330,0332,0330,0332,0332,0337,0337,",
    "01247:0333,0200,0336,0330,0332,0220,0336,0247,0337,0331,0333,0337,"
  ]
}</json>-->    <circle cx="161" cy = "375" r = "13.397430062500012" stroke = "#000000" stroke-width = "12" fill = "#000000" />
    <line x1="161" y1="375" x2="107" y2="375" style="stroke:#000000;stroke-width:12" />
    <line x1="161" y1="375" x2="161" y2="268" style="stroke:#000000;stroke-width:12" />
    <line x1="161" y1="268" x2="161" y2="214" style="stroke:#000000;stroke-width:12" />
    <circle cx="161" cy = "214" r = "13.397430062500012" stroke = "#000000" stroke-width = "12" fill = "#000000" />
    <line x1="161" y1="375" x2="161" y2="482" style="stroke:#000000;stroke-width:12" />
    <line x1="161" y1="482" x2="161" y2="536" style="stroke:#000000;stroke-width:12" />
    <circle cx="161" cy = "536" r = "13.397430062500012" stroke = "#000000" stroke-width = "12" fill = "#000000" />
    <line x1="161" y1="536" x2="161" y2="589" style="stroke:#000000;stroke-width:12" />
    <line x1="161" y1="536" x2="107" y2="536" style="stroke:#000000;stroke-width:12" />
    <line x1="161" y1="536" x2="214" y2="536" style="stroke:#000000;stroke-width:12" />
    <line x1="161" y1="375" x2="268" y2="375" style="stroke:#000000;stroke-width:12" />
    <circle cx="268" cy = "375" r = "13.397430062500012" stroke = "#000000" stroke-width = "12" fill = "#000000" />
    <line x1="268" y1="375" x2="321" y2="375" style="stroke:#000000;stroke-width:12" />
    <line x1="268" y1="375" x2="268" y2="321" style="stroke:#000000;stroke-width:12" />
    <line x1="268" y1="375" x2="268" y2="429" style="stroke:#000000;stroke-width:12" />
    <line x1="161" y1="214" x2="161" y2="161" style="stroke:#000000;stroke-width:12" />
    <line x1="161" y1="214" x2="214" y2="214" style="stroke:#000000;stroke-width:12" />
    <line x1="161" y1="214" x2="107" y2="214" style="stroke:#000000;stroke-width:12" />
    <circle cx="589" cy = "375" r = "13.397430062500012" stroke = "#000000" stroke-width = "12" fill = "#000000" />
    <line x1="589" y1="375" x2="643" y2="375" style="stroke:#000000;stroke-width:12" />
    <line x1="589" y1="375" x2="589" y2="482" style="stroke:#000000;stroke-width:12" />
    <line x1="589" y1="482" x2="589" y2="536" style="stroke:#000000;stroke-width:12" />
    <circle cx="589" cy = "536" r = "13.397430062500012" stroke = "#000000" stroke-width = "12" fill = "#000000" />
    <line x1="589" y1="375" x2="589" y2="268" style="stroke:#000000;stroke-width:12" />
    <line x1="589" y1="268" x2="589" y2="214" style="stroke:#000000;stroke-width:12" />
    <circle cx="589" cy = "214" r = "13.397430062500012" stroke = "#000000" stroke-width = "12" fill = "#000000" />
    <line x1="589" y1="214" x2="589" y2="161" style="stroke:#000000;stroke-width:12" />
    <line x1="589" y1="214" x2="643" y2="214" style="stroke:#000000;stroke-width:12" />
    <line x1="589" y1="214" x2="536" y2="214" style="stroke:#000000;stroke-width:12" />
    <line x1="589" y1="375" x2="482" y2="375" style="stroke:#000000;stroke-width:12" />
    <circle cx="482" cy = "375" r = "13.397430062500012" stroke = "#000000" stroke-width = "12" fill = "#000000" />
    <line x1="482" y1="375" x2="429" y2="375" style="stroke:#000000;stroke-width:12" />
    <line x1="482" y1="375" x2="482" y2="429" style="stroke:#000000;stroke-width:12" />
    <line x1="482" y1="375" x2="482" y2="321" style="stroke:#000000;stroke-width:12" />
    <line x1="589" y1="536" x2="589" y2="589" style="stroke:#000000;stroke-width:12" />
    <line x1="589" y1="536" x2="536" y2="536" style="stroke:#000000;stroke-width:12" />
    <line x1="589" y1="536" x2="643" y2="536" style="stroke:#000000;stroke-width:12" />
    <line x1="321" y1="375" x2="429" y2="375" style="stroke:#000000;stroke-width:12" />
  <path d="M267.8205595000018 321.41027974999315           A26.794860125000024 26.794860125000024 0 0 1 294.6154196250025 294.61541962499393" fill = "none" stroke = "#000000" stroke-width = "12" />
    <line x1="295" y1="295" x2="402" y2="295" style="stroke:#000000;stroke-width:12" />
    <line x1="402" y1="295" x2="455" y2="295" style="stroke:#000000;stroke-width:12" />
  <path d="M455.38458037500266 294.61541962499706           A26.794860125000024 26.794860125000024 0 0 1 482.179440500002 321.4102797499976" fill = "none" stroke = "#000000" stroke-width = "12" />
    <line x1="536" y1="214" x2="321" y2="214" style="stroke:#000000;stroke-width:12" />
    <line x1="321" y1="214" x2="214" y2="214" style="stroke:#000000;stroke-width:12" />
  <path d="M160.6411190000057 160.64111899998736           A26.794860125000024 26.794860125000024 0 0 1 187.43597912500638 133.84625887498817" fill = "none" stroke = "#000000" stroke-width = "12" />
    <line x1="187" y1="134" x2="295" y2="134" style="stroke:#000000;stroke-width:12" />
    <line x1="295" y1="134" x2="402" y2="134" style="stroke:#000000;stroke-width:12" />
    <line x1="402" y1="134" x2="509" y2="134" style="stroke:#000000;stroke-width:12" />
    <line x1="509" y1="134" x2="563" y2="134" style="stroke:#000000;stroke-width:12" />
  <path d="M562.5640208750068 133.84625887499553           A26.794860125000024 26.794860125000024 0 0 1 589.3588810000061 160.64111899999605" fill = "none" stroke = "#000000" stroke-width = "12" />
  <path d="M669.7434613750062 187.4359791249976           A26.794860125000024 26.794860125000024 0 0 1 642.9486012500058 214.2308392499971" fill = "none" stroke = "#000000" stroke-width = "12" />
    <line x1="670" y1="187" x2="670" y2="134" style="stroke:#000000;stroke-width:12" />
    <line x1="670" y1="134" x2="670" y2="107" style="stroke:#000000;stroke-width:12" />
    <line x1="670" y1="107" x2="670" y2="80" style="stroke:#000000;stroke-width:12" />
  <path d="M642.9486012500096 53.46167849999725           A26.794860125000024 26.794860125000024 0 0 1 669.7434613750089 80.2565386249978" fill = "none" stroke = "#000000" stroke-width = "12" />
    <line x1="643" y1="53" x2="536" y2="53" style="stroke:#000000;stroke-width:12" />
    <line x1="536" y1="53" x2="429" y2="53" style="stroke:#000000;stroke-width:12" />
    <line x1="429" y1="53" x2="321" y2="53" style="stroke:#000000;stroke-width:12" />
    <line x1="321" y1="53" x2="214" y2="53" style="stroke:#000000;stroke-width:12" />
    <line x1="214" y1="53" x2="161" y2="53" style="stroke:#000000;stroke-width:12" />
  <path d="M107.05139875000481 214.2308392499811           A26.794860125000024 26.794860125000024 0 0 1 80.25653862500573 187.43597912498026" fill = "none" stroke = "#000000" stroke-width = "12" />
    <line x1="80" y1="187" x2="80" y2="134" style="stroke:#000000;stroke-width:12" />
    <line x1="80" y1="134" x2="80" y2="107" style="stroke:#000000;stroke-width:12" />
    <line x1="80" y1="107" x2="80" y2="80" style="stroke:#000000;stroke-width:12" />
  <path d="M80.2565386250084 80.25653862497987           A26.794860125000024 26.794860125000024 0 0 1 107.0513987500091 53.46167849998065" fill = "none" stroke = "#000000" stroke-width = "12" />
    <line x1="107" y1="53" x2="134" y2="53" style="stroke:#000000;stroke-width:12" />
    <line x1="134" y1="53" x2="161" y2="53" style="stroke:#000000;stroke-width:12" />
  <path d="M294.6154196249987 455.3845803749856           A26.794860125000024 26.794860125000024 0 0 1 267.82055949999966 428.5897202499848" fill = "none" stroke = "#000000" stroke-width = "12" />
    <line x1="295" y1="455" x2="348" y2="455" style="stroke:#000000;stroke-width:12" />
    <line x1="348" y1="455" x2="402" y2="455" style="stroke:#000000;stroke-width:12" />
    <line x1="402" y1="455" x2="455" y2="455" style="stroke:#000000;stroke-width:12" />
  <path d="M482.17944049999943 428.58972024998917           A26.794860125000024 26.794860125000024 0 0 1 455.384580374999 455.3845803749887" fill = "none" stroke = "#000000" stroke-width = "12" />
    <line x1="536" y1="536" x2="429" y2="536" style="stroke:#000000;stroke-width:12" />
    <line x1="429" y1="536" x2="321" y2="536" style="stroke:#000000;stroke-width:12" />
    <line x1="321" y1="536" x2="214" y2="536" style="stroke:#000000;stroke-width:12" />
    <line x1="214" y1="536" x2="161" y2="536" style="stroke:#000000;stroke-width:12" />
  <path d="M187.4359791249947 616.1537411249802           A26.794860125000024 26.794860125000024 0 0 1 160.64111899999506 589.35888099998" fill = "none" stroke = "#000000" stroke-width = "12" />
    <line x1="187" y1="616" x2="295" y2="616" style="stroke:#000000;stroke-width:12" />
    <line x1="295" y1="616" x2="402" y2="616" style="stroke:#000000;stroke-width:12" />
    <line x1="402" y1="616" x2="509" y2="616" style="stroke:#000000;stroke-width:12" />
    <line x1="509" y1="616" x2="563" y2="616" style="stroke:#000000;stroke-width:12" />
  <path d="M589.3588809999954 589.358880999988           A26.794860125000024 26.794860125000024 0 0 1 562.5640208749951 616.1537411249874" fill = "none" stroke = "#000000" stroke-width = "12" />
  <path d="M642.9486012499968 535.769160749989           A26.794860125000024 26.794860125000024 0 0 1 669.7434613749962 562.5640208749896" fill = "none" stroke = "#000000" stroke-width = "12" />
    <line x1="670" y1="563" x2="670" y2="589" style="stroke:#000000;stroke-width:12" />
    <line x1="670" y1="589" x2="670" y2="643" style="stroke:#000000;stroke-width:12" />
    <line x1="670" y1="643" x2="670" y2="670" style="stroke:#000000;stroke-width:12" />
  <path d="M669.7434613749947 669.7434613749898           A26.794860125000024 26.794860125000024 0 0 1 642.9486012499943 696.5383214999893" fill = "none" stroke = "#000000" stroke-width = "12" />
    <line x1="643" y1="697" x2="589" y2="697" style="stroke:#000000;stroke-width:12" />
    <line x1="589" y1="697" x2="536" y2="697" style="stroke:#000000;stroke-width:12" />
    <line x1="536" y1="697" x2="482" y2="697" style="stroke:#000000;stroke-width:12" />
    <line x1="482" y1="697" x2="429" y2="697" style="stroke:#000000;stroke-width:12" />
    <line x1="429" y1="697" x2="375" y2="697" style="stroke:#000000;stroke-width:12" />
    <line x1="375" y1="697" x2="321" y2="697" style="stroke:#000000;stroke-width:12" />
    <line x1="321" y1="697" x2="268" y2="697" style="stroke:#000000;stroke-width:12" />
    <line x1="268" y1="697" x2="214" y2="697" style="stroke:#000000;stroke-width:12" />
    <line x1="214" y1="697" x2="161" y2="697" style="stroke:#000000;stroke-width:12" />
  <path d="M80.25653862499438 562.5640208749844           A26.794860125000024 26.794860125000024 0 0 1 107.05139874999449 535.7691607499846" fill = "none" stroke = "#000000" stroke-width = "12" />
    <line x1="80" y1="563" x2="80" y2="589" style="stroke:#000000;stroke-width:12" />
    <line x1="80" y1="589" x2="80" y2="643" style="stroke:#000000;stroke-width:12" />
    <line x1="80" y1="643" x2="80" y2="670" style="stroke:#000000;stroke-width:12" />
  <path d="M107.05139874999254 696.5383214999847           A26.794860125000024 26.794860125000024 0 0 1 80.25653862499288 669.7434613749845" fill = "none" stroke = "#000000" stroke-width = "12" />
    <line x1="107" y1="697" x2="161" y2="697" style="stroke:#000000;stroke-width:12" />
    <line x1="141" y1="375" x2="33" y2="375" style="stroke:#ff0000;stroke-width:12" />
    <line x1="609" y1="375" x2="717" y2="375" style="stroke:#ff0000;stroke-width:12" />
    <line x1="589" y1="388" x2="589" y2="442" style="stroke:#ff0000;stroke-width:12" />
    <line x1="589" y1="442" x2="589" y2="496" style="stroke:#ff0000;stroke-width:12" />
    <line x1="589" y1="496" x2="589" y2="522" style="stroke:#ff0000;stroke-width:12" />
    <line x1="161" y1="522" x2="161" y2="496" style="stroke:#ff0000;stroke-width:12" />
    <line x1="161" y1="496" x2="161" y2="469" style="stroke:#ff0000;stroke-width:12" />
    <line x1="161" y1="469" x2="161" y2="442" style="stroke:#ff0000;stroke-width:12" />
    <line x1="161" y1="442" x2="161" y2="415" style="stroke:#ff0000;stroke-width:12" />
    <line x1="161" y1="415" x2="161" y2="388" style="stroke:#ff0000;stroke-width:12" />
    <line x1="603" y1="536" x2="630" y2="536" style="stroke:#ff0000;stroke-width:12" />
    <line x1="630" y1="536" x2="643" y2="536" style="stroke:#ff0000;stroke-width:12" />
  <path d="M642.9486012499957 535.7691607500029           A26.794860125000024 26.794860125000024 0 0 1 669.7434613749947 562.5640208750038" fill = "none" stroke = "#ff0000" stroke-width = "12" />
    <line x1="670" y1="563" x2="670" y2="616" style="stroke:#ff0000;stroke-width:12" />
    <line x1="670" y1="616" x2="670" y2="670" style="stroke:#ff0000;stroke-width:12" />
  <path d="M669.7434613749917 669.7434613750042           A26.794860125000024 26.794860125000024 0 0 1 642.9486012499909 696.5383215000033" fill = "none" stroke = "#ff0000" stroke-width = "12" />
    <line x1="643" y1="697" x2="536" y2="697" style="stroke:#ff0000;stroke-width:12" />
    <line x1="536" y1="697" x2="429" y2="697" style="stroke:#ff0000;stroke-width:12" />
    <line x1="429" y1="697" x2="321" y2="697" style="stroke:#ff0000;stroke-width:12" />
    <line x1="321" y1="697" x2="214" y2="697" style="stroke:#ff0000;stroke-width:12" />
    <line x1="214" y1="697" x2="107" y2="697" style="stroke:#ff0000;stroke-width:12" />
  <path d="M107.05139874999044 696.5383214999914           A26.794860125000024 26.794860125000024 0 0 1 80.25653862499117 669.7434613749908" fill = "none" stroke = "#ff0000" stroke-width = "12" />
    <line x1="80" y1="670" x2="80" y2="616" style="stroke:#ff0000;stroke-width:12" />
    <line x1="80" y1="616" x2="80" y2="563" style="stroke:#ff0000;stroke-width:12" />
  <path d="M80.25653862499301 562.5640208749905           A26.794860125000024 26.794860125000024 0 0 1 107.0513987499935 535.7691607499911" fill = "none" stroke = "#ff0000" stroke-width = "12" />
    <line x1="107" y1="536" x2="134" y2="536" style="stroke:#ff0000;stroke-width:12" />
    <line x1="134" y1="536" x2="147" y2="536" style="stroke:#ff0000;stroke-width:12" />
    <circle cx="375" cy = "375" r = "26.794860125000024" stroke = "#000000" stroke-width = "6" fill = "#ffffff" />
    <circle cx="375" cy = "295" r = "26.794860125000024" stroke = "#000000" stroke-width = "6" fill = "#ffffff" />
    <circle cx="375" cy = "214" r = "26.794860125000024" stroke = "#000000" stroke-width = "6" fill = "#ffffff" />
    <circle cx="375" cy = "134" r = "26.794860125000024" stroke = "#000000" stroke-width = "6" fill = "#ffffff" />
    <circle cx="375" cy = "53" r = "26.794860125000024" stroke = "#000000" stroke-width = "6" fill = "#ffffff" />
    <circle cx="375" cy = "455" r = "26.794860125000024" stroke = "#000000" stroke-width = "6" fill = "#ffffff" />
    <circle cx="375" cy = "536" r = "26.794860125000024" stroke = "#000000" stroke-width = "6" fill = "#ffffff" />
    <circle cx="375" cy = "616" r = "26.794860125000024" stroke = "#000000" stroke-width = "6" fill = "#ffffff" />
    <circle cx="375" cy = "697" r = "26.794860125000024" stroke = "#000000" stroke-width = "6" fill = "#ffffff" />
    <text x="362" y = "710" fill = "#000000" font-size = "26.794860125000024px" font-family = "Arial">1</text>
    <text x="362" y = "630" fill = "#000000" font-size = "26.794860125000024px" font-family = "Arial">2</text>
    <text x="362" y = "549" fill = "#000000" font-size = "26.794860125000024px" font-family = "Arial">3</text>
    <text x="362" y = "469" fill = "#000000" font-size = "26.794860125000024px" font-family = "Arial">4</text>
    <text x="362" y = "388" fill = "#000000" font-size = "26.794860125000024px" font-family = "Arial">5</text>
    <text x="362" y = "308" fill = "#000000" font-size = "26.794860125000024px" font-family = "Arial">6</text>
    <text x="362" y = "228" fill = "#000000" font-size = "26.794860125000024px" font-family = "Arial">7</text>
    <text x="362" y = "147" fill = "#000000" font-size = "26.794860125000024px" font-family = "Arial">8</text>
    <text x="362" y = "67" fill = "#000000" font-size = "26.794860125000024px" font-family = "Arial">9</text>
</svg>