G04 EAGLE Gerber RS-274X export*
G75*
%MOMM*%
%FSLAX34Y34*%
%LPD*%
%INBottom Copper*%
%IPPOS*%
%AMOC8*
5,1,8,0,0,1.08239X$1,22.5*%
G01*
%ADD10C,1.879600*%
%ADD11C,1.900000*%
%ADD12R,1.209600X1.209600*%
%ADD13C,1.209600*%
%ADD14C,1.016000*%
%ADD15C,1.016000*%

G36*
X629784Y4080D02*
X629784Y4080D01*
X629903Y4087D01*
X629941Y4100D01*
X629982Y4105D01*
X630092Y4148D01*
X630205Y4185D01*
X630240Y4207D01*
X630277Y4222D01*
X630373Y4291D01*
X630474Y4355D01*
X630502Y4385D01*
X630535Y4408D01*
X630611Y4500D01*
X630692Y4587D01*
X630712Y4622D01*
X630737Y4653D01*
X630788Y4761D01*
X630846Y4865D01*
X630856Y4905D01*
X630873Y4941D01*
X630895Y5058D01*
X630925Y5173D01*
X630929Y5233D01*
X630933Y5253D01*
X630931Y5274D01*
X630935Y5334D01*
X630935Y528066D01*
X630920Y528184D01*
X630913Y528303D01*
X630900Y528341D01*
X630895Y528382D01*
X630852Y528492D01*
X630815Y528605D01*
X630793Y528640D01*
X630778Y528677D01*
X630709Y528773D01*
X630645Y528874D01*
X630615Y528902D01*
X630592Y528935D01*
X630500Y529011D01*
X630413Y529092D01*
X630378Y529112D01*
X630347Y529137D01*
X630239Y529188D01*
X630135Y529246D01*
X630095Y529256D01*
X630059Y529273D01*
X629942Y529295D01*
X629827Y529325D01*
X629767Y529329D01*
X629747Y529333D01*
X629726Y529331D01*
X629666Y529335D01*
X5334Y529335D01*
X5216Y529320D01*
X5097Y529313D01*
X5059Y529300D01*
X5018Y529295D01*
X4908Y529252D01*
X4795Y529215D01*
X4760Y529193D01*
X4723Y529178D01*
X4627Y529109D01*
X4526Y529045D01*
X4498Y529015D01*
X4465Y528992D01*
X4389Y528900D01*
X4308Y528813D01*
X4288Y528778D01*
X4263Y528747D01*
X4212Y528639D01*
X4154Y528535D01*
X4144Y528495D01*
X4127Y528459D01*
X4105Y528342D01*
X4075Y528227D01*
X4071Y528167D01*
X4067Y528147D01*
X4069Y528126D01*
X4065Y528066D01*
X4065Y5334D01*
X4080Y5216D01*
X4087Y5097D01*
X4100Y5059D01*
X4105Y5018D01*
X4148Y4908D01*
X4185Y4795D01*
X4207Y4760D01*
X4222Y4723D01*
X4291Y4627D01*
X4355Y4526D01*
X4385Y4498D01*
X4408Y4465D01*
X4500Y4389D01*
X4587Y4308D01*
X4622Y4288D01*
X4653Y4263D01*
X4761Y4212D01*
X4865Y4154D01*
X4905Y4144D01*
X4941Y4127D01*
X5058Y4105D01*
X5173Y4075D01*
X5233Y4071D01*
X5253Y4067D01*
X5274Y4069D01*
X5334Y4065D01*
X629666Y4065D01*
X629784Y4080D01*
G37*
%LPC*%
G36*
X506383Y74421D02*
X506383Y74421D01*
X503395Y75659D01*
X501109Y77945D01*
X499871Y80933D01*
X499871Y145010D01*
X503153Y155111D01*
X509396Y163704D01*
X517989Y169947D01*
X528090Y173229D01*
X552450Y173229D01*
X552472Y173231D01*
X552550Y173233D01*
X555053Y173430D01*
X555121Y173444D01*
X555190Y173448D01*
X555345Y173488D01*
X560107Y175035D01*
X560214Y175085D01*
X560325Y175129D01*
X560376Y175162D01*
X560395Y175170D01*
X560410Y175183D01*
X560461Y175215D01*
X564511Y178158D01*
X564598Y178239D01*
X564689Y178315D01*
X564728Y178362D01*
X564743Y178376D01*
X564754Y178393D01*
X564792Y178439D01*
X567735Y182489D01*
X567792Y182593D01*
X567856Y182693D01*
X567878Y182750D01*
X567888Y182768D01*
X567893Y182788D01*
X567915Y182843D01*
X569462Y187604D01*
X569475Y187672D01*
X569498Y187738D01*
X569520Y187897D01*
X569717Y190400D01*
X569716Y190422D01*
X569721Y190500D01*
X569721Y408579D01*
X569719Y408600D01*
X569719Y408662D01*
X569582Y410751D01*
X569573Y410794D01*
X569573Y410838D01*
X569541Y410996D01*
X568460Y415031D01*
X568428Y415111D01*
X568405Y415193D01*
X568344Y415316D01*
X568340Y415326D01*
X568337Y415329D01*
X568333Y415337D01*
X566244Y418955D01*
X566218Y418990D01*
X566198Y419030D01*
X566100Y419157D01*
X564719Y420731D01*
X564704Y420745D01*
X564663Y420792D01*
X532142Y453312D01*
X532127Y453324D01*
X532050Y453396D01*
X531151Y454133D01*
X531061Y454190D01*
X530976Y454254D01*
X530900Y454291D01*
X530882Y454303D01*
X530867Y454308D01*
X530832Y454325D01*
X528693Y455211D01*
X528591Y455239D01*
X528491Y455275D01*
X528407Y455289D01*
X528386Y455295D01*
X528370Y455295D01*
X528332Y455301D01*
X527174Y455415D01*
X527155Y455415D01*
X527050Y455421D01*
X421145Y455421D01*
X412957Y458082D01*
X405992Y463142D01*
X400932Y470107D01*
X398271Y478295D01*
X398271Y504351D01*
X398259Y504449D01*
X398256Y504548D01*
X398239Y504606D01*
X398231Y504666D01*
X398195Y504758D01*
X398167Y504853D01*
X398137Y504906D01*
X398114Y504962D01*
X398056Y505042D01*
X398006Y505127D01*
X397940Y505203D01*
X397928Y505219D01*
X397918Y505227D01*
X397900Y505248D01*
X395848Y507300D01*
X394873Y509655D01*
X394804Y509775D01*
X394739Y509898D01*
X394725Y509913D01*
X394715Y509931D01*
X394618Y510031D01*
X394525Y510134D01*
X394508Y510145D01*
X394494Y510159D01*
X394375Y510232D01*
X394259Y510308D01*
X394240Y510315D01*
X394223Y510326D01*
X394090Y510367D01*
X393958Y510412D01*
X393938Y510413D01*
X393919Y510419D01*
X393780Y510426D01*
X393641Y510437D01*
X393621Y510433D01*
X393601Y510434D01*
X393465Y510406D01*
X393328Y510382D01*
X393309Y510374D01*
X393290Y510370D01*
X393164Y510309D01*
X393038Y510252D01*
X393022Y510239D01*
X393004Y510230D01*
X392898Y510140D01*
X392790Y510053D01*
X392777Y510037D01*
X392762Y510024D01*
X392682Y509910D01*
X392598Y509799D01*
X392586Y509774D01*
X392579Y509764D01*
X392572Y509745D01*
X392527Y509655D01*
X391552Y507299D01*
X388050Y503798D01*
X383476Y501903D01*
X378524Y501903D01*
X373950Y503798D01*
X370448Y507300D01*
X369473Y509655D01*
X369404Y509775D01*
X369339Y509898D01*
X369325Y509913D01*
X369315Y509931D01*
X369218Y510031D01*
X369125Y510134D01*
X369108Y510145D01*
X369094Y510159D01*
X368975Y510232D01*
X368859Y510308D01*
X368840Y510315D01*
X368823Y510326D01*
X368690Y510367D01*
X368558Y510412D01*
X368538Y510413D01*
X368519Y510419D01*
X368380Y510426D01*
X368241Y510437D01*
X368221Y510433D01*
X368201Y510434D01*
X368065Y510406D01*
X367928Y510382D01*
X367909Y510374D01*
X367890Y510370D01*
X367764Y510309D01*
X367638Y510252D01*
X367622Y510239D01*
X367604Y510230D01*
X367498Y510140D01*
X367390Y510053D01*
X367377Y510037D01*
X367362Y510024D01*
X367282Y509910D01*
X367198Y509799D01*
X367186Y509774D01*
X367179Y509764D01*
X367172Y509745D01*
X367127Y509655D01*
X366152Y507299D01*
X362650Y503798D01*
X358076Y501903D01*
X353124Y501903D01*
X348550Y503798D01*
X345048Y507300D01*
X344073Y509655D01*
X344004Y509775D01*
X343939Y509898D01*
X343925Y509913D01*
X343915Y509931D01*
X343818Y510031D01*
X343725Y510134D01*
X343708Y510145D01*
X343694Y510159D01*
X343575Y510232D01*
X343459Y510308D01*
X343440Y510315D01*
X343423Y510326D01*
X343290Y510367D01*
X343158Y510412D01*
X343138Y510413D01*
X343119Y510419D01*
X342980Y510426D01*
X342841Y510437D01*
X342821Y510433D01*
X342801Y510434D01*
X342665Y510406D01*
X342528Y510382D01*
X342509Y510374D01*
X342490Y510370D01*
X342364Y510309D01*
X342238Y510252D01*
X342222Y510239D01*
X342204Y510230D01*
X342098Y510140D01*
X341990Y510053D01*
X341977Y510037D01*
X341962Y510024D01*
X341882Y509910D01*
X341798Y509799D01*
X341786Y509774D01*
X341779Y509764D01*
X341772Y509745D01*
X341727Y509655D01*
X340752Y507299D01*
X337250Y503798D01*
X332676Y501903D01*
X327724Y501903D01*
X323150Y503798D01*
X319648Y507300D01*
X318673Y509655D01*
X318604Y509775D01*
X318539Y509898D01*
X318525Y509913D01*
X318515Y509931D01*
X318418Y510031D01*
X318325Y510134D01*
X318308Y510145D01*
X318294Y510159D01*
X318175Y510232D01*
X318059Y510308D01*
X318040Y510315D01*
X318023Y510326D01*
X317890Y510367D01*
X317758Y510412D01*
X317738Y510413D01*
X317719Y510419D01*
X317580Y510426D01*
X317441Y510437D01*
X317421Y510433D01*
X317401Y510434D01*
X317265Y510406D01*
X317128Y510382D01*
X317109Y510374D01*
X317090Y510370D01*
X316964Y510309D01*
X316838Y510252D01*
X316822Y510239D01*
X316804Y510230D01*
X316698Y510140D01*
X316590Y510053D01*
X316577Y510037D01*
X316562Y510024D01*
X316482Y509910D01*
X316398Y509799D01*
X316386Y509774D01*
X316379Y509764D01*
X316372Y509745D01*
X316327Y509655D01*
X315352Y507299D01*
X311850Y503798D01*
X307276Y501903D01*
X302324Y501903D01*
X297750Y503798D01*
X294248Y507300D01*
X293273Y509655D01*
X293204Y509775D01*
X293139Y509898D01*
X293125Y509913D01*
X293115Y509931D01*
X293018Y510031D01*
X292925Y510134D01*
X292908Y510145D01*
X292894Y510159D01*
X292775Y510232D01*
X292659Y510308D01*
X292640Y510315D01*
X292623Y510326D01*
X292490Y510367D01*
X292358Y510412D01*
X292338Y510413D01*
X292319Y510419D01*
X292180Y510426D01*
X292041Y510437D01*
X292021Y510433D01*
X292001Y510434D01*
X291865Y510406D01*
X291728Y510382D01*
X291709Y510374D01*
X291690Y510370D01*
X291564Y510309D01*
X291438Y510252D01*
X291422Y510239D01*
X291404Y510230D01*
X291298Y510140D01*
X291190Y510053D01*
X291177Y510037D01*
X291162Y510024D01*
X291082Y509910D01*
X290998Y509799D01*
X290986Y509774D01*
X290979Y509764D01*
X290972Y509745D01*
X290927Y509655D01*
X289952Y507299D01*
X286450Y503798D01*
X281876Y501903D01*
X276924Y501903D01*
X272350Y503798D01*
X268848Y507300D01*
X267873Y509655D01*
X267804Y509775D01*
X267739Y509898D01*
X267725Y509913D01*
X267715Y509931D01*
X267618Y510031D01*
X267525Y510134D01*
X267508Y510145D01*
X267494Y510159D01*
X267375Y510232D01*
X267259Y510308D01*
X267240Y510315D01*
X267223Y510326D01*
X267090Y510367D01*
X266958Y510412D01*
X266938Y510413D01*
X266919Y510419D01*
X266780Y510426D01*
X266641Y510437D01*
X266621Y510433D01*
X266601Y510434D01*
X266465Y510406D01*
X266328Y510382D01*
X266309Y510374D01*
X266290Y510370D01*
X266164Y510309D01*
X266038Y510252D01*
X266022Y510239D01*
X266004Y510230D01*
X265898Y510140D01*
X265790Y510053D01*
X265777Y510037D01*
X265762Y510024D01*
X265682Y509910D01*
X265598Y509799D01*
X265586Y509774D01*
X265579Y509764D01*
X265572Y509745D01*
X265527Y509655D01*
X264552Y507299D01*
X261242Y503990D01*
X261236Y503982D01*
X261229Y503976D01*
X261139Y503856D01*
X261047Y503738D01*
X261043Y503730D01*
X261038Y503722D01*
X260967Y503578D01*
X260891Y503395D01*
X258605Y501109D01*
X255617Y499871D01*
X252383Y499871D01*
X249395Y501109D01*
X247109Y503395D01*
X247033Y503578D01*
X247029Y503586D01*
X247026Y503595D01*
X246951Y503722D01*
X246876Y503854D01*
X246869Y503861D01*
X246865Y503869D01*
X246758Y503990D01*
X243448Y507300D01*
X242473Y509655D01*
X242404Y509775D01*
X242339Y509898D01*
X242325Y509913D01*
X242315Y509931D01*
X242218Y510031D01*
X242125Y510134D01*
X242108Y510145D01*
X242094Y510159D01*
X241975Y510232D01*
X241859Y510308D01*
X241840Y510315D01*
X241823Y510326D01*
X241690Y510367D01*
X241558Y510412D01*
X241538Y510413D01*
X241519Y510419D01*
X241380Y510426D01*
X241241Y510437D01*
X241221Y510433D01*
X241201Y510434D01*
X241065Y510406D01*
X240928Y510382D01*
X240909Y510374D01*
X240890Y510370D01*
X240764Y510309D01*
X240638Y510252D01*
X240622Y510239D01*
X240604Y510230D01*
X240498Y510140D01*
X240390Y510053D01*
X240377Y510037D01*
X240362Y510024D01*
X240282Y509910D01*
X240198Y509799D01*
X240186Y509774D01*
X240179Y509764D01*
X240172Y509745D01*
X240127Y509655D01*
X239152Y507299D01*
X237100Y505248D01*
X237040Y505170D01*
X236972Y505098D01*
X236943Y505045D01*
X236906Y504997D01*
X236866Y504906D01*
X236818Y504819D01*
X236803Y504761D01*
X236779Y504705D01*
X236764Y504607D01*
X236739Y504511D01*
X236733Y504411D01*
X236729Y504391D01*
X236731Y504379D01*
X236729Y504351D01*
X236729Y476250D01*
X236731Y476229D01*
X236731Y476167D01*
X236923Y473249D01*
X236931Y473206D01*
X236931Y473162D01*
X236963Y473004D01*
X238473Y467368D01*
X238506Y467288D01*
X238529Y467206D01*
X238589Y467083D01*
X238594Y467073D01*
X238596Y467070D01*
X238600Y467062D01*
X241518Y462008D01*
X241569Y461940D01*
X241613Y461866D01*
X241704Y461763D01*
X241710Y461755D01*
X241713Y461752D01*
X241719Y461745D01*
X245845Y457619D01*
X245913Y457567D01*
X245974Y457507D01*
X246088Y457431D01*
X246097Y457425D01*
X246101Y457423D01*
X246108Y457418D01*
X251162Y454500D01*
X251240Y454467D01*
X251315Y454425D01*
X251445Y454381D01*
X251455Y454377D01*
X251459Y454376D01*
X251468Y454373D01*
X257104Y452863D01*
X257148Y452857D01*
X257190Y452843D01*
X257349Y452823D01*
X260267Y452631D01*
X260288Y452633D01*
X260350Y452629D01*
X506960Y452629D01*
X517061Y449347D01*
X525654Y443104D01*
X531897Y434511D01*
X535179Y424410D01*
X535179Y337590D01*
X531897Y327489D01*
X525654Y318896D01*
X517061Y312653D01*
X506960Y309371D01*
X506049Y309371D01*
X506040Y309370D01*
X506030Y309371D01*
X505882Y309350D01*
X505733Y309331D01*
X505725Y309328D01*
X505716Y309327D01*
X505563Y309275D01*
X503459Y308403D01*
X499841Y308403D01*
X496497Y309788D01*
X493938Y312347D01*
X492553Y315691D01*
X492553Y319309D01*
X493938Y322653D01*
X496497Y325212D01*
X499841Y326597D01*
X503459Y326597D01*
X504463Y326181D01*
X504511Y326168D01*
X504556Y326147D01*
X504664Y326126D01*
X504770Y326097D01*
X504819Y326096D01*
X504868Y326087D01*
X504978Y326094D01*
X505088Y326092D01*
X505136Y326103D01*
X505185Y326106D01*
X505341Y326146D01*
X509307Y327435D01*
X509414Y327485D01*
X509525Y327529D01*
X509576Y327562D01*
X509595Y327570D01*
X509610Y327583D01*
X509661Y327615D01*
X513711Y330558D01*
X513798Y330639D01*
X513889Y330715D01*
X513928Y330762D01*
X513943Y330776D01*
X513954Y330793D01*
X513992Y330839D01*
X516935Y334889D01*
X516992Y334993D01*
X517056Y335093D01*
X517078Y335150D01*
X517088Y335168D01*
X517093Y335188D01*
X517115Y335243D01*
X518662Y340005D01*
X518675Y340072D01*
X518698Y340138D01*
X518720Y340297D01*
X518917Y342800D01*
X518916Y342822D01*
X518921Y342900D01*
X518921Y419100D01*
X518919Y419122D01*
X518917Y419200D01*
X518720Y421703D01*
X518706Y421771D01*
X518702Y421840D01*
X518662Y421995D01*
X517115Y426757D01*
X517065Y426864D01*
X517021Y426975D01*
X516988Y427026D01*
X516980Y427045D01*
X516967Y427060D01*
X516935Y427111D01*
X513992Y431161D01*
X513911Y431248D01*
X513835Y431339D01*
X513788Y431378D01*
X513774Y431393D01*
X513757Y431404D01*
X513711Y431442D01*
X509661Y434385D01*
X509557Y434442D01*
X509457Y434506D01*
X509400Y434528D01*
X509382Y434538D01*
X509362Y434543D01*
X509307Y434565D01*
X504545Y436112D01*
X504478Y436125D01*
X504412Y436148D01*
X504253Y436170D01*
X501750Y436367D01*
X501728Y436366D01*
X501650Y436371D01*
X255100Y436371D01*
X244957Y439089D01*
X235864Y444339D01*
X228439Y451764D01*
X223189Y460857D01*
X220471Y471000D01*
X220471Y504351D01*
X220459Y504449D01*
X220456Y504548D01*
X220439Y504606D01*
X220431Y504666D01*
X220395Y504758D01*
X220367Y504853D01*
X220337Y504906D01*
X220314Y504962D01*
X220256Y505042D01*
X220206Y505127D01*
X220140Y505203D01*
X220128Y505219D01*
X220118Y505227D01*
X220100Y505248D01*
X218048Y507300D01*
X217073Y509655D01*
X217004Y509775D01*
X216939Y509898D01*
X216925Y509913D01*
X216915Y509931D01*
X216818Y510031D01*
X216725Y510134D01*
X216708Y510145D01*
X216694Y510159D01*
X216575Y510232D01*
X216459Y510308D01*
X216440Y510315D01*
X216423Y510326D01*
X216290Y510367D01*
X216158Y510412D01*
X216138Y510413D01*
X216119Y510419D01*
X215980Y510426D01*
X215841Y510437D01*
X215821Y510433D01*
X215801Y510434D01*
X215665Y510406D01*
X215528Y510382D01*
X215509Y510374D01*
X215490Y510370D01*
X215364Y510309D01*
X215238Y510252D01*
X215222Y510239D01*
X215204Y510230D01*
X215098Y510140D01*
X214990Y510053D01*
X214977Y510037D01*
X214962Y510024D01*
X214882Y509910D01*
X214798Y509799D01*
X214786Y509774D01*
X214779Y509764D01*
X214772Y509745D01*
X214727Y509655D01*
X213752Y507299D01*
X211700Y505248D01*
X211640Y505170D01*
X211572Y505098D01*
X211543Y505045D01*
X211506Y504997D01*
X211466Y504906D01*
X211418Y504819D01*
X211403Y504761D01*
X211379Y504705D01*
X211364Y504607D01*
X211339Y504511D01*
X211333Y504411D01*
X211329Y504391D01*
X211331Y504379D01*
X211329Y504351D01*
X211329Y444500D01*
X211331Y444478D01*
X211333Y444400D01*
X211530Y441897D01*
X211544Y441829D01*
X211548Y441760D01*
X211588Y441605D01*
X213135Y436843D01*
X213185Y436736D01*
X213229Y436625D01*
X213262Y436574D01*
X213270Y436555D01*
X213283Y436540D01*
X213315Y436489D01*
X216258Y432439D01*
X216339Y432352D01*
X216415Y432261D01*
X216462Y432222D01*
X216476Y432207D01*
X216493Y432196D01*
X216539Y432158D01*
X220589Y429215D01*
X220693Y429158D01*
X220793Y429094D01*
X220850Y429072D01*
X220868Y429062D01*
X220888Y429057D01*
X220943Y429035D01*
X225705Y427488D01*
X225772Y427475D01*
X225838Y427452D01*
X225997Y427430D01*
X228500Y427233D01*
X228522Y427234D01*
X228600Y427229D01*
X481560Y427229D01*
X491661Y423947D01*
X500254Y417704D01*
X506497Y409111D01*
X509779Y399010D01*
X509779Y391749D01*
X509780Y391740D01*
X509779Y391730D01*
X509800Y391582D01*
X509819Y391433D01*
X509822Y391425D01*
X509823Y391415D01*
X509875Y391263D01*
X510747Y389159D01*
X510747Y385541D01*
X509362Y382197D01*
X506803Y379638D01*
X503459Y378253D01*
X499841Y378253D01*
X496497Y379638D01*
X493938Y382197D01*
X492553Y385541D01*
X492553Y389159D01*
X493425Y391263D01*
X493427Y391272D01*
X493432Y391280D01*
X493469Y391425D01*
X493509Y391570D01*
X493509Y391579D01*
X493511Y391588D01*
X493521Y391749D01*
X493521Y393700D01*
X493519Y393722D01*
X493517Y393800D01*
X493320Y396303D01*
X493306Y396371D01*
X493302Y396440D01*
X493262Y396595D01*
X491715Y401357D01*
X491665Y401464D01*
X491621Y401575D01*
X491588Y401626D01*
X491580Y401645D01*
X491567Y401660D01*
X491535Y401711D01*
X488592Y405761D01*
X488511Y405848D01*
X488435Y405939D01*
X488388Y405978D01*
X488374Y405993D01*
X488357Y406004D01*
X488311Y406042D01*
X484261Y408985D01*
X484157Y409042D01*
X484057Y409106D01*
X484000Y409128D01*
X483982Y409138D01*
X483962Y409143D01*
X483907Y409165D01*
X479145Y410712D01*
X479078Y410725D01*
X479012Y410748D01*
X478853Y410770D01*
X476350Y410967D01*
X476328Y410966D01*
X476250Y410971D01*
X223290Y410971D01*
X213189Y414253D01*
X204596Y420496D01*
X198353Y429089D01*
X195071Y439190D01*
X195071Y504351D01*
X195059Y504449D01*
X195056Y504548D01*
X195039Y504606D01*
X195031Y504666D01*
X194995Y504758D01*
X194967Y504853D01*
X194937Y504906D01*
X194914Y504962D01*
X194856Y505042D01*
X194806Y505127D01*
X194740Y505203D01*
X194728Y505219D01*
X194718Y505227D01*
X194700Y505248D01*
X192648Y507300D01*
X190753Y511874D01*
X190753Y516826D01*
X192648Y521400D01*
X196150Y524902D01*
X200724Y526797D01*
X205676Y526797D01*
X210250Y524902D01*
X213752Y521401D01*
X214727Y519045D01*
X214796Y518924D01*
X214861Y518802D01*
X214875Y518787D01*
X214885Y518769D01*
X214982Y518669D01*
X215075Y518566D01*
X215092Y518555D01*
X215106Y518541D01*
X215224Y518468D01*
X215341Y518392D01*
X215360Y518385D01*
X215377Y518374D01*
X215510Y518334D01*
X215642Y518288D01*
X215662Y518287D01*
X215681Y518281D01*
X215820Y518274D01*
X215959Y518263D01*
X215979Y518267D01*
X215999Y518266D01*
X216135Y518294D01*
X216272Y518318D01*
X216291Y518326D01*
X216310Y518330D01*
X216435Y518391D01*
X216562Y518448D01*
X216578Y518461D01*
X216596Y518470D01*
X216702Y518560D01*
X216810Y518647D01*
X216823Y518663D01*
X216838Y518676D01*
X216918Y518790D01*
X217002Y518901D01*
X217014Y518926D01*
X217021Y518936D01*
X217028Y518955D01*
X217073Y519045D01*
X218048Y521400D01*
X221550Y524902D01*
X226124Y526797D01*
X231076Y526797D01*
X235650Y524902D01*
X239152Y521401D01*
X240127Y519045D01*
X240196Y518924D01*
X240261Y518802D01*
X240275Y518787D01*
X240285Y518769D01*
X240382Y518669D01*
X240475Y518566D01*
X240492Y518555D01*
X240506Y518541D01*
X240624Y518468D01*
X240741Y518392D01*
X240760Y518385D01*
X240777Y518374D01*
X240910Y518334D01*
X241042Y518288D01*
X241062Y518287D01*
X241081Y518281D01*
X241220Y518274D01*
X241359Y518263D01*
X241379Y518267D01*
X241399Y518266D01*
X241535Y518294D01*
X241672Y518318D01*
X241691Y518326D01*
X241710Y518330D01*
X241835Y518391D01*
X241962Y518448D01*
X241978Y518461D01*
X241996Y518470D01*
X242102Y518560D01*
X242210Y518647D01*
X242223Y518663D01*
X242238Y518676D01*
X242318Y518790D01*
X242402Y518901D01*
X242414Y518926D01*
X242421Y518936D01*
X242428Y518955D01*
X242473Y519045D01*
X243448Y521400D01*
X246950Y524902D01*
X251524Y526797D01*
X256476Y526797D01*
X261050Y524902D01*
X264552Y521401D01*
X265527Y519045D01*
X265596Y518924D01*
X265661Y518802D01*
X265675Y518787D01*
X265685Y518769D01*
X265782Y518669D01*
X265875Y518566D01*
X265892Y518555D01*
X265906Y518541D01*
X266024Y518468D01*
X266141Y518392D01*
X266160Y518385D01*
X266177Y518374D01*
X266310Y518334D01*
X266442Y518288D01*
X266462Y518287D01*
X266481Y518281D01*
X266620Y518274D01*
X266759Y518263D01*
X266779Y518267D01*
X266799Y518266D01*
X266935Y518294D01*
X267072Y518318D01*
X267091Y518326D01*
X267110Y518330D01*
X267235Y518391D01*
X267362Y518448D01*
X267378Y518461D01*
X267396Y518470D01*
X267502Y518560D01*
X267610Y518647D01*
X267623Y518663D01*
X267638Y518676D01*
X267718Y518790D01*
X267802Y518901D01*
X267814Y518926D01*
X267821Y518936D01*
X267828Y518955D01*
X267873Y519045D01*
X268848Y521400D01*
X272350Y524902D01*
X276924Y526797D01*
X281876Y526797D01*
X286450Y524902D01*
X289952Y521401D01*
X290927Y519045D01*
X290996Y518924D01*
X291061Y518802D01*
X291075Y518787D01*
X291085Y518769D01*
X291182Y518669D01*
X291275Y518566D01*
X291292Y518555D01*
X291306Y518541D01*
X291424Y518468D01*
X291541Y518392D01*
X291560Y518385D01*
X291577Y518374D01*
X291710Y518334D01*
X291842Y518288D01*
X291862Y518287D01*
X291881Y518281D01*
X292020Y518274D01*
X292159Y518263D01*
X292179Y518267D01*
X292199Y518266D01*
X292335Y518294D01*
X292472Y518318D01*
X292491Y518326D01*
X292510Y518330D01*
X292635Y518391D01*
X292762Y518448D01*
X292778Y518461D01*
X292796Y518470D01*
X292902Y518560D01*
X293010Y518647D01*
X293023Y518663D01*
X293038Y518676D01*
X293118Y518790D01*
X293202Y518901D01*
X293214Y518926D01*
X293221Y518936D01*
X293228Y518955D01*
X293273Y519045D01*
X294248Y521400D01*
X297750Y524902D01*
X302324Y526797D01*
X307276Y526797D01*
X311850Y524902D01*
X315352Y521401D01*
X316327Y519045D01*
X316396Y518924D01*
X316461Y518802D01*
X316475Y518787D01*
X316485Y518769D01*
X316582Y518669D01*
X316675Y518566D01*
X316692Y518555D01*
X316706Y518541D01*
X316824Y518468D01*
X316941Y518392D01*
X316960Y518385D01*
X316977Y518374D01*
X317110Y518334D01*
X317242Y518288D01*
X317262Y518287D01*
X317281Y518281D01*
X317420Y518274D01*
X317559Y518263D01*
X317579Y518267D01*
X317599Y518266D01*
X317735Y518294D01*
X317872Y518318D01*
X317891Y518326D01*
X317910Y518330D01*
X318035Y518391D01*
X318162Y518448D01*
X318178Y518461D01*
X318196Y518470D01*
X318302Y518560D01*
X318410Y518647D01*
X318423Y518663D01*
X318438Y518676D01*
X318518Y518790D01*
X318602Y518901D01*
X318614Y518926D01*
X318621Y518936D01*
X318628Y518955D01*
X318673Y519045D01*
X319648Y521400D01*
X323150Y524902D01*
X327724Y526797D01*
X332676Y526797D01*
X337250Y524902D01*
X340752Y521401D01*
X341727Y519045D01*
X341796Y518924D01*
X341861Y518802D01*
X341875Y518787D01*
X341885Y518769D01*
X341982Y518669D01*
X342075Y518566D01*
X342092Y518555D01*
X342106Y518541D01*
X342224Y518468D01*
X342341Y518392D01*
X342360Y518385D01*
X342377Y518374D01*
X342510Y518334D01*
X342642Y518288D01*
X342662Y518287D01*
X342681Y518281D01*
X342820Y518274D01*
X342959Y518263D01*
X342979Y518267D01*
X342999Y518266D01*
X343135Y518294D01*
X343272Y518318D01*
X343291Y518326D01*
X343310Y518330D01*
X343435Y518391D01*
X343562Y518448D01*
X343578Y518461D01*
X343596Y518470D01*
X343702Y518560D01*
X343810Y518647D01*
X343823Y518663D01*
X343838Y518676D01*
X343918Y518790D01*
X344002Y518901D01*
X344014Y518926D01*
X344021Y518936D01*
X344028Y518955D01*
X344073Y519045D01*
X345048Y521400D01*
X348550Y524902D01*
X353124Y526797D01*
X358076Y526797D01*
X362650Y524902D01*
X366152Y521401D01*
X367127Y519045D01*
X367196Y518924D01*
X367261Y518802D01*
X367275Y518787D01*
X367285Y518769D01*
X367382Y518669D01*
X367475Y518566D01*
X367492Y518555D01*
X367506Y518541D01*
X367624Y518468D01*
X367741Y518392D01*
X367760Y518385D01*
X367777Y518374D01*
X367910Y518334D01*
X368042Y518288D01*
X368062Y518287D01*
X368081Y518281D01*
X368220Y518274D01*
X368359Y518263D01*
X368379Y518267D01*
X368399Y518266D01*
X368535Y518294D01*
X368672Y518318D01*
X368691Y518326D01*
X368710Y518330D01*
X368835Y518391D01*
X368962Y518448D01*
X368978Y518461D01*
X368996Y518470D01*
X369102Y518560D01*
X369210Y518647D01*
X369223Y518663D01*
X369238Y518676D01*
X369318Y518790D01*
X369402Y518901D01*
X369414Y518926D01*
X369421Y518936D01*
X369428Y518955D01*
X369473Y519045D01*
X370448Y521400D01*
X373950Y524902D01*
X378524Y526797D01*
X383476Y526797D01*
X388050Y524902D01*
X391552Y521401D01*
X392527Y519045D01*
X392596Y518924D01*
X392661Y518802D01*
X392675Y518787D01*
X392685Y518769D01*
X392782Y518669D01*
X392875Y518566D01*
X392892Y518555D01*
X392906Y518541D01*
X393024Y518468D01*
X393141Y518392D01*
X393160Y518385D01*
X393177Y518374D01*
X393310Y518334D01*
X393442Y518288D01*
X393462Y518287D01*
X393481Y518281D01*
X393620Y518274D01*
X393759Y518263D01*
X393779Y518267D01*
X393799Y518266D01*
X393935Y518294D01*
X394072Y518318D01*
X394091Y518326D01*
X394110Y518330D01*
X394235Y518391D01*
X394362Y518448D01*
X394378Y518461D01*
X394396Y518470D01*
X394502Y518560D01*
X394610Y518647D01*
X394623Y518663D01*
X394638Y518676D01*
X394718Y518790D01*
X394802Y518901D01*
X394814Y518926D01*
X394821Y518936D01*
X394828Y518955D01*
X394873Y519045D01*
X395848Y521400D01*
X399350Y524902D01*
X403924Y526797D01*
X408876Y526797D01*
X413450Y524902D01*
X416952Y521400D01*
X418205Y518375D01*
X418220Y518349D01*
X418229Y518320D01*
X418299Y518211D01*
X418363Y518098D01*
X418384Y518077D01*
X418400Y518052D01*
X418494Y517963D01*
X418584Y517870D01*
X418610Y517854D01*
X418631Y517834D01*
X418745Y517771D01*
X418855Y517704D01*
X418884Y517695D01*
X418910Y517681D01*
X419035Y517648D01*
X419159Y517610D01*
X419189Y517609D01*
X419218Y517601D01*
X419348Y517601D01*
X419477Y517595D01*
X419506Y517601D01*
X419536Y517601D01*
X419661Y517633D01*
X419788Y517659D01*
X419815Y517672D01*
X419844Y517680D01*
X419957Y517742D01*
X420074Y517799D01*
X420097Y517818D01*
X420123Y517833D01*
X420217Y517921D01*
X420316Y518005D01*
X420333Y518030D01*
X420355Y518050D01*
X420424Y518159D01*
X420499Y518265D01*
X420510Y518293D01*
X420526Y518319D01*
X420585Y518468D01*
X420736Y518933D01*
X421589Y520607D01*
X422694Y522128D01*
X424022Y523456D01*
X425543Y524561D01*
X427217Y525414D01*
X429004Y525995D01*
X429261Y526035D01*
X429261Y515620D01*
X429276Y515502D01*
X429283Y515383D01*
X429296Y515345D01*
X429301Y515305D01*
X429344Y515194D01*
X429381Y515081D01*
X429403Y515047D01*
X429418Y515009D01*
X429488Y514913D01*
X429551Y514812D01*
X429581Y514784D01*
X429604Y514752D01*
X429696Y514676D01*
X429783Y514594D01*
X429818Y514575D01*
X429849Y514549D01*
X429957Y514498D01*
X430061Y514441D01*
X430101Y514430D01*
X430137Y514413D01*
X430254Y514391D01*
X430369Y514361D01*
X430430Y514357D01*
X430450Y514353D01*
X430470Y514355D01*
X430530Y514351D01*
X431801Y514351D01*
X431801Y514349D01*
X430530Y514349D01*
X430412Y514334D01*
X430293Y514327D01*
X430255Y514314D01*
X430214Y514309D01*
X430104Y514265D01*
X429991Y514229D01*
X429956Y514207D01*
X429919Y514192D01*
X429823Y514122D01*
X429722Y514059D01*
X429694Y514029D01*
X429661Y514005D01*
X429586Y513914D01*
X429504Y513827D01*
X429484Y513792D01*
X429459Y513760D01*
X429408Y513653D01*
X429350Y513548D01*
X429340Y513509D01*
X429323Y513473D01*
X429301Y513356D01*
X429271Y513241D01*
X429267Y513180D01*
X429263Y513160D01*
X429265Y513140D01*
X429261Y513080D01*
X429261Y502665D01*
X429004Y502705D01*
X427217Y503286D01*
X425543Y504139D01*
X424022Y505244D01*
X422694Y506572D01*
X421589Y508093D01*
X420736Y509767D01*
X420585Y510232D01*
X420572Y510259D01*
X420565Y510288D01*
X420505Y510402D01*
X420450Y510520D01*
X420431Y510543D01*
X420417Y510569D01*
X420330Y510665D01*
X420247Y510765D01*
X420223Y510782D01*
X420203Y510804D01*
X420094Y510876D01*
X419990Y510952D01*
X419962Y510963D01*
X419937Y510979D01*
X419814Y511021D01*
X419694Y511069D01*
X419664Y511073D01*
X419636Y511082D01*
X419507Y511093D01*
X419379Y511109D01*
X419349Y511105D01*
X419319Y511108D01*
X419191Y511085D01*
X419063Y511069D01*
X419035Y511058D01*
X419006Y511053D01*
X418888Y511000D01*
X418767Y510952D01*
X418743Y510935D01*
X418716Y510923D01*
X418615Y510842D01*
X418510Y510766D01*
X418491Y510743D01*
X418467Y510724D01*
X418389Y510620D01*
X418307Y510521D01*
X418294Y510494D01*
X418276Y510470D01*
X418205Y510325D01*
X416952Y507300D01*
X414900Y505248D01*
X414840Y505170D01*
X414772Y505098D01*
X414743Y505045D01*
X414706Y504997D01*
X414666Y504906D01*
X414618Y504819D01*
X414603Y504761D01*
X414579Y504705D01*
X414564Y504607D01*
X414539Y504511D01*
X414533Y504411D01*
X414529Y504391D01*
X414531Y504379D01*
X414529Y504351D01*
X414529Y482600D01*
X414531Y482578D01*
X414533Y482500D01*
X414651Y480991D01*
X414666Y480923D01*
X414670Y480854D01*
X414710Y480698D01*
X415643Y477826D01*
X415693Y477719D01*
X415737Y477608D01*
X415770Y477557D01*
X415778Y477538D01*
X415791Y477522D01*
X415823Y477472D01*
X417598Y475029D01*
X417679Y474942D01*
X417755Y474851D01*
X417802Y474812D01*
X417816Y474797D01*
X417833Y474786D01*
X417879Y474748D01*
X420322Y472973D01*
X420426Y472916D01*
X420526Y472852D01*
X420583Y472830D01*
X420601Y472820D01*
X420620Y472815D01*
X420676Y472793D01*
X423548Y471860D01*
X423616Y471847D01*
X423681Y471824D01*
X423841Y471801D01*
X425350Y471683D01*
X425372Y471684D01*
X425450Y471679D01*
X527930Y471679D01*
X527980Y471685D01*
X528030Y471683D01*
X528137Y471705D01*
X528245Y471719D01*
X528292Y471737D01*
X528342Y471747D01*
X528440Y471796D01*
X528541Y471836D01*
X528582Y471865D01*
X528627Y471888D01*
X528710Y471958D01*
X528798Y472022D01*
X528831Y472061D01*
X528869Y472094D01*
X528932Y472183D01*
X529001Y472267D01*
X529023Y472313D01*
X529052Y472354D01*
X529090Y472457D01*
X529137Y472555D01*
X529146Y472605D01*
X529164Y472652D01*
X529176Y472760D01*
X529196Y472867D01*
X529193Y472918D01*
X529199Y472968D01*
X529186Y473129D01*
X527824Y482600D01*
X529594Y494905D01*
X534758Y506213D01*
X542898Y515608D01*
X553356Y522329D01*
X565284Y525831D01*
X577716Y525831D01*
X589644Y522329D01*
X600101Y515608D01*
X608242Y506213D01*
X613406Y494905D01*
X615176Y482600D01*
X613406Y470295D01*
X608242Y458987D01*
X600101Y449592D01*
X589644Y442871D01*
X577716Y439369D01*
X572141Y439369D01*
X572004Y439351D01*
X571865Y439338D01*
X571846Y439332D01*
X571826Y439329D01*
X571697Y439278D01*
X571566Y439231D01*
X571549Y439219D01*
X571530Y439212D01*
X571417Y439130D01*
X571302Y439052D01*
X571289Y439037D01*
X571273Y439025D01*
X571184Y438918D01*
X571092Y438814D01*
X571083Y438796D01*
X571070Y438780D01*
X571011Y438654D01*
X570947Y438531D01*
X570943Y438511D01*
X570934Y438492D01*
X570908Y438356D01*
X570878Y438220D01*
X570878Y438200D01*
X570874Y438180D01*
X570883Y438042D01*
X570887Y437902D01*
X570893Y437883D01*
X570894Y437863D01*
X570937Y437731D01*
X570976Y437597D01*
X570986Y437579D01*
X570992Y437560D01*
X571067Y437442D01*
X571137Y437323D01*
X571156Y437302D01*
X571162Y437291D01*
X571177Y437277D01*
X571244Y437202D01*
X577480Y430966D01*
X579280Y429166D01*
X583694Y421521D01*
X585979Y412993D01*
X585979Y185190D01*
X582697Y175088D01*
X576454Y166496D01*
X567861Y160253D01*
X557760Y156971D01*
X533400Y156971D01*
X533378Y156969D01*
X533300Y156967D01*
X530797Y156770D01*
X530729Y156756D01*
X530660Y156752D01*
X530505Y156712D01*
X525743Y155165D01*
X525636Y155115D01*
X525525Y155071D01*
X525474Y155038D01*
X525455Y155030D01*
X525440Y155017D01*
X525389Y154985D01*
X521339Y152042D01*
X521252Y151961D01*
X521161Y151885D01*
X521122Y151838D01*
X521107Y151824D01*
X521096Y151807D01*
X521058Y151761D01*
X518115Y147711D01*
X518058Y147607D01*
X517994Y147507D01*
X517972Y147450D01*
X517962Y147432D01*
X517957Y147412D01*
X517935Y147357D01*
X516388Y142595D01*
X516375Y142528D01*
X516352Y142462D01*
X516330Y142303D01*
X516133Y139800D01*
X516134Y139778D01*
X516129Y139700D01*
X516129Y80933D01*
X514891Y77945D01*
X512605Y75659D01*
X509617Y74421D01*
X506383Y74421D01*
G37*
%LPD*%
%LPC*%
G36*
X588074Y6603D02*
X588074Y6603D01*
X583500Y8498D01*
X579998Y12000D01*
X578103Y16574D01*
X578103Y21526D01*
X579998Y26100D01*
X582050Y28152D01*
X582110Y28230D01*
X582178Y28302D01*
X582207Y28355D01*
X582244Y28403D01*
X582284Y28494D01*
X582332Y28581D01*
X582347Y28639D01*
X582371Y28695D01*
X582386Y28793D01*
X582411Y28889D01*
X582417Y28989D01*
X582421Y29009D01*
X582419Y29021D01*
X582421Y29049D01*
X582421Y38100D01*
X582419Y38122D01*
X582417Y38200D01*
X582299Y39709D01*
X582285Y39777D01*
X582281Y39841D01*
X582280Y39846D01*
X582240Y40002D01*
X581307Y42874D01*
X581257Y42981D01*
X581213Y43092D01*
X581180Y43143D01*
X581172Y43162D01*
X581159Y43178D01*
X581127Y43228D01*
X579352Y45671D01*
X579271Y45758D01*
X579195Y45849D01*
X579148Y45888D01*
X579134Y45903D01*
X579117Y45914D01*
X579071Y45952D01*
X576628Y47727D01*
X576524Y47784D01*
X576424Y47848D01*
X576367Y47870D01*
X576349Y47880D01*
X576330Y47885D01*
X576274Y47907D01*
X573402Y48840D01*
X573334Y48853D01*
X573269Y48876D01*
X573109Y48899D01*
X571600Y49017D01*
X571578Y49016D01*
X571500Y49021D01*
X438414Y49021D01*
X426656Y52172D01*
X416115Y58258D01*
X407508Y66865D01*
X401422Y77406D01*
X398271Y89164D01*
X398271Y222250D01*
X398269Y222272D01*
X398267Y222350D01*
X398070Y224853D01*
X398056Y224921D01*
X398052Y224990D01*
X398012Y225145D01*
X396465Y229907D01*
X396415Y230014D01*
X396371Y230125D01*
X396338Y230176D01*
X396330Y230195D01*
X396317Y230210D01*
X396285Y230261D01*
X393342Y234311D01*
X393261Y234398D01*
X393185Y234489D01*
X393138Y234528D01*
X393124Y234543D01*
X393107Y234554D01*
X393061Y234592D01*
X389011Y237535D01*
X388907Y237592D01*
X388807Y237656D01*
X388750Y237678D01*
X388732Y237688D01*
X388712Y237693D01*
X388657Y237715D01*
X383896Y239262D01*
X383895Y239262D01*
X383828Y239275D01*
X383762Y239298D01*
X383603Y239320D01*
X381100Y239517D01*
X381078Y239516D01*
X381000Y239521D01*
X188549Y239521D01*
X188540Y239520D01*
X188530Y239521D01*
X188382Y239500D01*
X188233Y239481D01*
X188225Y239478D01*
X188216Y239477D01*
X188063Y239425D01*
X185959Y238553D01*
X182341Y238553D01*
X178997Y239938D01*
X176438Y242497D01*
X175053Y245841D01*
X175053Y249459D01*
X176438Y252803D01*
X178997Y255362D01*
X182341Y256747D01*
X185959Y256747D01*
X188063Y255875D01*
X188072Y255873D01*
X188080Y255868D01*
X188225Y255831D01*
X188370Y255791D01*
X188379Y255791D01*
X188388Y255789D01*
X188549Y255779D01*
X386310Y255779D01*
X396411Y252497D01*
X405004Y246254D01*
X411247Y237661D01*
X414529Y227560D01*
X414529Y95250D01*
X414531Y95229D01*
X414531Y95167D01*
X414777Y91421D01*
X414785Y91377D01*
X414786Y91333D01*
X414818Y91175D01*
X416757Y83938D01*
X416789Y83858D01*
X416812Y83776D01*
X416873Y83653D01*
X416877Y83643D01*
X416880Y83640D01*
X416884Y83632D01*
X420630Y77143D01*
X420682Y77075D01*
X420725Y77001D01*
X420816Y76898D01*
X420822Y76889D01*
X420826Y76887D01*
X420832Y76880D01*
X426130Y71582D01*
X426198Y71529D01*
X426259Y71469D01*
X426372Y71393D01*
X426381Y71387D01*
X426385Y71385D01*
X426393Y71380D01*
X432882Y67634D01*
X432960Y67600D01*
X433035Y67558D01*
X433165Y67515D01*
X433175Y67510D01*
X433179Y67510D01*
X433188Y67507D01*
X440425Y65568D01*
X440469Y65562D01*
X440511Y65548D01*
X440671Y65527D01*
X444417Y65281D01*
X444438Y65283D01*
X444500Y65279D01*
X575805Y65279D01*
X583993Y62618D01*
X590958Y57558D01*
X596018Y50593D01*
X598679Y42405D01*
X598679Y29049D01*
X598691Y28951D01*
X598694Y28852D01*
X598711Y28794D01*
X598719Y28734D01*
X598755Y28642D01*
X598783Y28547D01*
X598813Y28494D01*
X598836Y28438D01*
X598894Y28358D01*
X598944Y28273D01*
X599010Y28197D01*
X599022Y28181D01*
X599032Y28173D01*
X599050Y28152D01*
X601102Y26100D01*
X602077Y23745D01*
X602146Y23625D01*
X602211Y23502D01*
X602225Y23487D01*
X602235Y23469D01*
X602332Y23369D01*
X602425Y23266D01*
X602442Y23255D01*
X602456Y23241D01*
X602575Y23168D01*
X602691Y23092D01*
X602710Y23085D01*
X602727Y23074D01*
X602860Y23033D01*
X602992Y22988D01*
X603012Y22987D01*
X603031Y22981D01*
X603170Y22974D01*
X603309Y22963D01*
X603329Y22967D01*
X603349Y22966D01*
X603485Y22994D01*
X603622Y23018D01*
X603641Y23026D01*
X603660Y23030D01*
X603786Y23091D01*
X603912Y23148D01*
X603928Y23161D01*
X603946Y23170D01*
X604052Y23260D01*
X604160Y23347D01*
X604173Y23363D01*
X604188Y23376D01*
X604268Y23490D01*
X604352Y23601D01*
X604364Y23626D01*
X604371Y23636D01*
X604378Y23655D01*
X604423Y23745D01*
X605398Y26101D01*
X608900Y29602D01*
X613474Y31497D01*
X618426Y31497D01*
X623000Y29602D01*
X626502Y26100D01*
X628397Y21526D01*
X628397Y16574D01*
X626502Y12000D01*
X623000Y8498D01*
X618426Y6603D01*
X613474Y6603D01*
X608900Y8498D01*
X605398Y11999D01*
X604423Y14355D01*
X604354Y14476D01*
X604289Y14598D01*
X604275Y14613D01*
X604265Y14631D01*
X604168Y14731D01*
X604075Y14834D01*
X604058Y14845D01*
X604044Y14859D01*
X603926Y14932D01*
X603809Y15008D01*
X603790Y15015D01*
X603773Y15026D01*
X603640Y15066D01*
X603508Y15112D01*
X603488Y15113D01*
X603469Y15119D01*
X603330Y15126D01*
X603191Y15137D01*
X603171Y15133D01*
X603151Y15134D01*
X603015Y15106D01*
X602878Y15082D01*
X602859Y15074D01*
X602840Y15070D01*
X602715Y15009D01*
X602588Y14952D01*
X602572Y14939D01*
X602554Y14930D01*
X602448Y14840D01*
X602340Y14753D01*
X602327Y14737D01*
X602312Y14724D01*
X602232Y14610D01*
X602148Y14499D01*
X602136Y14474D01*
X602129Y14464D01*
X602122Y14445D01*
X602077Y14355D01*
X601102Y12000D01*
X597600Y8498D01*
X593026Y6603D01*
X588074Y6603D01*
G37*
%LPD*%
%LPC*%
G36*
X16574Y6603D02*
X16574Y6603D01*
X12000Y8498D01*
X8498Y12000D01*
X6603Y16574D01*
X6603Y21526D01*
X8498Y26100D01*
X10550Y28152D01*
X10610Y28230D01*
X10678Y28302D01*
X10707Y28355D01*
X10744Y28403D01*
X10784Y28494D01*
X10832Y28581D01*
X10847Y28639D01*
X10871Y28695D01*
X10886Y28793D01*
X10911Y28889D01*
X10917Y28989D01*
X10921Y29009D01*
X10919Y29021D01*
X10921Y29049D01*
X10921Y62460D01*
X14203Y72561D01*
X20446Y81154D01*
X29039Y87397D01*
X39140Y90679D01*
X82550Y90679D01*
X82572Y90681D01*
X82650Y90683D01*
X85153Y90880D01*
X85221Y90894D01*
X85290Y90898D01*
X85445Y90938D01*
X90207Y92485D01*
X90314Y92535D01*
X90425Y92579D01*
X90476Y92612D01*
X90495Y92620D01*
X90510Y92633D01*
X90561Y92665D01*
X94611Y95608D01*
X94698Y95689D01*
X94789Y95765D01*
X94828Y95812D01*
X94843Y95826D01*
X94854Y95843D01*
X94892Y95889D01*
X97835Y99939D01*
X97892Y100043D01*
X97956Y100143D01*
X97978Y100200D01*
X97988Y100218D01*
X97993Y100238D01*
X98015Y100293D01*
X99562Y105055D01*
X99575Y105122D01*
X99598Y105188D01*
X99620Y105347D01*
X99817Y107850D01*
X99816Y107872D01*
X99821Y107950D01*
X99821Y335510D01*
X103103Y345611D01*
X109346Y354204D01*
X117939Y360447D01*
X128040Y363729D01*
X158750Y363729D01*
X158772Y363731D01*
X158850Y363733D01*
X161353Y363930D01*
X161421Y363944D01*
X161490Y363948D01*
X161645Y363988D01*
X166407Y365535D01*
X166514Y365585D01*
X166625Y365629D01*
X166676Y365662D01*
X166695Y365670D01*
X166710Y365683D01*
X166761Y365715D01*
X170811Y368658D01*
X170898Y368739D01*
X170989Y368815D01*
X171028Y368862D01*
X171043Y368876D01*
X171054Y368893D01*
X171092Y368939D01*
X174035Y372989D01*
X174092Y373093D01*
X174156Y373193D01*
X174178Y373250D01*
X174188Y373268D01*
X174193Y373288D01*
X174215Y373343D01*
X175762Y378104D01*
X175775Y378172D01*
X175798Y378238D01*
X175820Y378397D01*
X176017Y380900D01*
X176016Y380922D01*
X176018Y380947D01*
X176019Y380951D01*
X176018Y380956D01*
X176021Y381000D01*
X176021Y382951D01*
X176020Y382960D01*
X176021Y382970D01*
X176000Y383118D01*
X175981Y383267D01*
X175978Y383275D01*
X175977Y383285D01*
X175925Y383437D01*
X175053Y385541D01*
X175053Y389159D01*
X176438Y392503D01*
X178997Y395062D01*
X182341Y396447D01*
X185959Y396447D01*
X189303Y395062D01*
X191862Y392503D01*
X193247Y389159D01*
X193247Y385541D01*
X192375Y383437D01*
X192373Y383428D01*
X192368Y383420D01*
X192331Y383275D01*
X192291Y383130D01*
X192291Y383121D01*
X192289Y383112D01*
X192279Y382951D01*
X192279Y375690D01*
X188997Y365588D01*
X182754Y356996D01*
X174161Y350753D01*
X164060Y347471D01*
X133350Y347471D01*
X133328Y347469D01*
X133250Y347467D01*
X130747Y347270D01*
X130679Y347256D01*
X130610Y347252D01*
X130455Y347212D01*
X125693Y345665D01*
X125586Y345615D01*
X125475Y345571D01*
X125424Y345538D01*
X125405Y345530D01*
X125390Y345517D01*
X125339Y345485D01*
X121289Y342542D01*
X121202Y342461D01*
X121111Y342385D01*
X121072Y342338D01*
X121057Y342324D01*
X121046Y342307D01*
X121008Y342261D01*
X118065Y338211D01*
X118008Y338107D01*
X117944Y338007D01*
X117922Y337950D01*
X117912Y337932D01*
X117907Y337912D01*
X117885Y337857D01*
X116338Y333095D01*
X116325Y333028D01*
X116302Y332962D01*
X116280Y332803D01*
X116083Y330300D01*
X116084Y330278D01*
X116079Y330200D01*
X116079Y102640D01*
X112797Y92539D01*
X106554Y83946D01*
X97961Y77703D01*
X87860Y74421D01*
X44450Y74421D01*
X44428Y74419D01*
X44350Y74417D01*
X41847Y74220D01*
X41779Y74206D01*
X41710Y74202D01*
X41555Y74162D01*
X36793Y72615D01*
X36686Y72565D01*
X36575Y72521D01*
X36524Y72488D01*
X36505Y72480D01*
X36490Y72467D01*
X36439Y72435D01*
X32389Y69492D01*
X32302Y69411D01*
X32211Y69335D01*
X32172Y69288D01*
X32157Y69274D01*
X32146Y69257D01*
X32108Y69211D01*
X29165Y65161D01*
X29108Y65057D01*
X29044Y64957D01*
X29022Y64900D01*
X29012Y64882D01*
X29007Y64862D01*
X28985Y64807D01*
X27438Y60045D01*
X27425Y59978D01*
X27402Y59912D01*
X27380Y59753D01*
X27183Y57250D01*
X27184Y57228D01*
X27179Y57150D01*
X27179Y29049D01*
X27191Y28951D01*
X27194Y28852D01*
X27211Y28794D01*
X27219Y28734D01*
X27255Y28642D01*
X27283Y28547D01*
X27313Y28494D01*
X27336Y28438D01*
X27394Y28358D01*
X27444Y28273D01*
X27510Y28197D01*
X27522Y28181D01*
X27532Y28173D01*
X27550Y28152D01*
X29602Y26101D01*
X30577Y23745D01*
X30646Y23624D01*
X30711Y23502D01*
X30725Y23487D01*
X30735Y23469D01*
X30832Y23369D01*
X30925Y23266D01*
X30942Y23255D01*
X30956Y23241D01*
X31074Y23168D01*
X31191Y23092D01*
X31210Y23085D01*
X31227Y23074D01*
X31360Y23034D01*
X31492Y22988D01*
X31512Y22987D01*
X31531Y22981D01*
X31670Y22974D01*
X31809Y22963D01*
X31829Y22967D01*
X31849Y22966D01*
X31985Y22994D01*
X32122Y23018D01*
X32141Y23026D01*
X32160Y23030D01*
X32285Y23091D01*
X32412Y23148D01*
X32428Y23161D01*
X32446Y23170D01*
X32552Y23260D01*
X32660Y23347D01*
X32673Y23363D01*
X32688Y23376D01*
X32768Y23490D01*
X32852Y23601D01*
X32864Y23626D01*
X32871Y23636D01*
X32878Y23655D01*
X32923Y23745D01*
X33898Y26100D01*
X37400Y29602D01*
X41974Y31497D01*
X46926Y31497D01*
X51500Y29602D01*
X55002Y26100D01*
X56897Y21526D01*
X56897Y16574D01*
X55002Y12000D01*
X51500Y8498D01*
X46926Y6603D01*
X41974Y6603D01*
X37400Y8498D01*
X33898Y12000D01*
X32923Y14355D01*
X32854Y14475D01*
X32789Y14598D01*
X32775Y14613D01*
X32765Y14631D01*
X32668Y14731D01*
X32575Y14834D01*
X32558Y14845D01*
X32544Y14859D01*
X32425Y14932D01*
X32309Y15008D01*
X32290Y15015D01*
X32273Y15026D01*
X32140Y15067D01*
X32008Y15112D01*
X31988Y15113D01*
X31969Y15119D01*
X31830Y15126D01*
X31691Y15137D01*
X31671Y15133D01*
X31651Y15134D01*
X31515Y15106D01*
X31378Y15082D01*
X31359Y15074D01*
X31340Y15070D01*
X31214Y15009D01*
X31088Y14952D01*
X31072Y14939D01*
X31054Y14930D01*
X30948Y14840D01*
X30840Y14753D01*
X30827Y14737D01*
X30812Y14724D01*
X30732Y14610D01*
X30648Y14499D01*
X30636Y14474D01*
X30629Y14464D01*
X30622Y14445D01*
X30577Y14355D01*
X29602Y11999D01*
X26100Y8498D01*
X21526Y6603D01*
X16574Y6603D01*
G37*
%LPD*%
%LPC*%
G36*
X308674Y6603D02*
X308674Y6603D01*
X304100Y8498D01*
X300598Y12000D01*
X298703Y16574D01*
X298703Y21526D01*
X300598Y26100D01*
X302650Y28152D01*
X302710Y28230D01*
X302778Y28302D01*
X302807Y28355D01*
X302844Y28403D01*
X302884Y28494D01*
X302932Y28581D01*
X302947Y28639D01*
X302971Y28695D01*
X302986Y28793D01*
X303011Y28889D01*
X303017Y28989D01*
X303021Y29009D01*
X303019Y29021D01*
X303021Y29049D01*
X303021Y177800D01*
X303019Y177822D01*
X303017Y177900D01*
X302820Y180403D01*
X302806Y180471D01*
X302802Y180540D01*
X302762Y180695D01*
X301215Y185457D01*
X301165Y185564D01*
X301121Y185675D01*
X301088Y185726D01*
X301080Y185745D01*
X301067Y185760D01*
X301035Y185811D01*
X298092Y189861D01*
X298011Y189948D01*
X297935Y190039D01*
X297888Y190078D01*
X297874Y190093D01*
X297857Y190104D01*
X297811Y190142D01*
X293761Y193085D01*
X293657Y193142D01*
X293557Y193206D01*
X293500Y193228D01*
X293482Y193238D01*
X293462Y193243D01*
X293407Y193265D01*
X288646Y194812D01*
X288578Y194825D01*
X288512Y194848D01*
X288353Y194870D01*
X285850Y195067D01*
X285828Y195066D01*
X285750Y195071D01*
X178840Y195071D01*
X168739Y198353D01*
X160146Y204596D01*
X153903Y213189D01*
X150621Y223290D01*
X150621Y297410D01*
X153903Y307511D01*
X160146Y316104D01*
X168739Y322347D01*
X178840Y325629D01*
X179751Y325629D01*
X179760Y325630D01*
X179770Y325629D01*
X179918Y325650D01*
X180067Y325669D01*
X180075Y325672D01*
X180085Y325673D01*
X180237Y325725D01*
X182341Y326597D01*
X185959Y326597D01*
X189303Y325212D01*
X191862Y322653D01*
X193247Y319309D01*
X193247Y315691D01*
X191862Y312347D01*
X189303Y309788D01*
X185959Y308403D01*
X182341Y308403D01*
X181337Y308819D01*
X181289Y308832D01*
X181244Y308853D01*
X181136Y308874D01*
X181030Y308903D01*
X180981Y308904D01*
X180932Y308913D01*
X180822Y308906D01*
X180712Y308908D01*
X180664Y308897D01*
X180615Y308894D01*
X180459Y308854D01*
X176493Y307565D01*
X176386Y307515D01*
X176275Y307471D01*
X176224Y307438D01*
X176205Y307430D01*
X176190Y307417D01*
X176139Y307385D01*
X172089Y304442D01*
X172002Y304361D01*
X171911Y304285D01*
X171872Y304238D01*
X171857Y304224D01*
X171846Y304207D01*
X171808Y304161D01*
X168865Y300111D01*
X168808Y300007D01*
X168744Y299907D01*
X168722Y299850D01*
X168712Y299832D01*
X168707Y299812D01*
X168685Y299757D01*
X167138Y294995D01*
X167125Y294928D01*
X167102Y294862D01*
X167080Y294703D01*
X166883Y292200D01*
X166884Y292178D01*
X166879Y292100D01*
X166879Y228600D01*
X166881Y228578D01*
X166883Y228500D01*
X167080Y225997D01*
X167094Y225929D01*
X167098Y225860D01*
X167138Y225705D01*
X168685Y220943D01*
X168735Y220836D01*
X168779Y220725D01*
X168812Y220674D01*
X168820Y220655D01*
X168833Y220640D01*
X168865Y220589D01*
X171808Y216539D01*
X171831Y216514D01*
X171846Y216491D01*
X171898Y216442D01*
X171965Y216361D01*
X172012Y216322D01*
X172026Y216307D01*
X172043Y216296D01*
X172089Y216258D01*
X176139Y213315D01*
X176243Y213258D01*
X176343Y213194D01*
X176400Y213172D01*
X176418Y213162D01*
X176438Y213157D01*
X176493Y213135D01*
X181254Y211588D01*
X181255Y211588D01*
X181322Y211575D01*
X181388Y211552D01*
X181547Y211530D01*
X184050Y211333D01*
X184072Y211334D01*
X184150Y211329D01*
X291060Y211329D01*
X301162Y208047D01*
X309754Y201804D01*
X315997Y193211D01*
X319279Y183110D01*
X319279Y29049D01*
X319291Y28951D01*
X319294Y28852D01*
X319311Y28794D01*
X319319Y28734D01*
X319355Y28642D01*
X319383Y28547D01*
X319413Y28494D01*
X319436Y28438D01*
X319494Y28358D01*
X319544Y28273D01*
X319610Y28197D01*
X319622Y28181D01*
X319632Y28173D01*
X319650Y28152D01*
X321702Y26100D01*
X322677Y23745D01*
X322746Y23625D01*
X322811Y23502D01*
X322825Y23487D01*
X322835Y23469D01*
X322932Y23369D01*
X323025Y23266D01*
X323042Y23255D01*
X323056Y23241D01*
X323175Y23168D01*
X323291Y23092D01*
X323310Y23085D01*
X323327Y23074D01*
X323460Y23033D01*
X323592Y22988D01*
X323612Y22987D01*
X323631Y22981D01*
X323770Y22974D01*
X323909Y22963D01*
X323929Y22967D01*
X323949Y22966D01*
X324085Y22994D01*
X324222Y23018D01*
X324241Y23026D01*
X324260Y23030D01*
X324386Y23091D01*
X324512Y23148D01*
X324528Y23161D01*
X324546Y23170D01*
X324652Y23260D01*
X324760Y23347D01*
X324773Y23363D01*
X324788Y23376D01*
X324868Y23490D01*
X324952Y23601D01*
X324964Y23626D01*
X324971Y23636D01*
X324978Y23655D01*
X325023Y23745D01*
X325998Y26101D01*
X329500Y29602D01*
X334074Y31497D01*
X339026Y31497D01*
X343600Y29602D01*
X347102Y26100D01*
X348997Y21526D01*
X348997Y16574D01*
X347102Y12000D01*
X343600Y8498D01*
X339026Y6603D01*
X334074Y6603D01*
X329500Y8498D01*
X325998Y11999D01*
X325023Y14355D01*
X324954Y14476D01*
X324889Y14598D01*
X324875Y14613D01*
X324865Y14631D01*
X324768Y14731D01*
X324675Y14834D01*
X324658Y14845D01*
X324644Y14859D01*
X324526Y14932D01*
X324409Y15008D01*
X324390Y15015D01*
X324373Y15026D01*
X324240Y15066D01*
X324108Y15112D01*
X324088Y15113D01*
X324069Y15119D01*
X323930Y15126D01*
X323791Y15137D01*
X323771Y15133D01*
X323751Y15134D01*
X323615Y15106D01*
X323478Y15082D01*
X323459Y15074D01*
X323440Y15070D01*
X323315Y15009D01*
X323188Y14952D01*
X323172Y14939D01*
X323154Y14930D01*
X323048Y14840D01*
X322940Y14753D01*
X322927Y14737D01*
X322912Y14724D01*
X322832Y14610D01*
X322748Y14499D01*
X322736Y14474D01*
X322729Y14464D01*
X322722Y14445D01*
X322677Y14355D01*
X321702Y12000D01*
X318200Y8498D01*
X313626Y6603D01*
X308674Y6603D01*
G37*
%LPD*%
%LPC*%
G36*
X57284Y439369D02*
X57284Y439369D01*
X45356Y442871D01*
X34899Y449592D01*
X26758Y458987D01*
X21594Y470295D01*
X19824Y482600D01*
X21594Y494905D01*
X26758Y506213D01*
X34898Y515608D01*
X45356Y522329D01*
X57284Y525831D01*
X69716Y525831D01*
X81644Y522329D01*
X92101Y515608D01*
X100242Y506213D01*
X105406Y494905D01*
X107176Y482600D01*
X105406Y470295D01*
X100242Y458987D01*
X92102Y449592D01*
X81644Y442871D01*
X69716Y439369D01*
X57284Y439369D01*
G37*
%LPD*%
%LPC*%
G36*
X132904Y87851D02*
X132904Y87851D01*
X128292Y89762D01*
X124762Y93292D01*
X122851Y97904D01*
X122851Y102896D01*
X124762Y107508D01*
X128292Y111038D01*
X132904Y112949D01*
X156896Y112949D01*
X161508Y111038D01*
X165038Y107508D01*
X166949Y102896D01*
X166949Y97904D01*
X165038Y93292D01*
X161508Y89762D01*
X156896Y87851D01*
X132904Y87851D01*
G37*
%LPD*%
%LPC*%
G36*
X462604Y124001D02*
X462604Y124001D01*
X457992Y125912D01*
X454462Y129442D01*
X452551Y134054D01*
X452551Y158046D01*
X454462Y162658D01*
X457992Y166188D01*
X462604Y168099D01*
X467596Y168099D01*
X472208Y166188D01*
X475738Y162658D01*
X477649Y158046D01*
X477649Y134054D01*
X475738Y129442D01*
X472208Y125912D01*
X467596Y124001D01*
X462604Y124001D01*
G37*
%LPD*%
%LPC*%
G36*
X167404Y130351D02*
X167404Y130351D01*
X162792Y132262D01*
X159262Y135792D01*
X157351Y140404D01*
X157351Y164396D01*
X159262Y169008D01*
X162792Y172538D01*
X167404Y174449D01*
X172396Y174449D01*
X177008Y172538D01*
X180538Y169008D01*
X182449Y164396D01*
X182449Y140404D01*
X180538Y135792D01*
X177008Y132262D01*
X172396Y130351D01*
X167404Y130351D01*
G37*
%LPD*%
%LPC*%
G36*
X478104Y185501D02*
X478104Y185501D01*
X473492Y187412D01*
X469962Y190942D01*
X468051Y195554D01*
X468051Y200546D01*
X469962Y205158D01*
X473492Y208688D01*
X478104Y210599D01*
X502096Y210599D01*
X506708Y208688D01*
X510238Y205158D01*
X512149Y200546D01*
X512149Y195554D01*
X510238Y190942D01*
X506708Y187412D01*
X502096Y185501D01*
X478104Y185501D01*
G37*
%LPD*%
%LPC*%
G36*
X442024Y6603D02*
X442024Y6603D01*
X437450Y8498D01*
X433948Y12000D01*
X432053Y16574D01*
X432053Y21526D01*
X433948Y26100D01*
X437450Y29602D01*
X442024Y31497D01*
X446976Y31497D01*
X451550Y29602D01*
X455052Y26100D01*
X456305Y23075D01*
X456320Y23049D01*
X456329Y23020D01*
X456399Y22911D01*
X456463Y22798D01*
X456484Y22777D01*
X456500Y22752D01*
X456594Y22663D01*
X456684Y22570D01*
X456710Y22554D01*
X456731Y22534D01*
X456845Y22471D01*
X456955Y22404D01*
X456984Y22395D01*
X457010Y22381D01*
X457135Y22348D01*
X457259Y22310D01*
X457289Y22309D01*
X457318Y22301D01*
X457448Y22301D01*
X457577Y22295D01*
X457606Y22301D01*
X457636Y22301D01*
X457761Y22333D01*
X457888Y22359D01*
X457915Y22372D01*
X457944Y22380D01*
X458057Y22442D01*
X458174Y22499D01*
X458197Y22518D01*
X458223Y22533D01*
X458317Y22621D01*
X458416Y22705D01*
X458433Y22730D01*
X458455Y22750D01*
X458524Y22859D01*
X458599Y22965D01*
X458610Y22993D01*
X458626Y23019D01*
X458685Y23168D01*
X458836Y23633D01*
X459689Y25307D01*
X460794Y26828D01*
X462122Y28156D01*
X463643Y29261D01*
X465317Y30114D01*
X467104Y30695D01*
X467361Y30735D01*
X467361Y20320D01*
X467376Y20202D01*
X467383Y20083D01*
X467396Y20045D01*
X467401Y20005D01*
X467444Y19894D01*
X467481Y19781D01*
X467503Y19747D01*
X467518Y19709D01*
X467588Y19613D01*
X467651Y19512D01*
X467681Y19484D01*
X467704Y19452D01*
X467796Y19376D01*
X467883Y19294D01*
X467918Y19275D01*
X467949Y19249D01*
X468057Y19198D01*
X468161Y19141D01*
X468201Y19130D01*
X468237Y19113D01*
X468354Y19091D01*
X468469Y19061D01*
X468530Y19057D01*
X468550Y19053D01*
X468570Y19055D01*
X468630Y19051D01*
X469901Y19051D01*
X469901Y19049D01*
X468630Y19049D01*
X468512Y19034D01*
X468393Y19027D01*
X468355Y19014D01*
X468314Y19009D01*
X468204Y18965D01*
X468091Y18929D01*
X468056Y18907D01*
X468019Y18892D01*
X467923Y18822D01*
X467822Y18759D01*
X467794Y18729D01*
X467761Y18705D01*
X467686Y18614D01*
X467604Y18527D01*
X467584Y18492D01*
X467559Y18460D01*
X467508Y18353D01*
X467450Y18248D01*
X467440Y18209D01*
X467423Y18173D01*
X467401Y18056D01*
X467371Y17941D01*
X467367Y17880D01*
X467363Y17860D01*
X467365Y17840D01*
X467361Y17780D01*
X467361Y7365D01*
X467104Y7405D01*
X465317Y7986D01*
X463643Y8839D01*
X462122Y9944D01*
X460794Y11272D01*
X459689Y12793D01*
X458836Y14467D01*
X458685Y14932D01*
X458672Y14959D01*
X458665Y14988D01*
X458605Y15102D01*
X458550Y15220D01*
X458531Y15243D01*
X458517Y15269D01*
X458430Y15365D01*
X458347Y15465D01*
X458323Y15482D01*
X458303Y15504D01*
X458194Y15576D01*
X458090Y15652D01*
X458062Y15663D01*
X458037Y15679D01*
X457914Y15721D01*
X457794Y15769D01*
X457764Y15773D01*
X457736Y15782D01*
X457607Y15793D01*
X457479Y15809D01*
X457449Y15805D01*
X457419Y15808D01*
X457291Y15785D01*
X457163Y15769D01*
X457135Y15758D01*
X457106Y15753D01*
X456988Y15700D01*
X456867Y15652D01*
X456843Y15635D01*
X456816Y15623D01*
X456715Y15542D01*
X456610Y15466D01*
X456591Y15443D01*
X456567Y15424D01*
X456489Y15320D01*
X456407Y15221D01*
X456394Y15194D01*
X456376Y15170D01*
X456305Y15025D01*
X455052Y12000D01*
X451550Y8498D01*
X446976Y6603D01*
X442024Y6603D01*
G37*
%LPD*%
%LPC*%
G36*
X443539Y378253D02*
X443539Y378253D01*
X441753Y380039D01*
X441753Y394661D01*
X443539Y396447D01*
X458161Y396447D01*
X459947Y394661D01*
X459947Y380039D01*
X458161Y378253D01*
X443539Y378253D01*
G37*
%LPD*%
%LPC*%
G36*
X24439Y378253D02*
X24439Y378253D01*
X22653Y380039D01*
X22653Y394661D01*
X24439Y396447D01*
X39061Y396447D01*
X40847Y394661D01*
X40847Y380039D01*
X39061Y378253D01*
X24439Y378253D01*
G37*
%LPD*%
%LPC*%
G36*
X443539Y238553D02*
X443539Y238553D01*
X441753Y240339D01*
X441753Y254961D01*
X443539Y256747D01*
X458161Y256747D01*
X459947Y254961D01*
X459947Y240339D01*
X458161Y238553D01*
X443539Y238553D01*
G37*
%LPD*%
%LPC*%
G36*
X24439Y308403D02*
X24439Y308403D01*
X22653Y310189D01*
X22653Y324811D01*
X24439Y326597D01*
X39061Y326597D01*
X40847Y324811D01*
X40847Y310189D01*
X39061Y308403D01*
X24439Y308403D01*
G37*
%LPD*%
%LPC*%
G36*
X443539Y308403D02*
X443539Y308403D01*
X441753Y310189D01*
X441753Y324811D01*
X443539Y326597D01*
X458161Y326597D01*
X459947Y324811D01*
X459947Y310189D01*
X458161Y308403D01*
X443539Y308403D01*
G37*
%LPD*%
%LPC*%
G36*
X24439Y238553D02*
X24439Y238553D01*
X22653Y240339D01*
X22653Y254961D01*
X24439Y256747D01*
X39061Y256747D01*
X40847Y254961D01*
X40847Y240339D01*
X39061Y238553D01*
X24439Y238553D01*
G37*
%LPD*%
%LPC*%
G36*
X601441Y238553D02*
X601441Y238553D01*
X598097Y239938D01*
X595538Y242497D01*
X594153Y245841D01*
X594153Y249459D01*
X595538Y252803D01*
X598097Y255362D01*
X601441Y256747D01*
X605059Y256747D01*
X608403Y255362D01*
X610962Y252803D01*
X612347Y249459D01*
X612347Y245841D01*
X610962Y242497D01*
X608403Y239938D01*
X605059Y238553D01*
X601441Y238553D01*
G37*
%LPD*%
%LPC*%
G36*
X499841Y238553D02*
X499841Y238553D01*
X496497Y239938D01*
X493938Y242497D01*
X492553Y245841D01*
X492553Y249459D01*
X493938Y252803D01*
X496497Y255362D01*
X499841Y256747D01*
X503459Y256747D01*
X506803Y255362D01*
X509362Y252803D01*
X510747Y249459D01*
X510747Y245841D01*
X509362Y242497D01*
X506803Y239938D01*
X503459Y238553D01*
X499841Y238553D01*
G37*
%LPD*%
%LPC*%
G36*
X601441Y378253D02*
X601441Y378253D01*
X598097Y379638D01*
X595538Y382197D01*
X594153Y385541D01*
X594153Y389159D01*
X595538Y392503D01*
X598097Y395062D01*
X601441Y396447D01*
X605059Y396447D01*
X608403Y395062D01*
X610962Y392503D01*
X612347Y389159D01*
X612347Y385541D01*
X610962Y382197D01*
X608403Y379638D01*
X605059Y378253D01*
X601441Y378253D01*
G37*
%LPD*%
%LPC*%
G36*
X80741Y378253D02*
X80741Y378253D01*
X77397Y379638D01*
X74838Y382197D01*
X73453Y385541D01*
X73453Y389159D01*
X74838Y392503D01*
X77397Y395062D01*
X80741Y396447D01*
X84359Y396447D01*
X87703Y395062D01*
X90262Y392503D01*
X91647Y389159D01*
X91647Y385541D01*
X90262Y382197D01*
X87703Y379638D01*
X84359Y378253D01*
X80741Y378253D01*
G37*
%LPD*%
%LPC*%
G36*
X80741Y308403D02*
X80741Y308403D01*
X77397Y309788D01*
X74838Y312347D01*
X73453Y315691D01*
X73453Y319309D01*
X74838Y322653D01*
X77397Y325212D01*
X80741Y326597D01*
X84359Y326597D01*
X87703Y325212D01*
X90262Y322653D01*
X91647Y319309D01*
X91647Y315691D01*
X90262Y312347D01*
X87703Y309788D01*
X84359Y308403D01*
X80741Y308403D01*
G37*
%LPD*%
%LPC*%
G36*
X601441Y308403D02*
X601441Y308403D01*
X598097Y309788D01*
X595538Y312347D01*
X594153Y315691D01*
X594153Y319309D01*
X595538Y322653D01*
X598097Y325212D01*
X601441Y326597D01*
X605059Y326597D01*
X608403Y325212D01*
X610962Y322653D01*
X612347Y319309D01*
X612347Y315691D01*
X610962Y312347D01*
X608403Y309788D01*
X605059Y308403D01*
X601441Y308403D01*
G37*
%LPD*%
%LPC*%
G36*
X80741Y238553D02*
X80741Y238553D01*
X77397Y239938D01*
X74838Y242497D01*
X73453Y245841D01*
X73453Y249459D01*
X74838Y252803D01*
X77397Y255362D01*
X80741Y256747D01*
X84359Y256747D01*
X87703Y255362D01*
X90262Y252803D01*
X91647Y249459D01*
X91647Y245841D01*
X90262Y242497D01*
X87703Y239938D01*
X84359Y238553D01*
X80741Y238553D01*
G37*
%LPD*%
%LPC*%
G36*
X604599Y148549D02*
X604599Y148549D01*
X604599Y167345D01*
X604920Y167294D01*
X606722Y166709D01*
X608411Y165848D01*
X609944Y164734D01*
X611284Y163394D01*
X612398Y161861D01*
X613259Y160172D01*
X613844Y158370D01*
X614141Y156498D01*
X614141Y148549D01*
X604599Y148549D01*
G37*
%LPD*%
%LPC*%
G36*
X35399Y154899D02*
X35399Y154899D01*
X35399Y173695D01*
X35720Y173644D01*
X37522Y173059D01*
X39211Y172198D01*
X40744Y171084D01*
X42084Y169744D01*
X43198Y168211D01*
X44059Y166522D01*
X44644Y164720D01*
X44941Y162848D01*
X44941Y154899D01*
X35399Y154899D01*
G37*
%LPD*%
%LPC*%
G36*
X35399Y149901D02*
X35399Y149901D01*
X44941Y149901D01*
X44941Y141952D01*
X44644Y140080D01*
X44059Y138278D01*
X43198Y136589D01*
X42084Y135056D01*
X40744Y133716D01*
X39211Y132602D01*
X37522Y131741D01*
X35720Y131156D01*
X35399Y131105D01*
X35399Y149901D01*
G37*
%LPD*%
%LPC*%
G36*
X604599Y143551D02*
X604599Y143551D01*
X614141Y143551D01*
X614141Y135602D01*
X613844Y133730D01*
X613259Y131928D01*
X612398Y130239D01*
X611284Y128706D01*
X609944Y127366D01*
X608411Y126252D01*
X606722Y125391D01*
X604920Y124806D01*
X604599Y124755D01*
X604599Y143551D01*
G37*
%LPD*%
%LPC*%
G36*
X20859Y154899D02*
X20859Y154899D01*
X20859Y162848D01*
X21156Y164720D01*
X21741Y166522D01*
X22602Y168211D01*
X23716Y169744D01*
X25056Y171084D01*
X26589Y172198D01*
X28278Y173059D01*
X30080Y173644D01*
X30401Y173695D01*
X30401Y154899D01*
X20859Y154899D01*
G37*
%LPD*%
%LPC*%
G36*
X590059Y148549D02*
X590059Y148549D01*
X590059Y156498D01*
X590356Y158370D01*
X590941Y160172D01*
X591802Y161861D01*
X592916Y163394D01*
X594256Y164734D01*
X595789Y165848D01*
X597478Y166709D01*
X599280Y167294D01*
X599601Y167345D01*
X599601Y148549D01*
X590059Y148549D01*
G37*
%LPD*%
%LPC*%
G36*
X30080Y131156D02*
X30080Y131156D01*
X28278Y131741D01*
X26589Y132602D01*
X25056Y133716D01*
X23716Y135056D01*
X22602Y136589D01*
X21741Y138278D01*
X21156Y140080D01*
X20859Y141952D01*
X20859Y149901D01*
X30401Y149901D01*
X30401Y131105D01*
X30080Y131156D01*
G37*
%LPD*%
%LPC*%
G36*
X599280Y124806D02*
X599280Y124806D01*
X597478Y125391D01*
X595789Y126252D01*
X594256Y127366D01*
X592916Y128706D01*
X591802Y130239D01*
X590941Y131928D01*
X590356Y133730D01*
X590059Y135602D01*
X590059Y143551D01*
X599601Y143551D01*
X599601Y124755D01*
X599280Y124806D01*
G37*
%LPD*%
%LPC*%
G36*
X434339Y516889D02*
X434339Y516889D01*
X434339Y526035D01*
X434596Y525995D01*
X436383Y525414D01*
X438057Y524561D01*
X439578Y523456D01*
X440906Y522128D01*
X442011Y520607D01*
X442864Y518933D01*
X443445Y517146D01*
X443485Y516889D01*
X434339Y516889D01*
G37*
%LPD*%
%LPC*%
G36*
X472439Y21589D02*
X472439Y21589D01*
X472439Y30735D01*
X472696Y30695D01*
X474483Y30114D01*
X476157Y29261D01*
X477678Y28156D01*
X479006Y26828D01*
X480111Y25307D01*
X480964Y23633D01*
X481545Y21846D01*
X481585Y21589D01*
X472439Y21589D01*
G37*
%LPD*%
%LPC*%
G36*
X434339Y511811D02*
X434339Y511811D01*
X443485Y511811D01*
X443445Y511554D01*
X442864Y509767D01*
X442011Y508093D01*
X440906Y506572D01*
X439578Y505244D01*
X438057Y504139D01*
X436383Y503286D01*
X434596Y502705D01*
X434339Y502665D01*
X434339Y511811D01*
G37*
%LPD*%
%LPC*%
G36*
X472439Y16511D02*
X472439Y16511D01*
X481585Y16511D01*
X481545Y16254D01*
X480964Y14467D01*
X480111Y12793D01*
X479006Y11272D01*
X477678Y9944D01*
X476157Y8839D01*
X474483Y7986D01*
X472696Y7405D01*
X472439Y7365D01*
X472439Y16511D01*
G37*
%LPD*%
%LPC*%
G36*
X134849Y388849D02*
X134849Y388849D01*
X134849Y395809D01*
X135855Y395609D01*
X137418Y394961D01*
X138825Y394021D01*
X140021Y392825D01*
X140961Y391418D01*
X141609Y389855D01*
X141809Y388849D01*
X134849Y388849D01*
G37*
%LPD*%
%LPC*%
G36*
X134849Y318999D02*
X134849Y318999D01*
X134849Y325959D01*
X135855Y325759D01*
X137418Y325111D01*
X138825Y324171D01*
X140021Y322975D01*
X140961Y321568D01*
X141609Y320005D01*
X141809Y318999D01*
X134849Y318999D01*
G37*
%LPD*%
%LPC*%
G36*
X134849Y249149D02*
X134849Y249149D01*
X134849Y256109D01*
X135855Y255909D01*
X137418Y255261D01*
X138825Y254321D01*
X140021Y253125D01*
X140961Y251718D01*
X141609Y250155D01*
X141809Y249149D01*
X134849Y249149D01*
G37*
%LPD*%
%LPC*%
G36*
X553949Y318999D02*
X553949Y318999D01*
X553949Y325959D01*
X554955Y325759D01*
X556518Y325111D01*
X557925Y324171D01*
X559121Y322975D01*
X560061Y321568D01*
X560709Y320005D01*
X560909Y318999D01*
X553949Y318999D01*
G37*
%LPD*%
%LPC*%
G36*
X553949Y249149D02*
X553949Y249149D01*
X553949Y256109D01*
X554955Y255909D01*
X556518Y255261D01*
X557925Y254321D01*
X559121Y253125D01*
X560061Y251718D01*
X560709Y250155D01*
X560909Y249149D01*
X553949Y249149D01*
G37*
%LPD*%
%LPC*%
G36*
X553949Y388849D02*
X553949Y388849D01*
X553949Y395809D01*
X554955Y395609D01*
X556518Y394961D01*
X557925Y394021D01*
X559121Y392825D01*
X560061Y391418D01*
X560709Y389855D01*
X560909Y388849D01*
X553949Y388849D01*
G37*
%LPD*%
%LPC*%
G36*
X543991Y388849D02*
X543991Y388849D01*
X544191Y389855D01*
X544839Y391418D01*
X545779Y392825D01*
X546975Y394021D01*
X548382Y394961D01*
X549945Y395609D01*
X550951Y395809D01*
X550951Y388849D01*
X543991Y388849D01*
G37*
%LPD*%
%LPC*%
G36*
X134849Y316001D02*
X134849Y316001D01*
X141809Y316001D01*
X141609Y314995D01*
X140961Y313432D01*
X140021Y312025D01*
X138825Y310829D01*
X137418Y309889D01*
X135855Y309241D01*
X134849Y309041D01*
X134849Y316001D01*
G37*
%LPD*%
%LPC*%
G36*
X543991Y318999D02*
X543991Y318999D01*
X544191Y320005D01*
X544839Y321568D01*
X545779Y322975D01*
X546975Y324171D01*
X548382Y325111D01*
X549945Y325759D01*
X550951Y325959D01*
X550951Y318999D01*
X543991Y318999D01*
G37*
%LPD*%
%LPC*%
G36*
X124891Y318999D02*
X124891Y318999D01*
X125091Y320005D01*
X125739Y321568D01*
X126679Y322975D01*
X127875Y324171D01*
X129282Y325111D01*
X130845Y325759D01*
X131851Y325959D01*
X131851Y318999D01*
X124891Y318999D01*
G37*
%LPD*%
%LPC*%
G36*
X553949Y316001D02*
X553949Y316001D01*
X560909Y316001D01*
X560709Y314995D01*
X560061Y313432D01*
X559121Y312025D01*
X557925Y310829D01*
X556518Y309889D01*
X554955Y309241D01*
X553949Y309041D01*
X553949Y316001D01*
G37*
%LPD*%
%LPC*%
G36*
X124891Y249149D02*
X124891Y249149D01*
X125091Y250155D01*
X125739Y251718D01*
X126679Y253125D01*
X127875Y254321D01*
X129282Y255261D01*
X130845Y255909D01*
X131851Y256109D01*
X131851Y249149D01*
X124891Y249149D01*
G37*
%LPD*%
%LPC*%
G36*
X543991Y249149D02*
X543991Y249149D01*
X544191Y250155D01*
X544839Y251718D01*
X545779Y253125D01*
X546975Y254321D01*
X548382Y255261D01*
X549945Y255909D01*
X550951Y256109D01*
X550951Y249149D01*
X543991Y249149D01*
G37*
%LPD*%
%LPC*%
G36*
X553949Y246151D02*
X553949Y246151D01*
X560909Y246151D01*
X560709Y245145D01*
X560061Y243582D01*
X559121Y242175D01*
X557925Y240979D01*
X556518Y240039D01*
X554955Y239391D01*
X553949Y239191D01*
X553949Y246151D01*
G37*
%LPD*%
%LPC*%
G36*
X134849Y246151D02*
X134849Y246151D01*
X141809Y246151D01*
X141609Y245145D01*
X140961Y243582D01*
X140021Y242175D01*
X138825Y240979D01*
X137418Y240039D01*
X135855Y239391D01*
X134849Y239191D01*
X134849Y246151D01*
G37*
%LPD*%
%LPC*%
G36*
X134849Y385851D02*
X134849Y385851D01*
X141809Y385851D01*
X141609Y384845D01*
X140961Y383282D01*
X140021Y381875D01*
X138825Y380679D01*
X137418Y379739D01*
X135855Y379091D01*
X134849Y378891D01*
X134849Y385851D01*
G37*
%LPD*%
%LPC*%
G36*
X553949Y385851D02*
X553949Y385851D01*
X560909Y385851D01*
X560709Y384845D01*
X560061Y383282D01*
X559121Y381875D01*
X557925Y380679D01*
X556518Y379739D01*
X554955Y379091D01*
X553949Y378891D01*
X553949Y385851D01*
G37*
%LPD*%
%LPC*%
G36*
X124891Y388849D02*
X124891Y388849D01*
X125091Y389855D01*
X125739Y391418D01*
X126679Y392825D01*
X127875Y394021D01*
X129282Y394961D01*
X130845Y395609D01*
X131851Y395809D01*
X131851Y388849D01*
X124891Y388849D01*
G37*
%LPD*%
%LPC*%
G36*
X549945Y309241D02*
X549945Y309241D01*
X548382Y309889D01*
X546975Y310829D01*
X545779Y312025D01*
X544839Y313432D01*
X544191Y314995D01*
X543991Y316001D01*
X550951Y316001D01*
X550951Y309041D01*
X549945Y309241D01*
G37*
%LPD*%
%LPC*%
G36*
X549945Y239391D02*
X549945Y239391D01*
X548382Y240039D01*
X546975Y240979D01*
X545779Y242175D01*
X544839Y243582D01*
X544191Y245145D01*
X543991Y246151D01*
X550951Y246151D01*
X550951Y239191D01*
X549945Y239391D01*
G37*
%LPD*%
%LPC*%
G36*
X130845Y239391D02*
X130845Y239391D01*
X129282Y240039D01*
X127875Y240979D01*
X126679Y242175D01*
X125739Y243582D01*
X125091Y245145D01*
X124891Y246151D01*
X131851Y246151D01*
X131851Y239191D01*
X130845Y239391D01*
G37*
%LPD*%
%LPC*%
G36*
X130845Y379091D02*
X130845Y379091D01*
X129282Y379739D01*
X127875Y380679D01*
X126679Y381875D01*
X125739Y383282D01*
X125091Y384845D01*
X124891Y385851D01*
X131851Y385851D01*
X131851Y378891D01*
X130845Y379091D01*
G37*
%LPD*%
%LPC*%
G36*
X549945Y379091D02*
X549945Y379091D01*
X548382Y379739D01*
X546975Y380679D01*
X545779Y381875D01*
X544839Y383282D01*
X544191Y384845D01*
X543991Y385851D01*
X550951Y385851D01*
X550951Y378891D01*
X549945Y379091D01*
G37*
%LPD*%
%LPC*%
G36*
X130845Y309241D02*
X130845Y309241D01*
X129282Y309889D01*
X127875Y310829D01*
X126679Y312025D01*
X125739Y313432D01*
X125091Y314995D01*
X124891Y316001D01*
X131851Y316001D01*
X131851Y309041D01*
X130845Y309241D01*
G37*
%LPD*%
D10*
X203200Y514350D03*
X228600Y514350D03*
X254000Y514350D03*
X279400Y514350D03*
X304800Y514350D03*
X330200Y514350D03*
X355600Y514350D03*
X381000Y514350D03*
X406400Y514350D03*
X431800Y514350D03*
D11*
X602100Y155550D02*
X602100Y136550D01*
X465100Y136550D02*
X465100Y155550D01*
X480600Y198050D02*
X499600Y198050D01*
X32900Y161900D02*
X32900Y142900D01*
X169900Y142900D02*
X169900Y161900D01*
X154400Y100400D02*
X135400Y100400D01*
D12*
X31750Y387350D03*
D13*
X82550Y387350D03*
X133350Y387350D03*
X184150Y387350D03*
D12*
X450850Y387350D03*
D13*
X501650Y387350D03*
X552450Y387350D03*
X603250Y387350D03*
D12*
X31750Y317500D03*
D13*
X82550Y317500D03*
X133350Y317500D03*
X184150Y317500D03*
D12*
X450850Y317500D03*
D13*
X501650Y317500D03*
X552450Y317500D03*
X603250Y317500D03*
D12*
X31750Y247650D03*
D13*
X82550Y247650D03*
X133350Y247650D03*
X184150Y247650D03*
D12*
X450850Y247650D03*
D13*
X501650Y247650D03*
X552450Y247650D03*
X603250Y247650D03*
D10*
X336550Y19050D03*
X311150Y19050D03*
X19050Y19050D03*
X44450Y19050D03*
X615950Y19050D03*
X590550Y19050D03*
X469900Y19050D03*
X444500Y19050D03*
D14*
X381000Y247650D02*
X184150Y247650D01*
X381000Y247650D02*
X381614Y247643D01*
X382227Y247620D01*
X382840Y247583D01*
X383451Y247531D01*
X384062Y247465D01*
X384670Y247383D01*
X385276Y247287D01*
X385880Y247177D01*
X386481Y247052D01*
X387079Y246912D01*
X387673Y246758D01*
X388263Y246589D01*
X388849Y246407D01*
X389430Y246210D01*
X390007Y245999D01*
X390578Y245775D01*
X391144Y245537D01*
X391704Y245285D01*
X392257Y245019D01*
X392804Y244741D01*
X393344Y244449D01*
X393877Y244144D01*
X394402Y243826D01*
X394920Y243496D01*
X395429Y243154D01*
X395930Y242799D01*
X396422Y242432D01*
X396905Y242054D01*
X397379Y241664D01*
X397843Y241262D01*
X398298Y240850D01*
X398742Y240426D01*
X399176Y239992D01*
X399600Y239548D01*
X400012Y239093D01*
X400414Y238629D01*
X400804Y238155D01*
X401182Y237672D01*
X401549Y237180D01*
X401904Y236679D01*
X402246Y236170D01*
X402576Y235652D01*
X402894Y235127D01*
X403199Y234594D01*
X403491Y234054D01*
X403769Y233507D01*
X404035Y232954D01*
X404287Y232394D01*
X404525Y231828D01*
X404749Y231257D01*
X404960Y230680D01*
X405157Y230099D01*
X405339Y229513D01*
X405508Y228923D01*
X405662Y228329D01*
X405802Y227731D01*
X405927Y227130D01*
X406037Y226526D01*
X406133Y225920D01*
X406215Y225312D01*
X406281Y224701D01*
X406333Y224090D01*
X406370Y223477D01*
X406393Y222864D01*
X406400Y222250D01*
X406400Y95250D01*
X406411Y94329D01*
X406444Y93409D01*
X406500Y92490D01*
X406578Y91573D01*
X406678Y90658D01*
X406800Y89745D01*
X406944Y88836D01*
X407110Y87930D01*
X407298Y87029D01*
X407507Y86132D01*
X407738Y85241D01*
X407991Y84355D01*
X408265Y83476D01*
X408560Y82604D01*
X408876Y81740D01*
X409213Y80883D01*
X409570Y80034D01*
X409948Y79195D01*
X410346Y78364D01*
X410764Y77544D01*
X411202Y76734D01*
X411659Y75935D01*
X412135Y75147D01*
X412630Y74371D01*
X413144Y73607D01*
X413676Y72855D01*
X414227Y72117D01*
X414794Y71392D01*
X415380Y70682D01*
X415982Y69985D01*
X416601Y69303D01*
X417236Y68637D01*
X417887Y67986D01*
X418553Y67351D01*
X419235Y66732D01*
X419932Y66130D01*
X420642Y65544D01*
X421367Y64977D01*
X422105Y64426D01*
X422857Y63894D01*
X423621Y63380D01*
X424397Y62885D01*
X425185Y62409D01*
X425984Y61952D01*
X426794Y61514D01*
X427614Y61096D01*
X428445Y60698D01*
X429284Y60320D01*
X430133Y59963D01*
X430990Y59626D01*
X431854Y59310D01*
X432726Y59015D01*
X433605Y58741D01*
X434491Y58488D01*
X435382Y58257D01*
X436279Y58048D01*
X437180Y57860D01*
X438086Y57694D01*
X438995Y57550D01*
X439908Y57428D01*
X440823Y57328D01*
X441740Y57250D01*
X442659Y57194D01*
X443579Y57161D01*
X444500Y57150D01*
X590550Y38100D02*
X590550Y19050D01*
X571500Y57150D02*
X444500Y57150D01*
X571500Y57150D02*
X571960Y57144D01*
X572420Y57128D01*
X572880Y57100D01*
X573339Y57061D01*
X573796Y57011D01*
X574253Y56950D01*
X574707Y56878D01*
X575160Y56795D01*
X575611Y56701D01*
X576059Y56596D01*
X576505Y56481D01*
X576947Y56355D01*
X577387Y56218D01*
X577823Y56070D01*
X578255Y55912D01*
X578684Y55744D01*
X579108Y55565D01*
X579528Y55376D01*
X579943Y55177D01*
X580353Y54968D01*
X580758Y54749D01*
X581158Y54521D01*
X581552Y54282D01*
X581940Y54035D01*
X582322Y53778D01*
X582697Y53512D01*
X583066Y53237D01*
X583429Y52953D01*
X583784Y52660D01*
X584132Y52359D01*
X584473Y52050D01*
X584807Y51732D01*
X585132Y51407D01*
X585450Y51073D01*
X585759Y50732D01*
X586060Y50384D01*
X586353Y50029D01*
X586637Y49666D01*
X586912Y49297D01*
X587178Y48922D01*
X587435Y48540D01*
X587682Y48152D01*
X587921Y47758D01*
X588149Y47358D01*
X588368Y46953D01*
X588577Y46543D01*
X588776Y46128D01*
X588965Y45708D01*
X589144Y45284D01*
X589312Y44855D01*
X589470Y44423D01*
X589618Y43987D01*
X589755Y43547D01*
X589881Y43105D01*
X589996Y42659D01*
X590101Y42211D01*
X590195Y41760D01*
X590278Y41307D01*
X590350Y40853D01*
X590411Y40396D01*
X590461Y39939D01*
X590500Y39480D01*
X590528Y39020D01*
X590544Y38560D01*
X590550Y38100D01*
X184150Y317500D02*
X183536Y317493D01*
X182923Y317470D01*
X182310Y317433D01*
X181699Y317381D01*
X181088Y317315D01*
X180480Y317233D01*
X179874Y317137D01*
X179270Y317027D01*
X178669Y316902D01*
X178071Y316762D01*
X177477Y316608D01*
X176887Y316439D01*
X176301Y316257D01*
X175720Y316060D01*
X175143Y315849D01*
X174572Y315625D01*
X174006Y315387D01*
X173446Y315135D01*
X172893Y314869D01*
X172346Y314591D01*
X171806Y314299D01*
X171273Y313994D01*
X170748Y313676D01*
X170230Y313346D01*
X169721Y313004D01*
X169220Y312649D01*
X168728Y312282D01*
X168245Y311904D01*
X167771Y311514D01*
X167307Y311112D01*
X166852Y310700D01*
X166408Y310276D01*
X165974Y309842D01*
X165550Y309398D01*
X165138Y308943D01*
X164736Y308479D01*
X164346Y308005D01*
X163968Y307522D01*
X163601Y307030D01*
X163246Y306529D01*
X162904Y306020D01*
X162574Y305502D01*
X162256Y304977D01*
X161951Y304444D01*
X161659Y303904D01*
X161381Y303357D01*
X161115Y302804D01*
X160863Y302244D01*
X160625Y301678D01*
X160401Y301107D01*
X160190Y300530D01*
X159993Y299949D01*
X159811Y299363D01*
X159642Y298773D01*
X159488Y298179D01*
X159348Y297581D01*
X159223Y296980D01*
X159113Y296376D01*
X159017Y295770D01*
X158935Y295162D01*
X158869Y294551D01*
X158817Y293940D01*
X158780Y293327D01*
X158757Y292714D01*
X158750Y292100D01*
X158750Y228600D02*
X158757Y227986D01*
X158780Y227373D01*
X158817Y226760D01*
X158869Y226149D01*
X158935Y225538D01*
X159017Y224930D01*
X159113Y224324D01*
X159223Y223720D01*
X159348Y223119D01*
X159488Y222521D01*
X159642Y221927D01*
X159811Y221337D01*
X159993Y220751D01*
X160190Y220170D01*
X160401Y219593D01*
X160625Y219022D01*
X160863Y218456D01*
X161115Y217896D01*
X161381Y217343D01*
X161659Y216796D01*
X161951Y216256D01*
X162256Y215723D01*
X162574Y215198D01*
X162904Y214680D01*
X163246Y214171D01*
X163601Y213670D01*
X163968Y213178D01*
X164346Y212695D01*
X164736Y212221D01*
X165138Y211757D01*
X165550Y211302D01*
X165974Y210858D01*
X166408Y210424D01*
X166852Y210000D01*
X167307Y209588D01*
X167771Y209186D01*
X168245Y208796D01*
X168728Y208418D01*
X169220Y208051D01*
X169721Y207696D01*
X170230Y207354D01*
X170748Y207024D01*
X171273Y206706D01*
X171806Y206401D01*
X172346Y206109D01*
X172893Y205831D01*
X173446Y205565D01*
X174006Y205313D01*
X174572Y205075D01*
X175143Y204851D01*
X175720Y204640D01*
X176301Y204443D01*
X176887Y204261D01*
X177477Y204092D01*
X178071Y203938D01*
X178669Y203798D01*
X179270Y203673D01*
X179874Y203563D01*
X180480Y203467D01*
X181088Y203385D01*
X181699Y203319D01*
X182310Y203267D01*
X182923Y203230D01*
X183536Y203207D01*
X184150Y203200D01*
X285750Y203200D02*
X286364Y203193D01*
X286977Y203170D01*
X287590Y203133D01*
X288201Y203081D01*
X288812Y203015D01*
X289420Y202933D01*
X290026Y202837D01*
X290630Y202727D01*
X291231Y202602D01*
X291829Y202462D01*
X292423Y202308D01*
X293013Y202139D01*
X293599Y201957D01*
X294180Y201760D01*
X294757Y201549D01*
X295328Y201325D01*
X295894Y201087D01*
X296454Y200835D01*
X297007Y200569D01*
X297554Y200291D01*
X298094Y199999D01*
X298627Y199694D01*
X299152Y199376D01*
X299670Y199046D01*
X300179Y198704D01*
X300680Y198349D01*
X301172Y197982D01*
X301655Y197604D01*
X302129Y197214D01*
X302593Y196812D01*
X303048Y196400D01*
X303492Y195976D01*
X303926Y195542D01*
X304350Y195098D01*
X304762Y194643D01*
X305164Y194179D01*
X305554Y193705D01*
X305932Y193222D01*
X306299Y192730D01*
X306654Y192229D01*
X306996Y191720D01*
X307326Y191202D01*
X307644Y190677D01*
X307949Y190144D01*
X308241Y189604D01*
X308519Y189057D01*
X308785Y188504D01*
X309037Y187944D01*
X309275Y187378D01*
X309499Y186807D01*
X309710Y186230D01*
X309907Y185649D01*
X310089Y185063D01*
X310258Y184473D01*
X310412Y183879D01*
X310552Y183281D01*
X310677Y182680D01*
X310787Y182076D01*
X310883Y181470D01*
X310965Y180862D01*
X311031Y180251D01*
X311083Y179640D01*
X311120Y179027D01*
X311143Y178414D01*
X311150Y177800D01*
X311150Y19050D01*
X158750Y228600D02*
X158750Y292100D01*
X184150Y203200D02*
X285750Y203200D01*
X19050Y57150D02*
X19050Y19050D01*
X19050Y57150D02*
X19057Y57764D01*
X19080Y58377D01*
X19117Y58990D01*
X19169Y59601D01*
X19235Y60212D01*
X19317Y60820D01*
X19413Y61426D01*
X19523Y62030D01*
X19648Y62631D01*
X19788Y63229D01*
X19942Y63823D01*
X20111Y64413D01*
X20293Y64999D01*
X20490Y65580D01*
X20701Y66157D01*
X20925Y66728D01*
X21163Y67294D01*
X21415Y67854D01*
X21681Y68407D01*
X21959Y68954D01*
X22251Y69494D01*
X22556Y70027D01*
X22874Y70552D01*
X23204Y71070D01*
X23546Y71579D01*
X23901Y72080D01*
X24268Y72572D01*
X24646Y73055D01*
X25036Y73529D01*
X25438Y73993D01*
X25850Y74448D01*
X26274Y74892D01*
X26708Y75326D01*
X27152Y75750D01*
X27607Y76162D01*
X28071Y76564D01*
X28545Y76954D01*
X29028Y77332D01*
X29520Y77699D01*
X30021Y78054D01*
X30530Y78396D01*
X31048Y78726D01*
X31573Y79044D01*
X32106Y79349D01*
X32646Y79641D01*
X33193Y79919D01*
X33746Y80185D01*
X34306Y80437D01*
X34872Y80675D01*
X35443Y80899D01*
X36020Y81110D01*
X36601Y81307D01*
X37187Y81489D01*
X37777Y81658D01*
X38371Y81812D01*
X38969Y81952D01*
X39570Y82077D01*
X40174Y82187D01*
X40780Y82283D01*
X41388Y82365D01*
X41999Y82431D01*
X42610Y82483D01*
X43223Y82520D01*
X43836Y82543D01*
X44450Y82550D01*
X82550Y82550D02*
X83164Y82557D01*
X83777Y82580D01*
X84390Y82617D01*
X85001Y82669D01*
X85612Y82735D01*
X86220Y82817D01*
X86826Y82913D01*
X87430Y83023D01*
X88031Y83148D01*
X88629Y83288D01*
X89223Y83442D01*
X89813Y83611D01*
X90399Y83793D01*
X90980Y83990D01*
X91557Y84201D01*
X92128Y84425D01*
X92694Y84663D01*
X93254Y84915D01*
X93807Y85181D01*
X94354Y85459D01*
X94894Y85751D01*
X95427Y86056D01*
X95952Y86374D01*
X96470Y86704D01*
X96979Y87046D01*
X97480Y87401D01*
X97972Y87768D01*
X98455Y88146D01*
X98929Y88536D01*
X99393Y88938D01*
X99848Y89350D01*
X100292Y89774D01*
X100726Y90208D01*
X101150Y90652D01*
X101562Y91107D01*
X101964Y91571D01*
X102354Y92045D01*
X102732Y92528D01*
X103099Y93020D01*
X103454Y93521D01*
X103796Y94030D01*
X104126Y94548D01*
X104444Y95073D01*
X104749Y95606D01*
X105041Y96146D01*
X105319Y96693D01*
X105585Y97246D01*
X105837Y97806D01*
X106075Y98372D01*
X106299Y98943D01*
X106510Y99520D01*
X106707Y100101D01*
X106889Y100687D01*
X107058Y101277D01*
X107212Y101871D01*
X107352Y102469D01*
X107477Y103070D01*
X107587Y103674D01*
X107683Y104280D01*
X107765Y104888D01*
X107831Y105499D01*
X107883Y106110D01*
X107920Y106723D01*
X107943Y107336D01*
X107950Y107950D01*
X107950Y330200D02*
X107957Y330814D01*
X107980Y331427D01*
X108017Y332040D01*
X108069Y332651D01*
X108135Y333262D01*
X108217Y333870D01*
X108313Y334476D01*
X108423Y335080D01*
X108548Y335681D01*
X108688Y336279D01*
X108842Y336873D01*
X109011Y337463D01*
X109193Y338049D01*
X109390Y338630D01*
X109601Y339207D01*
X109825Y339778D01*
X110063Y340344D01*
X110315Y340904D01*
X110581Y341457D01*
X110859Y342004D01*
X111151Y342544D01*
X111456Y343077D01*
X111774Y343602D01*
X112104Y344120D01*
X112446Y344629D01*
X112801Y345130D01*
X113168Y345622D01*
X113546Y346105D01*
X113936Y346579D01*
X114338Y347043D01*
X114750Y347498D01*
X115174Y347942D01*
X115608Y348376D01*
X116052Y348800D01*
X116507Y349212D01*
X116971Y349614D01*
X117445Y350004D01*
X117928Y350382D01*
X118420Y350749D01*
X118921Y351104D01*
X119430Y351446D01*
X119948Y351776D01*
X120473Y352094D01*
X121006Y352399D01*
X121546Y352691D01*
X122093Y352969D01*
X122646Y353235D01*
X123206Y353487D01*
X123772Y353725D01*
X124343Y353949D01*
X124920Y354160D01*
X125501Y354357D01*
X126087Y354539D01*
X126677Y354708D01*
X127271Y354862D01*
X127869Y355002D01*
X128470Y355127D01*
X129074Y355237D01*
X129680Y355333D01*
X130288Y355415D01*
X130899Y355481D01*
X131510Y355533D01*
X132123Y355570D01*
X132736Y355593D01*
X133350Y355600D01*
X158750Y355600D02*
X159364Y355607D01*
X159977Y355630D01*
X160590Y355667D01*
X161201Y355719D01*
X161812Y355785D01*
X162420Y355867D01*
X163026Y355963D01*
X163630Y356073D01*
X164231Y356198D01*
X164829Y356338D01*
X165423Y356492D01*
X166013Y356661D01*
X166599Y356843D01*
X167180Y357040D01*
X167757Y357251D01*
X168328Y357475D01*
X168894Y357713D01*
X169454Y357965D01*
X170007Y358231D01*
X170554Y358509D01*
X171094Y358801D01*
X171627Y359106D01*
X172152Y359424D01*
X172670Y359754D01*
X173179Y360096D01*
X173680Y360451D01*
X174172Y360818D01*
X174655Y361196D01*
X175129Y361586D01*
X175593Y361988D01*
X176048Y362400D01*
X176492Y362824D01*
X176926Y363258D01*
X177350Y363702D01*
X177762Y364157D01*
X178164Y364621D01*
X178554Y365095D01*
X178932Y365578D01*
X179299Y366070D01*
X179654Y366571D01*
X179996Y367080D01*
X180326Y367598D01*
X180644Y368123D01*
X180949Y368656D01*
X181241Y369196D01*
X181519Y369743D01*
X181785Y370296D01*
X182037Y370856D01*
X182275Y371422D01*
X182499Y371993D01*
X182710Y372570D01*
X182907Y373151D01*
X183089Y373737D01*
X183258Y374327D01*
X183412Y374921D01*
X183552Y375519D01*
X183677Y376120D01*
X183787Y376724D01*
X183883Y377330D01*
X183965Y377938D01*
X184031Y378549D01*
X184083Y379160D01*
X184120Y379773D01*
X184143Y380386D01*
X184150Y381000D01*
X184150Y387350D01*
X82550Y82550D02*
X44450Y82550D01*
X107950Y107950D02*
X107950Y330200D01*
X133350Y355600D02*
X158750Y355600D01*
X203200Y444500D02*
X203200Y514350D01*
X203200Y444500D02*
X203207Y443886D01*
X203230Y443273D01*
X203267Y442660D01*
X203319Y442049D01*
X203385Y441438D01*
X203467Y440830D01*
X203563Y440224D01*
X203673Y439620D01*
X203798Y439019D01*
X203938Y438421D01*
X204092Y437827D01*
X204261Y437237D01*
X204443Y436651D01*
X204640Y436070D01*
X204851Y435493D01*
X205075Y434922D01*
X205313Y434356D01*
X205565Y433796D01*
X205831Y433243D01*
X206109Y432696D01*
X206401Y432156D01*
X206706Y431623D01*
X207024Y431098D01*
X207354Y430580D01*
X207696Y430071D01*
X208051Y429570D01*
X208418Y429078D01*
X208796Y428595D01*
X209186Y428121D01*
X209588Y427657D01*
X210000Y427202D01*
X210424Y426758D01*
X210858Y426324D01*
X211302Y425900D01*
X211757Y425488D01*
X212221Y425086D01*
X212695Y424696D01*
X213178Y424318D01*
X213670Y423951D01*
X214171Y423596D01*
X214680Y423254D01*
X215198Y422924D01*
X215723Y422606D01*
X216256Y422301D01*
X216796Y422009D01*
X217343Y421731D01*
X217896Y421465D01*
X218456Y421213D01*
X219022Y420975D01*
X219593Y420751D01*
X220170Y420540D01*
X220751Y420343D01*
X221337Y420161D01*
X221927Y419992D01*
X222521Y419838D01*
X223119Y419698D01*
X223720Y419573D01*
X224324Y419463D01*
X224930Y419367D01*
X225538Y419285D01*
X226149Y419219D01*
X226760Y419167D01*
X227373Y419130D01*
X227986Y419107D01*
X228600Y419100D01*
X476250Y419100D02*
X476864Y419093D01*
X477477Y419070D01*
X478090Y419033D01*
X478701Y418981D01*
X479312Y418915D01*
X479920Y418833D01*
X480526Y418737D01*
X481130Y418627D01*
X481731Y418502D01*
X482329Y418362D01*
X482923Y418208D01*
X483513Y418039D01*
X484099Y417857D01*
X484680Y417660D01*
X485257Y417449D01*
X485828Y417225D01*
X486394Y416987D01*
X486954Y416735D01*
X487507Y416469D01*
X488054Y416191D01*
X488594Y415899D01*
X489127Y415594D01*
X489652Y415276D01*
X490170Y414946D01*
X490679Y414604D01*
X491180Y414249D01*
X491672Y413882D01*
X492155Y413504D01*
X492629Y413114D01*
X493093Y412712D01*
X493548Y412300D01*
X493992Y411876D01*
X494426Y411442D01*
X494850Y410998D01*
X495262Y410543D01*
X495664Y410079D01*
X496054Y409605D01*
X496432Y409122D01*
X496799Y408630D01*
X497154Y408129D01*
X497496Y407620D01*
X497826Y407102D01*
X498144Y406577D01*
X498449Y406044D01*
X498741Y405504D01*
X499019Y404957D01*
X499285Y404404D01*
X499537Y403844D01*
X499775Y403278D01*
X499999Y402707D01*
X500210Y402130D01*
X500407Y401549D01*
X500589Y400963D01*
X500758Y400373D01*
X500912Y399779D01*
X501052Y399181D01*
X501177Y398580D01*
X501287Y397976D01*
X501383Y397370D01*
X501465Y396762D01*
X501531Y396151D01*
X501583Y395540D01*
X501620Y394927D01*
X501643Y394314D01*
X501650Y393700D01*
X501650Y387350D01*
X476250Y419100D02*
X228600Y419100D01*
X254000Y508000D02*
X254000Y514350D01*
X228600Y514350D02*
X228600Y476250D01*
X228609Y475483D01*
X228637Y474716D01*
X228683Y473950D01*
X228748Y473186D01*
X228831Y472423D01*
X228933Y471662D01*
X229053Y470905D01*
X229191Y470150D01*
X229348Y469399D01*
X229523Y468652D01*
X229715Y467909D01*
X229926Y467171D01*
X230154Y466439D01*
X230400Y465712D01*
X230663Y464991D01*
X230944Y464277D01*
X231242Y463570D01*
X231557Y462871D01*
X231888Y462179D01*
X232237Y461495D01*
X232602Y460820D01*
X232982Y460154D01*
X233379Y459497D01*
X233792Y458851D01*
X234220Y458214D01*
X234664Y457588D01*
X235122Y456973D01*
X235595Y456369D01*
X236083Y455776D01*
X236585Y455196D01*
X237100Y454628D01*
X237630Y454072D01*
X238172Y453530D01*
X238728Y453000D01*
X239296Y452485D01*
X239876Y451983D01*
X240469Y451495D01*
X241073Y451022D01*
X241688Y450564D01*
X242314Y450120D01*
X242951Y449692D01*
X243597Y449279D01*
X244254Y448882D01*
X244920Y448502D01*
X245595Y448137D01*
X246279Y447788D01*
X246971Y447457D01*
X247670Y447142D01*
X248377Y446844D01*
X249091Y446563D01*
X249812Y446300D01*
X250539Y446054D01*
X251271Y445826D01*
X252009Y445615D01*
X252752Y445423D01*
X253499Y445248D01*
X254250Y445091D01*
X255005Y444953D01*
X255762Y444833D01*
X256523Y444731D01*
X257286Y444648D01*
X258050Y444583D01*
X258816Y444537D01*
X259583Y444509D01*
X260350Y444500D01*
X501650Y444500D02*
X502264Y444493D01*
X502877Y444470D01*
X503490Y444433D01*
X504101Y444381D01*
X504712Y444315D01*
X505320Y444233D01*
X505926Y444137D01*
X506530Y444027D01*
X507131Y443902D01*
X507729Y443762D01*
X508323Y443608D01*
X508913Y443439D01*
X509499Y443257D01*
X510080Y443060D01*
X510657Y442849D01*
X511228Y442625D01*
X511794Y442387D01*
X512354Y442135D01*
X512907Y441869D01*
X513454Y441591D01*
X513994Y441299D01*
X514527Y440994D01*
X515052Y440676D01*
X515570Y440346D01*
X516079Y440004D01*
X516580Y439649D01*
X517072Y439282D01*
X517555Y438904D01*
X518029Y438514D01*
X518493Y438112D01*
X518948Y437700D01*
X519392Y437276D01*
X519826Y436842D01*
X520250Y436398D01*
X520662Y435943D01*
X521064Y435479D01*
X521454Y435005D01*
X521832Y434522D01*
X522199Y434030D01*
X522554Y433529D01*
X522896Y433020D01*
X523226Y432502D01*
X523544Y431977D01*
X523849Y431444D01*
X524141Y430904D01*
X524419Y430357D01*
X524685Y429804D01*
X524937Y429244D01*
X525175Y428678D01*
X525399Y428107D01*
X525610Y427530D01*
X525807Y426949D01*
X525989Y426363D01*
X526158Y425773D01*
X526312Y425179D01*
X526452Y424581D01*
X526577Y423980D01*
X526687Y423376D01*
X526783Y422770D01*
X526865Y422162D01*
X526931Y421551D01*
X526983Y420940D01*
X527020Y420327D01*
X527043Y419714D01*
X527050Y419100D01*
X527050Y342900D01*
X527043Y342286D01*
X527020Y341673D01*
X526983Y341060D01*
X526931Y340449D01*
X526865Y339838D01*
X526783Y339230D01*
X526687Y338624D01*
X526577Y338020D01*
X526452Y337419D01*
X526312Y336821D01*
X526158Y336227D01*
X525989Y335637D01*
X525807Y335051D01*
X525610Y334470D01*
X525399Y333893D01*
X525175Y333322D01*
X524937Y332756D01*
X524685Y332196D01*
X524419Y331643D01*
X524141Y331096D01*
X523849Y330556D01*
X523544Y330023D01*
X523226Y329498D01*
X522896Y328980D01*
X522554Y328471D01*
X522199Y327970D01*
X521832Y327478D01*
X521454Y326995D01*
X521064Y326521D01*
X520662Y326057D01*
X520250Y325602D01*
X519826Y325158D01*
X519392Y324724D01*
X518948Y324300D01*
X518493Y323888D01*
X518029Y323486D01*
X517555Y323096D01*
X517072Y322718D01*
X516580Y322351D01*
X516079Y321996D01*
X515570Y321654D01*
X515052Y321324D01*
X514527Y321006D01*
X513994Y320701D01*
X513454Y320409D01*
X512907Y320131D01*
X512354Y319865D01*
X511794Y319613D01*
X511228Y319375D01*
X510657Y319151D01*
X510080Y318940D01*
X509499Y318743D01*
X508913Y318561D01*
X508323Y318392D01*
X507729Y318238D01*
X507131Y318098D01*
X506530Y317973D01*
X505926Y317863D01*
X505320Y317767D01*
X504712Y317685D01*
X504101Y317619D01*
X503490Y317567D01*
X502877Y317530D01*
X502264Y317507D01*
X501650Y317500D01*
X501650Y444500D02*
X260350Y444500D01*
X406400Y482600D02*
X406400Y514350D01*
X406400Y482600D02*
X406406Y482140D01*
X406422Y481680D01*
X406450Y481220D01*
X406489Y480761D01*
X406539Y480304D01*
X406600Y479847D01*
X406672Y479393D01*
X406755Y478940D01*
X406849Y478489D01*
X406954Y478041D01*
X407069Y477595D01*
X407195Y477153D01*
X407332Y476713D01*
X407480Y476277D01*
X407638Y475845D01*
X407806Y475416D01*
X407985Y474992D01*
X408174Y474572D01*
X408373Y474157D01*
X408582Y473747D01*
X408801Y473342D01*
X409029Y472942D01*
X409268Y472548D01*
X409515Y472160D01*
X409772Y471778D01*
X410038Y471403D01*
X410313Y471034D01*
X410597Y470671D01*
X410890Y470316D01*
X411191Y469968D01*
X411500Y469627D01*
X411818Y469293D01*
X412143Y468968D01*
X412477Y468650D01*
X412818Y468341D01*
X413166Y468040D01*
X413521Y467747D01*
X413884Y467463D01*
X414253Y467188D01*
X414628Y466922D01*
X415010Y466665D01*
X415398Y466418D01*
X415792Y466179D01*
X416192Y465951D01*
X416597Y465732D01*
X417007Y465523D01*
X417422Y465324D01*
X417842Y465135D01*
X418266Y464956D01*
X418695Y464788D01*
X419127Y464630D01*
X419563Y464482D01*
X420003Y464345D01*
X420445Y464219D01*
X420891Y464104D01*
X421339Y463999D01*
X421790Y463905D01*
X422243Y463822D01*
X422697Y463750D01*
X423154Y463689D01*
X423611Y463639D01*
X424070Y463600D01*
X424530Y463572D01*
X424990Y463556D01*
X425450Y463550D01*
X577850Y190500D02*
X577843Y189886D01*
X577820Y189273D01*
X577783Y188660D01*
X577731Y188049D01*
X577665Y187438D01*
X577583Y186830D01*
X577487Y186224D01*
X577377Y185620D01*
X577252Y185019D01*
X577112Y184421D01*
X576958Y183827D01*
X576789Y183237D01*
X576607Y182651D01*
X576410Y182070D01*
X576199Y181493D01*
X575975Y180922D01*
X575737Y180356D01*
X575485Y179796D01*
X575219Y179243D01*
X574941Y178696D01*
X574649Y178156D01*
X574344Y177623D01*
X574026Y177098D01*
X573696Y176580D01*
X573354Y176071D01*
X572999Y175570D01*
X572632Y175078D01*
X572254Y174595D01*
X571864Y174121D01*
X571462Y173657D01*
X571050Y173202D01*
X570626Y172758D01*
X570192Y172324D01*
X569748Y171900D01*
X569293Y171488D01*
X568829Y171086D01*
X568355Y170696D01*
X567872Y170318D01*
X567380Y169951D01*
X566879Y169596D01*
X566370Y169254D01*
X565852Y168924D01*
X565327Y168606D01*
X564794Y168301D01*
X564254Y168009D01*
X563707Y167731D01*
X563154Y167465D01*
X562594Y167213D01*
X562028Y166975D01*
X561457Y166751D01*
X560880Y166540D01*
X560299Y166343D01*
X559713Y166161D01*
X559123Y165992D01*
X558529Y165838D01*
X557931Y165698D01*
X557330Y165573D01*
X556726Y165463D01*
X556120Y165367D01*
X555512Y165285D01*
X554901Y165219D01*
X554290Y165167D01*
X553677Y165130D01*
X553064Y165107D01*
X552450Y165100D01*
X533400Y165100D02*
X532786Y165093D01*
X532173Y165070D01*
X531560Y165033D01*
X530949Y164981D01*
X530338Y164915D01*
X529730Y164833D01*
X529124Y164737D01*
X528520Y164627D01*
X527919Y164502D01*
X527321Y164362D01*
X526727Y164208D01*
X526137Y164039D01*
X525551Y163857D01*
X524970Y163660D01*
X524393Y163449D01*
X523822Y163225D01*
X523256Y162987D01*
X522696Y162735D01*
X522143Y162469D01*
X521596Y162191D01*
X521056Y161899D01*
X520523Y161594D01*
X519998Y161276D01*
X519480Y160946D01*
X518971Y160604D01*
X518470Y160249D01*
X517978Y159882D01*
X517495Y159504D01*
X517021Y159114D01*
X516557Y158712D01*
X516102Y158300D01*
X515658Y157876D01*
X515224Y157442D01*
X514800Y156998D01*
X514388Y156543D01*
X513986Y156079D01*
X513596Y155605D01*
X513218Y155122D01*
X512851Y154630D01*
X512496Y154129D01*
X512154Y153620D01*
X511824Y153102D01*
X511506Y152577D01*
X511201Y152044D01*
X510909Y151504D01*
X510631Y150957D01*
X510365Y150404D01*
X510113Y149844D01*
X509875Y149278D01*
X509651Y148707D01*
X509440Y148130D01*
X509243Y147549D01*
X509061Y146963D01*
X508892Y146373D01*
X508738Y145779D01*
X508598Y145181D01*
X508473Y144580D01*
X508363Y143976D01*
X508267Y143370D01*
X508185Y142762D01*
X508119Y142151D01*
X508067Y141540D01*
X508030Y140927D01*
X508007Y140314D01*
X508000Y139700D01*
X527050Y463550D02*
X425450Y463550D01*
X533400Y165100D02*
X552450Y165100D01*
X508000Y139700D02*
X508000Y82550D01*
D15*
X508000Y82550D03*
D14*
X537890Y459060D02*
X537621Y459323D01*
X537345Y459579D01*
X537063Y459828D01*
X536775Y460070D01*
X536481Y460305D01*
X536182Y460533D01*
X535877Y460754D01*
X535567Y460966D01*
X535252Y461172D01*
X534931Y461369D01*
X534606Y461558D01*
X534277Y461740D01*
X533943Y461913D01*
X533604Y462078D01*
X533262Y462235D01*
X532917Y462383D01*
X532567Y462523D01*
X532215Y462654D01*
X531859Y462776D01*
X531500Y462890D01*
X531139Y462995D01*
X530775Y463091D01*
X530409Y463178D01*
X530041Y463255D01*
X529671Y463324D01*
X529299Y463384D01*
X528927Y463435D01*
X528553Y463476D01*
X528178Y463508D01*
X527802Y463532D01*
X527426Y463545D01*
X527050Y463550D01*
X570411Y426540D02*
X570833Y426107D01*
X571245Y425665D01*
X571646Y425212D01*
X572036Y424751D01*
X572416Y424280D01*
X572784Y423801D01*
X573140Y423312D01*
X573485Y422816D01*
X573818Y422311D01*
X574139Y421799D01*
X574447Y421279D01*
X574743Y420752D01*
X575026Y420218D01*
X575297Y419677D01*
X575555Y419131D01*
X575799Y418578D01*
X576031Y418019D01*
X576249Y417455D01*
X576453Y416887D01*
X576644Y416313D01*
X576821Y415735D01*
X576985Y415153D01*
X577134Y414567D01*
X577270Y413978D01*
X577391Y413386D01*
X577498Y412791D01*
X577591Y412194D01*
X577670Y411594D01*
X577735Y410993D01*
X577785Y410391D01*
X577821Y409788D01*
X577843Y409183D01*
X577850Y408579D01*
X570411Y426540D02*
X537890Y459060D01*
X577850Y408579D02*
X577850Y190500D01*
M02*
