G04 EAGLE Gerber RS-274X export*
G75*
%MOMM*%
%FSLAX34Y34*%
%LPD*%
%INSilkscreen Top*%
%IPPOS*%
%AMOC8*
5,1,8,0,0,1.08239X$1,22.5*%
G01*
%ADD10C,0.152400*%
%ADD11C,0.101600*%
%ADD12C,0.203200*%
%ADD13C,0.254000*%
%ADD14C,0.076200*%
%ADD15C,0.127000*%
%ADD16C,0.200000*%


D10*
X502412Y178562D02*
X502412Y194832D01*
X507835Y189409D01*
X513259Y194832D01*
X513259Y178562D01*
X518784Y181274D02*
X521495Y178562D01*
X524207Y178562D01*
X526919Y181274D01*
X526919Y194832D01*
X529630Y194832D02*
X524207Y194832D01*
X535155Y186697D02*
X546002Y186697D01*
X551527Y192120D02*
X554238Y194832D01*
X559662Y194832D01*
X562373Y192120D01*
X562373Y189409D01*
X559662Y186697D01*
X556950Y186697D01*
X559662Y186697D02*
X562373Y183985D01*
X562373Y181274D01*
X559662Y178562D01*
X554238Y178562D01*
X551527Y181274D01*
X567898Y194832D02*
X578745Y194832D01*
X567898Y194832D02*
X567898Y186697D01*
X573322Y189409D01*
X576033Y189409D01*
X578745Y186697D01*
X578745Y181274D01*
X576033Y178562D01*
X570610Y178562D01*
X567898Y181274D01*
X584270Y192120D02*
X586981Y194832D01*
X592405Y194832D01*
X595116Y192120D01*
X595116Y189409D01*
X592405Y186697D01*
X589693Y186697D01*
X592405Y186697D02*
X595116Y183985D01*
X595116Y181274D01*
X592405Y178562D01*
X586981Y178562D01*
X584270Y181274D01*
X606065Y192120D02*
X611488Y194832D01*
X606065Y192120D02*
X600641Y186697D01*
X600641Y181274D01*
X603353Y178562D01*
X608776Y178562D01*
X611488Y181274D01*
X611488Y183985D01*
X608776Y186697D01*
X600641Y186697D01*
X617013Y178562D02*
X617013Y194832D01*
X627860Y178562D01*
X627860Y194832D01*
X487525Y82729D02*
X487525Y71882D01*
X487525Y82729D02*
X492948Y88152D01*
X498371Y82729D01*
X498371Y71882D01*
X498371Y80017D02*
X487525Y80017D01*
X503896Y74594D02*
X503896Y88152D01*
X503896Y74594D02*
X506608Y71882D01*
X512031Y71882D01*
X514743Y74594D01*
X514743Y88152D01*
X520268Y88152D02*
X520268Y71882D01*
X528403Y71882D01*
X531115Y74594D01*
X531115Y85440D01*
X528403Y88152D01*
X520268Y88152D01*
X536640Y71882D02*
X542063Y71882D01*
X539351Y71882D02*
X539351Y88152D01*
X536640Y88152D02*
X542063Y88152D01*
X550266Y88152D02*
X555689Y88152D01*
X550266Y88152D02*
X547554Y85440D01*
X547554Y74594D01*
X550266Y71882D01*
X555689Y71882D01*
X558401Y74594D01*
X558401Y85440D01*
X555689Y88152D01*
X583009Y88152D02*
X588432Y88152D01*
X583009Y88152D02*
X580297Y85440D01*
X580297Y74594D01*
X583009Y71882D01*
X588432Y71882D01*
X591144Y74594D01*
X591144Y85440D01*
X588432Y88152D01*
X596669Y88152D02*
X596669Y74594D01*
X599380Y71882D01*
X604804Y71882D01*
X607515Y74594D01*
X607515Y88152D01*
X618463Y88152D02*
X618463Y71882D01*
X613040Y88152D02*
X623887Y88152D01*
D11*
X425948Y463555D02*
X427897Y465504D01*
X425948Y463555D02*
X425948Y459657D01*
X427897Y457708D01*
X435693Y457708D01*
X437642Y459657D01*
X437642Y463555D01*
X435693Y465504D01*
X431795Y465504D01*
X431795Y461606D01*
X437642Y469402D02*
X425948Y469402D01*
X437642Y477198D01*
X425948Y477198D01*
X425948Y481096D02*
X437642Y481096D01*
X437642Y486943D01*
X435693Y488892D01*
X427897Y488892D01*
X425948Y486943D01*
X425948Y481096D01*
X259842Y470408D02*
X248148Y470408D01*
X259842Y470408D02*
X259842Y476255D01*
X257893Y478204D01*
X250097Y478204D01*
X248148Y476255D01*
X248148Y470408D01*
X248148Y482102D02*
X248148Y489898D01*
X248148Y482102D02*
X253995Y482102D01*
X252046Y486000D01*
X252046Y487949D01*
X253995Y489898D01*
X257893Y489898D01*
X259842Y487949D01*
X259842Y484051D01*
X257893Y482102D01*
X234442Y470408D02*
X222748Y470408D01*
X234442Y470408D02*
X234442Y476255D01*
X232493Y478204D01*
X224697Y478204D01*
X222748Y476255D01*
X222748Y470408D01*
X222748Y487949D02*
X234442Y487949D01*
X228595Y482102D02*
X222748Y487949D01*
X228595Y489898D02*
X228595Y482102D01*
X209042Y470408D02*
X197348Y470408D01*
X209042Y470408D02*
X209042Y476255D01*
X207093Y478204D01*
X199297Y478204D01*
X197348Y476255D01*
X197348Y470408D01*
X199297Y482102D02*
X197348Y484051D01*
X197348Y487949D01*
X199297Y489898D01*
X201246Y489898D01*
X203195Y487949D01*
X203195Y486000D01*
X203195Y487949D02*
X205144Y489898D01*
X207093Y489898D01*
X209042Y487949D01*
X209042Y484051D01*
X207093Y482102D01*
D12*
X65962Y56154D02*
X58166Y48358D01*
X65962Y56154D02*
X65962Y32766D01*
X58166Y32766D02*
X73758Y32766D01*
X356616Y32766D02*
X372208Y32766D01*
X356616Y32766D02*
X372208Y48358D01*
X372208Y52256D01*
X368310Y56154D01*
X360514Y56154D01*
X356616Y52256D01*
X559816Y52256D02*
X563714Y56154D01*
X571510Y56154D01*
X575408Y52256D01*
X575408Y48358D01*
X571510Y44460D01*
X567612Y44460D01*
X571510Y44460D02*
X575408Y40562D01*
X575408Y36664D01*
X571510Y32766D01*
X563714Y32766D01*
X559816Y36664D01*
D13*
X50800Y44450D02*
X12700Y44450D01*
X44450Y38100D02*
X50800Y44450D01*
X44450Y50800D01*
X304800Y44450D02*
X342900Y44450D01*
X336550Y50800D01*
X342900Y44450D02*
X336550Y38100D01*
X584200Y44450D02*
X622300Y44450D01*
X615950Y38100D01*
X622300Y44450D02*
X615950Y50800D01*
D10*
X166454Y90932D02*
X166454Y101779D01*
X171877Y107202D01*
X177300Y101779D01*
X177300Y90932D01*
X177300Y99067D02*
X166454Y99067D01*
X182825Y93644D02*
X182825Y107202D01*
X182825Y93644D02*
X185537Y90932D01*
X190960Y90932D01*
X193672Y93644D01*
X193672Y107202D01*
X199197Y107202D02*
X199197Y90932D01*
X207332Y90932D01*
X210043Y93644D01*
X210043Y104490D01*
X207332Y107202D01*
X199197Y107202D01*
X215568Y90932D02*
X220992Y90932D01*
X218280Y90932D02*
X218280Y107202D01*
X215568Y107202D02*
X220992Y107202D01*
X229194Y107202D02*
X234618Y107202D01*
X229194Y107202D02*
X226483Y104490D01*
X226483Y93644D01*
X229194Y90932D01*
X234618Y90932D01*
X237329Y93644D01*
X237329Y104490D01*
X234618Y107202D01*
X259226Y90932D02*
X264649Y90932D01*
X261937Y90932D02*
X261937Y107202D01*
X259226Y107202D02*
X264649Y107202D01*
X270140Y107202D02*
X270140Y90932D01*
X280987Y90932D02*
X270140Y107202D01*
X280987Y107202D02*
X280987Y90932D01*
X38862Y178562D02*
X38862Y194832D01*
X44285Y189409D01*
X49709Y194832D01*
X49709Y178562D01*
X55234Y181274D02*
X57945Y178562D01*
X60657Y178562D01*
X63369Y181274D01*
X63369Y194832D01*
X66080Y194832D02*
X60657Y194832D01*
X71605Y186697D02*
X82452Y186697D01*
X87977Y192120D02*
X90688Y194832D01*
X96112Y194832D01*
X98823Y192120D01*
X98823Y189409D01*
X96112Y186697D01*
X93400Y186697D01*
X96112Y186697D02*
X98823Y183985D01*
X98823Y181274D01*
X96112Y178562D01*
X90688Y178562D01*
X87977Y181274D01*
X104348Y194832D02*
X115195Y194832D01*
X104348Y194832D02*
X104348Y186697D01*
X109772Y189409D01*
X112483Y189409D01*
X115195Y186697D01*
X115195Y181274D01*
X112483Y178562D01*
X107060Y178562D01*
X104348Y181274D01*
X120720Y192120D02*
X123431Y194832D01*
X128855Y194832D01*
X131566Y192120D01*
X131566Y189409D01*
X128855Y186697D01*
X126143Y186697D01*
X128855Y186697D02*
X131566Y183985D01*
X131566Y181274D01*
X128855Y178562D01*
X123431Y178562D01*
X120720Y181274D01*
X142515Y192120D02*
X147938Y194832D01*
X142515Y192120D02*
X137091Y186697D01*
X137091Y181274D01*
X139803Y178562D01*
X145226Y178562D01*
X147938Y181274D01*
X147938Y183985D01*
X145226Y186697D01*
X137091Y186697D01*
X153463Y178562D02*
X153463Y194832D01*
X164310Y178562D01*
X164310Y194832D01*
D12*
X191516Y461108D02*
X199312Y468904D01*
X199312Y445516D01*
X191516Y445516D02*
X207108Y445516D01*
X216916Y445516D02*
X232508Y445516D01*
X216916Y445516D02*
X232508Y461108D01*
X232508Y465006D01*
X228610Y468904D01*
X220814Y468904D01*
X216916Y465006D01*
X248666Y465006D02*
X252564Y468904D01*
X260360Y468904D01*
X264258Y465006D01*
X264258Y461108D01*
X260360Y457210D01*
X256462Y457210D01*
X260360Y457210D02*
X264258Y453312D01*
X264258Y449414D01*
X260360Y445516D01*
X252564Y445516D01*
X248666Y449414D01*
X288338Y413766D02*
X303930Y413766D01*
X288338Y413766D02*
X303930Y429358D01*
X303930Y433256D01*
X300032Y437154D01*
X292236Y437154D01*
X288338Y433256D01*
X315624Y433256D02*
X315624Y441052D01*
X315624Y433256D02*
X311726Y429358D01*
X323420Y433256D02*
X323420Y441052D01*
X323420Y433256D02*
X319522Y429358D01*
D13*
X336550Y425450D02*
X571500Y425450D01*
X565150Y419100D01*
X571500Y425450D02*
X565150Y431800D01*
X571500Y444500D02*
X571500Y419100D01*
X292100Y425450D02*
X63500Y425450D01*
X69850Y431800D01*
X63500Y425450D02*
X69850Y419100D01*
X63500Y419100D02*
X63500Y444500D01*
D12*
X106514Y496316D02*
X106514Y519704D01*
X114310Y519704D02*
X114310Y496316D01*
X114310Y511908D02*
X102616Y511908D01*
X114310Y511908D02*
X118208Y511908D01*
X118208Y504112D02*
X102616Y504112D01*
X137698Y496316D02*
X137698Y519704D01*
X126004Y508010D01*
X141596Y508010D01*
X595464Y502666D02*
X595464Y526054D01*
X603260Y526054D02*
X603260Y502666D01*
X603260Y518258D02*
X591566Y518258D01*
X603260Y518258D02*
X607158Y518258D01*
X607158Y510462D02*
X591566Y510462D01*
X626648Y502666D02*
X626648Y526054D01*
X614954Y514360D01*
X630546Y514360D01*
D10*
X4272Y65532D02*
X-3863Y65532D01*
X4272Y65532D02*
X6983Y68244D01*
X4272Y70955D01*
X-1152Y70955D01*
X-3863Y73667D01*
X-1152Y76379D01*
X6983Y76379D01*
X12508Y76379D02*
X12508Y68244D01*
X15220Y65532D01*
X17932Y68244D01*
X20643Y65532D01*
X23355Y68244D01*
X23355Y76379D01*
X28880Y76379D02*
X31592Y76379D01*
X31592Y65532D01*
X34303Y65532D02*
X28880Y65532D01*
X31592Y81802D02*
X31592Y84514D01*
X42506Y79090D02*
X42506Y68244D01*
X45218Y65532D01*
X45218Y76379D02*
X39794Y76379D01*
X53420Y76379D02*
X61555Y76379D01*
X53420Y76379D02*
X50709Y73667D01*
X50709Y68244D01*
X53420Y65532D01*
X61555Y65532D01*
X67080Y65532D02*
X67080Y81802D01*
X69792Y76379D02*
X67080Y73667D01*
X69792Y76379D02*
X75215Y76379D01*
X77927Y73667D01*
X77927Y65532D01*
X86163Y65532D02*
X91587Y65532D01*
X94298Y68244D01*
X94298Y73667D01*
X91587Y76379D01*
X86163Y76379D01*
X83452Y73667D01*
X83452Y68244D01*
X86163Y65532D01*
X102535Y68244D02*
X102535Y79090D01*
X102535Y68244D02*
X105247Y65532D01*
X105247Y76379D02*
X99823Y76379D01*
X110738Y76379D02*
X110738Y65532D01*
X110738Y70955D02*
X116161Y76379D01*
X118873Y76379D01*
X127092Y65532D02*
X132516Y65532D01*
X135227Y68244D01*
X135227Y73667D01*
X132516Y76379D01*
X127092Y76379D01*
X124381Y73667D01*
X124381Y68244D01*
X127092Y65532D01*
X140752Y65532D02*
X140752Y76379D01*
X148887Y76379D01*
X151599Y73667D01*
X151599Y65532D01*
X157124Y73667D02*
X167970Y73667D01*
X173495Y76379D02*
X173495Y65532D01*
X173495Y70955D02*
X178919Y76379D01*
X181630Y76379D01*
X189850Y65532D02*
X195273Y65532D01*
X189850Y65532D02*
X187138Y68244D01*
X187138Y73667D01*
X189850Y76379D01*
X195273Y76379D01*
X197985Y73667D01*
X197985Y70955D01*
X187138Y70955D01*
X203510Y81802D02*
X206222Y81802D01*
X206222Y65532D01*
X208933Y65532D02*
X203510Y65532D01*
X217136Y76379D02*
X222559Y76379D01*
X225271Y73667D01*
X225271Y65532D01*
X217136Y65532D01*
X214424Y68244D01*
X217136Y70955D01*
X225271Y70955D01*
X230796Y68244D02*
X230796Y76379D01*
X230796Y68244D02*
X233507Y65532D01*
X241642Y65532D01*
X241642Y62820D02*
X241642Y76379D01*
X241642Y62820D02*
X238931Y60109D01*
X236219Y60109D01*
X247167Y65532D02*
X247167Y81802D01*
X247167Y65532D02*
X255302Y65532D01*
X258014Y68244D01*
X258014Y73667D01*
X255302Y76379D01*
X247167Y76379D01*
X266251Y65532D02*
X271674Y65532D01*
X274386Y68244D01*
X274386Y73667D01*
X271674Y76379D01*
X266251Y76379D01*
X263539Y73667D01*
X263539Y68244D01*
X266251Y65532D01*
X282622Y76379D02*
X288045Y76379D01*
X290757Y73667D01*
X290757Y65532D01*
X282622Y65532D01*
X279911Y68244D01*
X282622Y70955D01*
X290757Y70955D01*
X296282Y65532D02*
X296282Y76379D01*
X301705Y76379D02*
X296282Y70955D01*
X301705Y76379D02*
X304417Y76379D01*
X320772Y81802D02*
X320772Y65532D01*
X312637Y65532D01*
X309925Y68244D01*
X309925Y73667D01*
X312637Y76379D01*
X320772Y76379D01*
X326297Y73667D02*
X337143Y73667D01*
X342668Y76379D02*
X348091Y65532D01*
X353515Y76379D01*
X359040Y76379D02*
X364463Y81802D01*
X364463Y65532D01*
X359040Y65532D02*
X369886Y65532D01*
X-3863Y55132D02*
X-3863Y38862D01*
X4272Y38862D01*
X6983Y41574D01*
X6983Y52420D01*
X4272Y55132D01*
X-3863Y55132D01*
X12508Y55132D02*
X23355Y55132D01*
X12508Y55132D02*
X12508Y38862D01*
X23355Y38862D01*
X17932Y46997D02*
X12508Y46997D01*
X37015Y55132D02*
X39727Y52420D01*
X37015Y55132D02*
X31592Y55132D01*
X28880Y52420D01*
X28880Y41574D01*
X31592Y38862D01*
X37015Y38862D01*
X39727Y41574D01*
X61623Y38862D02*
X72470Y38862D01*
X61623Y38862D02*
X72470Y49709D01*
X72470Y52420D01*
X69758Y55132D01*
X64335Y55132D01*
X61623Y52420D01*
X77995Y52420D02*
X77995Y41574D01*
X77995Y52420D02*
X80706Y55132D01*
X86130Y55132D01*
X88841Y52420D01*
X88841Y41574D01*
X86130Y38862D01*
X80706Y38862D01*
X77995Y41574D01*
X88841Y52420D01*
X94366Y38862D02*
X105213Y38862D01*
X94366Y38862D02*
X105213Y49709D01*
X105213Y52420D01*
X102501Y55132D01*
X97078Y55132D01*
X94366Y52420D01*
X110738Y52420D02*
X113449Y55132D01*
X118873Y55132D01*
X121584Y52420D01*
X121584Y49709D01*
X118873Y46997D01*
X116161Y46997D01*
X118873Y46997D02*
X121584Y44285D01*
X121584Y41574D01*
X118873Y38862D01*
X113449Y38862D01*
X110738Y41574D01*
D12*
X312166Y391258D02*
X319962Y399054D01*
X319962Y375666D01*
X312166Y375666D02*
X327758Y375666D01*
X327758Y305816D02*
X312166Y305816D01*
X327758Y321408D01*
X327758Y325306D01*
X323860Y329204D01*
X316064Y329204D01*
X312166Y325306D01*
X316064Y259354D02*
X312166Y255456D01*
X316064Y259354D02*
X323860Y259354D01*
X327758Y255456D01*
X327758Y251558D01*
X323860Y247660D01*
X319962Y247660D01*
X323860Y247660D02*
X327758Y243762D01*
X327758Y239864D01*
X323860Y235966D01*
X316064Y235966D01*
X312166Y239864D01*
D13*
X304800Y387350D02*
X215900Y387350D01*
X298450Y381000D02*
X304800Y387350D01*
X298450Y393700D01*
X336550Y387350D02*
X419100Y387350D01*
X412750Y381000D01*
X419100Y387350D02*
X412750Y393700D01*
X304800Y317500D02*
X215900Y317500D01*
X298450Y311150D02*
X304800Y317500D01*
X336550Y317500D02*
X419100Y317500D01*
X412750Y311150D01*
X419100Y317500D02*
X412750Y323850D01*
X304800Y247650D02*
X215900Y247650D01*
X298450Y241300D02*
X304800Y247650D01*
X298450Y254000D01*
X336550Y247650D02*
X419100Y247650D01*
X412750Y241300D01*
X419100Y247650D02*
X412750Y254000D01*
X304800Y317500D02*
X298450Y323850D01*
X57150Y215900D02*
X57150Y209550D01*
X57150Y215900D02*
X50800Y209550D01*
X57150Y215900D02*
X63500Y209550D01*
X139700Y209550D02*
X139700Y215900D01*
X133350Y209550D01*
X139700Y215900D02*
X146050Y209550D01*
X533400Y215900D02*
X533400Y203200D01*
X539750Y209550D01*
X533400Y203200D02*
X527050Y209550D01*
X603250Y215900D02*
X603250Y203200D01*
X609600Y209550D01*
X603250Y203200D02*
X596900Y209550D01*
D11*
X400548Y451358D02*
X400548Y459154D01*
X400548Y451358D02*
X406395Y451358D01*
X404446Y455256D01*
X404446Y457205D01*
X406395Y459154D01*
X410293Y459154D01*
X412242Y457205D01*
X412242Y453307D01*
X410293Y451358D01*
X408344Y463052D02*
X400548Y463052D01*
X408344Y463052D02*
X412242Y466950D01*
X408344Y470848D01*
X400548Y470848D01*
X400548Y474746D02*
X412242Y474746D01*
X412242Y480593D01*
X410293Y482542D01*
X402497Y482542D01*
X400548Y480593D01*
X400548Y474746D01*
X400548Y492287D02*
X402497Y494236D01*
X400548Y492287D02*
X400548Y488389D01*
X402497Y486440D01*
X410293Y486440D01*
X412242Y488389D01*
X412242Y492287D01*
X410293Y494236D01*
X413248Y14654D02*
X413248Y6858D01*
X419095Y6858D01*
X417146Y10756D01*
X417146Y12705D01*
X419095Y14654D01*
X422993Y14654D01*
X424942Y12705D01*
X424942Y8807D01*
X422993Y6858D01*
X421044Y18552D02*
X413248Y18552D01*
X421044Y18552D02*
X424942Y22450D01*
X421044Y26348D01*
X413248Y26348D01*
X413248Y30246D02*
X424942Y30246D01*
X424942Y36093D01*
X422993Y38042D01*
X415197Y38042D01*
X413248Y36093D01*
X413248Y30246D01*
X413248Y47787D02*
X415197Y49736D01*
X413248Y47787D02*
X413248Y43889D01*
X415197Y41940D01*
X422993Y41940D01*
X424942Y43889D01*
X424942Y47787D01*
X422993Y49736D01*
X483098Y12705D02*
X485047Y14654D01*
X483098Y12705D02*
X483098Y8807D01*
X485047Y6858D01*
X492843Y6858D01*
X494792Y8807D01*
X494792Y12705D01*
X492843Y14654D01*
X488945Y14654D01*
X488945Y10756D01*
X494792Y18552D02*
X483098Y18552D01*
X494792Y26348D01*
X483098Y26348D01*
X483098Y30246D02*
X494792Y30246D01*
X494792Y36093D01*
X492843Y38042D01*
X485047Y38042D01*
X483098Y36093D01*
X483098Y30246D01*
D14*
X43505Y404797D02*
X42276Y406025D01*
X39819Y406025D01*
X38590Y404797D01*
X38590Y399882D01*
X39819Y398653D01*
X42276Y398653D01*
X43505Y399882D01*
X47303Y406025D02*
X49760Y406025D01*
X47303Y406025D02*
X46074Y404797D01*
X46074Y399882D01*
X47303Y398653D01*
X49760Y398653D01*
X50989Y399882D01*
X50989Y404797D01*
X49760Y406025D01*
X53558Y406025D02*
X53558Y398653D01*
X56016Y403568D02*
X53558Y406025D01*
X56016Y403568D02*
X58473Y406025D01*
X58473Y398653D01*
X61042Y399882D02*
X61042Y406025D01*
X61042Y399882D02*
X62271Y398653D01*
X64729Y398653D01*
X65957Y399882D01*
X65957Y406025D01*
X72213Y406025D02*
X73441Y404797D01*
X72213Y406025D02*
X69755Y406025D01*
X68527Y404797D01*
X68527Y403568D01*
X69755Y402339D01*
X72213Y402339D01*
X73441Y401110D01*
X73441Y399882D01*
X72213Y398653D01*
X69755Y398653D01*
X68527Y399882D01*
X76011Y403568D02*
X77239Y403568D01*
X77239Y402339D01*
X76011Y402339D01*
X76011Y403568D01*
X76011Y399882D02*
X77239Y399882D01*
X77239Y398653D01*
X76011Y398653D01*
X76011Y399882D01*
X87237Y404797D02*
X88466Y406025D01*
X90923Y406025D01*
X92152Y404797D01*
X92152Y403568D01*
X90923Y402339D01*
X89694Y402339D01*
X90923Y402339D02*
X92152Y401110D01*
X92152Y399882D01*
X90923Y398653D01*
X88466Y398653D01*
X87237Y399882D01*
X94721Y406025D02*
X99636Y406025D01*
X94721Y406025D02*
X94721Y402339D01*
X97179Y403568D01*
X98407Y403568D01*
X99636Y402339D01*
X99636Y399882D01*
X98407Y398653D01*
X95950Y398653D01*
X94721Y399882D01*
X102205Y406025D02*
X107120Y406025D01*
X107120Y404797D01*
X102205Y399882D01*
X102205Y398653D01*
X109689Y399882D02*
X109689Y404797D01*
X110918Y406025D01*
X113376Y406025D01*
X114604Y404797D01*
X114604Y399882D01*
X113376Y398653D01*
X110918Y398653D01*
X109689Y399882D01*
X114604Y404797D01*
X117174Y402339D02*
X122088Y402339D01*
X124658Y403568D02*
X127115Y406025D01*
X127115Y398653D01*
X124658Y398653D02*
X129573Y398653D01*
X132142Y404797D02*
X133371Y406025D01*
X135828Y406025D01*
X137057Y404797D01*
X137057Y403568D01*
X135828Y402339D01*
X134599Y402339D01*
X135828Y402339D02*
X137057Y401110D01*
X137057Y399882D01*
X135828Y398653D01*
X133371Y398653D01*
X132142Y399882D01*
X139626Y404797D02*
X140855Y406025D01*
X143312Y406025D01*
X144541Y404797D01*
X144541Y403568D01*
X143312Y402339D01*
X142083Y402339D01*
X143312Y402339D02*
X144541Y401110D01*
X144541Y399882D01*
X143312Y398653D01*
X140855Y398653D01*
X139626Y399882D01*
X147110Y403568D02*
X149568Y406025D01*
X149568Y398653D01*
X152025Y398653D02*
X147110Y398653D01*
X154594Y402339D02*
X159509Y402339D01*
X162079Y399882D02*
X162079Y404797D01*
X163307Y406025D01*
X165765Y406025D01*
X166993Y404797D01*
X166993Y399882D01*
X165765Y398653D01*
X163307Y398653D01*
X162079Y399882D01*
X166993Y404797D01*
X169563Y406025D02*
X174478Y406025D01*
X169563Y406025D02*
X169563Y402339D01*
X172020Y403568D01*
X173249Y403568D01*
X174478Y402339D01*
X174478Y399882D01*
X173249Y398653D01*
X170791Y398653D01*
X169563Y399882D01*
X177047Y403568D02*
X179504Y406025D01*
X179504Y398653D01*
X177047Y398653D02*
X181962Y398653D01*
D12*
X349250Y527050D02*
X361950Y527050D01*
X368300Y520700D01*
X368300Y508000D02*
X361950Y501650D01*
X323850Y527050D02*
X317500Y520700D01*
X323850Y527050D02*
X336550Y527050D01*
X342900Y520700D01*
X342900Y508000D02*
X336550Y501650D01*
X323850Y501650D01*
X317500Y508000D01*
X342900Y520700D02*
X349250Y527050D01*
X342900Y508000D02*
X349250Y501650D01*
X361950Y501650D01*
X285750Y527050D02*
X273050Y527050D01*
X285750Y527050D02*
X292100Y520700D01*
X292100Y508000D02*
X285750Y501650D01*
X292100Y520700D02*
X298450Y527050D01*
X311150Y527050D01*
X317500Y520700D01*
X317500Y508000D02*
X311150Y501650D01*
X298450Y501650D01*
X292100Y508000D01*
X247650Y527050D02*
X241300Y520700D01*
X247650Y527050D02*
X260350Y527050D01*
X266700Y520700D01*
X266700Y508000D02*
X260350Y501650D01*
X247650Y501650D01*
X241300Y508000D01*
X266700Y520700D02*
X273050Y527050D01*
X266700Y508000D02*
X273050Y501650D01*
X285750Y501650D01*
X209550Y527050D02*
X196850Y527050D01*
X209550Y527050D02*
X215900Y520700D01*
X215900Y508000D02*
X209550Y501650D01*
X215900Y520700D02*
X222250Y527050D01*
X234950Y527050D01*
X241300Y520700D01*
X241300Y508000D02*
X234950Y501650D01*
X222250Y501650D01*
X215900Y508000D01*
X190500Y508000D02*
X190500Y520700D01*
X196850Y527050D01*
X190500Y508000D02*
X196850Y501650D01*
X209550Y501650D01*
X374650Y527050D02*
X387350Y527050D01*
X393700Y520700D01*
X393700Y508000D02*
X387350Y501650D01*
X368300Y520700D02*
X374650Y527050D01*
X368300Y508000D02*
X374650Y501650D01*
X387350Y501650D01*
X400050Y527050D02*
X412750Y527050D01*
X419100Y520700D01*
X419100Y508000D02*
X412750Y501650D01*
X393700Y520700D02*
X400050Y527050D01*
X393700Y508000D02*
X400050Y501650D01*
X412750Y501650D01*
X425450Y527050D02*
X438150Y527050D01*
X444500Y520700D01*
X444500Y508000D01*
X438150Y501650D01*
X419100Y520700D02*
X425450Y527050D01*
X419100Y508000D02*
X425450Y501650D01*
X438150Y501650D01*
D15*
X191940Y528955D02*
X191135Y529760D01*
X191940Y528955D02*
X192745Y528955D01*
X193550Y529760D01*
X193550Y533785D01*
X192745Y533785D02*
X194355Y533785D01*
X196748Y532980D02*
X197553Y533785D01*
X199163Y533785D01*
X199968Y532980D01*
X199968Y532175D01*
X199163Y531370D01*
X198358Y531370D01*
X199163Y531370D02*
X199968Y530565D01*
X199968Y529760D01*
X199163Y528955D01*
X197553Y528955D01*
X196748Y529760D01*
X467100Y96050D02*
X625100Y96050D01*
X467100Y96050D02*
X467100Y122550D01*
X625100Y116050D02*
X625100Y96050D01*
X625100Y116050D02*
X625100Y176050D01*
X625100Y196050D01*
X512600Y196050D01*
X467100Y196050D02*
X467100Y168050D01*
X625100Y116050D02*
X655100Y116050D01*
X655100Y176050D01*
X625100Y176050D01*
D16*
X631100Y108550D02*
X631102Y108613D01*
X631108Y108675D01*
X631118Y108737D01*
X631131Y108799D01*
X631149Y108859D01*
X631170Y108918D01*
X631195Y108976D01*
X631224Y109032D01*
X631256Y109086D01*
X631291Y109138D01*
X631329Y109187D01*
X631371Y109235D01*
X631415Y109279D01*
X631463Y109321D01*
X631512Y109359D01*
X631564Y109394D01*
X631618Y109426D01*
X631674Y109455D01*
X631732Y109480D01*
X631791Y109501D01*
X631851Y109519D01*
X631913Y109532D01*
X631975Y109542D01*
X632037Y109548D01*
X632100Y109550D01*
X632163Y109548D01*
X632225Y109542D01*
X632287Y109532D01*
X632349Y109519D01*
X632409Y109501D01*
X632468Y109480D01*
X632526Y109455D01*
X632582Y109426D01*
X632636Y109394D01*
X632688Y109359D01*
X632737Y109321D01*
X632785Y109279D01*
X632829Y109235D01*
X632871Y109187D01*
X632909Y109138D01*
X632944Y109086D01*
X632976Y109032D01*
X633005Y108976D01*
X633030Y108918D01*
X633051Y108859D01*
X633069Y108799D01*
X633082Y108737D01*
X633092Y108675D01*
X633098Y108613D01*
X633100Y108550D01*
X633098Y108487D01*
X633092Y108425D01*
X633082Y108363D01*
X633069Y108301D01*
X633051Y108241D01*
X633030Y108182D01*
X633005Y108124D01*
X632976Y108068D01*
X632944Y108014D01*
X632909Y107962D01*
X632871Y107913D01*
X632829Y107865D01*
X632785Y107821D01*
X632737Y107779D01*
X632688Y107741D01*
X632636Y107706D01*
X632582Y107674D01*
X632526Y107645D01*
X632468Y107620D01*
X632409Y107599D01*
X632349Y107581D01*
X632287Y107568D01*
X632225Y107558D01*
X632163Y107552D01*
X632100Y107550D01*
X632037Y107552D01*
X631975Y107558D01*
X631913Y107568D01*
X631851Y107581D01*
X631791Y107599D01*
X631732Y107620D01*
X631674Y107645D01*
X631618Y107674D01*
X631564Y107706D01*
X631512Y107741D01*
X631463Y107779D01*
X631415Y107821D01*
X631371Y107865D01*
X631329Y107913D01*
X631291Y107962D01*
X631256Y108014D01*
X631224Y108068D01*
X631195Y108124D01*
X631170Y108182D01*
X631149Y108241D01*
X631131Y108301D01*
X631118Y108363D01*
X631108Y108425D01*
X631102Y108487D01*
X631100Y108550D01*
D11*
X604800Y80717D02*
X606752Y78765D01*
X608704Y78765D01*
X610656Y80717D01*
X610656Y90477D01*
X612607Y90477D02*
X608704Y90477D01*
X616510Y86573D02*
X620414Y90477D01*
X620414Y78765D01*
X624317Y78765D02*
X616510Y78765D01*
D15*
X167900Y202400D02*
X9900Y202400D01*
X167900Y202400D02*
X167900Y175900D01*
X9900Y182400D02*
X9900Y202400D01*
X9900Y182400D02*
X9900Y122400D01*
X9900Y102400D01*
X122400Y102400D01*
X167900Y102400D02*
X167900Y130400D01*
X9900Y182400D02*
X-20100Y182400D01*
X-20100Y122400D01*
X9900Y122400D01*
D16*
X1900Y189900D02*
X1902Y189963D01*
X1908Y190025D01*
X1918Y190087D01*
X1931Y190149D01*
X1949Y190209D01*
X1970Y190268D01*
X1995Y190326D01*
X2024Y190382D01*
X2056Y190436D01*
X2091Y190488D01*
X2129Y190537D01*
X2171Y190585D01*
X2215Y190629D01*
X2263Y190671D01*
X2312Y190709D01*
X2364Y190744D01*
X2418Y190776D01*
X2474Y190805D01*
X2532Y190830D01*
X2591Y190851D01*
X2651Y190869D01*
X2713Y190882D01*
X2775Y190892D01*
X2837Y190898D01*
X2900Y190900D01*
X2963Y190898D01*
X3025Y190892D01*
X3087Y190882D01*
X3149Y190869D01*
X3209Y190851D01*
X3268Y190830D01*
X3326Y190805D01*
X3382Y190776D01*
X3436Y190744D01*
X3488Y190709D01*
X3537Y190671D01*
X3585Y190629D01*
X3629Y190585D01*
X3671Y190537D01*
X3709Y190488D01*
X3744Y190436D01*
X3776Y190382D01*
X3805Y190326D01*
X3830Y190268D01*
X3851Y190209D01*
X3869Y190149D01*
X3882Y190087D01*
X3892Y190025D01*
X3898Y189963D01*
X3900Y189900D01*
X3898Y189837D01*
X3892Y189775D01*
X3882Y189713D01*
X3869Y189651D01*
X3851Y189591D01*
X3830Y189532D01*
X3805Y189474D01*
X3776Y189418D01*
X3744Y189364D01*
X3709Y189312D01*
X3671Y189263D01*
X3629Y189215D01*
X3585Y189171D01*
X3537Y189129D01*
X3488Y189091D01*
X3436Y189056D01*
X3382Y189024D01*
X3326Y188995D01*
X3268Y188970D01*
X3209Y188949D01*
X3149Y188931D01*
X3087Y188918D01*
X3025Y188908D01*
X2963Y188902D01*
X2900Y188900D01*
X2837Y188902D01*
X2775Y188908D01*
X2713Y188918D01*
X2651Y188931D01*
X2591Y188949D01*
X2532Y188970D01*
X2474Y188995D01*
X2418Y189024D01*
X2364Y189056D01*
X2312Y189091D01*
X2263Y189129D01*
X2215Y189171D01*
X2171Y189215D01*
X2129Y189263D01*
X2091Y189312D01*
X2056Y189364D01*
X2024Y189418D01*
X1995Y189474D01*
X1970Y189532D01*
X1949Y189591D01*
X1931Y189651D01*
X1918Y189713D01*
X1908Y189775D01*
X1902Y189837D01*
X1900Y189900D01*
D11*
X9748Y207984D02*
X7796Y209935D01*
X9748Y207984D02*
X11700Y207984D01*
X13652Y209935D01*
X13652Y219695D01*
X11700Y219695D02*
X15604Y219695D01*
X19506Y207984D02*
X27314Y207984D01*
X27314Y215791D02*
X19506Y207984D01*
X27314Y215791D02*
X27314Y217743D01*
X25362Y219695D01*
X21458Y219695D01*
X19506Y217743D01*
D10*
X12700Y412750D02*
X203200Y412750D01*
X203200Y361950D01*
X12700Y361950D01*
X12700Y412750D01*
X88900Y381000D02*
X88900Y368300D01*
X82550Y374650D02*
X95250Y374650D01*
X18885Y385332D02*
X13462Y379909D01*
X18885Y385332D02*
X18885Y369062D01*
X13462Y369062D02*
X24309Y369062D01*
X127000Y374650D02*
X139700Y374650D01*
X193047Y369062D02*
X193047Y385332D01*
X184912Y377197D01*
X195759Y377197D01*
X431800Y412750D02*
X622300Y412750D01*
X622300Y361950D01*
X431800Y361950D01*
X431800Y412750D01*
X508000Y381000D02*
X508000Y368300D01*
X501650Y374650D02*
X514350Y374650D01*
X437985Y385332D02*
X432562Y379909D01*
X437985Y385332D02*
X437985Y369062D01*
X432562Y369062D02*
X443409Y369062D01*
X546100Y374650D02*
X558800Y374650D01*
X612147Y369062D02*
X612147Y385332D01*
X604012Y377197D01*
X614859Y377197D01*
X203200Y342900D02*
X12700Y342900D01*
X203200Y342900D02*
X203200Y292100D01*
X12700Y292100D01*
X12700Y342900D01*
X88900Y311150D02*
X88900Y298450D01*
X82550Y304800D02*
X95250Y304800D01*
X18885Y315482D02*
X13462Y310059D01*
X18885Y315482D02*
X18885Y299212D01*
X13462Y299212D02*
X24309Y299212D01*
X127000Y304800D02*
X139700Y304800D01*
X193047Y299212D02*
X193047Y315482D01*
X184912Y307347D01*
X195759Y307347D01*
X431800Y342900D02*
X622300Y342900D01*
X622300Y292100D01*
X431800Y292100D01*
X431800Y342900D01*
X508000Y311150D02*
X508000Y298450D01*
X501650Y304800D02*
X514350Y304800D01*
X437985Y315482D02*
X432562Y310059D01*
X437985Y315482D02*
X437985Y299212D01*
X432562Y299212D02*
X443409Y299212D01*
X546100Y304800D02*
X558800Y304800D01*
X612147Y299212D02*
X612147Y315482D01*
X604012Y307347D01*
X614859Y307347D01*
X203200Y273050D02*
X12700Y273050D01*
X203200Y273050D02*
X203200Y222250D01*
X12700Y222250D01*
X12700Y273050D01*
X88900Y241300D02*
X88900Y228600D01*
X82550Y234950D02*
X95250Y234950D01*
X18885Y245632D02*
X13462Y240209D01*
X18885Y245632D02*
X18885Y229362D01*
X13462Y229362D02*
X24309Y229362D01*
X127000Y234950D02*
X139700Y234950D01*
X193047Y229362D02*
X193047Y245632D01*
X184912Y237497D01*
X195759Y237497D01*
X431800Y273050D02*
X622300Y273050D01*
X622300Y222250D01*
X431800Y222250D01*
X431800Y273050D01*
X508000Y241300D02*
X508000Y228600D01*
X501650Y234950D02*
X514350Y234950D01*
X437985Y245632D02*
X432562Y240209D01*
X437985Y245632D02*
X437985Y229362D01*
X432562Y229362D02*
X443409Y229362D01*
X546100Y234950D02*
X558800Y234950D01*
X612147Y229362D02*
X612147Y245632D01*
X604012Y237497D01*
X614859Y237497D01*
D12*
X342900Y6350D02*
X330200Y6350D01*
X323850Y12700D01*
X323850Y25400D02*
X330200Y31750D01*
X323850Y12700D02*
X317500Y6350D01*
X304800Y6350D01*
X298450Y12700D01*
X298450Y25400D02*
X304800Y31750D01*
X317500Y31750D01*
X323850Y25400D01*
X349250Y25400D02*
X349250Y12700D01*
X342900Y6350D01*
X349250Y25400D02*
X342900Y31750D01*
X330200Y31750D01*
X298450Y25400D02*
X298450Y12700D01*
D15*
X338659Y424D02*
X339464Y-381D01*
X340269Y-381D01*
X341074Y424D01*
X341074Y4449D01*
X340269Y4449D02*
X341879Y4449D01*
X345882Y3644D02*
X347492Y4449D01*
X345882Y3644D02*
X344272Y2034D01*
X344272Y424D01*
X345077Y-381D01*
X346687Y-381D01*
X347492Y424D01*
X347492Y1229D01*
X346687Y2034D01*
X344272Y2034D01*
D12*
X25400Y31750D02*
X12700Y31750D01*
X25400Y31750D02*
X31750Y25400D01*
X31750Y12700D02*
X25400Y6350D01*
X31750Y25400D02*
X38100Y31750D01*
X50800Y31750D01*
X57150Y25400D01*
X57150Y12700D02*
X50800Y6350D01*
X38100Y6350D01*
X31750Y12700D01*
X6350Y12700D02*
X6350Y25400D01*
X12700Y31750D01*
X6350Y12700D02*
X12700Y6350D01*
X25400Y6350D01*
X57150Y12700D02*
X57150Y25400D01*
D15*
X7790Y33655D02*
X6985Y34460D01*
X7790Y33655D02*
X8595Y33655D01*
X9400Y34460D01*
X9400Y38485D01*
X8595Y38485D02*
X10205Y38485D01*
X12598Y38485D02*
X15818Y38485D01*
X15818Y37680D01*
X12598Y34460D01*
X12598Y33655D01*
D12*
X609600Y6350D02*
X622300Y6350D01*
X609600Y6350D02*
X603250Y12700D01*
X603250Y25400D02*
X609600Y31750D01*
X603250Y12700D02*
X596900Y6350D01*
X584200Y6350D01*
X577850Y12700D01*
X577850Y25400D02*
X584200Y31750D01*
X596900Y31750D01*
X603250Y25400D01*
X628650Y25400D02*
X628650Y12700D01*
X622300Y6350D01*
X628650Y25400D02*
X622300Y31750D01*
X609600Y31750D01*
X577850Y25400D02*
X577850Y12700D01*
D15*
X618059Y424D02*
X618864Y-381D01*
X619669Y-381D01*
X620474Y424D01*
X620474Y4449D01*
X619669Y4449D02*
X621279Y4449D01*
X623672Y3644D02*
X624477Y4449D01*
X626087Y4449D01*
X626892Y3644D01*
X626892Y2839D01*
X626087Y2034D01*
X626892Y1229D01*
X626892Y424D01*
X626087Y-381D01*
X624477Y-381D01*
X623672Y424D01*
X623672Y1229D01*
X624477Y2034D01*
X623672Y2839D01*
X623672Y3644D01*
X624477Y2034D02*
X626087Y2034D01*
D10*
X29210Y482600D02*
X29220Y483442D01*
X29251Y484283D01*
X29303Y485123D01*
X29375Y485961D01*
X29468Y486797D01*
X29581Y487631D01*
X29715Y488462D01*
X29869Y489290D01*
X30043Y490113D01*
X30238Y490932D01*
X30452Y491746D01*
X30687Y492554D01*
X30941Y493356D01*
X31214Y494152D01*
X31508Y494941D01*
X31820Y495722D01*
X32152Y496496D01*
X32502Y497261D01*
X32871Y498017D01*
X33259Y498764D01*
X33665Y499501D01*
X34088Y500229D01*
X34530Y500945D01*
X34989Y501651D01*
X35465Y502344D01*
X35958Y503027D01*
X36468Y503696D01*
X36993Y504353D01*
X37535Y504997D01*
X38093Y505628D01*
X38666Y506244D01*
X39253Y506847D01*
X39856Y507434D01*
X40472Y508007D01*
X41103Y508565D01*
X41747Y509107D01*
X42404Y509632D01*
X43073Y510142D01*
X43756Y510635D01*
X44449Y511111D01*
X45155Y511570D01*
X45871Y512012D01*
X46599Y512435D01*
X47336Y512841D01*
X48083Y513229D01*
X48839Y513598D01*
X49604Y513948D01*
X50378Y514280D01*
X51159Y514592D01*
X51948Y514886D01*
X52744Y515159D01*
X53546Y515413D01*
X54354Y515648D01*
X55168Y515862D01*
X55987Y516057D01*
X56810Y516231D01*
X57638Y516385D01*
X58469Y516519D01*
X59303Y516632D01*
X60139Y516725D01*
X60977Y516797D01*
X61817Y516849D01*
X62658Y516880D01*
X63500Y516890D01*
X64342Y516880D01*
X65183Y516849D01*
X66023Y516797D01*
X66861Y516725D01*
X67697Y516632D01*
X68531Y516519D01*
X69362Y516385D01*
X70190Y516231D01*
X71013Y516057D01*
X71832Y515862D01*
X72646Y515648D01*
X73454Y515413D01*
X74256Y515159D01*
X75052Y514886D01*
X75841Y514592D01*
X76622Y514280D01*
X77396Y513948D01*
X78161Y513598D01*
X78917Y513229D01*
X79664Y512841D01*
X80401Y512435D01*
X81129Y512012D01*
X81845Y511570D01*
X82551Y511111D01*
X83244Y510635D01*
X83927Y510142D01*
X84596Y509632D01*
X85253Y509107D01*
X85897Y508565D01*
X86528Y508007D01*
X87144Y507434D01*
X87747Y506847D01*
X88334Y506244D01*
X88907Y505628D01*
X89465Y504997D01*
X90007Y504353D01*
X90532Y503696D01*
X91042Y503027D01*
X91535Y502344D01*
X92011Y501651D01*
X92470Y500945D01*
X92912Y500229D01*
X93335Y499501D01*
X93741Y498764D01*
X94129Y498017D01*
X94498Y497261D01*
X94848Y496496D01*
X95180Y495722D01*
X95492Y494941D01*
X95786Y494152D01*
X96059Y493356D01*
X96313Y492554D01*
X96548Y491746D01*
X96762Y490932D01*
X96957Y490113D01*
X97131Y489290D01*
X97285Y488462D01*
X97419Y487631D01*
X97532Y486797D01*
X97625Y485961D01*
X97697Y485123D01*
X97749Y484283D01*
X97780Y483442D01*
X97790Y482600D01*
X97780Y481758D01*
X97749Y480917D01*
X97697Y480077D01*
X97625Y479239D01*
X97532Y478403D01*
X97419Y477569D01*
X97285Y476738D01*
X97131Y475910D01*
X96957Y475087D01*
X96762Y474268D01*
X96548Y473454D01*
X96313Y472646D01*
X96059Y471844D01*
X95786Y471048D01*
X95492Y470259D01*
X95180Y469478D01*
X94848Y468704D01*
X94498Y467939D01*
X94129Y467183D01*
X93741Y466436D01*
X93335Y465699D01*
X92912Y464971D01*
X92470Y464255D01*
X92011Y463549D01*
X91535Y462856D01*
X91042Y462173D01*
X90532Y461504D01*
X90007Y460847D01*
X89465Y460203D01*
X88907Y459572D01*
X88334Y458956D01*
X87747Y458353D01*
X87144Y457766D01*
X86528Y457193D01*
X85897Y456635D01*
X85253Y456093D01*
X84596Y455568D01*
X83927Y455058D01*
X83244Y454565D01*
X82551Y454089D01*
X81845Y453630D01*
X81129Y453188D01*
X80401Y452765D01*
X79664Y452359D01*
X78917Y451971D01*
X78161Y451602D01*
X77396Y451252D01*
X76622Y450920D01*
X75841Y450608D01*
X75052Y450314D01*
X74256Y450041D01*
X73454Y449787D01*
X72646Y449552D01*
X71832Y449338D01*
X71013Y449143D01*
X70190Y448969D01*
X69362Y448815D01*
X68531Y448681D01*
X67697Y448568D01*
X66861Y448475D01*
X66023Y448403D01*
X65183Y448351D01*
X64342Y448320D01*
X63500Y448310D01*
X62658Y448320D01*
X61817Y448351D01*
X60977Y448403D01*
X60139Y448475D01*
X59303Y448568D01*
X58469Y448681D01*
X57638Y448815D01*
X56810Y448969D01*
X55987Y449143D01*
X55168Y449338D01*
X54354Y449552D01*
X53546Y449787D01*
X52744Y450041D01*
X51948Y450314D01*
X51159Y450608D01*
X50378Y450920D01*
X49604Y451252D01*
X48839Y451602D01*
X48083Y451971D01*
X47336Y452359D01*
X46599Y452765D01*
X45871Y453188D01*
X45155Y453630D01*
X44449Y454089D01*
X43756Y454565D01*
X43073Y455058D01*
X42404Y455568D01*
X41747Y456093D01*
X41103Y456635D01*
X40472Y457193D01*
X39856Y457766D01*
X39253Y458353D01*
X38666Y458956D01*
X38093Y459572D01*
X37535Y460203D01*
X36993Y460847D01*
X36468Y461504D01*
X35958Y462173D01*
X35465Y462856D01*
X34989Y463549D01*
X34530Y464255D01*
X34088Y464971D01*
X33665Y465699D01*
X33259Y466436D01*
X32871Y467183D01*
X32502Y467939D01*
X32152Y468704D01*
X31820Y469478D01*
X31508Y470259D01*
X31214Y471048D01*
X30941Y471844D01*
X30687Y472646D01*
X30452Y473454D01*
X30238Y474268D01*
X30043Y475087D01*
X29869Y475910D01*
X29715Y476738D01*
X29581Y477569D01*
X29468Y478403D01*
X29375Y479239D01*
X29303Y480077D01*
X29251Y480917D01*
X29220Y481758D01*
X29210Y482600D01*
D12*
X46500Y482600D02*
X46505Y483017D01*
X46520Y483434D01*
X46546Y483851D01*
X46582Y484266D01*
X46628Y484681D01*
X46684Y485094D01*
X46750Y485506D01*
X46827Y485917D01*
X46913Y486325D01*
X47009Y486731D01*
X47116Y487134D01*
X47232Y487535D01*
X47358Y487933D01*
X47494Y488327D01*
X47639Y488718D01*
X47794Y489106D01*
X47958Y489489D01*
X48132Y489868D01*
X48315Y490243D01*
X48507Y490614D01*
X48709Y490979D01*
X48919Y491340D01*
X49137Y491695D01*
X49365Y492045D01*
X49601Y492389D01*
X49845Y492727D01*
X50098Y493059D01*
X50359Y493385D01*
X50627Y493704D01*
X50904Y494017D01*
X51188Y494322D01*
X51479Y494621D01*
X51778Y494912D01*
X52083Y495196D01*
X52396Y495473D01*
X52715Y495741D01*
X53041Y496002D01*
X53373Y496255D01*
X53711Y496499D01*
X54055Y496735D01*
X54405Y496963D01*
X54760Y497181D01*
X55121Y497391D01*
X55486Y497593D01*
X55857Y497785D01*
X56232Y497968D01*
X56611Y498142D01*
X56994Y498306D01*
X57382Y498461D01*
X57773Y498606D01*
X58167Y498742D01*
X58565Y498868D01*
X58966Y498984D01*
X59369Y499091D01*
X59775Y499187D01*
X60183Y499273D01*
X60594Y499350D01*
X61006Y499416D01*
X61419Y499472D01*
X61834Y499518D01*
X62249Y499554D01*
X62666Y499580D01*
X63083Y499595D01*
X63500Y499600D01*
X63917Y499595D01*
X64334Y499580D01*
X64751Y499554D01*
X65166Y499518D01*
X65581Y499472D01*
X65994Y499416D01*
X66406Y499350D01*
X66817Y499273D01*
X67225Y499187D01*
X67631Y499091D01*
X68034Y498984D01*
X68435Y498868D01*
X68833Y498742D01*
X69227Y498606D01*
X69618Y498461D01*
X70006Y498306D01*
X70389Y498142D01*
X70768Y497968D01*
X71143Y497785D01*
X71514Y497593D01*
X71879Y497391D01*
X72240Y497181D01*
X72595Y496963D01*
X72945Y496735D01*
X73289Y496499D01*
X73627Y496255D01*
X73959Y496002D01*
X74285Y495741D01*
X74604Y495473D01*
X74917Y495196D01*
X75222Y494912D01*
X75521Y494621D01*
X75812Y494322D01*
X76096Y494017D01*
X76373Y493704D01*
X76641Y493385D01*
X76902Y493059D01*
X77155Y492727D01*
X77399Y492389D01*
X77635Y492045D01*
X77863Y491695D01*
X78081Y491340D01*
X78291Y490979D01*
X78493Y490614D01*
X78685Y490243D01*
X78868Y489868D01*
X79042Y489489D01*
X79206Y489106D01*
X79361Y488718D01*
X79506Y488327D01*
X79642Y487933D01*
X79768Y487535D01*
X79884Y487134D01*
X79991Y486731D01*
X80087Y486325D01*
X80173Y485917D01*
X80250Y485506D01*
X80316Y485094D01*
X80372Y484681D01*
X80418Y484266D01*
X80454Y483851D01*
X80480Y483434D01*
X80495Y483017D01*
X80500Y482600D01*
X80495Y482183D01*
X80480Y481766D01*
X80454Y481349D01*
X80418Y480934D01*
X80372Y480519D01*
X80316Y480106D01*
X80250Y479694D01*
X80173Y479283D01*
X80087Y478875D01*
X79991Y478469D01*
X79884Y478066D01*
X79768Y477665D01*
X79642Y477267D01*
X79506Y476873D01*
X79361Y476482D01*
X79206Y476094D01*
X79042Y475711D01*
X78868Y475332D01*
X78685Y474957D01*
X78493Y474586D01*
X78291Y474221D01*
X78081Y473860D01*
X77863Y473505D01*
X77635Y473155D01*
X77399Y472811D01*
X77155Y472473D01*
X76902Y472141D01*
X76641Y471815D01*
X76373Y471496D01*
X76096Y471183D01*
X75812Y470878D01*
X75521Y470579D01*
X75222Y470288D01*
X74917Y470004D01*
X74604Y469727D01*
X74285Y469459D01*
X73959Y469198D01*
X73627Y468945D01*
X73289Y468701D01*
X72945Y468465D01*
X72595Y468237D01*
X72240Y468019D01*
X71879Y467809D01*
X71514Y467607D01*
X71143Y467415D01*
X70768Y467232D01*
X70389Y467058D01*
X70006Y466894D01*
X69618Y466739D01*
X69227Y466594D01*
X68833Y466458D01*
X68435Y466332D01*
X68034Y466216D01*
X67631Y466109D01*
X67225Y466013D01*
X66817Y465927D01*
X66406Y465850D01*
X65994Y465784D01*
X65581Y465728D01*
X65166Y465682D01*
X64751Y465646D01*
X64334Y465620D01*
X63917Y465605D01*
X63500Y465600D01*
X63083Y465605D01*
X62666Y465620D01*
X62249Y465646D01*
X61834Y465682D01*
X61419Y465728D01*
X61006Y465784D01*
X60594Y465850D01*
X60183Y465927D01*
X59775Y466013D01*
X59369Y466109D01*
X58966Y466216D01*
X58565Y466332D01*
X58167Y466458D01*
X57773Y466594D01*
X57382Y466739D01*
X56994Y466894D01*
X56611Y467058D01*
X56232Y467232D01*
X55857Y467415D01*
X55486Y467607D01*
X55121Y467809D01*
X54760Y468019D01*
X54405Y468237D01*
X54055Y468465D01*
X53711Y468701D01*
X53373Y468945D01*
X53041Y469198D01*
X52715Y469459D01*
X52396Y469727D01*
X52083Y470004D01*
X51778Y470288D01*
X51479Y470579D01*
X51188Y470878D01*
X50904Y471183D01*
X50627Y471496D01*
X50359Y471815D01*
X50098Y472141D01*
X49845Y472473D01*
X49601Y472811D01*
X49365Y473155D01*
X49137Y473505D01*
X48919Y473860D01*
X48709Y474221D01*
X48507Y474586D01*
X48315Y474957D01*
X48132Y475332D01*
X47958Y475711D01*
X47794Y476094D01*
X47639Y476482D01*
X47494Y476873D01*
X47358Y477267D01*
X47232Y477665D01*
X47116Y478066D01*
X47009Y478469D01*
X46913Y478875D01*
X46827Y479283D01*
X46750Y479694D01*
X46684Y480106D01*
X46628Y480519D01*
X46582Y480934D01*
X46546Y481349D01*
X46520Y481766D01*
X46505Y482183D01*
X46500Y482600D01*
D10*
X537210Y482600D02*
X537220Y483442D01*
X537251Y484283D01*
X537303Y485123D01*
X537375Y485961D01*
X537468Y486797D01*
X537581Y487631D01*
X537715Y488462D01*
X537869Y489290D01*
X538043Y490113D01*
X538238Y490932D01*
X538452Y491746D01*
X538687Y492554D01*
X538941Y493356D01*
X539214Y494152D01*
X539508Y494941D01*
X539820Y495722D01*
X540152Y496496D01*
X540502Y497261D01*
X540871Y498017D01*
X541259Y498764D01*
X541665Y499501D01*
X542088Y500229D01*
X542530Y500945D01*
X542989Y501651D01*
X543465Y502344D01*
X543958Y503027D01*
X544468Y503696D01*
X544993Y504353D01*
X545535Y504997D01*
X546093Y505628D01*
X546666Y506244D01*
X547253Y506847D01*
X547856Y507434D01*
X548472Y508007D01*
X549103Y508565D01*
X549747Y509107D01*
X550404Y509632D01*
X551073Y510142D01*
X551756Y510635D01*
X552449Y511111D01*
X553155Y511570D01*
X553871Y512012D01*
X554599Y512435D01*
X555336Y512841D01*
X556083Y513229D01*
X556839Y513598D01*
X557604Y513948D01*
X558378Y514280D01*
X559159Y514592D01*
X559948Y514886D01*
X560744Y515159D01*
X561546Y515413D01*
X562354Y515648D01*
X563168Y515862D01*
X563987Y516057D01*
X564810Y516231D01*
X565638Y516385D01*
X566469Y516519D01*
X567303Y516632D01*
X568139Y516725D01*
X568977Y516797D01*
X569817Y516849D01*
X570658Y516880D01*
X571500Y516890D01*
X572342Y516880D01*
X573183Y516849D01*
X574023Y516797D01*
X574861Y516725D01*
X575697Y516632D01*
X576531Y516519D01*
X577362Y516385D01*
X578190Y516231D01*
X579013Y516057D01*
X579832Y515862D01*
X580646Y515648D01*
X581454Y515413D01*
X582256Y515159D01*
X583052Y514886D01*
X583841Y514592D01*
X584622Y514280D01*
X585396Y513948D01*
X586161Y513598D01*
X586917Y513229D01*
X587664Y512841D01*
X588401Y512435D01*
X589129Y512012D01*
X589845Y511570D01*
X590551Y511111D01*
X591244Y510635D01*
X591927Y510142D01*
X592596Y509632D01*
X593253Y509107D01*
X593897Y508565D01*
X594528Y508007D01*
X595144Y507434D01*
X595747Y506847D01*
X596334Y506244D01*
X596907Y505628D01*
X597465Y504997D01*
X598007Y504353D01*
X598532Y503696D01*
X599042Y503027D01*
X599535Y502344D01*
X600011Y501651D01*
X600470Y500945D01*
X600912Y500229D01*
X601335Y499501D01*
X601741Y498764D01*
X602129Y498017D01*
X602498Y497261D01*
X602848Y496496D01*
X603180Y495722D01*
X603492Y494941D01*
X603786Y494152D01*
X604059Y493356D01*
X604313Y492554D01*
X604548Y491746D01*
X604762Y490932D01*
X604957Y490113D01*
X605131Y489290D01*
X605285Y488462D01*
X605419Y487631D01*
X605532Y486797D01*
X605625Y485961D01*
X605697Y485123D01*
X605749Y484283D01*
X605780Y483442D01*
X605790Y482600D01*
X605780Y481758D01*
X605749Y480917D01*
X605697Y480077D01*
X605625Y479239D01*
X605532Y478403D01*
X605419Y477569D01*
X605285Y476738D01*
X605131Y475910D01*
X604957Y475087D01*
X604762Y474268D01*
X604548Y473454D01*
X604313Y472646D01*
X604059Y471844D01*
X603786Y471048D01*
X603492Y470259D01*
X603180Y469478D01*
X602848Y468704D01*
X602498Y467939D01*
X602129Y467183D01*
X601741Y466436D01*
X601335Y465699D01*
X600912Y464971D01*
X600470Y464255D01*
X600011Y463549D01*
X599535Y462856D01*
X599042Y462173D01*
X598532Y461504D01*
X598007Y460847D01*
X597465Y460203D01*
X596907Y459572D01*
X596334Y458956D01*
X595747Y458353D01*
X595144Y457766D01*
X594528Y457193D01*
X593897Y456635D01*
X593253Y456093D01*
X592596Y455568D01*
X591927Y455058D01*
X591244Y454565D01*
X590551Y454089D01*
X589845Y453630D01*
X589129Y453188D01*
X588401Y452765D01*
X587664Y452359D01*
X586917Y451971D01*
X586161Y451602D01*
X585396Y451252D01*
X584622Y450920D01*
X583841Y450608D01*
X583052Y450314D01*
X582256Y450041D01*
X581454Y449787D01*
X580646Y449552D01*
X579832Y449338D01*
X579013Y449143D01*
X578190Y448969D01*
X577362Y448815D01*
X576531Y448681D01*
X575697Y448568D01*
X574861Y448475D01*
X574023Y448403D01*
X573183Y448351D01*
X572342Y448320D01*
X571500Y448310D01*
X570658Y448320D01*
X569817Y448351D01*
X568977Y448403D01*
X568139Y448475D01*
X567303Y448568D01*
X566469Y448681D01*
X565638Y448815D01*
X564810Y448969D01*
X563987Y449143D01*
X563168Y449338D01*
X562354Y449552D01*
X561546Y449787D01*
X560744Y450041D01*
X559948Y450314D01*
X559159Y450608D01*
X558378Y450920D01*
X557604Y451252D01*
X556839Y451602D01*
X556083Y451971D01*
X555336Y452359D01*
X554599Y452765D01*
X553871Y453188D01*
X553155Y453630D01*
X552449Y454089D01*
X551756Y454565D01*
X551073Y455058D01*
X550404Y455568D01*
X549747Y456093D01*
X549103Y456635D01*
X548472Y457193D01*
X547856Y457766D01*
X547253Y458353D01*
X546666Y458956D01*
X546093Y459572D01*
X545535Y460203D01*
X544993Y460847D01*
X544468Y461504D01*
X543958Y462173D01*
X543465Y462856D01*
X542989Y463549D01*
X542530Y464255D01*
X542088Y464971D01*
X541665Y465699D01*
X541259Y466436D01*
X540871Y467183D01*
X540502Y467939D01*
X540152Y468704D01*
X539820Y469478D01*
X539508Y470259D01*
X539214Y471048D01*
X538941Y471844D01*
X538687Y472646D01*
X538452Y473454D01*
X538238Y474268D01*
X538043Y475087D01*
X537869Y475910D01*
X537715Y476738D01*
X537581Y477569D01*
X537468Y478403D01*
X537375Y479239D01*
X537303Y480077D01*
X537251Y480917D01*
X537220Y481758D01*
X537210Y482600D01*
D12*
X554500Y482600D02*
X554505Y483017D01*
X554520Y483434D01*
X554546Y483851D01*
X554582Y484266D01*
X554628Y484681D01*
X554684Y485094D01*
X554750Y485506D01*
X554827Y485917D01*
X554913Y486325D01*
X555009Y486731D01*
X555116Y487134D01*
X555232Y487535D01*
X555358Y487933D01*
X555494Y488327D01*
X555639Y488718D01*
X555794Y489106D01*
X555958Y489489D01*
X556132Y489868D01*
X556315Y490243D01*
X556507Y490614D01*
X556709Y490979D01*
X556919Y491340D01*
X557137Y491695D01*
X557365Y492045D01*
X557601Y492389D01*
X557845Y492727D01*
X558098Y493059D01*
X558359Y493385D01*
X558627Y493704D01*
X558904Y494017D01*
X559188Y494322D01*
X559479Y494621D01*
X559778Y494912D01*
X560083Y495196D01*
X560396Y495473D01*
X560715Y495741D01*
X561041Y496002D01*
X561373Y496255D01*
X561711Y496499D01*
X562055Y496735D01*
X562405Y496963D01*
X562760Y497181D01*
X563121Y497391D01*
X563486Y497593D01*
X563857Y497785D01*
X564232Y497968D01*
X564611Y498142D01*
X564994Y498306D01*
X565382Y498461D01*
X565773Y498606D01*
X566167Y498742D01*
X566565Y498868D01*
X566966Y498984D01*
X567369Y499091D01*
X567775Y499187D01*
X568183Y499273D01*
X568594Y499350D01*
X569006Y499416D01*
X569419Y499472D01*
X569834Y499518D01*
X570249Y499554D01*
X570666Y499580D01*
X571083Y499595D01*
X571500Y499600D01*
X571917Y499595D01*
X572334Y499580D01*
X572751Y499554D01*
X573166Y499518D01*
X573581Y499472D01*
X573994Y499416D01*
X574406Y499350D01*
X574817Y499273D01*
X575225Y499187D01*
X575631Y499091D01*
X576034Y498984D01*
X576435Y498868D01*
X576833Y498742D01*
X577227Y498606D01*
X577618Y498461D01*
X578006Y498306D01*
X578389Y498142D01*
X578768Y497968D01*
X579143Y497785D01*
X579514Y497593D01*
X579879Y497391D01*
X580240Y497181D01*
X580595Y496963D01*
X580945Y496735D01*
X581289Y496499D01*
X581627Y496255D01*
X581959Y496002D01*
X582285Y495741D01*
X582604Y495473D01*
X582917Y495196D01*
X583222Y494912D01*
X583521Y494621D01*
X583812Y494322D01*
X584096Y494017D01*
X584373Y493704D01*
X584641Y493385D01*
X584902Y493059D01*
X585155Y492727D01*
X585399Y492389D01*
X585635Y492045D01*
X585863Y491695D01*
X586081Y491340D01*
X586291Y490979D01*
X586493Y490614D01*
X586685Y490243D01*
X586868Y489868D01*
X587042Y489489D01*
X587206Y489106D01*
X587361Y488718D01*
X587506Y488327D01*
X587642Y487933D01*
X587768Y487535D01*
X587884Y487134D01*
X587991Y486731D01*
X588087Y486325D01*
X588173Y485917D01*
X588250Y485506D01*
X588316Y485094D01*
X588372Y484681D01*
X588418Y484266D01*
X588454Y483851D01*
X588480Y483434D01*
X588495Y483017D01*
X588500Y482600D01*
X588495Y482183D01*
X588480Y481766D01*
X588454Y481349D01*
X588418Y480934D01*
X588372Y480519D01*
X588316Y480106D01*
X588250Y479694D01*
X588173Y479283D01*
X588087Y478875D01*
X587991Y478469D01*
X587884Y478066D01*
X587768Y477665D01*
X587642Y477267D01*
X587506Y476873D01*
X587361Y476482D01*
X587206Y476094D01*
X587042Y475711D01*
X586868Y475332D01*
X586685Y474957D01*
X586493Y474586D01*
X586291Y474221D01*
X586081Y473860D01*
X585863Y473505D01*
X585635Y473155D01*
X585399Y472811D01*
X585155Y472473D01*
X584902Y472141D01*
X584641Y471815D01*
X584373Y471496D01*
X584096Y471183D01*
X583812Y470878D01*
X583521Y470579D01*
X583222Y470288D01*
X582917Y470004D01*
X582604Y469727D01*
X582285Y469459D01*
X581959Y469198D01*
X581627Y468945D01*
X581289Y468701D01*
X580945Y468465D01*
X580595Y468237D01*
X580240Y468019D01*
X579879Y467809D01*
X579514Y467607D01*
X579143Y467415D01*
X578768Y467232D01*
X578389Y467058D01*
X578006Y466894D01*
X577618Y466739D01*
X577227Y466594D01*
X576833Y466458D01*
X576435Y466332D01*
X576034Y466216D01*
X575631Y466109D01*
X575225Y466013D01*
X574817Y465927D01*
X574406Y465850D01*
X573994Y465784D01*
X573581Y465728D01*
X573166Y465682D01*
X572751Y465646D01*
X572334Y465620D01*
X571917Y465605D01*
X571500Y465600D01*
X571083Y465605D01*
X570666Y465620D01*
X570249Y465646D01*
X569834Y465682D01*
X569419Y465728D01*
X569006Y465784D01*
X568594Y465850D01*
X568183Y465927D01*
X567775Y466013D01*
X567369Y466109D01*
X566966Y466216D01*
X566565Y466332D01*
X566167Y466458D01*
X565773Y466594D01*
X565382Y466739D01*
X564994Y466894D01*
X564611Y467058D01*
X564232Y467232D01*
X563857Y467415D01*
X563486Y467607D01*
X563121Y467809D01*
X562760Y468019D01*
X562405Y468237D01*
X562055Y468465D01*
X561711Y468701D01*
X561373Y468945D01*
X561041Y469198D01*
X560715Y469459D01*
X560396Y469727D01*
X560083Y470004D01*
X559778Y470288D01*
X559479Y470579D01*
X559188Y470878D01*
X558904Y471183D01*
X558627Y471496D01*
X558359Y471815D01*
X558098Y472141D01*
X557845Y472473D01*
X557601Y472811D01*
X557365Y473155D01*
X557137Y473505D01*
X556919Y473860D01*
X556709Y474221D01*
X556507Y474586D01*
X556315Y474957D01*
X556132Y475332D01*
X555958Y475711D01*
X555794Y476094D01*
X555639Y476482D01*
X555494Y476873D01*
X555358Y477267D01*
X555232Y477665D01*
X555116Y478066D01*
X555009Y478469D01*
X554913Y478875D01*
X554827Y479283D01*
X554750Y479694D01*
X554684Y480106D01*
X554628Y480519D01*
X554582Y480934D01*
X554546Y481349D01*
X554520Y481766D01*
X554505Y482183D01*
X554500Y482600D01*
X476250Y6350D02*
X463550Y6350D01*
X457200Y12700D01*
X457200Y25400D02*
X463550Y31750D01*
X457200Y12700D02*
X450850Y6350D01*
X438150Y6350D01*
X431800Y12700D01*
X431800Y25400D02*
X438150Y31750D01*
X450850Y31750D01*
X457200Y25400D01*
X482600Y25400D02*
X482600Y12700D01*
X476250Y6350D01*
X482600Y25400D02*
X476250Y31750D01*
X463550Y31750D01*
X431800Y25400D02*
X431800Y12700D01*
D15*
X472009Y424D02*
X472814Y-381D01*
X473619Y-381D01*
X474424Y424D01*
X474424Y4449D01*
X473619Y4449D02*
X475229Y4449D01*
X480037Y4449D02*
X480037Y-381D01*
X477622Y2034D02*
X480037Y4449D01*
X480842Y2034D02*
X477622Y2034D01*
M02*
