M48
;GenerationSoftware,Autodesk,EAGLE,9.6.2*%
;CreationDate,2023-12-25T15:05:10Z*%
FMAT,2
ICI,OFF
METRIC,TZ,000.000
T5C0.508
T4C0.600
T3C1.000
T2C1.016
T1C3.200
%
G90
M71
T1
X57150Y48260
X6350Y48260
T2
X27940Y51435
X20320Y51435
X22860Y51435
X25400Y51435
X43180Y51435
X30480Y51435
X33020Y51435
X35560Y51435
X38100Y51435
X40640Y51435
X1905Y1905
X4445Y1905
X61595Y1905
X59055Y1905
X46990Y1905
X44450Y1905
X31115Y1905
X33655Y1905
T3
X60210Y14605
X46510Y14605
X49010Y19805
X3290Y15240
X16990Y15240
X14490Y10040
T4
X3175Y38735
X8255Y38735
X13335Y38735
X18415Y38735
X45085Y38735
X50165Y38735
X55245Y31750
X60325Y31750
X3175Y24765
X8255Y24765
X13335Y24765
X60325Y38735
X45085Y24765
X50165Y24765
X55245Y24765
X60325Y24765
X3175Y31750
X55245Y38735
X8255Y31750
X13335Y31750
X18415Y31750
X45085Y31750
X50165Y31750
X18415Y24765
T5
X50800Y8255
M30