G75*
%MOIN*%
%OFA0B0*%
%FSLAX25Y25*%
%IPPOS*%
%LPD*%
%AMOC8*
5,1,8,0,0,1.08239X$1,22.5*
%
%ADD10C,0.00600*%
%ADD11C,0.00400*%
%ADD12C,0.02400*%
%ADD13C,0.00300*%
%ADD14C,0.01000*%
%ADD15C,0.00200*%
%ADD16C,0.00500*%
%ADD17C,0.00800*%
D10*
X0023811Y0004900D02*
X0027014Y0004900D01*
X0028082Y0005968D01*
X0027014Y0007035D01*
X0024879Y0007035D01*
X0023811Y0008103D01*
X0024879Y0009170D01*
X0028082Y0009170D01*
X0030257Y0009170D02*
X0030257Y0005968D01*
X0031325Y0004900D01*
X0032392Y0005968D01*
X0033460Y0004900D01*
X0034527Y0005968D01*
X0034527Y0009170D01*
X0036702Y0009170D02*
X0037770Y0009170D01*
X0037770Y0004900D01*
X0036702Y0004900D02*
X0038838Y0004900D01*
X0042067Y0005968D02*
X0043135Y0004900D01*
X0042067Y0005968D02*
X0042067Y0010238D01*
X0040999Y0009170D02*
X0043135Y0009170D01*
X0045296Y0008103D02*
X0045296Y0005968D01*
X0046364Y0004900D01*
X0049567Y0004900D01*
X0051742Y0004900D02*
X0051742Y0011305D01*
X0052810Y0009170D02*
X0054945Y0009170D01*
X0056012Y0008103D01*
X0056012Y0004900D01*
X0058187Y0005968D02*
X0059255Y0004900D01*
X0061390Y0004900D01*
X0062458Y0005968D01*
X0062458Y0008103D01*
X0061390Y0009170D01*
X0059255Y0009170D01*
X0058187Y0008103D01*
X0058187Y0005968D01*
X0052810Y0009170D02*
X0051742Y0008103D01*
X0049567Y0009170D02*
X0046364Y0009170D01*
X0045296Y0008103D01*
X0037770Y0011305D02*
X0037770Y0012373D01*
X0064633Y0009170D02*
X0066768Y0009170D01*
X0065701Y0010238D02*
X0065701Y0005968D01*
X0066768Y0004900D01*
X0068930Y0004900D02*
X0068930Y0009170D01*
X0068930Y0007035D02*
X0071065Y0009170D01*
X0072133Y0009170D01*
X0074301Y0008103D02*
X0074301Y0005968D01*
X0075369Y0004900D01*
X0077504Y0004900D01*
X0078572Y0005968D01*
X0078572Y0008103D01*
X0077504Y0009170D01*
X0075369Y0009170D01*
X0074301Y0008103D01*
X0080747Y0009170D02*
X0080747Y0004900D01*
X0085017Y0004900D02*
X0085017Y0008103D01*
X0083949Y0009170D01*
X0080747Y0009170D01*
X0087192Y0008103D02*
X0091463Y0008103D01*
X0095773Y0008103D02*
X0096840Y0008103D01*
X0097908Y0007035D01*
X0097908Y0005968D01*
X0096840Y0004900D01*
X0094705Y0004900D01*
X0093638Y0005968D01*
X0096840Y0008103D02*
X0097908Y0009170D01*
X0097908Y0010238D01*
X0096840Y0011305D01*
X0094705Y0011305D01*
X0093638Y0010238D01*
X0100083Y0011305D02*
X0100083Y0004900D01*
X0103286Y0004900D01*
X0104354Y0005968D01*
X0104354Y0008103D01*
X0103286Y0009170D01*
X0100083Y0009170D01*
X0106529Y0009170D02*
X0106529Y0005968D01*
X0107596Y0004900D01*
X0110799Y0004900D01*
X0110799Y0009170D01*
X0112974Y0009170D02*
X0115109Y0009170D01*
X0114042Y0010238D02*
X0114042Y0005968D01*
X0115109Y0004900D01*
X0118339Y0005968D02*
X0119406Y0004900D01*
X0118339Y0005968D02*
X0118339Y0010238D01*
X0119406Y0009170D02*
X0117271Y0009170D01*
X0121568Y0008103D02*
X0121568Y0005968D01*
X0122636Y0004900D01*
X0124771Y0004900D01*
X0125839Y0005968D01*
X0125839Y0008103D01*
X0124771Y0009170D01*
X0122636Y0009170D01*
X0121568Y0008103D01*
X0128014Y0009170D02*
X0131216Y0009170D01*
X0132284Y0008103D01*
X0132284Y0004900D01*
X0134459Y0004900D02*
X0137662Y0004900D01*
X0138730Y0005968D01*
X0137662Y0007035D01*
X0135527Y0007035D01*
X0134459Y0008103D01*
X0135527Y0009170D01*
X0138730Y0009170D01*
X0140905Y0008103D02*
X0145175Y0008103D01*
X0147350Y0010238D02*
X0148418Y0011305D01*
X0150553Y0011305D01*
X0151620Y0010238D01*
X0151620Y0009170D01*
X0150553Y0008103D01*
X0151620Y0007035D01*
X0151620Y0005968D01*
X0150553Y0004900D01*
X0148418Y0004900D01*
X0147350Y0005968D01*
X0149485Y0008103D02*
X0150553Y0008103D01*
X0158093Y0009170D02*
X0159160Y0009170D01*
X0159160Y0004900D01*
X0158093Y0004900D02*
X0160228Y0004900D01*
X0162390Y0005968D02*
X0163457Y0004900D01*
X0166660Y0004900D01*
X0166660Y0003832D02*
X0166660Y0009170D01*
X0163457Y0009170D01*
X0162390Y0008103D01*
X0162390Y0005968D01*
X0165592Y0002765D02*
X0166660Y0003832D01*
X0165592Y0002765D02*
X0164525Y0002765D01*
X0168835Y0004900D02*
X0168835Y0011305D01*
X0169903Y0009170D02*
X0172038Y0009170D01*
X0173105Y0008103D01*
X0173105Y0004900D01*
X0176348Y0005968D02*
X0177416Y0004900D01*
X0176348Y0005968D02*
X0176348Y0010238D01*
X0175281Y0009170D02*
X0177416Y0009170D01*
X0179578Y0008103D02*
X0180645Y0009170D01*
X0183848Y0009170D01*
X0186023Y0008103D02*
X0190293Y0008103D01*
X0192469Y0009170D02*
X0194604Y0004900D01*
X0196739Y0009170D01*
X0198914Y0010238D02*
X0199982Y0011305D01*
X0202117Y0011305D01*
X0203184Y0010238D01*
X0203184Y0009170D01*
X0198914Y0004900D01*
X0203184Y0004900D01*
X0183848Y0005968D02*
X0182780Y0007035D01*
X0180645Y0007035D01*
X0179578Y0008103D01*
X0182780Y0004900D02*
X0183848Y0005968D01*
X0182780Y0004900D02*
X0179578Y0004900D01*
X0169903Y0009170D02*
X0168835Y0008103D01*
X0159160Y0011305D02*
X0159160Y0012373D01*
X0154863Y0011305D02*
X0154863Y0004900D01*
X0153796Y0004900D02*
X0155931Y0004900D01*
X0154863Y0011305D02*
X0153796Y0011305D01*
X0128014Y0009170D02*
X0128014Y0004900D01*
X0091560Y0051600D02*
X0091564Y0051931D01*
X0091576Y0052262D01*
X0091597Y0052593D01*
X0091625Y0052923D01*
X0091662Y0053253D01*
X0091706Y0053581D01*
X0091759Y0053908D01*
X0091819Y0054234D01*
X0091888Y0054558D01*
X0091965Y0054880D01*
X0092049Y0055201D01*
X0092141Y0055519D01*
X0092241Y0055835D01*
X0092349Y0056148D01*
X0092465Y0056459D01*
X0092588Y0056766D01*
X0092718Y0057071D01*
X0092856Y0057372D01*
X0093001Y0057670D01*
X0093154Y0057964D01*
X0093314Y0058254D01*
X0093481Y0058540D01*
X0093654Y0058822D01*
X0093835Y0059100D01*
X0094023Y0059373D01*
X0094217Y0059642D01*
X0094417Y0059906D01*
X0094624Y0060164D01*
X0094838Y0060418D01*
X0095057Y0060666D01*
X0095283Y0060909D01*
X0095514Y0061146D01*
X0095751Y0061377D01*
X0095994Y0061603D01*
X0096242Y0061822D01*
X0096496Y0062036D01*
X0096754Y0062243D01*
X0097018Y0062443D01*
X0097287Y0062637D01*
X0097560Y0062825D01*
X0097838Y0063006D01*
X0098120Y0063179D01*
X0098406Y0063346D01*
X0098696Y0063506D01*
X0098990Y0063659D01*
X0099288Y0063804D01*
X0099589Y0063942D01*
X0099894Y0064072D01*
X0100201Y0064195D01*
X0100512Y0064311D01*
X0100825Y0064419D01*
X0101141Y0064519D01*
X0101459Y0064611D01*
X0101780Y0064695D01*
X0102102Y0064772D01*
X0102426Y0064841D01*
X0102752Y0064901D01*
X0103079Y0064954D01*
X0103407Y0064998D01*
X0103737Y0065035D01*
X0104067Y0065063D01*
X0104398Y0065084D01*
X0104729Y0065096D01*
X0105060Y0065100D01*
X0105391Y0065096D01*
X0105722Y0065084D01*
X0106053Y0065063D01*
X0106383Y0065035D01*
X0106713Y0064998D01*
X0107041Y0064954D01*
X0107368Y0064901D01*
X0107694Y0064841D01*
X0108018Y0064772D01*
X0108340Y0064695D01*
X0108661Y0064611D01*
X0108979Y0064519D01*
X0109295Y0064419D01*
X0109608Y0064311D01*
X0109919Y0064195D01*
X0110226Y0064072D01*
X0110531Y0063942D01*
X0110832Y0063804D01*
X0111130Y0063659D01*
X0111424Y0063506D01*
X0111714Y0063346D01*
X0112000Y0063179D01*
X0112282Y0063006D01*
X0112560Y0062825D01*
X0112833Y0062637D01*
X0113102Y0062443D01*
X0113366Y0062243D01*
X0113624Y0062036D01*
X0113878Y0061822D01*
X0114126Y0061603D01*
X0114369Y0061377D01*
X0114606Y0061146D01*
X0114837Y0060909D01*
X0115063Y0060666D01*
X0115282Y0060418D01*
X0115496Y0060164D01*
X0115703Y0059906D01*
X0115903Y0059642D01*
X0116097Y0059373D01*
X0116285Y0059100D01*
X0116466Y0058822D01*
X0116639Y0058540D01*
X0116806Y0058254D01*
X0116966Y0057964D01*
X0117119Y0057670D01*
X0117264Y0057372D01*
X0117402Y0057071D01*
X0117532Y0056766D01*
X0117655Y0056459D01*
X0117771Y0056148D01*
X0117879Y0055835D01*
X0117979Y0055519D01*
X0118071Y0055201D01*
X0118155Y0054880D01*
X0118232Y0054558D01*
X0118301Y0054234D01*
X0118361Y0053908D01*
X0118414Y0053581D01*
X0118458Y0053253D01*
X0118495Y0052923D01*
X0118523Y0052593D01*
X0118544Y0052262D01*
X0118556Y0051931D01*
X0118560Y0051600D01*
X0118556Y0051269D01*
X0118544Y0050938D01*
X0118523Y0050607D01*
X0118495Y0050277D01*
X0118458Y0049947D01*
X0118414Y0049619D01*
X0118361Y0049292D01*
X0118301Y0048966D01*
X0118232Y0048642D01*
X0118155Y0048320D01*
X0118071Y0047999D01*
X0117979Y0047681D01*
X0117879Y0047365D01*
X0117771Y0047052D01*
X0117655Y0046741D01*
X0117532Y0046434D01*
X0117402Y0046129D01*
X0117264Y0045828D01*
X0117119Y0045530D01*
X0116966Y0045236D01*
X0116806Y0044946D01*
X0116639Y0044660D01*
X0116466Y0044378D01*
X0116285Y0044100D01*
X0116097Y0043827D01*
X0115903Y0043558D01*
X0115703Y0043294D01*
X0115496Y0043036D01*
X0115282Y0042782D01*
X0115063Y0042534D01*
X0114837Y0042291D01*
X0114606Y0042054D01*
X0114369Y0041823D01*
X0114126Y0041597D01*
X0113878Y0041378D01*
X0113624Y0041164D01*
X0113366Y0040957D01*
X0113102Y0040757D01*
X0112833Y0040563D01*
X0112560Y0040375D01*
X0112282Y0040194D01*
X0112000Y0040021D01*
X0111714Y0039854D01*
X0111424Y0039694D01*
X0111130Y0039541D01*
X0110832Y0039396D01*
X0110531Y0039258D01*
X0110226Y0039128D01*
X0109919Y0039005D01*
X0109608Y0038889D01*
X0109295Y0038781D01*
X0108979Y0038681D01*
X0108661Y0038589D01*
X0108340Y0038505D01*
X0108018Y0038428D01*
X0107694Y0038359D01*
X0107368Y0038299D01*
X0107041Y0038246D01*
X0106713Y0038202D01*
X0106383Y0038165D01*
X0106053Y0038137D01*
X0105722Y0038116D01*
X0105391Y0038104D01*
X0105060Y0038100D01*
X0104729Y0038104D01*
X0104398Y0038116D01*
X0104067Y0038137D01*
X0103737Y0038165D01*
X0103407Y0038202D01*
X0103079Y0038246D01*
X0102752Y0038299D01*
X0102426Y0038359D01*
X0102102Y0038428D01*
X0101780Y0038505D01*
X0101459Y0038589D01*
X0101141Y0038681D01*
X0100825Y0038781D01*
X0100512Y0038889D01*
X0100201Y0039005D01*
X0099894Y0039128D01*
X0099589Y0039258D01*
X0099288Y0039396D01*
X0098990Y0039541D01*
X0098696Y0039694D01*
X0098406Y0039854D01*
X0098120Y0040021D01*
X0097838Y0040194D01*
X0097560Y0040375D01*
X0097287Y0040563D01*
X0097018Y0040757D01*
X0096754Y0040957D01*
X0096496Y0041164D01*
X0096242Y0041378D01*
X0095994Y0041597D01*
X0095751Y0041823D01*
X0095514Y0042054D01*
X0095283Y0042291D01*
X0095057Y0042534D01*
X0094838Y0042782D01*
X0094624Y0043036D01*
X0094417Y0043294D01*
X0094217Y0043558D01*
X0094023Y0043827D01*
X0093835Y0044100D01*
X0093654Y0044378D01*
X0093481Y0044660D01*
X0093314Y0044946D01*
X0093154Y0045236D01*
X0093001Y0045530D01*
X0092856Y0045828D01*
X0092718Y0046129D01*
X0092588Y0046434D01*
X0092465Y0046741D01*
X0092349Y0047052D01*
X0092241Y0047365D01*
X0092141Y0047681D01*
X0092049Y0047999D01*
X0091965Y0048320D01*
X0091888Y0048642D01*
X0091819Y0048966D01*
X0091759Y0049292D01*
X0091706Y0049619D01*
X0091662Y0049947D01*
X0091625Y0050277D01*
X0091597Y0050607D01*
X0091576Y0050938D01*
X0091564Y0051269D01*
X0091560Y0051600D01*
X0127380Y0087400D02*
X0127380Y0091670D01*
X0129516Y0093805D01*
X0131651Y0091670D01*
X0131651Y0087400D01*
X0133826Y0087400D02*
X0133826Y0093805D01*
X0137029Y0093805D01*
X0138096Y0092738D01*
X0138096Y0090603D01*
X0137029Y0089535D01*
X0133826Y0089535D01*
X0135961Y0089535D02*
X0138096Y0087400D01*
X0140271Y0087400D02*
X0143474Y0087400D01*
X0144542Y0088468D01*
X0144542Y0092738D01*
X0143474Y0093805D01*
X0140271Y0093805D01*
X0140271Y0087400D01*
X0146717Y0088468D02*
X0147784Y0087400D01*
X0149920Y0087400D01*
X0150987Y0088468D01*
X0150987Y0093805D01*
X0153162Y0093805D02*
X0155297Y0093805D01*
X0154230Y0093805D02*
X0154230Y0087400D01*
X0155297Y0087400D02*
X0153162Y0087400D01*
X0157459Y0087400D02*
X0157459Y0093805D01*
X0161730Y0087400D01*
X0161730Y0093805D01*
X0163905Y0092738D02*
X0163905Y0088468D01*
X0164972Y0087400D01*
X0167108Y0087400D01*
X0168175Y0088468D01*
X0168175Y0092738D01*
X0167108Y0093805D01*
X0164972Y0093805D01*
X0163905Y0092738D01*
X0176796Y0093805D02*
X0181066Y0093805D01*
X0178931Y0093805D02*
X0178931Y0087400D01*
X0183241Y0087400D02*
X0183241Y0093805D01*
X0187512Y0093805D02*
X0187512Y0087400D01*
X0189687Y0087400D02*
X0189687Y0091670D01*
X0191822Y0093805D01*
X0193957Y0091670D01*
X0193957Y0087400D01*
X0198267Y0087400D02*
X0198267Y0093805D01*
X0196132Y0093805D02*
X0200403Y0093805D01*
X0209023Y0093805D02*
X0209023Y0087400D01*
X0211158Y0089535D01*
X0213294Y0087400D01*
X0213294Y0093805D01*
X0215469Y0091670D02*
X0217604Y0093805D01*
X0219739Y0091670D01*
X0219739Y0087400D01*
X0215469Y0087400D02*
X0215469Y0091670D01*
X0215469Y0090603D02*
X0219739Y0090603D01*
X0221914Y0092738D02*
X0224049Y0090603D01*
X0224049Y0087400D01*
X0224049Y0090603D02*
X0226185Y0092738D01*
X0226185Y0093805D01*
X0221914Y0093805D02*
X0221914Y0092738D01*
X0193957Y0090603D02*
X0189687Y0090603D01*
X0187512Y0090603D02*
X0183241Y0090603D01*
X0146717Y0088468D02*
X0146717Y0093805D01*
X0131651Y0090603D02*
X0127380Y0090603D01*
X0191560Y0051600D02*
X0191564Y0051931D01*
X0191576Y0052262D01*
X0191597Y0052593D01*
X0191625Y0052923D01*
X0191662Y0053253D01*
X0191706Y0053581D01*
X0191759Y0053908D01*
X0191819Y0054234D01*
X0191888Y0054558D01*
X0191965Y0054880D01*
X0192049Y0055201D01*
X0192141Y0055519D01*
X0192241Y0055835D01*
X0192349Y0056148D01*
X0192465Y0056459D01*
X0192588Y0056766D01*
X0192718Y0057071D01*
X0192856Y0057372D01*
X0193001Y0057670D01*
X0193154Y0057964D01*
X0193314Y0058254D01*
X0193481Y0058540D01*
X0193654Y0058822D01*
X0193835Y0059100D01*
X0194023Y0059373D01*
X0194217Y0059642D01*
X0194417Y0059906D01*
X0194624Y0060164D01*
X0194838Y0060418D01*
X0195057Y0060666D01*
X0195283Y0060909D01*
X0195514Y0061146D01*
X0195751Y0061377D01*
X0195994Y0061603D01*
X0196242Y0061822D01*
X0196496Y0062036D01*
X0196754Y0062243D01*
X0197018Y0062443D01*
X0197287Y0062637D01*
X0197560Y0062825D01*
X0197838Y0063006D01*
X0198120Y0063179D01*
X0198406Y0063346D01*
X0198696Y0063506D01*
X0198990Y0063659D01*
X0199288Y0063804D01*
X0199589Y0063942D01*
X0199894Y0064072D01*
X0200201Y0064195D01*
X0200512Y0064311D01*
X0200825Y0064419D01*
X0201141Y0064519D01*
X0201459Y0064611D01*
X0201780Y0064695D01*
X0202102Y0064772D01*
X0202426Y0064841D01*
X0202752Y0064901D01*
X0203079Y0064954D01*
X0203407Y0064998D01*
X0203737Y0065035D01*
X0204067Y0065063D01*
X0204398Y0065084D01*
X0204729Y0065096D01*
X0205060Y0065100D01*
X0205391Y0065096D01*
X0205722Y0065084D01*
X0206053Y0065063D01*
X0206383Y0065035D01*
X0206713Y0064998D01*
X0207041Y0064954D01*
X0207368Y0064901D01*
X0207694Y0064841D01*
X0208018Y0064772D01*
X0208340Y0064695D01*
X0208661Y0064611D01*
X0208979Y0064519D01*
X0209295Y0064419D01*
X0209608Y0064311D01*
X0209919Y0064195D01*
X0210226Y0064072D01*
X0210531Y0063942D01*
X0210832Y0063804D01*
X0211130Y0063659D01*
X0211424Y0063506D01*
X0211714Y0063346D01*
X0212000Y0063179D01*
X0212282Y0063006D01*
X0212560Y0062825D01*
X0212833Y0062637D01*
X0213102Y0062443D01*
X0213366Y0062243D01*
X0213624Y0062036D01*
X0213878Y0061822D01*
X0214126Y0061603D01*
X0214369Y0061377D01*
X0214606Y0061146D01*
X0214837Y0060909D01*
X0215063Y0060666D01*
X0215282Y0060418D01*
X0215496Y0060164D01*
X0215703Y0059906D01*
X0215903Y0059642D01*
X0216097Y0059373D01*
X0216285Y0059100D01*
X0216466Y0058822D01*
X0216639Y0058540D01*
X0216806Y0058254D01*
X0216966Y0057964D01*
X0217119Y0057670D01*
X0217264Y0057372D01*
X0217402Y0057071D01*
X0217532Y0056766D01*
X0217655Y0056459D01*
X0217771Y0056148D01*
X0217879Y0055835D01*
X0217979Y0055519D01*
X0218071Y0055201D01*
X0218155Y0054880D01*
X0218232Y0054558D01*
X0218301Y0054234D01*
X0218361Y0053908D01*
X0218414Y0053581D01*
X0218458Y0053253D01*
X0218495Y0052923D01*
X0218523Y0052593D01*
X0218544Y0052262D01*
X0218556Y0051931D01*
X0218560Y0051600D01*
X0218556Y0051269D01*
X0218544Y0050938D01*
X0218523Y0050607D01*
X0218495Y0050277D01*
X0218458Y0049947D01*
X0218414Y0049619D01*
X0218361Y0049292D01*
X0218301Y0048966D01*
X0218232Y0048642D01*
X0218155Y0048320D01*
X0218071Y0047999D01*
X0217979Y0047681D01*
X0217879Y0047365D01*
X0217771Y0047052D01*
X0217655Y0046741D01*
X0217532Y0046434D01*
X0217402Y0046129D01*
X0217264Y0045828D01*
X0217119Y0045530D01*
X0216966Y0045236D01*
X0216806Y0044946D01*
X0216639Y0044660D01*
X0216466Y0044378D01*
X0216285Y0044100D01*
X0216097Y0043827D01*
X0215903Y0043558D01*
X0215703Y0043294D01*
X0215496Y0043036D01*
X0215282Y0042782D01*
X0215063Y0042534D01*
X0214837Y0042291D01*
X0214606Y0042054D01*
X0214369Y0041823D01*
X0214126Y0041597D01*
X0213878Y0041378D01*
X0213624Y0041164D01*
X0213366Y0040957D01*
X0213102Y0040757D01*
X0212833Y0040563D01*
X0212560Y0040375D01*
X0212282Y0040194D01*
X0212000Y0040021D01*
X0211714Y0039854D01*
X0211424Y0039694D01*
X0211130Y0039541D01*
X0210832Y0039396D01*
X0210531Y0039258D01*
X0210226Y0039128D01*
X0209919Y0039005D01*
X0209608Y0038889D01*
X0209295Y0038781D01*
X0208979Y0038681D01*
X0208661Y0038589D01*
X0208340Y0038505D01*
X0208018Y0038428D01*
X0207694Y0038359D01*
X0207368Y0038299D01*
X0207041Y0038246D01*
X0206713Y0038202D01*
X0206383Y0038165D01*
X0206053Y0038137D01*
X0205722Y0038116D01*
X0205391Y0038104D01*
X0205060Y0038100D01*
X0204729Y0038104D01*
X0204398Y0038116D01*
X0204067Y0038137D01*
X0203737Y0038165D01*
X0203407Y0038202D01*
X0203079Y0038246D01*
X0202752Y0038299D01*
X0202426Y0038359D01*
X0202102Y0038428D01*
X0201780Y0038505D01*
X0201459Y0038589D01*
X0201141Y0038681D01*
X0200825Y0038781D01*
X0200512Y0038889D01*
X0200201Y0039005D01*
X0199894Y0039128D01*
X0199589Y0039258D01*
X0199288Y0039396D01*
X0198990Y0039541D01*
X0198696Y0039694D01*
X0198406Y0039854D01*
X0198120Y0040021D01*
X0197838Y0040194D01*
X0197560Y0040375D01*
X0197287Y0040563D01*
X0197018Y0040757D01*
X0196754Y0040957D01*
X0196496Y0041164D01*
X0196242Y0041378D01*
X0195994Y0041597D01*
X0195751Y0041823D01*
X0195514Y0042054D01*
X0195283Y0042291D01*
X0195057Y0042534D01*
X0194838Y0042782D01*
X0194624Y0043036D01*
X0194417Y0043294D01*
X0194217Y0043558D01*
X0194023Y0043827D01*
X0193835Y0044100D01*
X0193654Y0044378D01*
X0193481Y0044660D01*
X0193314Y0044946D01*
X0193154Y0045236D01*
X0193001Y0045530D01*
X0192856Y0045828D01*
X0192718Y0046129D01*
X0192588Y0046434D01*
X0192465Y0046741D01*
X0192349Y0047052D01*
X0192241Y0047365D01*
X0192141Y0047681D01*
X0192049Y0047999D01*
X0191965Y0048320D01*
X0191888Y0048642D01*
X0191819Y0048966D01*
X0191759Y0049292D01*
X0191706Y0049619D01*
X0191662Y0049947D01*
X0191625Y0050277D01*
X0191597Y0050607D01*
X0191576Y0050938D01*
X0191564Y0051269D01*
X0191560Y0051600D01*
D11*
X0230112Y0044869D02*
X0231646Y0046404D01*
X0231646Y0041800D01*
X0230112Y0041800D02*
X0233181Y0041800D01*
X0234716Y0042567D02*
X0237785Y0045637D01*
X0237785Y0042567D01*
X0237017Y0041800D01*
X0235483Y0041800D01*
X0234716Y0042567D01*
X0234716Y0045637D01*
X0235483Y0046404D01*
X0237017Y0046404D01*
X0237785Y0045637D01*
X0243923Y0046404D02*
X0243923Y0041800D01*
X0243923Y0043335D02*
X0246225Y0044869D01*
X0243923Y0043335D02*
X0246225Y0041800D01*
X0265136Y0043904D02*
X0265136Y0039300D01*
X0268206Y0039300D01*
X0269740Y0039300D02*
X0269740Y0042369D01*
X0271275Y0043904D01*
X0272810Y0042369D01*
X0272810Y0039300D01*
X0274344Y0039300D02*
X0276646Y0039300D01*
X0277414Y0040067D01*
X0277414Y0043137D01*
X0276646Y0043904D01*
X0274344Y0043904D01*
X0274344Y0039300D01*
X0278948Y0039300D02*
X0281250Y0039300D01*
X0282017Y0040067D01*
X0282017Y0043137D01*
X0281250Y0043904D01*
X0278948Y0043904D01*
X0278948Y0039300D01*
X0283552Y0039300D02*
X0286621Y0039300D01*
X0288156Y0039300D02*
X0288156Y0043904D01*
X0290458Y0043904D01*
X0291225Y0043137D01*
X0291225Y0041602D01*
X0290458Y0040835D01*
X0288156Y0040835D01*
X0289691Y0040835D02*
X0291225Y0039300D01*
X0285087Y0041602D02*
X0283552Y0041602D01*
X0283552Y0043904D02*
X0283552Y0039300D01*
X0272810Y0041602D02*
X0269740Y0041602D01*
X0283552Y0043904D02*
X0286621Y0043904D01*
X0285854Y0049300D02*
X0283552Y0049300D01*
X0283552Y0053904D01*
X0285854Y0053904D01*
X0286621Y0053137D01*
X0286621Y0050067D01*
X0285854Y0049300D01*
X0288156Y0050067D02*
X0288923Y0049300D01*
X0290458Y0049300D01*
X0291225Y0050067D01*
X0288156Y0050067D02*
X0288156Y0053137D01*
X0288923Y0053904D01*
X0290458Y0053904D01*
X0291225Y0053137D01*
X0282017Y0053904D02*
X0282017Y0050835D01*
X0280483Y0049300D01*
X0278948Y0050835D01*
X0278948Y0053904D01*
X0272810Y0053904D02*
X0269740Y0053904D01*
X0269740Y0051602D01*
X0271275Y0052369D01*
X0272042Y0052369D01*
X0272810Y0051602D01*
X0272810Y0050067D01*
X0272042Y0049300D01*
X0270508Y0049300D01*
X0269740Y0050067D01*
X0280483Y0059300D02*
X0282785Y0059300D01*
X0283552Y0060067D01*
X0283552Y0063137D01*
X0282785Y0063904D01*
X0280483Y0063904D01*
X0280483Y0059300D01*
X0285087Y0059300D02*
X0286621Y0059300D01*
X0285854Y0059300D02*
X0285854Y0063904D01*
X0285087Y0063904D02*
X0286621Y0063904D01*
X0288156Y0063904D02*
X0291225Y0059300D01*
X0291225Y0063904D01*
X0288156Y0063904D02*
X0288156Y0059300D01*
X0237191Y0075102D02*
X0235656Y0075102D01*
X0234121Y0075869D02*
X0234121Y0072800D01*
X0231819Y0072800D01*
X0231052Y0073567D01*
X0231052Y0075869D01*
X0235656Y0077404D02*
X0238725Y0077404D01*
X0235656Y0077404D02*
X0235656Y0072800D01*
X0224914Y0073567D02*
X0224146Y0072800D01*
X0222612Y0072800D01*
X0221844Y0073567D01*
X0224914Y0076637D01*
X0224914Y0073567D01*
X0221844Y0073567D02*
X0221844Y0076637D01*
X0222612Y0077404D01*
X0224146Y0077404D01*
X0224914Y0076637D01*
X0218775Y0077404D02*
X0217240Y0075869D01*
X0218775Y0077404D02*
X0218775Y0072800D01*
X0217240Y0072800D02*
X0220310Y0072800D01*
X0288948Y0080067D02*
X0289716Y0079300D01*
X0291250Y0079300D01*
X0292017Y0080067D01*
X0292017Y0081602D01*
X0290483Y0081602D01*
X0292017Y0083137D02*
X0291250Y0083904D01*
X0289716Y0083904D01*
X0288948Y0083137D01*
X0288948Y0080067D01*
X0293552Y0079300D02*
X0293552Y0083904D01*
X0296621Y0079300D01*
X0296621Y0083904D01*
X0298156Y0083904D02*
X0300458Y0083904D01*
X0301225Y0083137D01*
X0301225Y0080067D01*
X0300458Y0079300D01*
X0298156Y0079300D01*
X0298156Y0083904D01*
X0292958Y0033904D02*
X0291423Y0033904D01*
X0290656Y0033137D01*
X0290656Y0030067D01*
X0291423Y0029300D01*
X0292958Y0029300D01*
X0293725Y0030067D01*
X0293725Y0031602D01*
X0292191Y0031602D01*
X0293725Y0033137D02*
X0292958Y0033904D01*
X0289121Y0033137D02*
X0288354Y0033904D01*
X0286819Y0033904D01*
X0286052Y0033137D01*
X0286052Y0030067D01*
X0286819Y0029300D01*
X0288354Y0029300D01*
X0289121Y0030067D01*
X0289121Y0033137D01*
X0284517Y0029300D02*
X0281448Y0029300D01*
X0281448Y0033904D01*
X0279914Y0032369D02*
X0279914Y0029300D01*
X0276844Y0029300D02*
X0276844Y0032369D01*
X0278379Y0033904D01*
X0279914Y0032369D01*
X0279914Y0031602D02*
X0276844Y0031602D01*
X0275310Y0029300D02*
X0275310Y0033904D01*
X0272240Y0033904D02*
X0275310Y0029300D01*
X0272240Y0029300D02*
X0272240Y0033904D01*
X0270706Y0032369D02*
X0270706Y0029300D01*
X0267636Y0029300D02*
X0267636Y0032369D01*
X0269171Y0033904D01*
X0270706Y0032369D01*
X0270706Y0031602D02*
X0267636Y0031602D01*
X0223725Y0029102D02*
X0223725Y0028335D01*
X0220656Y0028335D01*
X0220656Y0029102D02*
X0221423Y0029869D01*
X0222958Y0029869D01*
X0223725Y0029102D01*
X0220656Y0029102D02*
X0220656Y0027567D01*
X0221423Y0026800D01*
X0222958Y0026800D01*
X0219121Y0026800D02*
X0216819Y0026800D01*
X0216052Y0027567D01*
X0216052Y0029102D01*
X0216819Y0029869D01*
X0219121Y0029869D01*
X0214517Y0029102D02*
X0214517Y0026800D01*
X0211448Y0026800D02*
X0211448Y0029869D01*
X0213750Y0029869D01*
X0214517Y0029102D01*
X0209913Y0029102D02*
X0209913Y0026800D01*
X0207611Y0026800D01*
X0206844Y0027567D01*
X0207611Y0028335D01*
X0209913Y0028335D01*
X0209913Y0029102D02*
X0209146Y0029869D01*
X0207611Y0029869D01*
X0205310Y0029869D02*
X0204542Y0029869D01*
X0203008Y0028335D01*
X0203008Y0029869D02*
X0203008Y0026800D01*
X0201473Y0026800D02*
X0199171Y0026800D01*
X0198404Y0027567D01*
X0199171Y0028335D01*
X0201473Y0028335D01*
X0201473Y0029102D02*
X0201473Y0026800D01*
X0196102Y0026800D02*
X0194567Y0026800D01*
X0193800Y0027567D01*
X0193800Y0029102D01*
X0194567Y0029869D01*
X0196102Y0029869D01*
X0196869Y0029102D01*
X0196869Y0028335D01*
X0193800Y0028335D01*
X0189196Y0029869D02*
X0186894Y0029869D01*
X0186127Y0029102D01*
X0186127Y0027567D01*
X0186894Y0026800D01*
X0189196Y0026800D01*
X0190730Y0026800D02*
X0192265Y0026800D01*
X0191498Y0026800D02*
X0191498Y0031404D01*
X0190730Y0031404D01*
X0199171Y0029869D02*
X0200706Y0029869D01*
X0201473Y0029102D01*
X0179988Y0029102D02*
X0176919Y0029102D01*
X0179221Y0031404D01*
X0179221Y0026800D01*
X0174617Y0026800D02*
X0174617Y0031404D01*
X0173082Y0031404D02*
X0173082Y0026800D01*
X0172315Y0028335D02*
X0175384Y0028335D01*
X0175384Y0029869D02*
X0174617Y0029869D01*
X0172315Y0029869D01*
X0121225Y0026602D02*
X0121225Y0025835D01*
X0118156Y0025835D01*
X0118156Y0026602D02*
X0118156Y0025067D01*
X0118923Y0024300D01*
X0120458Y0024300D01*
X0116621Y0024300D02*
X0114319Y0024300D01*
X0113552Y0025067D01*
X0113552Y0026602D01*
X0114319Y0027369D01*
X0116621Y0027369D01*
X0118156Y0026602D02*
X0118923Y0027369D01*
X0120458Y0027369D01*
X0121225Y0026602D01*
X0112017Y0026602D02*
X0112017Y0024300D01*
X0108948Y0024300D02*
X0108948Y0027369D01*
X0111250Y0027369D01*
X0112017Y0026602D01*
X0107413Y0026602D02*
X0107413Y0024300D01*
X0105111Y0024300D01*
X0104344Y0025067D01*
X0105111Y0025835D01*
X0107413Y0025835D01*
X0107413Y0026602D02*
X0106646Y0027369D01*
X0105111Y0027369D01*
X0102810Y0027369D02*
X0102042Y0027369D01*
X0100508Y0025835D01*
X0100508Y0027369D02*
X0100508Y0024300D01*
X0098973Y0024300D02*
X0096671Y0024300D01*
X0095904Y0025067D01*
X0096671Y0025835D01*
X0098973Y0025835D01*
X0098973Y0026602D02*
X0098973Y0024300D01*
X0094369Y0025835D02*
X0091300Y0025835D01*
X0091300Y0026602D02*
X0091300Y0025067D01*
X0092067Y0024300D01*
X0093602Y0024300D01*
X0094369Y0025835D02*
X0094369Y0026602D01*
X0093602Y0027369D01*
X0092067Y0027369D01*
X0091300Y0026602D01*
X0089765Y0024300D02*
X0088230Y0024300D01*
X0088998Y0024300D02*
X0088998Y0028904D01*
X0088230Y0028904D01*
X0086696Y0027369D02*
X0084394Y0027369D01*
X0083627Y0026602D01*
X0083627Y0025067D01*
X0084394Y0024300D01*
X0086696Y0024300D01*
X0077488Y0026602D02*
X0074419Y0026602D01*
X0076721Y0028904D01*
X0076721Y0024300D01*
X0072884Y0025835D02*
X0069815Y0025835D01*
X0070582Y0024300D02*
X0070582Y0028904D01*
X0072117Y0028904D02*
X0072117Y0024300D01*
X0072117Y0027369D02*
X0069815Y0027369D01*
X0072117Y0027369D02*
X0072884Y0027369D01*
X0096671Y0027369D02*
X0098206Y0027369D01*
X0098973Y0026602D01*
X0043725Y0030067D02*
X0043725Y0031602D01*
X0042191Y0031602D01*
X0043725Y0033137D02*
X0042958Y0033904D01*
X0041423Y0033904D01*
X0040656Y0033137D01*
X0040656Y0030067D01*
X0041423Y0029300D01*
X0042958Y0029300D01*
X0043725Y0030067D01*
X0039121Y0030067D02*
X0039121Y0033137D01*
X0038354Y0033904D01*
X0036819Y0033904D01*
X0036052Y0033137D01*
X0036052Y0030067D01*
X0036819Y0029300D01*
X0038354Y0029300D01*
X0039121Y0030067D01*
X0034517Y0029300D02*
X0031448Y0029300D01*
X0031448Y0033904D01*
X0029914Y0032369D02*
X0029914Y0029300D01*
X0026844Y0029300D02*
X0026844Y0032369D01*
X0028379Y0033904D01*
X0029914Y0032369D01*
X0029914Y0031602D02*
X0026844Y0031602D01*
X0025310Y0029300D02*
X0025310Y0033904D01*
X0022240Y0033904D02*
X0025310Y0029300D01*
X0022240Y0029300D02*
X0022240Y0033904D01*
X0020706Y0032369D02*
X0020706Y0029300D01*
X0017636Y0029300D02*
X0017636Y0032369D01*
X0019171Y0033904D01*
X0020706Y0032369D01*
X0020706Y0031602D02*
X0017636Y0031602D01*
X0017636Y0039300D02*
X0020706Y0039300D01*
X0022240Y0039300D02*
X0022240Y0042369D01*
X0023775Y0043904D01*
X0025310Y0042369D01*
X0025310Y0039300D01*
X0026844Y0039300D02*
X0029146Y0039300D01*
X0029914Y0040067D01*
X0029914Y0043137D01*
X0029146Y0043904D01*
X0026844Y0043904D01*
X0026844Y0039300D01*
X0025310Y0041602D02*
X0022240Y0041602D01*
X0017636Y0043904D02*
X0017636Y0039300D01*
X0031448Y0039300D02*
X0031448Y0043904D01*
X0033750Y0043904D01*
X0034517Y0043137D01*
X0034517Y0040067D01*
X0033750Y0039300D01*
X0031448Y0039300D01*
X0036052Y0039300D02*
X0039121Y0039300D01*
X0040656Y0039300D02*
X0040656Y0043904D01*
X0042958Y0043904D01*
X0043725Y0043137D01*
X0043725Y0041602D01*
X0042958Y0040835D01*
X0040656Y0040835D01*
X0042191Y0040835D02*
X0043725Y0039300D01*
X0037587Y0041602D02*
X0036052Y0041602D01*
X0036052Y0043904D02*
X0036052Y0039300D01*
X0036052Y0043904D02*
X0039121Y0043904D01*
X0037958Y0049300D02*
X0036423Y0049300D01*
X0035656Y0050067D01*
X0035656Y0053137D01*
X0036423Y0053904D01*
X0037958Y0053904D01*
X0038725Y0053137D01*
X0034121Y0053137D02*
X0033354Y0053904D01*
X0031052Y0053904D01*
X0031052Y0049300D01*
X0033354Y0049300D01*
X0034121Y0050067D01*
X0034121Y0053137D01*
X0029517Y0053904D02*
X0029517Y0050835D01*
X0027983Y0049300D01*
X0026448Y0050835D01*
X0026448Y0053904D01*
X0020310Y0053904D02*
X0017240Y0053904D01*
X0017240Y0051602D01*
X0018775Y0052369D01*
X0019542Y0052369D01*
X0020310Y0051602D01*
X0020310Y0050067D01*
X0019542Y0049300D01*
X0018008Y0049300D01*
X0017240Y0050067D01*
X0037958Y0049300D02*
X0038725Y0050067D01*
X0034691Y0059300D02*
X0034691Y0063904D01*
X0036225Y0063904D02*
X0033156Y0063904D01*
X0031621Y0063904D02*
X0031621Y0060067D01*
X0030854Y0059300D01*
X0029319Y0059300D01*
X0028552Y0060067D01*
X0028552Y0063904D01*
X0027017Y0063137D02*
X0026250Y0063904D01*
X0024715Y0063904D01*
X0023948Y0063137D01*
X0023948Y0060067D01*
X0024715Y0059300D01*
X0026250Y0059300D01*
X0027017Y0060067D01*
X0027017Y0063137D01*
X0022414Y0063137D02*
X0021646Y0063904D01*
X0019344Y0063904D01*
X0019344Y0059300D01*
X0021646Y0059300D01*
X0022414Y0060067D01*
X0022414Y0063137D01*
X0021052Y0069300D02*
X0021052Y0073904D01*
X0024121Y0069300D01*
X0024121Y0073904D01*
X0025656Y0073904D02*
X0027958Y0073904D01*
X0028725Y0073137D01*
X0028725Y0070067D01*
X0027958Y0069300D01*
X0025656Y0069300D01*
X0025656Y0073904D01*
X0019517Y0073137D02*
X0018750Y0073904D01*
X0017216Y0073904D01*
X0016448Y0073137D01*
X0016448Y0070067D01*
X0017216Y0069300D01*
X0018750Y0069300D01*
X0019517Y0070067D01*
X0019517Y0071602D01*
X0017983Y0071602D01*
X0077240Y0084300D02*
X0080310Y0084300D01*
X0078775Y0084300D02*
X0078775Y0088904D01*
X0077240Y0087369D01*
X0081844Y0088137D02*
X0081844Y0085067D01*
X0084914Y0088137D01*
X0084914Y0085067D01*
X0084146Y0084300D01*
X0082612Y0084300D01*
X0081844Y0085067D01*
X0081844Y0088137D02*
X0082612Y0088904D01*
X0084146Y0088904D01*
X0084914Y0088137D01*
X0091052Y0087369D02*
X0091052Y0085067D01*
X0091819Y0084300D01*
X0094121Y0084300D01*
X0094121Y0087369D01*
X0095656Y0086602D02*
X0097191Y0086602D01*
X0095656Y0088904D02*
X0098725Y0088904D01*
X0095656Y0088904D02*
X0095656Y0084300D01*
X0108740Y0077869D02*
X0110275Y0079404D01*
X0110275Y0074800D01*
X0108740Y0074800D02*
X0111810Y0074800D01*
X0113344Y0075567D02*
X0114112Y0074800D01*
X0115646Y0074800D01*
X0116414Y0075567D01*
X0116414Y0078637D01*
X0113344Y0075567D01*
X0113344Y0078637D01*
X0114112Y0079404D01*
X0115646Y0079404D01*
X0116414Y0078637D01*
X0122552Y0077869D02*
X0122552Y0075567D01*
X0123319Y0074800D01*
X0125621Y0074800D01*
X0125621Y0077869D01*
X0127156Y0077102D02*
X0128691Y0077102D01*
X0127156Y0079404D02*
X0130225Y0079404D01*
X0127156Y0079404D02*
X0127156Y0074800D01*
X0087225Y0093300D02*
X0085691Y0094835D01*
X0086458Y0094835D02*
X0084156Y0094835D01*
X0086458Y0094835D02*
X0087225Y0095602D01*
X0087225Y0097137D01*
X0086458Y0097904D01*
X0084156Y0097904D01*
X0084156Y0093300D01*
X0082621Y0093300D02*
X0079552Y0093300D01*
X0079552Y0097904D01*
X0082621Y0097904D01*
X0078017Y0097137D02*
X0078017Y0095602D01*
X0077250Y0094835D01*
X0074948Y0094835D01*
X0071879Y0096369D02*
X0073413Y0097904D01*
X0073413Y0093300D01*
X0074948Y0093300D02*
X0074948Y0097904D01*
X0077250Y0097904D01*
X0078017Y0097137D01*
X0079552Y0095602D02*
X0081087Y0095602D01*
X0071879Y0096369D02*
X0070344Y0097904D01*
X0070344Y0093300D01*
X0068810Y0094067D02*
X0068810Y0097904D01*
X0065740Y0097904D02*
X0065740Y0094067D01*
X0066508Y0093300D01*
X0068042Y0093300D01*
X0068810Y0094067D01*
X0063438Y0094067D02*
X0062671Y0093300D01*
X0061904Y0093300D01*
X0061136Y0094067D01*
X0063438Y0094067D02*
X0063438Y0097904D01*
X0062671Y0097904D02*
X0064206Y0097904D01*
X0054998Y0097137D02*
X0054998Y0095602D01*
X0054230Y0094835D01*
X0051928Y0094835D01*
X0050394Y0094067D02*
X0050394Y0097137D01*
X0049627Y0097904D01*
X0048092Y0097904D01*
X0047325Y0097137D01*
X0047325Y0094067D01*
X0048092Y0093300D01*
X0049627Y0093300D01*
X0050394Y0094067D01*
X0051928Y0093300D02*
X0051928Y0097904D01*
X0054230Y0097904D01*
X0054998Y0097137D01*
X0045790Y0097904D02*
X0042721Y0097904D01*
X0044255Y0097904D02*
X0044255Y0093300D01*
D12*
X0245060Y0094100D02*
X0277560Y0094100D01*
X0272560Y0089100D01*
X0277560Y0094100D02*
X0272560Y0099100D01*
D13*
X0188996Y0072102D02*
X0188996Y0070867D01*
X0188378Y0070250D01*
X0186527Y0070250D01*
X0186527Y0073953D01*
X0186527Y0072719D02*
X0188378Y0072719D01*
X0188996Y0072102D01*
X0185312Y0072719D02*
X0185312Y0073336D01*
X0184695Y0073953D01*
X0183461Y0073953D01*
X0182844Y0073336D01*
X0180395Y0073953D02*
X0180395Y0070250D01*
X0179161Y0070250D02*
X0181629Y0070250D01*
X0182844Y0070250D02*
X0185312Y0072719D01*
X0180395Y0073953D02*
X0179161Y0072719D01*
X0177946Y0072719D02*
X0177329Y0072102D01*
X0176095Y0072102D01*
X0175477Y0072719D01*
X0175477Y0073336D01*
X0176095Y0073953D01*
X0177329Y0073953D01*
X0177946Y0073336D01*
X0177946Y0072719D01*
X0177329Y0072102D02*
X0177946Y0071484D01*
X0177946Y0070867D01*
X0177329Y0070250D01*
X0176095Y0070250D01*
X0175477Y0070867D01*
X0175477Y0071484D01*
X0176095Y0072102D01*
X0174263Y0072719D02*
X0174263Y0073336D01*
X0173646Y0073953D01*
X0172411Y0073953D01*
X0171794Y0073336D01*
X0170580Y0073336D02*
X0169963Y0073953D01*
X0168728Y0073953D01*
X0168111Y0073336D01*
X0168111Y0072719D01*
X0168728Y0072102D01*
X0169963Y0072102D01*
X0170580Y0071484D01*
X0170580Y0070867D01*
X0169963Y0070250D01*
X0168728Y0070250D01*
X0168111Y0070867D01*
X0166897Y0070250D02*
X0166897Y0073953D01*
X0164428Y0073953D02*
X0164428Y0070250D01*
X0165662Y0071484D01*
X0166897Y0070250D01*
X0171794Y0070250D02*
X0174263Y0072719D01*
X0174263Y0070250D02*
X0171794Y0070250D01*
X0182844Y0070250D02*
X0185312Y0070250D01*
X0234428Y0058953D02*
X0234428Y0055250D01*
X0235662Y0056484D01*
X0236897Y0055250D01*
X0236897Y0058953D01*
X0238111Y0058336D02*
X0238111Y0057719D01*
X0238728Y0057102D01*
X0239963Y0057102D01*
X0240580Y0056484D01*
X0240580Y0055867D01*
X0239963Y0055250D01*
X0238728Y0055250D01*
X0238111Y0055867D01*
X0241794Y0055250D02*
X0244263Y0057719D01*
X0244263Y0058336D01*
X0243646Y0058953D01*
X0242411Y0058953D01*
X0241794Y0058336D01*
X0240580Y0058336D02*
X0239963Y0058953D01*
X0238728Y0058953D01*
X0238111Y0058336D01*
X0241794Y0055250D02*
X0244263Y0055250D01*
X0245477Y0055867D02*
X0245477Y0056484D01*
X0246095Y0057102D01*
X0247329Y0057102D01*
X0247946Y0056484D01*
X0247946Y0055867D01*
X0247329Y0055250D01*
X0246095Y0055250D01*
X0245477Y0055867D01*
X0246095Y0057102D02*
X0245477Y0057719D01*
X0245477Y0058336D01*
X0246095Y0058953D01*
X0247329Y0058953D01*
X0247946Y0058336D01*
X0247946Y0057719D01*
X0247329Y0057102D01*
X0249161Y0057719D02*
X0250395Y0058953D01*
X0250395Y0055250D01*
X0249161Y0055250D02*
X0251629Y0055250D01*
X0252844Y0055250D02*
X0255312Y0057719D01*
X0255312Y0058336D01*
X0254695Y0058953D01*
X0253461Y0058953D01*
X0252844Y0058336D01*
X0256527Y0057719D02*
X0258378Y0057719D01*
X0258996Y0057102D01*
X0258996Y0055867D01*
X0258378Y0055250D01*
X0256527Y0055250D01*
X0256527Y0058953D01*
X0255312Y0055250D02*
X0252844Y0055250D01*
X0173996Y0028336D02*
X0173378Y0028953D01*
X0171527Y0028953D01*
X0171527Y0025250D01*
X0173378Y0025250D01*
X0173996Y0025867D01*
X0173996Y0028336D01*
X0170312Y0028953D02*
X0170312Y0025250D01*
X0167844Y0028953D01*
X0167844Y0025250D01*
X0166629Y0027102D02*
X0164161Y0027102D01*
X0162946Y0028953D02*
X0160477Y0028953D01*
X0161712Y0028953D02*
X0161712Y0025250D01*
X0159263Y0025867D02*
X0158646Y0025250D01*
X0157411Y0025250D01*
X0156794Y0025867D01*
X0156794Y0028336D01*
X0157411Y0028953D01*
X0158646Y0028953D01*
X0159263Y0028336D01*
X0155580Y0028336D02*
X0155580Y0027719D01*
X0154963Y0027102D01*
X0153728Y0027102D01*
X0153111Y0027719D01*
X0153111Y0028336D01*
X0153728Y0028953D01*
X0154963Y0028953D01*
X0155580Y0028336D01*
X0154963Y0027102D02*
X0155580Y0026484D01*
X0155580Y0025867D01*
X0154963Y0025250D01*
X0153728Y0025250D01*
X0153111Y0025867D01*
X0153111Y0026484D01*
X0153728Y0027102D01*
X0151897Y0028336D02*
X0149428Y0025867D01*
X0149428Y0025250D01*
X0148214Y0025867D02*
X0148214Y0026484D01*
X0147596Y0027102D01*
X0146979Y0027102D01*
X0147596Y0027102D02*
X0148214Y0027719D01*
X0148214Y0028336D01*
X0147596Y0028953D01*
X0146362Y0028953D01*
X0145745Y0028336D01*
X0144530Y0027102D02*
X0142062Y0027102D01*
X0143913Y0028953D01*
X0143913Y0025250D01*
X0145745Y0025867D02*
X0146362Y0025250D01*
X0147596Y0025250D01*
X0148214Y0025867D01*
X0140847Y0025867D02*
X0140847Y0027102D01*
X0139613Y0027102D01*
X0140847Y0028336D02*
X0140230Y0028953D01*
X0138996Y0028953D01*
X0138379Y0028336D01*
X0138379Y0025867D01*
X0138996Y0025250D01*
X0140230Y0025250D01*
X0140847Y0025867D01*
X0137164Y0025250D02*
X0134695Y0025250D01*
X0134695Y0028953D01*
X0137164Y0028953D01*
X0135930Y0027102D02*
X0134695Y0027102D01*
X0149428Y0028953D02*
X0151897Y0028953D01*
X0151897Y0028336D01*
X0151060Y0042750D02*
X0148591Y0042750D01*
X0149826Y0042750D02*
X0149826Y0046453D01*
X0148591Y0045219D01*
X0152274Y0045836D02*
X0152274Y0043367D01*
X0154743Y0045836D01*
X0154743Y0043367D01*
X0154126Y0042750D01*
X0152892Y0042750D01*
X0152274Y0043367D01*
X0159641Y0042750D02*
X0159641Y0046453D01*
X0161492Y0045219D02*
X0159641Y0043984D01*
X0161492Y0042750D01*
X0154743Y0045836D02*
X0154126Y0046453D01*
X0152892Y0046453D01*
X0152274Y0045836D01*
X0072996Y0025336D02*
X0072996Y0022867D01*
X0072378Y0022250D01*
X0070527Y0022250D01*
X0070527Y0025953D01*
X0072378Y0025953D01*
X0072996Y0025336D01*
X0069312Y0025953D02*
X0069312Y0022250D01*
X0066844Y0025953D01*
X0066844Y0022250D01*
X0065629Y0024102D02*
X0063161Y0024102D01*
X0061946Y0025953D02*
X0059477Y0025953D01*
X0060712Y0025953D02*
X0060712Y0022250D01*
X0058263Y0022867D02*
X0057646Y0022250D01*
X0056411Y0022250D01*
X0055794Y0022867D01*
X0055794Y0025336D01*
X0056411Y0025953D01*
X0057646Y0025953D01*
X0058263Y0025336D01*
X0054580Y0025336D02*
X0054580Y0024719D01*
X0053963Y0024102D01*
X0052728Y0024102D01*
X0052111Y0024719D01*
X0052111Y0025336D01*
X0052728Y0025953D01*
X0053963Y0025953D01*
X0054580Y0025336D01*
X0053963Y0024102D02*
X0054580Y0023484D01*
X0054580Y0022867D01*
X0053963Y0022250D01*
X0052728Y0022250D01*
X0052111Y0022867D01*
X0052111Y0023484D01*
X0052728Y0024102D01*
X0050897Y0025336D02*
X0048428Y0022867D01*
X0048428Y0022250D01*
X0047214Y0022867D02*
X0046596Y0022250D01*
X0045362Y0022250D01*
X0044745Y0022867D01*
X0042913Y0022250D02*
X0042913Y0025953D01*
X0041062Y0024102D01*
X0043530Y0024102D01*
X0044745Y0025336D02*
X0045362Y0025953D01*
X0046596Y0025953D01*
X0047214Y0025336D01*
X0047214Y0024719D01*
X0046596Y0024102D01*
X0047214Y0023484D01*
X0047214Y0022867D01*
X0046596Y0024102D02*
X0045979Y0024102D01*
X0048428Y0025953D02*
X0050897Y0025953D01*
X0050897Y0025336D01*
X0039847Y0025336D02*
X0039230Y0025953D01*
X0037996Y0025953D01*
X0037379Y0025336D01*
X0037379Y0022867D01*
X0037996Y0022250D01*
X0039230Y0022250D01*
X0039847Y0022867D01*
X0039847Y0024102D01*
X0038613Y0024102D01*
X0036164Y0025953D02*
X0033695Y0025953D01*
X0033695Y0022250D01*
X0036164Y0022250D01*
X0034930Y0024102D02*
X0033695Y0024102D01*
X0051091Y0042750D02*
X0053560Y0042750D01*
X0052326Y0042750D02*
X0052326Y0046453D01*
X0051091Y0045219D01*
X0054774Y0045836D02*
X0055392Y0046453D01*
X0056626Y0046453D01*
X0057243Y0045836D01*
X0054774Y0043367D01*
X0055392Y0042750D01*
X0056626Y0042750D01*
X0057243Y0043367D01*
X0057243Y0045836D01*
X0054774Y0045836D02*
X0054774Y0043367D01*
X0062141Y0042750D02*
X0062141Y0046453D01*
X0063992Y0045219D02*
X0062141Y0043984D01*
X0063992Y0042750D01*
X0063378Y0055250D02*
X0061527Y0055250D01*
X0061527Y0058953D01*
X0061527Y0057719D02*
X0063378Y0057719D01*
X0063996Y0057102D01*
X0063996Y0055867D01*
X0063378Y0055250D01*
X0060312Y0055250D02*
X0057844Y0055250D01*
X0060312Y0057719D01*
X0060312Y0058336D01*
X0059695Y0058953D01*
X0058461Y0058953D01*
X0057844Y0058336D01*
X0055395Y0058953D02*
X0054161Y0057719D01*
X0052946Y0057719D02*
X0052329Y0057102D01*
X0051095Y0057102D01*
X0050477Y0057719D01*
X0050477Y0058336D01*
X0051095Y0058953D01*
X0052329Y0058953D01*
X0052946Y0058336D01*
X0052946Y0057719D01*
X0052329Y0057102D02*
X0052946Y0056484D01*
X0052946Y0055867D01*
X0052329Y0055250D01*
X0051095Y0055250D01*
X0050477Y0055867D01*
X0050477Y0056484D01*
X0051095Y0057102D01*
X0049263Y0057719D02*
X0046794Y0055250D01*
X0049263Y0055250D01*
X0045580Y0055867D02*
X0045580Y0056484D01*
X0044963Y0057102D01*
X0043728Y0057102D01*
X0043111Y0057719D01*
X0043111Y0058336D01*
X0043728Y0058953D01*
X0044963Y0058953D01*
X0045580Y0058336D01*
X0046794Y0058336D02*
X0047411Y0058953D01*
X0048646Y0058953D01*
X0049263Y0058336D01*
X0049263Y0057719D01*
X0045580Y0055867D02*
X0044963Y0055250D01*
X0043728Y0055250D01*
X0043111Y0055867D01*
X0041897Y0055250D02*
X0041897Y0058953D01*
X0039428Y0058953D02*
X0039428Y0055250D01*
X0040662Y0056484D01*
X0041897Y0055250D01*
X0054161Y0055250D02*
X0056629Y0055250D01*
X0055395Y0055250D02*
X0055395Y0058953D01*
X0074959Y0079550D02*
X0076894Y0079550D01*
X0075926Y0079550D02*
X0075926Y0082452D01*
X0074959Y0081485D01*
X0077905Y0081969D02*
X0078389Y0082452D01*
X0079356Y0082452D01*
X0079840Y0081969D01*
X0079840Y0081485D01*
X0077905Y0079550D01*
X0079840Y0079550D01*
X0080852Y0079550D02*
X0080852Y0080034D01*
X0082787Y0081969D01*
X0082787Y0082452D01*
X0080852Y0082452D01*
X0083798Y0081001D02*
X0084766Y0081969D01*
X0085733Y0082452D01*
X0089691Y0081485D02*
X0090659Y0082452D01*
X0090659Y0079550D01*
X0091626Y0079550D02*
X0089691Y0079550D01*
X0088680Y0081001D02*
X0086745Y0081001D01*
X0085733Y0080517D02*
X0085250Y0081001D01*
X0083798Y0081001D01*
X0083798Y0080034D01*
X0084282Y0079550D01*
X0085250Y0079550D01*
X0085733Y0080034D01*
X0085733Y0080517D01*
X0092638Y0080517D02*
X0092638Y0080034D01*
X0093122Y0079550D01*
X0094089Y0079550D01*
X0094573Y0080034D01*
X0094573Y0080517D01*
X0094089Y0081001D01*
X0093122Y0081001D01*
X0092638Y0081485D01*
X0092638Y0081969D01*
X0093122Y0082452D01*
X0094089Y0082452D01*
X0094573Y0081969D01*
X0094573Y0081485D01*
X0094089Y0081001D01*
X0093122Y0081001D02*
X0092638Y0080517D01*
X0095584Y0080034D02*
X0095584Y0079550D01*
X0095584Y0080034D02*
X0097519Y0081969D01*
X0097519Y0082452D01*
X0095584Y0082452D01*
X0098531Y0081485D02*
X0099498Y0082452D01*
X0099498Y0079550D01*
X0098531Y0079550D02*
X0100466Y0079550D01*
X0101477Y0081001D02*
X0103412Y0081001D01*
X0104424Y0081485D02*
X0105391Y0082452D01*
X0105391Y0079550D01*
X0104424Y0079550D02*
X0106359Y0079550D01*
X0107370Y0081001D02*
X0109305Y0081001D01*
X0110317Y0079550D02*
X0110317Y0082452D01*
X0112252Y0079550D01*
X0112252Y0082452D01*
X0113263Y0082452D02*
X0114715Y0082452D01*
X0115198Y0081969D01*
X0115198Y0080034D01*
X0114715Y0079550D01*
X0113263Y0079550D01*
X0113263Y0082452D01*
X0232695Y0026953D02*
X0232695Y0023250D01*
X0235164Y0023250D01*
X0236379Y0023867D02*
X0236996Y0023250D01*
X0238230Y0023250D01*
X0238847Y0023867D01*
X0238847Y0025102D01*
X0237613Y0025102D01*
X0238847Y0026336D02*
X0238230Y0026953D01*
X0236996Y0026953D01*
X0236379Y0026336D01*
X0236379Y0023867D01*
X0233930Y0025102D02*
X0232695Y0025102D01*
X0232695Y0026953D02*
X0235164Y0026953D01*
X0240062Y0025102D02*
X0242530Y0025102D01*
X0243745Y0026336D02*
X0244362Y0026953D01*
X0245596Y0026953D01*
X0246214Y0026336D01*
X0246214Y0025719D01*
X0245596Y0025102D01*
X0246214Y0024484D01*
X0246214Y0023867D01*
X0245596Y0023250D01*
X0244362Y0023250D01*
X0243745Y0023867D01*
X0241913Y0023250D02*
X0241913Y0026953D01*
X0240062Y0025102D01*
X0244979Y0025102D02*
X0245596Y0025102D01*
X0247428Y0023867D02*
X0249897Y0026336D01*
X0249897Y0026953D01*
X0247428Y0026953D01*
X0251111Y0026336D02*
X0251111Y0025719D01*
X0251728Y0025102D01*
X0252963Y0025102D01*
X0253580Y0024484D01*
X0253580Y0023867D01*
X0252963Y0023250D01*
X0251728Y0023250D01*
X0251111Y0023867D01*
X0251111Y0024484D01*
X0251728Y0025102D01*
X0252963Y0025102D02*
X0253580Y0025719D01*
X0253580Y0026336D01*
X0252963Y0026953D01*
X0251728Y0026953D01*
X0251111Y0026336D01*
X0254794Y0026336D02*
X0254794Y0023867D01*
X0255411Y0023250D01*
X0256646Y0023250D01*
X0257263Y0023867D01*
X0259712Y0023250D02*
X0259712Y0026953D01*
X0260946Y0026953D02*
X0258477Y0026953D01*
X0257263Y0026336D02*
X0256646Y0026953D01*
X0255411Y0026953D01*
X0254794Y0026336D01*
X0262161Y0025102D02*
X0264629Y0025102D01*
X0265844Y0026953D02*
X0268312Y0023250D01*
X0268312Y0026953D01*
X0269527Y0026953D02*
X0271378Y0026953D01*
X0271996Y0026336D01*
X0271996Y0023867D01*
X0271378Y0023250D01*
X0269527Y0023250D01*
X0269527Y0026953D01*
X0265844Y0026953D02*
X0265844Y0023250D01*
X0247428Y0023250D02*
X0247428Y0023867D01*
D14*
X0037560Y0091600D02*
X0035060Y0094100D01*
X0037560Y0096600D01*
X0035060Y0094100D02*
X0042560Y0094100D01*
D15*
X0032360Y0088091D02*
X0031993Y0088458D01*
X0032360Y0088091D02*
X0032360Y0087357D01*
X0031993Y0086990D01*
X0030525Y0086990D01*
X0030158Y0087357D01*
X0030158Y0088091D01*
X0030525Y0088458D01*
X0030525Y0086248D02*
X0030158Y0085881D01*
X0030158Y0084780D01*
X0032360Y0084780D01*
X0032360Y0085881D01*
X0031993Y0086248D01*
X0030525Y0086248D01*
X0030158Y0084038D02*
X0031626Y0084038D01*
X0032360Y0083304D01*
X0031626Y0082570D01*
X0030158Y0082570D01*
X0030158Y0079618D02*
X0030158Y0078151D01*
X0031259Y0078151D01*
X0030892Y0078885D01*
X0030892Y0079252D01*
X0031259Y0079618D01*
X0031993Y0079618D01*
X0032360Y0079252D01*
X0032360Y0078518D01*
X0031993Y0078151D01*
X0009960Y0081700D02*
X0009960Y0083168D01*
X0009960Y0083910D02*
X0008492Y0083910D01*
X0007758Y0084644D01*
X0008492Y0085378D01*
X0009960Y0085378D01*
X0009960Y0086120D02*
X0007758Y0086120D01*
X0007758Y0087221D01*
X0008125Y0087588D01*
X0009593Y0087588D01*
X0009960Y0087221D01*
X0009960Y0086120D01*
X0008859Y0085378D02*
X0008859Y0083910D01*
X0007758Y0081700D02*
X0009960Y0081700D01*
X0009960Y0088330D02*
X0007758Y0088330D01*
X0007758Y0089431D01*
X0008125Y0089798D01*
X0009593Y0089798D01*
X0009960Y0089431D01*
X0009960Y0088330D01*
X0009960Y0090540D02*
X0007758Y0090540D01*
X0007758Y0092007D01*
X0007758Y0092749D02*
X0007758Y0093850D01*
X0008125Y0094217D01*
X0008859Y0094217D01*
X0009226Y0093850D01*
X0009226Y0092749D01*
X0009960Y0092749D02*
X0007758Y0092749D01*
X0009226Y0093483D02*
X0009960Y0094217D01*
X0009960Y0092007D02*
X0009960Y0090540D01*
X0008859Y0090540D02*
X0008859Y0091273D01*
D16*
X0045217Y0081443D02*
X0045217Y0061757D01*
X0061359Y0061757D01*
X0059981Y0060380D01*
X0061753Y0058608D01*
X0064903Y0061757D01*
X0061359Y0061757D01*
X0064903Y0065301D01*
X0064903Y0061757D01*
X0064903Y0065301D02*
X0064903Y0081443D01*
X0045217Y0081443D01*
X0048287Y0071600D02*
X0048289Y0071766D01*
X0048295Y0071932D01*
X0048305Y0072098D01*
X0048320Y0072264D01*
X0048338Y0072429D01*
X0048360Y0072594D01*
X0048387Y0072758D01*
X0048417Y0072921D01*
X0048452Y0073084D01*
X0048490Y0073246D01*
X0048532Y0073406D01*
X0048579Y0073566D01*
X0048629Y0073725D01*
X0048683Y0073882D01*
X0048741Y0074038D01*
X0048803Y0074192D01*
X0048868Y0074345D01*
X0048937Y0074496D01*
X0049010Y0074645D01*
X0049087Y0074793D01*
X0049167Y0074938D01*
X0049251Y0075082D01*
X0049338Y0075224D01*
X0049428Y0075363D01*
X0049522Y0075500D01*
X0049620Y0075635D01*
X0049721Y0075767D01*
X0049824Y0075897D01*
X0049931Y0076024D01*
X0050042Y0076148D01*
X0050155Y0076270D01*
X0050271Y0076389D01*
X0050390Y0076505D01*
X0050512Y0076618D01*
X0050636Y0076729D01*
X0050763Y0076836D01*
X0050893Y0076939D01*
X0051025Y0077040D01*
X0051160Y0077138D01*
X0051297Y0077232D01*
X0051436Y0077322D01*
X0051578Y0077409D01*
X0051722Y0077493D01*
X0051867Y0077573D01*
X0052015Y0077650D01*
X0052164Y0077723D01*
X0052315Y0077792D01*
X0052468Y0077857D01*
X0052622Y0077919D01*
X0052778Y0077977D01*
X0052935Y0078031D01*
X0053094Y0078081D01*
X0053254Y0078128D01*
X0053414Y0078170D01*
X0053576Y0078208D01*
X0053739Y0078243D01*
X0053902Y0078273D01*
X0054066Y0078300D01*
X0054231Y0078322D01*
X0054396Y0078340D01*
X0054562Y0078355D01*
X0054728Y0078365D01*
X0054894Y0078371D01*
X0055060Y0078373D01*
X0055226Y0078371D01*
X0055392Y0078365D01*
X0055558Y0078355D01*
X0055724Y0078340D01*
X0055889Y0078322D01*
X0056054Y0078300D01*
X0056218Y0078273D01*
X0056381Y0078243D01*
X0056544Y0078208D01*
X0056706Y0078170D01*
X0056866Y0078128D01*
X0057026Y0078081D01*
X0057185Y0078031D01*
X0057342Y0077977D01*
X0057498Y0077919D01*
X0057652Y0077857D01*
X0057805Y0077792D01*
X0057956Y0077723D01*
X0058105Y0077650D01*
X0058253Y0077573D01*
X0058398Y0077493D01*
X0058542Y0077409D01*
X0058684Y0077322D01*
X0058823Y0077232D01*
X0058960Y0077138D01*
X0059095Y0077040D01*
X0059227Y0076939D01*
X0059357Y0076836D01*
X0059484Y0076729D01*
X0059608Y0076618D01*
X0059730Y0076505D01*
X0059849Y0076389D01*
X0059965Y0076270D01*
X0060078Y0076148D01*
X0060189Y0076024D01*
X0060296Y0075897D01*
X0060399Y0075767D01*
X0060500Y0075635D01*
X0060598Y0075500D01*
X0060692Y0075363D01*
X0060782Y0075224D01*
X0060869Y0075082D01*
X0060953Y0074938D01*
X0061033Y0074793D01*
X0061110Y0074645D01*
X0061183Y0074496D01*
X0061252Y0074345D01*
X0061317Y0074192D01*
X0061379Y0074038D01*
X0061437Y0073882D01*
X0061491Y0073725D01*
X0061541Y0073566D01*
X0061588Y0073406D01*
X0061630Y0073246D01*
X0061668Y0073084D01*
X0061703Y0072921D01*
X0061733Y0072758D01*
X0061760Y0072594D01*
X0061782Y0072429D01*
X0061800Y0072264D01*
X0061815Y0072098D01*
X0061825Y0071932D01*
X0061831Y0071766D01*
X0061833Y0071600D01*
X0061831Y0071434D01*
X0061825Y0071268D01*
X0061815Y0071102D01*
X0061800Y0070936D01*
X0061782Y0070771D01*
X0061760Y0070606D01*
X0061733Y0070442D01*
X0061703Y0070279D01*
X0061668Y0070116D01*
X0061630Y0069954D01*
X0061588Y0069794D01*
X0061541Y0069634D01*
X0061491Y0069475D01*
X0061437Y0069318D01*
X0061379Y0069162D01*
X0061317Y0069008D01*
X0061252Y0068855D01*
X0061183Y0068704D01*
X0061110Y0068555D01*
X0061033Y0068407D01*
X0060953Y0068262D01*
X0060869Y0068118D01*
X0060782Y0067976D01*
X0060692Y0067837D01*
X0060598Y0067700D01*
X0060500Y0067565D01*
X0060399Y0067433D01*
X0060296Y0067303D01*
X0060189Y0067176D01*
X0060078Y0067052D01*
X0059965Y0066930D01*
X0059849Y0066811D01*
X0059730Y0066695D01*
X0059608Y0066582D01*
X0059484Y0066471D01*
X0059357Y0066364D01*
X0059227Y0066261D01*
X0059095Y0066160D01*
X0058960Y0066062D01*
X0058823Y0065968D01*
X0058684Y0065878D01*
X0058542Y0065791D01*
X0058398Y0065707D01*
X0058253Y0065627D01*
X0058105Y0065550D01*
X0057956Y0065477D01*
X0057805Y0065408D01*
X0057652Y0065343D01*
X0057498Y0065281D01*
X0057342Y0065223D01*
X0057185Y0065169D01*
X0057026Y0065119D01*
X0056866Y0065072D01*
X0056706Y0065030D01*
X0056544Y0064992D01*
X0056381Y0064957D01*
X0056218Y0064927D01*
X0056054Y0064900D01*
X0055889Y0064878D01*
X0055724Y0064860D01*
X0055558Y0064845D01*
X0055392Y0064835D01*
X0055226Y0064829D01*
X0055060Y0064827D01*
X0054894Y0064829D01*
X0054728Y0064835D01*
X0054562Y0064845D01*
X0054396Y0064860D01*
X0054231Y0064878D01*
X0054066Y0064900D01*
X0053902Y0064927D01*
X0053739Y0064957D01*
X0053576Y0064992D01*
X0053414Y0065030D01*
X0053254Y0065072D01*
X0053094Y0065119D01*
X0052935Y0065169D01*
X0052778Y0065223D01*
X0052622Y0065281D01*
X0052468Y0065343D01*
X0052315Y0065408D01*
X0052164Y0065477D01*
X0052015Y0065550D01*
X0051867Y0065627D01*
X0051722Y0065707D01*
X0051578Y0065791D01*
X0051436Y0065878D01*
X0051297Y0065968D01*
X0051160Y0066062D01*
X0051025Y0066160D01*
X0050893Y0066261D01*
X0050763Y0066364D01*
X0050636Y0066471D01*
X0050512Y0066582D01*
X0050390Y0066695D01*
X0050271Y0066811D01*
X0050155Y0066930D01*
X0050042Y0067052D01*
X0049931Y0067176D01*
X0049824Y0067303D01*
X0049721Y0067433D01*
X0049620Y0067565D01*
X0049522Y0067700D01*
X0049428Y0067837D01*
X0049338Y0067976D01*
X0049251Y0068118D01*
X0049167Y0068262D01*
X0049087Y0068407D01*
X0049010Y0068555D01*
X0048937Y0068704D01*
X0048868Y0068855D01*
X0048803Y0069008D01*
X0048741Y0069162D01*
X0048683Y0069318D01*
X0048629Y0069475D01*
X0048579Y0069634D01*
X0048532Y0069794D01*
X0048490Y0069954D01*
X0048452Y0070116D01*
X0048417Y0070279D01*
X0048387Y0070442D01*
X0048360Y0070606D01*
X0048338Y0070771D01*
X0048320Y0070936D01*
X0048305Y0071102D01*
X0048295Y0071268D01*
X0048289Y0071434D01*
X0048287Y0071600D01*
X0145217Y0061757D02*
X0145217Y0081443D01*
X0164903Y0081443D01*
X0164903Y0065301D01*
X0161359Y0061757D01*
X0159981Y0060380D01*
X0161753Y0058608D01*
X0164903Y0061757D01*
X0161359Y0061757D01*
X0145217Y0061757D01*
X0164903Y0061757D02*
X0164903Y0065301D01*
X0148287Y0071600D02*
X0148289Y0071766D01*
X0148295Y0071932D01*
X0148305Y0072098D01*
X0148320Y0072264D01*
X0148338Y0072429D01*
X0148360Y0072594D01*
X0148387Y0072758D01*
X0148417Y0072921D01*
X0148452Y0073084D01*
X0148490Y0073246D01*
X0148532Y0073406D01*
X0148579Y0073566D01*
X0148629Y0073725D01*
X0148683Y0073882D01*
X0148741Y0074038D01*
X0148803Y0074192D01*
X0148868Y0074345D01*
X0148937Y0074496D01*
X0149010Y0074645D01*
X0149087Y0074793D01*
X0149167Y0074938D01*
X0149251Y0075082D01*
X0149338Y0075224D01*
X0149428Y0075363D01*
X0149522Y0075500D01*
X0149620Y0075635D01*
X0149721Y0075767D01*
X0149824Y0075897D01*
X0149931Y0076024D01*
X0150042Y0076148D01*
X0150155Y0076270D01*
X0150271Y0076389D01*
X0150390Y0076505D01*
X0150512Y0076618D01*
X0150636Y0076729D01*
X0150763Y0076836D01*
X0150893Y0076939D01*
X0151025Y0077040D01*
X0151160Y0077138D01*
X0151297Y0077232D01*
X0151436Y0077322D01*
X0151578Y0077409D01*
X0151722Y0077493D01*
X0151867Y0077573D01*
X0152015Y0077650D01*
X0152164Y0077723D01*
X0152315Y0077792D01*
X0152468Y0077857D01*
X0152622Y0077919D01*
X0152778Y0077977D01*
X0152935Y0078031D01*
X0153094Y0078081D01*
X0153254Y0078128D01*
X0153414Y0078170D01*
X0153576Y0078208D01*
X0153739Y0078243D01*
X0153902Y0078273D01*
X0154066Y0078300D01*
X0154231Y0078322D01*
X0154396Y0078340D01*
X0154562Y0078355D01*
X0154728Y0078365D01*
X0154894Y0078371D01*
X0155060Y0078373D01*
X0155226Y0078371D01*
X0155392Y0078365D01*
X0155558Y0078355D01*
X0155724Y0078340D01*
X0155889Y0078322D01*
X0156054Y0078300D01*
X0156218Y0078273D01*
X0156381Y0078243D01*
X0156544Y0078208D01*
X0156706Y0078170D01*
X0156866Y0078128D01*
X0157026Y0078081D01*
X0157185Y0078031D01*
X0157342Y0077977D01*
X0157498Y0077919D01*
X0157652Y0077857D01*
X0157805Y0077792D01*
X0157956Y0077723D01*
X0158105Y0077650D01*
X0158253Y0077573D01*
X0158398Y0077493D01*
X0158542Y0077409D01*
X0158684Y0077322D01*
X0158823Y0077232D01*
X0158960Y0077138D01*
X0159095Y0077040D01*
X0159227Y0076939D01*
X0159357Y0076836D01*
X0159484Y0076729D01*
X0159608Y0076618D01*
X0159730Y0076505D01*
X0159849Y0076389D01*
X0159965Y0076270D01*
X0160078Y0076148D01*
X0160189Y0076024D01*
X0160296Y0075897D01*
X0160399Y0075767D01*
X0160500Y0075635D01*
X0160598Y0075500D01*
X0160692Y0075363D01*
X0160782Y0075224D01*
X0160869Y0075082D01*
X0160953Y0074938D01*
X0161033Y0074793D01*
X0161110Y0074645D01*
X0161183Y0074496D01*
X0161252Y0074345D01*
X0161317Y0074192D01*
X0161379Y0074038D01*
X0161437Y0073882D01*
X0161491Y0073725D01*
X0161541Y0073566D01*
X0161588Y0073406D01*
X0161630Y0073246D01*
X0161668Y0073084D01*
X0161703Y0072921D01*
X0161733Y0072758D01*
X0161760Y0072594D01*
X0161782Y0072429D01*
X0161800Y0072264D01*
X0161815Y0072098D01*
X0161825Y0071932D01*
X0161831Y0071766D01*
X0161833Y0071600D01*
X0161831Y0071434D01*
X0161825Y0071268D01*
X0161815Y0071102D01*
X0161800Y0070936D01*
X0161782Y0070771D01*
X0161760Y0070606D01*
X0161733Y0070442D01*
X0161703Y0070279D01*
X0161668Y0070116D01*
X0161630Y0069954D01*
X0161588Y0069794D01*
X0161541Y0069634D01*
X0161491Y0069475D01*
X0161437Y0069318D01*
X0161379Y0069162D01*
X0161317Y0069008D01*
X0161252Y0068855D01*
X0161183Y0068704D01*
X0161110Y0068555D01*
X0161033Y0068407D01*
X0160953Y0068262D01*
X0160869Y0068118D01*
X0160782Y0067976D01*
X0160692Y0067837D01*
X0160598Y0067700D01*
X0160500Y0067565D01*
X0160399Y0067433D01*
X0160296Y0067303D01*
X0160189Y0067176D01*
X0160078Y0067052D01*
X0159965Y0066930D01*
X0159849Y0066811D01*
X0159730Y0066695D01*
X0159608Y0066582D01*
X0159484Y0066471D01*
X0159357Y0066364D01*
X0159227Y0066261D01*
X0159095Y0066160D01*
X0158960Y0066062D01*
X0158823Y0065968D01*
X0158684Y0065878D01*
X0158542Y0065791D01*
X0158398Y0065707D01*
X0158253Y0065627D01*
X0158105Y0065550D01*
X0157956Y0065477D01*
X0157805Y0065408D01*
X0157652Y0065343D01*
X0157498Y0065281D01*
X0157342Y0065223D01*
X0157185Y0065169D01*
X0157026Y0065119D01*
X0156866Y0065072D01*
X0156706Y0065030D01*
X0156544Y0064992D01*
X0156381Y0064957D01*
X0156218Y0064927D01*
X0156054Y0064900D01*
X0155889Y0064878D01*
X0155724Y0064860D01*
X0155558Y0064845D01*
X0155392Y0064835D01*
X0155226Y0064829D01*
X0155060Y0064827D01*
X0154894Y0064829D01*
X0154728Y0064835D01*
X0154562Y0064845D01*
X0154396Y0064860D01*
X0154231Y0064878D01*
X0154066Y0064900D01*
X0153902Y0064927D01*
X0153739Y0064957D01*
X0153576Y0064992D01*
X0153414Y0065030D01*
X0153254Y0065072D01*
X0153094Y0065119D01*
X0152935Y0065169D01*
X0152778Y0065223D01*
X0152622Y0065281D01*
X0152468Y0065343D01*
X0152315Y0065408D01*
X0152164Y0065477D01*
X0152015Y0065550D01*
X0151867Y0065627D01*
X0151722Y0065707D01*
X0151578Y0065791D01*
X0151436Y0065878D01*
X0151297Y0065968D01*
X0151160Y0066062D01*
X0151025Y0066160D01*
X0150893Y0066261D01*
X0150763Y0066364D01*
X0150636Y0066471D01*
X0150512Y0066582D01*
X0150390Y0066695D01*
X0150271Y0066811D01*
X0150155Y0066930D01*
X0150042Y0067052D01*
X0149931Y0067176D01*
X0149824Y0067303D01*
X0149721Y0067433D01*
X0149620Y0067565D01*
X0149522Y0067700D01*
X0149428Y0067837D01*
X0149338Y0067976D01*
X0149251Y0068118D01*
X0149167Y0068262D01*
X0149087Y0068407D01*
X0149010Y0068555D01*
X0148937Y0068704D01*
X0148868Y0068855D01*
X0148803Y0069008D01*
X0148741Y0069162D01*
X0148683Y0069318D01*
X0148629Y0069475D01*
X0148579Y0069634D01*
X0148532Y0069794D01*
X0148490Y0069954D01*
X0148452Y0070116D01*
X0148417Y0070279D01*
X0148387Y0070442D01*
X0148360Y0070606D01*
X0148338Y0070771D01*
X0148320Y0070936D01*
X0148305Y0071102D01*
X0148295Y0071268D01*
X0148289Y0071434D01*
X0148287Y0071600D01*
X0245217Y0061757D02*
X0245217Y0081443D01*
X0264903Y0081443D01*
X0264903Y0065301D01*
X0261359Y0061757D01*
X0259981Y0060380D01*
X0261753Y0058608D01*
X0264903Y0061757D01*
X0261359Y0061757D01*
X0245217Y0061757D01*
X0264903Y0061757D02*
X0264903Y0065301D01*
X0248287Y0071600D02*
X0248289Y0071766D01*
X0248295Y0071932D01*
X0248305Y0072098D01*
X0248320Y0072264D01*
X0248338Y0072429D01*
X0248360Y0072594D01*
X0248387Y0072758D01*
X0248417Y0072921D01*
X0248452Y0073084D01*
X0248490Y0073246D01*
X0248532Y0073406D01*
X0248579Y0073566D01*
X0248629Y0073725D01*
X0248683Y0073882D01*
X0248741Y0074038D01*
X0248803Y0074192D01*
X0248868Y0074345D01*
X0248937Y0074496D01*
X0249010Y0074645D01*
X0249087Y0074793D01*
X0249167Y0074938D01*
X0249251Y0075082D01*
X0249338Y0075224D01*
X0249428Y0075363D01*
X0249522Y0075500D01*
X0249620Y0075635D01*
X0249721Y0075767D01*
X0249824Y0075897D01*
X0249931Y0076024D01*
X0250042Y0076148D01*
X0250155Y0076270D01*
X0250271Y0076389D01*
X0250390Y0076505D01*
X0250512Y0076618D01*
X0250636Y0076729D01*
X0250763Y0076836D01*
X0250893Y0076939D01*
X0251025Y0077040D01*
X0251160Y0077138D01*
X0251297Y0077232D01*
X0251436Y0077322D01*
X0251578Y0077409D01*
X0251722Y0077493D01*
X0251867Y0077573D01*
X0252015Y0077650D01*
X0252164Y0077723D01*
X0252315Y0077792D01*
X0252468Y0077857D01*
X0252622Y0077919D01*
X0252778Y0077977D01*
X0252935Y0078031D01*
X0253094Y0078081D01*
X0253254Y0078128D01*
X0253414Y0078170D01*
X0253576Y0078208D01*
X0253739Y0078243D01*
X0253902Y0078273D01*
X0254066Y0078300D01*
X0254231Y0078322D01*
X0254396Y0078340D01*
X0254562Y0078355D01*
X0254728Y0078365D01*
X0254894Y0078371D01*
X0255060Y0078373D01*
X0255226Y0078371D01*
X0255392Y0078365D01*
X0255558Y0078355D01*
X0255724Y0078340D01*
X0255889Y0078322D01*
X0256054Y0078300D01*
X0256218Y0078273D01*
X0256381Y0078243D01*
X0256544Y0078208D01*
X0256706Y0078170D01*
X0256866Y0078128D01*
X0257026Y0078081D01*
X0257185Y0078031D01*
X0257342Y0077977D01*
X0257498Y0077919D01*
X0257652Y0077857D01*
X0257805Y0077792D01*
X0257956Y0077723D01*
X0258105Y0077650D01*
X0258253Y0077573D01*
X0258398Y0077493D01*
X0258542Y0077409D01*
X0258684Y0077322D01*
X0258823Y0077232D01*
X0258960Y0077138D01*
X0259095Y0077040D01*
X0259227Y0076939D01*
X0259357Y0076836D01*
X0259484Y0076729D01*
X0259608Y0076618D01*
X0259730Y0076505D01*
X0259849Y0076389D01*
X0259965Y0076270D01*
X0260078Y0076148D01*
X0260189Y0076024D01*
X0260296Y0075897D01*
X0260399Y0075767D01*
X0260500Y0075635D01*
X0260598Y0075500D01*
X0260692Y0075363D01*
X0260782Y0075224D01*
X0260869Y0075082D01*
X0260953Y0074938D01*
X0261033Y0074793D01*
X0261110Y0074645D01*
X0261183Y0074496D01*
X0261252Y0074345D01*
X0261317Y0074192D01*
X0261379Y0074038D01*
X0261437Y0073882D01*
X0261491Y0073725D01*
X0261541Y0073566D01*
X0261588Y0073406D01*
X0261630Y0073246D01*
X0261668Y0073084D01*
X0261703Y0072921D01*
X0261733Y0072758D01*
X0261760Y0072594D01*
X0261782Y0072429D01*
X0261800Y0072264D01*
X0261815Y0072098D01*
X0261825Y0071932D01*
X0261831Y0071766D01*
X0261833Y0071600D01*
X0261831Y0071434D01*
X0261825Y0071268D01*
X0261815Y0071102D01*
X0261800Y0070936D01*
X0261782Y0070771D01*
X0261760Y0070606D01*
X0261733Y0070442D01*
X0261703Y0070279D01*
X0261668Y0070116D01*
X0261630Y0069954D01*
X0261588Y0069794D01*
X0261541Y0069634D01*
X0261491Y0069475D01*
X0261437Y0069318D01*
X0261379Y0069162D01*
X0261317Y0069008D01*
X0261252Y0068855D01*
X0261183Y0068704D01*
X0261110Y0068555D01*
X0261033Y0068407D01*
X0260953Y0068262D01*
X0260869Y0068118D01*
X0260782Y0067976D01*
X0260692Y0067837D01*
X0260598Y0067700D01*
X0260500Y0067565D01*
X0260399Y0067433D01*
X0260296Y0067303D01*
X0260189Y0067176D01*
X0260078Y0067052D01*
X0259965Y0066930D01*
X0259849Y0066811D01*
X0259730Y0066695D01*
X0259608Y0066582D01*
X0259484Y0066471D01*
X0259357Y0066364D01*
X0259227Y0066261D01*
X0259095Y0066160D01*
X0258960Y0066062D01*
X0258823Y0065968D01*
X0258684Y0065878D01*
X0258542Y0065791D01*
X0258398Y0065707D01*
X0258253Y0065627D01*
X0258105Y0065550D01*
X0257956Y0065477D01*
X0257805Y0065408D01*
X0257652Y0065343D01*
X0257498Y0065281D01*
X0257342Y0065223D01*
X0257185Y0065169D01*
X0257026Y0065119D01*
X0256866Y0065072D01*
X0256706Y0065030D01*
X0256544Y0064992D01*
X0256381Y0064957D01*
X0256218Y0064927D01*
X0256054Y0064900D01*
X0255889Y0064878D01*
X0255724Y0064860D01*
X0255558Y0064845D01*
X0255392Y0064835D01*
X0255226Y0064829D01*
X0255060Y0064827D01*
X0254894Y0064829D01*
X0254728Y0064835D01*
X0254562Y0064845D01*
X0254396Y0064860D01*
X0254231Y0064878D01*
X0254066Y0064900D01*
X0253902Y0064927D01*
X0253739Y0064957D01*
X0253576Y0064992D01*
X0253414Y0065030D01*
X0253254Y0065072D01*
X0253094Y0065119D01*
X0252935Y0065169D01*
X0252778Y0065223D01*
X0252622Y0065281D01*
X0252468Y0065343D01*
X0252315Y0065408D01*
X0252164Y0065477D01*
X0252015Y0065550D01*
X0251867Y0065627D01*
X0251722Y0065707D01*
X0251578Y0065791D01*
X0251436Y0065878D01*
X0251297Y0065968D01*
X0251160Y0066062D01*
X0251025Y0066160D01*
X0250893Y0066261D01*
X0250763Y0066364D01*
X0250636Y0066471D01*
X0250512Y0066582D01*
X0250390Y0066695D01*
X0250271Y0066811D01*
X0250155Y0066930D01*
X0250042Y0067052D01*
X0249931Y0067176D01*
X0249824Y0067303D01*
X0249721Y0067433D01*
X0249620Y0067565D01*
X0249522Y0067700D01*
X0249428Y0067837D01*
X0249338Y0067976D01*
X0249251Y0068118D01*
X0249167Y0068262D01*
X0249087Y0068407D01*
X0249010Y0068555D01*
X0248937Y0068704D01*
X0248868Y0068855D01*
X0248803Y0069008D01*
X0248741Y0069162D01*
X0248683Y0069318D01*
X0248629Y0069475D01*
X0248579Y0069634D01*
X0248532Y0069794D01*
X0248490Y0069954D01*
X0248452Y0070116D01*
X0248417Y0070279D01*
X0248387Y0070442D01*
X0248360Y0070606D01*
X0248338Y0070771D01*
X0248320Y0070936D01*
X0248305Y0071102D01*
X0248295Y0071268D01*
X0248289Y0071434D01*
X0248287Y0071600D01*
X0242560Y0026600D02*
X0242564Y0026907D01*
X0242575Y0027213D01*
X0242594Y0027520D01*
X0242620Y0027825D01*
X0242654Y0028130D01*
X0242695Y0028434D01*
X0242744Y0028737D01*
X0242800Y0029039D01*
X0242864Y0029339D01*
X0242935Y0029637D01*
X0243013Y0029934D01*
X0243098Y0030229D01*
X0243191Y0030521D01*
X0243291Y0030811D01*
X0243398Y0031099D01*
X0243512Y0031384D01*
X0243632Y0031666D01*
X0243760Y0031944D01*
X0243895Y0032220D01*
X0244036Y0032492D01*
X0244184Y0032761D01*
X0244338Y0033026D01*
X0244499Y0033287D01*
X0244667Y0033545D01*
X0244840Y0033798D01*
X0245020Y0034046D01*
X0245206Y0034290D01*
X0245397Y0034530D01*
X0245595Y0034765D01*
X0245798Y0034994D01*
X0246007Y0035219D01*
X0246221Y0035439D01*
X0246441Y0035653D01*
X0246666Y0035862D01*
X0246895Y0036065D01*
X0247130Y0036263D01*
X0247370Y0036454D01*
X0247614Y0036640D01*
X0247862Y0036820D01*
X0248115Y0036993D01*
X0248373Y0037161D01*
X0248634Y0037322D01*
X0248899Y0037476D01*
X0249168Y0037624D01*
X0249440Y0037765D01*
X0249716Y0037900D01*
X0249994Y0038028D01*
X0250276Y0038148D01*
X0250561Y0038262D01*
X0250849Y0038369D01*
X0251139Y0038469D01*
X0251431Y0038562D01*
X0251726Y0038647D01*
X0252023Y0038725D01*
X0252321Y0038796D01*
X0252621Y0038860D01*
X0252923Y0038916D01*
X0253226Y0038965D01*
X0253530Y0039006D01*
X0253835Y0039040D01*
X0254140Y0039066D01*
X0254447Y0039085D01*
X0254753Y0039096D01*
X0255060Y0039100D01*
X0255367Y0039096D01*
X0255673Y0039085D01*
X0255980Y0039066D01*
X0256285Y0039040D01*
X0256590Y0039006D01*
X0256894Y0038965D01*
X0257197Y0038916D01*
X0257499Y0038860D01*
X0257799Y0038796D01*
X0258097Y0038725D01*
X0258394Y0038647D01*
X0258689Y0038562D01*
X0258981Y0038469D01*
X0259271Y0038369D01*
X0259559Y0038262D01*
X0259844Y0038148D01*
X0260126Y0038028D01*
X0260404Y0037900D01*
X0260680Y0037765D01*
X0260952Y0037624D01*
X0261221Y0037476D01*
X0261486Y0037322D01*
X0261747Y0037161D01*
X0262005Y0036993D01*
X0262258Y0036820D01*
X0262506Y0036640D01*
X0262750Y0036454D01*
X0262990Y0036263D01*
X0263225Y0036065D01*
X0263454Y0035862D01*
X0263679Y0035653D01*
X0263899Y0035439D01*
X0264113Y0035219D01*
X0264322Y0034994D01*
X0264525Y0034765D01*
X0264723Y0034530D01*
X0264914Y0034290D01*
X0265100Y0034046D01*
X0265280Y0033798D01*
X0265453Y0033545D01*
X0265621Y0033287D01*
X0265782Y0033026D01*
X0265936Y0032761D01*
X0266084Y0032492D01*
X0266225Y0032220D01*
X0266360Y0031944D01*
X0266488Y0031666D01*
X0266608Y0031384D01*
X0266722Y0031099D01*
X0266829Y0030811D01*
X0266929Y0030521D01*
X0267022Y0030229D01*
X0267107Y0029934D01*
X0267185Y0029637D01*
X0267256Y0029339D01*
X0267320Y0029039D01*
X0267376Y0028737D01*
X0267425Y0028434D01*
X0267466Y0028130D01*
X0267500Y0027825D01*
X0267526Y0027520D01*
X0267545Y0027213D01*
X0267556Y0026907D01*
X0267560Y0026600D01*
X0267556Y0026293D01*
X0267545Y0025987D01*
X0267526Y0025680D01*
X0267500Y0025375D01*
X0267466Y0025070D01*
X0267425Y0024766D01*
X0267376Y0024463D01*
X0267320Y0024161D01*
X0267256Y0023861D01*
X0267185Y0023563D01*
X0267107Y0023266D01*
X0267022Y0022971D01*
X0266929Y0022679D01*
X0266829Y0022389D01*
X0266722Y0022101D01*
X0266608Y0021816D01*
X0266488Y0021534D01*
X0266360Y0021256D01*
X0266225Y0020980D01*
X0266084Y0020708D01*
X0265936Y0020439D01*
X0265782Y0020174D01*
X0265621Y0019913D01*
X0265453Y0019655D01*
X0265280Y0019402D01*
X0265100Y0019154D01*
X0264914Y0018910D01*
X0264723Y0018670D01*
X0264525Y0018435D01*
X0264322Y0018206D01*
X0264113Y0017981D01*
X0263899Y0017761D01*
X0263679Y0017547D01*
X0263454Y0017338D01*
X0263225Y0017135D01*
X0262990Y0016937D01*
X0262750Y0016746D01*
X0262506Y0016560D01*
X0262258Y0016380D01*
X0262005Y0016207D01*
X0261747Y0016039D01*
X0261486Y0015878D01*
X0261221Y0015724D01*
X0260952Y0015576D01*
X0260680Y0015435D01*
X0260404Y0015300D01*
X0260126Y0015172D01*
X0259844Y0015052D01*
X0259559Y0014938D01*
X0259271Y0014831D01*
X0258981Y0014731D01*
X0258689Y0014638D01*
X0258394Y0014553D01*
X0258097Y0014475D01*
X0257799Y0014404D01*
X0257499Y0014340D01*
X0257197Y0014284D01*
X0256894Y0014235D01*
X0256590Y0014194D01*
X0256285Y0014160D01*
X0255980Y0014134D01*
X0255673Y0014115D01*
X0255367Y0014104D01*
X0255060Y0014100D01*
X0254753Y0014104D01*
X0254447Y0014115D01*
X0254140Y0014134D01*
X0253835Y0014160D01*
X0253530Y0014194D01*
X0253226Y0014235D01*
X0252923Y0014284D01*
X0252621Y0014340D01*
X0252321Y0014404D01*
X0252023Y0014475D01*
X0251726Y0014553D01*
X0251431Y0014638D01*
X0251139Y0014731D01*
X0250849Y0014831D01*
X0250561Y0014938D01*
X0250276Y0015052D01*
X0249994Y0015172D01*
X0249716Y0015300D01*
X0249440Y0015435D01*
X0249168Y0015576D01*
X0248899Y0015724D01*
X0248634Y0015878D01*
X0248373Y0016039D01*
X0248115Y0016207D01*
X0247862Y0016380D01*
X0247614Y0016560D01*
X0247370Y0016746D01*
X0247130Y0016937D01*
X0246895Y0017135D01*
X0246666Y0017338D01*
X0246441Y0017547D01*
X0246221Y0017761D01*
X0246007Y0017981D01*
X0245798Y0018206D01*
X0245595Y0018435D01*
X0245397Y0018670D01*
X0245206Y0018910D01*
X0245020Y0019154D01*
X0244840Y0019402D01*
X0244667Y0019655D01*
X0244499Y0019913D01*
X0244338Y0020174D01*
X0244184Y0020439D01*
X0244036Y0020708D01*
X0243895Y0020980D01*
X0243760Y0021256D01*
X0243632Y0021534D01*
X0243512Y0021816D01*
X0243398Y0022101D01*
X0243291Y0022389D01*
X0243191Y0022679D01*
X0243098Y0022971D01*
X0243013Y0023266D01*
X0242935Y0023563D01*
X0242864Y0023861D01*
X0242800Y0024161D01*
X0242744Y0024463D01*
X0242695Y0024766D01*
X0242654Y0025070D01*
X0242620Y0025375D01*
X0242594Y0025680D01*
X0242575Y0025987D01*
X0242564Y0026293D01*
X0242560Y0026600D01*
X0142560Y0026600D02*
X0142564Y0026907D01*
X0142575Y0027213D01*
X0142594Y0027520D01*
X0142620Y0027825D01*
X0142654Y0028130D01*
X0142695Y0028434D01*
X0142744Y0028737D01*
X0142800Y0029039D01*
X0142864Y0029339D01*
X0142935Y0029637D01*
X0143013Y0029934D01*
X0143098Y0030229D01*
X0143191Y0030521D01*
X0143291Y0030811D01*
X0143398Y0031099D01*
X0143512Y0031384D01*
X0143632Y0031666D01*
X0143760Y0031944D01*
X0143895Y0032220D01*
X0144036Y0032492D01*
X0144184Y0032761D01*
X0144338Y0033026D01*
X0144499Y0033287D01*
X0144667Y0033545D01*
X0144840Y0033798D01*
X0145020Y0034046D01*
X0145206Y0034290D01*
X0145397Y0034530D01*
X0145595Y0034765D01*
X0145798Y0034994D01*
X0146007Y0035219D01*
X0146221Y0035439D01*
X0146441Y0035653D01*
X0146666Y0035862D01*
X0146895Y0036065D01*
X0147130Y0036263D01*
X0147370Y0036454D01*
X0147614Y0036640D01*
X0147862Y0036820D01*
X0148115Y0036993D01*
X0148373Y0037161D01*
X0148634Y0037322D01*
X0148899Y0037476D01*
X0149168Y0037624D01*
X0149440Y0037765D01*
X0149716Y0037900D01*
X0149994Y0038028D01*
X0150276Y0038148D01*
X0150561Y0038262D01*
X0150849Y0038369D01*
X0151139Y0038469D01*
X0151431Y0038562D01*
X0151726Y0038647D01*
X0152023Y0038725D01*
X0152321Y0038796D01*
X0152621Y0038860D01*
X0152923Y0038916D01*
X0153226Y0038965D01*
X0153530Y0039006D01*
X0153835Y0039040D01*
X0154140Y0039066D01*
X0154447Y0039085D01*
X0154753Y0039096D01*
X0155060Y0039100D01*
X0155367Y0039096D01*
X0155673Y0039085D01*
X0155980Y0039066D01*
X0156285Y0039040D01*
X0156590Y0039006D01*
X0156894Y0038965D01*
X0157197Y0038916D01*
X0157499Y0038860D01*
X0157799Y0038796D01*
X0158097Y0038725D01*
X0158394Y0038647D01*
X0158689Y0038562D01*
X0158981Y0038469D01*
X0159271Y0038369D01*
X0159559Y0038262D01*
X0159844Y0038148D01*
X0160126Y0038028D01*
X0160404Y0037900D01*
X0160680Y0037765D01*
X0160952Y0037624D01*
X0161221Y0037476D01*
X0161486Y0037322D01*
X0161747Y0037161D01*
X0162005Y0036993D01*
X0162258Y0036820D01*
X0162506Y0036640D01*
X0162750Y0036454D01*
X0162990Y0036263D01*
X0163225Y0036065D01*
X0163454Y0035862D01*
X0163679Y0035653D01*
X0163899Y0035439D01*
X0164113Y0035219D01*
X0164322Y0034994D01*
X0164525Y0034765D01*
X0164723Y0034530D01*
X0164914Y0034290D01*
X0165100Y0034046D01*
X0165280Y0033798D01*
X0165453Y0033545D01*
X0165621Y0033287D01*
X0165782Y0033026D01*
X0165936Y0032761D01*
X0166084Y0032492D01*
X0166225Y0032220D01*
X0166360Y0031944D01*
X0166488Y0031666D01*
X0166608Y0031384D01*
X0166722Y0031099D01*
X0166829Y0030811D01*
X0166929Y0030521D01*
X0167022Y0030229D01*
X0167107Y0029934D01*
X0167185Y0029637D01*
X0167256Y0029339D01*
X0167320Y0029039D01*
X0167376Y0028737D01*
X0167425Y0028434D01*
X0167466Y0028130D01*
X0167500Y0027825D01*
X0167526Y0027520D01*
X0167545Y0027213D01*
X0167556Y0026907D01*
X0167560Y0026600D01*
X0167556Y0026293D01*
X0167545Y0025987D01*
X0167526Y0025680D01*
X0167500Y0025375D01*
X0167466Y0025070D01*
X0167425Y0024766D01*
X0167376Y0024463D01*
X0167320Y0024161D01*
X0167256Y0023861D01*
X0167185Y0023563D01*
X0167107Y0023266D01*
X0167022Y0022971D01*
X0166929Y0022679D01*
X0166829Y0022389D01*
X0166722Y0022101D01*
X0166608Y0021816D01*
X0166488Y0021534D01*
X0166360Y0021256D01*
X0166225Y0020980D01*
X0166084Y0020708D01*
X0165936Y0020439D01*
X0165782Y0020174D01*
X0165621Y0019913D01*
X0165453Y0019655D01*
X0165280Y0019402D01*
X0165100Y0019154D01*
X0164914Y0018910D01*
X0164723Y0018670D01*
X0164525Y0018435D01*
X0164322Y0018206D01*
X0164113Y0017981D01*
X0163899Y0017761D01*
X0163679Y0017547D01*
X0163454Y0017338D01*
X0163225Y0017135D01*
X0162990Y0016937D01*
X0162750Y0016746D01*
X0162506Y0016560D01*
X0162258Y0016380D01*
X0162005Y0016207D01*
X0161747Y0016039D01*
X0161486Y0015878D01*
X0161221Y0015724D01*
X0160952Y0015576D01*
X0160680Y0015435D01*
X0160404Y0015300D01*
X0160126Y0015172D01*
X0159844Y0015052D01*
X0159559Y0014938D01*
X0159271Y0014831D01*
X0158981Y0014731D01*
X0158689Y0014638D01*
X0158394Y0014553D01*
X0158097Y0014475D01*
X0157799Y0014404D01*
X0157499Y0014340D01*
X0157197Y0014284D01*
X0156894Y0014235D01*
X0156590Y0014194D01*
X0156285Y0014160D01*
X0155980Y0014134D01*
X0155673Y0014115D01*
X0155367Y0014104D01*
X0155060Y0014100D01*
X0154753Y0014104D01*
X0154447Y0014115D01*
X0154140Y0014134D01*
X0153835Y0014160D01*
X0153530Y0014194D01*
X0153226Y0014235D01*
X0152923Y0014284D01*
X0152621Y0014340D01*
X0152321Y0014404D01*
X0152023Y0014475D01*
X0151726Y0014553D01*
X0151431Y0014638D01*
X0151139Y0014731D01*
X0150849Y0014831D01*
X0150561Y0014938D01*
X0150276Y0015052D01*
X0149994Y0015172D01*
X0149716Y0015300D01*
X0149440Y0015435D01*
X0149168Y0015576D01*
X0148899Y0015724D01*
X0148634Y0015878D01*
X0148373Y0016039D01*
X0148115Y0016207D01*
X0147862Y0016380D01*
X0147614Y0016560D01*
X0147370Y0016746D01*
X0147130Y0016937D01*
X0146895Y0017135D01*
X0146666Y0017338D01*
X0146441Y0017547D01*
X0146221Y0017761D01*
X0146007Y0017981D01*
X0145798Y0018206D01*
X0145595Y0018435D01*
X0145397Y0018670D01*
X0145206Y0018910D01*
X0145020Y0019154D01*
X0144840Y0019402D01*
X0144667Y0019655D01*
X0144499Y0019913D01*
X0144338Y0020174D01*
X0144184Y0020439D01*
X0144036Y0020708D01*
X0143895Y0020980D01*
X0143760Y0021256D01*
X0143632Y0021534D01*
X0143512Y0021816D01*
X0143398Y0022101D01*
X0143291Y0022389D01*
X0143191Y0022679D01*
X0143098Y0022971D01*
X0143013Y0023266D01*
X0142935Y0023563D01*
X0142864Y0023861D01*
X0142800Y0024161D01*
X0142744Y0024463D01*
X0142695Y0024766D01*
X0142654Y0025070D01*
X0142620Y0025375D01*
X0142594Y0025680D01*
X0142575Y0025987D01*
X0142564Y0026293D01*
X0142560Y0026600D01*
X0042560Y0026600D02*
X0042564Y0026907D01*
X0042575Y0027213D01*
X0042594Y0027520D01*
X0042620Y0027825D01*
X0042654Y0028130D01*
X0042695Y0028434D01*
X0042744Y0028737D01*
X0042800Y0029039D01*
X0042864Y0029339D01*
X0042935Y0029637D01*
X0043013Y0029934D01*
X0043098Y0030229D01*
X0043191Y0030521D01*
X0043291Y0030811D01*
X0043398Y0031099D01*
X0043512Y0031384D01*
X0043632Y0031666D01*
X0043760Y0031944D01*
X0043895Y0032220D01*
X0044036Y0032492D01*
X0044184Y0032761D01*
X0044338Y0033026D01*
X0044499Y0033287D01*
X0044667Y0033545D01*
X0044840Y0033798D01*
X0045020Y0034046D01*
X0045206Y0034290D01*
X0045397Y0034530D01*
X0045595Y0034765D01*
X0045798Y0034994D01*
X0046007Y0035219D01*
X0046221Y0035439D01*
X0046441Y0035653D01*
X0046666Y0035862D01*
X0046895Y0036065D01*
X0047130Y0036263D01*
X0047370Y0036454D01*
X0047614Y0036640D01*
X0047862Y0036820D01*
X0048115Y0036993D01*
X0048373Y0037161D01*
X0048634Y0037322D01*
X0048899Y0037476D01*
X0049168Y0037624D01*
X0049440Y0037765D01*
X0049716Y0037900D01*
X0049994Y0038028D01*
X0050276Y0038148D01*
X0050561Y0038262D01*
X0050849Y0038369D01*
X0051139Y0038469D01*
X0051431Y0038562D01*
X0051726Y0038647D01*
X0052023Y0038725D01*
X0052321Y0038796D01*
X0052621Y0038860D01*
X0052923Y0038916D01*
X0053226Y0038965D01*
X0053530Y0039006D01*
X0053835Y0039040D01*
X0054140Y0039066D01*
X0054447Y0039085D01*
X0054753Y0039096D01*
X0055060Y0039100D01*
X0055367Y0039096D01*
X0055673Y0039085D01*
X0055980Y0039066D01*
X0056285Y0039040D01*
X0056590Y0039006D01*
X0056894Y0038965D01*
X0057197Y0038916D01*
X0057499Y0038860D01*
X0057799Y0038796D01*
X0058097Y0038725D01*
X0058394Y0038647D01*
X0058689Y0038562D01*
X0058981Y0038469D01*
X0059271Y0038369D01*
X0059559Y0038262D01*
X0059844Y0038148D01*
X0060126Y0038028D01*
X0060404Y0037900D01*
X0060680Y0037765D01*
X0060952Y0037624D01*
X0061221Y0037476D01*
X0061486Y0037322D01*
X0061747Y0037161D01*
X0062005Y0036993D01*
X0062258Y0036820D01*
X0062506Y0036640D01*
X0062750Y0036454D01*
X0062990Y0036263D01*
X0063225Y0036065D01*
X0063454Y0035862D01*
X0063679Y0035653D01*
X0063899Y0035439D01*
X0064113Y0035219D01*
X0064322Y0034994D01*
X0064525Y0034765D01*
X0064723Y0034530D01*
X0064914Y0034290D01*
X0065100Y0034046D01*
X0065280Y0033798D01*
X0065453Y0033545D01*
X0065621Y0033287D01*
X0065782Y0033026D01*
X0065936Y0032761D01*
X0066084Y0032492D01*
X0066225Y0032220D01*
X0066360Y0031944D01*
X0066488Y0031666D01*
X0066608Y0031384D01*
X0066722Y0031099D01*
X0066829Y0030811D01*
X0066929Y0030521D01*
X0067022Y0030229D01*
X0067107Y0029934D01*
X0067185Y0029637D01*
X0067256Y0029339D01*
X0067320Y0029039D01*
X0067376Y0028737D01*
X0067425Y0028434D01*
X0067466Y0028130D01*
X0067500Y0027825D01*
X0067526Y0027520D01*
X0067545Y0027213D01*
X0067556Y0026907D01*
X0067560Y0026600D01*
X0067556Y0026293D01*
X0067545Y0025987D01*
X0067526Y0025680D01*
X0067500Y0025375D01*
X0067466Y0025070D01*
X0067425Y0024766D01*
X0067376Y0024463D01*
X0067320Y0024161D01*
X0067256Y0023861D01*
X0067185Y0023563D01*
X0067107Y0023266D01*
X0067022Y0022971D01*
X0066929Y0022679D01*
X0066829Y0022389D01*
X0066722Y0022101D01*
X0066608Y0021816D01*
X0066488Y0021534D01*
X0066360Y0021256D01*
X0066225Y0020980D01*
X0066084Y0020708D01*
X0065936Y0020439D01*
X0065782Y0020174D01*
X0065621Y0019913D01*
X0065453Y0019655D01*
X0065280Y0019402D01*
X0065100Y0019154D01*
X0064914Y0018910D01*
X0064723Y0018670D01*
X0064525Y0018435D01*
X0064322Y0018206D01*
X0064113Y0017981D01*
X0063899Y0017761D01*
X0063679Y0017547D01*
X0063454Y0017338D01*
X0063225Y0017135D01*
X0062990Y0016937D01*
X0062750Y0016746D01*
X0062506Y0016560D01*
X0062258Y0016380D01*
X0062005Y0016207D01*
X0061747Y0016039D01*
X0061486Y0015878D01*
X0061221Y0015724D01*
X0060952Y0015576D01*
X0060680Y0015435D01*
X0060404Y0015300D01*
X0060126Y0015172D01*
X0059844Y0015052D01*
X0059559Y0014938D01*
X0059271Y0014831D01*
X0058981Y0014731D01*
X0058689Y0014638D01*
X0058394Y0014553D01*
X0058097Y0014475D01*
X0057799Y0014404D01*
X0057499Y0014340D01*
X0057197Y0014284D01*
X0056894Y0014235D01*
X0056590Y0014194D01*
X0056285Y0014160D01*
X0055980Y0014134D01*
X0055673Y0014115D01*
X0055367Y0014104D01*
X0055060Y0014100D01*
X0054753Y0014104D01*
X0054447Y0014115D01*
X0054140Y0014134D01*
X0053835Y0014160D01*
X0053530Y0014194D01*
X0053226Y0014235D01*
X0052923Y0014284D01*
X0052621Y0014340D01*
X0052321Y0014404D01*
X0052023Y0014475D01*
X0051726Y0014553D01*
X0051431Y0014638D01*
X0051139Y0014731D01*
X0050849Y0014831D01*
X0050561Y0014938D01*
X0050276Y0015052D01*
X0049994Y0015172D01*
X0049716Y0015300D01*
X0049440Y0015435D01*
X0049168Y0015576D01*
X0048899Y0015724D01*
X0048634Y0015878D01*
X0048373Y0016039D01*
X0048115Y0016207D01*
X0047862Y0016380D01*
X0047614Y0016560D01*
X0047370Y0016746D01*
X0047130Y0016937D01*
X0046895Y0017135D01*
X0046666Y0017338D01*
X0046441Y0017547D01*
X0046221Y0017761D01*
X0046007Y0017981D01*
X0045798Y0018206D01*
X0045595Y0018435D01*
X0045397Y0018670D01*
X0045206Y0018910D01*
X0045020Y0019154D01*
X0044840Y0019402D01*
X0044667Y0019655D01*
X0044499Y0019913D01*
X0044338Y0020174D01*
X0044184Y0020439D01*
X0044036Y0020708D01*
X0043895Y0020980D01*
X0043760Y0021256D01*
X0043632Y0021534D01*
X0043512Y0021816D01*
X0043398Y0022101D01*
X0043291Y0022389D01*
X0043191Y0022679D01*
X0043098Y0022971D01*
X0043013Y0023266D01*
X0042935Y0023563D01*
X0042864Y0023861D01*
X0042800Y0024161D01*
X0042744Y0024463D01*
X0042695Y0024766D01*
X0042654Y0025070D01*
X0042620Y0025375D01*
X0042594Y0025680D01*
X0042575Y0025987D01*
X0042564Y0026293D01*
X0042560Y0026600D01*
D17*
X0015060Y0029100D02*
X0012560Y0026600D01*
X0007560Y0026600D01*
X0005060Y0029100D01*
X0005060Y0034100D01*
X0007560Y0036600D01*
X0005060Y0039100D01*
X0005060Y0044100D01*
X0007560Y0046600D01*
X0005060Y0049100D01*
X0005060Y0054100D01*
X0007560Y0056600D01*
X0005060Y0059100D01*
X0005060Y0064100D01*
X0007560Y0066600D01*
X0005060Y0069100D01*
X0005060Y0074100D01*
X0007560Y0076600D01*
X0012560Y0076600D01*
X0015060Y0074100D01*
X0015060Y0069100D01*
X0012560Y0066600D01*
X0015060Y0064100D01*
X0015060Y0059100D01*
X0012560Y0056600D01*
X0015060Y0054100D01*
X0015060Y0049100D01*
X0012560Y0046600D01*
X0015060Y0044100D01*
X0015060Y0039100D01*
X0012560Y0036600D01*
X0015060Y0034100D01*
X0015060Y0029100D01*
X0098367Y0051600D02*
X0098369Y0051764D01*
X0098375Y0051928D01*
X0098385Y0052092D01*
X0098399Y0052256D01*
X0098417Y0052419D01*
X0098439Y0052582D01*
X0098466Y0052744D01*
X0098496Y0052906D01*
X0098530Y0053066D01*
X0098568Y0053226D01*
X0098609Y0053385D01*
X0098655Y0053543D01*
X0098705Y0053699D01*
X0098758Y0053855D01*
X0098815Y0054009D01*
X0098876Y0054161D01*
X0098941Y0054312D01*
X0099010Y0054462D01*
X0099082Y0054609D01*
X0099157Y0054755D01*
X0099237Y0054899D01*
X0099319Y0055041D01*
X0099405Y0055181D01*
X0099495Y0055318D01*
X0099588Y0055454D01*
X0099684Y0055587D01*
X0099784Y0055718D01*
X0099886Y0055846D01*
X0099992Y0055972D01*
X0100101Y0056095D01*
X0100213Y0056215D01*
X0100327Y0056333D01*
X0100445Y0056447D01*
X0100565Y0056559D01*
X0100688Y0056668D01*
X0100814Y0056774D01*
X0100942Y0056876D01*
X0101073Y0056976D01*
X0101206Y0057072D01*
X0101342Y0057165D01*
X0101479Y0057255D01*
X0101619Y0057341D01*
X0101761Y0057423D01*
X0101905Y0057503D01*
X0102051Y0057578D01*
X0102198Y0057650D01*
X0102348Y0057719D01*
X0102499Y0057784D01*
X0102651Y0057845D01*
X0102805Y0057902D01*
X0102961Y0057955D01*
X0103117Y0058005D01*
X0103275Y0058051D01*
X0103434Y0058092D01*
X0103594Y0058130D01*
X0103754Y0058164D01*
X0103916Y0058194D01*
X0104078Y0058221D01*
X0104241Y0058243D01*
X0104404Y0058261D01*
X0104568Y0058275D01*
X0104732Y0058285D01*
X0104896Y0058291D01*
X0105060Y0058293D01*
X0105224Y0058291D01*
X0105388Y0058285D01*
X0105552Y0058275D01*
X0105716Y0058261D01*
X0105879Y0058243D01*
X0106042Y0058221D01*
X0106204Y0058194D01*
X0106366Y0058164D01*
X0106526Y0058130D01*
X0106686Y0058092D01*
X0106845Y0058051D01*
X0107003Y0058005D01*
X0107159Y0057955D01*
X0107315Y0057902D01*
X0107469Y0057845D01*
X0107621Y0057784D01*
X0107772Y0057719D01*
X0107922Y0057650D01*
X0108069Y0057578D01*
X0108215Y0057503D01*
X0108359Y0057423D01*
X0108501Y0057341D01*
X0108641Y0057255D01*
X0108778Y0057165D01*
X0108914Y0057072D01*
X0109047Y0056976D01*
X0109178Y0056876D01*
X0109306Y0056774D01*
X0109432Y0056668D01*
X0109555Y0056559D01*
X0109675Y0056447D01*
X0109793Y0056333D01*
X0109907Y0056215D01*
X0110019Y0056095D01*
X0110128Y0055972D01*
X0110234Y0055846D01*
X0110336Y0055718D01*
X0110436Y0055587D01*
X0110532Y0055454D01*
X0110625Y0055318D01*
X0110715Y0055181D01*
X0110801Y0055041D01*
X0110883Y0054899D01*
X0110963Y0054755D01*
X0111038Y0054609D01*
X0111110Y0054462D01*
X0111179Y0054312D01*
X0111244Y0054161D01*
X0111305Y0054009D01*
X0111362Y0053855D01*
X0111415Y0053699D01*
X0111465Y0053543D01*
X0111511Y0053385D01*
X0111552Y0053226D01*
X0111590Y0053066D01*
X0111624Y0052906D01*
X0111654Y0052744D01*
X0111681Y0052582D01*
X0111703Y0052419D01*
X0111721Y0052256D01*
X0111735Y0052092D01*
X0111745Y0051928D01*
X0111751Y0051764D01*
X0111753Y0051600D01*
X0111751Y0051436D01*
X0111745Y0051272D01*
X0111735Y0051108D01*
X0111721Y0050944D01*
X0111703Y0050781D01*
X0111681Y0050618D01*
X0111654Y0050456D01*
X0111624Y0050294D01*
X0111590Y0050134D01*
X0111552Y0049974D01*
X0111511Y0049815D01*
X0111465Y0049657D01*
X0111415Y0049501D01*
X0111362Y0049345D01*
X0111305Y0049191D01*
X0111244Y0049039D01*
X0111179Y0048888D01*
X0111110Y0048738D01*
X0111038Y0048591D01*
X0110963Y0048445D01*
X0110883Y0048301D01*
X0110801Y0048159D01*
X0110715Y0048019D01*
X0110625Y0047882D01*
X0110532Y0047746D01*
X0110436Y0047613D01*
X0110336Y0047482D01*
X0110234Y0047354D01*
X0110128Y0047228D01*
X0110019Y0047105D01*
X0109907Y0046985D01*
X0109793Y0046867D01*
X0109675Y0046753D01*
X0109555Y0046641D01*
X0109432Y0046532D01*
X0109306Y0046426D01*
X0109178Y0046324D01*
X0109047Y0046224D01*
X0108914Y0046128D01*
X0108778Y0046035D01*
X0108641Y0045945D01*
X0108501Y0045859D01*
X0108359Y0045777D01*
X0108215Y0045697D01*
X0108069Y0045622D01*
X0107922Y0045550D01*
X0107772Y0045481D01*
X0107621Y0045416D01*
X0107469Y0045355D01*
X0107315Y0045298D01*
X0107159Y0045245D01*
X0107003Y0045195D01*
X0106845Y0045149D01*
X0106686Y0045108D01*
X0106526Y0045070D01*
X0106366Y0045036D01*
X0106204Y0045006D01*
X0106042Y0044979D01*
X0105879Y0044957D01*
X0105716Y0044939D01*
X0105552Y0044925D01*
X0105388Y0044915D01*
X0105224Y0044909D01*
X0105060Y0044907D01*
X0104896Y0044909D01*
X0104732Y0044915D01*
X0104568Y0044925D01*
X0104404Y0044939D01*
X0104241Y0044957D01*
X0104078Y0044979D01*
X0103916Y0045006D01*
X0103754Y0045036D01*
X0103594Y0045070D01*
X0103434Y0045108D01*
X0103275Y0045149D01*
X0103117Y0045195D01*
X0102961Y0045245D01*
X0102805Y0045298D01*
X0102651Y0045355D01*
X0102499Y0045416D01*
X0102348Y0045481D01*
X0102198Y0045550D01*
X0102051Y0045622D01*
X0101905Y0045697D01*
X0101761Y0045777D01*
X0101619Y0045859D01*
X0101479Y0045945D01*
X0101342Y0046035D01*
X0101206Y0046128D01*
X0101073Y0046224D01*
X0100942Y0046324D01*
X0100814Y0046426D01*
X0100688Y0046532D01*
X0100565Y0046641D01*
X0100445Y0046753D01*
X0100327Y0046867D01*
X0100213Y0046985D01*
X0100101Y0047105D01*
X0099992Y0047228D01*
X0099886Y0047354D01*
X0099784Y0047482D01*
X0099684Y0047613D01*
X0099588Y0047746D01*
X0099495Y0047882D01*
X0099405Y0048019D01*
X0099319Y0048159D01*
X0099237Y0048301D01*
X0099157Y0048445D01*
X0099082Y0048591D01*
X0099010Y0048738D01*
X0098941Y0048888D01*
X0098876Y0049039D01*
X0098815Y0049191D01*
X0098758Y0049345D01*
X0098705Y0049501D01*
X0098655Y0049657D01*
X0098609Y0049815D01*
X0098568Y0049974D01*
X0098530Y0050134D01*
X0098496Y0050294D01*
X0098466Y0050456D01*
X0098439Y0050618D01*
X0098417Y0050781D01*
X0098399Y0050944D01*
X0098385Y0051108D01*
X0098375Y0051272D01*
X0098369Y0051436D01*
X0098367Y0051600D01*
X0198367Y0051600D02*
X0198369Y0051764D01*
X0198375Y0051928D01*
X0198385Y0052092D01*
X0198399Y0052256D01*
X0198417Y0052419D01*
X0198439Y0052582D01*
X0198466Y0052744D01*
X0198496Y0052906D01*
X0198530Y0053066D01*
X0198568Y0053226D01*
X0198609Y0053385D01*
X0198655Y0053543D01*
X0198705Y0053699D01*
X0198758Y0053855D01*
X0198815Y0054009D01*
X0198876Y0054161D01*
X0198941Y0054312D01*
X0199010Y0054462D01*
X0199082Y0054609D01*
X0199157Y0054755D01*
X0199237Y0054899D01*
X0199319Y0055041D01*
X0199405Y0055181D01*
X0199495Y0055318D01*
X0199588Y0055454D01*
X0199684Y0055587D01*
X0199784Y0055718D01*
X0199886Y0055846D01*
X0199992Y0055972D01*
X0200101Y0056095D01*
X0200213Y0056215D01*
X0200327Y0056333D01*
X0200445Y0056447D01*
X0200565Y0056559D01*
X0200688Y0056668D01*
X0200814Y0056774D01*
X0200942Y0056876D01*
X0201073Y0056976D01*
X0201206Y0057072D01*
X0201342Y0057165D01*
X0201479Y0057255D01*
X0201619Y0057341D01*
X0201761Y0057423D01*
X0201905Y0057503D01*
X0202051Y0057578D01*
X0202198Y0057650D01*
X0202348Y0057719D01*
X0202499Y0057784D01*
X0202651Y0057845D01*
X0202805Y0057902D01*
X0202961Y0057955D01*
X0203117Y0058005D01*
X0203275Y0058051D01*
X0203434Y0058092D01*
X0203594Y0058130D01*
X0203754Y0058164D01*
X0203916Y0058194D01*
X0204078Y0058221D01*
X0204241Y0058243D01*
X0204404Y0058261D01*
X0204568Y0058275D01*
X0204732Y0058285D01*
X0204896Y0058291D01*
X0205060Y0058293D01*
X0205224Y0058291D01*
X0205388Y0058285D01*
X0205552Y0058275D01*
X0205716Y0058261D01*
X0205879Y0058243D01*
X0206042Y0058221D01*
X0206204Y0058194D01*
X0206366Y0058164D01*
X0206526Y0058130D01*
X0206686Y0058092D01*
X0206845Y0058051D01*
X0207003Y0058005D01*
X0207159Y0057955D01*
X0207315Y0057902D01*
X0207469Y0057845D01*
X0207621Y0057784D01*
X0207772Y0057719D01*
X0207922Y0057650D01*
X0208069Y0057578D01*
X0208215Y0057503D01*
X0208359Y0057423D01*
X0208501Y0057341D01*
X0208641Y0057255D01*
X0208778Y0057165D01*
X0208914Y0057072D01*
X0209047Y0056976D01*
X0209178Y0056876D01*
X0209306Y0056774D01*
X0209432Y0056668D01*
X0209555Y0056559D01*
X0209675Y0056447D01*
X0209793Y0056333D01*
X0209907Y0056215D01*
X0210019Y0056095D01*
X0210128Y0055972D01*
X0210234Y0055846D01*
X0210336Y0055718D01*
X0210436Y0055587D01*
X0210532Y0055454D01*
X0210625Y0055318D01*
X0210715Y0055181D01*
X0210801Y0055041D01*
X0210883Y0054899D01*
X0210963Y0054755D01*
X0211038Y0054609D01*
X0211110Y0054462D01*
X0211179Y0054312D01*
X0211244Y0054161D01*
X0211305Y0054009D01*
X0211362Y0053855D01*
X0211415Y0053699D01*
X0211465Y0053543D01*
X0211511Y0053385D01*
X0211552Y0053226D01*
X0211590Y0053066D01*
X0211624Y0052906D01*
X0211654Y0052744D01*
X0211681Y0052582D01*
X0211703Y0052419D01*
X0211721Y0052256D01*
X0211735Y0052092D01*
X0211745Y0051928D01*
X0211751Y0051764D01*
X0211753Y0051600D01*
X0211751Y0051436D01*
X0211745Y0051272D01*
X0211735Y0051108D01*
X0211721Y0050944D01*
X0211703Y0050781D01*
X0211681Y0050618D01*
X0211654Y0050456D01*
X0211624Y0050294D01*
X0211590Y0050134D01*
X0211552Y0049974D01*
X0211511Y0049815D01*
X0211465Y0049657D01*
X0211415Y0049501D01*
X0211362Y0049345D01*
X0211305Y0049191D01*
X0211244Y0049039D01*
X0211179Y0048888D01*
X0211110Y0048738D01*
X0211038Y0048591D01*
X0210963Y0048445D01*
X0210883Y0048301D01*
X0210801Y0048159D01*
X0210715Y0048019D01*
X0210625Y0047882D01*
X0210532Y0047746D01*
X0210436Y0047613D01*
X0210336Y0047482D01*
X0210234Y0047354D01*
X0210128Y0047228D01*
X0210019Y0047105D01*
X0209907Y0046985D01*
X0209793Y0046867D01*
X0209675Y0046753D01*
X0209555Y0046641D01*
X0209432Y0046532D01*
X0209306Y0046426D01*
X0209178Y0046324D01*
X0209047Y0046224D01*
X0208914Y0046128D01*
X0208778Y0046035D01*
X0208641Y0045945D01*
X0208501Y0045859D01*
X0208359Y0045777D01*
X0208215Y0045697D01*
X0208069Y0045622D01*
X0207922Y0045550D01*
X0207772Y0045481D01*
X0207621Y0045416D01*
X0207469Y0045355D01*
X0207315Y0045298D01*
X0207159Y0045245D01*
X0207003Y0045195D01*
X0206845Y0045149D01*
X0206686Y0045108D01*
X0206526Y0045070D01*
X0206366Y0045036D01*
X0206204Y0045006D01*
X0206042Y0044979D01*
X0205879Y0044957D01*
X0205716Y0044939D01*
X0205552Y0044925D01*
X0205388Y0044915D01*
X0205224Y0044909D01*
X0205060Y0044907D01*
X0204896Y0044909D01*
X0204732Y0044915D01*
X0204568Y0044925D01*
X0204404Y0044939D01*
X0204241Y0044957D01*
X0204078Y0044979D01*
X0203916Y0045006D01*
X0203754Y0045036D01*
X0203594Y0045070D01*
X0203434Y0045108D01*
X0203275Y0045149D01*
X0203117Y0045195D01*
X0202961Y0045245D01*
X0202805Y0045298D01*
X0202651Y0045355D01*
X0202499Y0045416D01*
X0202348Y0045481D01*
X0202198Y0045550D01*
X0202051Y0045622D01*
X0201905Y0045697D01*
X0201761Y0045777D01*
X0201619Y0045859D01*
X0201479Y0045945D01*
X0201342Y0046035D01*
X0201206Y0046128D01*
X0201073Y0046224D01*
X0200942Y0046324D01*
X0200814Y0046426D01*
X0200688Y0046532D01*
X0200565Y0046641D01*
X0200445Y0046753D01*
X0200327Y0046867D01*
X0200213Y0046985D01*
X0200101Y0047105D01*
X0199992Y0047228D01*
X0199886Y0047354D01*
X0199784Y0047482D01*
X0199684Y0047613D01*
X0199588Y0047746D01*
X0199495Y0047882D01*
X0199405Y0048019D01*
X0199319Y0048159D01*
X0199237Y0048301D01*
X0199157Y0048445D01*
X0199082Y0048591D01*
X0199010Y0048738D01*
X0198941Y0048888D01*
X0198876Y0049039D01*
X0198815Y0049191D01*
X0198758Y0049345D01*
X0198705Y0049501D01*
X0198655Y0049657D01*
X0198609Y0049815D01*
X0198568Y0049974D01*
X0198530Y0050134D01*
X0198496Y0050294D01*
X0198466Y0050456D01*
X0198439Y0050618D01*
X0198417Y0050781D01*
X0198399Y0050944D01*
X0198385Y0051108D01*
X0198375Y0051272D01*
X0198369Y0051436D01*
X0198367Y0051600D01*
X0295060Y0049100D02*
X0297560Y0046600D01*
X0295060Y0044100D01*
X0295060Y0039100D01*
X0297560Y0036600D01*
X0295060Y0034100D01*
X0295060Y0029100D01*
X0297560Y0026600D01*
X0302560Y0026600D01*
X0305060Y0029100D01*
X0305060Y0034100D01*
X0302560Y0036600D01*
X0305060Y0039100D01*
X0305060Y0044100D01*
X0302560Y0046600D01*
X0305060Y0049100D01*
X0305060Y0054100D01*
X0302560Y0056600D01*
X0305060Y0059100D01*
X0305060Y0064100D01*
X0302560Y0066600D01*
X0305060Y0069100D01*
X0305060Y0074100D01*
X0302560Y0076600D01*
X0297560Y0076600D01*
X0295060Y0074100D01*
X0295060Y0069100D01*
X0297560Y0066600D01*
X0295060Y0064100D01*
X0295060Y0059100D01*
X0297560Y0056600D01*
X0295060Y0054100D01*
X0295060Y0049100D01*
X0032560Y0091600D02*
X0032560Y0096600D01*
X0030060Y0099100D01*
X0025060Y0099100D01*
X0022560Y0096600D01*
X0020060Y0099100D01*
X0015060Y0099100D01*
X0012560Y0096600D01*
X0012560Y0091600D01*
X0015060Y0089100D01*
X0020060Y0089100D01*
X0022560Y0091600D01*
X0025060Y0089100D01*
X0030060Y0089100D01*
X0032560Y0091600D01*
M02*
