G75*
%MOIN*%
%OFA0B0*%
%FSLAX25Y25*%
%IPPOS*%
%LPD*%
%AMOC8*
5,1,8,0,0,1.08239X$1,22.5*
%
%ADD10C,0.08400*%
%ADD11R,0.05131X0.04737*%
%ADD12C,0.08200*%
%ADD13C,0.13398*%
%ADD14R,0.04737X0.05131*%
%ADD15R,0.05918X0.05524*%
D10*
X0055060Y0016760D03*
X0055060Y0036440D03*
X0155060Y0036440D03*
X0155060Y0016760D03*
X0255060Y0016760D03*
X0255060Y0036440D03*
D11*
X0258406Y0051600D03*
X0251714Y0051600D03*
X0158406Y0051600D03*
X0151714Y0051600D03*
X0058406Y0051600D03*
X0051714Y0051600D03*
D12*
X0010060Y0051600D03*
X0010060Y0041600D03*
X0010060Y0031600D03*
X0010060Y0061600D03*
X0010060Y0071600D03*
X0017560Y0094100D03*
X0027560Y0094100D03*
X0300060Y0071600D03*
X0300060Y0061600D03*
X0300060Y0051600D03*
X0300060Y0041600D03*
X0300060Y0031600D03*
D13*
X0205060Y0051600D03*
X0105060Y0051600D03*
D14*
X0120560Y0082754D03*
X0120560Y0089446D03*
X0076560Y0089446D03*
X0076560Y0082754D03*
X0234560Y0082754D03*
X0234560Y0089446D03*
D15*
X0245808Y0083096D03*
X0264312Y0083096D03*
X0264312Y0070104D03*
X0245808Y0070104D03*
X0164312Y0070104D03*
X0145808Y0070104D03*
X0145808Y0083096D03*
X0164312Y0083096D03*
X0064312Y0083096D03*
X0045808Y0083096D03*
X0045808Y0070104D03*
X0064312Y0070104D03*
M02*
