G75*
%MOIN*%
%OFA0B0*%
%FSLAX25Y25*%
%IPPOS*%
%LPD*%
%AMOC8*
5,1,8,0,0,1.08239X$1,22.5*
%
%ADD10C,0.07600*%
%ADD11C,0.07400*%
%ADD12C,0.02400*%
%ADD13C,0.03150*%
%ADD14C,0.01000*%
D10*
X0055060Y0016760D03*
X0055060Y0036440D03*
X0155060Y0036440D03*
X0155060Y0016760D03*
X0255060Y0016760D03*
X0255060Y0036440D03*
D11*
X0300060Y0031600D03*
X0300060Y0041600D03*
X0300060Y0051600D03*
X0300060Y0061600D03*
X0300060Y0071600D03*
X0027560Y0094100D03*
X0017560Y0094100D03*
X0010060Y0071600D03*
X0010060Y0061600D03*
X0010060Y0051600D03*
X0010060Y0041600D03*
X0010060Y0031600D03*
D12*
X0010060Y0041600D02*
X0017560Y0041600D01*
X0017560Y0094100D01*
X0027060Y0094100D02*
X0027060Y0051600D01*
X0027060Y0094100D02*
X0027560Y0094100D01*
X0287560Y0068600D02*
X0287560Y0051600D01*
X0300060Y0051600D01*
D13*
X0287560Y0068600D03*
X0230060Y0059100D03*
X0222560Y0084100D03*
X0128060Y0059100D03*
X0082060Y0054600D03*
X0027060Y0051600D03*
X0037060Y0084100D03*
X0112560Y0086600D03*
X0210060Y0023100D03*
X0252560Y0009100D03*
D14*
X0006560Y0003100D02*
X0006560Y0028029D01*
X0007228Y0027361D01*
X0009065Y0026600D01*
X0011055Y0026600D01*
X0012892Y0027361D01*
X0014299Y0028768D01*
X0015060Y0030605D01*
X0015060Y0032595D01*
X0014299Y0034432D01*
X0012892Y0035839D01*
X0011055Y0036600D01*
X0012892Y0037361D01*
X0014299Y0038768D01*
X0014436Y0039100D01*
X0018057Y0039100D01*
X0018976Y0039481D01*
X0019679Y0040184D01*
X0020060Y0041103D01*
X0020060Y0089724D01*
X0020392Y0089861D01*
X0021799Y0091268D01*
X0022560Y0093105D01*
X0023321Y0091268D01*
X0024560Y0090029D01*
X0024560Y0053077D01*
X0024185Y0052172D01*
X0024185Y0051028D01*
X0024623Y0049971D01*
X0025431Y0049163D01*
X0026488Y0048725D01*
X0027632Y0048725D01*
X0028689Y0049163D01*
X0029497Y0049971D01*
X0029935Y0051028D01*
X0029935Y0052172D01*
X0029560Y0053077D01*
X0029560Y0089516D01*
X0030392Y0089861D01*
X0031799Y0091268D01*
X0032560Y0093105D01*
X0032560Y0095095D01*
X0031799Y0096932D01*
X0030392Y0098339D01*
X0028555Y0099100D01*
X0026565Y0099100D01*
X0024728Y0098339D01*
X0023321Y0096932D01*
X0022560Y0095095D01*
X0022560Y0093105D01*
X0022560Y0095095D01*
X0021799Y0096932D01*
X0020392Y0098339D01*
X0018555Y0099100D01*
X0016565Y0099100D01*
X0014728Y0098339D01*
X0013321Y0096932D01*
X0012560Y0095095D01*
X0012560Y0093105D01*
X0013321Y0091268D01*
X0014728Y0089861D01*
X0015060Y0089724D01*
X0015060Y0073039D01*
X0014879Y0073596D01*
X0014507Y0074325D01*
X0014026Y0074988D01*
X0013448Y0075566D01*
X0012785Y0076047D01*
X0012056Y0076419D01*
X0011278Y0076672D01*
X0010560Y0076786D01*
X0010560Y0072100D01*
X0009560Y0072100D01*
X0009560Y0076786D01*
X0008842Y0076672D01*
X0008064Y0076419D01*
X0007335Y0076047D01*
X0006672Y0075566D01*
X0006560Y0075454D01*
X0006560Y0100100D01*
X0303560Y0100100D01*
X0303560Y0075454D01*
X0303448Y0075566D01*
X0302785Y0076047D01*
X0302056Y0076419D01*
X0301278Y0076672D01*
X0300560Y0076786D01*
X0300560Y0072100D01*
X0299560Y0072100D01*
X0299560Y0076786D01*
X0298842Y0076672D01*
X0298064Y0076419D01*
X0297335Y0076047D01*
X0296672Y0075566D01*
X0296094Y0074988D01*
X0295613Y0074325D01*
X0295241Y0073596D01*
X0294988Y0072818D01*
X0294874Y0072100D01*
X0299560Y0072100D01*
X0299560Y0071100D01*
X0294874Y0071100D01*
X0294988Y0070382D01*
X0295241Y0069604D01*
X0295613Y0068875D01*
X0296094Y0068212D01*
X0296672Y0067634D01*
X0297335Y0067153D01*
X0298064Y0066781D01*
X0298842Y0066528D01*
X0298878Y0066522D01*
X0297228Y0065839D01*
X0295821Y0064432D01*
X0295060Y0062595D01*
X0295060Y0060605D01*
X0295821Y0058768D01*
X0297228Y0057361D01*
X0299065Y0056600D01*
X0297228Y0055839D01*
X0295821Y0054432D01*
X0295684Y0054100D01*
X0290060Y0054100D01*
X0290060Y0067123D01*
X0290435Y0068028D01*
X0290435Y0069172D01*
X0289997Y0070229D01*
X0289189Y0071037D01*
X0288132Y0071475D01*
X0286988Y0071475D01*
X0285931Y0071037D01*
X0285123Y0070229D01*
X0284685Y0069172D01*
X0284685Y0068028D01*
X0285060Y0067123D01*
X0285060Y0051103D01*
X0285441Y0050184D01*
X0286144Y0049481D01*
X0287063Y0049100D01*
X0295684Y0049100D01*
X0295821Y0048768D01*
X0297228Y0047361D01*
X0299065Y0046600D01*
X0297228Y0045839D01*
X0295821Y0044432D01*
X0295060Y0042595D01*
X0295060Y0040605D01*
X0295821Y0038768D01*
X0297228Y0037361D01*
X0299065Y0036600D01*
X0297228Y0035839D01*
X0295821Y0034432D01*
X0295060Y0032595D01*
X0295060Y0030605D01*
X0295821Y0028768D01*
X0297228Y0027361D01*
X0299065Y0026600D01*
X0301055Y0026600D01*
X0302892Y0027361D01*
X0303560Y0028029D01*
X0303560Y0003100D01*
X0006560Y0003100D01*
X0006560Y0003597D02*
X0303560Y0003597D01*
X0303560Y0004596D02*
X0006560Y0004596D01*
X0006560Y0005594D02*
X0303560Y0005594D01*
X0303560Y0006593D02*
X0006560Y0006593D01*
X0006560Y0007591D02*
X0303560Y0007591D01*
X0303560Y0008590D02*
X0006560Y0008590D01*
X0006560Y0009588D02*
X0303560Y0009588D01*
X0303560Y0010587D02*
X0006560Y0010587D01*
X0006560Y0011585D02*
X0303560Y0011585D01*
X0303560Y0012584D02*
X0258096Y0012584D01*
X0257949Y0012436D02*
X0256074Y0011660D01*
X0254046Y0011660D01*
X0252171Y0012436D01*
X0250736Y0013871D01*
X0249960Y0015746D01*
X0249960Y0017774D01*
X0250736Y0019649D01*
X0252171Y0021084D01*
X0254046Y0021860D01*
X0256074Y0021860D01*
X0257949Y0021084D01*
X0259384Y0019649D01*
X0260160Y0017774D01*
X0260160Y0015746D01*
X0259384Y0013871D01*
X0257949Y0012436D01*
X0259095Y0013582D02*
X0303560Y0013582D01*
X0303560Y0014581D02*
X0259677Y0014581D01*
X0260091Y0015579D02*
X0303560Y0015579D01*
X0303560Y0016578D02*
X0260160Y0016578D01*
X0260160Y0017576D02*
X0303560Y0017576D01*
X0303560Y0018575D02*
X0259829Y0018575D01*
X0259415Y0019573D02*
X0303560Y0019573D01*
X0303560Y0020572D02*
X0258461Y0020572D01*
X0256774Y0021570D02*
X0303560Y0021570D01*
X0303560Y0022569D02*
X0006560Y0022569D01*
X0006560Y0023567D02*
X0303560Y0023567D01*
X0303560Y0024566D02*
X0006560Y0024566D01*
X0006560Y0025564D02*
X0303560Y0025564D01*
X0303560Y0026563D02*
X0006560Y0026563D01*
X0006560Y0027561D02*
X0007028Y0027561D01*
X0013092Y0027561D02*
X0297028Y0027561D01*
X0296029Y0028560D02*
X0014091Y0028560D01*
X0014626Y0029558D02*
X0295494Y0029558D01*
X0295080Y0030557D02*
X0015040Y0030557D01*
X0015060Y0031555D02*
X0053526Y0031555D01*
X0054046Y0031340D02*
X0056074Y0031340D01*
X0057949Y0032116D01*
X0059384Y0033551D01*
X0060160Y0035426D01*
X0060160Y0037454D01*
X0059384Y0039329D01*
X0057949Y0040764D01*
X0056074Y0041540D01*
X0054046Y0041540D01*
X0052171Y0040764D01*
X0050736Y0039329D01*
X0049960Y0037454D01*
X0049960Y0035426D01*
X0050736Y0033551D01*
X0052171Y0032116D01*
X0054046Y0031340D01*
X0056594Y0031555D02*
X0153526Y0031555D01*
X0154046Y0031340D02*
X0156074Y0031340D01*
X0157949Y0032116D01*
X0159384Y0033551D01*
X0160160Y0035426D01*
X0160160Y0037454D01*
X0159384Y0039329D01*
X0157949Y0040764D01*
X0156074Y0041540D01*
X0154046Y0041540D01*
X0152171Y0040764D01*
X0150736Y0039329D01*
X0149960Y0037454D01*
X0149960Y0035426D01*
X0150736Y0033551D01*
X0152171Y0032116D01*
X0154046Y0031340D01*
X0156594Y0031555D02*
X0253526Y0031555D01*
X0254046Y0031340D02*
X0256074Y0031340D01*
X0257949Y0032116D01*
X0259384Y0033551D01*
X0260160Y0035426D01*
X0260160Y0037454D01*
X0259384Y0039329D01*
X0257949Y0040764D01*
X0256074Y0041540D01*
X0254046Y0041540D01*
X0252171Y0040764D01*
X0250736Y0039329D01*
X0249960Y0037454D01*
X0249960Y0035426D01*
X0250736Y0033551D01*
X0252171Y0032116D01*
X0254046Y0031340D01*
X0256594Y0031555D02*
X0295060Y0031555D01*
X0295060Y0032554D02*
X0258386Y0032554D01*
X0259384Y0033552D02*
X0295457Y0033552D01*
X0295940Y0034551D02*
X0259798Y0034551D01*
X0260160Y0035549D02*
X0296938Y0035549D01*
X0298940Y0036548D02*
X0260160Y0036548D01*
X0260122Y0037546D02*
X0297043Y0037546D01*
X0296044Y0038545D02*
X0259708Y0038545D01*
X0259169Y0039543D02*
X0295500Y0039543D01*
X0295086Y0040542D02*
X0258171Y0040542D01*
X0251949Y0040542D02*
X0217057Y0040542D01*
X0217983Y0041540D02*
X0295060Y0041540D01*
X0295060Y0042539D02*
X0218805Y0042539D01*
X0218693Y0042305D02*
X0220827Y0046737D01*
X0221560Y0051600D01*
X0220827Y0056463D01*
X0220827Y0056463D01*
X0218693Y0060895D01*
X0215348Y0064500D01*
X0215348Y0064500D01*
X0211088Y0066959D01*
X0206293Y0068054D01*
X0201388Y0067686D01*
X0196810Y0065889D01*
X0192965Y0062823D01*
X0190194Y0058759D01*
X0188744Y0054059D01*
X0188744Y0049141D01*
X0190194Y0044441D01*
X0192965Y0040377D01*
X0196810Y0037311D01*
X0201388Y0035514D01*
X0201388Y0035514D01*
X0206293Y0035146D01*
X0211088Y0036241D01*
X0211088Y0036241D01*
X0215348Y0038700D01*
X0218693Y0042305D01*
X0218693Y0042305D01*
X0219286Y0043537D02*
X0295451Y0043537D01*
X0295925Y0044536D02*
X0219767Y0044536D01*
X0220248Y0045534D02*
X0296923Y0045534D01*
X0298904Y0046533D02*
X0220729Y0046533D01*
X0220827Y0046737D02*
X0220827Y0046737D01*
X0220947Y0047532D02*
X0297057Y0047532D01*
X0296059Y0048530D02*
X0221097Y0048530D01*
X0221248Y0049529D02*
X0286096Y0049529D01*
X0285298Y0050527D02*
X0221398Y0050527D01*
X0221549Y0051526D02*
X0285060Y0051526D01*
X0285060Y0052524D02*
X0221421Y0052524D01*
X0221270Y0053523D02*
X0285060Y0053523D01*
X0285060Y0054521D02*
X0221120Y0054521D01*
X0220969Y0055520D02*
X0285060Y0055520D01*
X0285060Y0056518D02*
X0220801Y0056518D01*
X0220320Y0057517D02*
X0285060Y0057517D01*
X0285060Y0058515D02*
X0219839Y0058515D01*
X0219358Y0059514D02*
X0285060Y0059514D01*
X0285060Y0060512D02*
X0218877Y0060512D01*
X0218693Y0060895D02*
X0218693Y0060895D01*
X0218121Y0061511D02*
X0285060Y0061511D01*
X0285060Y0062509D02*
X0217195Y0062509D01*
X0216268Y0063508D02*
X0285060Y0063508D01*
X0285060Y0064506D02*
X0215337Y0064506D01*
X0213608Y0065505D02*
X0285060Y0065505D01*
X0285060Y0066503D02*
X0211878Y0066503D01*
X0211088Y0066959D02*
X0211088Y0066959D01*
X0208712Y0067502D02*
X0284903Y0067502D01*
X0284685Y0068500D02*
X0029560Y0068500D01*
X0029560Y0067502D02*
X0100918Y0067502D01*
X0101388Y0067686D02*
X0096810Y0065889D01*
X0092965Y0062823D01*
X0092965Y0062823D01*
X0090194Y0058759D01*
X0088744Y0054059D01*
X0088744Y0049141D01*
X0090194Y0044441D01*
X0090194Y0044441D01*
X0092965Y0040377D01*
X0096810Y0037311D01*
X0101388Y0035514D01*
X0101388Y0035514D01*
X0106293Y0035146D01*
X0111088Y0036241D01*
X0111088Y0036241D01*
X0115348Y0038700D01*
X0118693Y0042305D01*
X0118693Y0042305D01*
X0120827Y0046737D01*
X0121560Y0051600D01*
X0120827Y0056463D01*
X0120827Y0056463D01*
X0118693Y0060895D01*
X0115348Y0064500D01*
X0115348Y0064500D01*
X0111088Y0066959D01*
X0106293Y0068054D01*
X0101388Y0067686D01*
X0101388Y0067686D01*
X0098374Y0066503D02*
X0029560Y0066503D01*
X0029560Y0065505D02*
X0096328Y0065505D01*
X0096810Y0065889D02*
X0096810Y0065889D01*
X0095076Y0064506D02*
X0029560Y0064506D01*
X0029560Y0063508D02*
X0093823Y0063508D01*
X0092965Y0062823D02*
X0092965Y0062823D01*
X0092751Y0062509D02*
X0029560Y0062509D01*
X0029560Y0061511D02*
X0092070Y0061511D01*
X0091389Y0060512D02*
X0029560Y0060512D01*
X0029560Y0059514D02*
X0090708Y0059514D01*
X0090194Y0058759D02*
X0090194Y0058759D01*
X0090119Y0058515D02*
X0029560Y0058515D01*
X0029560Y0057517D02*
X0089811Y0057517D01*
X0089503Y0056518D02*
X0029560Y0056518D01*
X0029560Y0055520D02*
X0089195Y0055520D01*
X0088887Y0054521D02*
X0029560Y0054521D01*
X0029560Y0053523D02*
X0088744Y0053523D01*
X0088744Y0052524D02*
X0029789Y0052524D01*
X0029935Y0051526D02*
X0088744Y0051526D01*
X0088744Y0050527D02*
X0029727Y0050527D01*
X0029054Y0049529D02*
X0088744Y0049529D01*
X0088933Y0048530D02*
X0020060Y0048530D01*
X0020060Y0047532D02*
X0089241Y0047532D01*
X0089549Y0046533D02*
X0020060Y0046533D01*
X0020060Y0045534D02*
X0089857Y0045534D01*
X0090165Y0044536D02*
X0020060Y0044536D01*
X0020060Y0043537D02*
X0090810Y0043537D01*
X0091491Y0042539D02*
X0020060Y0042539D01*
X0020060Y0041540D02*
X0092171Y0041540D01*
X0092852Y0040542D02*
X0058171Y0040542D01*
X0059169Y0039543D02*
X0094010Y0039543D01*
X0092965Y0040377D02*
X0092965Y0040377D01*
X0092965Y0040377D01*
X0095262Y0038545D02*
X0059708Y0038545D01*
X0060122Y0037546D02*
X0096514Y0037546D01*
X0096810Y0037311D02*
X0096810Y0037311D01*
X0098753Y0036548D02*
X0060160Y0036548D01*
X0060160Y0035549D02*
X0101297Y0035549D01*
X0106293Y0035146D02*
X0106293Y0035146D01*
X0108060Y0035549D02*
X0149960Y0035549D01*
X0149960Y0036548D02*
X0111620Y0036548D01*
X0113350Y0037546D02*
X0149998Y0037546D01*
X0150412Y0038545D02*
X0115079Y0038545D01*
X0115348Y0038700D02*
X0115348Y0038700D01*
X0116130Y0039543D02*
X0150951Y0039543D01*
X0151949Y0040542D02*
X0117057Y0040542D01*
X0117983Y0041540D02*
X0192172Y0041540D01*
X0192852Y0040542D02*
X0158171Y0040542D01*
X0159169Y0039543D02*
X0194010Y0039543D01*
X0192965Y0040377D02*
X0192965Y0040377D01*
X0192965Y0040377D01*
X0195262Y0038545D02*
X0159708Y0038545D01*
X0160122Y0037546D02*
X0196514Y0037546D01*
X0196810Y0037311D02*
X0196810Y0037311D01*
X0198753Y0036548D02*
X0160160Y0036548D01*
X0160160Y0035549D02*
X0201297Y0035549D01*
X0206293Y0035146D02*
X0206293Y0035146D01*
X0208060Y0035549D02*
X0249960Y0035549D01*
X0249960Y0036548D02*
X0211620Y0036548D01*
X0213350Y0037546D02*
X0249998Y0037546D01*
X0250412Y0038545D02*
X0215079Y0038545D01*
X0215348Y0038700D02*
X0215348Y0038700D01*
X0216130Y0039543D02*
X0250951Y0039543D01*
X0250322Y0034551D02*
X0159798Y0034551D01*
X0159384Y0033552D02*
X0250736Y0033552D01*
X0251734Y0032554D02*
X0158386Y0032554D01*
X0151734Y0032554D02*
X0058386Y0032554D01*
X0059384Y0033552D02*
X0150736Y0033552D01*
X0150322Y0034551D02*
X0059798Y0034551D01*
X0051734Y0032554D02*
X0015060Y0032554D01*
X0014663Y0033552D02*
X0050736Y0033552D01*
X0050322Y0034551D02*
X0014180Y0034551D01*
X0013182Y0035549D02*
X0049960Y0035549D01*
X0049960Y0036548D02*
X0011180Y0036548D01*
X0011055Y0036600D02*
X0009065Y0036600D01*
X0007228Y0037361D01*
X0006560Y0038029D01*
X0006560Y0035171D01*
X0007228Y0035839D01*
X0009065Y0036600D01*
X0011055Y0036600D01*
X0008940Y0036548D02*
X0006560Y0036548D01*
X0006560Y0037546D02*
X0007043Y0037546D01*
X0006938Y0035549D02*
X0006560Y0035549D01*
X0013077Y0037546D02*
X0049998Y0037546D01*
X0050412Y0038545D02*
X0014076Y0038545D01*
X0019039Y0039543D02*
X0050951Y0039543D01*
X0051949Y0040542D02*
X0019828Y0040542D01*
X0020060Y0049529D02*
X0025066Y0049529D01*
X0024393Y0050527D02*
X0020060Y0050527D01*
X0020060Y0051526D02*
X0024185Y0051526D01*
X0024331Y0052524D02*
X0020060Y0052524D01*
X0020060Y0053523D02*
X0024560Y0053523D01*
X0024560Y0054521D02*
X0020060Y0054521D01*
X0020060Y0055520D02*
X0024560Y0055520D01*
X0024560Y0056518D02*
X0020060Y0056518D01*
X0020060Y0057517D02*
X0024560Y0057517D01*
X0024560Y0058515D02*
X0020060Y0058515D01*
X0020060Y0059514D02*
X0024560Y0059514D01*
X0024560Y0060512D02*
X0020060Y0060512D01*
X0020060Y0061511D02*
X0024560Y0061511D01*
X0024560Y0062509D02*
X0020060Y0062509D01*
X0020060Y0063508D02*
X0024560Y0063508D01*
X0024560Y0064506D02*
X0020060Y0064506D01*
X0020060Y0065505D02*
X0024560Y0065505D01*
X0024560Y0066503D02*
X0020060Y0066503D01*
X0020060Y0067502D02*
X0024560Y0067502D01*
X0024560Y0068500D02*
X0020060Y0068500D01*
X0020060Y0069499D02*
X0024560Y0069499D01*
X0024560Y0070497D02*
X0020060Y0070497D01*
X0020060Y0071496D02*
X0024560Y0071496D01*
X0024560Y0072494D02*
X0020060Y0072494D01*
X0020060Y0073493D02*
X0024560Y0073493D01*
X0024560Y0074491D02*
X0020060Y0074491D01*
X0020060Y0075490D02*
X0024560Y0075490D01*
X0024560Y0076488D02*
X0020060Y0076488D01*
X0020060Y0077487D02*
X0024560Y0077487D01*
X0024560Y0078485D02*
X0020060Y0078485D01*
X0020060Y0079484D02*
X0024560Y0079484D01*
X0024560Y0080482D02*
X0020060Y0080482D01*
X0020060Y0081481D02*
X0024560Y0081481D01*
X0024560Y0082479D02*
X0020060Y0082479D01*
X0020060Y0083478D02*
X0024560Y0083478D01*
X0024560Y0084476D02*
X0020060Y0084476D01*
X0020060Y0085475D02*
X0024560Y0085475D01*
X0024560Y0086473D02*
X0020060Y0086473D01*
X0020060Y0087472D02*
X0024560Y0087472D01*
X0024560Y0088470D02*
X0020060Y0088470D01*
X0020060Y0089469D02*
X0024560Y0089469D01*
X0024121Y0090468D02*
X0020999Y0090468D01*
X0021881Y0091466D02*
X0023239Y0091466D01*
X0022825Y0092465D02*
X0022295Y0092465D01*
X0022560Y0093463D02*
X0022560Y0093463D01*
X0022560Y0094462D02*
X0022560Y0094462D01*
X0022409Y0095460D02*
X0022711Y0095460D01*
X0023125Y0096459D02*
X0021995Y0096459D01*
X0021274Y0097457D02*
X0023846Y0097457D01*
X0025010Y0098456D02*
X0020110Y0098456D01*
X0015010Y0098456D02*
X0006560Y0098456D01*
X0006560Y0099454D02*
X0303560Y0099454D01*
X0303560Y0098456D02*
X0030110Y0098456D01*
X0031274Y0097457D02*
X0303560Y0097457D01*
X0303560Y0096459D02*
X0031995Y0096459D01*
X0032409Y0095460D02*
X0303560Y0095460D01*
X0303560Y0094462D02*
X0032560Y0094462D01*
X0032560Y0093463D02*
X0303560Y0093463D01*
X0303560Y0092465D02*
X0032295Y0092465D01*
X0031881Y0091466D02*
X0303560Y0091466D01*
X0303560Y0090468D02*
X0030999Y0090468D01*
X0029560Y0089469D02*
X0303560Y0089469D01*
X0303560Y0088470D02*
X0029560Y0088470D01*
X0029560Y0087472D02*
X0303560Y0087472D01*
X0303560Y0086473D02*
X0029560Y0086473D01*
X0029560Y0085475D02*
X0303560Y0085475D01*
X0303560Y0084476D02*
X0029560Y0084476D01*
X0029560Y0083478D02*
X0303560Y0083478D01*
X0303560Y0082479D02*
X0029560Y0082479D01*
X0029560Y0081481D02*
X0303560Y0081481D01*
X0303560Y0080482D02*
X0029560Y0080482D01*
X0029560Y0079484D02*
X0303560Y0079484D01*
X0303560Y0078485D02*
X0029560Y0078485D01*
X0029560Y0077487D02*
X0303560Y0077487D01*
X0303560Y0076488D02*
X0301843Y0076488D01*
X0300560Y0076488D02*
X0299560Y0076488D01*
X0299560Y0075490D02*
X0300560Y0075490D01*
X0300560Y0074491D02*
X0299560Y0074491D01*
X0299560Y0073493D02*
X0300560Y0073493D01*
X0300560Y0072494D02*
X0299560Y0072494D01*
X0299560Y0071496D02*
X0029560Y0071496D01*
X0029560Y0072494D02*
X0294937Y0072494D01*
X0295207Y0073493D02*
X0029560Y0073493D01*
X0029560Y0074491D02*
X0295733Y0074491D01*
X0296596Y0075490D02*
X0029560Y0075490D01*
X0029560Y0076488D02*
X0298277Y0076488D01*
X0303524Y0075490D02*
X0303560Y0075490D01*
X0294970Y0070497D02*
X0289729Y0070497D01*
X0290300Y0069499D02*
X0295295Y0069499D01*
X0295885Y0068500D02*
X0290435Y0068500D01*
X0290217Y0067502D02*
X0296854Y0067502D01*
X0298832Y0066503D02*
X0290060Y0066503D01*
X0290060Y0065505D02*
X0296894Y0065505D01*
X0295895Y0064506D02*
X0290060Y0064506D01*
X0290060Y0063508D02*
X0295438Y0063508D01*
X0295060Y0062509D02*
X0290060Y0062509D01*
X0290060Y0061511D02*
X0295060Y0061511D01*
X0295099Y0060512D02*
X0290060Y0060512D01*
X0290060Y0059514D02*
X0295512Y0059514D01*
X0296074Y0058515D02*
X0290060Y0058515D01*
X0290060Y0057517D02*
X0297072Y0057517D01*
X0298868Y0056518D02*
X0290060Y0056518D01*
X0290060Y0055520D02*
X0296909Y0055520D01*
X0295910Y0054521D02*
X0290060Y0054521D01*
X0299065Y0056600D02*
X0301055Y0056600D01*
X0302892Y0055839D01*
X0303560Y0055171D01*
X0303560Y0058029D01*
X0302892Y0057361D01*
X0301055Y0056600D01*
X0299065Y0056600D01*
X0301252Y0056518D02*
X0303560Y0056518D01*
X0303560Y0055520D02*
X0303211Y0055520D01*
X0303048Y0057517D02*
X0303560Y0057517D01*
X0303560Y0048029D02*
X0303560Y0045171D01*
X0302892Y0045839D01*
X0301055Y0046600D01*
X0299065Y0046600D01*
X0301055Y0046600D01*
X0302892Y0047361D01*
X0303560Y0048029D01*
X0303560Y0047532D02*
X0303063Y0047532D01*
X0303560Y0046533D02*
X0301216Y0046533D01*
X0303197Y0045534D02*
X0303560Y0045534D01*
X0303560Y0038029D02*
X0303560Y0035171D01*
X0302892Y0035839D01*
X0301055Y0036600D01*
X0299065Y0036600D01*
X0301055Y0036600D01*
X0302892Y0037361D01*
X0303560Y0038029D01*
X0303560Y0037546D02*
X0303077Y0037546D01*
X0303560Y0036548D02*
X0301180Y0036548D01*
X0303182Y0035549D02*
X0303560Y0035549D01*
X0303560Y0027561D02*
X0303092Y0027561D01*
X0253346Y0021570D02*
X0156774Y0021570D01*
X0156074Y0021860D02*
X0154046Y0021860D01*
X0152171Y0021084D01*
X0150736Y0019649D01*
X0149960Y0017774D01*
X0149960Y0015746D01*
X0150736Y0013871D01*
X0152171Y0012436D01*
X0154046Y0011660D01*
X0156074Y0011660D01*
X0157949Y0012436D01*
X0159384Y0013871D01*
X0160160Y0015746D01*
X0160160Y0017774D01*
X0159384Y0019649D01*
X0157949Y0021084D01*
X0156074Y0021860D01*
X0158461Y0020572D02*
X0251659Y0020572D01*
X0250705Y0019573D02*
X0159415Y0019573D01*
X0159829Y0018575D02*
X0250291Y0018575D01*
X0249960Y0017576D02*
X0160160Y0017576D01*
X0160160Y0016578D02*
X0249960Y0016578D01*
X0250029Y0015579D02*
X0160091Y0015579D01*
X0159677Y0014581D02*
X0250442Y0014581D01*
X0251025Y0013582D02*
X0159095Y0013582D01*
X0158096Y0012584D02*
X0252024Y0012584D01*
X0191491Y0042539D02*
X0118805Y0042539D01*
X0119286Y0043537D02*
X0190810Y0043537D01*
X0190165Y0044536D02*
X0119767Y0044536D01*
X0120248Y0045534D02*
X0189857Y0045534D01*
X0189549Y0046533D02*
X0120729Y0046533D01*
X0120827Y0046737D02*
X0120827Y0046737D01*
X0120947Y0047532D02*
X0189241Y0047532D01*
X0188933Y0048530D02*
X0121097Y0048530D01*
X0121248Y0049529D02*
X0188744Y0049529D01*
X0188744Y0050527D02*
X0121398Y0050527D01*
X0121549Y0051526D02*
X0188744Y0051526D01*
X0188744Y0052524D02*
X0121421Y0052524D01*
X0121270Y0053523D02*
X0188744Y0053523D01*
X0188887Y0054521D02*
X0121120Y0054521D01*
X0120969Y0055520D02*
X0189195Y0055520D01*
X0189503Y0056518D02*
X0120801Y0056518D01*
X0120320Y0057517D02*
X0189811Y0057517D01*
X0190119Y0058515D02*
X0119839Y0058515D01*
X0119358Y0059514D02*
X0190708Y0059514D01*
X0191389Y0060512D02*
X0118877Y0060512D01*
X0118693Y0060895D02*
X0118693Y0060895D01*
X0118121Y0061511D02*
X0192070Y0061511D01*
X0192751Y0062509D02*
X0117195Y0062509D01*
X0116268Y0063508D02*
X0193823Y0063508D01*
X0192965Y0062823D02*
X0192965Y0062823D01*
X0195076Y0064506D02*
X0115337Y0064506D01*
X0113608Y0065505D02*
X0196328Y0065505D01*
X0196810Y0065889D02*
X0196810Y0065889D01*
X0198374Y0066503D02*
X0111878Y0066503D01*
X0111088Y0066959D02*
X0111088Y0066959D01*
X0108712Y0067502D02*
X0200918Y0067502D01*
X0201388Y0067686D02*
X0201388Y0067686D01*
X0206293Y0068054D02*
X0206293Y0068054D01*
X0284820Y0069499D02*
X0029560Y0069499D01*
X0029560Y0070497D02*
X0285391Y0070497D01*
X0153346Y0021570D02*
X0056774Y0021570D01*
X0056074Y0021860D02*
X0054046Y0021860D01*
X0052171Y0021084D01*
X0050736Y0019649D01*
X0049960Y0017774D01*
X0049960Y0015746D01*
X0050736Y0013871D01*
X0052171Y0012436D01*
X0054046Y0011660D01*
X0056074Y0011660D01*
X0057949Y0012436D01*
X0059384Y0013871D01*
X0060160Y0015746D01*
X0060160Y0017774D01*
X0059384Y0019649D01*
X0057949Y0021084D01*
X0056074Y0021860D01*
X0058461Y0020572D02*
X0151659Y0020572D01*
X0150705Y0019573D02*
X0059415Y0019573D01*
X0059829Y0018575D02*
X0150291Y0018575D01*
X0149960Y0017576D02*
X0060160Y0017576D01*
X0060160Y0016578D02*
X0149960Y0016578D01*
X0150029Y0015579D02*
X0060091Y0015579D01*
X0059677Y0014581D02*
X0150442Y0014581D01*
X0151025Y0013582D02*
X0059095Y0013582D01*
X0058096Y0012584D02*
X0152024Y0012584D01*
X0053346Y0021570D02*
X0006560Y0021570D01*
X0006560Y0020572D02*
X0051659Y0020572D01*
X0050705Y0019573D02*
X0006560Y0019573D01*
X0006560Y0018575D02*
X0050291Y0018575D01*
X0049960Y0017576D02*
X0006560Y0017576D01*
X0006560Y0016578D02*
X0049960Y0016578D01*
X0050029Y0015579D02*
X0006560Y0015579D01*
X0006560Y0014581D02*
X0050442Y0014581D01*
X0051025Y0013582D02*
X0006560Y0013582D01*
X0006560Y0012584D02*
X0052024Y0012584D01*
X0106293Y0068054D02*
X0106293Y0068054D01*
X0015060Y0073493D02*
X0014913Y0073493D01*
X0015060Y0074491D02*
X0014387Y0074491D01*
X0015060Y0075490D02*
X0013524Y0075490D01*
X0015060Y0076488D02*
X0011843Y0076488D01*
X0010560Y0076488D02*
X0009560Y0076488D01*
X0009560Y0075490D02*
X0010560Y0075490D01*
X0010560Y0074491D02*
X0009560Y0074491D01*
X0009560Y0073493D02*
X0010560Y0073493D01*
X0010560Y0072494D02*
X0009560Y0072494D01*
X0006596Y0075490D02*
X0006560Y0075490D01*
X0006560Y0076488D02*
X0008277Y0076488D01*
X0006560Y0077487D02*
X0015060Y0077487D01*
X0015060Y0078485D02*
X0006560Y0078485D01*
X0006560Y0079484D02*
X0015060Y0079484D01*
X0015060Y0080482D02*
X0006560Y0080482D01*
X0006560Y0081481D02*
X0015060Y0081481D01*
X0015060Y0082479D02*
X0006560Y0082479D01*
X0006560Y0083478D02*
X0015060Y0083478D01*
X0015060Y0084476D02*
X0006560Y0084476D01*
X0006560Y0085475D02*
X0015060Y0085475D01*
X0015060Y0086473D02*
X0006560Y0086473D01*
X0006560Y0087472D02*
X0015060Y0087472D01*
X0015060Y0088470D02*
X0006560Y0088470D01*
X0006560Y0089469D02*
X0015060Y0089469D01*
X0014121Y0090468D02*
X0006560Y0090468D01*
X0006560Y0091466D02*
X0013239Y0091466D01*
X0012825Y0092465D02*
X0006560Y0092465D01*
X0006560Y0093463D02*
X0012560Y0093463D01*
X0012560Y0094462D02*
X0006560Y0094462D01*
X0006560Y0095460D02*
X0012711Y0095460D01*
X0013125Y0096459D02*
X0006560Y0096459D01*
X0006560Y0097457D02*
X0013846Y0097457D01*
M02*
