%
M48
M72
T01C0.01550
T02C0.04000
T03C0.04331
T04C0.12598
%
T01
X27060Y51600
X82060Y54600
X128060Y59100
X112560Y86600
X37060Y84100
X210060Y23100
X252560Y9100
X230060Y59100
X287560Y68600
X222560Y84100
T02
X300060Y71600
X300060Y61600
X300060Y51600
X300060Y41600
X300060Y31600
X27560Y94100
X17560Y94100
X10060Y71600
X10060Y61600
X10060Y51600
X10060Y41600
X10060Y31600
T03
X55060Y16760
X55060Y36440
X155060Y36440
X155060Y16760
X255060Y16760
X255060Y36440
T04
X205060Y51600
X105060Y51600
M30
