G75*
%MOIN*%
%OFA0B0*%
%FSLAX25Y25*%
%IPPOS*%
%LPD*%
%AMOC8*
5,1,8,0,0,1.08239X$1,22.5*
%
%ADD10C,0.00000*%
%ADD11C,0.07600*%
%ADD12R,0.04331X0.03937*%
%ADD13C,0.07400*%
%ADD14R,0.03937X0.04331*%
%ADD15R,0.05118X0.04724*%
%ADD16C,0.02400*%
%ADD17C,0.03150*%
%ADD18C,0.01200*%
D10*
X0005060Y0001600D02*
X0305060Y0001600D01*
X0305060Y0101600D01*
X0005060Y0101600D01*
X0005060Y0001600D01*
X0098761Y0051600D02*
X0098763Y0051758D01*
X0098769Y0051916D01*
X0098779Y0052074D01*
X0098793Y0052232D01*
X0098811Y0052389D01*
X0098832Y0052546D01*
X0098858Y0052702D01*
X0098888Y0052858D01*
X0098921Y0053013D01*
X0098959Y0053166D01*
X0099000Y0053319D01*
X0099045Y0053471D01*
X0099094Y0053622D01*
X0099147Y0053771D01*
X0099203Y0053919D01*
X0099263Y0054065D01*
X0099327Y0054210D01*
X0099395Y0054353D01*
X0099466Y0054495D01*
X0099540Y0054635D01*
X0099618Y0054772D01*
X0099700Y0054908D01*
X0099784Y0055042D01*
X0099873Y0055173D01*
X0099964Y0055302D01*
X0100059Y0055429D01*
X0100156Y0055554D01*
X0100257Y0055676D01*
X0100361Y0055795D01*
X0100468Y0055912D01*
X0100578Y0056026D01*
X0100691Y0056137D01*
X0100806Y0056246D01*
X0100924Y0056351D01*
X0101045Y0056453D01*
X0101168Y0056553D01*
X0101294Y0056649D01*
X0101422Y0056742D01*
X0101552Y0056832D01*
X0101685Y0056918D01*
X0101820Y0057002D01*
X0101956Y0057081D01*
X0102095Y0057158D01*
X0102236Y0057230D01*
X0102378Y0057300D01*
X0102522Y0057365D01*
X0102668Y0057427D01*
X0102815Y0057485D01*
X0102964Y0057540D01*
X0103114Y0057591D01*
X0103265Y0057638D01*
X0103417Y0057681D01*
X0103570Y0057720D01*
X0103725Y0057756D01*
X0103880Y0057787D01*
X0104036Y0057815D01*
X0104192Y0057839D01*
X0104349Y0057859D01*
X0104507Y0057875D01*
X0104664Y0057887D01*
X0104823Y0057895D01*
X0104981Y0057899D01*
X0105139Y0057899D01*
X0105297Y0057895D01*
X0105456Y0057887D01*
X0105613Y0057875D01*
X0105771Y0057859D01*
X0105928Y0057839D01*
X0106084Y0057815D01*
X0106240Y0057787D01*
X0106395Y0057756D01*
X0106550Y0057720D01*
X0106703Y0057681D01*
X0106855Y0057638D01*
X0107006Y0057591D01*
X0107156Y0057540D01*
X0107305Y0057485D01*
X0107452Y0057427D01*
X0107598Y0057365D01*
X0107742Y0057300D01*
X0107884Y0057230D01*
X0108025Y0057158D01*
X0108164Y0057081D01*
X0108300Y0057002D01*
X0108435Y0056918D01*
X0108568Y0056832D01*
X0108698Y0056742D01*
X0108826Y0056649D01*
X0108952Y0056553D01*
X0109075Y0056453D01*
X0109196Y0056351D01*
X0109314Y0056246D01*
X0109429Y0056137D01*
X0109542Y0056026D01*
X0109652Y0055912D01*
X0109759Y0055795D01*
X0109863Y0055676D01*
X0109964Y0055554D01*
X0110061Y0055429D01*
X0110156Y0055302D01*
X0110247Y0055173D01*
X0110336Y0055042D01*
X0110420Y0054908D01*
X0110502Y0054772D01*
X0110580Y0054635D01*
X0110654Y0054495D01*
X0110725Y0054353D01*
X0110793Y0054210D01*
X0110857Y0054065D01*
X0110917Y0053919D01*
X0110973Y0053771D01*
X0111026Y0053622D01*
X0111075Y0053471D01*
X0111120Y0053319D01*
X0111161Y0053166D01*
X0111199Y0053013D01*
X0111232Y0052858D01*
X0111262Y0052702D01*
X0111288Y0052546D01*
X0111309Y0052389D01*
X0111327Y0052232D01*
X0111341Y0052074D01*
X0111351Y0051916D01*
X0111357Y0051758D01*
X0111359Y0051600D01*
X0111357Y0051442D01*
X0111351Y0051284D01*
X0111341Y0051126D01*
X0111327Y0050968D01*
X0111309Y0050811D01*
X0111288Y0050654D01*
X0111262Y0050498D01*
X0111232Y0050342D01*
X0111199Y0050187D01*
X0111161Y0050034D01*
X0111120Y0049881D01*
X0111075Y0049729D01*
X0111026Y0049578D01*
X0110973Y0049429D01*
X0110917Y0049281D01*
X0110857Y0049135D01*
X0110793Y0048990D01*
X0110725Y0048847D01*
X0110654Y0048705D01*
X0110580Y0048565D01*
X0110502Y0048428D01*
X0110420Y0048292D01*
X0110336Y0048158D01*
X0110247Y0048027D01*
X0110156Y0047898D01*
X0110061Y0047771D01*
X0109964Y0047646D01*
X0109863Y0047524D01*
X0109759Y0047405D01*
X0109652Y0047288D01*
X0109542Y0047174D01*
X0109429Y0047063D01*
X0109314Y0046954D01*
X0109196Y0046849D01*
X0109075Y0046747D01*
X0108952Y0046647D01*
X0108826Y0046551D01*
X0108698Y0046458D01*
X0108568Y0046368D01*
X0108435Y0046282D01*
X0108300Y0046198D01*
X0108164Y0046119D01*
X0108025Y0046042D01*
X0107884Y0045970D01*
X0107742Y0045900D01*
X0107598Y0045835D01*
X0107452Y0045773D01*
X0107305Y0045715D01*
X0107156Y0045660D01*
X0107006Y0045609D01*
X0106855Y0045562D01*
X0106703Y0045519D01*
X0106550Y0045480D01*
X0106395Y0045444D01*
X0106240Y0045413D01*
X0106084Y0045385D01*
X0105928Y0045361D01*
X0105771Y0045341D01*
X0105613Y0045325D01*
X0105456Y0045313D01*
X0105297Y0045305D01*
X0105139Y0045301D01*
X0104981Y0045301D01*
X0104823Y0045305D01*
X0104664Y0045313D01*
X0104507Y0045325D01*
X0104349Y0045341D01*
X0104192Y0045361D01*
X0104036Y0045385D01*
X0103880Y0045413D01*
X0103725Y0045444D01*
X0103570Y0045480D01*
X0103417Y0045519D01*
X0103265Y0045562D01*
X0103114Y0045609D01*
X0102964Y0045660D01*
X0102815Y0045715D01*
X0102668Y0045773D01*
X0102522Y0045835D01*
X0102378Y0045900D01*
X0102236Y0045970D01*
X0102095Y0046042D01*
X0101956Y0046119D01*
X0101820Y0046198D01*
X0101685Y0046282D01*
X0101552Y0046368D01*
X0101422Y0046458D01*
X0101294Y0046551D01*
X0101168Y0046647D01*
X0101045Y0046747D01*
X0100924Y0046849D01*
X0100806Y0046954D01*
X0100691Y0047063D01*
X0100578Y0047174D01*
X0100468Y0047288D01*
X0100361Y0047405D01*
X0100257Y0047524D01*
X0100156Y0047646D01*
X0100059Y0047771D01*
X0099964Y0047898D01*
X0099873Y0048027D01*
X0099784Y0048158D01*
X0099700Y0048292D01*
X0099618Y0048428D01*
X0099540Y0048565D01*
X0099466Y0048705D01*
X0099395Y0048847D01*
X0099327Y0048990D01*
X0099263Y0049135D01*
X0099203Y0049281D01*
X0099147Y0049429D01*
X0099094Y0049578D01*
X0099045Y0049729D01*
X0099000Y0049881D01*
X0098959Y0050034D01*
X0098921Y0050187D01*
X0098888Y0050342D01*
X0098858Y0050498D01*
X0098832Y0050654D01*
X0098811Y0050811D01*
X0098793Y0050968D01*
X0098779Y0051126D01*
X0098769Y0051284D01*
X0098763Y0051442D01*
X0098761Y0051600D01*
X0198761Y0051600D02*
X0198763Y0051758D01*
X0198769Y0051916D01*
X0198779Y0052074D01*
X0198793Y0052232D01*
X0198811Y0052389D01*
X0198832Y0052546D01*
X0198858Y0052702D01*
X0198888Y0052858D01*
X0198921Y0053013D01*
X0198959Y0053166D01*
X0199000Y0053319D01*
X0199045Y0053471D01*
X0199094Y0053622D01*
X0199147Y0053771D01*
X0199203Y0053919D01*
X0199263Y0054065D01*
X0199327Y0054210D01*
X0199395Y0054353D01*
X0199466Y0054495D01*
X0199540Y0054635D01*
X0199618Y0054772D01*
X0199700Y0054908D01*
X0199784Y0055042D01*
X0199873Y0055173D01*
X0199964Y0055302D01*
X0200059Y0055429D01*
X0200156Y0055554D01*
X0200257Y0055676D01*
X0200361Y0055795D01*
X0200468Y0055912D01*
X0200578Y0056026D01*
X0200691Y0056137D01*
X0200806Y0056246D01*
X0200924Y0056351D01*
X0201045Y0056453D01*
X0201168Y0056553D01*
X0201294Y0056649D01*
X0201422Y0056742D01*
X0201552Y0056832D01*
X0201685Y0056918D01*
X0201820Y0057002D01*
X0201956Y0057081D01*
X0202095Y0057158D01*
X0202236Y0057230D01*
X0202378Y0057300D01*
X0202522Y0057365D01*
X0202668Y0057427D01*
X0202815Y0057485D01*
X0202964Y0057540D01*
X0203114Y0057591D01*
X0203265Y0057638D01*
X0203417Y0057681D01*
X0203570Y0057720D01*
X0203725Y0057756D01*
X0203880Y0057787D01*
X0204036Y0057815D01*
X0204192Y0057839D01*
X0204349Y0057859D01*
X0204507Y0057875D01*
X0204664Y0057887D01*
X0204823Y0057895D01*
X0204981Y0057899D01*
X0205139Y0057899D01*
X0205297Y0057895D01*
X0205456Y0057887D01*
X0205613Y0057875D01*
X0205771Y0057859D01*
X0205928Y0057839D01*
X0206084Y0057815D01*
X0206240Y0057787D01*
X0206395Y0057756D01*
X0206550Y0057720D01*
X0206703Y0057681D01*
X0206855Y0057638D01*
X0207006Y0057591D01*
X0207156Y0057540D01*
X0207305Y0057485D01*
X0207452Y0057427D01*
X0207598Y0057365D01*
X0207742Y0057300D01*
X0207884Y0057230D01*
X0208025Y0057158D01*
X0208164Y0057081D01*
X0208300Y0057002D01*
X0208435Y0056918D01*
X0208568Y0056832D01*
X0208698Y0056742D01*
X0208826Y0056649D01*
X0208952Y0056553D01*
X0209075Y0056453D01*
X0209196Y0056351D01*
X0209314Y0056246D01*
X0209429Y0056137D01*
X0209542Y0056026D01*
X0209652Y0055912D01*
X0209759Y0055795D01*
X0209863Y0055676D01*
X0209964Y0055554D01*
X0210061Y0055429D01*
X0210156Y0055302D01*
X0210247Y0055173D01*
X0210336Y0055042D01*
X0210420Y0054908D01*
X0210502Y0054772D01*
X0210580Y0054635D01*
X0210654Y0054495D01*
X0210725Y0054353D01*
X0210793Y0054210D01*
X0210857Y0054065D01*
X0210917Y0053919D01*
X0210973Y0053771D01*
X0211026Y0053622D01*
X0211075Y0053471D01*
X0211120Y0053319D01*
X0211161Y0053166D01*
X0211199Y0053013D01*
X0211232Y0052858D01*
X0211262Y0052702D01*
X0211288Y0052546D01*
X0211309Y0052389D01*
X0211327Y0052232D01*
X0211341Y0052074D01*
X0211351Y0051916D01*
X0211357Y0051758D01*
X0211359Y0051600D01*
X0211357Y0051442D01*
X0211351Y0051284D01*
X0211341Y0051126D01*
X0211327Y0050968D01*
X0211309Y0050811D01*
X0211288Y0050654D01*
X0211262Y0050498D01*
X0211232Y0050342D01*
X0211199Y0050187D01*
X0211161Y0050034D01*
X0211120Y0049881D01*
X0211075Y0049729D01*
X0211026Y0049578D01*
X0210973Y0049429D01*
X0210917Y0049281D01*
X0210857Y0049135D01*
X0210793Y0048990D01*
X0210725Y0048847D01*
X0210654Y0048705D01*
X0210580Y0048565D01*
X0210502Y0048428D01*
X0210420Y0048292D01*
X0210336Y0048158D01*
X0210247Y0048027D01*
X0210156Y0047898D01*
X0210061Y0047771D01*
X0209964Y0047646D01*
X0209863Y0047524D01*
X0209759Y0047405D01*
X0209652Y0047288D01*
X0209542Y0047174D01*
X0209429Y0047063D01*
X0209314Y0046954D01*
X0209196Y0046849D01*
X0209075Y0046747D01*
X0208952Y0046647D01*
X0208826Y0046551D01*
X0208698Y0046458D01*
X0208568Y0046368D01*
X0208435Y0046282D01*
X0208300Y0046198D01*
X0208164Y0046119D01*
X0208025Y0046042D01*
X0207884Y0045970D01*
X0207742Y0045900D01*
X0207598Y0045835D01*
X0207452Y0045773D01*
X0207305Y0045715D01*
X0207156Y0045660D01*
X0207006Y0045609D01*
X0206855Y0045562D01*
X0206703Y0045519D01*
X0206550Y0045480D01*
X0206395Y0045444D01*
X0206240Y0045413D01*
X0206084Y0045385D01*
X0205928Y0045361D01*
X0205771Y0045341D01*
X0205613Y0045325D01*
X0205456Y0045313D01*
X0205297Y0045305D01*
X0205139Y0045301D01*
X0204981Y0045301D01*
X0204823Y0045305D01*
X0204664Y0045313D01*
X0204507Y0045325D01*
X0204349Y0045341D01*
X0204192Y0045361D01*
X0204036Y0045385D01*
X0203880Y0045413D01*
X0203725Y0045444D01*
X0203570Y0045480D01*
X0203417Y0045519D01*
X0203265Y0045562D01*
X0203114Y0045609D01*
X0202964Y0045660D01*
X0202815Y0045715D01*
X0202668Y0045773D01*
X0202522Y0045835D01*
X0202378Y0045900D01*
X0202236Y0045970D01*
X0202095Y0046042D01*
X0201956Y0046119D01*
X0201820Y0046198D01*
X0201685Y0046282D01*
X0201552Y0046368D01*
X0201422Y0046458D01*
X0201294Y0046551D01*
X0201168Y0046647D01*
X0201045Y0046747D01*
X0200924Y0046849D01*
X0200806Y0046954D01*
X0200691Y0047063D01*
X0200578Y0047174D01*
X0200468Y0047288D01*
X0200361Y0047405D01*
X0200257Y0047524D01*
X0200156Y0047646D01*
X0200059Y0047771D01*
X0199964Y0047898D01*
X0199873Y0048027D01*
X0199784Y0048158D01*
X0199700Y0048292D01*
X0199618Y0048428D01*
X0199540Y0048565D01*
X0199466Y0048705D01*
X0199395Y0048847D01*
X0199327Y0048990D01*
X0199263Y0049135D01*
X0199203Y0049281D01*
X0199147Y0049429D01*
X0199094Y0049578D01*
X0199045Y0049729D01*
X0199000Y0049881D01*
X0198959Y0050034D01*
X0198921Y0050187D01*
X0198888Y0050342D01*
X0198858Y0050498D01*
X0198832Y0050654D01*
X0198811Y0050811D01*
X0198793Y0050968D01*
X0198779Y0051126D01*
X0198769Y0051284D01*
X0198763Y0051442D01*
X0198761Y0051600D01*
D11*
X0155060Y0036440D03*
X0155060Y0016760D03*
X0255060Y0016760D03*
X0255060Y0036440D03*
X0055060Y0036440D03*
X0055060Y0016760D03*
D12*
X0051714Y0051600D03*
X0058406Y0051600D03*
X0151714Y0051600D03*
X0158406Y0051600D03*
X0251714Y0051600D03*
X0258406Y0051600D03*
D13*
X0300060Y0051600D03*
X0300060Y0041600D03*
X0300060Y0031600D03*
X0300060Y0061600D03*
X0300060Y0071600D03*
X0027560Y0094100D03*
X0017560Y0094100D03*
X0010060Y0071600D03*
X0010060Y0061600D03*
X0010060Y0051600D03*
X0010060Y0041600D03*
X0010060Y0031600D03*
D14*
X0076560Y0082754D03*
X0076560Y0089446D03*
X0120560Y0089446D03*
X0120560Y0082754D03*
X0234560Y0082754D03*
X0234560Y0089446D03*
D15*
X0245808Y0078096D03*
X0264312Y0078096D03*
X0264312Y0065104D03*
X0245808Y0065104D03*
X0164312Y0065104D03*
X0145808Y0065104D03*
X0145808Y0078096D03*
X0164312Y0078096D03*
X0064312Y0078096D03*
X0045808Y0078096D03*
X0045808Y0065104D03*
X0064312Y0065104D03*
D16*
X0074950Y0071600D02*
X0135170Y0071600D01*
X0142241Y0068671D02*
X0145808Y0065104D01*
X0142241Y0068671D02*
X0142065Y0068842D01*
X0141886Y0069010D01*
X0141702Y0069172D01*
X0141514Y0069330D01*
X0141322Y0069483D01*
X0141127Y0069632D01*
X0140928Y0069776D01*
X0140726Y0069915D01*
X0140520Y0070049D01*
X0140311Y0070177D01*
X0140099Y0070301D01*
X0139884Y0070419D01*
X0139666Y0070532D01*
X0139446Y0070640D01*
X0139222Y0070742D01*
X0138997Y0070839D01*
X0138769Y0070930D01*
X0138539Y0071015D01*
X0138307Y0071095D01*
X0138073Y0071169D01*
X0137837Y0071238D01*
X0137600Y0071300D01*
X0137361Y0071357D01*
X0137121Y0071408D01*
X0136880Y0071453D01*
X0136637Y0071492D01*
X0136394Y0071525D01*
X0136150Y0071552D01*
X0135906Y0071573D01*
X0135661Y0071588D01*
X0135415Y0071597D01*
X0135170Y0071600D01*
X0145060Y0079902D02*
X0145060Y0094112D01*
X0234560Y0094112D01*
X0245060Y0094112D01*
X0245060Y0079902D01*
X0245062Y0079802D01*
X0245068Y0079702D01*
X0245078Y0079602D01*
X0245091Y0079502D01*
X0245109Y0079404D01*
X0245131Y0079306D01*
X0245156Y0079209D01*
X0245185Y0079113D01*
X0245218Y0079018D01*
X0245254Y0078925D01*
X0245295Y0078833D01*
X0245338Y0078743D01*
X0245386Y0078654D01*
X0245436Y0078568D01*
X0245490Y0078483D01*
X0245548Y0078401D01*
X0245608Y0078321D01*
X0245672Y0078243D01*
X0245739Y0078168D01*
X0245808Y0078096D01*
X0257906Y0094112D02*
X0258151Y0094109D01*
X0258397Y0094100D01*
X0258642Y0094085D01*
X0258886Y0094064D01*
X0259130Y0094037D01*
X0259373Y0094004D01*
X0259616Y0093965D01*
X0259857Y0093920D01*
X0260097Y0093869D01*
X0260336Y0093812D01*
X0260573Y0093750D01*
X0260809Y0093681D01*
X0261043Y0093607D01*
X0261275Y0093527D01*
X0261505Y0093442D01*
X0261733Y0093351D01*
X0261958Y0093254D01*
X0262182Y0093152D01*
X0262402Y0093044D01*
X0262620Y0092931D01*
X0262835Y0092813D01*
X0263047Y0092689D01*
X0263256Y0092561D01*
X0263462Y0092427D01*
X0263664Y0092288D01*
X0263863Y0092144D01*
X0264058Y0091995D01*
X0264250Y0091842D01*
X0264438Y0091684D01*
X0264622Y0091522D01*
X0264801Y0091354D01*
X0264977Y0091183D01*
X0287560Y0068600D01*
X0287560Y0068726D01*
X0284950Y0061600D02*
X0284705Y0061603D01*
X0284459Y0061612D01*
X0284214Y0061627D01*
X0283970Y0061648D01*
X0283726Y0061675D01*
X0283483Y0061708D01*
X0283240Y0061747D01*
X0282999Y0061792D01*
X0282759Y0061843D01*
X0282520Y0061900D01*
X0282283Y0061962D01*
X0282047Y0062031D01*
X0281813Y0062105D01*
X0281581Y0062185D01*
X0281351Y0062270D01*
X0281123Y0062361D01*
X0280898Y0062458D01*
X0280674Y0062560D01*
X0280454Y0062668D01*
X0280236Y0062781D01*
X0280021Y0062899D01*
X0279809Y0063023D01*
X0279600Y0063151D01*
X0279394Y0063285D01*
X0279192Y0063424D01*
X0278993Y0063568D01*
X0278798Y0063717D01*
X0278606Y0063870D01*
X0278418Y0064028D01*
X0278234Y0064190D01*
X0278055Y0064358D01*
X0277879Y0064529D01*
X0264312Y0078096D01*
X0234560Y0089446D02*
X0234560Y0094112D01*
X0245060Y0094112D02*
X0257906Y0094112D01*
X0225698Y0065104D02*
X0225453Y0065107D01*
X0225207Y0065116D01*
X0224962Y0065131D01*
X0224718Y0065152D01*
X0224474Y0065179D01*
X0224231Y0065212D01*
X0223988Y0065251D01*
X0223747Y0065296D01*
X0223507Y0065347D01*
X0223268Y0065404D01*
X0223031Y0065466D01*
X0222795Y0065535D01*
X0222561Y0065609D01*
X0222329Y0065689D01*
X0222099Y0065774D01*
X0221871Y0065865D01*
X0221646Y0065962D01*
X0221422Y0066064D01*
X0221202Y0066172D01*
X0220984Y0066285D01*
X0220769Y0066403D01*
X0220557Y0066527D01*
X0220348Y0066655D01*
X0220142Y0066789D01*
X0219940Y0066928D01*
X0219741Y0067072D01*
X0219546Y0067221D01*
X0219354Y0067374D01*
X0219166Y0067532D01*
X0218982Y0067694D01*
X0218803Y0067862D01*
X0218627Y0068033D01*
X0211493Y0075167D01*
X0204422Y0078096D02*
X0164312Y0078096D01*
X0145808Y0078096D02*
X0145739Y0078168D01*
X0145672Y0078243D01*
X0145608Y0078321D01*
X0145548Y0078401D01*
X0145490Y0078483D01*
X0145436Y0078568D01*
X0145386Y0078654D01*
X0145338Y0078743D01*
X0145295Y0078833D01*
X0145254Y0078925D01*
X0145218Y0079018D01*
X0145185Y0079113D01*
X0145156Y0079209D01*
X0145131Y0079306D01*
X0145109Y0079404D01*
X0145091Y0079502D01*
X0145078Y0079602D01*
X0145068Y0079702D01*
X0145062Y0079802D01*
X0145060Y0079902D01*
X0120560Y0089446D02*
X0120560Y0094112D01*
X0145060Y0094112D01*
X0120560Y0094112D02*
X0076091Y0094112D01*
X0076091Y0094100D01*
X0076560Y0094100D01*
X0076560Y0089446D01*
X0076091Y0094100D02*
X0045060Y0094100D01*
X0045060Y0079902D01*
X0045062Y0079802D01*
X0045068Y0079702D01*
X0045078Y0079602D01*
X0045091Y0079502D01*
X0045109Y0079404D01*
X0045131Y0079306D01*
X0045156Y0079209D01*
X0045185Y0079113D01*
X0045218Y0079018D01*
X0045254Y0078925D01*
X0045295Y0078833D01*
X0045338Y0078743D01*
X0045386Y0078654D01*
X0045436Y0078568D01*
X0045490Y0078483D01*
X0045548Y0078401D01*
X0045608Y0078321D01*
X0045672Y0078243D01*
X0045739Y0078168D01*
X0045808Y0078096D01*
X0045233Y0064529D02*
X0045063Y0064363D01*
X0044889Y0064200D01*
X0044711Y0064043D01*
X0044529Y0063889D01*
X0044344Y0063739D01*
X0044155Y0063595D01*
X0043963Y0063454D01*
X0043767Y0063319D01*
X0043568Y0063187D01*
X0043367Y0063061D01*
X0043162Y0062940D01*
X0042954Y0062823D01*
X0042744Y0062712D01*
X0042531Y0062605D01*
X0042316Y0062504D01*
X0042099Y0062407D01*
X0041879Y0062316D01*
X0041657Y0062231D01*
X0041433Y0062150D01*
X0041207Y0062075D01*
X0040979Y0062005D01*
X0040750Y0061941D01*
X0040520Y0061882D01*
X0040288Y0061829D01*
X0040055Y0061781D01*
X0039820Y0061738D01*
X0039585Y0061702D01*
X0039349Y0061671D01*
X0039113Y0061645D01*
X0038875Y0061625D01*
X0038638Y0061611D01*
X0038400Y0061603D01*
X0038162Y0061600D01*
X0010060Y0061600D01*
X0010060Y0051600D02*
X0027060Y0051600D01*
X0031418Y0041600D02*
X0031656Y0041603D01*
X0031894Y0041611D01*
X0032131Y0041625D01*
X0032369Y0041645D01*
X0032605Y0041671D01*
X0032841Y0041702D01*
X0033076Y0041738D01*
X0033311Y0041781D01*
X0033544Y0041829D01*
X0033776Y0041882D01*
X0034006Y0041941D01*
X0034235Y0042005D01*
X0034463Y0042075D01*
X0034689Y0042150D01*
X0034913Y0042231D01*
X0035135Y0042316D01*
X0035355Y0042407D01*
X0035572Y0042504D01*
X0035787Y0042605D01*
X0036000Y0042712D01*
X0036210Y0042823D01*
X0036418Y0042940D01*
X0036623Y0043061D01*
X0036824Y0043187D01*
X0037023Y0043319D01*
X0037219Y0043454D01*
X0037411Y0043595D01*
X0037600Y0043739D01*
X0037785Y0043889D01*
X0037967Y0044043D01*
X0038145Y0044200D01*
X0038319Y0044363D01*
X0038489Y0044529D01*
X0042631Y0048671D01*
X0049702Y0051600D02*
X0051714Y0051600D01*
X0051714Y0043929D01*
X0049702Y0051600D02*
X0049457Y0051597D01*
X0049211Y0051588D01*
X0048966Y0051573D01*
X0048722Y0051552D01*
X0048478Y0051525D01*
X0048235Y0051492D01*
X0047992Y0051453D01*
X0047751Y0051408D01*
X0047511Y0051357D01*
X0047272Y0051300D01*
X0047035Y0051238D01*
X0046799Y0051169D01*
X0046565Y0051095D01*
X0046333Y0051015D01*
X0046103Y0050930D01*
X0045875Y0050839D01*
X0045650Y0050742D01*
X0045426Y0050640D01*
X0045206Y0050532D01*
X0044988Y0050419D01*
X0044773Y0050301D01*
X0044561Y0050177D01*
X0044352Y0050049D01*
X0044146Y0049915D01*
X0043944Y0049776D01*
X0043745Y0049632D01*
X0043550Y0049483D01*
X0043358Y0049330D01*
X0043170Y0049172D01*
X0042986Y0049010D01*
X0042807Y0048842D01*
X0042631Y0048671D01*
X0058406Y0051600D02*
X0067918Y0051600D01*
X0074989Y0048671D02*
X0086631Y0037029D01*
X0093702Y0034100D02*
X0114918Y0034100D01*
X0121989Y0037029D02*
X0133631Y0048671D01*
X0140702Y0051600D02*
X0151714Y0051600D01*
X0151714Y0043929D01*
X0140702Y0051600D02*
X0140457Y0051597D01*
X0140211Y0051588D01*
X0139966Y0051573D01*
X0139722Y0051552D01*
X0139478Y0051525D01*
X0139235Y0051492D01*
X0138992Y0051453D01*
X0138751Y0051408D01*
X0138511Y0051357D01*
X0138272Y0051300D01*
X0138035Y0051238D01*
X0137799Y0051169D01*
X0137565Y0051095D01*
X0137333Y0051015D01*
X0137103Y0050930D01*
X0136875Y0050839D01*
X0136650Y0050742D01*
X0136426Y0050640D01*
X0136206Y0050532D01*
X0135988Y0050419D01*
X0135773Y0050301D01*
X0135561Y0050177D01*
X0135352Y0050049D01*
X0135146Y0049915D01*
X0134944Y0049776D01*
X0134745Y0049632D01*
X0134550Y0049483D01*
X0134358Y0049330D01*
X0134170Y0049172D01*
X0133986Y0049010D01*
X0133807Y0048842D01*
X0133631Y0048671D01*
X0121989Y0037029D02*
X0121819Y0036863D01*
X0121645Y0036700D01*
X0121467Y0036543D01*
X0121285Y0036389D01*
X0121100Y0036239D01*
X0120911Y0036095D01*
X0120719Y0035954D01*
X0120523Y0035819D01*
X0120324Y0035687D01*
X0120123Y0035561D01*
X0119918Y0035440D01*
X0119710Y0035323D01*
X0119500Y0035212D01*
X0119287Y0035105D01*
X0119072Y0035004D01*
X0118855Y0034907D01*
X0118635Y0034816D01*
X0118413Y0034731D01*
X0118189Y0034650D01*
X0117963Y0034575D01*
X0117735Y0034505D01*
X0117506Y0034441D01*
X0117276Y0034382D01*
X0117044Y0034329D01*
X0116811Y0034281D01*
X0116576Y0034238D01*
X0116341Y0034202D01*
X0116105Y0034171D01*
X0115869Y0034145D01*
X0115631Y0034125D01*
X0115394Y0034111D01*
X0115156Y0034103D01*
X0114918Y0034100D01*
X0093702Y0034100D02*
X0093457Y0034103D01*
X0093211Y0034112D01*
X0092966Y0034127D01*
X0092722Y0034148D01*
X0092478Y0034175D01*
X0092235Y0034208D01*
X0091992Y0034247D01*
X0091751Y0034292D01*
X0091511Y0034343D01*
X0091272Y0034400D01*
X0091035Y0034462D01*
X0090799Y0034531D01*
X0090565Y0034605D01*
X0090333Y0034685D01*
X0090103Y0034770D01*
X0089875Y0034861D01*
X0089650Y0034958D01*
X0089426Y0035060D01*
X0089206Y0035168D01*
X0088988Y0035281D01*
X0088773Y0035399D01*
X0088561Y0035523D01*
X0088352Y0035651D01*
X0088146Y0035785D01*
X0087944Y0035924D01*
X0087745Y0036068D01*
X0087550Y0036217D01*
X0087358Y0036370D01*
X0087170Y0036528D01*
X0086986Y0036690D01*
X0086807Y0036858D01*
X0086631Y0037029D01*
X0074989Y0048671D02*
X0074813Y0048842D01*
X0074634Y0049010D01*
X0074450Y0049172D01*
X0074262Y0049330D01*
X0074070Y0049483D01*
X0073875Y0049632D01*
X0073676Y0049776D01*
X0073474Y0049915D01*
X0073268Y0050049D01*
X0073059Y0050177D01*
X0072847Y0050301D01*
X0072632Y0050419D01*
X0072414Y0050532D01*
X0072194Y0050640D01*
X0071970Y0050742D01*
X0071745Y0050839D01*
X0071517Y0050930D01*
X0071287Y0051015D01*
X0071055Y0051095D01*
X0070821Y0051169D01*
X0070585Y0051238D01*
X0070348Y0051300D01*
X0070109Y0051357D01*
X0069869Y0051408D01*
X0069628Y0051453D01*
X0069385Y0051492D01*
X0069142Y0051525D01*
X0068898Y0051552D01*
X0068654Y0051573D01*
X0068409Y0051588D01*
X0068163Y0051597D01*
X0067918Y0051600D01*
X0051714Y0043929D02*
X0051717Y0043684D01*
X0051726Y0043438D01*
X0051741Y0043193D01*
X0051762Y0042949D01*
X0051789Y0042705D01*
X0051822Y0042462D01*
X0051861Y0042219D01*
X0051906Y0041978D01*
X0051957Y0041738D01*
X0052014Y0041499D01*
X0052076Y0041262D01*
X0052145Y0041026D01*
X0052219Y0040792D01*
X0052299Y0040560D01*
X0052384Y0040330D01*
X0052475Y0040102D01*
X0052572Y0039877D01*
X0052674Y0039653D01*
X0052782Y0039433D01*
X0052895Y0039215D01*
X0053013Y0039000D01*
X0053137Y0038788D01*
X0053265Y0038579D01*
X0053399Y0038373D01*
X0053538Y0038171D01*
X0053682Y0037972D01*
X0053831Y0037777D01*
X0053984Y0037585D01*
X0054142Y0037397D01*
X0054304Y0037213D01*
X0054472Y0037034D01*
X0054643Y0036858D01*
X0054642Y0036858D02*
X0055060Y0036440D01*
X0031418Y0041600D02*
X0010060Y0041600D01*
X0010060Y0031600D02*
X0010060Y0026760D01*
X0010063Y0026518D01*
X0010072Y0026277D01*
X0010086Y0026036D01*
X0010107Y0025795D01*
X0010133Y0025555D01*
X0010165Y0025315D01*
X0010203Y0025076D01*
X0010246Y0024839D01*
X0010296Y0024602D01*
X0010351Y0024367D01*
X0010411Y0024133D01*
X0010478Y0023901D01*
X0010549Y0023670D01*
X0010627Y0023441D01*
X0010710Y0023214D01*
X0010798Y0022989D01*
X0010892Y0022766D01*
X0010991Y0022546D01*
X0011096Y0022328D01*
X0011205Y0022113D01*
X0011320Y0021900D01*
X0011440Y0021690D01*
X0011565Y0021484D01*
X0011695Y0021280D01*
X0011830Y0021079D01*
X0011970Y0020882D01*
X0012114Y0020688D01*
X0012263Y0020498D01*
X0012417Y0020312D01*
X0012575Y0020129D01*
X0012737Y0019950D01*
X0012904Y0019775D01*
X0013075Y0019604D01*
X0013250Y0019437D01*
X0013429Y0019275D01*
X0013612Y0019117D01*
X0013798Y0018963D01*
X0013988Y0018814D01*
X0014182Y0018670D01*
X0014379Y0018530D01*
X0014580Y0018395D01*
X0014784Y0018265D01*
X0014990Y0018140D01*
X0015200Y0018020D01*
X0015413Y0017905D01*
X0015628Y0017796D01*
X0015846Y0017691D01*
X0016066Y0017592D01*
X0016289Y0017498D01*
X0016514Y0017410D01*
X0016741Y0017327D01*
X0016970Y0017249D01*
X0017201Y0017178D01*
X0017433Y0017111D01*
X0017667Y0017051D01*
X0017902Y0016996D01*
X0018139Y0016946D01*
X0018376Y0016903D01*
X0018615Y0016865D01*
X0018855Y0016833D01*
X0019095Y0016807D01*
X0019336Y0016786D01*
X0019577Y0016772D01*
X0019818Y0016763D01*
X0020060Y0016760D01*
X0055060Y0016760D01*
X0155060Y0016760D01*
X0255060Y0016760D01*
X0290060Y0016760D01*
X0290302Y0016763D01*
X0290543Y0016772D01*
X0290784Y0016786D01*
X0291025Y0016807D01*
X0291265Y0016833D01*
X0291505Y0016865D01*
X0291744Y0016903D01*
X0291981Y0016946D01*
X0292218Y0016996D01*
X0292453Y0017051D01*
X0292687Y0017111D01*
X0292919Y0017178D01*
X0293150Y0017249D01*
X0293379Y0017327D01*
X0293606Y0017410D01*
X0293831Y0017498D01*
X0294054Y0017592D01*
X0294274Y0017691D01*
X0294492Y0017796D01*
X0294707Y0017905D01*
X0294920Y0018020D01*
X0295130Y0018140D01*
X0295336Y0018265D01*
X0295540Y0018395D01*
X0295741Y0018530D01*
X0295938Y0018670D01*
X0296132Y0018814D01*
X0296322Y0018963D01*
X0296508Y0019117D01*
X0296691Y0019275D01*
X0296870Y0019437D01*
X0297045Y0019604D01*
X0297216Y0019775D01*
X0297383Y0019950D01*
X0297545Y0020129D01*
X0297703Y0020312D01*
X0297857Y0020498D01*
X0298006Y0020688D01*
X0298150Y0020882D01*
X0298290Y0021079D01*
X0298425Y0021280D01*
X0298555Y0021484D01*
X0298680Y0021690D01*
X0298800Y0021900D01*
X0298915Y0022113D01*
X0299024Y0022328D01*
X0299129Y0022546D01*
X0299228Y0022766D01*
X0299322Y0022989D01*
X0299410Y0023214D01*
X0299493Y0023441D01*
X0299571Y0023670D01*
X0299642Y0023901D01*
X0299709Y0024133D01*
X0299769Y0024367D01*
X0299824Y0024602D01*
X0299874Y0024839D01*
X0299917Y0025076D01*
X0299955Y0025315D01*
X0299987Y0025555D01*
X0300013Y0025795D01*
X0300034Y0026036D01*
X0300048Y0026277D01*
X0300057Y0026518D01*
X0300060Y0026760D01*
X0300060Y0031600D01*
X0300060Y0041600D02*
X0286202Y0041600D01*
X0279131Y0044529D02*
X0274989Y0048671D01*
X0267918Y0051600D02*
X0258406Y0051600D01*
X0251714Y0051600D02*
X0251714Y0043929D01*
X0251717Y0043684D01*
X0251726Y0043438D01*
X0251741Y0043193D01*
X0251762Y0042949D01*
X0251789Y0042705D01*
X0251822Y0042462D01*
X0251861Y0042219D01*
X0251906Y0041978D01*
X0251957Y0041738D01*
X0252014Y0041499D01*
X0252076Y0041262D01*
X0252145Y0041026D01*
X0252219Y0040792D01*
X0252299Y0040560D01*
X0252384Y0040330D01*
X0252475Y0040102D01*
X0252572Y0039877D01*
X0252674Y0039653D01*
X0252782Y0039433D01*
X0252895Y0039215D01*
X0253013Y0039000D01*
X0253137Y0038788D01*
X0253265Y0038579D01*
X0253399Y0038373D01*
X0253538Y0038171D01*
X0253682Y0037972D01*
X0253831Y0037777D01*
X0253984Y0037585D01*
X0254142Y0037397D01*
X0254304Y0037213D01*
X0254472Y0037034D01*
X0254643Y0036858D01*
X0254642Y0036858D02*
X0255060Y0036440D01*
X0267918Y0051600D02*
X0268163Y0051597D01*
X0268409Y0051588D01*
X0268654Y0051573D01*
X0268898Y0051552D01*
X0269142Y0051525D01*
X0269385Y0051492D01*
X0269628Y0051453D01*
X0269869Y0051408D01*
X0270109Y0051357D01*
X0270348Y0051300D01*
X0270585Y0051238D01*
X0270821Y0051169D01*
X0271055Y0051095D01*
X0271287Y0051015D01*
X0271517Y0050930D01*
X0271745Y0050839D01*
X0271970Y0050742D01*
X0272194Y0050640D01*
X0272414Y0050532D01*
X0272632Y0050419D01*
X0272847Y0050301D01*
X0273059Y0050177D01*
X0273268Y0050049D01*
X0273474Y0049915D01*
X0273676Y0049776D01*
X0273875Y0049632D01*
X0274070Y0049483D01*
X0274262Y0049330D01*
X0274450Y0049172D01*
X0274634Y0049010D01*
X0274813Y0048842D01*
X0274989Y0048671D01*
X0279131Y0044529D02*
X0279307Y0044358D01*
X0279486Y0044190D01*
X0279670Y0044028D01*
X0279858Y0043870D01*
X0280050Y0043717D01*
X0280245Y0043568D01*
X0280444Y0043424D01*
X0280646Y0043285D01*
X0280852Y0043151D01*
X0281061Y0043023D01*
X0281273Y0042899D01*
X0281488Y0042781D01*
X0281706Y0042668D01*
X0281926Y0042560D01*
X0282150Y0042458D01*
X0282375Y0042361D01*
X0282603Y0042270D01*
X0282833Y0042185D01*
X0283065Y0042105D01*
X0283299Y0042031D01*
X0283535Y0041962D01*
X0283772Y0041900D01*
X0284011Y0041843D01*
X0284251Y0041792D01*
X0284492Y0041747D01*
X0284735Y0041708D01*
X0284978Y0041675D01*
X0285222Y0041648D01*
X0285466Y0041627D01*
X0285711Y0041612D01*
X0285957Y0041603D01*
X0286202Y0041600D01*
X0251714Y0051600D02*
X0236702Y0051600D01*
X0229631Y0048671D02*
X0217989Y0037029D01*
X0210918Y0034100D02*
X0198702Y0034100D01*
X0191631Y0037029D02*
X0179989Y0048671D01*
X0172918Y0051600D02*
X0158406Y0051600D01*
X0151714Y0043929D02*
X0151717Y0043684D01*
X0151726Y0043438D01*
X0151741Y0043193D01*
X0151762Y0042949D01*
X0151789Y0042705D01*
X0151822Y0042462D01*
X0151861Y0042219D01*
X0151906Y0041978D01*
X0151957Y0041738D01*
X0152014Y0041499D01*
X0152076Y0041262D01*
X0152145Y0041026D01*
X0152219Y0040792D01*
X0152299Y0040560D01*
X0152384Y0040330D01*
X0152475Y0040102D01*
X0152572Y0039877D01*
X0152674Y0039653D01*
X0152782Y0039433D01*
X0152895Y0039215D01*
X0153013Y0039000D01*
X0153137Y0038788D01*
X0153265Y0038579D01*
X0153399Y0038373D01*
X0153538Y0038171D01*
X0153682Y0037972D01*
X0153831Y0037777D01*
X0153984Y0037585D01*
X0154142Y0037397D01*
X0154304Y0037213D01*
X0154472Y0037034D01*
X0154643Y0036858D01*
X0154642Y0036858D02*
X0155060Y0036440D01*
X0172918Y0051600D02*
X0173163Y0051597D01*
X0173409Y0051588D01*
X0173654Y0051573D01*
X0173898Y0051552D01*
X0174142Y0051525D01*
X0174385Y0051492D01*
X0174628Y0051453D01*
X0174869Y0051408D01*
X0175109Y0051357D01*
X0175348Y0051300D01*
X0175585Y0051238D01*
X0175821Y0051169D01*
X0176055Y0051095D01*
X0176287Y0051015D01*
X0176517Y0050930D01*
X0176745Y0050839D01*
X0176970Y0050742D01*
X0177194Y0050640D01*
X0177414Y0050532D01*
X0177632Y0050419D01*
X0177847Y0050301D01*
X0178059Y0050177D01*
X0178268Y0050049D01*
X0178474Y0049915D01*
X0178676Y0049776D01*
X0178875Y0049632D01*
X0179070Y0049483D01*
X0179262Y0049330D01*
X0179450Y0049172D01*
X0179634Y0049010D01*
X0179813Y0048842D01*
X0179989Y0048671D01*
X0191631Y0037029D02*
X0191807Y0036858D01*
X0191986Y0036690D01*
X0192170Y0036528D01*
X0192358Y0036370D01*
X0192550Y0036217D01*
X0192745Y0036068D01*
X0192944Y0035924D01*
X0193146Y0035785D01*
X0193352Y0035651D01*
X0193561Y0035523D01*
X0193773Y0035399D01*
X0193988Y0035281D01*
X0194206Y0035168D01*
X0194426Y0035060D01*
X0194650Y0034958D01*
X0194875Y0034861D01*
X0195103Y0034770D01*
X0195333Y0034685D01*
X0195565Y0034605D01*
X0195799Y0034531D01*
X0196035Y0034462D01*
X0196272Y0034400D01*
X0196511Y0034343D01*
X0196751Y0034292D01*
X0196992Y0034247D01*
X0197235Y0034208D01*
X0197478Y0034175D01*
X0197722Y0034148D01*
X0197966Y0034127D01*
X0198211Y0034112D01*
X0198457Y0034103D01*
X0198702Y0034100D01*
X0210918Y0034100D02*
X0211163Y0034103D01*
X0211409Y0034112D01*
X0211654Y0034127D01*
X0211898Y0034148D01*
X0212142Y0034175D01*
X0212385Y0034208D01*
X0212628Y0034247D01*
X0212869Y0034292D01*
X0213109Y0034343D01*
X0213348Y0034400D01*
X0213585Y0034462D01*
X0213821Y0034531D01*
X0214055Y0034605D01*
X0214287Y0034685D01*
X0214517Y0034770D01*
X0214745Y0034861D01*
X0214970Y0034958D01*
X0215194Y0035060D01*
X0215414Y0035168D01*
X0215632Y0035281D01*
X0215847Y0035399D01*
X0216059Y0035523D01*
X0216268Y0035651D01*
X0216474Y0035785D01*
X0216676Y0035924D01*
X0216875Y0036068D01*
X0217070Y0036217D01*
X0217262Y0036370D01*
X0217450Y0036528D01*
X0217634Y0036690D01*
X0217813Y0036858D01*
X0217989Y0037029D01*
X0229631Y0048671D02*
X0229807Y0048842D01*
X0229986Y0049010D01*
X0230170Y0049172D01*
X0230358Y0049330D01*
X0230550Y0049483D01*
X0230745Y0049632D01*
X0230944Y0049776D01*
X0231146Y0049915D01*
X0231352Y0050049D01*
X0231561Y0050177D01*
X0231773Y0050301D01*
X0231988Y0050419D01*
X0232206Y0050532D01*
X0232426Y0050640D01*
X0232650Y0050742D01*
X0232875Y0050839D01*
X0233103Y0050930D01*
X0233333Y0051015D01*
X0233565Y0051095D01*
X0233799Y0051169D01*
X0234035Y0051238D01*
X0234272Y0051300D01*
X0234511Y0051357D01*
X0234751Y0051408D01*
X0234992Y0051453D01*
X0235235Y0051492D01*
X0235478Y0051525D01*
X0235722Y0051552D01*
X0235966Y0051573D01*
X0236211Y0051588D01*
X0236457Y0051597D01*
X0236702Y0051600D01*
X0245808Y0065104D02*
X0225698Y0065104D01*
X0211493Y0075167D02*
X0211317Y0075338D01*
X0211138Y0075506D01*
X0210954Y0075668D01*
X0210766Y0075826D01*
X0210574Y0075979D01*
X0210379Y0076128D01*
X0210180Y0076272D01*
X0209978Y0076411D01*
X0209772Y0076545D01*
X0209563Y0076673D01*
X0209351Y0076797D01*
X0209136Y0076915D01*
X0208918Y0077028D01*
X0208698Y0077136D01*
X0208474Y0077238D01*
X0208249Y0077335D01*
X0208021Y0077426D01*
X0207791Y0077511D01*
X0207559Y0077591D01*
X0207325Y0077665D01*
X0207089Y0077734D01*
X0206852Y0077796D01*
X0206613Y0077853D01*
X0206373Y0077904D01*
X0206132Y0077949D01*
X0205889Y0077988D01*
X0205646Y0078021D01*
X0205402Y0078048D01*
X0205158Y0078069D01*
X0204913Y0078084D01*
X0204667Y0078093D01*
X0204422Y0078096D01*
X0284950Y0061600D02*
X0300060Y0061600D01*
X0074950Y0071600D02*
X0074705Y0071603D01*
X0074459Y0071612D01*
X0074214Y0071627D01*
X0073970Y0071648D01*
X0073726Y0071675D01*
X0073483Y0071708D01*
X0073240Y0071747D01*
X0072999Y0071792D01*
X0072759Y0071843D01*
X0072520Y0071900D01*
X0072283Y0071962D01*
X0072047Y0072031D01*
X0071813Y0072105D01*
X0071581Y0072185D01*
X0071351Y0072270D01*
X0071123Y0072361D01*
X0070898Y0072458D01*
X0070674Y0072560D01*
X0070454Y0072668D01*
X0070236Y0072781D01*
X0070021Y0072899D01*
X0069809Y0073023D01*
X0069600Y0073151D01*
X0069394Y0073285D01*
X0069192Y0073424D01*
X0068993Y0073568D01*
X0068798Y0073717D01*
X0068606Y0073870D01*
X0068418Y0074028D01*
X0068234Y0074190D01*
X0068055Y0074358D01*
X0067879Y0074529D01*
X0064312Y0078096D01*
X0045808Y0065104D02*
X0045233Y0064529D01*
X0045060Y0094100D02*
X0027560Y0094100D01*
D17*
X0037060Y0084100D03*
X0112560Y0086600D03*
X0128060Y0059100D03*
X0082060Y0054600D03*
X0027060Y0051600D03*
X0210060Y0023100D03*
X0252560Y0009100D03*
X0230060Y0059100D03*
X0287560Y0068600D03*
X0222560Y0084100D03*
D18*
X0230991Y0084297D02*
X0147660Y0084297D01*
X0147660Y0083099D02*
X0234176Y0083099D01*
X0234176Y0083138D02*
X0234176Y0082369D01*
X0234944Y0082369D01*
X0234944Y0078988D01*
X0236739Y0078988D01*
X0237146Y0079097D01*
X0237511Y0079308D01*
X0237809Y0079606D01*
X0238019Y0079971D01*
X0238128Y0080378D01*
X0238128Y0082369D01*
X0234944Y0082369D01*
X0234944Y0083138D01*
X0238128Y0083138D01*
X0238128Y0085130D01*
X0238019Y0085536D01*
X0237809Y0085901D01*
X0237511Y0086199D01*
X0237457Y0086230D01*
X0237928Y0086701D01*
X0237928Y0091512D01*
X0242460Y0091512D01*
X0242460Y0081649D01*
X0241849Y0081038D01*
X0241849Y0075154D01*
X0242669Y0074334D01*
X0248947Y0074334D01*
X0249767Y0075154D01*
X0249767Y0081038D01*
X0248947Y0081858D01*
X0247660Y0081858D01*
X0247660Y0091512D01*
X0257906Y0091512D01*
X0258872Y0091448D01*
X0260738Y0090949D01*
X0262411Y0089983D01*
X0263139Y0089344D01*
X0263504Y0088979D01*
X0284663Y0067820D01*
X0285038Y0066915D01*
X0285875Y0066078D01*
X0286968Y0065625D01*
X0288152Y0065625D01*
X0289245Y0066078D01*
X0290082Y0066915D01*
X0290535Y0068008D01*
X0290535Y0069192D01*
X0290082Y0070285D01*
X0289245Y0071122D01*
X0288340Y0071497D01*
X0267181Y0092656D01*
X0266816Y0093021D01*
X0265643Y0094194D01*
X0265643Y0094194D01*
X0262769Y0095853D01*
X0259565Y0096712D01*
X0075574Y0096712D01*
X0075546Y0096700D01*
X0032003Y0096700D01*
X0031884Y0096989D01*
X0030449Y0098424D01*
X0028574Y0099200D01*
X0026546Y0099200D01*
X0024671Y0098424D01*
X0023236Y0096989D01*
X0022560Y0095356D01*
X0021884Y0096989D01*
X0020449Y0098424D01*
X0018574Y0099200D01*
X0016546Y0099200D01*
X0014671Y0098424D01*
X0013236Y0096989D01*
X0012460Y0095114D01*
X0012460Y0093086D01*
X0013236Y0091211D01*
X0014671Y0089776D01*
X0016546Y0089000D01*
X0018574Y0089000D01*
X0020449Y0089776D01*
X0021884Y0091211D01*
X0022560Y0092844D01*
X0023236Y0091211D01*
X0024671Y0089776D01*
X0026546Y0089000D01*
X0028574Y0089000D01*
X0030449Y0089776D01*
X0031884Y0091211D01*
X0032003Y0091500D01*
X0042460Y0091500D01*
X0042460Y0081649D01*
X0041849Y0081038D01*
X0041849Y0075154D01*
X0042669Y0074334D01*
X0048947Y0074334D01*
X0049767Y0075154D01*
X0049767Y0081038D01*
X0048947Y0081858D01*
X0047660Y0081858D01*
X0047660Y0091500D01*
X0073191Y0091500D01*
X0073191Y0086701D01*
X0073663Y0086230D01*
X0073609Y0086199D01*
X0073311Y0085901D01*
X0073101Y0085536D01*
X0072991Y0085130D01*
X0072991Y0083138D01*
X0076176Y0083138D01*
X0076176Y0082369D01*
X0076944Y0082369D01*
X0076944Y0078988D01*
X0078739Y0078988D01*
X0079146Y0079097D01*
X0079511Y0079308D01*
X0079809Y0079606D01*
X0080019Y0079971D01*
X0080128Y0080378D01*
X0080128Y0082369D01*
X0076944Y0082369D01*
X0076944Y0083138D01*
X0080128Y0083138D01*
X0080128Y0085130D01*
X0080019Y0085536D01*
X0079809Y0085901D01*
X0079511Y0086199D01*
X0079457Y0086230D01*
X0079928Y0086701D01*
X0079928Y0091512D01*
X0117191Y0091512D01*
X0117191Y0086701D01*
X0117663Y0086230D01*
X0117609Y0086199D01*
X0117311Y0085901D01*
X0117101Y0085536D01*
X0116991Y0085130D01*
X0116991Y0083138D01*
X0120176Y0083138D01*
X0120176Y0082369D01*
X0120944Y0082369D01*
X0120944Y0078988D01*
X0122739Y0078988D01*
X0123146Y0079097D01*
X0123511Y0079308D01*
X0123809Y0079606D01*
X0124019Y0079971D01*
X0124128Y0080378D01*
X0124128Y0082369D01*
X0120944Y0082369D01*
X0120944Y0083138D01*
X0124128Y0083138D01*
X0124128Y0085130D01*
X0124019Y0085536D01*
X0123809Y0085901D01*
X0123511Y0086199D01*
X0123457Y0086230D01*
X0123928Y0086701D01*
X0123928Y0091512D01*
X0142460Y0091512D01*
X0142460Y0081649D01*
X0141849Y0081038D01*
X0141849Y0075154D01*
X0142669Y0074334D01*
X0148947Y0074334D01*
X0149767Y0075154D01*
X0149767Y0081038D01*
X0148947Y0081858D01*
X0147660Y0081858D01*
X0147660Y0091512D01*
X0231191Y0091512D01*
X0231191Y0086701D01*
X0231663Y0086230D01*
X0231609Y0086199D01*
X0231311Y0085901D01*
X0231101Y0085536D01*
X0230991Y0085130D01*
X0230991Y0083138D01*
X0234176Y0083138D01*
X0234176Y0082369D02*
X0230991Y0082369D01*
X0230991Y0080378D01*
X0231101Y0079971D01*
X0231311Y0079606D01*
X0231609Y0079308D01*
X0231974Y0079097D01*
X0232381Y0078988D01*
X0234176Y0078988D01*
X0234176Y0082369D01*
X0234176Y0081900D02*
X0234944Y0081900D01*
X0234944Y0080702D02*
X0234176Y0080702D01*
X0234176Y0079503D02*
X0234944Y0079503D01*
X0237706Y0079503D02*
X0241849Y0079503D01*
X0241849Y0078305D02*
X0211940Y0078305D01*
X0212158Y0078179D02*
X0209285Y0079837D01*
X0206081Y0080696D01*
X0168271Y0080696D01*
X0168271Y0081038D01*
X0167451Y0081858D01*
X0161173Y0081858D01*
X0160353Y0081038D01*
X0160353Y0075154D01*
X0161173Y0074334D01*
X0167451Y0074334D01*
X0168271Y0075154D01*
X0168271Y0075496D01*
X0204422Y0075496D01*
X0205388Y0075433D01*
X0207254Y0074933D01*
X0208927Y0073967D01*
X0209654Y0073329D01*
X0210020Y0072963D01*
X0210020Y0072963D01*
X0216423Y0066560D01*
X0216789Y0066194D01*
X0217962Y0065021D01*
X0220835Y0063363D01*
X0224039Y0062504D01*
X0241849Y0062504D01*
X0241849Y0062162D01*
X0242669Y0061342D01*
X0248947Y0061342D01*
X0249767Y0062162D01*
X0249767Y0068046D01*
X0248947Y0068866D01*
X0242669Y0068866D01*
X0241849Y0068046D01*
X0241849Y0067704D01*
X0225698Y0067704D01*
X0224732Y0067767D01*
X0222866Y0068267D01*
X0221193Y0069233D01*
X0220466Y0069871D01*
X0220100Y0070237D01*
X0220100Y0070237D01*
X0213697Y0076640D01*
X0213331Y0077006D01*
X0212158Y0078179D01*
X0212158Y0078179D01*
X0213231Y0077106D02*
X0241849Y0077106D01*
X0241849Y0075908D02*
X0214429Y0075908D01*
X0213697Y0076640D02*
X0213697Y0076640D01*
X0215628Y0074709D02*
X0242294Y0074709D01*
X0249322Y0074709D02*
X0260798Y0074709D01*
X0261173Y0074334D02*
X0264397Y0074334D01*
X0275675Y0063056D01*
X0276041Y0062690D01*
X0277214Y0061517D01*
X0280087Y0059859D01*
X0283291Y0059000D01*
X0295617Y0059000D01*
X0295736Y0058711D01*
X0297171Y0057276D01*
X0298804Y0056600D01*
X0297171Y0055924D01*
X0295736Y0054489D01*
X0294960Y0052614D01*
X0294960Y0050586D01*
X0295736Y0048711D01*
X0297171Y0047276D01*
X0298804Y0046600D01*
X0297171Y0045924D01*
X0295736Y0044489D01*
X0295617Y0044200D01*
X0286202Y0044200D01*
X0285236Y0044263D01*
X0283370Y0044763D01*
X0281697Y0045729D01*
X0280970Y0046367D01*
X0280645Y0046692D01*
X0277119Y0050218D01*
X0276827Y0050510D01*
X0275654Y0051682D01*
X0272781Y0053341D01*
X0269577Y0054200D01*
X0261920Y0054200D01*
X0261152Y0054968D01*
X0255661Y0054968D01*
X0255060Y0054367D01*
X0254459Y0054968D01*
X0248968Y0054968D01*
X0248200Y0054200D01*
X0235043Y0054200D01*
X0231839Y0053341D01*
X0231839Y0053341D01*
X0228966Y0051682D01*
X0228966Y0051682D01*
X0227793Y0050510D01*
X0227793Y0050510D01*
X0227433Y0050150D01*
X0216475Y0039192D01*
X0216150Y0038867D01*
X0215423Y0038229D01*
X0213750Y0037263D01*
X0212458Y0036917D01*
X0215410Y0038622D01*
X0218776Y0042249D01*
X0220922Y0046707D01*
X0221660Y0051600D01*
X0220922Y0056493D01*
X0218776Y0060951D01*
X0218776Y0060951D01*
X0215410Y0064578D01*
X0211125Y0067052D01*
X0211125Y0067052D01*
X0206301Y0068154D01*
X0206300Y0068154D02*
X0201366Y0067784D01*
X0196760Y0065976D01*
X0196760Y0065976D01*
X0192891Y0062891D01*
X0190104Y0058802D01*
X0188645Y0054074D01*
X0188645Y0049126D01*
X0190104Y0044398D01*
X0190104Y0044398D01*
X0192891Y0040309D01*
X0192891Y0040309D01*
X0192891Y0040309D01*
X0196760Y0037224D01*
X0197973Y0036748D01*
X0197736Y0036763D01*
X0195870Y0037263D01*
X0195870Y0037263D01*
X0194197Y0038229D01*
X0193470Y0038867D01*
X0193104Y0039233D01*
X0193104Y0039233D01*
X0182193Y0050144D01*
X0181827Y0050510D01*
X0180654Y0051682D01*
X0177781Y0053341D01*
X0174577Y0054200D01*
X0161920Y0054200D01*
X0161152Y0054968D01*
X0155661Y0054968D01*
X0155060Y0054367D01*
X0154459Y0054968D01*
X0148968Y0054968D01*
X0148200Y0054200D01*
X0139043Y0054200D01*
X0135839Y0053341D01*
X0135839Y0053341D01*
X0132966Y0051682D01*
X0132966Y0051682D01*
X0131793Y0050510D01*
X0131793Y0050510D01*
X0131439Y0050156D01*
X0120469Y0039186D01*
X0120150Y0038867D01*
X0119423Y0038229D01*
X0117750Y0037263D01*
X0115884Y0036763D01*
X0114918Y0036700D01*
X0112082Y0036700D01*
X0115410Y0038622D01*
X0118776Y0042249D01*
X0120922Y0046707D01*
X0121660Y0051600D01*
X0120922Y0056493D01*
X0118776Y0060951D01*
X0118776Y0060951D01*
X0115410Y0064578D01*
X0111125Y0067052D01*
X0111125Y0067052D01*
X0106301Y0068154D01*
X0106300Y0068154D02*
X0101366Y0067784D01*
X0096760Y0065976D01*
X0096760Y0065976D01*
X0092891Y0062891D01*
X0090104Y0058802D01*
X0088645Y0054074D01*
X0088645Y0049126D01*
X0090104Y0044398D01*
X0090104Y0044398D01*
X0092891Y0040309D01*
X0092891Y0040309D01*
X0092891Y0040309D01*
X0096760Y0037224D01*
X0098095Y0036700D01*
X0093702Y0036700D01*
X0092736Y0036763D01*
X0090870Y0037263D01*
X0089197Y0038229D01*
X0089197Y0038229D01*
X0088470Y0038867D01*
X0088104Y0039233D01*
X0088104Y0039233D01*
X0077193Y0050144D01*
X0076827Y0050510D01*
X0075654Y0051682D01*
X0072781Y0053341D01*
X0069577Y0054200D01*
X0061920Y0054200D01*
X0061152Y0054968D01*
X0055661Y0054968D01*
X0055060Y0054367D01*
X0054459Y0054968D01*
X0048968Y0054968D01*
X0048200Y0054200D01*
X0048043Y0054200D01*
X0044839Y0053341D01*
X0041966Y0051682D01*
X0040793Y0050510D01*
X0040793Y0050510D01*
X0040444Y0050161D01*
X0037016Y0046733D01*
X0036650Y0046367D01*
X0035923Y0045729D01*
X0034250Y0044763D01*
X0032384Y0044263D01*
X0031418Y0044200D01*
X0014503Y0044200D01*
X0014384Y0044489D01*
X0012949Y0045924D01*
X0011316Y0046600D01*
X0012949Y0047276D01*
X0014384Y0048711D01*
X0014503Y0049000D01*
X0025563Y0049000D01*
X0026468Y0048625D01*
X0027652Y0048625D01*
X0028745Y0049078D01*
X0029582Y0049915D01*
X0030035Y0051008D01*
X0030035Y0052192D01*
X0029582Y0053285D01*
X0028745Y0054122D01*
X0027652Y0054575D01*
X0026468Y0054575D01*
X0025563Y0054200D01*
X0014503Y0054200D01*
X0014384Y0054489D01*
X0012949Y0055924D01*
X0011316Y0056600D01*
X0012949Y0057276D01*
X0014384Y0058711D01*
X0014503Y0059000D01*
X0039821Y0059000D01*
X0043025Y0059859D01*
X0043025Y0059859D01*
X0045594Y0061342D01*
X0048947Y0061342D01*
X0049767Y0062162D01*
X0049767Y0068046D01*
X0048947Y0068866D01*
X0042669Y0068866D01*
X0041849Y0068046D01*
X0041849Y0065257D01*
X0040994Y0064763D01*
X0039128Y0064263D01*
X0038162Y0064200D01*
X0014503Y0064200D01*
X0014384Y0064489D01*
X0012949Y0065924D01*
X0011539Y0066508D01*
X0012094Y0066688D01*
X0012838Y0067067D01*
X0013513Y0067557D01*
X0014103Y0068147D01*
X0014593Y0068822D01*
X0014972Y0069566D01*
X0015229Y0070359D01*
X0015360Y0071183D01*
X0015360Y0071200D01*
X0010460Y0071200D01*
X0010460Y0072000D01*
X0015360Y0072000D01*
X0015360Y0072017D01*
X0015229Y0072841D01*
X0014972Y0073634D01*
X0014593Y0074378D01*
X0014103Y0075053D01*
X0013513Y0075643D01*
X0012838Y0076133D01*
X0012094Y0076512D01*
X0011301Y0076769D01*
X0010477Y0076900D01*
X0010460Y0076900D01*
X0010460Y0072000D01*
X0009660Y0072000D01*
X0009660Y0076900D01*
X0009643Y0076900D01*
X0008819Y0076769D01*
X0008025Y0076512D01*
X0007282Y0076133D01*
X0006660Y0075681D01*
X0006660Y0100000D01*
X0303460Y0100000D01*
X0303460Y0075681D01*
X0302838Y0076133D01*
X0302094Y0076512D01*
X0301301Y0076769D01*
X0300477Y0076900D01*
X0300460Y0076900D01*
X0300460Y0072000D01*
X0299660Y0072000D01*
X0299660Y0076900D01*
X0299643Y0076900D01*
X0298819Y0076769D01*
X0298025Y0076512D01*
X0297282Y0076133D01*
X0296607Y0075643D01*
X0296017Y0075053D01*
X0295527Y0074378D01*
X0295148Y0073634D01*
X0294890Y0072841D01*
X0294760Y0072017D01*
X0294760Y0072000D01*
X0299660Y0072000D01*
X0299660Y0071200D01*
X0294760Y0071200D01*
X0294760Y0071183D01*
X0294890Y0070359D01*
X0295148Y0069566D01*
X0295527Y0068822D01*
X0296017Y0068147D01*
X0296607Y0067557D01*
X0297282Y0067067D01*
X0298025Y0066688D01*
X0298581Y0066508D01*
X0297171Y0065924D01*
X0295736Y0064489D01*
X0295617Y0064200D01*
X0284950Y0064200D01*
X0283984Y0064263D01*
X0282118Y0064763D01*
X0280445Y0065729D01*
X0279718Y0066367D01*
X0279352Y0066733D01*
X0268271Y0077814D01*
X0268271Y0081038D01*
X0267451Y0081858D01*
X0261173Y0081858D01*
X0260353Y0081038D01*
X0260353Y0075154D01*
X0261173Y0074334D01*
X0260353Y0075908D02*
X0249767Y0075908D01*
X0249767Y0077106D02*
X0260353Y0077106D01*
X0260353Y0078305D02*
X0249767Y0078305D01*
X0249767Y0079503D02*
X0260353Y0079503D01*
X0260353Y0080702D02*
X0249767Y0080702D01*
X0247660Y0081900D02*
X0270583Y0081900D01*
X0271781Y0080702D02*
X0268271Y0080702D01*
X0268271Y0079503D02*
X0272980Y0079503D01*
X0274178Y0078305D02*
X0268271Y0078305D01*
X0268979Y0077106D02*
X0275377Y0077106D01*
X0276575Y0075908D02*
X0270177Y0075908D01*
X0271376Y0074709D02*
X0277774Y0074709D01*
X0278972Y0073511D02*
X0272574Y0073511D01*
X0273773Y0072312D02*
X0280171Y0072312D01*
X0281369Y0071114D02*
X0274971Y0071114D01*
X0276170Y0069915D02*
X0282568Y0069915D01*
X0283766Y0068717D02*
X0277368Y0068717D01*
X0278567Y0067518D02*
X0284788Y0067518D01*
X0285633Y0066320D02*
X0279772Y0066320D01*
X0281499Y0065121D02*
X0296369Y0065121D01*
X0298127Y0066320D02*
X0289487Y0066320D01*
X0290332Y0067518D02*
X0296661Y0067518D01*
X0295604Y0068717D02*
X0290535Y0068717D01*
X0290235Y0069915D02*
X0295035Y0069915D01*
X0294771Y0071114D02*
X0289254Y0071114D01*
X0287525Y0072312D02*
X0294807Y0072312D01*
X0295108Y0073511D02*
X0286326Y0073511D01*
X0285128Y0074709D02*
X0295768Y0074709D01*
X0296972Y0075908D02*
X0283929Y0075908D01*
X0282731Y0077106D02*
X0303460Y0077106D01*
X0303460Y0078305D02*
X0281532Y0078305D01*
X0280334Y0079503D02*
X0303460Y0079503D01*
X0303460Y0080702D02*
X0279135Y0080702D01*
X0277937Y0081900D02*
X0303460Y0081900D01*
X0303460Y0083099D02*
X0276738Y0083099D01*
X0275540Y0084297D02*
X0303460Y0084297D01*
X0303460Y0085496D02*
X0274341Y0085496D01*
X0273143Y0086694D02*
X0303460Y0086694D01*
X0303460Y0087893D02*
X0271944Y0087893D01*
X0270746Y0089091D02*
X0303460Y0089091D01*
X0303460Y0090290D02*
X0269547Y0090290D01*
X0268349Y0091488D02*
X0303460Y0091488D01*
X0303460Y0092687D02*
X0267150Y0092687D01*
X0265952Y0093885D02*
X0303460Y0093885D01*
X0303460Y0095084D02*
X0264102Y0095084D01*
X0262769Y0095853D02*
X0262769Y0095853D01*
X0261167Y0096282D02*
X0303460Y0096282D01*
X0303460Y0097481D02*
X0031392Y0097481D01*
X0029831Y0098679D02*
X0303460Y0098679D01*
X0303460Y0099878D02*
X0006660Y0099878D01*
X0006660Y0098679D02*
X0015289Y0098679D01*
X0013728Y0097481D02*
X0006660Y0097481D01*
X0006660Y0096282D02*
X0012944Y0096282D01*
X0012460Y0095084D02*
X0006660Y0095084D01*
X0006660Y0093885D02*
X0012460Y0093885D01*
X0012625Y0092687D02*
X0006660Y0092687D01*
X0006660Y0091488D02*
X0013122Y0091488D01*
X0014158Y0090290D02*
X0006660Y0090290D01*
X0006660Y0089091D02*
X0016325Y0089091D01*
X0018795Y0089091D02*
X0026325Y0089091D01*
X0028795Y0089091D02*
X0042460Y0089091D01*
X0042460Y0087893D02*
X0006660Y0087893D01*
X0006660Y0086694D02*
X0042460Y0086694D01*
X0042460Y0085496D02*
X0006660Y0085496D01*
X0006660Y0084297D02*
X0042460Y0084297D01*
X0042460Y0083099D02*
X0006660Y0083099D01*
X0006660Y0081900D02*
X0042460Y0081900D01*
X0041849Y0080702D02*
X0006660Y0080702D01*
X0006660Y0079503D02*
X0041849Y0079503D01*
X0041849Y0078305D02*
X0006660Y0078305D01*
X0006660Y0077106D02*
X0041849Y0077106D01*
X0041849Y0075908D02*
X0013148Y0075908D01*
X0014352Y0074709D02*
X0042294Y0074709D01*
X0049322Y0074709D02*
X0060798Y0074709D01*
X0061173Y0074334D02*
X0064397Y0074334D01*
X0065675Y0073056D01*
X0066041Y0072690D01*
X0067214Y0071518D01*
X0067214Y0071517D02*
X0070087Y0069859D01*
X0073291Y0069000D01*
X0135170Y0069000D01*
X0136136Y0068937D01*
X0138002Y0068437D01*
X0139675Y0067471D01*
X0140402Y0066833D01*
X0140733Y0066502D01*
X0141849Y0065386D01*
X0141849Y0062162D01*
X0142669Y0061342D01*
X0148947Y0061342D01*
X0149767Y0062162D01*
X0149767Y0068046D01*
X0148947Y0068866D01*
X0145723Y0068866D01*
X0144410Y0070179D01*
X0144079Y0070510D01*
X0142906Y0071682D01*
X0140033Y0073341D01*
X0136829Y0074200D01*
X0074950Y0074200D01*
X0073984Y0074263D01*
X0072118Y0074763D01*
X0070445Y0075729D01*
X0069718Y0076367D01*
X0069352Y0076733D01*
X0068271Y0077814D01*
X0068271Y0081038D01*
X0067451Y0081858D01*
X0061173Y0081858D01*
X0060353Y0081038D01*
X0060353Y0075154D01*
X0061173Y0074334D01*
X0060353Y0075908D02*
X0049767Y0075908D01*
X0049767Y0077106D02*
X0060353Y0077106D01*
X0060353Y0078305D02*
X0049767Y0078305D01*
X0049767Y0079503D02*
X0060353Y0079503D01*
X0060353Y0080702D02*
X0049767Y0080702D01*
X0047660Y0081900D02*
X0072991Y0081900D01*
X0072991Y0082369D02*
X0072991Y0080378D01*
X0073101Y0079971D01*
X0073311Y0079606D01*
X0073609Y0079308D01*
X0073974Y0079097D01*
X0074381Y0078988D01*
X0076176Y0078988D01*
X0076176Y0082369D01*
X0072991Y0082369D01*
X0072991Y0084297D02*
X0047660Y0084297D01*
X0047660Y0083099D02*
X0076176Y0083099D01*
X0076944Y0083099D02*
X0120176Y0083099D01*
X0120176Y0082369D02*
X0116991Y0082369D01*
X0116991Y0080378D01*
X0117101Y0079971D01*
X0117311Y0079606D01*
X0117609Y0079308D01*
X0117974Y0079097D01*
X0118381Y0078988D01*
X0120176Y0078988D01*
X0120176Y0082369D01*
X0120176Y0081900D02*
X0120944Y0081900D01*
X0120944Y0080702D02*
X0120176Y0080702D01*
X0120176Y0079503D02*
X0120944Y0079503D01*
X0123706Y0079503D02*
X0141849Y0079503D01*
X0141849Y0078305D02*
X0068271Y0078305D01*
X0068271Y0079503D02*
X0073414Y0079503D01*
X0072991Y0080702D02*
X0068271Y0080702D01*
X0076176Y0080702D02*
X0076944Y0080702D01*
X0076944Y0081900D02*
X0076176Y0081900D01*
X0080128Y0081900D02*
X0116991Y0081900D01*
X0116991Y0080702D02*
X0080128Y0080702D01*
X0079706Y0079503D02*
X0117414Y0079503D01*
X0120944Y0083099D02*
X0142460Y0083099D01*
X0142460Y0084297D02*
X0124128Y0084297D01*
X0124030Y0085496D02*
X0142460Y0085496D01*
X0142460Y0086694D02*
X0123922Y0086694D01*
X0123928Y0087893D02*
X0142460Y0087893D01*
X0142460Y0089091D02*
X0123928Y0089091D01*
X0123928Y0090290D02*
X0142460Y0090290D01*
X0142460Y0091488D02*
X0123928Y0091488D01*
X0117191Y0091488D02*
X0079928Y0091488D01*
X0079928Y0090290D02*
X0117191Y0090290D01*
X0117191Y0089091D02*
X0079928Y0089091D01*
X0079928Y0087893D02*
X0117191Y0087893D01*
X0117198Y0086694D02*
X0079922Y0086694D01*
X0080030Y0085496D02*
X0117090Y0085496D01*
X0116991Y0084297D02*
X0080128Y0084297D01*
X0073090Y0085496D02*
X0047660Y0085496D01*
X0047660Y0086694D02*
X0073198Y0086694D01*
X0073191Y0087893D02*
X0047660Y0087893D01*
X0047660Y0089091D02*
X0073191Y0089091D01*
X0073191Y0090290D02*
X0047660Y0090290D01*
X0047660Y0091488D02*
X0073191Y0091488D01*
X0042460Y0091488D02*
X0031998Y0091488D01*
X0030962Y0090290D02*
X0042460Y0090290D01*
X0024158Y0090290D02*
X0020962Y0090290D01*
X0021998Y0091488D02*
X0023122Y0091488D01*
X0022625Y0092687D02*
X0022495Y0092687D01*
X0022176Y0096282D02*
X0022944Y0096282D01*
X0023728Y0097481D02*
X0021392Y0097481D01*
X0019831Y0098679D02*
X0025289Y0098679D01*
X0076176Y0079503D02*
X0076944Y0079503D01*
X0068979Y0077106D02*
X0141849Y0077106D01*
X0141849Y0075908D02*
X0070242Y0075908D01*
X0072320Y0074709D02*
X0142294Y0074709D01*
X0140033Y0073341D02*
X0140033Y0073341D01*
X0139401Y0073511D02*
X0209447Y0073511D01*
X0210671Y0072312D02*
X0141816Y0072312D01*
X0142906Y0071682D02*
X0142906Y0071682D01*
X0143475Y0071114D02*
X0211869Y0071114D01*
X0213068Y0069915D02*
X0144674Y0069915D01*
X0144079Y0070510D02*
X0144079Y0070510D01*
X0149096Y0068717D02*
X0160741Y0068717D01*
X0160770Y0068746D02*
X0160473Y0068449D01*
X0160262Y0068084D01*
X0160153Y0067677D01*
X0160153Y0065685D01*
X0163731Y0065685D01*
X0163731Y0069066D01*
X0161542Y0069066D01*
X0161135Y0068957D01*
X0160770Y0068746D01*
X0163731Y0068717D02*
X0164893Y0068717D01*
X0164893Y0069066D02*
X0167082Y0069066D01*
X0167489Y0068957D01*
X0167853Y0068746D01*
X0168151Y0068449D01*
X0168362Y0068084D01*
X0168471Y0067677D01*
X0168471Y0065685D01*
X0164893Y0065685D01*
X0163731Y0065685D01*
X0163731Y0064523D01*
X0164893Y0064523D01*
X0164893Y0065685D01*
X0164893Y0069066D01*
X0167883Y0068717D02*
X0214266Y0068717D01*
X0215465Y0067518D02*
X0209085Y0067518D01*
X0206301Y0068154D02*
X0206300Y0068154D01*
X0201366Y0067784D02*
X0201366Y0067784D01*
X0200689Y0067518D02*
X0168471Y0067518D01*
X0168471Y0066320D02*
X0197635Y0066320D01*
X0195688Y0065121D02*
X0164893Y0065121D01*
X0164893Y0064523D02*
X0168471Y0064523D01*
X0168471Y0062531D01*
X0168362Y0062124D01*
X0168151Y0061759D01*
X0167853Y0061461D01*
X0167489Y0061251D01*
X0167082Y0061142D01*
X0164893Y0061142D01*
X0164893Y0064523D01*
X0164893Y0063923D02*
X0163731Y0063923D01*
X0163731Y0064523D02*
X0163731Y0061142D01*
X0161542Y0061142D01*
X0161135Y0061251D01*
X0160770Y0061461D01*
X0160473Y0061759D01*
X0160262Y0062124D01*
X0160153Y0062531D01*
X0160153Y0064523D01*
X0163731Y0064523D01*
X0163731Y0065121D02*
X0149767Y0065121D01*
X0149767Y0063923D02*
X0160153Y0063923D01*
X0160153Y0062724D02*
X0149767Y0062724D01*
X0149131Y0061526D02*
X0160706Y0061526D01*
X0163731Y0061526D02*
X0164893Y0061526D01*
X0164893Y0062724D02*
X0163731Y0062724D01*
X0167918Y0061526D02*
X0191960Y0061526D01*
X0192778Y0062724D02*
X0168471Y0062724D01*
X0168471Y0063923D02*
X0194185Y0063923D01*
X0192891Y0062891D02*
X0192891Y0062891D01*
X0191143Y0060327D02*
X0119076Y0060327D01*
X0119653Y0059129D02*
X0190326Y0059129D01*
X0190104Y0058802D02*
X0190104Y0058802D01*
X0189835Y0057930D02*
X0120230Y0057930D01*
X0120808Y0056732D02*
X0189465Y0056732D01*
X0189095Y0055533D02*
X0121067Y0055533D01*
X0121248Y0054334D02*
X0148334Y0054334D01*
X0135483Y0053136D02*
X0121428Y0053136D01*
X0121609Y0051937D02*
X0133407Y0051937D01*
X0132022Y0050739D02*
X0121530Y0050739D01*
X0121350Y0049540D02*
X0130824Y0049540D01*
X0129625Y0048342D02*
X0121169Y0048342D01*
X0120988Y0047143D02*
X0128426Y0047143D01*
X0127228Y0045945D02*
X0120555Y0045945D01*
X0120922Y0046707D02*
X0120922Y0046707D01*
X0119978Y0044746D02*
X0126029Y0044746D01*
X0124831Y0043548D02*
X0119401Y0043548D01*
X0118824Y0042349D02*
X0123632Y0042349D01*
X0122434Y0041151D02*
X0117757Y0041151D01*
X0118776Y0042249D02*
X0118776Y0042249D01*
X0116645Y0039952D02*
X0121235Y0039952D01*
X0120021Y0038754D02*
X0115533Y0038754D01*
X0115410Y0038622D02*
X0115410Y0038622D01*
X0113563Y0037555D02*
X0118256Y0037555D01*
X0123827Y0035190D02*
X0124146Y0035509D01*
X0135116Y0046479D01*
X0135470Y0046833D01*
X0136197Y0047471D01*
X0137870Y0048437D01*
X0139736Y0048937D01*
X0140702Y0049000D01*
X0148200Y0049000D01*
X0148968Y0048231D01*
X0149114Y0048231D01*
X0149114Y0042270D01*
X0149972Y0039065D01*
X0150291Y0038514D01*
X0149860Y0037474D01*
X0149860Y0035406D01*
X0150652Y0033494D01*
X0152114Y0032032D01*
X0154026Y0031240D01*
X0156094Y0031240D01*
X0158006Y0032032D01*
X0159468Y0033494D01*
X0160260Y0035406D01*
X0160260Y0037474D01*
X0159468Y0039386D01*
X0158006Y0040848D01*
X0156094Y0041640D01*
X0154731Y0041640D01*
X0154377Y0042963D01*
X0154314Y0043929D01*
X0154314Y0048231D01*
X0154459Y0048231D01*
X0155060Y0048833D01*
X0155661Y0048231D01*
X0161152Y0048231D01*
X0161920Y0049000D01*
X0172918Y0049000D01*
X0173884Y0048937D01*
X0175750Y0048437D01*
X0177423Y0047471D01*
X0178150Y0046833D01*
X0178516Y0046467D01*
X0189427Y0035556D01*
X0189793Y0035190D01*
X0190966Y0034017D01*
X0193839Y0032359D01*
X0197043Y0031500D01*
X0212577Y0031500D01*
X0215781Y0032359D01*
X0218654Y0034017D01*
X0218654Y0034017D01*
X0219827Y0035190D01*
X0220152Y0035515D01*
X0231110Y0046473D01*
X0231470Y0046833D01*
X0232197Y0047471D01*
X0233870Y0048437D01*
X0235736Y0048937D01*
X0236702Y0049000D01*
X0248200Y0049000D01*
X0248968Y0048231D01*
X0249114Y0048231D01*
X0249114Y0042270D01*
X0249972Y0039065D01*
X0250291Y0038514D01*
X0249860Y0037474D01*
X0249860Y0035406D01*
X0250652Y0033494D01*
X0252114Y0032032D01*
X0254026Y0031240D01*
X0256094Y0031240D01*
X0258006Y0032032D01*
X0259468Y0033494D01*
X0260260Y0035406D01*
X0260260Y0037474D01*
X0259468Y0039386D01*
X0258006Y0040848D01*
X0256094Y0041640D01*
X0254731Y0041640D01*
X0254377Y0042963D01*
X0254314Y0043929D01*
X0254314Y0048231D01*
X0254459Y0048231D01*
X0255060Y0048833D01*
X0255661Y0048231D01*
X0261152Y0048231D01*
X0261920Y0049000D01*
X0267918Y0049000D01*
X0268884Y0048937D01*
X0270750Y0048437D01*
X0272423Y0047471D01*
X0273150Y0046833D01*
X0273442Y0046541D01*
X0276968Y0043015D01*
X0277293Y0042690D01*
X0278466Y0041517D01*
X0281339Y0039859D01*
X0284543Y0039000D01*
X0295617Y0039000D01*
X0295736Y0038711D01*
X0297171Y0037276D01*
X0298804Y0036600D01*
X0297171Y0035924D01*
X0295736Y0034489D01*
X0294960Y0032614D01*
X0294960Y0030586D01*
X0295736Y0028711D01*
X0297171Y0027276D01*
X0297460Y0027157D01*
X0297460Y0026760D01*
X0297369Y0025602D01*
X0296653Y0023400D01*
X0295293Y0021527D01*
X0293420Y0020167D01*
X0291218Y0019451D01*
X0290060Y0019360D01*
X0259611Y0019360D01*
X0259468Y0019706D01*
X0258006Y0021168D01*
X0256094Y0021960D01*
X0254026Y0021960D01*
X0252114Y0021168D01*
X0250652Y0019706D01*
X0250509Y0019360D01*
X0159611Y0019360D01*
X0159468Y0019706D01*
X0158006Y0021168D01*
X0156094Y0021960D01*
X0154026Y0021960D01*
X0152114Y0021168D01*
X0150652Y0019706D01*
X0150509Y0019360D01*
X0059611Y0019360D01*
X0059468Y0019706D01*
X0058006Y0021168D01*
X0056094Y0021960D01*
X0054026Y0021960D01*
X0052114Y0021168D01*
X0050652Y0019706D01*
X0050509Y0019360D01*
X0020060Y0019360D01*
X0018902Y0019451D01*
X0016700Y0020167D01*
X0014827Y0021527D01*
X0013467Y0023400D01*
X0012751Y0025602D01*
X0012660Y0026760D01*
X0012660Y0027157D01*
X0012949Y0027276D01*
X0014384Y0028711D01*
X0015160Y0030586D01*
X0015160Y0032614D01*
X0014384Y0034489D01*
X0012949Y0035924D01*
X0011316Y0036600D01*
X0012949Y0037276D01*
X0014384Y0038711D01*
X0014503Y0039000D01*
X0033077Y0039000D01*
X0036281Y0039859D01*
X0039154Y0041517D01*
X0039154Y0041517D01*
X0040327Y0042690D01*
X0040693Y0043056D01*
X0040693Y0043056D01*
X0044121Y0046484D01*
X0044470Y0046833D01*
X0045197Y0047471D01*
X0046870Y0048437D01*
X0048363Y0048837D01*
X0048968Y0048231D01*
X0049114Y0048231D01*
X0049114Y0042270D01*
X0049972Y0039065D01*
X0050291Y0038514D01*
X0049860Y0037474D01*
X0049860Y0035406D01*
X0050652Y0033494D01*
X0052114Y0032032D01*
X0054026Y0031240D01*
X0056094Y0031240D01*
X0058006Y0032032D01*
X0059468Y0033494D01*
X0060260Y0035406D01*
X0060260Y0037474D01*
X0059468Y0039386D01*
X0058006Y0040848D01*
X0056094Y0041640D01*
X0054731Y0041640D01*
X0054377Y0042963D01*
X0054314Y0043929D01*
X0054314Y0048231D01*
X0054459Y0048231D01*
X0055060Y0048833D01*
X0055661Y0048231D01*
X0061152Y0048231D01*
X0061920Y0049000D01*
X0067918Y0049000D01*
X0068884Y0048937D01*
X0070750Y0048437D01*
X0072423Y0047471D01*
X0073150Y0046833D01*
X0073516Y0046467D01*
X0084427Y0035556D01*
X0084793Y0035190D01*
X0085966Y0034017D01*
X0088839Y0032359D01*
X0092043Y0031500D01*
X0116577Y0031500D01*
X0119781Y0032359D01*
X0122654Y0034017D01*
X0122654Y0034017D01*
X0123827Y0035190D01*
X0123827Y0035190D01*
X0123795Y0035158D02*
X0149962Y0035158D01*
X0149860Y0036357D02*
X0124994Y0036357D01*
X0126192Y0037555D02*
X0149894Y0037555D01*
X0150152Y0038754D02*
X0127391Y0038754D01*
X0128589Y0039952D02*
X0149734Y0039952D01*
X0149972Y0039065D02*
X0149972Y0039065D01*
X0149413Y0041151D02*
X0129788Y0041151D01*
X0130986Y0042349D02*
X0149114Y0042349D01*
X0149114Y0043548D02*
X0132185Y0043548D01*
X0133383Y0044746D02*
X0149114Y0044746D01*
X0154314Y0044746D02*
X0180237Y0044746D01*
X0181435Y0043548D02*
X0154338Y0043548D01*
X0154541Y0042349D02*
X0182634Y0042349D01*
X0183832Y0041151D02*
X0157275Y0041151D01*
X0158902Y0039952D02*
X0185031Y0039952D01*
X0186229Y0038754D02*
X0159730Y0038754D01*
X0160226Y0037555D02*
X0187428Y0037555D01*
X0188626Y0036357D02*
X0160260Y0036357D01*
X0160158Y0035158D02*
X0189825Y0035158D01*
X0189427Y0035556D02*
X0189427Y0035556D01*
X0190966Y0034017D02*
X0190966Y0034017D01*
X0191065Y0033960D02*
X0159661Y0033960D01*
X0158735Y0032761D02*
X0193141Y0032761D01*
X0196809Y0031563D02*
X0156874Y0031563D01*
X0153246Y0031563D02*
X0116811Y0031563D01*
X0119781Y0032359D02*
X0119781Y0032359D01*
X0120479Y0032761D02*
X0151385Y0032761D01*
X0150459Y0033960D02*
X0122554Y0033960D01*
X0096760Y0037224D02*
X0096760Y0037224D01*
X0096344Y0037555D02*
X0090364Y0037555D01*
X0088599Y0038754D02*
X0094842Y0038754D01*
X0093339Y0039952D02*
X0087385Y0039952D01*
X0086186Y0041151D02*
X0092317Y0041151D01*
X0091500Y0042349D02*
X0084988Y0042349D01*
X0083789Y0043548D02*
X0090683Y0043548D01*
X0089996Y0044746D02*
X0082591Y0044746D01*
X0081392Y0045945D02*
X0089627Y0045945D01*
X0089257Y0047143D02*
X0080193Y0047143D01*
X0078995Y0048342D02*
X0088887Y0048342D01*
X0088645Y0049540D02*
X0077796Y0049540D01*
X0077193Y0050144D02*
X0077193Y0050144D01*
X0076598Y0050739D02*
X0088645Y0050739D01*
X0088645Y0051937D02*
X0075213Y0051937D01*
X0075654Y0051682D02*
X0075654Y0051682D01*
X0073137Y0053136D02*
X0088645Y0053136D01*
X0088726Y0054334D02*
X0061786Y0054334D01*
X0072781Y0053341D02*
X0072781Y0053341D01*
X0070914Y0048342D02*
X0061262Y0048342D01*
X0055551Y0048342D02*
X0054569Y0048342D01*
X0054314Y0047143D02*
X0072796Y0047143D01*
X0073516Y0046467D02*
X0073516Y0046467D01*
X0074038Y0045945D02*
X0054314Y0045945D01*
X0054314Y0044746D02*
X0075237Y0044746D01*
X0076435Y0043548D02*
X0054338Y0043548D01*
X0054541Y0042349D02*
X0077634Y0042349D01*
X0078832Y0041151D02*
X0057275Y0041151D01*
X0058902Y0039952D02*
X0080031Y0039952D01*
X0081229Y0038754D02*
X0059730Y0038754D01*
X0060226Y0037555D02*
X0082428Y0037555D01*
X0083626Y0036357D02*
X0060260Y0036357D01*
X0060158Y0035158D02*
X0084825Y0035158D01*
X0084427Y0035556D02*
X0084427Y0035556D01*
X0086065Y0033960D02*
X0059661Y0033960D01*
X0058735Y0032761D02*
X0088141Y0032761D01*
X0088839Y0032359D02*
X0088839Y0032359D01*
X0091809Y0031563D02*
X0056874Y0031563D01*
X0053246Y0031563D02*
X0015160Y0031563D01*
X0015099Y0032761D02*
X0051385Y0032761D01*
X0050459Y0033960D02*
X0014603Y0033960D01*
X0013714Y0035158D02*
X0049962Y0035158D01*
X0049860Y0036357D02*
X0011903Y0036357D01*
X0013228Y0037555D02*
X0049894Y0037555D01*
X0050152Y0038754D02*
X0014401Y0038754D01*
X0014126Y0044746D02*
X0034187Y0044746D01*
X0036169Y0045945D02*
X0012897Y0045945D01*
X0012628Y0047143D02*
X0037426Y0047143D01*
X0037016Y0046733D02*
X0037016Y0046733D01*
X0038625Y0048342D02*
X0014014Y0048342D01*
X0029208Y0049540D02*
X0039824Y0049540D01*
X0041022Y0050739D02*
X0029923Y0050739D01*
X0030035Y0051937D02*
X0042407Y0051937D01*
X0044483Y0053136D02*
X0029644Y0053136D01*
X0028232Y0054334D02*
X0048334Y0054334D01*
X0048043Y0054200D02*
X0048043Y0054200D01*
X0040300Y0059129D02*
X0090326Y0059129D01*
X0090104Y0058802D02*
X0090104Y0058802D01*
X0089835Y0057930D02*
X0013603Y0057930D01*
X0011633Y0056732D02*
X0089465Y0056732D01*
X0089095Y0055533D02*
X0013339Y0055533D01*
X0014448Y0054334D02*
X0025888Y0054334D01*
X0043837Y0060327D02*
X0091143Y0060327D01*
X0091960Y0061526D02*
X0067918Y0061526D01*
X0067853Y0061461D02*
X0068151Y0061759D01*
X0068362Y0062124D01*
X0068471Y0062531D01*
X0068471Y0064523D01*
X0064893Y0064523D01*
X0064893Y0065685D01*
X0063731Y0065685D01*
X0063731Y0069066D01*
X0061542Y0069066D01*
X0061135Y0068957D01*
X0060770Y0068746D01*
X0060473Y0068449D01*
X0060262Y0068084D01*
X0060153Y0067677D01*
X0060153Y0065685D01*
X0063731Y0065685D01*
X0063731Y0064523D01*
X0064893Y0064523D01*
X0064893Y0061142D01*
X0067082Y0061142D01*
X0067489Y0061251D01*
X0067853Y0061461D01*
X0068471Y0062724D02*
X0092778Y0062724D01*
X0092891Y0062891D02*
X0092891Y0062891D01*
X0092891Y0062891D01*
X0094185Y0063923D02*
X0068471Y0063923D01*
X0068471Y0065685D02*
X0064893Y0065685D01*
X0064893Y0069066D01*
X0067082Y0069066D01*
X0067489Y0068957D01*
X0067853Y0068746D01*
X0068151Y0068449D01*
X0068362Y0068084D01*
X0068471Y0067677D01*
X0068471Y0065685D01*
X0068471Y0066320D02*
X0097635Y0066320D01*
X0095688Y0065121D02*
X0064893Y0065121D01*
X0063731Y0065121D02*
X0049767Y0065121D01*
X0049767Y0063923D02*
X0060153Y0063923D01*
X0060153Y0064523D02*
X0060153Y0062531D01*
X0060262Y0062124D01*
X0060473Y0061759D01*
X0060770Y0061461D01*
X0061135Y0061251D01*
X0061542Y0061142D01*
X0063731Y0061142D01*
X0063731Y0064523D01*
X0060153Y0064523D01*
X0060153Y0062724D02*
X0049767Y0062724D01*
X0049131Y0061526D02*
X0060706Y0061526D01*
X0063731Y0061526D02*
X0064893Y0061526D01*
X0064893Y0062724D02*
X0063731Y0062724D01*
X0063731Y0063923D02*
X0064893Y0063923D01*
X0064893Y0066320D02*
X0063731Y0066320D01*
X0063731Y0067518D02*
X0064893Y0067518D01*
X0064893Y0068717D02*
X0063731Y0068717D01*
X0060741Y0068717D02*
X0049096Y0068717D01*
X0049767Y0067518D02*
X0060153Y0067518D01*
X0060153Y0066320D02*
X0049767Y0066320D01*
X0042520Y0068717D02*
X0014516Y0068717D01*
X0013459Y0067518D02*
X0041849Y0067518D01*
X0041849Y0066320D02*
X0011993Y0066320D01*
X0013751Y0065121D02*
X0041614Y0065121D01*
X0065220Y0073511D02*
X0015012Y0073511D01*
X0015313Y0072312D02*
X0066419Y0072312D01*
X0066041Y0072690D02*
X0066041Y0072690D01*
X0067214Y0071518D02*
X0067214Y0071517D01*
X0067214Y0071517D01*
X0067913Y0071114D02*
X0015349Y0071114D01*
X0015085Y0069915D02*
X0069989Y0069915D01*
X0070087Y0069859D02*
X0070087Y0069859D01*
X0067883Y0068717D02*
X0136957Y0068717D01*
X0139593Y0067518D02*
X0109085Y0067518D01*
X0106301Y0068154D02*
X0106300Y0068154D01*
X0101366Y0067784D02*
X0101366Y0067784D01*
X0100689Y0067518D02*
X0068471Y0067518D01*
X0112394Y0066320D02*
X0140915Y0066320D01*
X0141849Y0065121D02*
X0114470Y0065121D01*
X0116018Y0063923D02*
X0141849Y0063923D01*
X0141849Y0062724D02*
X0117130Y0062724D01*
X0118243Y0061526D02*
X0142485Y0061526D01*
X0149767Y0066320D02*
X0160153Y0066320D01*
X0160153Y0067518D02*
X0149767Y0067518D01*
X0163731Y0067518D02*
X0164893Y0067518D01*
X0164893Y0066320D02*
X0163731Y0066320D01*
X0160798Y0074709D02*
X0149322Y0074709D01*
X0149767Y0075908D02*
X0160353Y0075908D01*
X0160353Y0077106D02*
X0149767Y0077106D01*
X0149767Y0078305D02*
X0160353Y0078305D01*
X0160353Y0079503D02*
X0149767Y0079503D01*
X0149767Y0080702D02*
X0160353Y0080702D01*
X0168271Y0080702D02*
X0230991Y0080702D01*
X0230991Y0081900D02*
X0147660Y0081900D01*
X0142460Y0081900D02*
X0124128Y0081900D01*
X0124128Y0080702D02*
X0141849Y0080702D01*
X0147660Y0085496D02*
X0231090Y0085496D01*
X0231198Y0086694D02*
X0147660Y0086694D01*
X0147660Y0087893D02*
X0231191Y0087893D01*
X0231191Y0089091D02*
X0147660Y0089091D01*
X0147660Y0090290D02*
X0231191Y0090290D01*
X0231191Y0091488D02*
X0147660Y0091488D01*
X0167826Y0074709D02*
X0207641Y0074709D01*
X0216826Y0073511D02*
X0265220Y0073511D01*
X0266419Y0072312D02*
X0218025Y0072312D01*
X0219223Y0071114D02*
X0267617Y0071114D01*
X0268816Y0069915D02*
X0220422Y0069915D01*
X0222088Y0068717D02*
X0242520Y0068717D01*
X0249096Y0068717D02*
X0260741Y0068717D01*
X0260770Y0068746D02*
X0260473Y0068449D01*
X0260262Y0068084D01*
X0260153Y0067677D01*
X0260153Y0065685D01*
X0263731Y0065685D01*
X0263731Y0069066D01*
X0261542Y0069066D01*
X0261135Y0068957D01*
X0260770Y0068746D01*
X0263731Y0068717D02*
X0264893Y0068717D01*
X0264893Y0069066D02*
X0267082Y0069066D01*
X0267489Y0068957D01*
X0267853Y0068746D01*
X0268151Y0068449D01*
X0268362Y0068084D01*
X0268471Y0067677D01*
X0268471Y0065685D01*
X0264893Y0065685D01*
X0263731Y0065685D01*
X0263731Y0064523D01*
X0264893Y0064523D01*
X0264893Y0065685D01*
X0264893Y0069066D01*
X0267883Y0068717D02*
X0270014Y0068717D01*
X0271213Y0067518D02*
X0268471Y0067518D01*
X0268471Y0066320D02*
X0272411Y0066320D01*
X0273610Y0065121D02*
X0264893Y0065121D01*
X0264893Y0064523D02*
X0268471Y0064523D01*
X0268471Y0062531D01*
X0268362Y0062124D01*
X0268151Y0061759D01*
X0267853Y0061461D01*
X0267489Y0061251D01*
X0267082Y0061142D01*
X0264893Y0061142D01*
X0264893Y0064523D01*
X0264893Y0063923D02*
X0263731Y0063923D01*
X0263731Y0064523D02*
X0263731Y0061142D01*
X0261542Y0061142D01*
X0261135Y0061251D01*
X0260770Y0061461D01*
X0260473Y0061759D01*
X0260262Y0062124D01*
X0260153Y0062531D01*
X0260153Y0064523D01*
X0263731Y0064523D01*
X0263731Y0065121D02*
X0249767Y0065121D01*
X0249767Y0063923D02*
X0260153Y0063923D01*
X0260153Y0062724D02*
X0249767Y0062724D01*
X0249131Y0061526D02*
X0260706Y0061526D01*
X0263731Y0061526D02*
X0264893Y0061526D01*
X0264893Y0062724D02*
X0263731Y0062724D01*
X0267918Y0061526D02*
X0277205Y0061526D01*
X0277214Y0061517D02*
X0277214Y0061517D01*
X0276007Y0062724D02*
X0268471Y0062724D01*
X0268471Y0063923D02*
X0274808Y0063923D01*
X0264893Y0066320D02*
X0263731Y0066320D01*
X0263731Y0067518D02*
X0264893Y0067518D01*
X0260153Y0067518D02*
X0249767Y0067518D01*
X0249767Y0066320D02*
X0260153Y0066320D01*
X0242485Y0061526D02*
X0218243Y0061526D01*
X0217130Y0062724D02*
X0223218Y0062724D01*
X0220835Y0063363D02*
X0220835Y0063363D01*
X0219865Y0063923D02*
X0216018Y0063923D01*
X0215410Y0064578D02*
X0215410Y0064578D01*
X0214470Y0065121D02*
X0217862Y0065121D01*
X0217962Y0065021D02*
X0217962Y0065021D01*
X0216663Y0066320D02*
X0212394Y0066320D01*
X0216423Y0066560D02*
X0216423Y0066560D01*
X0219076Y0060327D02*
X0279275Y0060327D01*
X0280087Y0059859D02*
X0280087Y0059859D01*
X0282812Y0059129D02*
X0219653Y0059129D01*
X0220230Y0057930D02*
X0296517Y0057930D01*
X0298487Y0056732D02*
X0220808Y0056732D01*
X0220922Y0056493D02*
X0220922Y0056493D01*
X0221067Y0055533D02*
X0296781Y0055533D01*
X0295672Y0054334D02*
X0261786Y0054334D01*
X0272781Y0053341D02*
X0272781Y0053341D01*
X0273137Y0053136D02*
X0295176Y0053136D01*
X0294960Y0051937D02*
X0275213Y0051937D01*
X0275654Y0051682D02*
X0275654Y0051682D01*
X0275654Y0051682D01*
X0276598Y0050739D02*
X0294960Y0050739D01*
X0295393Y0049540D02*
X0277796Y0049540D01*
X0276827Y0050510D02*
X0276827Y0050510D01*
X0278995Y0048342D02*
X0296106Y0048342D01*
X0297492Y0047143D02*
X0280193Y0047143D01*
X0281451Y0045945D02*
X0297223Y0045945D01*
X0295994Y0044746D02*
X0283433Y0044746D01*
X0277634Y0042349D02*
X0254541Y0042349D01*
X0254338Y0043548D02*
X0276435Y0043548D01*
X0277293Y0042690D02*
X0277293Y0042690D01*
X0278466Y0041517D02*
X0278466Y0041517D01*
X0279101Y0041151D02*
X0257275Y0041151D01*
X0258902Y0039952D02*
X0281176Y0039952D01*
X0281339Y0039859D02*
X0281339Y0039859D01*
X0275237Y0044746D02*
X0254314Y0044746D01*
X0254314Y0045945D02*
X0274038Y0045945D01*
X0272796Y0047143D02*
X0254314Y0047143D01*
X0254569Y0048342D02*
X0255551Y0048342D01*
X0261262Y0048342D02*
X0270914Y0048342D01*
X0249114Y0047143D02*
X0231824Y0047143D01*
X0230582Y0045945D02*
X0249114Y0045945D01*
X0249114Y0044746D02*
X0229383Y0044746D01*
X0228185Y0043548D02*
X0249114Y0043548D01*
X0249114Y0042349D02*
X0226986Y0042349D01*
X0225788Y0041151D02*
X0249413Y0041151D01*
X0249734Y0039952D02*
X0224589Y0039952D01*
X0223391Y0038754D02*
X0250152Y0038754D01*
X0249972Y0039065D02*
X0249972Y0039065D01*
X0249894Y0037555D02*
X0222192Y0037555D01*
X0220994Y0036357D02*
X0249860Y0036357D01*
X0249962Y0035158D02*
X0219795Y0035158D01*
X0219827Y0035190D02*
X0219827Y0035190D01*
X0218554Y0033960D02*
X0250459Y0033960D01*
X0251385Y0032761D02*
X0216479Y0032761D01*
X0215781Y0032359D02*
X0215781Y0032359D01*
X0212811Y0031563D02*
X0253246Y0031563D01*
X0256874Y0031563D02*
X0294960Y0031563D01*
X0295021Y0032761D02*
X0258735Y0032761D01*
X0259661Y0033960D02*
X0295517Y0033960D01*
X0296406Y0035158D02*
X0260158Y0035158D01*
X0260260Y0036357D02*
X0298217Y0036357D01*
X0296892Y0037555D02*
X0260226Y0037555D01*
X0259730Y0038754D02*
X0295719Y0038754D01*
X0295052Y0030364D02*
X0015068Y0030364D01*
X0014572Y0029166D02*
X0295548Y0029166D01*
X0296480Y0027967D02*
X0013640Y0027967D01*
X0012660Y0026769D02*
X0297460Y0026769D01*
X0297358Y0025570D02*
X0012762Y0025570D01*
X0013151Y0024372D02*
X0296969Y0024372D01*
X0296488Y0023173D02*
X0013632Y0023173D01*
X0014502Y0021975D02*
X0295618Y0021975D01*
X0294259Y0020776D02*
X0258398Y0020776D01*
X0259521Y0019578D02*
X0291607Y0019578D01*
X0295852Y0015393D02*
X0299081Y0017739D01*
X0299081Y0017739D01*
X0299081Y0017739D01*
X0301427Y0020968D01*
X0301427Y0020968D01*
X0302660Y0024764D01*
X0302660Y0027157D01*
X0302949Y0027276D01*
X0303460Y0027788D01*
X0303460Y0003200D01*
X0006660Y0003200D01*
X0006660Y0027788D01*
X0007171Y0027276D01*
X0007460Y0027157D01*
X0007460Y0024764D01*
X0008693Y0020968D01*
X0011039Y0017739D01*
X0011039Y0017739D01*
X0011039Y0017739D01*
X0014268Y0015393D01*
X0014268Y0015393D01*
X0018064Y0014160D01*
X0019543Y0014160D01*
X0050509Y0014160D01*
X0050652Y0013814D01*
X0052114Y0012352D01*
X0054026Y0011560D01*
X0056094Y0011560D01*
X0058006Y0012352D01*
X0059468Y0013814D01*
X0059611Y0014160D01*
X0150509Y0014160D01*
X0150652Y0013814D01*
X0152114Y0012352D01*
X0154026Y0011560D01*
X0156094Y0011560D01*
X0158006Y0012352D01*
X0159468Y0013814D01*
X0159611Y0014160D01*
X0250509Y0014160D01*
X0250652Y0013814D01*
X0252114Y0012352D01*
X0254026Y0011560D01*
X0256094Y0011560D01*
X0258006Y0012352D01*
X0259468Y0013814D01*
X0259611Y0014160D01*
X0292056Y0014160D01*
X0295852Y0015393D01*
X0295852Y0015393D01*
X0296662Y0015982D02*
X0303460Y0015982D01*
X0303460Y0014784D02*
X0293975Y0014784D01*
X0298312Y0017181D02*
X0303460Y0017181D01*
X0303460Y0018379D02*
X0299545Y0018379D01*
X0300416Y0019578D02*
X0303460Y0019578D01*
X0303460Y0020776D02*
X0301287Y0020776D01*
X0301754Y0021975D02*
X0303460Y0021975D01*
X0303460Y0023173D02*
X0302143Y0023173D01*
X0302532Y0024372D02*
X0303460Y0024372D01*
X0303460Y0025570D02*
X0302660Y0025570D01*
X0302660Y0026769D02*
X0303460Y0026769D01*
X0303460Y0013585D02*
X0259239Y0013585D01*
X0258041Y0012387D02*
X0303460Y0012387D01*
X0303460Y0011188D02*
X0006660Y0011188D01*
X0006660Y0009990D02*
X0303460Y0009990D01*
X0303460Y0008791D02*
X0006660Y0008791D01*
X0006660Y0007593D02*
X0303460Y0007593D01*
X0303460Y0006394D02*
X0006660Y0006394D01*
X0006660Y0005196D02*
X0303460Y0005196D01*
X0303460Y0003997D02*
X0006660Y0003997D01*
X0006660Y0012387D02*
X0052079Y0012387D01*
X0050881Y0013585D02*
X0006660Y0013585D01*
X0006660Y0014784D02*
X0016145Y0014784D01*
X0013458Y0015982D02*
X0006660Y0015982D01*
X0006660Y0017181D02*
X0011808Y0017181D01*
X0010575Y0018379D02*
X0006660Y0018379D01*
X0006660Y0019578D02*
X0009704Y0019578D01*
X0008833Y0020776D02*
X0006660Y0020776D01*
X0008693Y0020968D02*
X0008693Y0020968D01*
X0008366Y0021975D02*
X0006660Y0021975D01*
X0006660Y0023173D02*
X0007977Y0023173D01*
X0007588Y0024372D02*
X0006660Y0024372D01*
X0006660Y0025570D02*
X0007460Y0025570D01*
X0007460Y0026769D02*
X0006660Y0026769D01*
X0015861Y0020776D02*
X0051722Y0020776D01*
X0050599Y0019578D02*
X0018513Y0019578D01*
X0058398Y0020776D02*
X0151722Y0020776D01*
X0150599Y0019578D02*
X0059521Y0019578D01*
X0059239Y0013585D02*
X0150881Y0013585D01*
X0152079Y0012387D02*
X0058041Y0012387D01*
X0049972Y0039065D02*
X0049972Y0039065D01*
X0049734Y0039952D02*
X0036444Y0039952D01*
X0036281Y0039859D02*
X0036281Y0039859D01*
X0038519Y0041151D02*
X0049413Y0041151D01*
X0049114Y0042349D02*
X0039986Y0042349D01*
X0041185Y0043548D02*
X0049114Y0043548D01*
X0049114Y0044746D02*
X0042383Y0044746D01*
X0043582Y0045945D02*
X0049114Y0045945D01*
X0049114Y0047143D02*
X0044824Y0047143D01*
X0044470Y0046833D02*
X0044470Y0046833D01*
X0046706Y0048342D02*
X0048858Y0048342D01*
X0010460Y0072312D02*
X0009660Y0072312D01*
X0009660Y0073511D02*
X0010460Y0073511D01*
X0010460Y0074709D02*
X0009660Y0074709D01*
X0009660Y0075908D02*
X0010460Y0075908D01*
X0006972Y0075908D02*
X0006660Y0075908D01*
X0134582Y0045945D02*
X0149114Y0045945D01*
X0149114Y0047143D02*
X0135824Y0047143D01*
X0137706Y0048342D02*
X0148858Y0048342D01*
X0154314Y0047143D02*
X0177796Y0047143D01*
X0178516Y0046467D02*
X0178516Y0046467D01*
X0179038Y0045945D02*
X0154314Y0045945D01*
X0154569Y0048342D02*
X0155551Y0048342D01*
X0161262Y0048342D02*
X0175914Y0048342D01*
X0181598Y0050739D02*
X0188645Y0050739D01*
X0188645Y0051937D02*
X0180213Y0051937D01*
X0180654Y0051682D02*
X0180654Y0051682D01*
X0182193Y0050144D02*
X0182193Y0050144D01*
X0182796Y0049540D02*
X0188645Y0049540D01*
X0188887Y0048342D02*
X0183995Y0048342D01*
X0185193Y0047143D02*
X0189257Y0047143D01*
X0189627Y0045945D02*
X0186392Y0045945D01*
X0187591Y0044746D02*
X0189996Y0044746D01*
X0190683Y0043548D02*
X0188789Y0043548D01*
X0189988Y0042349D02*
X0191500Y0042349D01*
X0191186Y0041151D02*
X0192317Y0041151D01*
X0192385Y0039952D02*
X0193339Y0039952D01*
X0193599Y0038754D02*
X0194842Y0038754D01*
X0195364Y0037555D02*
X0196344Y0037555D01*
X0196760Y0037224D02*
X0196760Y0037224D01*
X0213563Y0037555D02*
X0214256Y0037555D01*
X0215533Y0038754D02*
X0216021Y0038754D01*
X0216645Y0039952D02*
X0217235Y0039952D01*
X0217757Y0041151D02*
X0218434Y0041151D01*
X0218776Y0042249D02*
X0218776Y0042249D01*
X0218824Y0042349D02*
X0219632Y0042349D01*
X0219401Y0043548D02*
X0220831Y0043548D01*
X0219978Y0044746D02*
X0222029Y0044746D01*
X0223228Y0045945D02*
X0220555Y0045945D01*
X0220922Y0046707D02*
X0220922Y0046707D01*
X0220988Y0047143D02*
X0224426Y0047143D01*
X0225625Y0048342D02*
X0221169Y0048342D01*
X0221350Y0049540D02*
X0226824Y0049540D01*
X0228022Y0050739D02*
X0221530Y0050739D01*
X0221609Y0051937D02*
X0229407Y0051937D01*
X0231483Y0053136D02*
X0221428Y0053136D01*
X0221248Y0054334D02*
X0248334Y0054334D01*
X0248858Y0048342D02*
X0233706Y0048342D01*
X0188645Y0053136D02*
X0178137Y0053136D01*
X0177781Y0053341D02*
X0177781Y0053341D01*
X0188726Y0054334D02*
X0161786Y0054334D01*
X0209285Y0079837D02*
X0209285Y0079837D01*
X0209864Y0079503D02*
X0231414Y0079503D01*
X0238128Y0080702D02*
X0241849Y0080702D01*
X0242460Y0081900D02*
X0238128Y0081900D01*
X0234944Y0083099D02*
X0242460Y0083099D01*
X0242460Y0084297D02*
X0238128Y0084297D01*
X0238030Y0085496D02*
X0242460Y0085496D01*
X0242460Y0086694D02*
X0237922Y0086694D01*
X0237928Y0087893D02*
X0242460Y0087893D01*
X0242460Y0089091D02*
X0237928Y0089091D01*
X0237928Y0090290D02*
X0242460Y0090290D01*
X0242460Y0091488D02*
X0237928Y0091488D01*
X0247660Y0091488D02*
X0258264Y0091488D01*
X0261879Y0090290D02*
X0247660Y0090290D01*
X0247660Y0089091D02*
X0263392Y0089091D01*
X0264590Y0087893D02*
X0247660Y0087893D01*
X0247660Y0086694D02*
X0265789Y0086694D01*
X0266987Y0085496D02*
X0247660Y0085496D01*
X0247660Y0084297D02*
X0268186Y0084297D01*
X0269384Y0083099D02*
X0247660Y0083099D01*
X0299660Y0075908D02*
X0300460Y0075908D01*
X0300460Y0074709D02*
X0299660Y0074709D01*
X0299660Y0073511D02*
X0300460Y0073511D01*
X0300460Y0072312D02*
X0299660Y0072312D01*
X0303148Y0075908D02*
X0303460Y0075908D01*
X0251722Y0020776D02*
X0158398Y0020776D01*
X0159521Y0019578D02*
X0250599Y0019578D01*
X0250881Y0013585D02*
X0159239Y0013585D01*
X0158041Y0012387D02*
X0252079Y0012387D01*
M02*
